<svg xmlns="http://www.w3.org/2000/svg" xmlns:xlink="http://www.w3.org/1999/xlink" width="121" height="121" viewBox="0 0 121 121">
  <defs>
    <clipPath id="clip-path">
      <rect id="Rectángulo_400938" data-name="Rectángulo 400938" width="121" height="121" transform="translate(0 0)" fill="none"/>
    </clipPath>
    <clipPath id="clip-path-2">
      <rect id="Rectángulo_401073" data-name="Rectángulo 401073" width="92.219" height="41.532" fill="#efb499"/>
    </clipPath>
    <clipPath id="clip-path-3">
      <rect id="Rectángulo_406778" data-name="Rectángulo 406778" width="70" height="70" transform="translate(570.777 3149)" fill="#fff"/>
    </clipPath>
  </defs>
  <g id="Grupo_1120050" data-name="Grupo 1120050" transform="translate(-1091.496 -4872)">
    <g id="Grupo_1105096" data-name="Grupo 1105096" transform="translate(703.828 -1141)">
      <rect id="Rectángulo_401103" data-name="Rectángulo 401103" width="121" height="121" transform="translate(387.668 6013)" fill="none"/>
      <g id="Grupo_1099348" data-name="Grupo 1099348" transform="translate(387.668 6013)">
        <g id="Grupo_1099282" data-name="Grupo 1099282">
          <g id="Grupo_1099281" data-name="Grupo 1099281" clip-path="url(#clip-path-2)">
            <path id="Trazado_873375" data-name="Trazado 873375" d="M74.8,9.1c-4.139,0-6.28-2.03-8.17-3.821-1.855-1.756-3.452-3.274-6.792-3.274s-4.937,1.517-6.792,3.274C51.161,7.072,49.023,9.1,44.881,9.1s-6.28-2.03-8.169-3.821C34.857,3.525,33.26,2.007,29.92,2.007s-4.937,1.517-6.789,3.274C21.241,7.072,19.1,9.1,14.962,9.1S8.679,7.072,6.789,5.281C4.937,3.525,3.34,2.007,0,2.007V0C4.139,0,6.28,2.033,8.17,3.821c1.855,1.759,3.452,3.274,6.792,3.274S19.9,5.58,21.75,3.824C23.637,2.033,25.781,0,29.92,0s6.283,2.033,8.17,3.821c1.855,1.759,3.452,3.274,6.792,3.274s4.937-1.514,6.792-3.274C53.56,2.033,55.7,0,59.843,0s6.283,2.033,8.17,3.821C69.867,5.58,71.464,7.094,74.8,7.094S79.742,5.58,81.6,3.821C83.483,2.033,85.624,0,89.766,0V2.007c-3.34,0-4.937,1.517-6.792,3.274C81.084,7.072,78.943,9.1,74.8,9.1" transform="translate(2.453 32.43)" fill="#efb499"/>
            <path id="Trazado_873376" data-name="Trazado 873376" d="M74.8,9.1c-4.139,0-6.283-2.03-8.17-3.824-1.855-1.756-3.452-3.27-6.792-3.27s-4.937,1.514-6.792,3.27C51.164,7.072,49.023,9.1,44.881,9.1s-6.283-2.03-8.17-3.824c-1.855-1.756-3.452-3.27-6.792-3.27s-4.937,1.517-6.789,3.27C21.241,7.072,19.1,9.1,14.962,9.1S8.679,7.072,6.789,5.278C4.937,3.522,3.34,2.007,0,2.007V0C4.139,0,6.283,2.03,8.17,3.821c1.855,1.759,3.452,3.274,6.792,3.274S19.9,5.58,21.75,3.821C23.637,2.03,25.781,0,29.92,0S36.2,2.03,38.093,3.821c1.852,1.759,3.449,3.274,6.789,3.274s4.937-1.514,6.792-3.274C53.56,2.03,55.7,0,59.843,0s6.283,2.03,8.17,3.821C69.867,5.58,71.464,7.094,74.8,7.094S79.742,5.58,81.6,3.821C83.486,2.03,85.627,0,89.769,0V2.007c-3.34,0-4.94,1.517-6.8,3.27C81.084,7.072,78.943,9.1,74.8,9.1" transform="translate(1.635 21.62)" fill="#efb499"/>
            <path id="Trazado_873377" data-name="Trazado 873377" d="M74.8,9.1c-4.139,0-6.283-2.03-8.169-3.824-1.855-1.756-3.452-3.27-6.792-3.27s-4.937,1.514-6.792,3.27C51.164,7.072,49.02,9.1,44.881,9.1s-6.283-2.03-8.17-3.824c-1.855-1.756-3.452-3.27-6.792-3.27s-4.937,1.517-6.789,3.27C21.241,7.072,19.1,9.1,14.962,9.1S8.678,7.072,6.789,5.278C4.937,3.522,3.34,2.007,0,2.007V0C4.139,0,6.283,2.03,8.169,3.821c1.851,1.759,3.452,3.274,6.792,3.274S19.9,5.58,21.75,3.821C23.637,2.03,25.781,0,29.92,0S36.2,2.03,38.093,3.821c1.852,1.759,3.449,3.274,6.789,3.274s4.937-1.514,6.792-3.274C53.56,2.03,55.7,0,59.843,0s6.283,2.03,8.17,3.821C69.867,5.58,71.464,7.094,74.8,7.094S79.742,5.58,81.6,3.821C83.486,2.03,85.624,0,89.769,0V2.007c-3.34,0-4.941,1.517-6.8,3.27C81.084,7.072,78.943,9.1,74.8,9.1" transform="translate(0.818 10.81)" fill="#efb499"/>
            <path id="Trazado_873378" data-name="Trazado 873378" d="M74.8,9.1c-4.139,0-6.28-2.03-8.17-3.821-1.855-1.756-3.452-3.27-6.792-3.27s-4.937,1.514-6.789,3.27C51.164,7.069,49.023,9.1,44.881,9.1s-6.28-2.03-8.169-3.821c-1.855-1.756-3.452-3.27-6.792-3.27s-4.937,1.514-6.789,3.267C21.245,7.069,19.1,9.1,14.962,9.1S8.678,7.069,6.789,5.278C4.937,3.522,3.34,2.007,0,2.007V0C4.139,0,6.283,2.03,8.17,3.821c1.855,1.756,3.452,3.27,6.792,3.27S19.9,5.577,21.75,3.821C23.64,2.03,25.781,0,29.92,0s6.28,2.03,8.173,3.821c1.852,1.756,3.449,3.27,6.789,3.27s4.937-1.514,6.792-3.27C53.563,2.03,55.7,0,59.843,0s6.28,2.03,8.17,3.821c1.855,1.756,3.452,3.27,6.792,3.27s4.937-1.514,6.792-3.27C83.486,2.03,85.627,0,89.769,0V2.007c-3.344,0-4.941,1.514-6.8,3.27C81.084,7.069,78.943,9.1,74.8,9.1" transform="translate(0 0.003)" fill="#efb499"/>
          </g>
        </g>
      </g>
      <circle id="Elipse_11504" data-name="Elipse 11504" cx="50.5" cy="50.5" r="50.5" transform="translate(402.668 6031)" fill="#ffce73"/>
      <circle id="Elipse_11503" data-name="Elipse 11503" cx="52.5" cy="52.5" r="52.5" transform="translate(395.668 6021)" fill="#f3f9ff"/>
    </g>
    <g id="Enmascarar_grupo_1098793" data-name="Enmascarar grupo 1098793" transform="translate(546.223 1749)" clip-path="url(#clip-path-3)">
      <g id="Grupo_1120059" data-name="Grupo 1120059" transform="translate(-1965.907 1731.503)">
        <path id="Trazado_907167" data-name="Trazado 907167" d="M2622.273,1626.9a6.419,6.419,0,0,1-6.121-6.332c-.045-2.22-.031-4.442-.005-6.662a2.556,2.556,0,0,1,2.536-2.716c4.4-.02,8.808.016,13.211.03q0,2.939,0,5.878c0,.534,0,1.053.744,1.067.727.013.793-.462.79-1.022-.008-1.633-.027-3.266.008-4.9.016-.721-.228-1.108-.972-1.11a22.292,22.292,0,0,0,.137-4.075c2.029-.3,4.073-.015,6.107-.15.2,3.921.047,7.845.083,11.768a19.92,19.92,0,0,1-.138,2.826,6.331,6.331,0,0,1-6.078,5.376c-.51-2.467-1.936-3.694-4.615-3.972.47-2.05.154-4.125.185-6.188a.688.688,0,0,0-.724-.686.8.8,0,0,0-.757.9c.069,1.991-.23,4,.215,5.974A4.771,4.771,0,0,0,2622.273,1626.9Z" transform="translate(-61.293 -148.009)" fill="#20325f"/>
        <path id="Trazado_907168" data-name="Trazado 907168" d="M2566.531,1521.74c-.976-4,.516-6.876,4.357-8.41,1.715-.685,3.425-1.382,5.142-2.059,1.864-.735,3.2-.186,3.935,1.649,1.59,3.964,3.158,7.936,4.735,11.906q-2.791,1.057-5.581,2.114a.848.848,0,0,0-.559,1.216c.218.539.684.427,1.115.252,1.576-.642,3.153-1.28,4.724-1.934.489-.2.9-.5.863-1.12a29.526,29.526,0,0,1,3.718-1.4l2.228,5.505a64.216,64.216,0,0,1-6.181,2.6c-1.934.815-3.883,1.6-5.838,2.358-3.773,1.471-6.684.456-8.788-3.036a4.965,4.965,0,0,0,1.964-5.952,1.987,1.987,0,0,0,1.275-.127c1.369-.585,2.741-1.162,4.128-1.7.525-.2,1.006-.477.8-1.07-.221-.653-.819-.619-1.379-.392-1.48.6-2.951,1.225-4.438,1.807a.873.873,0,0,0-.615.913C2570.674,1522.125,2569.185,1521.3,2566.531,1521.74Z" transform="translate(-22.314 -73.031)" fill="#04658e"/>
        <path id="Trazado_907169" data-name="Trazado 907169" d="M2715.659,1494.234c-1.036.924-1.56,2.262-2.585,3.195l-4.817-3.528c1.978-3.046,4.269-5.866,6.359-8.831.418-.593.864-1.167,1.3-1.751a6.515,6.515,0,0,1,8.919-2.056,1.289,1.289,0,0,1-.01.428c-.939,2.411-.149,4.292,1.767,5.836a1.128,1.128,0,0,0-1.036.46c-.95,1.323-1.923,2.629-2.879,3.947-.3.42-.43.9.037,1.254s.889.094,1.2-.325c.968-1.31,1.925-2.627,2.9-3.935a1.441,1.441,0,0,0,.22-1.033c1.988,1.171,3.955,1.432,5.89-.121a2.439,2.439,0,0,1,.474-.236,6.483,6.483,0,0,1,.836,9.1q-1.694,2.335-3.41,4.653c-1.3,1.743-2.647,1.96-4.379.687q-5.171-3.8-10.323-7.629c1.6-1.351,2.568-3.208,3.8-4.85a.767.767,0,0,0-.17-1.158c-.458-.288-.829-.022-1.113.362q-1.547,2.1-3.09,4.2A.881.881,0,0,0,2715.659,1494.234Z" transform="translate(-133.289 -49.084)" fill="#fcbf11"/>
        <path id="Trazado_907170" data-name="Trazado 907170" d="M2740.137,1588.789a6.365,6.365,0,0,1-7.977,3.508c-2.107-.683-4.188-1.452-6.264-2.226a2.576,2.576,0,0,1-1.661-3.425c1.472-4.18,3-8.342,4.5-12.511,1.817,1.176,3.929,1.617,5.919,2.361a.718.718,0,0,0,.935-.547c.172-.719-.458-.919-.949-1.1-1.422-.533-2.883-.967-4.283-1.549a1.429,1.429,0,0,0-1.684.184,29.368,29.368,0,0,1-3.707-1.317l1.971-5.676c2.625.7,5.12,1.783,7.688,2.648,1.578.531,3.134,1.126,4.7,1.7a6.509,6.509,0,0,1,4.383,8.093,5.467,5.467,0,0,0-3.538.716,9.394,9.394,0,0,0-1.88,2.2c-1.661-1-3.569-1.375-5.343-2.088-.481-.193-.961-.266-1.179.331s.134.945.685,1.14q2.2.78,4.4,1.574a1.949,1.949,0,0,0,1.177.008c-.519,2.161-.243,4.08,1.663,5.513A3.561,3.561,0,0,1,2740.137,1588.789Z" transform="translate(-145.636 -116.426)" fill="#89c35f"/>
        <path id="Trazado_907171" data-name="Trazado 907171" d="M2639.666,1438.611a6.465,6.465,0,0,1,8.764,2.318c1.166,1.711,2.324,3.429,3.435,5.177a2.564,2.564,0,0,1-.678,3.745c-3.672,2.479-7.386,4.9-11.083,7.338a1.459,1.459,0,0,0-.367-.986q-1.336-1.966-2.637-3.956c-.312-.479-.652-1.01-1.271-.629-.594.365-.359.983-.064,1.445.893,1.4,1.826,2.77,2.753,4.145a.887.887,0,0,0,1.272.4c.586.913,1.178,1.821,1.754,2.74.18.286.533.546.249.959a35.689,35.689,0,0,0-4.754,3.109,2.082,2.082,0,0,1-.392-.351c-2.433-3.648-4.9-7.274-7.273-10.96-1.879-2.917-1.233-6.29,1.53-8.644a4.918,4.918,0,0,0,6.2.691c0,.145-.06.318,0,.429a42.331,42.331,0,0,0,3.21,4.907.617.617,0,0,0,.958.125.791.791,0,0,0,.156-1.16c-.962-1.452-1.932-2.9-2.9-4.348a1.008,1.008,0,0,0-.735-.414,5.175,5.175,0,0,0,2.2-3.723C2640.064,1440.146,2639.669,1439.41,2639.666,1438.611Z" transform="translate(-70.811 -15.851)" fill="#bd202e"/>
        <path id="Trazado_907172" data-name="Trazado 907172" d="M2668.271,1546.236a35.677,35.677,0,0,1,4.754-3.109c.616-.031.732.526.983.883.9,1.283.884,1.292,1.8-.021a6.8,6.8,0,0,1,1.2-1.5l4.817,3.528c-.52.746-.322,1.147.572,1.3a1.5,1.5,0,0,1,.948.414l-1.972,5.676c-1.948-.554-1.95-.554-1.947,1.533,0,.542.015,1.083.023,1.625-2.034.135-4.077-.147-6.107.15-.012-.861-.045-1.722-.031-2.582.011-.692-.25-.8-.853-.54a15.619,15.619,0,0,1-1.524.5l-2.228-5.5a.729.729,0,0,0,.156-1.243A2,2,0,0,1,2668.271,1546.236Zm7.874,5.417c.79.155,1.18-.108,1.088-.96a1.386,1.386,0,0,1,.175-.726,1,1,0,0,0-.45-1.518,4.043,4.043,0,0,1-.792-.565c-.6-.558-1.066-.5-1.743.006-.73.542-.312,1.005-.159,1.506.147.481.423.924.557,1.407C2675.019,1551.516,2675.416,1551.835,2676.145,1551.652Z" transform="translate(-102.043 -97.672)" fill="#ebcab0"/>
        <path id="Trazado_907173" data-name="Trazado 907173" d="M2654.56,1700.3a15.936,15.936,0,0,1-.045,4.535,3.838,3.838,0,0,1-.514,1.3c-1.156,1.991-3.666,2.808-6.331,2.092a4.589,4.589,0,0,1-3.386-4.625c-.008-1.087.011-2.174.018-3.261Z" transform="translate(-83.298 -220.99)" fill="#8b5f3d"/>
        <path id="Trazado_907174" data-name="Trazado 907174" d="M2547.661,1570.808a18.537,18.537,0,0,1-3.914,1.56,4.389,4.389,0,0,1-5.143-2.458,5.794,5.794,0,0,1-.77-4.172,4.213,4.213,0,0,1,1.719-2.559,14.022,14.022,0,0,1,4.39-1.786Z" transform="translate(0 -112.445)" fill="#8b5f3d"/>
        <path id="Trazado_907175" data-name="Trazado 907175" d="M2803.435,1624.616a11.662,11.662,0,0,1,4.542,1.7,4.223,4.223,0,0,1,1.8,4.577,8.931,8.931,0,0,1-.836,2.351,4.416,4.416,0,0,1-5.04,2.322,19.9,19.9,0,0,1-3.771-1.372c.108-.343.208-.688.327-1.028Q2801.942,1628.891,2803.435,1624.616Z" transform="translate(-205.08 -161.848)" fill="#8b5f3d"/>
        <path id="Trazado_907176" data-name="Trazado 907176" d="M2786.414,1466.968c.868-3.068,3.924-5.428,6.487-4.787,3.823.956,6.367,4.758,3.4,8.434a8.716,8.716,0,0,1-1.84,2.249Q2790.567,1469.738,2786.414,1466.968Z" transform="translate(-194.363 -34.836)" fill="#8b5f3d"/>
        <path id="Trazado_907177" data-name="Trazado 907177" d="M2629.6,1428.18c-.668-.991-1.366-1.962-2-2.976a4.487,4.487,0,0,1,1.2-6.169,8.882,8.882,0,0,1,2.038-1.239,4.438,4.438,0,0,1,4.956,1.224,17.257,17.257,0,0,1,2.327,3.516Z" transform="translate(-69.681)" fill="#8b5f3d"/>
        <path id="Trazado_907178" data-name="Trazado 907178" d="M2639.391,1446.2l8.521-5.643.418.224c0,.8.4,1.534.33,2.354a5.174,5.174,0,0,1-2.2,3.723l-.692.462a4.918,4.918,0,0,1-6.2-.691Z" transform="translate(-79.476 -18.02)" fill="#ebcaaf"/>
        <path id="Trazado_907179" data-name="Trazado 907179" d="M2654.545,1684.51l-10.258.044-.024-.466a4.771,4.771,0,0,1,4.6-3.991l1.082,0c2.68.278,4.105,1.505,4.615,3.972Z" transform="translate(-83.283 -205.199)" fill="#ebcaaf"/>
        <path id="Trazado_907180" data-name="Trazado 907180" d="M2783.147,1484.459q4.147,2.777,8.044,5.9c0,.141,0,.283,0,.425a2.436,2.436,0,0,0-.474.236c-1.935,1.554-3.9,1.293-5.89.122l-.436-.368c-1.916-1.543-2.706-3.425-1.767-5.836a1.282,1.282,0,0,0,.01-.428Z" transform="translate(-191.096 -52.327)" fill="#edcbae"/>
        <path id="Trazado_907181" data-name="Trazado 907181" d="M2570.037,1569.549l-3.718-9.414.273-.24c2.654-.441,4.143.385,5.609,3.113l.224.572a4.966,4.966,0,0,1-1.964,5.952Z" transform="translate(-22.376 -111.186)" fill="#ebcaaf"/>
        <path id="Trazado_907182" data-name="Trazado 907182" d="M2793.137,1623.583q-1.49,4.276-2.979,8.552c-.118.339-.218.685-.327,1.028l-.549.016a3.548,3.548,0,0,0-.438-.47c-1.906-1.433-2.181-3.352-1.662-5.513l.258-.964a9.4,9.4,0,0,1,1.88-2.2,5.466,5.466,0,0,1,3.538-.716Z" transform="translate(-194.782 -160.815)" fill="#edcbae"/>
        <path id="Trazado_907183" data-name="Trazado 907183" d="M2745.187,1597.157a1.429,1.429,0,0,1,1.685-.184c1.4.582,2.861,1.016,4.283,1.549.491.184,1.121.384.949,1.1a.718.718,0,0,1-.935.547c-1.989-.745-4.1-1.186-5.919-2.362Q2745.218,1597.484,2745.187,1597.157Z" transform="translate(-162.147 -140.101)" fill="#75aa4d"/>
        <path id="Trazado_907184" data-name="Trazado 907184" d="M2665.378,1506.612a.887.887,0,0,1-1.272-.4c-.927-1.375-1.861-2.748-2.753-4.145-.294-.461-.53-1.079.065-1.445.619-.38.959.151,1.271.629q1.3,1.99,2.637,3.956a1.459,1.459,0,0,1,.367.986Z" transform="translate(-96.399 -64.856)" fill="#aa1729"/>
        <path id="Trazado_907185" data-name="Trazado 907185" d="M2628.988,1574.938c.034.621-.375.917-.863,1.12-1.571.654-3.148,1.292-4.724,1.934-.43.175-.9.286-1.115-.252a.848.848,0,0,1,.559-1.216q2.792-1.054,5.581-2.114Z" transform="translate(-66.04 -122.616)" fill="#325593"/>
        <path id="Trazado_907186" data-name="Trazado 907186" d="M2740.8,1522.5a.881.881,0,0,1-.117-1.339q1.546-2.1,3.089-4.2c.283-.384.655-.65,1.113-.362a.767.767,0,0,1,.17,1.158c-1.234,1.642-2.2,3.5-3.8,4.85Z" transform="translate(-158.428 -77.35)" fill="#e5a60a"/>
        <path id="Trazado_907187" data-name="Trazado 907187" d="M2688.824,1626.238c.745,0,.989.39.973,1.11-.036,1.632-.017,3.265-.009,4.9,0,.56-.063,1.035-.79,1.022-.745-.014-.745-.533-.743-1.067q.006-2.939,0-5.878Z" transform="translate(-117.659 -163.116)" fill="#192a4f"/>
        <path id="Trazado_907188" data-name="Trazado 907188" d="M2665.493,1655.515l-1.081,0c-.445-1.977-.146-3.983-.215-5.974a.8.8,0,0,1,.757-.9.687.687,0,0,1,.724.686C2665.647,1651.389,2665.963,1653.465,2665.493,1655.515Z" transform="translate(-98.832 -180.621)" fill="#414044"/>
        <path id="Trazado_907189" data-name="Trazado 907189" d="M2593.457,1564.854l-.225-.572a.873.873,0,0,1,.614-.913c1.488-.582,2.959-1.206,4.439-1.807.56-.228,1.157-.262,1.379.392.2.594-.28.866-.8,1.07-1.387.541-2.76,1.118-4.128,1.7A1.987,1.987,0,0,1,2593.457,1564.854Z" transform="translate(-43.406 -112.46)" fill="#414044"/>
        <path id="Trazado_907190" data-name="Trazado 907190" d="M2777.158,1513.329l.436.368a1.442,1.442,0,0,1-.22,1.033c-.97,1.308-1.927,2.625-2.895,3.935-.31.419-.721.69-1.2.325s-.342-.834-.037-1.254c.956-1.318,1.929-2.624,2.879-3.947A1.128,1.128,0,0,1,2777.158,1513.329Z" transform="translate(-183.858 -74.886)" fill="#414044"/>
        <path id="Trazado_907191" data-name="Trazado 907191" d="M2765.626,1628.771l-.258.964a1.953,1.953,0,0,1-1.178-.008q-2.2-.791-4.4-1.574c-.551-.195-.908-.529-.685-1.14s.7-.524,1.179-.331A35.322,35.322,0,0,1,2765.626,1628.771Z" transform="translate(-172.969 -163.355)" fill="#414044"/>
        <path id="Trazado_907192" data-name="Trazado 907192" d="M2668.491,1469.849l.692-.462a1.01,1.01,0,0,1,.735.414c.966,1.449,1.936,2.9,2.9,4.348a.79.79,0,0,1-.156,1.16.617.617,0,0,1-.958-.124,42.336,42.336,0,0,1-3.21-4.907C2668.432,1470.166,2668.489,1469.993,2668.491,1469.849Z" transform="translate(-102.194 -40.549)" fill="#414044"/>
        <path id="Trazado_907193" data-name="Trazado 907193" d="M2696.646,1569.528c-.729.182-1.125-.136-1.323-.849-.134-.483-.411-.926-.558-1.407-.152-.5-.571-.964.159-1.506.677-.5,1.146-.564,1.743-.006a4.025,4.025,0,0,0,.792.565,1,1,0,0,1,.45,1.518,1.394,1.394,0,0,0-.175.726C2697.827,1569.42,2697.436,1569.684,2696.646,1569.528Z" transform="translate(-122.545 -115.548)" fill="#f6f6f5"/>
      </g>
    </g>
  </g>
</svg>
