<svg xmlns="http://www.w3.org/2000/svg" xmlns:xlink="http://www.w3.org/1999/xlink" width="121" height="121" viewBox="0 0 121 121">
  <defs>
    <clipPath id="clip-path">
      <rect id="Rectángulo_400938" data-name="Rectángulo 400938" width="121" height="121" transform="translate(0 0)" fill="none"/>
    </clipPath>
    <clipPath id="clip-path-2">
      <rect id="Rectángulo_401073" data-name="Rectángulo 401073" width="92.219" height="41.532" fill="#efb499"/>
    </clipPath>
    <clipPath id="clip-path-3">
      <rect id="Rectángulo_406780" data-name="Rectángulo 406780" width="70" height="70" transform="translate(570.777 3149)" fill="#fff"/>
    </clipPath>
  </defs>
  <g id="Grupo_1120052" data-name="Grupo 1120052" transform="translate(-388 -4872)">
    <g id="Grupo_1105095" data-name="Grupo 1105095" transform="translate(0.332 -1141)">
      <rect id="Rectángulo_401103" data-name="Rectángulo 401103" width="121" height="121" transform="translate(387.668 6013)" fill="none"/>
      <g id="Grupo_1099348" data-name="Grupo 1099348" transform="translate(387.668 6013)">
        <g id="Grupo_1099282" data-name="Grupo 1099282">
          <g id="Grupo_1099281" data-name="Grupo 1099281" clip-path="url(#clip-path-2)">
            <path id="Trazado_873375" data-name="Trazado 873375" d="M74.8,9.1c-4.139,0-6.28-2.03-8.17-3.821-1.855-1.756-3.452-3.274-6.792-3.274s-4.937,1.517-6.792,3.274C51.161,7.072,49.023,9.1,44.881,9.1s-6.28-2.03-8.169-3.821C34.857,3.525,33.26,2.007,29.92,2.007s-4.937,1.517-6.789,3.274C21.241,7.072,19.1,9.1,14.962,9.1S8.679,7.072,6.789,5.281C4.937,3.525,3.34,2.007,0,2.007V0C4.139,0,6.28,2.033,8.17,3.821c1.855,1.759,3.452,3.274,6.792,3.274S19.9,5.58,21.75,3.824C23.637,2.033,25.781,0,29.92,0s6.283,2.033,8.17,3.821c1.855,1.759,3.452,3.274,6.792,3.274s4.937-1.514,6.792-3.274C53.56,2.033,55.7,0,59.843,0s6.283,2.033,8.17,3.821C69.867,5.58,71.464,7.094,74.8,7.094S79.742,5.58,81.6,3.821C83.483,2.033,85.624,0,89.766,0V2.007c-3.34,0-4.937,1.517-6.792,3.274C81.084,7.072,78.943,9.1,74.8,9.1" transform="translate(2.453 32.43)" fill="#efb499"/>
            <path id="Trazado_873376" data-name="Trazado 873376" d="M74.8,9.1c-4.139,0-6.283-2.03-8.17-3.824-1.855-1.756-3.452-3.27-6.792-3.27s-4.937,1.514-6.792,3.27C51.164,7.072,49.023,9.1,44.881,9.1s-6.283-2.03-8.17-3.824c-1.855-1.756-3.452-3.27-6.792-3.27s-4.937,1.517-6.789,3.27C21.241,7.072,19.1,9.1,14.962,9.1S8.679,7.072,6.789,5.278C4.937,3.522,3.34,2.007,0,2.007V0C4.139,0,6.283,2.03,8.17,3.821c1.855,1.759,3.452,3.274,6.792,3.274S19.9,5.58,21.75,3.821C23.637,2.03,25.781,0,29.92,0S36.2,2.03,38.093,3.821c1.852,1.759,3.449,3.274,6.789,3.274s4.937-1.514,6.792-3.274C53.56,2.03,55.7,0,59.843,0s6.283,2.03,8.17,3.821C69.867,5.58,71.464,7.094,74.8,7.094S79.742,5.58,81.6,3.821C83.486,2.03,85.627,0,89.769,0V2.007c-3.34,0-4.94,1.517-6.8,3.27C81.084,7.072,78.943,9.1,74.8,9.1" transform="translate(1.635 21.62)" fill="#efb499"/>
            <path id="Trazado_873377" data-name="Trazado 873377" d="M74.8,9.1c-4.139,0-6.283-2.03-8.169-3.824-1.855-1.756-3.452-3.27-6.792-3.27s-4.937,1.514-6.792,3.27C51.164,7.072,49.02,9.1,44.881,9.1s-6.283-2.03-8.17-3.824c-1.855-1.756-3.452-3.27-6.792-3.27s-4.937,1.517-6.789,3.27C21.241,7.072,19.1,9.1,14.962,9.1S8.678,7.072,6.789,5.278C4.937,3.522,3.34,2.007,0,2.007V0C4.139,0,6.283,2.03,8.169,3.821c1.851,1.759,3.452,3.274,6.792,3.274S19.9,5.58,21.75,3.821C23.637,2.03,25.781,0,29.92,0S36.2,2.03,38.093,3.821c1.852,1.759,3.449,3.274,6.789,3.274s4.937-1.514,6.792-3.274C53.56,2.03,55.7,0,59.843,0s6.283,2.03,8.17,3.821C69.867,5.58,71.464,7.094,74.8,7.094S79.742,5.58,81.6,3.821C83.486,2.03,85.624,0,89.769,0V2.007c-3.34,0-4.941,1.517-6.8,3.27C81.084,7.072,78.943,9.1,74.8,9.1" transform="translate(0.818 10.81)" fill="#efb499"/>
            <path id="Trazado_873378" data-name="Trazado 873378" d="M74.8,9.1c-4.139,0-6.28-2.03-8.17-3.821-1.855-1.756-3.452-3.27-6.792-3.27s-4.937,1.514-6.789,3.27C51.164,7.069,49.023,9.1,44.881,9.1s-6.28-2.03-8.169-3.821c-1.855-1.756-3.452-3.27-6.792-3.27s-4.937,1.514-6.789,3.267C21.245,7.069,19.1,9.1,14.962,9.1S8.678,7.069,6.789,5.278C4.937,3.522,3.34,2.007,0,2.007V0C4.139,0,6.283,2.03,8.17,3.821c1.855,1.756,3.452,3.27,6.792,3.27S19.9,5.577,21.75,3.821C23.64,2.03,25.781,0,29.92,0s6.28,2.03,8.173,3.821c1.852,1.756,3.449,3.27,6.789,3.27s4.937-1.514,6.792-3.27C53.563,2.03,55.7,0,59.843,0s6.28,2.03,8.17,3.821c1.855,1.756,3.452,3.27,6.792,3.27s4.937-1.514,6.792-3.27C83.486,2.03,85.627,0,89.769,0V2.007c-3.344,0-4.941,1.514-6.8,3.27C81.084,7.069,78.943,9.1,74.8,9.1" transform="translate(0 0.003)" fill="#efb499"/>
          </g>
        </g>
      </g>
      <circle id="Elipse_11504" data-name="Elipse 11504" cx="50.5" cy="50.5" r="50.5" transform="translate(402.668 6031)" fill="#ffce73"/>
      <circle id="Elipse_11503" data-name="Elipse 11503" cx="52.5" cy="52.5" r="52.5" transform="translate(395.668 6021)" fill="#f3f9ff"/>
    </g>
    <g id="Enmascarar_grupo_1098795" data-name="Enmascarar grupo 1098795" transform="translate(-156.777 1749)" clip-path="url(#clip-path-3)">
      <g id="Grupo_1120061" data-name="Grupo 1120061" transform="translate(-2456.33 1575.133)">
        <path id="Trazado_907208" data-name="Trazado 907208" d="M3106.516,1864.633c-1.312.011-2.623.031-3.934.031q-17.964,0-35.928,0c-1.631,0-1.778-.15-1.781-1.8q-.006-3.229-.011-6.458,20.413-.012,40.827-.037c.7,0,.841.278.835.9C3106.5,1859.728,3106.514,1862.18,3106.516,1864.633Z" transform="translate(-24.62 -223.035)" fill="#e1996c"/>
        <path id="Trazado_907209" data-name="Trazado 907209" d="M3118.47,1626.549a1.046,1.046,0,0,0-.491-.724,8.944,8.944,0,0,1-3.443-5.473c-.145-.655-.38-.944-1.117-.912a1.978,1.978,0,0,1-2.12-1.489,1.94,1.94,0,0,1,.875-2.338,3.344,3.344,0,0,1,1.742-.379c1.718.015,2.5-.792,2.5-2.534,0-1.142.032-2.285-.009-3.426a4.12,4.12,0,0,1,.816-2.733l2.133.868a17.085,17.085,0,0,0,9.586,1.381c0,1.942,0,3.884-.009,5.826,0,.352.128.748-.223,1.031-.529-.406-1.071-.577-1.6-.027a2.385,2.385,0,0,0,0,2.452c.533.551,1.076.38,1.6-.026.3.214.256.542.221.828a10.4,10.4,0,0,1-2.521,5.882,13.223,13.223,0,0,1-4.336,2.791,4.85,4.85,0,0,1-1.637-.372C3119.764,1627.009,3119.231,1626.417,3118.47,1626.549Zm5.157-3.021a6.209,6.209,0,0,0,2.6-.709,1.054,1.054,0,0,0,.6-1.42,1,1,0,0,0-1.386-.447,4.742,4.742,0,0,1-3.52,0,1,1,0,0,0-1.384.455c-.289.65.082,1.116.608,1.418A6.466,6.466,0,0,0,3123.627,1623.528Zm-5.172-6.618c-.045.657.069,1.318.912,1.48a.949.949,0,0,0,1.139-.746,1.973,1.973,0,0,0-.551-2.266C3119.123,1614.984,3118.455,1615.637,3118.455,1616.91Z" transform="translate(-61.585 -23.678)" fill="#fedf9c"/>
        <path id="Trazado_907210" data-name="Trazado 907210" d="M3085.3,1761.813c0-3.827.013-7.654,0-11.481a4.306,4.306,0,0,1,2.819-4.328c1.908-.82,3.8-1.682,5.7-2.522a1.573,1.573,0,0,1,.946-.274q.031.221.062.443.526,3.471,1.053,6.943.861,5.609,1.731,11.216Z" transform="translate(-40.924 -132.721)" fill="#625361"/>
        <path id="Trazado_907211" data-name="Trazado 907211" d="M3081.9,1847.972c0-2.453-.017-4.906.007-7.358.006-.622-.139-.9-.835-.9q-20.413.037-40.827.037c-1.377-.014-2.754-.037-4.132-.042-2.033-.007-2.194-.172-2.072-2.2h51.744c1.567,0,2.053-.409,2.375-1.984,1.872-.107,2.047.054,2.048,1.883,0,.335-.007.671,0,1.006.02.888-.453,1.289-1.3,1.3-1.341.01-2.684.049-4.022-.014-.782-.037-.964.247-.945.977.047,1.775.016,3.553.016,5.33C3083.956,1847.943,3083.823,1848.071,3081.9,1847.972Z" transform="translate(0 -206.374)" fill="#d48c64"/>
        <path id="Trazado_907212" data-name="Trazado 907212" d="M3139.24,1585.112a17.083,17.083,0,0,1-9.585-1.381l-2.133-.868-3.429-2.213a6.533,6.533,0,0,1,4.771-3.362,31.416,31.416,0,0,1,10.228,0,7.45,7.45,0,0,1,5.393,4.175l-3.236,3.027C3140.52,1584.507,3139.941,1585,3139.24,1585.112Z" transform="translate(-71.885)" fill="#dad7da"/>
        <path id="Trazado_907213" data-name="Trazado 907213" d="M3088.183,1835.307c-.322,1.575-.808,1.984-2.375,1.984h-51.744c-.1-1.865.045-2.019,1.9-2.022q4.217-.007,8.433-.019l12.306,0h10.846l10.134-.018,2.169.017,5.278-.02,2.047.009Z" transform="translate(-0.026 -206.16)" fill="#e1996c"/>
        <path id="Trazado_907214" data-name="Trazado 907214" d="M3171.932,1615.205c.7-.108,1.28-.605,2.008-.625,0,1.648-.009,3.3.016,4.943a2.082,2.082,0,0,0,2.1,2.118,13.413,13.413,0,0,1,2.092.25c1.33,1.409,1.369,2.651.131,3.6a2.33,2.33,0,0,1-1.526.394c-.312,0-.7-.112-.788.391a10.383,10.383,0,0,1-4.083,6.486c-.428.186-.855.375-1.284.557a8.176,8.176,0,0,1-5.535.644,13.218,13.218,0,0,0,4.336-2.791,10.4,10.4,0,0,0,2.521-5.882c.035-.286.081-.614-.221-.828a3.173,3.173,0,0,0,0-2.4c.351-.283.22-.679.223-1.031C3171.936,1619.089,3171.931,1617.147,3171.932,1615.205Z" transform="translate(-104.577 -30.093)" fill="#fed08e"/>
        <path id="Trazado_907215" data-name="Trazado 907215" d="M3222.5,1761.531l-2.17-.017c0-3.922-.018-7.843,0-11.764a1.835,1.835,0,0,0-1.165-1.905c-.98-.428-1.919-.967-2.924-1.322-1.162-.411-2.151-1.264-3.442-1.33q.087-.909.174-1.819l.108-.527c2.388,1.048,4.8,2.044,7.154,3.164a3.954,3.954,0,0,1,2.261,3.851Q3222.509,1755.7,3222.5,1761.531Z" transform="translate(-142.672 -132.444)" fill="#524251"/>
        <path id="Trazado_907216" data-name="Trazado 907216" d="M3273.852,1754.862l-2.047-.009q.005-6.232.01-12.465a6.7,6.7,0,0,0-2.149-4.9,8.525,8.525,0,0,1-1.687-1.837,5.164,5.164,0,0,0,1.222-1.149c2.53,1.8,4.6,3.919,4.631,7.28C3273.874,1746.142,3273.848,1750.5,3273.852,1754.862Z" transform="translate(-186.698 -125.785)" fill="#dad7da"/>
        <path id="Trazado_907217" data-name="Trazado 907217" d="M3117.606,1595.587l3.429,2.213a4.122,4.122,0,0,0-.816,2.733c.042,1.141.011,2.284.009,3.426,0,1.742-.781,2.549-2.5,2.534a3.343,3.343,0,0,0-1.742.379c0-2.184-.066-4.371.025-6.552A7.129,7.129,0,0,1,3117.606,1595.587Z" transform="translate(-65.398 -14.938)" fill="#ebe8ea"/>
        <path id="Trazado_907218" data-name="Trazado 907218" d="M3213.21,1609.934a13.4,13.4,0,0,0-2.093-.25,2.082,2.082,0,0,1-2.1-2.118c-.025-1.647-.012-3.3-.016-4.943l3.236-3.028a9.011,9.011,0,0,1,1,4.231C3213.248,1605.863,3213.222,1607.9,3213.21,1609.934Z" transform="translate(-139.638 -18.137)" fill="#c9c5c8"/>
        <path id="Trazado_907219" data-name="Trazado 907219" d="M3147.233,1719.494q.016-1.515.031-3.029a13.982,13.982,0,0,0,6.167,1.046,2.142,2.142,0,0,1,1.428.636c.8.647.6,1.574.825,2.381-.963.83-2.176,1.313-3.087,2.214h-.293A25.977,25.977,0,0,0,3147.233,1719.494Z" transform="translate(-90.349 -111.393)" fill="#fed08e"/>
        <path id="Trazado_907220" data-name="Trazado 907220" d="M3135.186,1731.457a25.951,25.951,0,0,1,5.072,3.248c-.581.686-1.44,1.068-1.973,1.806a2.357,2.357,0,0,0-.426.237c-2.012,1.737-2.949,1.562-4.4-.73-.378-.6-.561-1.364-1.263-1.733q-.031-.221-.062-.443C3132.757,1732.12,3133.566,1731.487,3135.186,1731.457Z" transform="translate(-78.302 -123.356)" fill="#ebe8ea"/>
        <path id="Trazado_907221" data-name="Trazado 907221" d="M3173.786,1734.6c.912-.9,2.124-1.384,3.088-2.214a10.294,10.294,0,0,1,1.976-1.036c1.757-.2,2.435,1.043,3.1,2.3l-.108.527c-.764.511-1.009,1.389-1.469,2.109-.82,1.284-2.092,2.2-3.625.781a7.536,7.536,0,0,0-.989-.665C3175.227,1735.672,3174.374,1735.283,3173.786,1734.6Z" transform="translate(-111.537 -123.256)" fill="#ebe8ea"/>
        <path id="Trazado_907222" data-name="Trazado 907222" d="M3157.666,1710a10.3,10.3,0,0,0-1.976,1.036c-.228-.807-.029-1.734-.825-2.381a2.14,2.14,0,0,0-1.428-.636,13.987,13.987,0,0,1-6.167-1.046q-.015-1.1-.031-2.2c.762-.131,1.294.46,1.964.627a4.855,4.855,0,0,0,1.637.372,8.176,8.176,0,0,0,5.535-.644c.43-.182.857-.371,1.285-.557Q3157.662,1707.283,3157.666,1710Z" transform="translate(-90.354 -101.899)" fill="#fabd80"/>
        <path id="Trazado_907223" data-name="Trazado 907223" d="M3251.328,1716.153a5.161,5.161,0,0,1-1.223,1.149,5.379,5.379,0,0,1-4.448-3.14,1.97,1.97,0,0,1,.733-2.162,1.854,1.854,0,0,1,2.344-.139,11.22,11.22,0,0,1,2.357,2.333C3251.546,1714.776,3251.337,1715.488,3251.328,1716.153Z" transform="translate(-168.826 -107.436)" fill="#655664"/>
        <path id="Trazado_907224" data-name="Trazado 907224" d="M3160.175,1680.016a6.462,6.462,0,0,1-2.479-.705c-.526-.3-.9-.768-.608-1.418a.994.994,0,0,1,1.383-.455,4.743,4.743,0,0,0,3.52,0,1,1,0,0,1,1.387.448,1.055,1.055,0,0,1-.6,1.42A6.21,6.21,0,0,1,3160.175,1680.016Z" transform="translate(-98.133 -80.166)" fill="#fabd80"/>
        <path id="Trazado_907225" data-name="Trazado 907225" d="M3147.131,1651.361c0-1.273.669-1.926,1.5-1.532a1.974,1.974,0,0,1,.55,2.266.949.949,0,0,1-1.139.746C3147.2,1652.679,3147.086,1652.018,3147.131,1651.361Z" transform="translate(-90.261 -58.129)" fill="#655664"/>
        <path id="Trazado_907226" data-name="Trazado 907226" d="M3190.235,1650.128a3.172,3.172,0,0,1,0,2.4c-.529.406-1.071.577-1.6.026a2.384,2.384,0,0,1,0-2.452C3189.164,1649.552,3189.706,1649.723,3190.235,1650.128Z" transform="translate(-123.11 -58.159)" fill="#655664"/>
        <path id="Trazado_907227" data-name="Trazado 907227" d="M3132.442,1745.452c.7.369.885,1.135,1.263,1.733,1.45,2.292,2.386,2.467,4.4.73a2.341,2.341,0,0,1,.426-.237c.061,1.136-.058,2.321.865,3.225a3.608,3.608,0,0,0-.127.582q-.331,6.063-.649,12.126h-3.392q-.866-5.608-1.731-11.217Q3132.961,1748.925,3132.442,1745.452Z" transform="translate(-78.547 -134.523)" fill="#d8d5d8"/>
        <path id="Trazado_907228" data-name="Trazado 907228" d="M3202.508,1754.458c1.291.066,2.28.919,3.441,1.33,1.005.355,1.944.894,2.925,1.322a1.835,1.835,0,0,1,1.164,1.905c-.022,3.921-.006,7.843,0,11.764l-10.134.018c.354-2.315.7-4.632,1.066-6.945C3201.469,1760.72,3201.993,1757.59,3202.508,1754.458Z" transform="translate(-132.376 -141.709)" fill="#615260"/>
        <path id="Trazado_907229" data-name="Trazado 907229" d="M3186.062,1747.273c-.515,3.132-1.039,6.262-1.541,9.4-.371,2.313-.712,4.63-1.066,6.945h-3.393c-.16-3.04-.278-6.083-.5-9.118a19.558,19.558,0,0,0-.271-3.59c.912-.908.8-2.09.861-3.226a7.538,7.538,0,0,1,.989.665c1.534,1.415,2.806.5,3.625-.781.46-.721.706-1.6,1.469-2.109Q3186.149,1746.364,3186.062,1747.273Z" transform="translate(-115.93 -134.525)" fill="#d8d5d8"/>
        <path id="Trazado_907230" data-name="Trazado 907230" d="M3166.3,1772.433a19.537,19.537,0,0,1,.272,3.59c.222,3.035.34,6.078.5,9.118h-4.061q.322-6.064.649-12.127a3.582,3.582,0,0,1,.128-.581A3.774,3.774,0,0,0,3166.3,1772.433Z" transform="translate(-102.94 -156.053)" fill="#635462"/>
        <path id="Trazado_907231" data-name="Trazado 907231" d="M3165.949,1752.561a3.775,3.775,0,0,1-2.513,0c-.924-.9-.8-2.089-.865-3.225.533-.738,1.392-1.12,1.973-1.806h.293c.588.678,1.441,1.067,1.973,1.806C3166.751,1750.471,3166.862,1751.653,3165.949,1752.561Z" transform="translate(-102.588 -136.18)" fill="#524251"/>
      </g>
    </g>
  </g>
</svg>
