<svg xmlns="http://www.w3.org/2000/svg" xmlns:xlink="http://www.w3.org/1999/xlink" width="121" height="121" viewBox="0 0 121 121">
  <defs>
    <clipPath id="clip-path">
      <rect id="Rectángulo_400938" data-name="Rectángulo 400938" width="121" height="121" transform="translate(0 0)" fill="none"/>
    </clipPath>
    <clipPath id="clip-path-2">
      <rect id="Rectángulo_401073" data-name="Rectángulo 401073" width="92.219" height="41.532" fill="#efb499"/>
    </clipPath>
    <clipPath id="clip-path-3">
      <rect id="Rectángulo_406047" data-name="Rectángulo 406047" width="70" height="70" transform="translate(570.777 3149)" fill="#fff"/>
    </clipPath>
  </defs>
  <g id="Grupo_1120024" data-name="Grupo 1120024" transform="translate(-740.496 -4872)">
    <g id="Grupo_1105097" data-name="Grupo 1105097" transform="translate(352.828 -1141)">
      <rect id="Rectángulo_401103" data-name="Rectángulo 401103" width="121" height="121" transform="translate(387.668 6013)" fill="none"/>
      <g id="Grupo_1099348" data-name="Grupo 1099348" transform="translate(387.668 6013)">
        <g id="Grupo_1099282" data-name="Grupo 1099282">
          <g id="Grupo_1099281" data-name="Grupo 1099281" clip-path="url(#clip-path-2)">
            <path id="Trazado_873375" data-name="Trazado 873375" d="M74.8,9.1c-4.139,0-6.28-2.03-8.17-3.821-1.855-1.756-3.452-3.274-6.792-3.274s-4.937,1.517-6.792,3.274C51.161,7.072,49.023,9.1,44.881,9.1s-6.28-2.03-8.169-3.821C34.857,3.525,33.26,2.007,29.92,2.007s-4.937,1.517-6.789,3.274C21.241,7.072,19.1,9.1,14.962,9.1S8.679,7.072,6.789,5.281C4.937,3.525,3.34,2.007,0,2.007V0C4.139,0,6.28,2.033,8.17,3.821c1.855,1.759,3.452,3.274,6.792,3.274S19.9,5.58,21.75,3.824C23.637,2.033,25.781,0,29.92,0s6.283,2.033,8.17,3.821c1.855,1.759,3.452,3.274,6.792,3.274s4.937-1.514,6.792-3.274C53.56,2.033,55.7,0,59.843,0s6.283,2.033,8.17,3.821C69.867,5.58,71.464,7.094,74.8,7.094S79.742,5.58,81.6,3.821C83.483,2.033,85.624,0,89.766,0V2.007c-3.34,0-4.937,1.517-6.792,3.274C81.084,7.072,78.943,9.1,74.8,9.1" transform="translate(2.453 32.43)" fill="#efb499"/>
            <path id="Trazado_873376" data-name="Trazado 873376" d="M74.8,9.1c-4.139,0-6.283-2.03-8.17-3.824-1.855-1.756-3.452-3.27-6.792-3.27s-4.937,1.514-6.792,3.27C51.164,7.072,49.023,9.1,44.881,9.1s-6.283-2.03-8.17-3.824c-1.855-1.756-3.452-3.27-6.792-3.27s-4.937,1.517-6.789,3.27C21.241,7.072,19.1,9.1,14.962,9.1S8.679,7.072,6.789,5.278C4.937,3.522,3.34,2.007,0,2.007V0C4.139,0,6.283,2.03,8.17,3.821c1.855,1.759,3.452,3.274,6.792,3.274S19.9,5.58,21.75,3.821C23.637,2.03,25.781,0,29.92,0S36.2,2.03,38.093,3.821c1.852,1.759,3.449,3.274,6.789,3.274s4.937-1.514,6.792-3.274C53.56,2.03,55.7,0,59.843,0s6.283,2.03,8.17,3.821C69.867,5.58,71.464,7.094,74.8,7.094S79.742,5.58,81.6,3.821C83.486,2.03,85.627,0,89.769,0V2.007c-3.34,0-4.94,1.517-6.8,3.27C81.084,7.072,78.943,9.1,74.8,9.1" transform="translate(1.635 21.62)" fill="#efb499"/>
            <path id="Trazado_873377" data-name="Trazado 873377" d="M74.8,9.1c-4.139,0-6.283-2.03-8.169-3.824-1.855-1.756-3.452-3.27-6.792-3.27s-4.937,1.514-6.792,3.27C51.164,7.072,49.02,9.1,44.881,9.1s-6.283-2.03-8.17-3.824c-1.855-1.756-3.452-3.27-6.792-3.27s-4.937,1.517-6.789,3.27C21.241,7.072,19.1,9.1,14.962,9.1S8.678,7.072,6.789,5.278C4.937,3.522,3.34,2.007,0,2.007V0C4.139,0,6.283,2.03,8.169,3.821c1.851,1.759,3.452,3.274,6.792,3.274S19.9,5.58,21.75,3.821C23.637,2.03,25.781,0,29.92,0S36.2,2.03,38.093,3.821c1.852,1.759,3.449,3.274,6.789,3.274s4.937-1.514,6.792-3.274C53.56,2.03,55.7,0,59.843,0s6.283,2.03,8.17,3.821C69.867,5.58,71.464,7.094,74.8,7.094S79.742,5.58,81.6,3.821C83.486,2.03,85.624,0,89.769,0V2.007c-3.34,0-4.941,1.517-6.8,3.27C81.084,7.072,78.943,9.1,74.8,9.1" transform="translate(0.818 10.81)" fill="#efb499"/>
            <path id="Trazado_873378" data-name="Trazado 873378" d="M74.8,9.1c-4.139,0-6.28-2.03-8.17-3.821-1.855-1.756-3.452-3.27-6.792-3.27s-4.937,1.514-6.789,3.27C51.164,7.069,49.023,9.1,44.881,9.1s-6.28-2.03-8.169-3.821c-1.855-1.756-3.452-3.27-6.792-3.27s-4.937,1.514-6.789,3.267C21.245,7.069,19.1,9.1,14.962,9.1S8.678,7.069,6.789,5.278C4.937,3.522,3.34,2.007,0,2.007V0C4.139,0,6.283,2.03,8.17,3.821c1.855,1.756,3.452,3.27,6.792,3.27S19.9,5.577,21.75,3.821C23.64,2.03,25.781,0,29.92,0s6.28,2.03,8.173,3.821c1.852,1.756,3.449,3.27,6.789,3.27s4.937-1.514,6.792-3.27C53.563,2.03,55.7,0,59.843,0s6.28,2.03,8.17,3.821c1.855,1.756,3.452,3.27,6.792,3.27s4.937-1.514,6.792-3.27C83.486,2.03,85.627,0,89.769,0V2.007c-3.344,0-4.941,1.514-6.8,3.27C81.084,7.069,78.943,9.1,74.8,9.1" transform="translate(0 0.003)" fill="#efb499"/>
          </g>
        </g>
      </g>
      <circle id="Elipse_11504" data-name="Elipse 11504" cx="50.5" cy="50.5" r="50.5" transform="translate(402.668 6031)" fill="#ffce73"/>
      <circle id="Elipse_11503" data-name="Elipse 11503" cx="52.5" cy="52.5" r="52.5" transform="translate(395.668 6021)" fill="#f3f9ff"/>
    </g>
    <g id="Enmascarar_grupo_1098769" data-name="Enmascarar grupo 1098769" transform="translate(195.223 1748)" clip-path="url(#clip-path-3)">
      <g id="Grupo_1118416" data-name="Grupo 1118416" transform="translate(-2319.251 2875.677)">
        <path id="Trazado_905756" data-name="Trazado 905756" d="M2961.419,503.3c0,2.415-.034,4.831,0,7.245.01.7-.142.955-.908.954q-29.483-.033-58.968,0c-.767,0-.918-.254-.908-.954.034-2.414.005-4.83,0-7.245Z" transform="translate(-6.166 -171.428)" fill="#502419"/>
        <path id="Trazado_905757" data-name="Trazado 905757" d="M3009.043,340.867a11.97,11.97,0,0,1-2.889,8.5,13.531,13.531,0,0,1-4.017,2.906,12.56,12.56,0,0,1-8.509,0c-4.777-2.3-6.985-6.163-6.905-11.407q0-2.555,0-5.11c.267-.5-.5-1.437.656-1.571a74.223,74.223,0,0,0,13.372-3.1,1.267,1.267,0,0,1,1.314.179,15.273,15.273,0,0,0,5.488,2.591c1.077.278,1.73.687,1.488,1.9Q3009.043,338.312,3009.043,340.867Zm-11.063,7.853a7.666,7.666,0,0,0,3.2-.892c.537-.289.949-.689.583-1.326a.96.96,0,0,0-1.468-.466,4.566,4.566,0,0,1-4.845-.01c-.716-.414-1.147-.04-1.458.5-.333.574.02.991.521,1.264A7.561,7.561,0,0,0,2997.98,348.72Zm6.373-9.523a1.67,1.67,0,1,0-1.662,1.691A1.7,1.7,0,0,0,3004.353,339.2Zm-9.6,0a1.669,1.669,0,1,0-3.338.062,1.669,1.669,0,0,0,3.338-.062Z" transform="translate(-73.022 -37.597)" fill="#f6af98"/>
        <path id="Trazado_905758" data-name="Trazado 905758" d="M3000.986,298.16c.242-1.215-.411-1.625-1.488-1.9a15.274,15.274,0,0,1-5.489-2.591,1.266,1.266,0,0,0-1.314-.179,74.231,74.231,0,0,1-13.372,3.1c-1.154.134-.389,1.068-.656,1.571a4.4,4.4,0,0,0-2.248.44c.011-2.484-.328-5,.353-7.433a11.6,11.6,0,0,1,11.214-8.567c1.9-.034,3.794-.042,5.689,0a5.119,5.119,0,0,1,4.943,3.174,2.047,2.047,0,0,0,.8.876,8.25,8.25,0,0,1,3.833,6.925c.038,1.672-.011,3.345-.021,5.018A4.435,4.435,0,0,0,3000.986,298.16Zm-18.756-8.9c1.07-.174,1.619-1.192,2.554-1.614a.971.971,0,0,0,.469-1.41c-.317-.561-.937-.46-1.385-.244a8.364,8.364,0,0,0-2.43,1.7.818.818,0,0,0-.223,1A1.007,1.007,0,0,0,2982.23,289.256Z" transform="translate(-64.965)" fill="#547980"/>
        <path id="Trazado_905759" data-name="Trazado 905759" d="M2955.253,491.433h-60.785c-1.734-.052-1.734-.052-1.734-1.77a2.164,2.164,0,0,0,0-.333c-.153-.964.151-1.33,1.22-1.3,2.554.081,5.112.009,7.669,0l2.046,0,5.121-.017,13.364,0h5.417l13.364,0,5.122.018,2.044,0c2.594.01,5.189.069,7.781,0,.965-.024,1.261.291,1.111,1.181a2.723,2.723,0,0,0,0,.444C2956.988,491.381,2956.988,491.381,2955.253,491.433Z" transform="translate(0 -159.56)" fill="#663326"/>
        <path id="Trazado_905760" data-name="Trazado 905760" d="M3057.647,447.989l-13.364,0-1.308-2.836q.514-1.276,1.029-2.552a2.15,2.15,0,0,1,1.145.368c.459.226.661.066.841-.342.91-2.054,1.834-4.1,2.752-6.153a9.149,9.149,0,0,1,7.173,4.284A11.3,11.3,0,0,1,3057.647,447.989Z" transform="translate(-116.714 -119.528)" fill="#c28006"/>
        <path id="Trazado_905761" data-name="Trazado 905761" d="M2978.037,447.994l-13.364,0c-.142-3.026.381-5.865,2.471-8.2a8.841,8.841,0,0,1,6.435-3.308c.7,1.584,1.388,3.173,2.1,4.751.819,1.811.828,1.807,2.634,1.377q.516,1.275,1.031,2.549Z" transform="translate(-55.885 -119.531)" fill="#c28006"/>
        <path id="Trazado_905762" data-name="Trazado 905762" d="M3017.453,426.311a12.56,12.56,0,0,0,8.509,0q.03,1,.06,2l-4.1,4.9h-.427l-4.1-4.9Q3017.423,427.312,3017.453,426.311Z" transform="translate(-96.847 -111.634)" fill="#e08c88"/>
        <path id="Trazado_905763" data-name="Trazado 905763" d="M3007.474,435.184l4.1,4.9c-.043.449-.4.544-.741.671a3.15,3.15,0,0,0-1.476.824c-1.806.43-1.815.434-2.634-1.377-.713-1.578-1.4-3.167-2.1-4.751C3005.528,434.9,3006.527,435.322,3007.474,435.184Z" transform="translate(-86.927 -118.504)" fill="#eaeaf6"/>
        <path id="Trazado_905764" data-name="Trazado 905764" d="M3037.665,440.086l4.1-4.9c.947.138,1.946-.286,2.853.268-.919,2.051-1.842,4.1-2.752,6.153-.181.407-.382.568-.842.342a2.148,2.148,0,0,0-1.144-.368c-.236-.374-.691-.417-1-.664C3038.489,440.611,3037.8,440.748,3037.665,440.086Z" transform="translate(-112.59 -118.504)" fill="#eaeaf6"/>
        <path id="Trazado_905765" data-name="Trazado 905765" d="M2934.642,450.849l-2.047,0c.009-1.669.118-3.345,0-5.006-.193-2.814.9-4.73,3.573-5.7a2.1,2.1,0,0,0,.688,1.816,3.288,3.288,0,0,0-2.272,3.8C2934.719,447.445,2934.633,449.151,2934.642,450.849Z" transform="translate(-30.975 -122.372)" fill="#587c83"/>
        <path id="Trazado_905766" data-name="Trazado 905766" d="M3125.927,450.874l-2.044,0c.01-1.7-.077-3.405.055-5.094a3.29,3.29,0,0,0-2.273-3.8,2.078,2.078,0,0,0,.683-1.807,5.01,5.01,0,0,1,3.576,5.584C3125.817,447.456,3125.919,449.168,3125.927,450.874Z" transform="translate(-177.828 -122.4)" fill="#587c83"/>
        <path id="Trazado_905767" data-name="Trazado 905767" d="M2973.007,352.756a4.4,4.4,0,0,1,2.248-.44v5.11a3.256,3.256,0,0,1-2.211-.5C2971.6,355.866,2971.588,354.315,2973.007,352.756Z" transform="translate(-61.554 -54.156)" fill="#e08c88"/>
        <path id="Trazado_905768" data-name="Trazado 905768" d="M3086.671,352.315a4.434,4.434,0,0,1,2.248.438,2.561,2.561,0,0,1,.848,3.063,2.814,2.814,0,0,1-3.1,1.609Q3086.671,354.871,3086.671,352.315Z" transform="translate(-150.651 -54.155)" fill="#e08c88"/>
        <path id="Trazado_905769" data-name="Trazado 905769" d="M2949.279,435.734a2.1,2.1,0,0,1-.688-1.816,3,3,0,0,1,2.792-1.782,1.518,1.518,0,0,1,1.4,1.1,1.488,1.488,0,0,1-.5,1.806C2951.388,435.645,2950.444,436.228,2949.279,435.734Z" transform="translate(-43.394 -116.152)" fill="#3e6064"/>
        <path id="Trazado_905770" data-name="Trazado 905770" d="M3109.748,433.946a2.077,2.077,0,0,1-.682,1.807c-1.2.505-2.157-.079-3.06-.724a1.485,1.485,0,0,1-.437-1.807,1.509,1.509,0,0,1,1.409-1.062A3.082,3.082,0,0,1,3109.748,433.946Z" transform="translate(-165.23 -116.173)" fill="#3d5f64"/>
        <path id="Trazado_905771" data-name="Trazado 905771" d="M3022.816,400.417a7.562,7.562,0,0,1-3.469-.933c-.5-.273-.854-.69-.521-1.264.311-.536.742-.91,1.458-.5a4.566,4.566,0,0,0,4.845.01.96.96,0,0,1,1.468.466c.366.638-.046,1.037-.583,1.326A7.665,7.665,0,0,1,3022.816,400.417Z" transform="translate(-97.858 -89.294)" fill="#7d3a1b"/>
        <path id="Trazado_905772" data-name="Trazado 905772" d="M3054.06,362.022a1.67,1.67,0,1,1-3.34.014,1.67,1.67,0,0,1,3.34-.014Z" transform="translate(-122.73 -60.422)" fill="#7d3a1b"/>
        <path id="Trazado_905773" data-name="Trazado 905773" d="M3011.081,362.017a1.669,1.669,0,1,1-1.645-1.646A1.721,1.721,0,0,1,3011.081,362.017Z" transform="translate(-89.352 -60.421)" fill="#7d3a1b"/>
        <path id="Trazado_905774" data-name="Trazado 905774" d="M2998.857,300.532a1.007,1.007,0,0,1-1.015-.569.819.819,0,0,1,.223-1,8.355,8.355,0,0,1,2.43-1.7c.448-.216,1.068-.317,1.385.244a.971.971,0,0,1-.469,1.41C3000.476,299.34,2999.927,300.358,2998.857,300.532Z" transform="translate(-81.592 -11.277)" fill="#395c61"/>
        <path id="Trazado_905775" data-name="Trazado 905775" d="M3024.582,478.167l1.308-2.836h2.8l1.308,2.836Z" transform="translate(-102.43 -149.705)" fill="#e7e9f6"/>
        <path id="Trazado_905776" data-name="Trazado 905776" d="M3029.654,461.268h-2.8l-1.031-2.549a3.147,3.147,0,0,1,1.476-.825c.337-.126.7-.221.741-.671h.427c.135.662.824.524,1.211.829.313.246.768.289,1,.664Z" transform="translate(-103.393 -135.642)" fill="#dadce3"/>
      </g>
    </g>
  </g>
</svg>
