<svg xmlns="http://www.w3.org/2000/svg" width="70" height="70" viewBox="0 0 70 70">
  <g id="Grupo_1104811" data-name="Grupo 1104811" transform="translate(-610 -6501)">
    <g id="Grupo_1099487" data-name="Grupo 1099487" transform="translate(341 5543)">
      <circle id="Elipse_5614" data-name="Elipse 5614" cx="35" cy="35" r="35" transform="translate(269 958)" fill="#fff"/>
    </g>
    <g id="Grupo_1104814" data-name="Grupo 1104814" transform="translate(1032.081 6244.212)">
      <path id="Trazado_896343" data-name="Trazado 896343" d="M-406.689,420.472V399.288H-408.5v-2.276h21.742v2.218h-4.459v21.243Z" transform="translate(0 -108.585)" fill="#6a4d23"/>
      <path id="Trazado_896344" data-name="Trazado 896344" d="M-262.233,350.268c-.625.108-1.166.223-1.713.292a23.087,23.087,0,0,1-7.778-.457,2.1,2.1,0,0,1-1.6-2.428,2.158,2.158,0,0,1,2.562-1.682,17.878,17.878,0,0,0,6.514.3,17.93,17.93,0,0,0,3.145-1.047c.6-.234,1.122-.641,1.7-.917a4.565,4.565,0,0,1,5.45,1.449,3.785,3.785,0,0,1,.667,2.917q-.538,4.786-1.077,9.571c-.228,2.029-1.152,3.022-3.188,3.217-1.172.113-2.365-.015-3.542.059-1.417.089-2.832.248-4.24.434a1.463,1.463,0,0,0-1.23,1.1c-1.008,3.182-2.035,6.359-3.029,9.546a2.41,2.41,0,0,1-2.065,1.916,2.1,2.1,0,0,1-2.24-1.136,2.56,2.56,0,0,1-.271-1.648c1.075-3.743,2.218-7.466,3.373-11.186a4.418,4.418,0,0,1,3.632-3c1.215-.262,2.466-.353,3.7-.548.193-.031.507-.188.523-.316C-262.69,354.6-262.472,352.49-262.233,350.268Z" transform="translate(-116.296 -62.611)" fill="#6a4d23"/>
      <path id="Trazado_896345" data-name="Trazado 896345" d="M-176.111,379.183c-.111,1.49-.192,2.866-.32,4.238-.2,2.175-.334,4.363-.7,6.512a12.472,12.472,0,0,1-1.274,3.552,4.078,4.078,0,0,1-3.362,2.138c-.176.02-.468.239-.47.369-.031,1.892-.021,3.785-.021,5.769.494,0,.934-.018,1.371,0a3.211,3.211,0,0,1,3.107,3.438h-1.835c-.531-1.291-.572-1.318-2.02-1.318s-2.9,0-4.353,0c-1.132,0-1.405.208-1.711,1.321h-1.941a3.38,3.38,0,0,1,1.351-2.81,4.6,4.6,0,0,1,3.123-.641v-5.769c-1.183,0-2.359-.031-3.532.013-.622.023-.893-.135-.835-.807s.012-1.328.012-2.089c.38,0,.685,0,.991,0,1.451-.006,2.9.041,4.352-.032a4.189,4.189,0,0,0,4.339-3.912c.26-1.83.339-3.685.484-5.531.1-1.312.17-2.627.289-3.938.016-.178.233-.476.37-.483C-177.876,379.16-177.053,379.183-176.111,379.183Z" transform="translate(-189.548 -93.14)" fill="#6a4d23"/>
      <path id="Trazado_896346" data-name="Trazado 896346" d="M-181.771,281.057a4.7,4.7,0,0,1-4.768-4.662,4.7,4.7,0,0,1,4.67-4.761,4.7,4.7,0,0,1,4.8,4.7A4.7,4.7,0,0,1-181.771,281.057Z" transform="translate(-192.233 0)" fill="#6a4d23"/>
      <path id="Trazado_896347" data-name="Trazado 896347" d="M-368.679,303.549l1.593-.409c.468,1.708.914,3.335,1.36,4.962.412,1.5.839,3,1.224,4.51a.621.621,0,0,0,.734.55c2.253-.021,4.508.027,6.76-.03.775-.02.8.334.8.917,0,.559-.02.893-.76.88-2.7-.047-5.4-.02-8.1-.017-.342,0-.625.021-.749-.444-.951-3.569-1.932-7.131-2.9-10.7C-368.73,303.735-368.706,303.688-368.679,303.549Z" transform="translate(-34.451 -27.287)" fill="#6a4d23"/>
    </g>
  </g>
</svg>
