<svg xmlns="http://www.w3.org/2000/svg" xmlns:xlink="http://www.w3.org/1999/xlink" width="295" height="315.91" viewBox="0 0 295 315.91">
  <defs>
    <clipPath id="clip-path">
      <rect id="Rectángulo_405462" data-name="Rectángulo 405462" width="219.76" height="48.66" fill="none"/>
    </clipPath>
    <clipPath id="clip-path-2">
      <rect id="Rectángulo_405459" data-name="Rectángulo 405459" width="207.495" height="298.749" fill="none"/>
    </clipPath>
    <clipPath id="clip-path-3">
      <path id="Trazado_895368" data-name="Trazado 895368" d="M117.892,40.076a15.789,15.789,0,0,1,15.867,15.6l.94,78.775a19.859,19.859,0,0,1-21.11,20.056l-81.416-5.149L33.849,41.448a23.509,23.509,0,0,1,23.26-23.143l37.068-.386.249,0a23.508,23.508,0,0,1,23.465,22.158" transform="translate(-32.173 -17.918)" fill="none"/>
    </clipPath>
  </defs>
  <g id="Grupo_1105113" data-name="Grupo 1105113" transform="translate(0 1.314)">
    <g id="Grupo_1105120" data-name="Grupo 1105120" transform="translate(-224.65 -247.943)">
      <path id="Trazado_897243" data-name="Trazado 897243" d="M479.176,391.742a95.782,95.782,0,0,0,0-19.542c7.179-1.651,15.227-3.83,21.594-5.743a116.06,116.06,0,0,0-6.839-27.682c-6.344,1.222-14.359,3.009-21.758,4.917a95.013,95.013,0,0,0-9.073-17.3c5.332-4.632,10.991-9.806,16.421-15.157C468,295.7,460.6,289.971,460.6,289.971c-5.094,4.059-12.017,9.913-17,14.466-6.909-5.962-11.219-8.1-16.057-11.131,1.759-4.525,4.539-11.742,7.525-21.034-17.97-8.639-26.684-10.062-26.684-10.062-2.547,5.813-5.7,13.645-8.3,20.7-6.89-1.67-12.339-2.015-19.392-2.319-1.19-10.748-2.374-17.69-3.126-22.21-6.326.313-15.278.294-28.265,3.5.453,6.433,1.227,14.373,2.249,22.228a100.728,100.728,0,0,0-18.263,6.928c-4.007-5.906-8.406-12.1-13.095-18.2-9.54,5.094-19.85,12.824-23.386,16.253,3.821,6.172,8.719,13.514,12.344,18.637a100.324,100.324,0,0,0-12.969,14.615c-6.662-3.6-14.1-7.31-20.031-10.058-2.37,2.645-10.7,17.918-13.193,25.261,5.472,3.247,12.74,7.277,19.579,10.771a100.082,100.082,0,0,0-4.656,18.968c-6.54-.028-13.794.019-22.4.457-.844,4.726-1.078,22.378,0,28.456,6.167.312,15.124.527,22.4.443a84.539,84.539,0,0,0,4.656,18.972c-6.237,3.2-12.889,6.811-19.579,10.771,2.337,6.881,11.48,23.357,13.193,25.27,5.864-2.72,13.109-6.326,20.031-10.067a96.019,96.019,0,0,0,12.969,14.62c-4.021,5.677-8.821,12.936-12.344,18.623,0,.014,1.288,1.25,3.354,2.948,4.632,3.485,11.77,9.041,20.036,13.314,0,0,5.775-7.441,13.094-18.2a100.366,100.366,0,0,0,18.259,6.923c-1.012,7.8-1.787,15.716-2.244,22.238a128.164,128.164,0,0,0,28.26,3.489c.751-4.516,1.941-11.518,3.126-22.205a96.687,96.687,0,0,0,19.392-2.323c2.734,7.417,5.775,14.923,8.318,20.708,0,0,8.873-1.432,26.67-10.062-2.682-8.346-5.3-15.3-7.525-21.039,5.514-3.364,9.05-5.136,16.057-11.117,4.455,4.045,11.168,9.815,17,14.466,9.367-8.014,15.525-16.752,18.926-21.272-4.609-4.544-10.916-10.4-16.43-15.152,3.872-6.335,6.027-9.694,9.073-17.307,11.681,3.018,21.758,4.912,21.758,4.912,3.279-9.055,4.054-9.7,6.839-27.682C494.31,395.553,486.053,393.323,479.176,391.742Zm-38.062,45.936c-4.712,5.626-10.608,10.128-15.142,13.514,0,.3-11.681,7.413-17.96,9.372-36.3,15.091-87.576-1.358-107.472-46.253-23.414-64.19,24.738-125.175,94.107-114.852,13.43,3.41,16.948,4.558,29.888,12.306a7.082,7.082,0,0,1,1.437.98c15.124,11.294,19.444,18.025,25.914,28.61a7.45,7.45,0,0,1,.807,1.544C471.162,381.1,459.98,419.041,441.115,437.678Z" transform="translate(0 43.082)" fill="#ffe2b7"/>
      <g id="Grupo_1105118" data-name="Grupo 1105118" transform="translate(316.277 363.566)">
        <g id="Grupo_1105115" data-name="Grupo 1105115">
          <g id="Grupo_1105114" data-name="Grupo 1105114">
            <path id="Trazado_897244" data-name="Trazado 897244" d="M329.439,333.18l49.733-36.149a61.487,61.487,0,1,1-85.882-13.6A59.013,59.013,0,0,1,329.439,271.7Z" transform="translate(-267.942 -271.696)" fill="#ff6400"/>
          </g>
        </g>
        <g id="Grupo_1105117" data-name="Grupo 1105117" transform="translate(61.497)">
          <g id="Grupo_1105116" data-name="Grupo 1105116">
            <path id="Trazado_897245" data-name="Trazado 897245" d="M281.125,333.18V271.7c20.367,0,37.754,8.859,49.733,25.336Z" transform="translate(-281.125 -271.696)" fill="#ffc800"/>
          </g>
        </g>
      </g>
      <g id="Grupo_1105119" data-name="Grupo 1105119" transform="translate(443.835 246.629)">
        <rect id="Rectángulo_405765" data-name="Rectángulo 405765" width="13.89" height="80.325" fill="#efb499"/>
        <rect id="Rectángulo_405766" data-name="Rectángulo 405766" width="13.895" height="71.801" transform="translate(18.874 8.524)" fill="#ffc800"/>
        <rect id="Rectángulo_405767" data-name="Rectángulo 405767" width="13.89" height="49.392" transform="translate(37.744 30.933)" fill="#7d3a1b"/>
        <rect id="Rectángulo_405768" data-name="Rectángulo 405768" width="13.89" height="63.593" transform="translate(56.622 16.733)" fill="#ffe2b7"/>
      </g>
    </g>
    <g id="Grupo_1104181" data-name="Grupo 1104181" transform="translate(31.103 0)">
      <g id="Grupo_1104180" data-name="Grupo 1104180" transform="translate(0 0)" clip-path="url(#clip-path)">
        <path id="Trazado_895410" data-name="Trazado 895410" d="M177.187,48.215c4.847,1.072,5.556,5.458,11.943-.943,3.548-3.557,9.08-5.776,12.928-4.587,7.081,2.188,8.651,13.181,19.482,7.054s14.675,3.011,14.675,3.011h-65.8s1.626-5.675,6.776-4.535" transform="translate(-170.411 -4.091)" fill="#dcd9ff"/>
      </g>
    </g>
    <g id="Grupo_1104179" data-name="Grupo 1104179" transform="translate(43.368 11.824)">
      <g id="Grupo_1104174" data-name="Grupo 1104174">
        <g id="Grupo_1104173" data-name="Grupo 1104173" clip-path="url(#clip-path-2)">
          <path id="Trazado_895359" data-name="Trazado 895359" d="M58.7,18.313l39.4-.387c13.341-.131,24.438,9.623,25.2,22.157,9.223-.045,16.754,6.921,16.864,15.6l1,78.776c.146,11.553-10.181,20.785-22.436,20.056L32.2,149.363,33.977,41.454C34.187,28.71,45.152,18.445,58.7,18.313" transform="translate(35.417 -1.731)" fill="#7d3a1b"/>
          <path id="Trazado_895360" data-name="Trazado 895360" d="M32.677,84.01h0a6.131,6.131,0,0,1,6.309,5.936v9.5H26.368v-9.5a6.131,6.131,0,0,1,6.309-5.936" transform="translate(143.191 -8.112)" fill="#fff"/>
          <rect id="Rectángulo_405457" data-name="Rectángulo 405457" width="6.363" height="5.076" transform="translate(172.646 72.646)" fill="#fff"/>
          <rect id="Rectángulo_405458" data-name="Rectángulo 405458" width="9.736" height="4.599" transform="translate(170.916 69.08)" fill="#ef5b00"/>
          <path id="Trazado_895361" data-name="Trazado 895361" d="M41.62,95.413v27.021a8.355,8.355,0,0,1-8.333,8.1,8.388,8.388,0,0,1-8.906-8.223l-.112-23.064-.019-3.839Z" transform="translate(142.59 -9.213)" fill="#d1e1dd"/>
          <line id="Línea_3335" data-name="Línea 3335" x2="18.523" transform="translate(165.281 89.789)" fill="#f9cb00"/>
          <line id="Línea_3336" data-name="Línea 3336" x2="18.523" transform="translate(165.281 89.789)" fill="none" stroke="#2c2c2c" stroke-linecap="round" stroke-miterlimit="10" stroke-width="1"/>
          <path id="Trazado_895362" data-name="Trazado 895362" d="M80.34,42.451S71.1,51.76,50.8,49.612" transform="translate(78.376 -4.099)" fill="#f9cb00"/>
          <path id="Trazado_895363" data-name="Trazado 895363" d="M80.34,42.451S71.1,51.76,50.8,49.612" transform="translate(78.376 -4.099)" fill="none" stroke="#2c2c2c" stroke-linecap="round" stroke-miterlimit="10" stroke-width="1"/>
          <path id="Trazado_895364" data-name="Trazado 895364" d="M54.1,60.028l16.369-.505a5.027,5.027,0,0,1,5.33,4.853l0,70.047a5.77,5.77,0,0,1-5.491,5.6l-9.2.7" transform="translate(79.754 -5.747)" fill="#f9cb00"/>
          <path id="Trazado_895365" data-name="Trazado 895365" d="M54.1,60.028l16.369-.505a5.027,5.027,0,0,1,5.33,4.853l0,70.047a5.77,5.77,0,0,1-5.491,5.6l-9.2.7" transform="translate(79.754 -5.747)" fill="#58260f" stroke="#2c2c2c" stroke-linecap="round" stroke-miterlimit="10" stroke-width="1"/>
          <path id="Trazado_895366" data-name="Trazado 895366" d="M41.266,46.33l6.012,2.338a10.679,10.679,0,0,1,7,9.856v6.749" transform="translate(113.589 -4.473)" fill="none" stroke="#fff" stroke-miterlimit="10" stroke-width="1"/>
        </g>
      </g>
      <g id="Grupo_1104176" data-name="Grupo 1104176" transform="translate(75.901 16.188)">
        <g id="Grupo_1104175" data-name="Grupo 1104175" clip-path="url(#clip-path-3)">
          <path id="Trazado_895367" data-name="Trazado 895367" d="M67.466,16.138c0,6.475,11.878,11.723,26.532,11.723s26.531-5.248,26.531-11.723S108.651,4.415,94,4.415,67.466,9.663,67.466,16.138Z" transform="translate(-49.888 -16.614)" fill="none" stroke="#fff" stroke-miterlimit="10" stroke-width="1"/>
        </g>
      </g>
      <g id="Grupo_1104178" data-name="Grupo 1104178">
        <g id="Grupo_1104177" data-name="Grupo 1104177" clip-path="url(#clip-path-2)">
          <path id="Trazado_895369" data-name="Trazado 895369" d="M101.175,325.59l56.044-.182s-.28-5.837-.625-12.63c-.473-9.271-1.073-20.326-1.249-20.783l-27.23-6.489s1.781,11.731,1.929,16.543a6.208,6.208,0,0,1-1.817,3.8c-3.936,4.674-13.434,10.285-20.166,12.326-8.742,2.643-6.886,7.413-6.886,7.413" transform="translate(-46.714 -27.568)" fill="#f49377"/>
          <path id="Trazado_895370" data-name="Trazado 895370" d="M26.434,264.688c.781.419,24.35,24.386,24.35,24.386L8.092,323.242s-4.686-2.518.176-9.846S17.418,291.32,14,287.731,1.182,276.262,1.182,276.262Z" transform="translate(155.576 -25.557)" fill="#f49377"/>
          <path id="Trazado_895371" data-name="Trazado 895371" d="M54.426,145.648V210.13l58.489,67.26,34.267-22.79L101.1,199.568l-3.544-74.487-78.576-3.335-2.694,87.22a54.6,54.6,0,0,0,2.025,16.5l16.03,56.924,34.267-1.112-6.5-83.381Z" transform="translate(44.702 -11.755)" fill="#f78f5f"/>
          <path id="Trazado_895372" data-name="Trazado 895372" d="M102.858,141.766l6.906,14.788-.025,42.59a23.923,23.923,0,0,0,4.531,15.008l6.986,9.728" transform="translate(-12.526 -13.688)" fill="none" stroke="#2c2c2c" stroke-linecap="round" stroke-miterlimit="10" stroke-width="1"/>
          <path id="Trazado_895373" data-name="Trazado 895373" d="M27.979,129.105l4.233,71.236a6.139,6.139,0,0,0,1.434,3.573l48.481,58.015" transform="translate(98.504 -12.466)" fill="none" stroke="#2c2c2c" stroke-linecap="round" stroke-miterlimit="10" stroke-width="1"/>
          <path id="Trazado_895374" data-name="Trazado 895374" d="M2.153,325.9,46.67,289.884s-3.463-3.484-7.843-7.872a2.779,2.779,0,0,0-3.721-.145L19.636,295.043a13.41,13.41,0,0,0-7.822-2.416A2.411,2.411,0,0,0,9.4,294.822c-.417,6.314-3.614,15.417-7.119,20.768-5.054,7.7-.126,10.313-.126,10.313" transform="translate(160.825 -27.154)" fill="#7d3a1b"/>
          <line id="Línea_3337" data-name="Línea 3337" x1="43.428" y2="36.123" transform="translate(161 259.976)" fill="none" stroke="#fff" stroke-linecap="round" stroke-miterlimit="10" stroke-width="1"/>
          <path id="Trazado_895375" data-name="Trazado 895375" d="M99.494,327.842l60.353-.228s-.239-4.9-.552-11.079a2.673,2.673,0,0,0-2.809-2.448l-21.439.593a12.357,12.357,0,0,0-4.4-6.8,2.659,2.659,0,0,0-3.445.2c-4.8,4.677-13.758,9.79-20.293,11.775-9.412,2.851-7.41,7.986-7.41,7.986" transform="translate(-47.715 -29.676)" fill="#7d3a1b"/>
          <line id="Línea_3338" data-name="Línea 3338" x1="59.397" y2="1.265" transform="translate(52.288 293.859)" fill="none" stroke="#fff" stroke-linecap="round" stroke-miterlimit="10" stroke-width="1"/>
          <path id="Trazado_895376" data-name="Trazado 895376" d="M135.164,314.821s-1.848-3.4-4.207-4.52" transform="translate(-53.414 -29.962)" fill="none" stroke="#fff" stroke-linecap="round" stroke-miterlimit="10" stroke-width="1"/>
          <path id="Trazado_895377" data-name="Trazado 895377" d="M140.294,318.076s-1.848-3.4-4.207-4.52" transform="translate(-63.47 -30.276)" fill="none" stroke="#fff" stroke-linecap="round" stroke-miterlimit="10" stroke-width="1"/>
          <path id="Trazado_895378" data-name="Trazado 895378" d="M172.3,104.2l10.561,18.011a14.55,14.55,0,0,0,17.466,5.977l7.854-2.858-25.814-21.617Z" transform="translate(-166.124 -10.014)" fill="#f49377"/>
          <path id="Trazado_895379" data-name="Trazado 895379" d="M161.256,84.152,125.627,67.281l6.636-16.1c4.16-8.917,15.179-13.015,24.694-9.184,8.75,3.523,13.341,12.627,10.706,21.232Z" transform="translate(-81.536 -3.916)" fill="#ffb937"/>
          <path id="Trazado_895380" data-name="Trazado 895380" d="M67.238,125.954l79.947.953.253-44.175L145.419,64.58c-1.567-14.082-14.248-24.741-29.3-24.622l-7.23.057-21.53.264-15.047.185Z" transform="translate(-4.505 -3.858)" fill="#ffce73"/>
          <path id="Trazado_895381" data-name="Trazado 895381" d="M110.952,40.285a10.547,10.547,0,0,0,10.755,9.33c5.759,0,10.468-4.249,10.774-9.594Z" transform="translate(-31.523 -3.864)" fill="#f49377"/>
          <path id="Trazado_895382" data-name="Trazado 895382" d="M139.128,18.414l2.211-6.169c2.078-5.8-2.431-11.822-8.931-11.935L114.784,0a5.2,5.2,0,0,0-5.444,5.029,5.2,5.2,0,0,0,5.345,5.029h19.946v7.932s4.384.423,4.5.423" transform="translate(-39.344 0)" fill="#2c2c2c"/>
          <rect id="Rectángulo_405460" data-name="Rectángulo 405460" width="13.682" height="17.025" transform="translate(83.337 24.545)" fill="#f49377"/>
          <path id="Trazado_895383" data-name="Trazado 895383" d="M125.221,33.039h0c5.786,0,10.479-4.413,10.479-9.858V11.132H114.744V23.18c0,5.445,4.692,9.858,10.477,9.858" transform="translate(-38.382 -1.075)" fill="#f49377"/>
          <path id="Trazado_895384" data-name="Trazado 895384" d="M117.015,22.711a4.414,4.414,0,0,1-8.811,0,4.414,4.414,0,0,1,8.811,0" transform="translate(-13.418 -1.793)" fill="#f49377"/>
          <path id="Trazado_895385" data-name="Trazado 895385" d="M128.916,33.764s-1.634,1.383-5.392.922" transform="translate(-40.03 -3.26)" fill="none" stroke="#2c2c2c" stroke-linecap="round" stroke-miterlimit="10" stroke-width="1"/>
          <path id="Trazado_895386" data-name="Trazado 895386" d="M112.886,11.319a4.446,4.446,0,0,0,8.875,0,4.446,4.446,0,0,0-8.875,0" transform="translate(-22.66 -0.69)" fill="#2c2c2c"/>
          <path id="Trazado_895387" data-name="Trazado 895387" d="M115.676,20.487h2.107v-8.07h-3.1Z" transform="translate(-20.408 -1.199)" fill="#2c2c2c"/>
          <path id="Trazado_895388" data-name="Trazado 895388" d="M112.9,24.265a1.9,1.9,0,0,0,.238-.921,2.064,2.064,0,0,0-2.124-2,2.278,2.278,0,0,0-.316.023" transform="translate(-11.945 -2.061)" fill="none" stroke="#2c2c2c" stroke-linecap="round" stroke-miterlimit="10" stroke-width="1"/>
          <path id="Trazado_895389" data-name="Trazado 895389" d="M124.168,19.8c0,.706.375,1.28.839,1.28s.838-.574.838-1.28-.375-1.28-.838-1.28-.839.574-.839,1.28" transform="translate(-37.577 -1.788)" fill="#2c2c2c"/>
          <path id="Trazado_895390" data-name="Trazado 895390" d="M132.662,19.8c0,.706.375,1.28.839,1.28s.838-.574.838-1.28-.375-1.28-.838-1.28-.839.574-.839,1.28" transform="translate(-54.227 -1.788)" fill="#2c2c2c"/>
          <path id="Trazado_895391" data-name="Trazado 895391" d="M122.618,15.842c-.082.505.606.468,1.64.616s2.025.426,2.107-.08-.69-1.035-1.725-1.184-1.94.142-2.021.647" transform="translate(-36.608 -1.463)" fill="#2c2c2c"/>
          <path id="Trazado_895392" data-name="Trazado 895392" d="M131.865,16.2c.052.509.709.315,1.75.222s2.074-.051,2.022-.56-.937-.846-1.979-.753-1.846.582-1.794,1.09" transform="translate(-54.76 -1.458)" fill="#2c2c2c"/>
          <path id="Trazado_895393" data-name="Trazado 895393" d="M129.526,18.831l-.647,4.833a1,1,0,0,0,1,1.095c.59.013,1.174.025,1.122.025" transform="translate(-47.253 -1.818)" fill="none" stroke="#2c2c2c" stroke-linecap="round" stroke-miterlimit="10" stroke-width="1"/>
          <path id="Trazado_895394" data-name="Trazado 895394" d="M126.387,27.545a3.24,3.24,0,0,1-2.076,1.893" transform="translate(-38.256 -2.66)" fill="none" stroke="#2c2c2c" stroke-linecap="round" stroke-miterlimit="10" stroke-width="1"/>
          <path id="Trazado_895395" data-name="Trazado 895395" d="M76.568,38.953a1.777,1.777,0,0,1,1.711,2.316c-1.981,5.844-6.3,22.113.171,38.374,7.432,18.673,27.75,33.94,30.984,36.285a1.006,1.006,0,0,1,.422.847l-.22,8.071a1.075,1.075,0,0,1-1.662.834c-6-3.8-27.115-18.128-35.858-36.781-12.191-26.007-5.334-44.493-3.258-49.015a1.836,1.836,0,0,1,1.717-1.048Z" transform="translate(35.172 -3.75)" fill="#aa4a1f"/>
          <path id="Trazado_895396" data-name="Trazado 895396" d="M113.452,38.552a1.328,1.328,0,0,1,1.346,1.681c-1.657,5.239-5.83,21.839,1.526,38.015C125.212,97.793,147.2,112.3,147.2,112.3l.13,10.2s-25.867-14.019-36.972-34.985c-13.544-25.572-6.007-44.255-4.118-48.173a1.4,1.4,0,0,1,1.264-.766Z" transform="translate(-38.211 -3.722)" fill="#aa4a1f"/>
          <path id="Trazado_895397" data-name="Trazado 895397" d="M175.806,61.116l34.009,76.493-26.56-6.4-23.426,14.322L140.5,133.342l-23.1,4.786L86.236,60.088l21.969-4.831,19.487,9.408,23.947-12Z" transform="translate(-85.125 -5.085)" fill="#fef7eb"/>
          <line id="Línea_3339" data-name="Línea 3339" x2="31.838" y2="77.95" transform="translate(66.406 47.817)" fill="#f9cb00"/>
          <line id="Línea_3340" data-name="Línea 3340" x2="31.838" y2="77.95" transform="translate(66.406 47.817)" fill="none" stroke="#2c2c2c" stroke-linecap="round" stroke-miterlimit="10" stroke-width="1"/>
          <line id="Línea_3341" data-name="Línea 3341" x2="31.946" y2="80.394" transform="translate(42.758 59.76)" fill="#f9cb00"/>
          <line id="Línea_3342" data-name="Línea 3342" x2="31.946" y2="80.394" transform="translate(42.758 59.76)" fill="none" stroke="#2c2c2c" stroke-linecap="round" stroke-miterlimit="10" stroke-width="1"/>
          <line id="Línea_3343" data-name="Línea 3343" x2="31.931" y2="77.687" transform="translate(23.081 50.503)" fill="#f9cb00"/>
          <line id="Línea_3344" data-name="Línea 3344" x2="31.931" y2="77.687" transform="translate(23.081 50.503)" fill="none" stroke="#2c2c2c" stroke-linecap="round" stroke-miterlimit="10" stroke-width="1"/>
          <path id="Trazado_895398" data-name="Trazado 895398" d="M189.123,93.525a2.479,2.479,0,0,1-.887,3.529,2.305,2.305,0,0,1-.463.2,1.22,1.22,0,0,1-.2.057,2.815,2.815,0,0,1-3.063-1.2,2.479,2.479,0,0,1,.887-3.529,2.761,2.761,0,0,1,1.974-.276,2.049,2.049,0,0,1,.4.12,2.768,2.768,0,0,1,1.351,1.094" transform="translate(-158.814 -8.906)" fill="#f49377"/>
          <path id="Trazado_895399" data-name="Trazado 895399" d="M185.39,95.063l10.283,15.963a12.316,12.316,0,0,0,6.006-7.441l5.364-.538a3.094,3.094,0,0,0,2.847-2.841,3.079,3.079,0,0,0,1.453-.382,2.7,2.7,0,0,0,1.4-2.1l.129-1.376.009-.1c.07.016.131.033.19.041a2.041,2.041,0,0,0,.46-.2,2.479,2.479,0,0,0,.891-3.525,2.766,2.766,0,0,0-1.351-1.09l-.405-.081.008-.042.156-1.44a2.439,2.439,0,0,0-1.608-2.532L198.91,82.7a6.224,6.224,0,0,0-2.18-.416l-3.306-.024a9.542,9.542,0,0,0-7.475,3.42,7.912,7.912,0,0,0-.559,9.38" transform="translate(-184.112 -7.943)" fill="#f49377"/>
          <line id="Línea_3345" data-name="Línea 3345" x2="14.064" y2="3.613" transform="translate(14.492 79.837)" fill="#f9cb00"/>
          <line id="Línea_3346" data-name="Línea 3346" x2="14.064" y2="3.613" transform="translate(14.492 79.837)" fill="none" stroke="#2c2c2c" stroke-linecap="round" stroke-miterlimit="10" stroke-width="1"/>
          <line id="Línea_3347" data-name="Línea 3347" x2="15.342" y2="3.849" transform="translate(13.186 84.71)" fill="#f9cb00"/>
          <line id="Línea_3348" data-name="Línea 3348" x2="15.342" y2="3.849" transform="translate(13.186 84.71)" fill="none" stroke="#2c2c2c" stroke-linecap="round" stroke-miterlimit="10" stroke-width="1"/>
          <line id="Línea_3349" data-name="Línea 3349" x2="10.979" y2="1.951" transform="translate(15.068 90.338)" fill="#f9cb00"/>
          <line id="Línea_3350" data-name="Línea 3350" x2="10.979" y2="1.951" transform="translate(15.068 90.338)" fill="none" stroke="#2c2c2c" stroke-linecap="round" stroke-miterlimit="10" stroke-width="1"/>
          <path id="Trazado_895400" data-name="Trazado 895400" d="M202.755,105.839a15.427,15.427,0,0,1-4.954-.235" transform="translate(-185.189 -10.197)" fill="none" stroke="#2c2c2c" stroke-linecap="round" stroke-miterlimit="10" stroke-width="1"/>
          <path id="Trazado_895401" data-name="Trazado 895401" d="M58.986,52.428l34.03,36.3a19.519,19.519,0,0,1-.413,26.815,22.6,22.6,0,0,1-27.69,3.624L34.629,101.111,42,81.712Z" transform="translate(76.097 -5.062)" fill="#f49377"/>
          <path id="Trazado_895402" data-name="Trazado 895402" d="M79.674,49.751,96.249,67.557,76.317,85.566l-16.611-5.8Z" transform="translate(53.916 -4.804)" fill="#ffce73"/>
          <path id="Trazado_895403" data-name="Trazado 895403" d="M127.016,99.219a2.643,2.643,0,0,0,2.685,2.6,2.4,2.4,0,0,0,.507-.05,1.34,1.34,0,0,0,.2-.046,2.606,2.606,0,0,0,1.978-2.505,2.644,2.644,0,0,0-2.686-2.6,2.7,2.7,0,0,0-1.845.716,1.863,1.863,0,0,0-.276.295,2.54,2.54,0,0,0-.564,1.591" transform="translate(-46.852 -9.329)" fill="#f49377"/>
          <path id="Trazado_895404" data-name="Trazado 895404" d="M94.544,95.447l.027.035-.3.26a2.532,2.532,0,0,0-.564,1.59,2.643,2.643,0,0,0,2.685,2.6,2.345,2.345,0,0,0,.507-.05c.045-.039.09-.081.136-.127l.064.081.855,1.118a2.957,2.957,0,0,0,2.352,1.127,3.057,3.057,0,0,0,1.457-.37,3.308,3.308,0,0,0,3.99,1.06l4.9-2.128c6.051,5.516,13.619,2.847,13.619,2.847l7.374-19.4-17.241-6.4a9.847,9.847,0,0,0-8.286.672L103.3,79.979a5.823,5.823,0,0,0-1.653,1.406l-8.018,9.952a2.339,2.339,0,0,0-.008,2.95Z" transform="translate(-13.542 -7.442)" fill="#f49377"/>
          <line id="Línea_3351" data-name="Línea 3351" x1="10.105" y2="9.887" transform="translate(81.03 78.153)" fill="#f9cb00"/>
          <line id="Línea_3352" data-name="Línea 3352" x1="10.105" y2="9.887" transform="translate(81.03 78.153)" fill="none" stroke="#2c2c2c" stroke-linecap="round" stroke-miterlimit="10" stroke-width="1"/>
          <line id="Línea_3353" data-name="Línea 3353" x1="11.073" y2="10.708" transform="translate(83.838 81.706)" fill="#f9cb00"/>
          <line id="Línea_3354" data-name="Línea 3354" x1="11.073" y2="10.708" transform="translate(83.838 81.706)" fill="none" stroke="#2c2c2c" stroke-linecap="round" stroke-miterlimit="10" stroke-width="1"/>
          <line id="Línea_3355" data-name="Línea 3355" x1="8.362" y2="6.972" transform="translate(88.001 87.446)" fill="#f9cb00"/>
          <line id="Línea_3356" data-name="Línea 3356" x1="8.362" y2="6.972" transform="translate(88.001 87.446)" fill="none" stroke="#2c2c2c" stroke-linecap="round" stroke-miterlimit="10" stroke-width="1"/>
          <line id="Línea_3357" data-name="Línea 3357" x2="17.023" y2="7.136" transform="translate(130.348 80.549)" fill="#f9cb00"/>
          <line id="Línea_3358" data-name="Línea 3358" x2="17.023" y2="7.136" transform="translate(130.348 80.549)" fill="none" stroke="#2c2c2c" stroke-linecap="round" stroke-miterlimit="10" stroke-width="1"/>
          <path id="Trazado_895405" data-name="Trazado 895405" d="M120.283,19.6a3.873,3.873,0,0,0,7.733,0,3.873,3.873,0,0,0-7.733,0Z" transform="translate(-36.017 -1.542)" fill="none" stroke="#fff" stroke-miterlimit="10" stroke-width="1"/>
          <path id="Trazado_897242" data-name="Trazado 897242" d="M3.832-.081a3.565,3.565,0,0,1,3.752,3.59A3.955,3.955,0,0,1,3.671,7.261,3.565,3.565,0,0,1-.081,3.671,3.955,3.955,0,0,1,3.832-.081Z" transform="translate(79.11 22.927) rotate(-157.5)" fill="none" stroke="#fff" stroke-width="1"/>
          <path id="Trazado_895406" data-name="Trazado 895406" d="M119.915,18.432a15.051,15.051,0,0,0-8.869,1.392" transform="translate(-19.047 -1.763)" fill="none" stroke="#fff" stroke-linecap="round" stroke-miterlimit="10" stroke-width="1"/>
          <path id="Trazado_895407" data-name="Trazado 895407" d="M38.705,299.966s-3.652-1.42-6.146-.847" transform="translate(137.527 -28.869)" fill="none" stroke="#fff" stroke-linecap="round" stroke-miterlimit="10" stroke-width="1"/>
          <path id="Trazado_895408" data-name="Trazado 895408" d="M40.4,304.439s-3.652-1.42-6.146-.846" transform="translate(134.2 -29.301)" fill="none" stroke="#fff" stroke-linecap="round" stroke-miterlimit="10" stroke-width="1"/>
        </g>
      </g>
    </g>
    <rect id="Rectángulo_405464" data-name="Rectángulo 405464" width="295" height="4.453" transform="translate(0 310.144)" fill="#3e2011"/>
  </g>
</svg>
