<svg xmlns="http://www.w3.org/2000/svg" width="70" height="70" viewBox="0 0 70 70">
  <g id="Grupo_1118287" data-name="Grupo 1118287" transform="translate(-268.777 -958)">
    <circle id="Elipse_5614" data-name="Elipse 5614" cx="35" cy="35" r="35" transform="translate(268.777 958)" fill="#fff"/>
    <g id="Grupo_1119679" data-name="Grupo 1119679" transform="translate(-262.392 976.845)">
      <path id="Trazado_906436" data-name="Trazado 906436" d="M586.176,16.154a20,20,0,1,1-19.978-20A20.01,20.01,0,0,1,586.176,16.154Zm-32.217,8.319c.11.087.139.129.175.135a9.205,9.205,0,0,0,1.466.226q10.553.022,21.106,0a13.131,13.131,0,0,0,1.646-.205l0-.193-8.979-8.307c-.869.669-1.706,1.287-2.512,1.943a.955.955,0,0,1-1.387-.014c-.8-.658-1.642-1.271-2.5-1.928Zm.514-16.947-.038.13,11.74,9.053,11.906-9.183ZM561.78,15.2l-8.252-6.359V22.839Zm17.052-6.371-8.263,6.373,8.263,7.642Z" transform="translate(0 0)" fill="#7a4f00"/>
    </g>
  </g>
</svg>
