<svg xmlns="http://www.w3.org/2000/svg" width="505" height="269.751" viewBox="0 0 505 269.751">
  <g id="Grupo_1119737" data-name="Grupo 1119737" transform="translate(7.657 -43.372)">
    <g id="BACKGROUND" transform="translate(19.166 43.372)">
      <path id="Trazado_906445" data-name="Trazado 906445" d="M463.042,125.373c-6.3-46.259-48.047-82-98.615-82A101.684,101.684,0,0,0,290.182,74.9a101.687,101.687,0,0,0-74.245-31.529c-47.894,0-87.874,32.062-97.32,74.754H118.6c-54.918,0-99.439,42.155-99.439,94.156s44.52,94.157,99.439,94.157c38.293,0,71.526-20.5,88.139-50.539,16.614,30.039,49.847,50.539,88.14,50.539A102.359,102.359,0,0,0,359.806,283.6a102.36,102.36,0,0,0,64.922,22.838c54.918,0,99.439-42.156,99.439-94.157C524.166,173.139,498.939,139.579,463.042,125.373Z" transform="translate(-45.989 -43.372)" fill="#ffefdc"/>
    </g>
    <g id="OBJECTS" transform="translate(63.339 60.402)">
      <g id="Grupo_1119688" data-name="Grupo 1119688" transform="translate(0 6.387)">
        <g id="Grupo_1119683" data-name="Grupo 1119683" transform="translate(43.87 120.939)">
          <rect id="Rectángulo_406559" data-name="Rectángulo 406559" width="10.773" height="51.943" transform="translate(0 45.896)" fill="#fa0"/>
          <rect id="Rectángulo_406560" data-name="Rectángulo 406560" width="10.773" height="73.213" transform="translate(83.188 24.626)" fill="#fa0"/>
          <rect id="Rectángulo_406561" data-name="Rectángulo 406561" width="10.772" height="68.625" transform="translate(42.492 29.214)" fill="#fa0"/>
          <path id="Trazado_906446" data-name="Trazado 906446" d="M177.205,284.243v77.443h11.748V284.243Zm.975,76.813V285.015h9.8v76.042Z" transform="translate(-157.151 -263.847)" fill="#fff"/>
          <path id="Trazado_906447" data-name="Trazado 906447" d="M239.629,254.423v97.84h11.747v-97.84Zm.975,97.043V255.4h9.8v96.068Z" transform="translate(-176.878 -254.423)" fill="#fff"/>
        </g>
        <g id="Grupo_1119684" data-name="Grupo 1119684" transform="translate(198.614)">
          <rect id="Rectángulo_406562" data-name="Rectángulo 406562" width="16.065" height="114.236" transform="translate(0 31.666)" fill="#fa0"/>
          <rect id="Rectángulo_406563" data-name="Rectángulo 406563" width="16.065" height="109.179" transform="translate(124.054 36.723)" fill="#fa0"/>
          <rect id="Rectángulo_406564" data-name="Rectángulo 406564" width="16.064" height="102.337" transform="translate(63.366 43.566)" fill="#fa0"/>
          <path id="Trazado_906448" data-name="Trazado 906448" d="M417.846,77.608v145.9h17.52V77.608ZM419.3,222.324V79.062h14.612V222.324Z" transform="translate(-387.94 -77.608)" fill="#fff"/>
          <path id="Trazado_906449" data-name="Trazado 906449" d="M510.934,77.608v145.9h17.52V77.608Zm1.454,144.716V79.062H527V222.324Z" transform="translate(-417.357 -77.608)" fill="#fff"/>
          <path id="Trazado_906450" data-name="Trazado 906450" d="M592.1,211.363V264.5h17.52V211.363Zm1.454,51.655v-50.2h14.611v50.2Z" transform="translate(-443.008 -119.876)" fill="#fff"/>
        </g>
        <g id="Grupo_1119687" data-name="Grupo 1119687" transform="translate(0 4.332)">
          <g id="Grupo_1119685" data-name="Grupo 1119685" transform="translate(341.038)">
            <path id="Trazado_906451" data-name="Trazado 906451" d="M618.852,165.308a1.63,1.63,0,1,1-1.63-1.63A1.63,1.63,0,0,1,618.852,165.308Z" transform="translate(-592.855 -109.139)" fill="#fa0"/>
            <path id="Trazado_906452" data-name="Trazado 906452" d="M644.375,85.572a1.63,1.63,0,1,1-1.631-1.631A1.63,1.63,0,0,1,644.375,85.572Z" transform="translate(-600.92 -83.941)" fill="#fa0"/>
            <path id="Trazado_906453" data-name="Trazado 906453" d="M585.1,102.312a2.751,2.751,0,1,1,2.752-2.751A2.754,2.754,0,0,1,585.1,102.312Zm0-4.818a2.067,2.067,0,1,0,2.068,2.067A2.069,2.069,0,0,0,585.1,97.494Z" transform="translate(-582.35 -88.008)" fill="#fff"/>
            <path id="Trazado_906454" data-name="Trazado 906454" d="M658.97,139.277a2.751,2.751,0,1,1,2.751-2.751A2.754,2.754,0,0,1,658.97,139.277Zm0-4.818a2.067,2.067,0,1,0,2.067,2.067A2.069,2.069,0,0,0,658.97,134.459Z" transform="translate(-605.693 -99.689)" fill="#fff"/>
          </g>
          <g id="Grupo_1119686" data-name="Grupo 1119686" transform="translate(0 103.785)">
            <path id="Trazado_906455" data-name="Trazado 906455" d="M120.25,371.022a1.63,1.63,0,1,1-1.631-1.631A1.63,1.63,0,0,1,120.25,371.022Z" transform="translate(-94.252 -277.932)" fill="#fa0"/>
            <circle id="Elipse_11653" data-name="Elipse 11653" cx="1.63" cy="1.63" r="1.63" transform="translate(40.194 36.921)" fill="#fa0"/>
            <path id="Trazado_906456" data-name="Trazado 906456" d="M86.5,308.024a2.751,2.751,0,1,1,2.751-2.75A2.753,2.753,0,0,1,86.5,308.024Zm0-4.818a2.067,2.067,0,1,0,2.067,2.068A2.069,2.069,0,0,0,86.5,303.206Z" transform="translate(-83.747 -256.8)" fill="#fff"/>
            <path id="Trazado_906457" data-name="Trazado 906457" d="M89.065,238.085a2.409,2.409,0,1,1-2.409-2.409A2.409,2.409,0,0,1,89.065,238.085Z" transform="translate(-83.905 -235.676)" fill="#fff"/>
          </g>
        </g>
      </g>
      <g id="Grupo_1119722" data-name="Grupo 1119722" transform="translate(207.274)">
        <g id="Grupo_1119698" data-name="Grupo 1119698">
          <g id="Grupo_1119697" data-name="Grupo 1119697">
            <g id="Grupo_1119694" data-name="Grupo 1119694" transform="translate(59.248 63.405)">
              <g id="Grupo_1119689" data-name="Grupo 1119689" transform="translate(3.246 2.806)">
                <path id="Trazado_906458" data-name="Trazado 906458" d="M553.952,250.99h0c3.35-2.933,3.633-8.332-1.308-13.975L495.5,171.759c-4.941-5.643-11.662-7.84-15.011-4.907h0c-3.349,2.933-2.06,9.885,2.882,15.529l57.139,65.255C545.456,253.279,550.6,253.923,553.952,250.99Z" transform="translate(-478.304 -165.224)" fill="#576184"/>
                <path id="Trazado_906459" data-name="Trazado 906459" d="M549.315,252.9a8.107,8.107,0,0,1-1.708-.187c-2.515-.542-5.109-2.271-7.5-5l-57.14-65.255c-5.057-5.776-6.335-12.958-2.85-16.011s10.438-.836,15.494,4.939l57.14,65.256a13.987,13.987,0,0,1,3.847,8.211,7.586,7.586,0,0,1-2.572,6.246A7.016,7.016,0,0,1,549.315,252.9Zm-65.168-87.162a5.3,5.3,0,0,0-3.58,1.222c-3.2,2.8-1.895,9.553,2.914,15.046l57.14,65.255c2.294,2.62,4.759,4.274,7.131,4.784a6.466,6.466,0,0,0,5.825-1.462h0a6.914,6.914,0,0,0,2.339-5.7,13.326,13.326,0,0,0-3.679-7.8L495.1,171.833C491.71,167.965,487.474,165.736,484.148,165.736Z" transform="translate(-478.153 -165.072)" fill="#353148"/>
              </g>
              <g id="Grupo_1119693" data-name="Grupo 1119693" transform="translate(0 0)">
                <g id="Grupo_1119690" data-name="Grupo 1119690">
                  <path id="Rectángulo_406565" data-name="Rectángulo 406565" d="M5.374,0H17.022a5.373,5.373,0,0,1,5.373,5.373V8.311a5.375,5.375,0,0,1-5.375,5.375H5.374A5.374,5.374,0,0,1,0,8.312V5.374A5.374,5.374,0,0,1,5.374,0Z" transform="translate(25.864 10.296) rotate(138.794)" fill="#fcc0fc"/>
                  <path id="Trazado_906460" data-name="Trazado 906460" d="M483.314,185.39c-.09,0-.181,0-.272-.009a3.988,3.988,0,0,1-2.757-1.363l-4.173-4.765a4.022,4.022,0,0,1,.377-5.669l11.316-9.909a4.016,4.016,0,0,1,5.67.376l4.174,4.765a4.017,4.017,0,0,1-.375,5.669L485.955,184.4A3.988,3.988,0,0,1,483.314,185.39Zm7.134-22.027a3.312,3.312,0,0,0-2.192.826L476.939,174.1a3.339,3.339,0,0,0-.313,4.7l4.173,4.766a3.335,3.335,0,0,0,4.705.313l11.319-9.912a3.334,3.334,0,0,0,.311-4.7l-4.174-4.765a3.31,3.31,0,0,0-2.288-1.131C490.6,163.366,490.523,163.363,490.448,163.363Zm-4.718,20.775h0Z" transform="translate(-473.949 -161.51)" fill="#121936"/>
                </g>
                <g id="Grupo_1119691" data-name="Grupo 1119691" transform="translate(14.168 4.467)">
                  <line id="Línea_3371" data-name="Línea 3371" x2="7.351" y2="8.487" transform="translate(0.342 0.342)" fill="#fcc0fc"/>
                  <path id="Trazado_906461" data-name="Trazado 906461" d="M501.815,176.671a.342.342,0,0,1-.259-.118l-7.351-8.487a.342.342,0,0,1,.517-.447l7.352,8.487a.342.342,0,0,1-.259.566Z" transform="translate(-494.121 -167.5)" fill="#121936"/>
                </g>
                <g id="Grupo_1119692" data-name="Grupo 1119692" transform="translate(14.854 11.874)">
                  <line id="Línea_3372" data-name="Línea 3372" x2="3.676" y2="4.243" transform="translate(0.342 0.342)" fill="#fcc0fc"/>
                  <path id="Trazado_906462" data-name="Trazado 906462" d="M499.143,183.256a.34.34,0,0,1-.259-.118l-3.676-4.243a.342.342,0,1,1,.517-.447l3.676,4.243a.342.342,0,0,1-.259.566Z" transform="translate(-495.125 -178.329)" fill="#121936"/>
                </g>
              </g>
            </g>
            <g id="Grupo_1119696" data-name="Grupo 1119696">
              <g id="Grupo_1119695" data-name="Grupo 1119695">
                <path id="Trazado_906463" data-name="Trazado 906463" d="M397.3,138.7a42.457,42.457,0,1,0,3.973-59.911A42.458,42.458,0,0,0,397.3,138.7Zm9.959-53.461a33.682,33.682,0,1,1-3.152,47.528A33.682,33.682,0,0,1,407.26,85.236Z" transform="translate(-386.785 -68.27)" fill="#121936"/>
              </g>
            </g>
            <path id="Trazado_906464" data-name="Trazado 906464" d="M406.814,136.7a35,35,0,1,0,3.276-49.4A35,35,0,0,0,406.814,136.7Z" transform="translate(-390.375 -71.546)" fill="#fff" opacity="0.47"/>
            <path id="Trazado_906465" data-name="Trazado 906465" d="M432.044,101.492a9.144,9.144,0,1,0,.856-12.9A9.144,9.144,0,0,0,432.044,101.492Z" transform="translate(-400.372 -73.976)" fill="#fff" opacity="0.69"/>
          </g>
        </g>
        <g id="Grupo_1119701" data-name="Grupo 1119701" transform="translate(54.102 124.455)">
          <path id="Trazado_906466" data-name="Trazado 906466" d="M540.683,254.549c-.1-.4-39.472-4.323-39.472-4.323l-13.02,45.761a51.765,51.765,0,0,0-1.9,11.348L482.471,363.1a1.575,1.575,0,0,0,1.59,1.683l17.736-.22a1.87,1.87,0,0,0,1.836-1.664l4.773-43.1,6-14.735,1.9,58.013a1.791,1.791,0,0,0,1.815,1.733l18.73-.006a1.184,1.184,0,0,0,1.179-1.08q1.6-31.967,3.2-63.936c.488-9.755,1.763-19.477,1.648-29.258A67.2,67.2,0,0,0,540.683,254.549Z" transform="translate(-471.124 -250.226)" fill="#121936"/>
          <path id="Trazado_906467" data-name="Trazado 906467" d="M527.755,324.909a.342.342,0,0,1-.318-.468l8.817-22.323a.342.342,0,1,1,.636.251l-8.817,22.324A.342.342,0,0,1,527.755,324.909Z" transform="translate(-485.327 -266.556)" fill="#fff"/>
          <g id="Grupo_1119699" data-name="Grupo 1119699" transform="translate(34.969 109.109)">
            <path id="Trazado_906468" data-name="Trazado 906468" d="M530.458,417.545l-.863.743L517.4,429.311a1.18,1.18,0,0,0,.808,2.055l27.311-.378a1.3,1.3,0,0,0,1.284-1.346l-.049-12.092Z" transform="translate(-517.009 -412.21)" fill="#fa0"/>
            <path id="Trazado_906469" data-name="Trazado 906469" d="M517.4,434.376l.425-.384a1.135,1.135,0,0,0,.8.309l27.311-.378a1.3,1.3,0,0,0,.865-.352l0,1.135a1.3,1.3,0,0,1-1.284,1.346l-27.311.378A1.18,1.18,0,0,1,517.4,434.376Z" transform="translate(-517.009 -417.274)" fill="#121936"/>
            <path id="Trazado_906470" data-name="Trazado 906470" d="M523.216,434.538a.342.342,0,0,1,0-.684l25.416-.222h0a.342.342,0,0,1,0,.684l-25.416.222Z" transform="translate(-518.863 -417.293)" fill="#fff"/>
            <path id="Trazado_906471" data-name="Trazado 906471" d="M537.539,421.312a.34.34,0,0,1-.252-.111l-2.287-2.5a.342.342,0,1,1,.5-.462l2.287,2.5a.342.342,0,0,1-.021.483A.338.338,0,0,1,537.539,421.312Z" transform="translate(-522.666 -412.395)" fill="#fff"/>
            <path id="Trazado_906472" data-name="Trazado 906472" d="M534.794,423.9a.342.342,0,0,1-.252-.111l-2.287-2.5a.342.342,0,0,1,.5-.462l2.287,2.5a.342.342,0,0,1-.252.573Z" transform="translate(-521.799 -413.213)" fill="#fff"/>
            <path id="Trazado_906473" data-name="Trazado 906473" d="M532.213,426.446a.342.342,0,0,1-.252-.111l-2.287-2.5a.342.342,0,1,1,.5-.462l2.286,2.5a.342.342,0,0,1-.252.573Z" transform="translate(-520.983 -414.018)" fill="#fff"/>
            <path id="Trazado_906474" data-name="Trazado 906474" d="M538.289,415.583l-.215-.072c-.914-.464-.622-4.276-.575-4.53a1.511,1.511,0,0,1,2.972.55h0c-.091.493-1.432,3.683-2.029,3.977Zm.695-5.155a.83.83,0,0,0-.812.676,12.425,12.425,0,0,0,.122,3.585,17.151,17.151,0,0,0,1.505-3.282h0a.829.829,0,0,0-.663-.964A.829.829,0,0,0,538.984,410.428Z" transform="translate(-523.458 -409.745)" fill="#fff"/>
            <path id="Trazado_906475" data-name="Trazado 906475" d="M536.019,416.492a14.346,14.346,0,0,1-3.747-.982A1.511,1.511,0,1,1,533.8,412.9h0c.39.229,2.618,1.985,2.849,2.914a.624.624,0,0,1-.057.487C536.514,416.439,536.3,416.492,536.019,416.492Zm-2.98-3.113a.84.84,0,0,0-.209.027.827.827,0,0,0-.211,1.515,15.131,15.131,0,0,0,3.349.907,11.552,11.552,0,0,0-2.511-2.334A.83.83,0,0,0,533.039,413.379Z" transform="translate(-521.597 -410.677)" fill="#fff"/>
          </g>
          <g id="Grupo_1119700" data-name="Grupo 1119700" transform="translate(0 109.108)">
            <path id="Trazado_906476" data-name="Trazado 906476" d="M479.332,417.545l-.863.743-12.195,11.022a1.18,1.18,0,0,0,.808,2.055l27.312-.378a1.3,1.3,0,0,0,1.284-1.346l-.049-12.092Z" transform="translate(-465.883 -412.209)" fill="#fa0"/>
            <path id="Trazado_906477" data-name="Trazado 906477" d="M466.274,434.376l.425-.384a1.135,1.135,0,0,0,.8.309l27.312-.378a1.294,1.294,0,0,0,.865-.352l0,1.135a1.3,1.3,0,0,1-1.284,1.346l-27.312.378A1.18,1.18,0,0,1,466.274,434.376Z" transform="translate(-465.883 -417.273)" fill="#121936"/>
            <path id="Trazado_906478" data-name="Trazado 906478" d="M472.09,434.538a.342.342,0,0,1,0-.684l25.416-.222h0a.342.342,0,0,1,0,.684l-25.416.222Z" transform="translate(-467.736 -417.292)" fill="#fff"/>
            <path id="Trazado_906479" data-name="Trazado 906479" d="M499.758,426.48a2.6,2.6,0,0,1-2.544-2.112h0a2.586,2.586,0,1,1,2.544,2.113Zm-1.872-2.24a1.912,1.912,0,1,0,1.522-2.235,1.9,1.9,0,0,0-1.522,2.235Z" transform="translate(-475.77 -413.391)" fill="#fff"/>
            <path id="Trazado_906480" data-name="Trazado 906480" d="M486.413,421.312a.34.34,0,0,1-.252-.111l-2.287-2.5a.342.342,0,1,1,.5-.462l2.287,2.5a.342.342,0,0,1-.021.483A.338.338,0,0,1,486.413,421.312Z" transform="translate(-471.54 -412.394)" fill="#fff"/>
            <path id="Trazado_906481" data-name="Trazado 906481" d="M483.669,423.9a.343.343,0,0,1-.252-.111l-2.287-2.5a.342.342,0,0,1,.5-.462l2.287,2.5a.342.342,0,0,1-.252.573Z" transform="translate(-470.673 -413.212)" fill="#fff"/>
            <path id="Trazado_906482" data-name="Trazado 906482" d="M481.087,426.446a.343.343,0,0,1-.252-.111l-2.287-2.5a.342.342,0,0,1,.5-.462l2.287,2.5a.342.342,0,0,1-.252.573Z" transform="translate(-469.857 -414.017)" fill="#fff"/>
            <path id="Trazado_906483" data-name="Trazado 906483" d="M487.163,415.583l-.215-.073c-.914-.464-.622-4.276-.575-4.53a1.511,1.511,0,0,1,2.972.55h0c-.091.493-1.432,3.683-2.028,3.977Zm.7-5.155a.829.829,0,0,0-.813.676,12.426,12.426,0,0,0,.122,3.585,17.182,17.182,0,0,0,1.5-3.282h0a.829.829,0,0,0-.662-.964A.827.827,0,0,0,487.859,410.428Z" transform="translate(-472.333 -409.743)" fill="#fff"/>
            <path id="Trazado_906484" data-name="Trazado 906484" d="M484.893,416.493a14.35,14.35,0,0,1-3.747-.983,1.511,1.511,0,1,1,1.531-2.605h0c.391.229,2.618,1.984,2.85,2.914a.618.618,0,0,1-.058.488C485.387,416.439,485.178,416.493,484.893,416.493Zm-2.979-3.113a.827.827,0,0,0-.42,1.541,15.126,15.126,0,0,0,3.349.908,11.489,11.489,0,0,0-2.51-2.335h0A.828.828,0,0,0,481.913,413.38Z" transform="translate(-470.471 -410.676)" fill="#fff"/>
          </g>
        </g>
        <g id="Grupo_1119721" data-name="Grupo 1119721" transform="translate(40.537 26.383)">
          <g id="Grupo_1119703" data-name="Grupo 1119703" transform="translate(0 43.306)">
            <g id="Grupo_1119702" data-name="Grupo 1119702">
              <path id="Trazado_906485" data-name="Trazado 906485" d="M450.431,173.275c-1.1-.638-2.362-.977-3.068.443-.822,1.189.077,2.11,1.143,2.843-.73-.354-1.472-.44-1.989.376-1.094,1.35-.071,2.622,1.114,3.394-1.335-.392-1.7,1.92-.48,3.271l6.25,7.661c1.309,1.689,5.62,2.382,6.987,2.635a1.241,1.241,0,0,0,.836-.131c2.883-1.617,4.033-7.236,3.047-11.966a89,89,0,0,0-3.369-9.312,2.391,2.391,0,0,0-.463-.665.875.875,0,0,0-.743-.247,1.167,1.167,0,0,0-.724.719,9.17,9.17,0,0,0-.661,3.2c-.668-.685-1.376-1.422-2.141-2.238-1.736-1.6-4.273-4.6-6.239-2.209C449.319,171.939,449.759,172.69,450.431,173.275Z" transform="translate(-446.051 -170.156)" fill="#ffa386"/>
              <path id="Trazado_906486" data-name="Trazado 906486" d="M463.975,177.047l3.408,4.154s-2.466-5.442-3.149-6.137Z" transform="translate(-451.715 -171.707)" fill="#ff6a48" opacity="0.36"/>
            </g>
            <path id="Trazado_906487" data-name="Trazado 906487" d="M454.386,176.976a.341.341,0,0,1-.248-.105,32.61,32.61,0,0,0-2.557-2.486.342.342,0,0,1,.347-.59,31.914,31.914,0,0,1,2.7,2.6.342.342,0,0,1-.247.578Z" transform="translate(-447.745 -171.291)" fill="#ff6a48"/>
            <path id="Trazado_906488" data-name="Trazado 906488" d="M451.215,181.538a.342.342,0,0,1-.243-.1l-2.051-2.071a.342.342,0,0,1,.486-.482l2.051,2.07a.342.342,0,0,1-.244.583Z" transform="translate(-446.926 -172.883)" fill="#ff6a48"/>
            <path id="Trazado_906489" data-name="Trazado 906489" d="M449.333,186.308a.342.342,0,0,1-.238-.1l-1.13-1.091a.342.342,0,0,1,.475-.492l1.13,1.091a.342.342,0,0,1-.237.588Z" transform="translate(-446.623 -174.7)" fill="#ff6a48"/>
          </g>
          <g id="Grupo_1119718" data-name="Grupo 1119718" transform="translate(48.165)">
            <g id="Grupo_1119717" data-name="Grupo 1119717">
              <g id="Grupo_1119716" data-name="Grupo 1119716">
                <g id="Grupo_1119715" data-name="Grupo 1119715">
                  <g id="Grupo_1119714" data-name="Grupo 1119714" transform="translate(0 12.881)">
                    <path id="Trazado_906490" data-name="Trazado 906490" d="M536.549,142.209a6.194,6.194,0,0,1-2.881-2.014l3.578.115a4.056,4.056,0,0,0,1.513-.239l.051-.017a4.055,4.055,0,0,0,.577-.268l.08-.045a4.171,4.171,0,0,0,.512-.352l.062-.052a4.148,4.148,0,0,0,.463-.448l0,0a4.2,4.2,0,0,0,.381-.515c.014-.023.03-.045.045-.068a4.168,4.168,0,0,0,.278-.55c.014-.035.029-.07.042-.105a4.057,4.057,0,0,0,.182-.6c.007-.032.012-.064.018-.1a4.089,4.089,0,0,0,.081-.666l0-.1a4.009,4.009,0,0,0-.016-.489c0-.049-.012-.1-.017-.145-.014-.115-.032-.228-.055-.34-.01-.05-.021-.1-.033-.148-.029-.12-.065-.237-.1-.353-.011-.033-.02-.066-.033-.1a4.247,4.247,0,0,0-.194-.442l-.007-.012a4.214,4.214,0,0,0-.236-.4c-.017-.026-.036-.051-.054-.077q-.114-.164-.243-.316c-.019-.021-.036-.043-.054-.064a4.185,4.185,0,0,0-.729-.653h0a4.114,4.114,0,0,0-2.243-.752l-5.256-.169a22.1,22.1,0,0,1,.59-2.758,2.611,2.611,0,0,0-3.116-3.237c-5.635,1.332-7.828,1.4-9.136,1.174-.172-.029-.33-.064-.478-.1l-2.669,13.887c-1.023,4.7,2.033,7.022,6.61,8.187l.06,5.633c.04,3.858,2.8,6.976,6.14,6.929l.138,0c3.336-.048,6.541-2.293,6.5-6.151l-.36-8.464a3.188,3.188,0,0,1-.5.084Z" transform="translate(-516.717 -125.674)" fill="#ffa386"/>
                    <g id="Grupo_1119713" data-name="Grupo 1119713" transform="translate(0 3.328)">
                      <path id="Trazado_906491" data-name="Trazado 906491" d="M548.393,146.722a4.155,4.155,0,0,1-.651.176A4.177,4.177,0,0,0,548.393,146.722Z" transform="translate(-526.352 -135.653)" fill="none"/>
                      <path id="Trazado_906492" data-name="Trazado 906492" d="M546.448,141.632a.337.337,0,0,1-.185-.055l-1.694-1.1,1.711-1.914a.342.342,0,0,1,.51.456l-1.179,1.318,1.023.664a.342.342,0,0,1-.186.629Z" transform="translate(-525.349 -133.04)" fill="#ff6a48"/>
                      <g id="Grupo_1119710" data-name="Grupo 1119710" transform="translate(4.212)">
                        <path id="Trazado_906493" data-name="Trazado 906493" d="M522.936,137.044a.881.881,0,1,0,.91-.85A.881.881,0,0,0,522.936,137.044Z" transform="translate(-522.725 -132.326)" fill="#121936"/>
                        <path id="Trazado_906494" data-name="Trazado 906494" d="M525.414,145.48a3.253,3.253,0,0,1-1.464-.408.342.342,0,1,1,.313-.609,1.931,1.931,0,0,0,1.657.228.964.964,0,0,0,.432-.389.344.344,0,0,1,.458-.153.34.34,0,0,1,.157.453,1.638,1.638,0,0,1-.938.781A1.912,1.912,0,0,1,525.414,145.48Z" transform="translate(-522.987 -134.829)" fill="#ff6a48"/>
                        <g id="Grupo_1119709" data-name="Grupo 1119709" transform="translate(2.651)">
                          <g id="Grupo_1119708" data-name="Grupo 1119708">
                            <g id="Grupo_1119707" data-name="Grupo 1119707">
                              <g id="Grupo_1119706" data-name="Grupo 1119706">
                                <g id="Grupo_1119705" data-name="Grupo 1119705">
                                  <g id="Grupo_1119704" data-name="Grupo 1119704">
                                    <path id="Trazado_906495" data-name="Trazado 906495" d="M529.994,133.372a2.094,2.094,0,0,1-.878-.392c-.289-.183-.584-.36-.846-.5s-.571-.3-.882-.441a2.088,2.088,0,0,1-.8-.527c-.168-.229-.1-.583.373-.809a2.519,2.519,0,0,1,2.187.212,2.466,2.466,0,0,1,1.343,1.718C530.544,133.143,530.28,133.391,529.994,133.372Z" transform="translate(-526.503 -130.54)" fill="#121936"/>
                                  </g>
                                </g>
                              </g>
                            </g>
                          </g>
                        </g>
                        <path id="Trazado_906496" data-name="Trazado 906496" d="M524.522,139.011a.341.341,0,0,1-.227-.085.9.9,0,0,0-1.128-.038.342.342,0,1,1-.394-.559,1.582,1.582,0,0,1,1.977.086.341.341,0,0,1-.228.6Z" transform="translate(-522.628 -132.904)" fill="#ff6a48"/>
                      </g>
                      <path id="Trazado_906497" data-name="Trazado 906497" d="M527.194,159.132s5.551.8,6.654-1.241h0s.3,3.338-6.619,4.516Z" transform="translate(-519.858 -138.897)" fill="#ff6a48"/>
                      <g id="Grupo_1119711" data-name="Grupo 1119711" transform="translate(0 2.291)">
                        <path id="Trazado_906498" data-name="Trazado 906498" d="M519.543,134.39l-.481,1.456a1.06,1.06,0,0,1-1.338.674h0a.529.529,0,0,0-.669.337h0a1.713,1.713,0,0,0,1.089,2.163l.59.195" transform="translate(-516.627 -134.047)" fill="#ffa386"/>
                        <path id="Trazado_906499" data-name="Trazado 906499" d="M518.577,139.4a.345.345,0,0,1-.107-.017l-.591-.195a2.058,2.058,0,0,1-1.306-2.6.872.872,0,0,1,1.1-.554.717.717,0,0,0,.906-.456l.481-1.457a.342.342,0,0,1,.649.215l-.481,1.456a1.4,1.4,0,0,1-1.77.891.181.181,0,0,0-.144.01.19.19,0,0,0-.094.108,1.374,1.374,0,0,0,.872,1.733l.59.195a.342.342,0,0,1-.107.666Z" transform="translate(-516.469 -133.889)" fill="#ff6a48"/>
                      </g>
                      <g id="Grupo_1119712" data-name="Grupo 1119712" transform="translate(1.668 1.459)">
                        <path id="Trazado_906500" data-name="Trazado 906500" d="M524.094,139.251a3.289,3.289,0,1,1,3.289-3.289A3.293,3.293,0,0,1,524.094,139.251Zm0-5.895a2.605,2.605,0,1,0,2.605,2.605A2.608,2.608,0,0,0,524.094,133.356Z" transform="translate(-519.508 -132.672)" fill="#fff"/>
                        <path id="Trazado_906501" data-name="Trazado 906501" d="M529.763,135.895a.342.342,0,0,1-.051-.68l8.546-1.321a.345.345,0,0,1,.39.286.341.341,0,0,1-.286.39l-8.546,1.321A.342.342,0,0,1,529.763,135.895Z" transform="translate(-522.231 -133.057)" fill="#fff"/>
                        <path id="Trazado_906502" data-name="Trazado 906502" d="M520.656,136.418a.344.344,0,0,1-.159-.04,2.151,2.151,0,0,0-1.183-.114.342.342,0,0,1-.127-.672,2.858,2.858,0,0,1,1.629.181.342.342,0,0,1-.159.645Z" transform="translate(-518.908 -133.581)" fill="#fff"/>
                      </g>
                    </g>
                  </g>
                  <path id="Trazado_906503" data-name="Trazado 906503" d="M535.715,109.7l-5.145-.676a4.244,4.244,0,0,0-7.661.521c-.163.072-.322.154-.482.234a3.4,3.4,0,0,0-4.743,4.352,11.209,11.209,0,0,0-1.049,2.2,4.071,4.071,0,0,0,2.868,4.429c.131.04.267.078.411.114s.306.071.478.1c1.308.223,3.5.159,9.136-1.174a2.611,2.611,0,0,1,3.116,3.237,22.115,22.115,0,0,0-.59,2.758l5.256.169a4.115,4.115,0,0,1,2.243.752,4.161,4.161,0,0,1,.729.653c.018.021.036.042.054.064q.129.152.243.316c.018.025.037.051.054.077a4.2,4.2,0,0,1,.236.4l.007.012a4.245,4.245,0,0,1,.194.442c.012.033.022.066.033.1.04.116.075.233.1.353.012.049.023.1.034.148.023.112.041.225.055.34.005.048.013.1.017.145a3.985,3.985,0,0,1,.016.489l0,.1a4.109,4.109,0,0,1-.081.666c-.006.032-.011.064-.018.1a4.074,4.074,0,0,1-.182.6c-.014.036-.028.07-.042.105a4.138,4.138,0,0,1-.278.55c-.014.023-.03.045-.044.068a4.241,4.241,0,0,1-.381.515l0,0a4.164,4.164,0,0,1-.463.448l-.062.052a4.173,4.173,0,0,1-.512.352l-.08.045a4.124,4.124,0,0,1-.576.268l-.051.017a4.054,4.054,0,0,1-1.513.239l-3.578-.115a6.2,6.2,0,0,0,2.881,2.014l-.508,4.713a3.187,3.187,0,0,0,.5-.084,3.592,3.592,0,0,0,.676-.222,3.429,3.429,0,0,0,1.732-1.753l1.1-2.54a6.2,6.2,0,0,0,4.3-8.031,4.238,4.238,0,0,0,1.892-3.349C550.922,116.72,540.4,110.314,535.715,109.7Z" transform="translate(-516.511 -106.842)" fill="#121936"/>
                </g>
              </g>
            </g>
          </g>
          <g id="Grupo_1119720" data-name="Grupo 1119720" transform="translate(5.846 41.831)">
            <path id="Trazado_906504" data-name="Trazado 906504" d="M555.148,209.693s-18.018-32.92-19.069-34.287a17.829,17.829,0,0,0-13.882-6.958l-10.313-.144-11.762-.3c-1.826,0-7.149.962-8.513,2.177-4.263,3.8-7.19,10.475-8.86,15.614l-3.484,10.729-10.332-12.008a1.263,1.263,0,0,0-1.638-.239l-12.163,7.8a1.159,1.159,0,0,0-.306,1.666L471.616,216.4a11.07,11.07,0,0,0,17.394,1.594l-3.017,24.178h49.928l1.615-20.625,12.154-.634A7.127,7.127,0,0,0,555.148,209.693Z" transform="translate(-454.598 -168)" fill="#825a12"/>
            <g id="Grupo_1119719" data-name="Grupo 1119719" transform="translate(23.048 26.859)">
              <path id="Trazado_906505" data-name="Trazado 906505" d="M491.823,212.139a.34.34,0,0,1-.272-.135l-3.187-4.187a.342.342,0,1,1,.543-.414l3.188,4.187a.342.342,0,0,1-.272.549Z" transform="translate(-488.294 -207.268)" fill="#825a12"/>
              <path id="Trazado_906506" data-name="Trazado 906506" d="M575.392,237.4l-.038,0a.342.342,0,0,1-.3-.377L578.1,208.9a.347.347,0,0,1,.377-.3.342.342,0,0,1,.3.377l-3.044,28.119A.341.341,0,0,1,575.392,237.4Z" transform="translate(-515.71 -207.688)" fill="#825a12"/>
              <path id="Trazado_906507" data-name="Trazado 906507" d="M504.751,233.781a.347.347,0,0,1-.188-.056.342.342,0,0,1-.1-.474l10.714-16.228a.342.342,0,1,1,.57.377l-10.714,16.228A.342.342,0,0,1,504.751,233.781Z" transform="translate(-493.387 -210.302)" fill="#825a12"/>
            </g>
          </g>
        </g>
      </g>
      <g id="Grupo_1119736" data-name="Grupo 1119736" transform="translate(20.712 23.57)">
        <g id="Grupo_1119730" data-name="Grupo 1119730">
          <g id="Grupo_1119726" data-name="Grupo 1119726">
            <rect id="Rectángulo_406566" data-name="Rectángulo 406566" width="164.233" height="114.673" rx="6.263" transform="translate(0.342 0.342)" fill="#fff"/>
            <g id="Grupo_1119725" data-name="Grupo 1119725">
              <g id="Grupo_1119723" data-name="Grupo 1119723">
                <path id="Trazado_906508" data-name="Trazado 906508" d="M274.477,103.23H118.812a4.284,4.284,0,0,0-4.284,4.284V120.2H278.761V107.514A4.284,4.284,0,0,0,274.477,103.23Z" transform="translate(-114.186 -102.888)" fill="#fa0"/>
                <path id="Trazado_906509" data-name="Trazado 906509" d="M278.6,120.381H114.37a.342.342,0,0,1-.342-.342V107.356a4.631,4.631,0,0,1,4.626-4.626H274.319a4.632,4.632,0,0,1,4.626,4.626v12.683A.342.342,0,0,1,278.6,120.381ZM114.712,119.7H278.261V107.356a3.946,3.946,0,0,0-3.942-3.942H118.654a3.946,3.946,0,0,0-3.942,3.942Z" transform="translate(-114.028 -102.73)" fill="#353148"/>
              </g>
              <g id="Grupo_1119724" data-name="Grupo 1119724" transform="translate(133.68 5.778)">
                <path id="Trazado_906510" data-name="Trazado 906510" d="M312.144,116.522a2.673,2.673,0,1,1,2.672-2.673A2.676,2.676,0,0,1,312.144,116.522Zm0-4.661a1.989,1.989,0,1,0,1.988,1.988A1.991,1.991,0,0,0,312.144,111.861Z" transform="translate(-309.471 -111.177)" fill="#fff"/>
                <path id="Trazado_906511" data-name="Trazado 906511" d="M326.046,116.522a2.673,2.673,0,1,1,2.673-2.673A2.676,2.676,0,0,1,326.046,116.522Zm0-4.661a1.989,1.989,0,1,0,1.989,1.988A1.991,1.991,0,0,0,326.046,111.861Z" transform="translate(-313.864 -111.177)" fill="#fff"/>
                <path id="Trazado_906512" data-name="Trazado 906512" d="M340.368,116.522a2.673,2.673,0,1,1,2.673-2.673A2.676,2.676,0,0,1,340.368,116.522Zm0-4.661a1.989,1.989,0,1,0,1.989,1.988A1.991,1.991,0,0,0,340.368,111.861Z" transform="translate(-318.39 -111.177)" fill="#fff"/>
              </g>
            </g>
          </g>
          <g id="Grupo_1119727" data-name="Grupo 1119727" transform="translate(7.564 23.127)">
            <rect id="Rectángulo_406567" data-name="Rectángulo 406567" width="149.106" height="83.72" rx="5.099" transform="translate(0.342 0.342)" fill="#fff"/>
            <path id="Trazado_906513" data-name="Trazado 906513" d="M271.046,220.946H128.916a3.834,3.834,0,0,1-3.83-3.83V140.372a3.834,3.834,0,0,1,3.83-3.83h142.13a3.834,3.834,0,0,1,3.83,3.83v76.745A3.834,3.834,0,0,1,271.046,220.946Zm-142.13-83.72a3.149,3.149,0,0,0-3.146,3.146v76.745a3.149,3.149,0,0,0,3.146,3.146h142.13a3.149,3.149,0,0,0,3.146-3.146V140.372a3.149,3.149,0,0,0-3.146-3.146Z" transform="translate(-125.086 -136.542)" fill="#353148"/>
          </g>
          <g id="Grupo_1119728" data-name="Grupo 1119728" transform="translate(16.847 33.469)">
            <path id="Trazado_906514" data-name="Trazado 906514" d="M171.83,218a33.171,33.171,0,1,1,0-66.341C172.246,151.662,172.021,218,171.83,218Z" transform="translate(-138.659 -151.662)" fill="#fcc0fc"/>
            <path id="Trazado_906515" data-name="Trazado 906515" d="M224.292,184.833a33.171,33.171,0,0,0-33.171-33.171c-.215,0-.259,16.193-.225,33.307C190.9,185.094,224.292,184.975,224.292,184.833Z" transform="translate(-155.163 -151.662)" fill="#fa0"/>
            <path id="Trazado_906516" data-name="Trazado 906516" d="M191.792,228.912c-.434,0-.434,0-.468-12.643-.008-3.072-.01-6.144-.005-8.447.008-4.177.008-4.177.371-4.179,24.453-.048,24.609.109,24.762.263a.346.346,0,0,1,.1.245A24.79,24.79,0,0,1,191.792,228.912Zm.226-24.586c-.062,2.713.008,21.377.09,23.9a24.1,24.1,0,0,0,23.759-23.778C214.242,204.347,205.334,204.3,192.019,204.326Z" transform="translate(-155.3 -168.086)" fill="#121936"/>
          </g>
          <g id="Grupo_1119729" data-name="Grupo 1119729" transform="translate(95.9 49.799)">
            <path id="Trazado_906517" data-name="Trazado 906517" d="M299.583,176.221h-45a.342.342,0,1,1,0-.684h45a.342.342,0,1,1,0,.684Z" transform="translate(-254.236 -175.537)" fill="#121936"/>
            <path id="Trazado_906518" data-name="Trazado 906518" d="M276.264,190.977H254.578a.342.342,0,1,1,0-.684h21.686a.342.342,0,0,1,0,.684Z" transform="translate(-254.236 -180.2)" fill="#121936"/>
            <path id="Trazado_906519" data-name="Trazado 906519" d="M311.233,190.977H291.657a.342.342,0,1,1,0-.684h19.576a.342.342,0,1,1,0,.684Z" transform="translate(-265.953 -180.2)" fill="#121936"/>
          </g>
        </g>
        <g id="Grupo_1119734" data-name="Grupo 1119734" transform="translate(61.25 72.412)">
          <g id="Grupo_1119731" data-name="Grupo 1119731">
            <path id="Trazado_906520" data-name="Trazado 906520" d="M317.925,208.692c-1.507-.035-2.707,0-2.707,0l-79.693-.092a17.772,17.772,0,0,0-17.431,14.933h-.073l0,.475a17.9,17.9,0,0,0-.16,2.473l.042,6.794a18.228,18.228,0,0,1-6.046,13.884,17.777,17.777,0,0,1-8.259,4.078,14.8,14.8,0,0,0,1.976.083c1.508.035,2.706,0,2.706,0l79.693.092a17.772,17.772,0,0,0,17.431-14.933h.073l0-.475a17.9,17.9,0,0,0,.159-2.473l-.058-9.407A18.109,18.109,0,0,1,319.9,208.776,14.782,14.782,0,0,0,317.925,208.692Z" transform="translate(-203.577 -208.597)" fill="#121936"/>
            <path id="Trazado_906521" data-name="Trazado 906521" d="M352.665,208.6H250.744c12.252,0,22.184,10.349,22.184,23.115v96.24c0,8.246,6.416,14.931,14.33,14.931h97.311V241.842C385.814,224.457,376.1,208.6,352.665,208.6Z" transform="translate(-218.483 -208.597)" fill="#fff"/>
            <path id="Trazado_906522" data-name="Trazado 906522" d="M384.323,244.016a.257.257,0,0,1-.257-.257v-7.343a27.214,27.214,0,0,0-27.183-27.183H250.221a.256.256,0,1,1,0-.513H356.883a27.728,27.728,0,0,1,27.7,27.7v7.343A.257.257,0,0,1,384.323,244.016Z" transform="translate(-218.236 -208.636)" fill="#121936"/>
            <path id="Trazado_906523" data-name="Trazado 906523" d="M424.189,363.288l-106.153.133.065,10.332a18.679,18.679,0,0,1-14.961,18.286,15.5,15.5,0,0,0,2.042.085c1.557.037,2.8,0,2.8,0l82.323.094c.186,0,.369-.011.554-.017l15.156.017a18.357,18.357,0,0,0,18.243-18.47Z" transform="translate(-235.032 -257.481)" fill="#121936"/>
          </g>
          <g id="Grupo_1119733" data-name="Grupo 1119733" transform="translate(72.342 24.559)">
            <path id="Trazado_906524" data-name="Trazado 906524" d="M388.037,270.054H309.685a.342.342,0,1,1,0-.684h78.352a.342.342,0,0,1,0,.684Z" transform="translate(-309.343 -252.361)" fill="#121936"/>
            <path id="Trazado_906525" data-name="Trazado 906525" d="M353.159,245.87H311.8a.684.684,0,1,1,0-1.368h41.356a.684.684,0,1,1,0,1.368Z" transform="translate(-309.904 -244.502)" fill="#fa0"/>
            <path id="Trazado_906526" data-name="Trazado 906526" d="M347.361,317.859H309.685a.342.342,0,0,1,0-.684h37.676a.342.342,0,0,1,0,.684Z" transform="translate(-309.343 -267.468)" fill="#121936"/>
            <path id="Trazado_906527" data-name="Trazado 906527" d="M335.282,292.473h-25.6a.342.342,0,0,1,0-.684h25.6a.342.342,0,0,1,0,.684Z" transform="translate(-309.343 -259.445)" fill="#121936"/>
            <path id="Trazado_906528" data-name="Trazado 906528" d="M403.992,292.473h-43.82a.342.342,0,0,1,0-.684h43.82a.342.342,0,1,1,0,.684Z" transform="translate(-325.297 -259.445)" fill="#121936"/>
            <path id="Trazado_906529" data-name="Trazado 906529" d="M335.282,345.014h-25.6a.342.342,0,0,1,0-.684h25.6a.342.342,0,0,1,0,.684Z" transform="translate(-309.343 -276.049)" fill="#121936"/>
            <path id="Trazado_906530" data-name="Trazado 906530" d="M361.863,345.014h-6.288a.342.342,0,0,1,0-.684h6.288a.342.342,0,0,1,0,.684Z" transform="translate(-323.845 -276.049)" fill="#121936"/>
            <g id="Grupo_1119732" data-name="Grupo 1119732" transform="translate(46.391 42.585)">
              <rect id="Rectángulo_406568" data-name="Rectángulo 406568" width="8.221" height="26.117" transform="translate(0 2.685)" fill="#fcc0fc"/>
              <path id="Trazado_906531" data-name="Trazado 906531" d="M402.955,341.832h-8.22a.341.341,0,0,1-.342-.342V325.859a.341.341,0,0,1,.342-.342h8.22a.341.341,0,0,1,.342.342V341.49A.341.341,0,0,1,402.955,341.832Zm-7.878-.684h7.536V326.2h-7.536Z" transform="translate(-382.611 -312.689)" fill="#fa0"/>
              <rect id="Rectángulo_406569" data-name="Rectángulo 406569" width="8.221" height="28.801" transform="translate(24.082)" fill="#fa0"/>
            </g>
          </g>
        </g>
        <g id="Grupo_1119735" data-name="Grupo 1119735" transform="translate(132.687 32.049)">
          <path id="Trazado_906532" data-name="Trazado 906532" d="M335.54,178.173l-20.009-20.64a.342.342,0,0,1,.492-.476l19.539,20.156,21.71-20.368L383.005,176.8a.342.342,0,0,1-.42.54l-25.269-19.6Z" transform="translate(-310.363 -151.881)" fill="#121936"/>
          <circle id="Elipse_11654" data-name="Elipse 11654" cx="5.415" cy="5.415" r="5.415" fill="#fa0"/>
          <path id="Trazado_906533" data-name="Trazado 906533" d="M379.547,155a5.415,5.415,0,1,1-5.414-5.414A5.414,5.414,0,0,1,379.547,155Z" transform="translate(-327.2 -149.587)" fill="#fa0"/>
          <circle id="Elipse_11655" data-name="Elipse 11655" cx="5.415" cy="5.415" r="5.415" transform="matrix(0.16, -0.987, 0.987, 0.16, 18.977, 29.666)" fill="#fa0"/>
          <circle id="Elipse_11656" data-name="Elipse 11656" cx="5.415" cy="5.415" r="5.415" transform="matrix(0.122, -0.993, 0.993, 0.122, 66.397, 29.901)" fill="#fa0"/>
        </g>
      </g>
    </g>
  </g>
</svg>
