<svg xmlns="http://www.w3.org/2000/svg" xmlns:xlink="http://www.w3.org/1999/xlink" width="139" height="139" viewBox="0 0 139 139">
  <defs>
    <clipPath id="clip-path">
      <rect id="Rectángulo_400938" data-name="Rectángulo 400938" width="139" height="139" transform="translate(-0.043 -0.043)" fill="none"/>
    </clipPath>
    <clipPath id="clip-path-2">
      <rect id="Rectángulo_401073" data-name="Rectángulo 401073" width="105.872" height="47.68" fill="#7d3a1b"/>
    </clipPath>
    <clipPath id="clip-path-3">
      <rect id="Rectángulo_406534" data-name="Rectángulo 406534" width="81" height="81" transform="translate(1068.777 3261)" fill="#7d3a1b" stroke="#707070" stroke-width="1"/>
    </clipPath>
  </defs>
  <g id="Grupo_1119976" data-name="Grupo 1119976" transform="translate(-1041.777 -3228.563)">
    <g id="Grupo_1117780" data-name="Grupo 1117780" transform="translate(776.82 -2055.395)">
      <g id="Grupo_1099379" data-name="Grupo 1099379" transform="translate(265 5284)">
        <rect id="Rectángulo_401103" data-name="Rectángulo 401103" width="139" height="139" transform="translate(-0.043 -0.043)" fill="none"/>
        <g id="Grupo_1099348" data-name="Grupo 1099348" transform="translate(0)">
          <g id="Grupo_1099282" data-name="Grupo 1099282">
            <g id="Grupo_1099281" data-name="Grupo 1099281" clip-path="url(#clip-path-2)">
              <path id="Trazado_873375" data-name="Trazado 873375" d="M85.879,10.449c-4.752,0-7.21-2.33-9.379-4.386C74.371,4.047,72.538,2.3,68.7,2.3s-5.668,1.742-7.8,3.758c-2.17,2.056-4.624,4.386-9.379,4.386s-7.21-2.33-9.379-4.386C40.018,4.047,38.184,2.3,34.349,2.3s-5.668,1.742-7.794,3.758c-2.17,2.056-4.627,4.386-9.379,4.386S9.963,8.119,7.794,6.063C5.668,4.047,3.835,2.3,0,2.3V0C4.752,0,7.21,2.334,9.379,4.386c2.129,2.02,3.963,3.758,7.8,3.758s5.668-1.738,7.794-3.755C27.136,2.334,29.6,0,34.349,0s7.213,2.334,9.379,4.386c2.129,2.02,3.963,3.758,7.8,3.758s5.668-1.738,7.8-3.758C61.489,2.334,63.951,0,68.7,0s7.213,2.334,9.379,4.386c2.129,2.02,3.963,3.758,7.8,3.758s5.668-1.738,7.8-3.758C95.843,2.334,98.3,0,103.056,0V2.3c-3.835,0-5.668,1.742-7.8,3.758-2.169,2.056-4.627,4.386-9.379,4.386" transform="translate(2.816 37.231)" fill="#7d3a1b"/>
              <path id="Trazado_873376" data-name="Trazado 873376" d="M85.879,10.449c-4.752,0-7.213-2.33-9.379-4.39C74.371,4.043,72.538,2.3,68.7,2.3s-5.668,1.738-7.8,3.755c-2.166,2.06-4.624,4.39-9.379,4.39s-7.213-2.33-9.379-4.39C40.018,4.043,38.184,2.3,34.349,2.3s-5.668,1.742-7.794,3.755c-2.17,2.06-4.627,4.39-9.379,4.39s-7.213-2.33-9.383-4.39C5.668,4.043,3.835,2.3,0,2.3V0C4.752,0,7.213,2.33,9.379,4.386c2.129,2.02,3.963,3.758,7.8,3.758s5.668-1.738,7.794-3.758C27.136,2.33,29.6,0,34.349,0s7.213,2.33,9.383,4.386c2.126,2.02,3.959,3.758,7.794,3.758s5.668-1.738,7.8-3.758C61.489,2.33,63.951,0,68.7,0s7.213,2.33,9.379,4.386c2.129,2.02,3.963,3.758,7.8,3.758s5.668-1.738,7.8-3.758C95.846,2.33,98.3,0,103.059,0V2.3c-3.835,0-5.672,1.742-7.8,3.755-2.169,2.06-4.628,4.39-9.379,4.39" transform="translate(1.877 24.821)" fill="#7d3a1b"/>
              <path id="Trazado_873377" data-name="Trazado 873377" d="M85.879,10.449c-4.752,0-7.213-2.33-9.379-4.39C74.371,4.043,72.538,2.3,68.7,2.3s-5.668,1.738-7.8,3.755c-2.166,2.06-4.627,4.39-9.379,4.39s-7.213-2.33-9.379-4.39C40.018,4.043,38.184,2.3,34.349,2.3s-5.668,1.742-7.794,3.755c-2.169,2.06-4.627,4.39-9.379,4.39s-7.213-2.33-9.383-4.39C5.668,4.043,3.835,2.3,0,2.3V0C4.752,0,7.213,2.33,9.379,4.386c2.126,2.02,3.963,3.758,7.8,3.758s5.668-1.738,7.794-3.758C27.136,2.33,29.6,0,34.349,0s7.213,2.33,9.383,4.386c2.126,2.02,3.959,3.758,7.794,3.758s5.668-1.738,7.8-3.758C61.489,2.33,63.951,0,68.7,0s7.213,2.33,9.379,4.386c2.129,2.02,3.963,3.758,7.8,3.758s5.668-1.738,7.8-3.758C95.846,2.33,98.3,0,103.059,0V2.3c-3.835,0-5.672,1.742-7.8,3.755-2.169,2.06-4.627,4.39-9.379,4.39" transform="translate(0.939 12.41)" fill="#7d3a1b"/>
              <path id="Trazado_873378" data-name="Trazado 873378" d="M85.879,10.445c-4.752,0-7.21-2.33-9.379-4.386C74.371,4.043,72.538,2.3,68.7,2.3s-5.668,1.738-7.794,3.755c-2.169,2.056-4.627,4.386-9.383,4.386s-7.21-2.33-9.379-4.386C40.018,4.043,38.184,2.3,34.349,2.3s-5.668,1.738-7.794,3.751c-2.166,2.06-4.627,4.39-9.379,4.39S9.963,8.115,7.794,6.059C5.668,4.043,3.835,2.3,0,2.3V0C4.752,0,7.213,2.33,9.379,4.386c2.129,2.016,3.963,3.755,7.8,3.755S22.845,6.4,24.971,4.386C27.14,2.33,29.6,0,34.349,0s7.21,2.33,9.383,4.386c2.126,2.016,3.959,3.755,7.794,3.755s5.668-1.738,7.8-3.755C61.493,2.33,63.951,0,68.7,0s7.21,2.33,9.379,4.386c2.129,2.016,3.963,3.755,7.8,3.755s5.668-1.738,7.8-3.755C95.846,2.33,98.3,0,103.059,0V2.3c-3.839,0-5.672,1.738-7.8,3.755-2.169,2.056-4.627,4.386-9.379,4.386" transform="translate(0 0.004)" fill="#7d3a1b"/>
            </g>
          </g>
        </g>
        <path id="Trazado_873425" data-name="Trazado 873425" d="M57.977,0A57.977,57.977,0,1,1,0,57.977,57.977,57.977,0,0,1,57.977,0Z" transform="translate(17.221 20.665)" fill="#efb499"/>
        <circle id="Elipse_11503" data-name="Elipse 11503" cx="60.5" cy="60.5" r="60.5" transform="translate(8.957 8.957)" fill="#fff"/>
      </g>
    </g>
    <g id="Enmascarar_grupo_1098779" data-name="Enmascarar grupo 1098779" clip-path="url(#clip-path-3)">
      <g id="Grupo_1119630" data-name="Grupo 1119630" transform="translate(-2697.272 452.002)">
        <path id="Trazado_906312" data-name="Trazado 906312" d="M3889.129,2871.962a14.48,14.48,0,0,1,2.785.045,2.53,2.53,0,0,1,1.617,1.058,2.04,2.04,0,0,1-.232,1.816c-2.883,3.514-5.832,6.973-8.809,10.408a1.715,1.715,0,0,1-2.769-.071c-2.916-3.385-5.818-6.781-8.646-10.239a2.164,2.164,0,0,1-.32-1.906,2.689,2.689,0,0,1,1.732-1.069,14.193,14.193,0,0,1,2.783-.044v-1.551q0-12.524,0-25.049c0-1.662.315-1.969,2-1.974,1.666,0,3.332,0,5.187,0-3.2-5.661-3.863-11.4-1.711-17.35a19.416,19.416,0,0,1,8.752-10.391,19.9,19.9,0,0,1,25.22,29.967c-5.74,6.972-17.324,10.425-27.589,3.051Zm12.29-21.546a17.535,17.535,0,1,0-17.529-17.581A17.543,17.543,0,0,0,3901.419,2850.416Zm-10.676,23.9c-.9,0-1.468,0-2.035,0-1.75-.01-2.033-.292-2.033-2.055q0-8.05,0-16.1c0-3.055.028-6.111-.034-9.165-.009-.418-.451-1.172-.722-1.185-2.058-.1-4.123-.055-6.286-.055v1.546q0,12.515,0,25.031c0,1.673-.305,1.97-1.992,1.983-.6,0-1.2,0-2.09,0l7.6,8.947Z" transform="translate(-78.462 0)" fill="#7d3a1b"/>
        <path id="Trazado_906313" data-name="Trazado 906313" d="M3786.4,2934.952a15.879,15.879,0,0,1,2.779.04,2.458,2.458,0,0,1,1.671.96,2.316,2.316,0,0,1-.254,2.009c-2.817,3.463-5.72,6.857-8.635,10.24a1.73,1.73,0,0,1-2.846,0c-2.918-3.38-5.823-6.773-8.653-10.226a2.151,2.151,0,0,1-.308-1.9,2.671,2.671,0,0,1,1.713-1.082,13.959,13.959,0,0,1,2.775-.045v-1.537q0-17.868,0-35.737c0-2.16.149-2.306,2.359-2.307q3.644,0,7.288,0c1.91,0,2.11.2,2.11,2.071q0,17.986,0,35.971Zm1.726,2.361h-1.649c-2.25,0-2.43-.179-2.43-2.373q0-17.871,0-35.742v-1.382H3777v1.34q0,7.76,0,15.52,0,10.4,0,20.81c0,1.459-.342,1.8-1.786,1.825-.645.011-1.29,0-2.274,0l7.6,8.948Z" transform="translate(0 -62.993)" fill="#7d3a1b"/>
        <path id="Trazado_906314" data-name="Trazado 906314" d="M3979.558,3006.58v-1.555q0-7,0-14c0-1.7.291-1.984,1.986-1.986q3.882-.005,7.763,0c1.687,0,2.006.308,2.007,1.969.006,4.783.03,9.567-.02,14.35-.01,1,.3,1.345,1.267,1.228.463-.056.939,0,1.41-.01.852-.021,1.712.2,1.861,1.076a3.047,3.047,0,0,1-.459,2.118c-1.213,1.632-2.6,3.136-3.919,4.69-1.446,1.7-2.884,3.413-4.343,5.1-1.143,1.324-2.187,1.34-3.325.014-2.782-3.241-5.534-6.509-8.309-9.758a1.944,1.944,0,0,1-.451-2.263,1.889,1.889,0,0,1,1.972-.985C3977.811,3006.6,3978.624,3006.58,3979.558,3006.58Zm2.372-15.124c0,.6,0,1.065,0,1.531q0,6.988,0,13.977c0,1.662-.323,1.969-2.006,1.98-.6,0-1.191,0-2.084,0l7.609,8.945,7.589-8.945c-.86,0-1.426,0-1.993,0-1.823-.009-2.087-.272-2.088-2.127q-.005-6.988,0-13.977c0-.452-.041-.9-.064-1.384Z" transform="translate(-156.604 -134.625)" fill="#7d3a1b"/>
        <path id="Trazado_906315" data-name="Trazado 906315" d="M3942.645,2862.947c-1.615,0-3.211.006-4.809,0-2.507-.012-3.836-1.627-3.395-4.056a1.49,1.49,0,0,0-.235-1,3.184,3.184,0,0,1,.338-4.366,2.815,2.815,0,0,0,.388-.971.581.581,0,0,0-.021-.232c-.152-1.25.782-2.045,1.181-3.047.355-.891-.3-2.259.6-3.058a5.209,5.209,0,0,1,2.6-1.3c2.866-.355,5.76-.484,8.643-.7a9.368,9.368,0,0,1,5.938,1.428,5.055,5.055,0,0,0,2.141.657,30.8,30.8,0,0,0,3.172.031c.946,0,1.475.434,1.475,1.419q0,6.586-.006,13.171a1.2,1.2,0,0,1-1.4,1.342,21.6,21.6,0,0,1-2.233-.015c-2.967-.381-4.7,1.524-6.349,3.468a4.059,4.059,0,0,0-.683,2.179c-.109,1.245-.016,2.507-.037,3.761-.02,1.207-.478,1.6-1.687,1.514a6.071,6.071,0,0,1-5.619-5.891C3942.612,2865.868,3942.645,2864.465,3942.645,2862.947Zm3.074-8.506c.655-.4.943-.607,1.257-.76.65-.316,1.348-.263,1.586.429a2.154,2.154,0,0,1-.344,1.51c-.192.338-.688.493-1.025.759-1.733,1.371-1.931,2.3-1.047,4.349.147.343.207.976.007,1.175-1.587,1.586-1.157,3.566-1.128,5.444a3.223,3.223,0,0,0,2.582,3.137c0-.678.037-1.339-.006-1.994a6.866,6.866,0,0,1,2.915-6.085,16.89,16.89,0,0,1,1.787-1.332,1.554,1.554,0,0,0,.783-1.548c-.03-3.526-.038-7.052,0-10.577a1.591,1.591,0,0,0-.928-1.582c-2.189-1.241-4.432-.838-6.539-.42A16.958,16.958,0,0,0,3945.719,2854.441Zm12.47,5.4V2848.77h-2.676v11.075Zm-18.27-3.209c1.018,0,2.042.064,3.049-.034.352-.034.664-.469.994-.72-.331-.256-.654-.722-.993-.733q-3.048-.1-6.1,0c-.334.011-.653.478-.979.734.327.251.635.685.982.719C3937.879,2856.7,3938.9,2856.635,3939.92,2856.635Zm-.016,3.95a17.291,17.291,0,0,0,2.342-.034c.322-.045.592-.465.886-.715-.278-.273-.546-.769-.836-.782-1.6-.075-3.207-.072-4.806.01-.264.013-.5.549-.751.843.273.225.527.609.822.644A20.306,20.306,0,0,0,3939.9,2860.585Zm.4-9.405a14.4,14.4,0,0,0-2.22.036c-.307.048-.551.5-.823.765.258.247.507.695.776.708,1.441.07,2.889.07,4.329,0,.267-.013.511-.467.766-.718-.279-.263-.527-.7-.844-.754A10.986,10.986,0,0,0,3940.307,2851.18Zm.54-3.958a6.039,6.039,0,0,0-1.513.032c-.338.09-.6.476-.893.73.273.273.526.752.823.781a15.652,15.652,0,0,0,3.036,0c.3-.029.557-.5.834-.775-.294-.256-.551-.635-.892-.737A5.072,5.072,0,0,0,3940.847,2847.222Z" transform="translate(-124.994 -23.841)" fill="#7d3a1b"/>
      </g>
    </g>
  </g>
</svg>
