<svg xmlns="http://www.w3.org/2000/svg" xmlns:xlink="http://www.w3.org/1999/xlink" width="145" height="145" viewBox="0 0 145 145">
  <defs>
    <clipPath id="clip-path">
      <rect id="Rectángulo_400938" data-name="Rectángulo 400938" width="145" height="145" transform="translate(0 -0.281)" fill="none"/>
    </clipPath>
    <clipPath id="clip-path-2">
      <rect id="Rectángulo_401073" data-name="Rectángulo 401073" width="110.228" height="49.642" fill="#7d3a1b"/>
    </clipPath>
    <clipPath id="clip-path-3">
      <rect id="Rectángulo_406572" data-name="Rectángulo 406572" width="88" height="88" transform="translate(194 9572.789)" fill="#fff" stroke="#707070" stroke-width="1"/>
    </clipPath>
  </defs>
  <g id="Grupo_1119985" data-name="Grupo 1119985" transform="translate(-1148.5 -8157.099)">
    <g id="Grupo_1119743" data-name="Grupo 1119743" transform="translate(-0.5 3750.169)">
      <g id="Grupo_1117908" data-name="Grupo 1117908" transform="translate(974 -5133.789)">
        <g id="Grupo_1099404" data-name="Grupo 1099404" transform="translate(175 9541)">
          <g id="Grupo_1099379" data-name="Grupo 1099379" transform="translate(0 0)">
            <rect id="Rectángulo_401103" data-name="Rectángulo 401103" width="145" height="145" transform="translate(0 -0.281)" fill="none"/>
            <g id="Grupo_1099348" data-name="Grupo 1099348" transform="translate(0.045 0.045)">
              <g id="Grupo_1099282" data-name="Grupo 1099282">
                <g id="Grupo_1099281" data-name="Grupo 1099281" clip-path="url(#clip-path-2)">
                  <path id="Trazado_873375" data-name="Trazado 873375" d="M89.413,10.879c-4.947,0-7.506-2.426-9.765-4.567C77.431,4.213,75.522,2.4,71.529,2.4s-5.9,1.814-8.118,3.913c-2.259,2.141-4.814,4.567-9.765,4.567S46.14,8.453,43.881,6.312C41.664,4.213,39.755,2.4,35.763,2.4s-5.9,1.814-8.114,3.913c-2.259,2.141-4.818,4.567-9.765,4.567s-7.51-2.426-9.769-4.567C5.9,4.213,3.993,2.4,0,2.4V0C4.947,0,7.506,2.43,9.765,4.567c2.217,2.1,4.126,3.913,8.118,3.913S23.785,6.67,26,4.571C28.253,2.43,30.816,0,35.763,0s7.51,2.43,9.765,4.567c2.217,2.1,4.126,3.913,8.118,3.913s5.9-1.81,8.118-3.913C64.019,2.43,66.582,0,71.529,0s7.51,2.43,9.765,4.567c2.217,2.1,4.126,3.913,8.118,3.913s5.9-1.81,8.118-3.913C99.786,2.43,102.345,0,107.3,0V2.4c-3.993,0-5.9,1.814-8.118,3.913-2.259,2.141-4.818,4.567-9.765,4.567" transform="translate(2.932 38.763)" fill="#7d3a1b"/>
                  <path id="Trazado_873376" data-name="Trazado 873376" d="M89.413,10.879c-4.947,0-7.51-2.426-9.765-4.571C77.431,4.209,75.522,2.4,71.529,2.4s-5.9,1.81-8.118,3.909c-2.255,2.145-4.814,4.571-9.765,4.571s-7.51-2.426-9.765-4.571C41.664,4.209,39.755,2.4,35.763,2.4s-5.9,1.814-8.115,3.909c-2.259,2.145-4.818,4.571-9.765,4.571s-7.51-2.426-9.769-4.571C5.9,4.209,3.993,2.4,0,2.4V0C4.947,0,7.51,2.426,9.765,4.567c2.217,2.1,4.126,3.913,8.118,3.913S23.785,6.67,26,4.567C28.253,2.426,30.816,0,35.763,0s7.51,2.426,9.769,4.567c2.213,2.1,4.122,3.913,8.115,3.913s5.9-1.81,8.118-3.913C64.019,2.426,66.582,0,71.529,0s7.51,2.426,9.765,4.567c2.217,2.1,4.126,3.913,8.118,3.913s5.9-1.81,8.118-3.913C99.79,2.426,102.349,0,107.3,0V2.4c-3.993,0-5.905,1.814-8.122,3.909-2.259,2.145-4.818,4.571-9.765,4.571" transform="translate(1.955 25.842)" fill="#7d3a1b"/>
                  <path id="Trazado_873377" data-name="Trazado 873377" d="M89.412,10.879c-4.947,0-7.51-2.426-9.765-4.571C77.431,4.209,75.522,2.4,71.529,2.4s-5.9,1.81-8.118,3.909c-2.255,2.145-4.818,4.571-9.765,4.571s-7.51-2.426-9.765-4.571C41.664,4.209,39.755,2.4,35.763,2.4s-5.9,1.814-8.115,3.909c-2.259,2.145-4.818,4.571-9.765,4.571s-7.51-2.426-9.769-4.571C5.9,4.209,3.993,2.4,0,2.4V0C4.947,0,7.51,2.426,9.765,4.567c2.213,2.1,4.126,3.913,8.118,3.913S23.785,6.67,26,4.567C28.253,2.426,30.816,0,35.763,0s7.51,2.426,9.769,4.567c2.213,2.1,4.122,3.913,8.115,3.913s5.9-1.81,8.118-3.913C64.019,2.426,66.582,0,71.529,0s7.51,2.426,9.765,4.567c2.217,2.1,4.126,3.913,8.118,3.913s5.9-1.81,8.118-3.913C99.79,2.426,102.345,0,107.3,0V2.4c-3.993,0-5.905,1.814-8.122,3.909-2.259,2.145-4.818,4.571-9.765,4.571" transform="translate(0.977 12.921)" fill="#7d3a1b"/>
                  <path id="Trazado_873378" data-name="Trazado 873378" d="M89.413,10.875c-4.947,0-7.506-2.426-9.765-4.567C77.431,4.209,75.522,2.4,71.529,2.4s-5.9,1.81-8.115,3.909c-2.259,2.141-4.818,4.567-9.769,4.567S46.14,8.449,43.881,6.308C41.664,4.209,39.755,2.4,35.763,2.4s-5.9,1.81-8.115,3.905c-2.255,2.145-4.818,4.571-9.765,4.571s-7.51-2.426-9.769-4.567C5.9,4.209,3.993,2.4,0,2.4V0C4.947,0,7.51,2.426,9.765,4.567c2.217,2.1,4.126,3.909,8.118,3.909s5.9-1.81,8.115-3.909C28.257,2.426,30.816,0,35.763,0s7.506,2.426,9.769,4.567c2.213,2.1,4.122,3.909,8.115,3.909s5.9-1.81,8.118-3.909C64.023,2.426,66.582,0,71.529,0s7.506,2.426,9.765,4.567c2.217,2.1,4.126,3.909,8.118,3.909s5.9-1.81,8.118-3.909C99.79,2.426,102.349,0,107.3,0V2.4c-4,0-5.905,1.81-8.122,3.909-2.259,2.141-4.818,4.567-9.765,4.567" transform="translate(0 0.004)" fill="#7d3a1b"/>
                </g>
              </g>
            </g>
            <path id="Trazado_873425" data-name="Trazado 873425" d="M60.362,0A60.362,60.362,0,1,1,0,60.362,60.362,60.362,0,0,1,60.362,0Z" transform="translate(17.974 21.56)" fill="#efb499"/>
            <circle id="Elipse_11503" data-name="Elipse 11503" cx="63" cy="63" r="63" transform="translate(9 9.719)" fill="#fef7eb"/>
          </g>
        </g>
      </g>
    </g>
    <g id="Enmascarar_grupo_1098784" data-name="Enmascarar grupo 1098784" transform="translate(976 -1387.19)" clip-path="url(#clip-path-3)">
      <g id="Grupo_1119763" data-name="Grupo 1119763" transform="translate(-3563.6 7586.354)">
        <path id="Trazado_906794" data-name="Trazado 906794" d="M3898.665,2086.95a15.264,15.264,0,0,1-4.652-6.284c-1.84-4.656.538-9.235,5.355-9.894a13.885,13.885,0,0,1,5.034.678,12.335,12.335,0,0,0,6.834-.218,38.51,38.51,0,0,1,4.469-1.163,7.763,7.763,0,0,1,8.426,4.275,4.105,4.105,0,0,0,1.354,1.357c1.965,1.346,2.24,3.345,2.145,5.459a8.017,8.017,0,0,1-.515,2.377c-.638,1.718-1.412,3.242-.632,5.3.681,1.793-.564,3.525-2.362,4.491a1.47,1.47,0,0,0-.683.678,13.315,13.315,0,0,1-6.74,7.866,6.085,6.085,0,0,0,4.449,4.813,57.169,57.169,0,0,1,7.563,2.433c4.582,1.938,6.9,5.587,7.173,10.527.075,1.369.052,2.745.029,4.118a5.1,5.1,0,0,1-5.225,5.071c-5.233.027-10.468.01-15.7.01q-10.168,0-20.336,0c-3.691,0-5.758-2.04-5.681-5.752a30.912,30.912,0,0,1,.53-6.506c.934-3.914,3.65-6.436,7.356-7.808,2.281-.845,4.645-1.474,6.992-2.131a6.187,6.187,0,0,0,4.141-4.211c.079-.208-.205-.724-.451-.858a13.247,13.247,0,0,1-6.12-7.34,1.8,1.8,0,0,0-.645-.884c-2.5-1.5-3.135-3.165-2.2-5.914C3898.6,2087.312,3898.618,2087.182,3898.665,2086.95Zm13.74,40.016c5.964,0,11.928.015,17.892-.007,2.494-.009,3.716-1.257,3.713-3.742,0-1.329-.049-2.66-.125-3.987a9.128,9.128,0,0,0-5.755-8.3c-2.216-.982-4.618-1.541-6.928-2.317a1.74,1.74,0,0,0-1.962.481c-1.452,1.4-2.959,2.738-4.466,4.078-1.7,1.514-3.081,1.517-4.76.021-1.57-1.4-3.094-2.848-4.7-4.2a1.878,1.878,0,0,0-1.461-.414,65.167,65.167,0,0,0-7.3,2.4,8.816,8.816,0,0,0-5.471,6.977,33.935,33.935,0,0,0-.235,5c-.034,2.906,1.1,4.007,4.054,4.009Q3903.651,2126.973,3912.405,2126.966Zm11.684-41.365c1.326-2.281,2.1-4.385,1.452-6.714a2.581,2.581,0,0,0-1.429-1.554,1.918,1.918,0,0,1-1.413-1.427,5.8,5.8,0,0,0-6.512-4.026,26.431,26.431,0,0,0-3.845,1,14.47,14.47,0,0,1-8.722.3,15.562,15.562,0,0,0-2.89-.586c-3.209-.319-6.093,2.7-5.436,5.763a12.161,12.161,0,0,0,4.166,6.781c.689.589,1.318.485,1.663-.269.413-.9.96-.824,1.77-.662a10.143,10.143,0,0,0,9.711-3.064c1.246-1.267,2.038-1.205,2.96.366a6.02,6.02,0,0,0,6.038,3.07C3922.626,2084.361,3923.427,2084.269,3924.089,2085.6Zm-10.162-3.04a12.53,12.53,0,0,1-8.738,3.751,7.715,7.715,0,0,0-3.819.771,2.355,2.355,0,0,0-1.282,2.438c.07,1,.431,1.883,1.574,2.045.819.116,1.1.573,1.332,1.313a14.628,14.628,0,0,0,1.316,3.053c2.663,4.513,7.775,6.19,12.008,3.954a10.944,10.944,0,0,0,5.433-7,1.772,1.772,0,0,1,1.318-1.36,2.628,2.628,0,0,0,1.47-1.352c.72-1.854-.674-3.639-2.9-3.606A8.826,8.826,0,0,1,3913.928,2082.561Zm4.037,25.168-3.455-5.06h-4.239l-3.487,5.016c1.512,1.375,3.115,2.846,4.737,4.3a1.21,1.21,0,0,0,1.821-.078C3914.916,2110.461,3916.512,2109.04,3917.965,2107.73Z" transform="translate(-93.335 -58.891)" fill="#7a4f00"/>
        <path id="Trazado_906795" data-name="Trazado 906795" d="M3763.257,2025.937q0-15,0-30c0-3.44,1.882-5.315,5.34-5.316q23.047-.006,46.094,0c3.452,0,5.267,1.782,5.284,5.2.018,3.776.009,7.553,0,11.33,0,.676.1,1.519-.936,1.478-.983-.038-.908-.846-.908-1.539,0-3.777.005-7.553,0-11.33-.005-2.153-1.064-3.261-3.236-3.264q-23.24-.023-46.48,0c-2.31,0-3.282,1.122-3.283,3.639q-.006,23.3,0,46.609,0,6.566,0,13.132c0,2.609.956,3.544,3.589,3.545q10.815.005,21.631,0a2.685,2.685,0,0,1,1.142.047,1.808,1.808,0,0,1,.917.983c.051.224-.513.658-.874.875-.224.135-.586.046-.886.046q-10.944,0-21.888,0-5.508-.006-5.5-5.569Q3763.255,2040.872,3763.257,2025.937Z" transform="translate(0 0)" fill="#7a4f00"/>
        <path id="Trazado_906796" data-name="Trazado 906796" d="M3797.411,2139.408a3.953,3.953,0,0,1,1-.9,3.688,3.688,0,0,1,1.365-.066c-.031.463-.061.927-.1,1.39,0,.033-.05.072-.085.094-1.849,1.159-1.909,2.963-1.77,4.852a9.782,9.782,0,0,1-.019,1.672,2.673,2.673,0,0,1-2.8,2.607q-2.381.057-4.764,0a2.638,2.638,0,0,1-2.809-2.712c-.067-1.628-.066-3.263,0-4.892a2.634,2.634,0,0,1,2.792-2.731c1.588-.034,3.18-.071,4.763.021A12.675,12.675,0,0,1,3797.411,2139.408Zm-4.444,3.868,2.842-2.26c-.245-.2-.34-.347-.437-.349-1.751-.035-3.5-.1-5.252-.025-.279.012-.731.681-.756,1.068-.093,1.407-.017,2.824-.046,4.237-.018.864.336,1.269,1.213,1.244.856-.024,1.713,0,2.57,0,2.9,0,2.9,0,2.773-2.868a1.594,1.594,0,0,0-.146-.391c-.182.13-.321.211-.439.317-1.783,1.6-2.92,1.539-4.351-.342-.241-.317-.134-.9-.187-1.358a5.339,5.339,0,0,1,1.477.092A2.136,2.136,0,0,1,3792.967,2143.275Z" transform="translate(-17.918 -109.73)" fill="#7a4f00"/>
        <path id="Trazado_906797" data-name="Trazado 906797" d="M3797.589,2016.871a4.259,4.259,0,0,1,.914-1.122,1.266,1.266,0,0,1,1.217.024c.217.2.068.8.061,1.23,0,.066-.09.151-.159.194-1.824,1.16-1.937,2.938-1.785,4.835a9.115,9.115,0,0,1-.047,1.922,2.606,2.606,0,0,1-2.57,2.412c-1.71.066-3.427.064-5.137.005a2.556,2.556,0,0,1-2.607-2.5,49.507,49.507,0,0,1,0-5.391,2.509,2.509,0,0,1,2.517-2.441c1.753-.068,3.514-.083,5.263.018A9.964,9.964,0,0,1,3797.589,2016.871Zm-1.832,1.48-.12-.421c-1.863,0-3.729-.046-5.587.053-.257.013-.654.729-.679,1.139-.086,1.368-.006,2.746-.042,4.118-.024.967.457,1.3,1.345,1.273.815-.021,1.631,0,2.447,0,2.914,0,2.915,0,2.78-2.9a1.55,1.55,0,0,0-.157-.391,2.781,2.781,0,0,0-.43.323c-1.613,1.866-3.08,1.306-4.36-.327-.247-.314-.076-.956-.1-1.447a4.373,4.373,0,0,1,1.352.147,3.918,3.918,0,0,1,.958.843Z" transform="translate(-17.93 -18.553)" fill="#7a4f00"/>
        <path id="Trazado_906798" data-name="Trazado 906798" d="M3797.423,2077.929a4.784,4.784,0,0,1,1.087-.972,1.33,1.33,0,0,1,1.224.051c.214.216.051.811.034,1.239,0,.065-.1.144-.166.188-1.835,1.16-1.909,2.951-1.772,4.839a9.056,9.056,0,0,1-.05,1.921,2.655,2.655,0,0,1-2.713,2.4q-2.439.052-4.88,0a2.6,2.6,0,0,1-2.718-2.522,47.641,47.641,0,0,1,.007-5.389,2.507,2.507,0,0,1,2.658-2.41c1.626-.035,3.256-.069,4.878.017A12.973,12.973,0,0,1,3797.423,2077.929Zm-1.674,1.633-.123-.418c-1.9,0-3.8-.032-5.7.045-.209.009-.546.64-.562.994-.065,1.455-.014,2.915-.034,4.373a1.027,1.027,0,0,0,1.168,1.186c1.415.005,2.835.07,4.242-.041a1.54,1.54,0,0,0,1.106-.9,11.006,11.006,0,0,0,.051-2.478,5.815,5.815,0,0,0-.668.525c-1.344,1.546-2.805,1.451-4.276-.406-.252-.318-.092-.962-.122-1.456a4.587,4.587,0,0,1,1.376.147,3.72,3.72,0,0,1,.939.811Z" transform="translate(-17.923 -64.013)" fill="#7a4f00"/>
        <path id="Trazado_906799" data-name="Trazado 906799" d="M3797.383,2200.326a5.444,5.444,0,0,1,1.158-1.021,1.335,1.335,0,0,1,1.221.042c.218.22.068.812.06,1.24,0,.065-.1.145-.165.189-1.871,1.195-1.941,3.025-1.791,4.958a8.063,8.063,0,0,1-.073,1.917,2.493,2.493,0,0,1-2.551,2.244q-2.565.074-5.134,0a2.459,2.459,0,0,1-2.579-2.342,45.184,45.184,0,0,1,.013-5.64,2.529,2.529,0,0,1,2.613-2.344c1.668-.048,3.342-.077,5,.021A9.675,9.675,0,0,1,3797.383,2200.326Zm-1.524,4.479c-2.571,1.867-3.611,1.846-4.966-.122-.2-.3-.065-.833-.085-1.259a3.784,3.784,0,0,1,1.359.013,6.53,6.53,0,0,1,1.381,1.151c.4-.537.721-1,1.079-1.426s.773-.852,1.163-1.275l-.127-.334c-1.924,0-3.849-.025-5.771.041-.183.006-.483.582-.494.9-.053,1.5-.023,3-.025,4.5a.949.949,0,0,0,1.112,1.078c.856-.017,1.713,0,2.57,0C3796.169,2208.067,3796.169,2208.067,3795.859,2204.8Z" transform="translate(-17.962 -154.85)" fill="#7a4f00"/>
        <path id="Trazado_906800" data-name="Trazado 906800" d="M3861.081,2052.069q-6.3,0-12.607,0a2.654,2.654,0,0,1-1.138-.078c-.322-.167-.709-.586-.706-.891,0-.286.434-.654.76-.825a2.356,2.356,0,0,1,1.013-.066q12.736,0,25.471,0c.129,0,.258,0,.386,0,.67.01,1.478.07,1.319.934-.07.38-.891.879-1.378.886C3869.829,2052.1,3865.455,2052.068,3861.081,2052.069Z" transform="translate(-61.902 -44.228)" fill="#7a4f00"/>
        <path id="Trazado_906801" data-name="Trazado 906801" d="M3857,2029.853h-9c-.719,0-1.5-.043-1.493-.982s.825-.954,1.522-.955q9.064-.009,18.129,0c.705,0,1.5.024,1.486.983-.018.94-.8.957-1.514.956Q3861.562,2029.85,3857,2029.853Z" transform="translate(-61.809 -27.69)" fill="#7a4f00"/>
        <path id="Trazado_906802" data-name="Trazado 906802" d="M3857.024,2174.357q-4.5,0-9,0c-.7,0-1.52.026-1.521-.927s.8-.945,1.511-.944q9.061.006,18.12,0c.717,0,1.507-.011,1.515.936s-.792.94-1.5.938Q3861.586,2174.351,3857.024,2174.357Z" transform="translate(-61.81 -135.031)" fill="#7a4f00"/>
        <path id="Trazado_906803" data-name="Trazado 906803" d="M3855.121,2150.415q3.6,0,7.194,0c.688,0,1.448.071,1.279.953a1.6,1.6,0,0,1-1.247.852q-7.321.091-14.644,0c-.44-.006-.872-.566-1.308-.869.426-.31.841-.873,1.276-.888C3850.152,2150.371,3852.637,2150.416,3855.121,2150.415Z" transform="translate(-61.727 -118.635)" fill="#7a4f00"/>
        <path id="Trazado_906804" data-name="Trazado 906804" d="M3853.375,2213.459c-1.885,0-3.773.056-5.654-.041-.452-.023-.877-.556-1.315-.854.422-.312.84-.886,1.269-.894,3.812-.071,7.625-.038,11.439-.044.677,0,1.248.162,1.217.96s-.648.882-1.3.878C3857.146,2213.452,3855.26,2213.459,3853.375,2213.459Z" transform="translate(-61.736 -164.089)" fill="#7a4f00"/>
        <path id="Trazado_906805" data-name="Trazado 906805" d="M3852.86,2113.286c-1.715,0-3.434.062-5.142-.042-.455-.028-.879-.564-1.318-.867.42-.315.835-.892,1.261-.9,3.471-.074,6.945-.042,10.417-.042.653,0,1.359.144,1.169.935a1.643,1.643,0,0,1-1.245.876C3856.294,2113.348,3854.575,2113.286,3852.86,2113.286Z" transform="translate(-61.731 -89.697)" fill="#7a4f00"/>
        <path id="Trazado_906806" data-name="Trazado 906806" d="M3852.5,2091.109c-1.5,0-3,0-4.5,0-.727,0-1.486-.056-1.492-.989-.005-.882.741-.924,1.408-.925q4.762-.007,9.524,0c.674,0,1.478.095,1.318.95-.073.391-.868.881-1.364.917C3855.761,2091.181,3854.125,2091.109,3852.5,2091.109Z" transform="translate(-61.804 -73.19)" fill="#7a4f00"/>
        <path id="Trazado_906807" data-name="Trazado 906807" d="M3851.081,2235.467c-1.2,0-2.4.068-3.591-.039-.38-.034-.718-.531-1.075-.816.37-.324.731-.913,1.113-.927,2.35-.087,4.706-.087,7.056,0,.387.014.753.589,1.13.905-.389.294-.757.8-1.172.843a34.075,34.075,0,0,1-3.462.04Z" transform="translate(-61.742 -180.419)" fill="#7a4f00"/>
      </g>
    </g>
  </g>
</svg>
