<svg xmlns="http://www.w3.org/2000/svg" xmlns:xlink="http://www.w3.org/1999/xlink" width="121" height="121" viewBox="0 0 121 121">
  <defs>
    <clipPath id="clip-path">
      <rect id="Rectángulo_400938" data-name="Rectángulo 400938" width="121" height="121" transform="translate(0 0)" fill="none"/>
    </clipPath>
    <clipPath id="clip-path-2">
      <rect id="Rectángulo_401073" data-name="Rectángulo 401073" width="92.219" height="41.532" fill="#efb499"/>
    </clipPath>
  </defs>
  <g id="Grupo_1119989" data-name="Grupo 1119989" transform="translate(-4688.496 1699.774)">
    <g id="Grupo_1105103" data-name="Grupo 1105103" transform="translate(4300.828 -7712.774)">
      <rect id="Rectángulo_401103" data-name="Rectángulo 401103" width="121" height="121" transform="translate(387.668 6013)" fill="none"/>
      <g id="Grupo_1099348" data-name="Grupo 1099348" transform="translate(387.668 6013)">
        <g id="Grupo_1099282" data-name="Grupo 1099282">
          <g id="Grupo_1099281" data-name="Grupo 1099281" clip-path="url(#clip-path-2)">
            <path id="Trazado_873375" data-name="Trazado 873375" d="M74.8,9.1c-4.139,0-6.28-2.03-8.17-3.821-1.855-1.756-3.452-3.274-6.792-3.274s-4.937,1.517-6.792,3.274C51.161,7.072,49.023,9.1,44.881,9.1s-6.28-2.03-8.169-3.821C34.857,3.525,33.26,2.007,29.92,2.007s-4.937,1.517-6.789,3.274C21.241,7.072,19.1,9.1,14.962,9.1S8.679,7.072,6.789,5.281C4.937,3.525,3.34,2.007,0,2.007V0C4.139,0,6.28,2.033,8.17,3.821c1.855,1.759,3.452,3.274,6.792,3.274S19.9,5.58,21.75,3.824C23.637,2.033,25.781,0,29.92,0s6.283,2.033,8.17,3.821c1.855,1.759,3.452,3.274,6.792,3.274s4.937-1.514,6.792-3.274C53.56,2.033,55.7,0,59.843,0s6.283,2.033,8.17,3.821C69.867,5.58,71.464,7.094,74.8,7.094S79.742,5.58,81.6,3.821C83.483,2.033,85.624,0,89.766,0V2.007c-3.34,0-4.937,1.517-6.792,3.274C81.084,7.072,78.943,9.1,74.8,9.1" transform="translate(2.453 32.43)" fill="#efb499"/>
            <path id="Trazado_873376" data-name="Trazado 873376" d="M74.8,9.1c-4.139,0-6.283-2.03-8.17-3.824-1.855-1.756-3.452-3.27-6.792-3.27s-4.937,1.514-6.792,3.27C51.164,7.072,49.023,9.1,44.881,9.1s-6.283-2.03-8.17-3.824c-1.855-1.756-3.452-3.27-6.792-3.27s-4.937,1.517-6.789,3.27C21.241,7.072,19.1,9.1,14.962,9.1S8.679,7.072,6.789,5.278C4.937,3.522,3.34,2.007,0,2.007V0C4.139,0,6.283,2.03,8.17,3.821c1.855,1.759,3.452,3.274,6.792,3.274S19.9,5.58,21.75,3.821C23.637,2.03,25.781,0,29.92,0S36.2,2.03,38.093,3.821c1.852,1.759,3.449,3.274,6.789,3.274s4.937-1.514,6.792-3.274C53.56,2.03,55.7,0,59.843,0s6.283,2.03,8.17,3.821C69.867,5.58,71.464,7.094,74.8,7.094S79.742,5.58,81.6,3.821C83.486,2.03,85.627,0,89.769,0V2.007c-3.34,0-4.94,1.517-6.8,3.27C81.084,7.072,78.943,9.1,74.8,9.1" transform="translate(1.635 21.62)" fill="#efb499"/>
            <path id="Trazado_873377" data-name="Trazado 873377" d="M74.8,9.1c-4.139,0-6.283-2.03-8.169-3.824-1.855-1.756-3.452-3.27-6.792-3.27s-4.937,1.514-6.792,3.27C51.164,7.072,49.02,9.1,44.881,9.1s-6.283-2.03-8.17-3.824c-1.855-1.756-3.452-3.27-6.792-3.27s-4.937,1.517-6.789,3.27C21.241,7.072,19.1,9.1,14.962,9.1S8.678,7.072,6.789,5.278C4.937,3.522,3.34,2.007,0,2.007V0C4.139,0,6.283,2.03,8.169,3.821c1.851,1.759,3.452,3.274,6.792,3.274S19.9,5.58,21.75,3.821C23.637,2.03,25.781,0,29.92,0S36.2,2.03,38.093,3.821c1.852,1.759,3.449,3.274,6.789,3.274s4.937-1.514,6.792-3.274C53.56,2.03,55.7,0,59.843,0s6.283,2.03,8.17,3.821C69.867,5.58,71.464,7.094,74.8,7.094S79.742,5.58,81.6,3.821C83.486,2.03,85.624,0,89.769,0V2.007c-3.34,0-4.941,1.517-6.8,3.27C81.084,7.072,78.943,9.1,74.8,9.1" transform="translate(0.818 10.81)" fill="#efb499"/>
            <path id="Trazado_873378" data-name="Trazado 873378" d="M74.8,9.1c-4.139,0-6.28-2.03-8.17-3.821-1.855-1.756-3.452-3.27-6.792-3.27s-4.937,1.514-6.789,3.27C51.164,7.069,49.023,9.1,44.881,9.1s-6.28-2.03-8.169-3.821c-1.855-1.756-3.452-3.27-6.792-3.27s-4.937,1.514-6.789,3.267C21.245,7.069,19.1,9.1,14.962,9.1S8.678,7.069,6.789,5.278C4.937,3.522,3.34,2.007,0,2.007V0C4.139,0,6.283,2.03,8.17,3.821c1.855,1.756,3.452,3.27,6.792,3.27S19.9,5.577,21.75,3.821C23.64,2.03,25.781,0,29.92,0s6.28,2.03,8.173,3.821c1.852,1.756,3.449,3.27,6.789,3.27s4.937-1.514,6.792-3.27C53.563,2.03,55.7,0,59.843,0s6.28,2.03,8.17,3.821c1.855,1.756,3.452,3.27,6.792,3.27s4.937-1.514,6.792-3.27C83.486,2.03,85.627,0,89.769,0V2.007c-3.344,0-4.941,1.514-6.8,3.27C81.084,7.069,78.943,9.1,74.8,9.1" transform="translate(0 0.003)" fill="#efb499"/>
          </g>
        </g>
      </g>
      <circle id="Elipse_11504" data-name="Elipse 11504" cx="50.5" cy="50.5" r="50.5" transform="translate(402.668 6031)" fill="#ffce73"/>
      <circle id="Elipse_11503" data-name="Elipse 11503" cx="52.5" cy="52.5" r="52.5" transform="translate(395.668 6021)" fill="#f3f9ff"/>
    </g>
    <g id="Grupo_1105106" data-name="Grupo 1105106" transform="translate(4715.434 -1672.971)">
      <rect id="Rectángulo_401104" data-name="Rectángulo 401104" width="68" height="69" transform="translate(-0.438 -0.804)" fill="none"/>
      <g id="Grupo_1105107" data-name="Grupo 1105107" transform="translate(-583.317 -143.515)">
        <path id="Trazado_897095" data-name="Trazado 897095" d="M595.927,199.874q0-1.192,0-2.385c.963-.252.885-1.021.885-1.761q0-19.14,0-38.28c0-2.045.416-2.462,2.446-2.462q16.944,0,33.889,0c.364,0,.728.029,1.092.045a2.525,2.525,0,0,1,.167,2.532,3.232,3.232,0,0,0-1.514-.411q-15.849.012-31.7.01a2.025,2.025,0,0,0-2.242,2.209c-.008.4,0,.8,0,1.2.005,1.823.7,2.52,2.539,2.52q15.55,0,31.1.008a3.477,3.477,0,0,0,1.813-.414c.519.835.129,1.755.246,2.628l-16.247-.045c-.066,0-.133.006-.2.01a.83.83,0,0,0-.822.841.861.861,0,0,0,.71.949,3.971,3.971,0,0,0,.893.042c4.287,0,8.573.008,12.86,0a15.1,15.1,0,0,0,2.784-.079q.007,1.156.014,2.311c-5.316-.018-10.632-.03-15.948-.063-.676,0-1.277.134-1.305.88-.031.814.589.987,1.305.985,3.755-.013,7.51,0,11.265-.009,1.56,0,3.121-.043,4.681-.066l-.011,2.308c-.363-.027-.726-.077-1.089-.077q-7.281-.008-14.561,0l-.6,0a.909.909,0,0,0-1,.9c-.031.621.382.956,1.015.971.266.006.532.005.8.005,3.69,0,7.38.012,11.071-.006a39.089,39.089,0,0,0,4.383-.074q0,14.583.006,29.165a9.848,9.848,0,0,1-.207,2.76c-.132.013-.264.037-.4.037q-17.69,0-35.38,0c-1.265,0-1.816-.537-1.85-1.816-.034-1.295-.027-2.592,0-3.887C596.83,200.646,596.655,200.1,595.927,199.874Zm21.07,5a11.124,11.124,0,1,0-11.09-11.181A11.146,11.146,0,0,0,617,204.879ZM604.1,179.232c.963,0,1.926.019,2.888-.005a2.086,2.086,0,0,0,2.218-1.5c.262-1.923.416-3.957-1.128-5.431-.913-.871-1.284-1.551-.531-2.632a1.256,1.256,0,0,0,.115-.58,3.525,3.525,0,1,0-6.574,1.43c.14.263.6.487.06.875-1.873,1.34-2.328,3.273-2.212,5.445a2.286,2.286,0,0,0,2.375,2.391C602.244,179.256,603.174,179.232,604.1,179.232Zm10.18-6.929c0-1.96-.006-3.919,0-5.879,0-.647-.185-1.135-.922-1.145-.756-.01-.93.507-.93,1.138q0,5.779,0,11.559c0,.683.207,1.247.972,1.211.679-.031.9-.547.888-1.2C614.271,176.089,614.284,174.2,614.284,172.3Zm7.981,6.93h3.69c.687,0,1.233-.269,1.2-1.013-.029-.666-.541-.923-1.2-.921q-3.69.013-7.38,0c-.661,0-1.17.266-1.2.919-.035.73.5,1.019,1.2,1.018Q620.42,179.229,622.265,179.232Z" transform="translate(-4.039 -7.423)" fill="#eaf3fb"/>
        <path id="Trazado_897096" data-name="Trazado 897096" d="M591.888,192.451c.728.231.9.772.89,1.473-.026,1.3-.032,2.592,0,3.887.034,1.279.585,1.815,1.85,1.816q17.69.008,35.38,0c.132,0,.264-.024.4-.037,2.426.184,2.8-.167,2.8-2.593q0-22.842,0-45.683c0-.665.011-1.33,0-1.995a1.588,1.588,0,0,0-1.62-1.753,12.579,12.579,0,0,0-1.389.043c-.364-.016-.728-.045-1.092-.045q-16.944,0-33.889,0c-2.03,0-2.446.418-2.446,2.462q0,19.14,0,38.28c0,.739.078,1.509-.885,1.761-.763-.132-1-.605-1-1.349q.018-19.745.016-39.489a3.435,3.435,0,0,1,3.741-3.511q15.056-.011,30.111,0c2.194,0,4.387-.008,6.581,0a3.419,3.419,0,0,1,3.75,3.3c.062.632.273.7.822.756a3.383,3.383,0,0,1,3.221,3.316c.041.579.232.67.746.723a3.39,3.39,0,0,1,3.288,3.646q.008,20.243.019,40.486a1.3,1.3,0,0,1-1,1.467c-.934-.274-.886-1.025-.886-1.775q.006-19.734,0-39.467a10.14,10.14,0,0,0-.087-1.288,1.363,1.363,0,0,0-.909-1.1c-.816-.345-1.145-.13-1.147.742,0,1.894-.014,3.787,0,5.681.007.719-.191,1.24-.98,1.363-.791-.144-.956-.7-.954-1.4q.012-3.991,0-7.983a7.714,7.714,0,0,0-.043-1.294,1.4,1.4,0,0,0-1.556-1.236c-.931.039-.47.818-.471,1.223q-.042,22.2-.024,44.4c0,2.978-1.27,4.244-4.254,4.244H603.139c-1.862,0-3.726.031-5.587-.016-.69-.017-.778.273-.694.831.14.933.739,1.327,2.106,1.328q17.959,0,35.918,0c1.965,0,2.342-.372,2.343-2.311q0-16.016,0-32.031c0-.7,0-1.4,0-2.1a1.057,1.057,0,0,1,.951-1.191c.94.139.977.817.976,1.564q-.011,16.912-.005,33.824c0,2.82-1.321,4.13-4.162,4.13q-16.561,0-33.121.011c-.328,0-.812-.225-.968.205a1.358,1.358,0,0,0,.275,1.313,1.8,1.8,0,0,0,1.5.651c1.031.007,2.062,0,3.093,0q16.66,0,33.321,0c1.693,0,2.2-.511,2.215-2.206.007-.8.018-1.6,0-2.394a1.191,1.191,0,0,1,.891-1.365,1.157,1.157,0,0,1,.988,1.368c-.036,1,.006,1.994-.014,2.99a3.422,3.422,0,0,1-3.4,3.441c-1.328.038-2.658.012-3.987.012q-16.347,0-32.694,0c-2.642,0-3.715-.906-4.124-3.546-.062-.4-.2-.445-.546-.488-2.238-.279-3.253-1.283-3.481-3.482-.045-.439-.186-.511-.584-.563-2.385-.308-3.438-1.522-3.444-3.9,0-1.229.038-2.461-.014-3.688A1.226,1.226,0,0,1,591.888,192.451Z" transform="translate(0 0)" fill="#090a0b"/>
        <path id="Trazado_897097" data-name="Trazado 897097" d="M678.051,203.289c.789-.123.987-.644.98-1.363-.018-1.893-.009-3.787,0-5.681,0-.872.331-1.088,1.147-.742a1.363,1.363,0,0,1,.909,1.1,10.152,10.152,0,0,1,.088,1.288q.007,19.733,0,39.467c0,.75-.048,1.5.886,1.775q0,1.184,0,2.368a1.191,1.191,0,0,0-.891,1.365c.02.8.01,1.6,0,2.394-.016,1.695-.522,2.205-2.215,2.206q-16.66,0-33.321,0c-1.031,0-2.062,0-3.093,0a1.8,1.8,0,0,1-1.5-.651,1.358,1.358,0,0,1-.275-1.313c.156-.43.64-.2.968-.205q16.561-.019,33.121-.011c2.841,0,4.161-1.31,4.162-4.13q0-16.912.005-33.824c0-.747-.036-1.425-.976-1.564Q678.052,204.526,678.051,203.289Z" transform="translate(-39.874 -39.723)" fill="#d1e1dd"/>
        <path id="Trazado_897098" data-name="Trazado 897098" d="M646.495,171.373a3.478,3.478,0,0,1-1.813.414q-15.55-.014-31.1-.008c-1.839,0-2.534-.7-2.539-2.52,0-.4-.006-.8,0-1.2a2.025,2.025,0,0,1,2.242-2.209q15.849-.012,31.7-.01a3.232,3.232,0,0,1,1.514.411A4.749,4.749,0,0,1,646.495,171.373Zm-17.318-1.494v-.015c5.053,0,10.105-.016,15.158.017.777.005,1.053-.19,1-.989-.046-.662.061-1.155-.939-1.152q-15.258.053-30.516-.016c-1.022,0-.873.526-.915,1.16-.049.738.123,1.024.956,1.017C619,169.858,624.091,169.88,629.177,169.88Z" transform="translate(-16.134 -16.112)" fill="#090a0b"/>
        <path id="Trazado_897099" data-name="Trazado 897099" d="M787.94,162.659a4.749,4.749,0,0,0,0-5.119,2.525,2.525,0,0,0-.167-2.532,12.587,12.587,0,0,1,1.389-.043,1.588,1.588,0,0,1,1.62,1.753c.014.665,0,1.33,0,1.995q0,22.841,0,45.683c0,2.426-.379,2.776-2.8,2.593a9.848,9.848,0,0,0,.207-2.76q0-14.582-.006-29.165a1.05,1.05,0,0,0-.019-1.716q.005-1.154.011-2.308a1.067,1.067,0,0,0,0-1.728q-.007-1.156-.014-2.311a1.044,1.044,0,0,0,.022-1.714C788.069,164.414,788.459,163.494,787.94,162.659Z" transform="translate(-157.579 -7.398)" fill="#bcd7fb"/>
        <path id="Trazado_897100" data-name="Trazado 897100" d="M657,315.676a11.124,11.124,0,0,1,.034-22.247A11.124,11.124,0,1,1,657,315.676Zm9.257-11.1a9.2,9.2,0,0,0-9.206-9.273,9.259,9.259,0,1,0,9.206,9.273Z" transform="translate(-44.04 -118.22)" fill="#090a0b"/>
        <path id="Trazado_897101" data-name="Trazado 897101" d="M616.117,220.347c-.93,0-1.86.024-2.789-.005a2.286,2.286,0,0,1-2.375-2.391c-.116-2.173.339-4.105,2.212-5.445.542-.388.08-.612-.06-.875a3.526,3.526,0,1,1,6.574-1.43,1.257,1.257,0,0,1-.115.58c-.753,1.081-.382,1.761.531,2.632,1.544,1.473,1.39,3.508,1.128,5.431a2.086,2.086,0,0,1-2.218,1.5C618.043,220.366,617.079,220.347,616.117,220.347Zm2.248-2.038c.393.007.887.307,1.082-.309a3.578,3.578,0,0,0-2.269-4.266,1.323,1.323,0,0,0-.926-.283,3.571,3.571,0,0,0-3.3,4.633c.112.3.319.294.547.291Q615.929,218.346,618.364,218.309Zm-.583-8.426a1.609,1.609,0,1,0-3.218-.019,1.609,1.609,0,0,0,3.218.019Z" transform="translate(-16.051 -48.537)" fill="#090a0b"/>
        <path id="Trazado_897102" data-name="Trazado 897102" d="M720.594,246.737a1.05,1.05,0,0,1,.019,1.716,39.09,39.09,0,0,1-4.383.074c-3.69.018-7.38.006-11.071.006-.266,0-.532,0-.8-.005-.633-.015-1.046-.35-1.015-.971a.909.909,0,0,1,1-.9l.6,0q7.281,0,14.561,0C719.868,246.66,720.231,246.71,720.594,246.737Z" transform="translate(-90.007 -80.787)" fill="#090a0b"/>
        <path id="Trazado_897103" data-name="Trazado 897103" d="M720.6,206.519a1.044,1.044,0,0,1-.022,1.714,15.117,15.117,0,0,1-2.784.079c-4.287.012-8.573.006-12.86,0a3.969,3.969,0,0,1-.893-.042.861.861,0,0,1-.71-.949.83.83,0,0,1,.822-.841c.066,0,.133-.01.2-.01Z" transform="translate(-89.997 -48.629)" fill="#090a0b"/>
        <path id="Trazado_897104" data-name="Trazado 897104" d="M720.635,226.6a1.067,1.067,0,0,1,0,1.728c-1.56.023-3.121.062-4.681.066-3.755.01-7.51,0-11.265.009-.716,0-1.336-.171-1.306-.985.028-.747.63-.885,1.306-.88C710,226.572,715.319,226.583,720.635,226.6Z" transform="translate(-90.036 -64.687)" fill="#090a0b"/>
        <path id="Trazado_897105" data-name="Trazado 897105" d="M680.432,213.553c0,1.893-.013,3.787.007,5.68.007.658-.209,1.173-.888,1.2-.766.035-.974-.528-.972-1.211q.01-5.779,0-11.559c0-.631.174-1.148.93-1.138.737.01.925.5.922,1.145C680.426,209.634,680.432,211.593,680.432,213.553Z" transform="translate(-70.187 -48.673)" fill="#090a0b"/>
        <path id="Trazado_897106" data-name="Trazado 897106" d="M708.237,268.649q-1.845,0-3.69,0c-.694,0-1.231-.288-1.2-1.018.031-.652.539-.922,1.2-.919q3.69.018,7.38,0c.654,0,1.166.255,1.2.921.033.744-.513,1.012-1.2,1.013Z" transform="translate(-90.011 -96.84)" fill="#090a0b"/>
        <path id="Trazado_897107" data-name="Trazado 897107" d="M662.034,187.372q0,1.238,0,2.476a1.057,1.057,0,0,0-.951,1.191c-.006.7,0,1.4,0,2.1q0,16.015,0,32.031c0,1.939-.378,2.311-2.342,2.311q-17.959,0-35.918,0c-1.367,0-1.966-.395-2.106-1.328-.084-.559,0-.848.694-.831,1.861.047,3.724.016,5.587.016h27.736c2.984,0,4.254-1.266,4.254-4.244q0-22.2.024-44.4c0-.405-.46-1.184.471-1.223a1.4,1.4,0,0,1,1.556,1.236,7.714,7.714,0,0,1,.043,1.294q0,3.991,0,7.983C661.077,186.672,661.242,187.228,662.034,187.372Z" transform="translate(-23.857 -23.807)" fill="#bcd7fb"/>
        <path id="Trazado_897108" data-name="Trazado 897108" d="M636.855,177.42c-5.086,0-10.172-.022-15.258.021-.833.007-1.005-.278-.956-1.017.042-.634-.107-1.164.915-1.16q15.257.07,30.516.016c1,0,.893.49.939,1.152.056.8-.221.995-1,.989-5.053-.034-10.105-.017-15.158-.017Z" transform="translate(-23.812 -23.652)" fill="#efb499"/>
        <path id="Trazado_897109" data-name="Trazado 897109" d="M673.673,312.07a9.227,9.227,0,0,1-9.244,9.244,9.259,9.259,0,1,1,.038-18.517A9.2,9.2,0,0,1,673.673,312.07Zm-15.983.022a2.465,2.465,0,0,0,.69,1.924c1.025,1.087,2.065,2.166,3.171,3.168a2.743,2.743,0,0,0,3.812.022q2.654-2.484,5.146-5.14a2.8,2.8,0,0,0-.188-4.03,2.851,2.851,0,0,0-4.039-.018,19.029,19.029,0,0,0-1.831,1.831c-.636.765-1.09.991-1.889.1a2.558,2.558,0,0,0-3.124-.52A2.824,2.824,0,0,0,657.691,312.092Z" transform="translate(-51.458 -125.717)" fill="#ffb937"/>
        <path id="Trazado_897110" data-name="Trazado 897110" d="M625.671,246.727q-2.435.034-4.87.066c-.228,0-.435.01-.547-.291a3.571,3.571,0,0,1,3.3-4.633,1.323,1.323,0,0,1,.925.282A7.15,7.15,0,0,1,625.671,246.727Z" transform="translate(-23.358 -76.956)" fill="#7d3a1b"/>
        <path id="Trazado_897111" data-name="Trazado 897111" d="M632.317,217.479a1.609,1.609,0,0,1-3.218-.019,1.609,1.609,0,1,1,3.218.019Z" transform="translate(-30.588 -56.134)" fill="#f5f5f5"/>
        <path id="Trazado_897112" data-name="Trazado 897112" d="M643.375,247.863a7.15,7.15,0,0,0-1.188-4.575,3.579,3.579,0,0,1,2.269,4.267C644.262,248.17,643.768,247.87,643.375,247.863Z" transform="translate(-41.062 -78.092)" fill="#4d1f0a"/>
        <path id="Trazado_897113" data-name="Trazado 897113" d="M667.731,329.688a2.824,2.824,0,0,1,1.749-2.663,2.558,2.558,0,0,1,3.124.52c.8.891,1.253.664,1.889-.1a19.037,19.037,0,0,1,1.831-1.831,2.851,2.851,0,0,1,4.039.018,2.8,2.8,0,0,1,.188,4.03q-2.485,2.654-5.146,5.14a2.743,2.743,0,0,1-3.812-.022c-1.107-1-2.147-2.081-3.171-3.168A2.466,2.466,0,0,1,667.731,329.688Zm2.927-1.019a1.035,1.035,0,0,0-.95.6,1.048,1.048,0,0,0,.268,1.264c.836.851,1.676,1.7,2.529,2.532.781.764,1.254.771,2.023.011,1.462-1.444,2.9-2.907,4.361-4.355.545-.541.751-1.152.155-1.722-.546-.522-1.139-.352-1.655.174-.9.923-1.824,1.83-2.74,2.741-.991.986-1.264.983-2.266-.013-.282-.28-.57-.555-.841-.845A1.247,1.247,0,0,0,670.659,328.669Z" transform="translate(-61.499 -143.313)" fill="#090a0b"/>
        <path id="Trazado_897114" data-name="Trazado 897114" d="M678.175,336.292a1.247,1.247,0,0,1,.883.389c.271.29.559.565.841.845,1,1,1.275,1,2.266.013.916-.911,1.836-1.818,2.74-2.741.516-.526,1.109-.7,1.655-.174.6.57.39,1.181-.155,1.722-1.458,1.448-2.9,2.911-4.361,4.355-.769.76-1.241.753-2.023-.011-.853-.834-1.693-1.681-2.529-2.532a1.048,1.048,0,0,1-.268-1.264A1.034,1.034,0,0,1,678.175,336.292Z" transform="translate(-69.016 -150.937)" fill="#eaf3fb"/>
      </g>
    </g>
  </g>
</svg>
