<svg xmlns="http://www.w3.org/2000/svg" xmlns:xlink="http://www.w3.org/1999/xlink" width="121" height="121" viewBox="0 0 121 121">
  <defs>
    <clipPath id="clip-path">
      <rect id="Rectángulo_400938" data-name="Rectángulo 400938" width="121" height="121" transform="translate(0 0)" fill="none"/>
    </clipPath>
    <clipPath id="clip-path-2">
      <rect id="Rectángulo_401073" data-name="Rectángulo 401073" width="92.219" height="41.532" fill="#efb499"/>
    </clipPath>
  </defs>
  <g id="Grupo_1119992" data-name="Grupo 1119992" transform="translate(-5746.496 1699.774)">
    <g id="Grupo_1118307" data-name="Grupo 1118307" transform="translate(5358.828 -7712.774)">
      <rect id="Rectángulo_401103" data-name="Rectángulo 401103" width="121" height="121" transform="translate(387.668 6013)" fill="none"/>
      <g id="Grupo_1099348" data-name="Grupo 1099348" transform="translate(387.668 6013)">
        <g id="Grupo_1099282" data-name="Grupo 1099282">
          <g id="Grupo_1099281" data-name="Grupo 1099281" clip-path="url(#clip-path-2)">
            <path id="Trazado_873375" data-name="Trazado 873375" d="M74.8,9.1c-4.139,0-6.28-2.03-8.17-3.821-1.855-1.756-3.452-3.274-6.792-3.274s-4.937,1.517-6.792,3.274C51.161,7.072,49.023,9.1,44.881,9.1s-6.28-2.03-8.169-3.821C34.857,3.525,33.26,2.007,29.92,2.007s-4.937,1.517-6.789,3.274C21.241,7.072,19.1,9.1,14.962,9.1S8.679,7.072,6.789,5.281C4.937,3.525,3.34,2.007,0,2.007V0C4.139,0,6.28,2.033,8.17,3.821c1.855,1.759,3.452,3.274,6.792,3.274S19.9,5.58,21.75,3.824C23.637,2.033,25.781,0,29.92,0s6.283,2.033,8.17,3.821c1.855,1.759,3.452,3.274,6.792,3.274s4.937-1.514,6.792-3.274C53.56,2.033,55.7,0,59.843,0s6.283,2.033,8.17,3.821C69.867,5.58,71.464,7.094,74.8,7.094S79.742,5.58,81.6,3.821C83.483,2.033,85.624,0,89.766,0V2.007c-3.34,0-4.937,1.517-6.792,3.274C81.084,7.072,78.943,9.1,74.8,9.1" transform="translate(2.453 32.43)" fill="#efb499"/>
            <path id="Trazado_873376" data-name="Trazado 873376" d="M74.8,9.1c-4.139,0-6.283-2.03-8.17-3.824-1.855-1.756-3.452-3.27-6.792-3.27s-4.937,1.514-6.792,3.27C51.164,7.072,49.023,9.1,44.881,9.1s-6.283-2.03-8.17-3.824c-1.855-1.756-3.452-3.27-6.792-3.27s-4.937,1.517-6.789,3.27C21.241,7.072,19.1,9.1,14.962,9.1S8.679,7.072,6.789,5.278C4.937,3.522,3.34,2.007,0,2.007V0C4.139,0,6.283,2.03,8.17,3.821c1.855,1.759,3.452,3.274,6.792,3.274S19.9,5.58,21.75,3.821C23.637,2.03,25.781,0,29.92,0S36.2,2.03,38.093,3.821c1.852,1.759,3.449,3.274,6.789,3.274s4.937-1.514,6.792-3.274C53.56,2.03,55.7,0,59.843,0s6.283,2.03,8.17,3.821C69.867,5.58,71.464,7.094,74.8,7.094S79.742,5.58,81.6,3.821C83.486,2.03,85.627,0,89.769,0V2.007c-3.34,0-4.94,1.517-6.8,3.27C81.084,7.072,78.943,9.1,74.8,9.1" transform="translate(1.635 21.62)" fill="#efb499"/>
            <path id="Trazado_873377" data-name="Trazado 873377" d="M74.8,9.1c-4.139,0-6.283-2.03-8.169-3.824-1.855-1.756-3.452-3.27-6.792-3.27s-4.937,1.514-6.792,3.27C51.164,7.072,49.02,9.1,44.881,9.1s-6.283-2.03-8.17-3.824c-1.855-1.756-3.452-3.27-6.792-3.27s-4.937,1.517-6.789,3.27C21.241,7.072,19.1,9.1,14.962,9.1S8.678,7.072,6.789,5.278C4.937,3.522,3.34,2.007,0,2.007V0C4.139,0,6.283,2.03,8.169,3.821c1.851,1.759,3.452,3.274,6.792,3.274S19.9,5.58,21.75,3.821C23.637,2.03,25.781,0,29.92,0S36.2,2.03,38.093,3.821c1.852,1.759,3.449,3.274,6.789,3.274s4.937-1.514,6.792-3.274C53.56,2.03,55.7,0,59.843,0s6.283,2.03,8.17,3.821C69.867,5.58,71.464,7.094,74.8,7.094S79.742,5.58,81.6,3.821C83.486,2.03,85.624,0,89.769,0V2.007c-3.34,0-4.941,1.517-6.8,3.27C81.084,7.072,78.943,9.1,74.8,9.1" transform="translate(0.818 10.81)" fill="#efb499"/>
            <path id="Trazado_873378" data-name="Trazado 873378" d="M74.8,9.1c-4.139,0-6.28-2.03-8.17-3.821-1.855-1.756-3.452-3.27-6.792-3.27s-4.937,1.514-6.789,3.27C51.164,7.069,49.023,9.1,44.881,9.1s-6.28-2.03-8.169-3.821c-1.855-1.756-3.452-3.27-6.792-3.27s-4.937,1.514-6.789,3.267C21.245,7.069,19.1,9.1,14.962,9.1S8.678,7.069,6.789,5.278C4.937,3.522,3.34,2.007,0,2.007V0C4.139,0,6.283,2.03,8.17,3.821c1.855,1.756,3.452,3.27,6.792,3.27S19.9,5.577,21.75,3.821C23.64,2.03,25.781,0,29.92,0s6.28,2.03,8.173,3.821c1.852,1.756,3.449,3.27,6.789,3.27s4.937-1.514,6.792-3.27C53.563,2.03,55.7,0,59.843,0s6.28,2.03,8.17,3.821c1.855,1.756,3.452,3.27,6.792,3.27s4.937-1.514,6.792-3.27C83.486,2.03,85.627,0,89.769,0V2.007c-3.344,0-4.941,1.514-6.8,3.27C81.084,7.069,78.943,9.1,74.8,9.1" transform="translate(0 0.003)" fill="#efb499"/>
          </g>
        </g>
      </g>
      <circle id="Elipse_11504" data-name="Elipse 11504" cx="50.5" cy="50.5" r="50.5" transform="translate(402.668 6031)" fill="#ffce73"/>
      <circle id="Elipse_11503" data-name="Elipse 11503" cx="52.5" cy="52.5" r="52.5" transform="translate(395.668 6021)" fill="#f3f9ff"/>
    </g>
    <g id="Grupo_1118308" data-name="Grupo 1118308" transform="translate(5772.438 -1673.971)">
      <rect id="Rectángulo_401104" data-name="Rectángulo 401104" width="68" height="69" transform="translate(-0.438 -0.804)" fill="none"/>
      <g id="Grupo_1119749" data-name="Grupo 1119749" transform="translate(-80.691 435.766)">
        <path id="Trazado_906681" data-name="Trazado 906681" d="M85.481-312.472c-1.209.063-1.841-.428-2-1.4-.281-1.677-.5-3.364-.731-5.049a1.525,1.525,0,0,1,1.293-1.885c.815-.146.765-.518.661-1.135a25.654,25.654,0,0,0-2.226-5.936,15.816,15.816,0,0,1-1.186-8.468,6.431,6.431,0,0,1,1.943-3.923c1-.972.931-1.769.066-2.774a29.369,29.369,0,0,1-2.067-2.911,4.931,4.931,0,0,1,1.239-7.082c5.3-3.773,10.64-7.491,15.955-11.244a1.247,1.247,0,0,1,2.034.349c.979,1.443,2.014,2.848,2.988,4.294a.967.967,0,0,0,1.328.481,5.457,5.457,0,0,1,6.1,2.072,5.318,5.318,0,0,1-.114,6.418,1.06,1.06,0,0,0,.048,1.521c.991,1.33,1.9,2.723,2.889,4.051.672.9.633,1.566-.342,2.221-1.8,1.21-3.566,2.471-5.328,3.736a1.358,1.358,0,0,1-2.093-.215,3.31,3.31,0,0,0-4.585-.559,3.366,3.366,0,0,0-.936,4.534,1.258,1.258,0,0,1-.494,1.926c-.036.022-.068.053-.105.072-1.7.835-2.67,1.9-1.979,4.039.384,1.19-.234,2.506-.563,3.737a4.178,4.178,0,0,0-.246,1.488c.074.837.065,1.556,1.309,1.38.755-.107,1.218.536,1.342,1.281.271,1.635.533,3.273.754,4.915a1.624,1.624,0,0,1-1.52,2.069q-5.805.845-11.608,1.708C86.628-312.658,85.958-312.547,85.481-312.472Z" transform="translate(0 -55.104)"/>
        <path id="Trazado_906682" data-name="Trazado 906682" d="M224.45-396.864c3.063,0,6.13-.1,9.188.026,3.866.161,6.184,2.785,6.126,6.687-.035,2.406-.044,2.432,2.182,3.188,3.13,1.063,4.582,3.655,5.788,6.407,1.084,2.474,1.166,5.208,1.734,7.818a9.646,9.646,0,0,0,.482,1.574c.266.661.461,1.212,1.429.742a1.4,1.4,0,0,1,1.9.829c.757,1.566,1.474,3.151,2.179,4.74a1.482,1.482,0,0,1-.8,2.126q-6.283,2.942-12.6,5.812a1.5,1.5,0,0,1-2.137-.792c-.764-1.563-1.476-3.151-2.192-4.737a1.457,1.457,0,0,1,.726-2.05c.612-.309.565-.583.326-1.071a3.892,3.892,0,0,0-1.027-1.424,7.167,7.167,0,0,1-2.294-2.367c-.755-1.7-2.182-1.411-3.52-1.541-.461-.045-.532.255-.681.58-1.21,2.636-2.973,3.858-5.517,3.674a5.132,5.132,0,0,1-4.9-3.951c-.166-.564-.493-.687-1.026-.7-1.83-.037-3.659-.151-5.489-.172-1.1-.013-1.53-.491-1.472-1.572.11-2.041.228-4.084.226-6.126,0-1.3.407-1.923,1.8-1.993a3.235,3.235,0,0,0,2.915-2.626,3.518,3.518,0,0,0-1.515-3.661,4.006,4.006,0,0,0-1.808-.57,1.018,1.018,0,0,1-1.022-1.192c.081-2.426.159-4.852.259-7.277.037-.9.651-1.066,1.421-1.062,3.107.015,6.215.006,9.322.006Z" transform="translate(-98.673 -30.629)"/>
        <path id="Trazado_906683" data-name="Trazado 906683" d="M153.5-435.278c-.432-.778-.782-1.311-1.033-1.887a1,1,0,0,1,.432-1.426.944.944,0,0,1,1.305.449c.788,1.36,1.583,2.716,2.358,4.084.383.677.038,1.143-.533,1.478-1.247.73-2.51,1.433-3.76,2.158-.6.345-1.172.395-1.536-.26a1.039,1.039,0,0,1,.522-1.5c.509-.3,1.024-.588,1.819-1.043a11.826,11.826,0,0,0-4.821-.25,18.657,18.657,0,0,0-14.987,10.338c-.262.5-.5,1.024-1.161,1.037-.84.017-1.184-.836-.7-1.827a20.225,20.225,0,0,1,10.845-10.116A19.88,19.88,0,0,1,153.5-435.278Z" transform="translate(-37.904 0)"/>
        <path id="Trazado_906684" data-name="Trazado 906684" d="M95.316-330.111c-2.221-3.162-4.338-6.136-6.411-9.14a2.938,2.938,0,0,1,.8-4.528c4.832-3.418,9.693-6.794,14.516-10.226.67-.477.977-.366,1.4.269.914,1.386,1.911,2.716,2.847,4.088.532.78,1.061,1.064,2.011.529a3.375,3.375,0,0,1,4.632.94,3.347,3.347,0,0,1-.717,4.675,1.243,1.243,0,0,0-.235,1.963c1.025,1.413,1.991,2.869,3.026,4.274.393.533.38.867-.2,1.209a11.937,11.937,0,0,0-1.365.944c-1.366,1.082-2.51,1.966-4.483.659-1.807-1.2-3.911-.443-5.535.97a5.317,5.317,0,0,0-1.662,5.455c.09.425.407.8-.142,1.232-1.077.852-1.272.824-1.552-.538-.334-1.624-.65-3.252-.977-4.878a3.119,3.119,0,0,0-3.321-2.7c-1.742.2-2.705,1.464-2.625,3.434C95.33-331.1,95.316-330.719,95.316-330.111Z" transform="translate(-5.895 -62.809)" fill="#7d3a1b"/>
        <path id="Trazado_906685" data-name="Trazado 906685" d="M93.916-269.669c1.512,2.155,3,4.279,4.495,6.4.369.524.737,1.154,1.521.814s.675-1.016.553-1.744c-.282-1.677-.466-3.37-.684-5.058-.071-.552.013-1.066.652-1.195a.931.931,0,0,1,1.2.841,95.268,95.268,0,0,0,2.438,9.888,5.685,5.685,0,0,1-.278,3.021,6.44,6.44,0,0,0-.385,3.616c.2.646-.2.809-.726.879-2.233.3-4.467.6-6.7.93-.5.074-.815.054-.891-.534-.346-2.707-1.764-5.033-2.724-7.519a13.6,13.6,0,0,1-.9-4.218A6.753,6.753,0,0,1,93.916-269.669Z" transform="translate(-8.346 -125.186)" fill="#f5beab"/>
        <path id="Trazado_906686" data-name="Trazado 906686" d="M111.017-192.761c.421-.1.611.22.643.724.019.3.034.595.071.89.107.868.7,1.988.184,2.529-.489.511-1.665.374-2.541.5-3.107.462-6.218.895-9.319,1.39-.673.107-.939-.043-.973-.719-.028-.549-.137-1.094-.207-1.641-.246-1.921-.242-1.9,1.777-2.181,3.153-.438,6.3-.91,9.451-1.367C110.355-192.669,110.607-192.7,111.017-192.761Z" transform="translate(-13.776 -183.009)" fill="#ffb937"/>
        <path id="Trazado_906687" data-name="Trazado 906687" d="M243.321-375.885c-.156-.294-.314-.587-.467-.883-.871-1.695-2.338-2.333-3.881-1.688a3.072,3.072,0,0,0-1.611,4.16c.7,1.958,1.658,3.822,2.212,5.838.045.163.085.33.144.488.349.926.109,1.333-.936,1.133a14.605,14.605,0,0,0-1.526-.133,1.373,1.373,0,0,0-1.717,1.367,3.339,3.339,0,0,1-3.593,2.93,3.337,3.337,0,0,1-3.208-3.2c-.068-1.046-.524-1.4-1.519-1.421-1.745-.032-3.488-.2-5.232-.211-.819-.006-1.041-.308-.959-1.055a8.935,8.935,0,0,0,.028-1.532c-.107-1.693-.016-2.98,2.079-3.739s2.982-2.831,2.8-5.132a5.088,5.088,0,0,0-3.421-4.659,1.19,1.19,0,0,1-.938-1.465c.12-1.228.178-2.464.216-3.7.017-.543.2-.743.757-.72,5.914.246,11.831.426,17.742.733a3.974,3.974,0,0,1,3.522,4.051c.032,2.929.008,5.858.008,8.787Z" transform="translate(-104.749 -36.608)" fill="#ffe7ba"/>
        <path id="Trazado_906688" data-name="Trazado 906688" d="M291.847-346.149c.007-.622.213-1.006.757-1.132a.918.918,0,0,1,1.108.629q1.1,2.368,2.189,4.742c.273.6.534,1.235,1.358,1.066s.8-.85.825-1.51c.079-2.34.212-4.678.259-7.019.016-.8.216-.874.962-.662,3.614,1.028,4.937,3.976,5.858,7.121.818,2.8.719,5.824,2.027,8.515.226.465-.079.607-.4.754-2.12.98-4.25,1.938-6.357,2.944-.606.289-.891.045-1.048-.467a4.912,4.912,0,0,0-1.844-2.369,8.206,8.206,0,0,1-3.01-5.032,37.817,37.817,0,0,0-2.236-6.351C292.13-345.354,291.976-345.795,291.847-346.149Z" transform="translate(-157.463 -65.908)" fill="#f5beab"/>
        <path id="Trazado_906689" data-name="Trazado 906689" d="M320.924-273.5c-.359.05-.407-.229-.534-.442-1.921-3.222-1.92-3.233,1.4-4.775,2.617-1.214,5.248-2.4,7.849-3.647.754-.361,1.2-.4,1.51.523.337,1,1.317,2.075,1.106,2.878-.224.851-1.73,1.012-2.678,1.463-2.645,1.256-5.317,2.456-7.978,3.679C321.373-273.711,321.144-273.6,320.924-273.5Z" transform="translate(-177.736 -116.168)" fill="#ffb937"/>
      </g>
    </g>
  </g>
</svg>
