<svg xmlns="http://www.w3.org/2000/svg" xmlns:xlink="http://www.w3.org/1999/xlink" width="139" height="139" viewBox="0 0 139 139">
  <defs>
    <clipPath id="clip-path">
      <rect id="Rectángulo_400938" data-name="Rectángulo 400938" width="139" height="139" transform="translate(-0.043 -0.043)" fill="none"/>
    </clipPath>
    <clipPath id="clip-path-2">
      <rect id="Rectángulo_401073" data-name="Rectángulo 401073" width="105.872" height="47.68" fill="#7d3a1b"/>
    </clipPath>
  </defs>
  <g id="Grupo_1103895" data-name="Grupo 1103895" transform="translate(-731 -4198.881)">
    <g id="Grupo_1099574" data-name="Grupo 1099574" transform="translate(466.043 -1085.076)">
      <g id="Grupo_1099379" data-name="Grupo 1099379" transform="translate(265 5284)">
        <rect id="Rectángulo_401103" data-name="Rectángulo 401103" width="139" height="139" transform="translate(-0.043 -0.043)" fill="none"/>
        <g id="Grupo_1099348" data-name="Grupo 1099348" transform="translate(0)">
          <g id="Grupo_1099282" data-name="Grupo 1099282">
            <g id="Grupo_1099281" data-name="Grupo 1099281" clip-path="url(#clip-path-2)">
              <path id="Trazado_873375" data-name="Trazado 873375" d="M85.879,10.449c-4.752,0-7.21-2.33-9.379-4.386C74.371,4.047,72.538,2.3,68.7,2.3s-5.668,1.742-7.8,3.758c-2.17,2.056-4.624,4.386-9.379,4.386s-7.21-2.33-9.379-4.386C40.018,4.047,38.184,2.3,34.349,2.3s-5.668,1.742-7.794,3.758c-2.17,2.056-4.627,4.386-9.379,4.386S9.963,8.119,7.794,6.063C5.668,4.047,3.835,2.3,0,2.3V0C4.752,0,7.21,2.334,9.379,4.386c2.129,2.02,3.963,3.758,7.8,3.758s5.668-1.738,7.794-3.755C27.136,2.334,29.6,0,34.349,0s7.213,2.334,9.379,4.386c2.129,2.02,3.963,3.758,7.8,3.758s5.668-1.738,7.8-3.758C61.489,2.334,63.951,0,68.7,0s7.213,2.334,9.379,4.386c2.129,2.02,3.963,3.758,7.8,3.758s5.668-1.738,7.8-3.758C95.843,2.334,98.3,0,103.056,0V2.3c-3.835,0-5.668,1.742-7.8,3.758-2.169,2.056-4.627,4.386-9.379,4.386" transform="translate(2.816 37.231)" fill="#7d3a1b"/>
              <path id="Trazado_873376" data-name="Trazado 873376" d="M85.879,10.449c-4.752,0-7.213-2.33-9.379-4.39C74.371,4.043,72.538,2.3,68.7,2.3s-5.668,1.738-7.8,3.755c-2.166,2.06-4.624,4.39-9.379,4.39s-7.213-2.33-9.379-4.39C40.018,4.043,38.184,2.3,34.349,2.3s-5.668,1.742-7.794,3.755c-2.17,2.06-4.627,4.39-9.379,4.39s-7.213-2.33-9.383-4.39C5.668,4.043,3.835,2.3,0,2.3V0C4.752,0,7.213,2.33,9.379,4.386c2.129,2.02,3.963,3.758,7.8,3.758s5.668-1.738,7.794-3.758C27.136,2.33,29.6,0,34.349,0s7.213,2.33,9.383,4.386c2.126,2.02,3.959,3.758,7.794,3.758s5.668-1.738,7.8-3.758C61.489,2.33,63.951,0,68.7,0s7.213,2.33,9.379,4.386c2.129,2.02,3.963,3.758,7.8,3.758s5.668-1.738,7.8-3.758C95.846,2.33,98.3,0,103.059,0V2.3c-3.835,0-5.672,1.742-7.8,3.755-2.169,2.06-4.628,4.39-9.379,4.39" transform="translate(1.877 24.821)" fill="#7d3a1b"/>
              <path id="Trazado_873377" data-name="Trazado 873377" d="M85.879,10.449c-4.752,0-7.213-2.33-9.379-4.39C74.371,4.043,72.538,2.3,68.7,2.3s-5.668,1.738-7.8,3.755c-2.166,2.06-4.627,4.39-9.379,4.39s-7.213-2.33-9.379-4.39C40.018,4.043,38.184,2.3,34.349,2.3s-5.668,1.742-7.794,3.755c-2.169,2.06-4.627,4.39-9.379,4.39s-7.213-2.33-9.383-4.39C5.668,4.043,3.835,2.3,0,2.3V0C4.752,0,7.213,2.33,9.379,4.386c2.126,2.02,3.963,3.758,7.8,3.758s5.668-1.738,7.794-3.758C27.136,2.33,29.6,0,34.349,0s7.213,2.33,9.383,4.386c2.126,2.02,3.959,3.758,7.794,3.758s5.668-1.738,7.8-3.758C61.489,2.33,63.951,0,68.7,0s7.213,2.33,9.379,4.386c2.129,2.02,3.963,3.758,7.8,3.758s5.668-1.738,7.8-3.758C95.846,2.33,98.3,0,103.059,0V2.3c-3.835,0-5.672,1.742-7.8,3.755-2.169,2.06-4.627,4.39-9.379,4.39" transform="translate(0.939 12.41)" fill="#7d3a1b"/>
              <path id="Trazado_873378" data-name="Trazado 873378" d="M85.879,10.445c-4.752,0-7.21-2.33-9.379-4.386C74.371,4.043,72.538,2.3,68.7,2.3s-5.668,1.738-7.794,3.755c-2.169,2.056-4.627,4.386-9.383,4.386s-7.21-2.33-9.379-4.386C40.018,4.043,38.184,2.3,34.349,2.3s-5.668,1.738-7.794,3.751c-2.166,2.06-4.627,4.39-9.379,4.39S9.963,8.115,7.794,6.059C5.668,4.043,3.835,2.3,0,2.3V0C4.752,0,7.213,2.33,9.379,4.386c2.129,2.016,3.963,3.755,7.8,3.755S22.845,6.4,24.971,4.386C27.14,2.33,29.6,0,34.349,0s7.21,2.33,9.383,4.386c2.126,2.016,3.959,3.755,7.794,3.755s5.668-1.738,7.8-3.755C61.493,2.33,63.951,0,68.7,0s7.21,2.33,9.379,4.386c2.129,2.016,3.963,3.755,7.8,3.755s5.668-1.738,7.8-3.755C95.846,2.33,98.3,0,103.059,0V2.3c-3.839,0-5.672,1.738-7.8,3.755-2.169,2.056-4.627,4.386-9.379,4.386" transform="translate(0 0.004)" fill="#7d3a1b"/>
            </g>
          </g>
        </g>
        <path id="Trazado_873425" data-name="Trazado 873425" d="M57.977,0A57.977,57.977,0,1,1,0,57.977,57.977,57.977,0,0,1,57.977,0Z" transform="translate(17.221 20.665)" fill="#efb499"/>
        <circle id="Elipse_11503" data-name="Elipse 11503" cx="60.5" cy="60.5" r="60.5" transform="translate(8.957 8.957)" fill="#fff"/>
      </g>
    </g>
    <g id="Grupo_1099575" data-name="Grupo 1099575" transform="translate(413 -2195.119)">
      <g id="Grupo_1099389" data-name="Grupo 1099389" transform="translate(347.893 6422.863)">
        <rect id="Rectángulo_401104" data-name="Rectángulo 401104" width="78" height="79" transform="translate(0.107 0.256)" fill="none"/>
      </g>
      <g id="Grupo_1119754" data-name="Grupo 1119754" transform="translate(14.039 6626.941)">
        <path id="Trazado_906717" data-name="Trazado 906717" d="M368.973-177.822h8.235v-1.1q0-7.572,0-15.144c0-1.556.292-1.858,1.817-1.86,7.3-.006,14.6-.021,21.893.03a2.956,2.956,0,0,1,1.832.738q2.927,2.749,5.681,5.68a2.938,2.938,0,0,1,.738,1.827q.064,18.23.03,36.461c0,1.488-.326,1.794-1.884,1.8-7.3,0-14.6-.013-21.893.028a4.176,4.176,0,0,0-1.764.613c-1.912,1-3.77,2.1-5.709,3.045-.571.277-.9.459-.847,1.129.057.695.03,1.4.044,2.1.019.992-.11,1.968.938,2.689a2.354,2.354,0,0,1,.59,1.676c.11,3.726.16,7.453.205,11.18.025,2.06-.881,2.966-2.959,3.027-1.242.036-2.484.1-3.725.088a2.59,2.59,0,0,1-2.83-2.819c-.069-3.649-.125-7.3-.2-10.948a2.968,2.968,0,0,1,1.308-2.8,1.183,1.183,0,0,0,.462-.818,21.5,21.5,0,0,0-.043-3.14,1.227,1.227,0,0,0-.785-.83,17.773,17.773,0,0,1-7.616-3.566,3.063,3.063,0,0,0-1.754-.616c-7.22-.041-14.44-.026-21.66-.027-1.871,0-2.1-.225-2.1-2.043q0-18-.017-35.995a2.852,2.852,0,0,1,.924-2.256c1.874-1.8,3.661-3.7,5.552-5.481a2.791,2.791,0,0,1,1.721-.728c7.375-.048,14.751-.036,22.126-.027,1.361,0,1.684.349,1.685,1.756q.01,7.63,0,15.26Zm-12.348,14.255H354.8q-5.358,0-10.715,0c-.775,0-1.3-.323-1.314-1.14s.512-1.162,1.278-1.194c.271-.011.543,0,.815,0,3.533,0,7.068-.066,10.6.035,1.242.036,1.845-.276,2.217-1.5A27.991,27.991,0,0,1,359.35-171H345.014c-.388,0-.856.126-1.146-.045-.435-.258-1.031-.728-1.029-1.106s.585-.852,1.01-1.139c.243-.164.679-.05,1.028-.05,5.009,0,10.017-.02,15.025.014a3.7,3.7,0,0,0,2.731-.926,14.513,14.513,0,0,1,3.1-2.027,1.436,1.436,0,0,0,.908-1.521c-.03-4.854-.014-9.709-.018-14.563,0-.373-.044-.746-.07-1.142H345.8c0,1.628.011,3.176,0,4.725-.012,1.33-.329,1.64-1.659,1.649-1.578.01-3.155,0-4.761,0v35.321h20.157a25.721,25.721,0,0,1-1.606-3.162c-.353-1-.9-1.208-1.884-1.193-3.882.057-7.765.017-11.647.028-.857,0-1.64-.125-1.615-1.187.025-1.04.813-1.165,1.662-1.162,3.688.011,7.377,0,11.065,0h1.117Zm32.589-2.341h1.2q5.707,0,11.414,0c.818,0,1.541.174,1.57,1.138.032,1.055-.725,1.214-1.592,1.211-3.649-.013-7.3-.007-10.948,0-.405,0-.81.037-1.318.061v5.026h2c3.455,0,6.911-.028,10.365.034a2.228,2.228,0,0,1,1.4.757,1.167,1.167,0,0,1-.2,1.126,2.309,2.309,0,0,1-1.374.406c-4,.03-8,.007-12,.033-.37,0-.934.123-1.076.376-.711,1.267-1.312,2.6-1.967,3.937H406.8v-35.318c-1.6,0-3.148.006-4.691,0-1.418-.007-1.716-.3-1.726-1.7-.012-1.542,0-3.084,0-4.687H379.669a2.694,2.694,0,0,0-.108.5c-.007,5.2-.022,10.408.022,15.611,0,.338.4.762.724.993q1.839,1.317,3.761,2.518a3.08,3.08,0,0,0,1.445.526c2.134.057,4.27.024,6.405.024,3.3,0,6.6-.007,9.9.006,1.142,0,1.734.52,1.585,1.35-.161.9-.836.991-1.589.99q-6.872-.013-13.743,0H386.84Zm-30.322,4.363a14.206,14.206,0,0,0,14.142,14.264,14.209,14.209,0,0,0,14.255-14.152,14.2,14.2,0,0,0-14.143-14.259A14.191,14.191,0,0,0,358.891-161.545Zm17.471,35.286V-138.4c-1.376,0-2.573.045-3.764-.015-.882-.045-1.122.282-1.1,1.143.1,3.408.137,6.817.2,10.226a7.407,7.407,0,0,0,.1.786Zm-3-18.634v4.047h1.331v-4.128Zm-29.953-46.59-2.143,1.935h2.143Zm59.363,1.918h1.861l-1.861-2.21Z" fill="#6a4d23"/>
        <path id="Trazado_906718" data-name="Trazado 906718" d="M372.1-128.476q-4.249,0-8.5,0c-.83,0-1.651-.087-1.668-1.149s.791-1.194,1.628-1.194q8.555,0,17.111,0c.831,0,1.66.1,1.673,1.154s-.783,1.193-1.633,1.191C377.839-128.48,374.968-128.476,372.1-128.476Z" transform="translate(-19.155 -49.949)" fill="#6a4d23"/>
        <path id="Trazado_906719" data-name="Trazado 906719" d="M393.472-162.715q2.9,0,5.806,0c.789,0,1.563.143,1.591,1.117.029,1.04-.75,1.226-1.6,1.225q-5.806,0-11.612,0c-.782,0-1.542-.116-1.579-1.117-.039-1.088.764-1.215,1.588-1.221C389.6-162.724,391.537-162.715,393.472-162.715Z" transform="translate(-37.678 -25.478)" fill="#6a4d23"/>
        <path id="Trazado_906720" data-name="Trazado 906720" d="M544.792-128.478c-2.832,0-5.665,0-8.5,0-.836,0-1.671-.1-1.693-1.133-.024-1.122.858-1.223,1.731-1.213.272,0,.543,0,.815,0h15.831c.233,0,.466,0,.7.007.735.033,1.327.291,1.344,1.129.017.9-.584,1.2-1.381,1.2Q549.215-128.473,544.792-128.478Z" transform="translate(-151.612 -49.947)" fill="#6a4d23"/>
        <path id="Trazado_906721" data-name="Trazado 906721" d="M541.93-162.719c1.935,0,3.871-.008,5.806,0,.808,0,1.646.078,1.644,1.167s-.82,1.172-1.64,1.172q-5.748.006-11.5,0c-.838,0-1.652-.136-1.657-1.172s.822-1.173,1.653-1.173Q539.085-162.72,541.93-162.719Z" transform="translate(-151.602 -25.475)" fill="#6a4d23"/>
        <path id="Trazado_906722" data-name="Trazado 906722" d="M452.2-75.866a12.169,12.169,0,0,1-12.116-12.064,12.213,12.213,0,0,1,12.165-12.15A12.219,12.219,0,0,1,464.31-87.94,12.171,12.171,0,0,1,452.2-75.866Zm.04-2.34a9.838,9.838,0,0,0,9.73-9.831,9.878,9.878,0,0,0-9.761-9.7,9.872,9.872,0,0,0-9.787,9.794A9.832,9.832,0,0,0,452.241-78.206Z" transform="translate(-79.108 -73.527)" fill="#6a4d23"/>
      </g>
    </g>
  </g>
</svg>
