<svg xmlns="http://www.w3.org/2000/svg" xmlns:xlink="http://www.w3.org/1999/xlink" width="129" height="128" viewBox="0 0 129 128">
  <defs>
    <clipPath id="clip-path">
      <rect id="Rectángulo_400938" data-name="Rectángulo 400938" width="113" height="113" transform="translate(0.211 0.211)" fill="none"/>
    </clipPath>
    <clipPath id="clip-path-2">
      <rect id="Rectángulo_401073" data-name="Rectángulo 401073" width="86.443" height="38.93" fill="#7d3a1b"/>
    </clipPath>
  </defs>
  <g id="Grupo_1119999" data-name="Grupo 1119999" transform="translate(-375.777 -12183.226)">
    <g id="Grupo_108927" data-name="Grupo 108927" transform="translate(-14.223 7716.226)">
      <path id="Rectángulo_36179" data-name="Rectángulo 36179" d="M0,0H129V128H0Z" transform="translate(390 4467)" fill="#feebcf"/>
    </g>
    <g id="Grupo_1118329" data-name="Grupo 1118329" transform="translate(118.566 6907.015)">
      <g id="Grupo_1099379" data-name="Grupo 1099379" transform="translate(265 5284)">
        <rect id="Rectángulo_401103" data-name="Rectángulo 401103" width="113" height="113" transform="translate(0.211 0.211)" fill="none"/>
        <g id="Grupo_1099348" data-name="Grupo 1099348">
          <g id="Grupo_1099282" data-name="Grupo 1099282">
            <g id="Grupo_1099281" data-name="Grupo 1099281" clip-path="url(#clip-path-2)">
              <path id="Trazado_873375" data-name="Trazado 873375" d="M70.12,8.532c-3.88,0-5.887-1.9-7.658-3.581C60.723,3.3,59.226,1.882,56.1,1.882S51.467,3.3,49.728,4.95c-1.771,1.679-3.775,3.581-7.658,3.581s-5.886-1.9-7.658-3.581C32.674,3.3,31.177,1.882,28.046,1.882S23.418,3.3,21.682,4.95C19.911,6.629,17.9,8.532,14.024,8.532S8.135,6.629,6.364,4.95C4.628,3.3,3.131,1.882,0,1.882V0C3.88,0,5.887,1.906,7.658,3.581,9.4,5.23,10.893,6.65,14.024,6.65s4.628-1.419,6.364-3.066C22.157,1.906,24.166,0,28.046,0s5.89,1.906,7.658,3.581C37.442,5.23,38.939,6.65,42.07,6.65S46.7,5.23,48.437,3.581C50.205,1.906,52.215,0,56.1,0s5.89,1.906,7.658,3.581C65.491,5.23,66.988,6.65,70.12,6.65s4.628-1.419,6.367-3.069C78.255,1.906,80.261,0,84.144,0V1.882c-3.131,0-4.628,1.422-6.367,3.069C76.006,6.629,74,8.532,70.12,8.532" transform="translate(2.299 30.399)" fill="#7d3a1b"/>
              <path id="Trazado_873376" data-name="Trazado 873376" d="M70.12,8.532c-3.88,0-5.889-1.9-7.658-3.584C60.723,3.3,59.226,1.882,56.1,1.882S51.467,3.3,49.728,4.947c-1.768,1.682-3.775,3.584-7.658,3.584s-5.889-1.9-7.658-3.584C32.674,3.3,31.177,1.882,28.046,1.882S23.418,3.3,21.682,4.947C19.911,6.629,17.9,8.532,14.025,8.532s-5.889-1.9-7.661-3.584C4.628,3.3,3.131,1.882,0,1.882V0C3.88,0,5.889,1.9,7.658,3.581,9.4,5.23,10.893,6.65,14.025,6.65s4.628-1.419,6.364-3.069C22.157,1.9,24.166,0,28.046,0s5.889,1.9,7.661,3.581C37.442,5.23,38.939,6.65,42.071,6.65S46.7,5.23,48.437,3.581C50.206,1.9,52.215,0,56.1,0s5.89,1.9,7.658,3.581C65.491,5.23,66.988,6.65,70.12,6.65s4.628-1.419,6.367-3.069C78.257,1.9,80.264,0,84.147,0V1.882c-3.131,0-4.631,1.422-6.37,3.066C76.006,6.629,74,8.532,70.12,8.532" transform="translate(1.533 20.266)" fill="#7d3a1b"/>
              <path id="Trazado_873377" data-name="Trazado 873377" d="M70.119,8.532c-3.88,0-5.889-1.9-7.658-3.584C60.723,3.3,59.226,1.882,56.1,1.882S51.467,3.3,49.728,4.947C47.96,6.629,45.95,8.532,42.071,8.532s-5.89-1.9-7.658-3.584C32.674,3.3,31.177,1.882,28.046,1.882S23.418,3.3,21.682,4.947C19.911,6.629,17.9,8.532,14.025,8.532s-5.89-1.9-7.661-3.584C4.628,3.3,3.131,1.882,0,1.882V0C3.88,0,5.889,1.9,7.658,3.581,9.393,5.23,10.893,6.65,14.025,6.65s4.628-1.419,6.364-3.069C22.156,1.9,24.166,0,28.046,0s5.89,1.9,7.661,3.581C37.442,5.23,38.939,6.65,42.071,6.65S46.7,5.23,48.437,3.581C50.205,1.9,52.215,0,56.1,0s5.889,1.9,7.658,3.581C65.491,5.23,66.988,6.65,70.119,6.65s4.628-1.419,6.367-3.069C78.257,1.9,80.261,0,84.147,0V1.882c-3.131,0-4.631,1.422-6.37,3.066C76.006,6.629,74,8.532,70.119,8.532" transform="translate(0.766 10.133)" fill="#7d3a1b"/>
              <path id="Trazado_873378" data-name="Trazado 873378" d="M70.12,8.529c-3.88,0-5.887-1.9-7.658-3.581C60.723,3.3,59.226,1.882,56.095,1.882S51.467,3.3,49.731,4.947C47.96,6.626,45.953,8.529,42.07,8.529s-5.887-1.9-7.658-3.581C32.674,3.3,31.177,1.882,28.046,1.882S23.418,3.3,21.682,4.944C19.914,6.626,17.9,8.529,14.024,8.529s-5.89-1.9-7.661-3.581C4.628,3.3,3.131,1.882,0,1.882V0C3.88,0,5.89,1.9,7.658,3.581,9.4,5.228,10.893,6.647,14.024,6.647s4.628-1.419,6.364-3.066C22.159,1.9,24.166,0,28.046,0s5.887,1.9,7.661,3.581c1.736,1.646,3.233,3.066,6.364,3.066S46.7,5.228,48.437,3.581C50.208,1.9,52.215,0,56.095,0s5.887,1.9,7.658,3.581c1.739,1.646,3.236,3.066,6.367,3.066s4.628-1.419,6.367-3.066C78.257,1.9,80.264,0,84.147,0V1.882c-3.134,0-4.631,1.419-6.37,3.066C76.006,6.626,74,8.529,70.12,8.529" transform="translate(0 0.003)" fill="#7d3a1b"/>
            </g>
          </g>
        </g>
        <path id="Trazado_873425" data-name="Trazado 873425" d="M47.337,0A47.337,47.337,0,1,1,0,47.337,47.337,47.337,0,0,1,47.337,0Z" transform="translate(14.061 16.873)" fill="#7d3a1b"/>
        <circle id="Elipse_11503" data-name="Elipse 11503" cx="49.5" cy="49.5" r="49.5" transform="translate(7.211 7.211)" fill="#fff"/>
      </g>
      <g id="Grupo_1119844" data-name="Grupo 1119844" transform="translate(-69.781 5285.121)">
        <rect id="Rectángulo_406741" data-name="Rectángulo 406741" width="22.684" height="30.341" transform="translate(380.043 64.104)" fill="#f0f0f0"/>
        <rect id="Rectángulo_406742" data-name="Rectángulo 406742" width="22.908" height="1.35" transform="translate(379.932 42.201)" fill="#b4b4b4"/>
        <g id="Grupo_1119836" data-name="Grupo 1119836">
          <rect id="Rectángulo_406743" data-name="Rectángulo 406743" width="1.35" height="17.154" transform="translate(390.711 42.875)" fill="#b4b4b4"/>
          <g id="Grupo_1119835" data-name="Grupo 1119835">
            <path id="Trazado_906918" data-name="Trazado 906918" d="M391.386,64.1a20.387,20.387,0,0,0-3.21-5.77l3.21,1.161,3.21-1.161A20.362,20.362,0,0,0,391.386,64.1Z" fill="#b4b4b4"/>
          </g>
        </g>
        <g id="Grupo_1119839" data-name="Grupo 1119839">
          <g id="Grupo_1119837" data-name="Grupo 1119837">
            <path id="Trazado_906919" data-name="Trazado 906919" d="M370.111,31.909a.922.922,0,0,0,.922-.907,1.159,1.159,0,0,1,1.159-1.138h6.438a1.158,1.158,0,0,1,1.157,1.225c-.256,4.6-1.148,20.625-1.153,20.723h-23.2c-.885-15.9-.375-6.767-1.052-18.929a.923.923,0,0,1,.922-.974Z" fill="#ffbe00"/>
          </g>
          <g id="Grupo_1119838" data-name="Grupo 1119838">
            <path id="Trazado_906920" data-name="Trazado 906920" d="M354.566,51.745a1.159,1.159,0,0,0,1.158,1.083h22.612a1.159,1.159,0,0,0,1.156-1.084c.377-5.748.865-13.207,1.1-16.761a1.934,1.934,0,0,0-1.93-2.059H355.4a1.932,1.932,0,0,0-1.927,2.061C353.876,41.191,354.383,48.935,354.566,51.745Z" fill="#ffce73"/>
          </g>
          <path id="Trazado_906921" data-name="Trazado 906921" d="M363.912,32.924h14.576l-19.9,19.9h-2.862a1.159,1.159,0,0,1-1.157-1.082c-.109-1.673-.332-5.091-.58-8.893Z" fill="#ffe7ba"/>
        </g>
        <g id="Grupo_1119842" data-name="Grupo 1119842">
          <g id="Grupo_1119840" data-name="Grupo 1119840">
            <path id="Trazado_906922" data-name="Trazado 906922" d="M418.823,31.909a.922.922,0,0,0,.922-.907,1.159,1.159,0,0,1,1.159-1.138h6.438a1.159,1.159,0,0,1,1.158,1.225c-.256,4.6-1.149,20.626-1.154,20.724h-23.2c-.886-15.9-.375-6.768-1.052-18.93a.923.923,0,0,1,.922-.974Z" fill="#ffbe00"/>
          </g>
          <g id="Grupo_1119841" data-name="Grupo 1119841">
            <path id="Trazado_906923" data-name="Trazado 906923" d="M403.279,51.745a1.159,1.159,0,0,0,1.157,1.083h22.613a1.159,1.159,0,0,0,1.156-1.084c.377-5.748.865-13.207,1.1-16.761a1.934,1.934,0,0,0-1.93-2.059H404.109a1.932,1.932,0,0,0-1.927,2.061C402.589,41.191,403.1,48.935,403.279,51.745Z" fill="#ffce73"/>
          </g>
          <path id="Trazado_906924" data-name="Trazado 906924" d="M412.625,32.924H427.2l-19.9,19.9h-2.862a1.158,1.158,0,0,1-1.156-1.082c-.109-1.673-.332-5.091-.581-8.893Z" fill="#ffe7ba"/>
        </g>
        <path id="Trazado_906925" data-name="Trazado 906925" d="M393.7,42.876a2.318,2.318,0,1,1-2.317-2.317A2.316,2.316,0,0,1,393.7,42.876Z" fill="#7d3a1b"/>
        <rect id="Rectángulo_406744" data-name="Rectángulo 406744" width="19.267" height="3.214" transform="translate(381.737 65.904)" fill="#efb499"/>
        <g id="Grupo_1119843" data-name="Grupo 1119843">
          <rect id="Rectángulo_406745" data-name="Rectángulo 406745" width="19.267" height="1.294" transform="translate(381.737 70.28)" fill="#b4b4b4"/>
          <rect id="Rectángulo_406746" data-name="Rectángulo 406746" width="19.267" height="1.294" transform="translate(381.737 72.528)" fill="#b4b4b4"/>
          <rect id="Rectángulo_406747" data-name="Rectángulo 406747" width="19.267" height="1.293" transform="translate(381.737 74.777)" fill="#b4b4b4"/>
          <rect id="Rectángulo_406748" data-name="Rectángulo 406748" width="19.267" height="1.294" transform="translate(381.737 77.025)" fill="#b4b4b4"/>
          <rect id="Rectángulo_406749" data-name="Rectángulo 406749" width="19.267" height="1.294" transform="translate(381.737 79.274)" fill="#b4b4b4"/>
        </g>
        <rect id="Rectángulo_406750" data-name="Rectángulo 406750" width="19.267" height="1.294" transform="translate(381.737 83.771)" fill="#b4b4b4"/>
        <rect id="Rectángulo_406751" data-name="Rectángulo 406751" width="19.267" height="1.294" transform="translate(381.737 86.02)" fill="#b4b4b4"/>
        <rect id="Rectángulo_406752" data-name="Rectángulo 406752" width="19.267" height="1.294" transform="translate(381.737 90.517)" fill="#b4b4b4"/>
      </g>
    </g>
  </g>
</svg>
