<svg xmlns="http://www.w3.org/2000/svg" xmlns:xlink="http://www.w3.org/1999/xlink" width="121" height="121" viewBox="0 0 121 121">
  <defs>
    <clipPath id="clip-path">
      <rect id="Rectángulo_400938" data-name="Rectángulo 400938" width="121" height="121" transform="translate(0 0)" fill="none"/>
    </clipPath>
    <clipPath id="clip-path-2">
      <rect id="Rectángulo_401073" data-name="Rectángulo 401073" width="92.219" height="41.532" fill="#efb499"/>
    </clipPath>
  </defs>
  <g id="Grupo_1120003" data-name="Grupo 1120003" transform="translate(-4725.668 -1861.001)">
    <g id="Grupo_1118342" data-name="Grupo 1118342" transform="translate(4338 -4151.999)">
      <rect id="Rectángulo_401103" data-name="Rectángulo 401103" width="121" height="121" transform="translate(387.668 6013)" fill="none"/>
      <g id="Grupo_1099348" data-name="Grupo 1099348" transform="translate(387.668 6013)">
        <g id="Grupo_1099282" data-name="Grupo 1099282">
          <g id="Grupo_1099281" data-name="Grupo 1099281" clip-path="url(#clip-path-2)">
            <path id="Trazado_873375" data-name="Trazado 873375" d="M74.8,9.1c-4.139,0-6.28-2.03-8.17-3.821-1.855-1.756-3.452-3.274-6.792-3.274s-4.937,1.517-6.792,3.274C51.161,7.072,49.023,9.1,44.881,9.1s-6.28-2.03-8.169-3.821C34.857,3.525,33.26,2.007,29.92,2.007s-4.937,1.517-6.789,3.274C21.241,7.072,19.1,9.1,14.962,9.1S8.679,7.072,6.789,5.281C4.937,3.525,3.34,2.007,0,2.007V0C4.139,0,6.28,2.033,8.17,3.821c1.855,1.759,3.452,3.274,6.792,3.274S19.9,5.58,21.75,3.824C23.637,2.033,25.781,0,29.92,0s6.283,2.033,8.17,3.821c1.855,1.759,3.452,3.274,6.792,3.274s4.937-1.514,6.792-3.274C53.56,2.033,55.7,0,59.843,0s6.283,2.033,8.17,3.821C69.867,5.58,71.464,7.094,74.8,7.094S79.742,5.58,81.6,3.821C83.483,2.033,85.624,0,89.766,0V2.007c-3.34,0-4.937,1.517-6.792,3.274C81.084,7.072,78.943,9.1,74.8,9.1" transform="translate(2.453 32.43)" fill="#efb499"/>
            <path id="Trazado_873376" data-name="Trazado 873376" d="M74.8,9.1c-4.139,0-6.283-2.03-8.17-3.824-1.855-1.756-3.452-3.27-6.792-3.27s-4.937,1.514-6.792,3.27C51.164,7.072,49.023,9.1,44.881,9.1s-6.283-2.03-8.17-3.824c-1.855-1.756-3.452-3.27-6.792-3.27s-4.937,1.517-6.789,3.27C21.241,7.072,19.1,9.1,14.962,9.1S8.679,7.072,6.789,5.278C4.937,3.522,3.34,2.007,0,2.007V0C4.139,0,6.283,2.03,8.17,3.821c1.855,1.759,3.452,3.274,6.792,3.274S19.9,5.58,21.75,3.821C23.637,2.03,25.781,0,29.92,0S36.2,2.03,38.093,3.821c1.852,1.759,3.449,3.274,6.789,3.274s4.937-1.514,6.792-3.274C53.56,2.03,55.7,0,59.843,0s6.283,2.03,8.17,3.821C69.867,5.58,71.464,7.094,74.8,7.094S79.742,5.58,81.6,3.821C83.486,2.03,85.627,0,89.769,0V2.007c-3.34,0-4.94,1.517-6.8,3.27C81.084,7.072,78.943,9.1,74.8,9.1" transform="translate(1.635 21.62)" fill="#efb499"/>
            <path id="Trazado_873377" data-name="Trazado 873377" d="M74.8,9.1c-4.139,0-6.283-2.03-8.169-3.824-1.855-1.756-3.452-3.27-6.792-3.27s-4.937,1.514-6.792,3.27C51.164,7.072,49.02,9.1,44.881,9.1s-6.283-2.03-8.17-3.824c-1.855-1.756-3.452-3.27-6.792-3.27s-4.937,1.517-6.789,3.27C21.241,7.072,19.1,9.1,14.962,9.1S8.678,7.072,6.789,5.278C4.937,3.522,3.34,2.007,0,2.007V0C4.139,0,6.283,2.03,8.169,3.821c1.851,1.759,3.452,3.274,6.792,3.274S19.9,5.58,21.75,3.821C23.637,2.03,25.781,0,29.92,0S36.2,2.03,38.093,3.821c1.852,1.759,3.449,3.274,6.789,3.274s4.937-1.514,6.792-3.274C53.56,2.03,55.7,0,59.843,0s6.283,2.03,8.17,3.821C69.867,5.58,71.464,7.094,74.8,7.094S79.742,5.58,81.6,3.821C83.486,2.03,85.624,0,89.769,0V2.007c-3.34,0-4.941,1.517-6.8,3.27C81.084,7.072,78.943,9.1,74.8,9.1" transform="translate(0.818 10.81)" fill="#efb499"/>
            <path id="Trazado_873378" data-name="Trazado 873378" d="M74.8,9.1c-4.139,0-6.28-2.03-8.17-3.821-1.855-1.756-3.452-3.27-6.792-3.27s-4.937,1.514-6.789,3.27C51.164,7.069,49.023,9.1,44.881,9.1s-6.28-2.03-8.169-3.821c-1.855-1.756-3.452-3.27-6.792-3.27s-4.937,1.514-6.789,3.267C21.245,7.069,19.1,9.1,14.962,9.1S8.678,7.069,6.789,5.278C4.937,3.522,3.34,2.007,0,2.007V0C4.139,0,6.283,2.03,8.17,3.821c1.855,1.756,3.452,3.27,6.792,3.27S19.9,5.577,21.75,3.821C23.64,2.03,25.781,0,29.92,0s6.28,2.03,8.173,3.821c1.852,1.756,3.449,3.27,6.789,3.27s4.937-1.514,6.792-3.27C53.563,2.03,55.7,0,59.843,0s6.28,2.03,8.17,3.821c1.855,1.756,3.452,3.27,6.792,3.27s4.937-1.514,6.792-3.27C83.486,2.03,85.627,0,89.769,0V2.007c-3.344,0-4.941,1.514-6.8,3.27C81.084,7.069,78.943,9.1,74.8,9.1" transform="translate(0 0.003)" fill="#efb499"/>
          </g>
        </g>
      </g>
      <circle id="Elipse_11504" data-name="Elipse 11504" cx="50.5" cy="50.5" r="50.5" transform="translate(402.668 6031)" fill="#ffce73"/>
      <circle id="Elipse_11503" data-name="Elipse 11503" cx="52.5" cy="52.5" r="52.5" transform="translate(395.668 6021)" fill="#f3f9ff"/>
    </g>
    <g id="Grupo_1118343" data-name="Grupo 1118343" transform="translate(4751.609 1886.806)">
      <rect id="Rectángulo_401104" data-name="Rectángulo 401104" width="62" height="63" transform="translate(5.562 5.196)" fill="none"/>
      <g id="Grupo_1118352" data-name="Grupo 1118352" transform="translate(479.146 16.486)">
        <path id="Trazado_905431" data-name="Trazado 905431" d="M-452.987,44.524l.612.024a2.5,2.5,0,0,1,.335,1.807q.014,12.049.006,24.1c0,3.528.155,3.681,3.752,3.681q10.581,0,21.162.005a2.813,2.813,0,0,1,1.822.309,2.022,2.022,0,0,1,.235,1.313q.01,8.955,0,17.909c0,1.49-.2,1.716-1.684,1.718q-15.552.024-31.1,0c-1.558,0-2.134-.6-2.23-2.145-.021-.348-.016-.7-.016-1.047q0-22.256.006-44.511a3.005,3.005,0,0,1,.384-2.111,1.839,1.839,0,0,1,1.276-.328c.9-.018,1.8-.036,2.7,0A3.98,3.98,0,0,0-452.987,44.524Z" transform="translate(-9.469 -48.997)" fill="#ffce73"/>
        <path id="Trazado_905432" data-name="Trazado 905432" d="M-462.457-4.473c-.148.824-.721,1-1.455,1-1.7,0-3.4.028-5.1.044a1.2,1.2,0,0,0-.63,1.122c-.022.489-.039.976-.039,1.465q0,22.941,0,45.882c0,2.3,0,2.308,2.35,2.308q15.083,0,30.167.005c.948,0,1.813-.048,2.269-1.083a2.4,2.4,0,0,0,.168-1.015q0-9.532,0-19.065a2.729,2.729,0,0,0-.511-1.765,2.528,2.528,0,0,0-1.624-.245q-9.527-.014-19.055-.007a10.263,10.263,0,0,1-1.672-.075,3.312,3.312,0,0,1-2.951-3.37c-.025-8.027-.184-16.06.066-24.08.12-3.829.006-7.658.218-11.482a2.956,2.956,0,0,1,3.213-2.636q14.442-.01,28.885-.009a3.081,3.081,0,0,1,3.205,2.309c.015.139.032-.039.028.1-.083,3.286.44,6.554.287,9.842-.058,1.256-.289,1.559-1.4,1.805-1.044-.26-1.166-1.1-1.179-1.962-.039-2.444-.011-4.889-.015-7.334s-.064-2.51-2.54-2.51q-12.833,0-25.666,0c-.245,0-.489,0-.733,0-1.507.046-1.77.286-1.772,1.8q-.019,16.606,0,33.211c0,1.411.151,1.561,1.575,1.563q13.776.02,27.552,0c1.438,0,1.576-.15,1.58-1.669.013-6.216,0-12.432.006-18.649,0-.489-.013-.978.031-1.466a1.548,1.548,0,0,1,1.256-1.588,8.614,8.614,0,0,1,2.008-.052,36.764,36.764,0,0,1,3.733.009,1.285,1.285,0,0,1,1.274.892A1.149,1.149,0,0,1-419.386.29a20.719,20.719,0,0,1-3.958.141c-1.13.044-1.268.15-1.3,1.259-.014.453-.014.907.016,1.361a.7.7,0,0,0,.806.75,36.287,36.287,0,0,1,3.631.015,1.287,1.287,0,0,1,1.273.895,1.145,1.145,0,0,1-.469,1.45,21.93,21.93,0,0,1-4.018.14c-1.05.045-1.2.161-1.238,1.194-.019.448-.011.9.007,1.346.022.53.246.852.824.828a30.6,30.6,0,0,1,3.331,0c1.078.063,1.645.569,1.641,1.368s-.572,1.3-1.65,1.362a29.77,29.77,0,0,1-3.223,0c-.652-.07-.972.209-.955.881q.017.673,0,1.347c-.017.655.273.97.941.906,1.044-.057,2.086-.037,3.127-.012a2.08,2.08,0,0,1,1.276.38,1.214,1.214,0,0,1,.449,1.3,1.272,1.272,0,0,1-1.191,1.008,23.9,23.9,0,0,1-3.742.057.7.7,0,0,0-.816.733c0,.069-.01.139-.016.208-.2,2.33-.116,2.405,2.2,2.429a12.576,12.576,0,0,1,3.019.118,1.121,1.121,0,0,1,.5,1.437,1.344,1.344,0,0,1-1.281.906,27.329,27.329,0,0,1-3.533.039c-2.406.057-4.812.012-7.219.03-1.37.01-1.415.06-1.429,1.4,0,.14,0-.035,0,.1-.007,1.75,0,1.778,1.718,1.765,3.314-.025,6.626.066,9.94.056a3.852,3.852,0,0,1,1.247.1,1.113,1.113,0,0,1,.579,1.413,1.308,1.308,0,0,1-1.227.975,12.3,12.3,0,0,1-1.777.052c-3-.022-6,.055-9-.037-1.5.057-1.5.057-1.505,1.517q0,1.194,0,2.389c.006,1.473.007,1.473,1.491,1.538,4.4-.093,8.8-.02,13.2-.04,2.223-.01,2.227,0,2.227-2.188q0-20.06,0-40.12c0-.209,0-.419,0-.629-.042-1.223-.179-1.37-1.42-1.4-1.256-.029-2.514,0-3.771-.012A4.068,4.068,0,0,1-422.03-9.1c-.921-.327-1.133-.833-.781-1.842a1.84,1.84,0,0,1,1.351-.427c1.466.023,2.933.008,4.4.008,2.977,0,3.975.986,3.975,3.93q0,20.694,0,41.388c0,.244.007.489,0,.733a3.068,3.068,0,0,1-3.194,3.151c-1.221.025-2.443.025-3.665.036a2.256,2.256,0,0,1-1.595.331c-3.059.009-6.119,0-9.178.005-1.638,0-1.661.03-1.666,1.711,0,.8.015,1.6,0,2.4-.015.741.288,1.077,1.052,1.063.972-.018,1.947-.031,2.918.031,1.737-.051,3.475,0,5.212-.021,1.677-.018,1.82-.16,1.873-1.857a3.969,3.969,0,0,1,.045-.624c.193-.682.367-1.388,1.341-1.184A1.225,1.225,0,0,1-419,41.15c-.028.522.012,1.048-.016,1.571a2.857,2.857,0,0,1-3.027,2.905c-3.282.018-6.564.025-9.845-.009-.675-.007-.865.161-.872.857a2.931,2.931,0,0,1-3.166,3.118q-16.5.015-32.993,0a2.983,2.983,0,0,1-3.158-3.049c-.014-.279,0-.559,0-.838q0-23.673,0-47.346c0-2.8,1.031-3.823,3.866-3.824,1.466,0,2.933.013,4.4-.005C-463.093-5.479-462.6-5.232-462.457-4.473Z" transform="translate(0 0)"/>
        <path id="Trazado_905433" data-name="Trazado 905433" d="M-270.656,42.572c1.18-.013,2.36-.032,3.541-.036.689,0,1.306-.164,1.339-.969.036-.887-.616-1.054-1.345-1.061-1.179-.013-2.359-.033-3.539-.05a4.546,4.546,0,0,1,0-3.77c1.18-.017,2.359-.038,3.539-.05.729-.008,1.381-.179,1.346-1.063-.032-.8-.651-.965-1.34-.967-1.18,0-2.36-.023-3.541-.036-.632-1.078-.352-2.228-.239-3.355.049-.494.481-.5.887-.506a31.257,31.257,0,0,0,3.75-.078,1.022,1.022,0,0,0,.424-1.268c-.236-.565-.744-.642-1.3-.64-1.175,0-2.349-.02-3.524-.033-.638-1.075-.355-2.225-.239-3.35.051-.493.489-.485.892-.5a25.23,25.23,0,0,0,3.74-.1,1.045,1.045,0,0,0,.427-1.271c-.24-.579-.754-.621-1.3-.619-1.174,0-2.348-.019-3.521-.032a1.474,1.474,0,0,1-.355-1.156q-.029-3.115,0-6.231a1.6,1.6,0,0,1,.342-1.166c.582.177.8-.326,1.131-.61-.145,1.261.112,1.569,1.375,1.578,1.674.012,3.349.018,5.023,0,.911-.011,1.315.346,1.314,1.305q-.026,21.3-.005,42.592c0,.781-.208,1.292-1.1,1.288q-7.427-.031-14.854-.051a1.372,1.372,0,0,1-.339-.954q-.048-2.072,0-4.144a1.251,1.251,0,0,1,.343-.948q5.316-.017,10.634-.03c.547,0,1.068-.033,1.313-.615a1.053,1.053,0,0,0-.426-1.281,26.632,26.632,0,0,0-4.246-.081c-.8,0-1.006-.255-.722-.971a5.189,5.189,0,0,0,.248-1.742c.018-.451.027-.92.531-1.153,1.141-.011,2.282-.03,3.422-.03a1.128,1.128,0,0,0,1.192-.64,1.02,1.02,0,0,0-.425-1.268,21.314,21.314,0,0,0-3.645-.064c-.79.016-1.1-.329-1.081-1.034C-270.954,44.459-271.275,43.458-270.656,42.572Z" transform="translate(-153.273 -24.601)" fill="#fef7eb"/>
        <path id="Trazado_905434" data-name="Trazado 905434" d="M-421.746-4.861q.009,5.5.018,10.993,0,12.153,0,24.307c0,2.2,1.151,3.336,3.364,3.338q10.476.008,20.952.01c.365,0,.765-.151,1.1.133a2.327,2.327,0,0,1-.068,1.572q-7.176-.019-14.352-.038c-3.388-.006-6.776.013-10.163-.007-1.785-.01-2.479-.727-2.477-2.478q.011-13.726.027-27.452c1.47-.043,1.47-.043,1.47-1.55,0-2.608-.005-5.216.007-7.825C-421.862-4.191-421.989-4.551-421.746-4.861Z" transform="translate(-38.504 -9.967)" fill="#f1ce6b"/>
        <path id="Trazado_905435" data-name="Trazado 905435" d="M-271.685,248.181a1.286,1.286,0,0,0-1.083,1.074,1.84,1.84,0,0,1-1.385.327c-1.533.014-3.067-.012-4.6.011-1.079.016-1.162.125-1.192,1.224a2.933,2.933,0,0,1-.126,1.337c-1.255.01-2.511,0-3.766.04-.5.015-.663-.16-.654-.657q.038-2.3,0-4.607c-.009-.512.176-.649.664-.646,4.047.026,8.095.031,12.142.043Q-271.686,247.254-271.685,248.181Z" transform="translate(-148.258 -208.452)" fill="#a2a8b5"/>
        <path id="Trazado_905436" data-name="Trazado 905436" d="M-250.831-1.631q.008,4.277.015,8.553h-1.9a2.034,2.034,0,0,1-.2-1.862c.835-.14,1.115-.629,1.1-1.471-.039-3.349-.021-6.7-.023-10.048.43,1.312.129,2.661.18,3.992C-251.632-1.851-251.473-1.551-250.831-1.631Z" transform="translate(-173.111 -8.704)" fill="#c6cdd7"/>
        <path id="Trazado_905437" data-name="Trazado 905437" d="M-427.235,78.453q.034-.785.068-1.571c.038.692.108,1.385.109,2.078q.013,9.686,0,19.371c0,.209-.006.419-.013.628-.048,1.415-.265,1.634-1.672,1.635q-12.512,0-25.023,0c-2.373,0-4.747.006-7.12,0-1.285,0-1.53-.252-1.53-1.527q0-24.083,0-48.166c0-.737-.005-1.462,1.051-1.4a2.842,2.842,0,0,0-.176,1.335q0,23.044,0,46.088c0,1.8.236,2.03,2.06,2.03q15.554,0,31.107.019c.893,0,1.194-.187,1.186-1.144C-427.239,91.372-427.227,84.912-427.235,78.453Z" transform="translate(-7.643 -52.928)" fill="#f0ce6a"/>
        <path id="Trazado_905438" data-name="Trazado 905438" d="M-374.083,3.658a3.938,3.938,0,0,1,.2,1.862c-.975.135-1.049.819-1.047,1.618q.02,10.11.007,20.22c0,1.6-.16,1.769-1.713,1.769q-14.038,0-28.076,0c-1.455,0-1.651-.194-1.652-1.619q0-17.025,0-34.05c0-1.446.245-1.69,1.712-1.69q14.038,0,28.076,0c1.384,0,1.651.271,1.652,1.645q0,4.4,0,8.8C-374.919,2.86-374.862,3.466-374.083,3.658Z" transform="translate(-51.945 -7.302)" fill="#ffe9df"/>
        <path id="Trazado_905439" data-name="Trazado 905439" d="M-275.676,178.976a2.741,2.741,0,0,0-.209,1.514c-.023.41.1.852-.137,1.22-.57.881-.236,1.005.665,1.018,1.289.019,2.6-.288,3.871.2-4.037-.012-8.075-.048-12.112-.017-.826.006-1.211-.137-1.112-1.058s-.279-2.152.19-2.715c.494-.594,1.76-.173,2.687-.181C-279.781,178.933-277.728,178.965-275.676,178.976Z" transform="translate(-148.047 -155.129)" fill="#c9d0da"/>
        <path id="Trazado_905440" data-name="Trazado 905440" d="M-264.313,263.263a5.114,5.114,0,0,1-.177-2.471c.005-.585.535-.434.886-.435,2.2-.008,4.4,0,6.594.006.152,2.929.152,2.933-2.706,2.928C-261.248,263.289-262.781,263.273-264.313,263.263Z" transform="translate(-164.017 -219.561)" fill="#fef7eb"/>
        <path id="Trazado_905441" data-name="Trazado 905441" d="M-282.869,207.308q0,3.023,0,6.046a1.1,1.1,0,0,1-.2.045c-1.481.059-1.481.058-1.481-1.453,0-1.214.067-2.432-.022-3.639-.067-.9.251-1.182,1.089-1.037A5.5,5.5,0,0,0-282.869,207.308Z" transform="translate(-148.185 -177.589)" fill="#c9d0da"/>
        <path id="Trazado_905442" data-name="Trazado 905442" d="M-246.393,151.325c0,.97.027,1.941-.019,2.909-.031.654.238.8.848.827,1.189.06,2.4-.286,3.567.2-1.562-.022-3.125-.062-4.687-.058-.546,0-.826-.078-.754-.739a11.592,11.592,0,0,0,.015-2.29C-247.5,151.313-247.115,151.151-246.393,151.325Z" transform="translate(-177.536 -133.355)" fill="#c0c6d0"/>
        <path id="Trazado_905443" data-name="Trazado 905443" d="M-241.945,66.524c-1.054.492-2.171.2-3.251.2-.893,0-1.263.2-1.17,1.153.084.858.024,1.729.028,2.595-.846.228-1.12-.127-1.027-.949.054-.478,0-.968.011-1.453.037-1.682-.315-1.489,1.568-1.525C-244.507,66.521-243.226,66.53-241.945,66.524Z" transform="translate(-177.587 -66.384)" fill="#c0c6cf"/>
        <path id="Trazado_905444" data-name="Trazado 905444" d="M-241.933,94.611c-1.057.484-2.173.2-3.254.193-.893,0-1.262.2-1.168,1.15.085.858.022,1.73.024,2.6-.728.175-1.109,0-1.028-.859a16.153,16.153,0,0,0,.005-2.3c-.027-.552.182-.724.72-.723C-245.066,94.675-243.5,94.634-241.933,94.611Z" transform="translate(-177.599 -88.582)" fill="#c1c8d1"/>
        <path id="Trazado_905445" data-name="Trazado 905445" d="M-246.314,123.189v3.77c-.763.227-1.089-.021-1.022-.847a12.833,12.833,0,0,0,0-2.075C-247.4,123.209-247.077,122.961-246.314,123.189Z" transform="translate(-177.619 -111.104)" fill="#c1c7d1"/>
        <path id="Trazado_905446" data-name="Trazado 905446" d="M-383.365,35.522q-6.129,0-12.257,0c-1.211,0-1.487-.268-1.495-1.463-.007-1.117-.018-2.236.028-3.352a6.308,6.308,0,0,1,4.426-6.095c.945-.354,1.9-.689,2.832-1.069a3.118,3.118,0,0,0,1.436-1.014c.4-.562.55-1-.146-1.572a7.749,7.749,0,0,1-2.986-6.5c.06-2.016-.252-4.05.269-6.045a8.275,8.275,0,0,1,8.939-5.978,8.161,8.161,0,0,1,7.156,7.884,28.671,28.671,0,0,1-.191,6.157A7.418,7.418,0,0,1-378.1,20.92c-.815.632-.571,1.145-.087,1.728a4.535,4.535,0,0,0,1.962,1.153c.711.283,1.436.53,2.156.792a6.4,6.4,0,0,1,4.5,6.372c.027,1.047.02,2.1.007,3.143-.014,1.126-.3,1.41-1.442,1.411Q-377.184,35.528-383.365,35.522Z" transform="translate(-59.245 -15.686)"/>
        <path id="Trazado_905447" data-name="Trazado 905447" d="M-372.267,103.837a8.114,8.114,0,0,0,3.563,2.085c.521.2,1.053.364,1.568.574,2.266.923,3.075,2.114,3.1,4.548.032,2.619.032,2.619-2.547,2.619-6.626,0-13.253-.016-19.879.02-.845,0-1.114-.171-1.108-1.069.031-4.533.437-5.149,4.7-6.692a7.974,7.974,0,0,0,3.563-2.085c.383-.311.788-.158,1.18-.039a7.886,7.886,0,0,0,4.68,0C-373.055,103.679-372.65,103.523-372.267,103.837Z" transform="translate(-66.799 -95.727)" fill="#efb499"/>
        <path id="Trazado_905448" data-name="Trazado 905448" d="M-361.293,19.856a12.144,12.144,0,0,1,.33-3.939,6.309,6.309,0,0,1,6.467-4.3,6.224,6.224,0,0,1,5.68,5.752,23.432,23.432,0,0,1-.057,5.432,6.125,6.125,0,0,1-6.641,5.333,6.231,6.231,0,0,1-5.774-6.081C-361.321,21.323-361.293,20.589-361.293,19.856Z" transform="translate(-87.553 -22.966)" fill="#efb499"/>
        <path id="Trazado_905449" data-name="Trazado 905449" d="M-341.134,99.808a20.3,20.3,0,0,1-3.677.664,30.3,30.3,0,0,1-3.362-.664,1.5,1.5,0,0,1,2.238-1.082,4.086,4.086,0,0,0,2.667-.012C-342.043,98.267-341.517,98.806-341.134,99.808Z" transform="translate(-97.931 -91.699)" fill="#7d3a1b"/>
      </g>
    </g>
  </g>
</svg>
