<svg xmlns="http://www.w3.org/2000/svg" xmlns:xlink="http://www.w3.org/1999/xlink" width="121" height="121" viewBox="0 0 121 121">
  <defs>
    <clipPath id="clip-path">
      <rect id="Rectángulo_400938" data-name="Rectángulo 400938" width="121" height="121" transform="translate(0 0)" fill="none"/>
    </clipPath>
    <clipPath id="clip-path-2">
      <rect id="Rectángulo_401073" data-name="Rectángulo 401073" width="92.219" height="41.532" fill="#efb499"/>
    </clipPath>
  </defs>
  <g id="Grupo_1120002" data-name="Grupo 1120002" transform="translate(-1091.445 -13561.002)">
    <g id="Grupo_1118336" data-name="Grupo 1118336" transform="translate(703.777 7548.001)">
      <rect id="Rectángulo_401103" data-name="Rectángulo 401103" width="121" height="121" transform="translate(387.668 6013)" fill="none"/>
      <g id="Grupo_1099348" data-name="Grupo 1099348" transform="translate(387.668 6013)">
        <g id="Grupo_1099282" data-name="Grupo 1099282">
          <g id="Grupo_1099281" data-name="Grupo 1099281" clip-path="url(#clip-path-2)">
            <path id="Trazado_873375" data-name="Trazado 873375" d="M74.8,9.1c-4.139,0-6.28-2.03-8.17-3.821-1.855-1.756-3.452-3.274-6.792-3.274s-4.937,1.517-6.792,3.274C51.161,7.072,49.023,9.1,44.881,9.1s-6.28-2.03-8.169-3.821C34.857,3.525,33.26,2.007,29.92,2.007s-4.937,1.517-6.789,3.274C21.241,7.072,19.1,9.1,14.962,9.1S8.679,7.072,6.789,5.281C4.937,3.525,3.34,2.007,0,2.007V0C4.139,0,6.28,2.033,8.17,3.821c1.855,1.759,3.452,3.274,6.792,3.274S19.9,5.58,21.75,3.824C23.637,2.033,25.781,0,29.92,0s6.283,2.033,8.17,3.821c1.855,1.759,3.452,3.274,6.792,3.274s4.937-1.514,6.792-3.274C53.56,2.033,55.7,0,59.843,0s6.283,2.033,8.17,3.821C69.867,5.58,71.464,7.094,74.8,7.094S79.742,5.58,81.6,3.821C83.483,2.033,85.624,0,89.766,0V2.007c-3.34,0-4.937,1.517-6.792,3.274C81.084,7.072,78.943,9.1,74.8,9.1" transform="translate(2.453 32.43)" fill="#efb499"/>
            <path id="Trazado_873376" data-name="Trazado 873376" d="M74.8,9.1c-4.139,0-6.283-2.03-8.17-3.824-1.855-1.756-3.452-3.27-6.792-3.27s-4.937,1.514-6.792,3.27C51.164,7.072,49.023,9.1,44.881,9.1s-6.283-2.03-8.17-3.824c-1.855-1.756-3.452-3.27-6.792-3.27s-4.937,1.517-6.789,3.27C21.241,7.072,19.1,9.1,14.962,9.1S8.679,7.072,6.789,5.278C4.937,3.522,3.34,2.007,0,2.007V0C4.139,0,6.283,2.03,8.17,3.821c1.855,1.759,3.452,3.274,6.792,3.274S19.9,5.58,21.75,3.821C23.637,2.03,25.781,0,29.92,0S36.2,2.03,38.093,3.821c1.852,1.759,3.449,3.274,6.789,3.274s4.937-1.514,6.792-3.274C53.56,2.03,55.7,0,59.843,0s6.283,2.03,8.17,3.821C69.867,5.58,71.464,7.094,74.8,7.094S79.742,5.58,81.6,3.821C83.486,2.03,85.627,0,89.769,0V2.007c-3.34,0-4.94,1.517-6.8,3.27C81.084,7.072,78.943,9.1,74.8,9.1" transform="translate(1.635 21.62)" fill="#efb499"/>
            <path id="Trazado_873377" data-name="Trazado 873377" d="M74.8,9.1c-4.139,0-6.283-2.03-8.169-3.824-1.855-1.756-3.452-3.27-6.792-3.27s-4.937,1.514-6.792,3.27C51.164,7.072,49.02,9.1,44.881,9.1s-6.283-2.03-8.17-3.824c-1.855-1.756-3.452-3.27-6.792-3.27s-4.937,1.517-6.789,3.27C21.241,7.072,19.1,9.1,14.962,9.1S8.678,7.072,6.789,5.278C4.937,3.522,3.34,2.007,0,2.007V0C4.139,0,6.283,2.03,8.169,3.821c1.851,1.759,3.452,3.274,6.792,3.274S19.9,5.58,21.75,3.821C23.637,2.03,25.781,0,29.92,0S36.2,2.03,38.093,3.821c1.852,1.759,3.449,3.274,6.789,3.274s4.937-1.514,6.792-3.274C53.56,2.03,55.7,0,59.843,0s6.283,2.03,8.17,3.821C69.867,5.58,71.464,7.094,74.8,7.094S79.742,5.58,81.6,3.821C83.486,2.03,85.624,0,89.769,0V2.007c-3.34,0-4.941,1.517-6.8,3.27C81.084,7.072,78.943,9.1,74.8,9.1" transform="translate(0.818 10.81)" fill="#efb499"/>
            <path id="Trazado_873378" data-name="Trazado 873378" d="M74.8,9.1c-4.139,0-6.28-2.03-8.17-3.821-1.855-1.756-3.452-3.27-6.792-3.27s-4.937,1.514-6.789,3.27C51.164,7.069,49.023,9.1,44.881,9.1s-6.28-2.03-8.169-3.821c-1.855-1.756-3.452-3.27-6.792-3.27s-4.937,1.514-6.789,3.267C21.245,7.069,19.1,9.1,14.962,9.1S8.678,7.069,6.789,5.278C4.937,3.522,3.34,2.007,0,2.007V0C4.139,0,6.283,2.03,8.17,3.821c1.855,1.756,3.452,3.27,6.792,3.27S19.9,5.577,21.75,3.821C23.64,2.03,25.781,0,29.92,0s6.28,2.03,8.173,3.821c1.852,1.756,3.449,3.27,6.789,3.27s4.937-1.514,6.792-3.27C53.563,2.03,55.7,0,59.843,0s6.28,2.03,8.17,3.821c1.855,1.756,3.452,3.27,6.792,3.27s4.937-1.514,6.792-3.27C83.486,2.03,85.627,0,89.769,0V2.007c-3.344,0-4.941,1.514-6.8,3.27C81.084,7.069,78.943,9.1,74.8,9.1" transform="translate(0 0.003)" fill="#efb499"/>
          </g>
        </g>
      </g>
      <circle id="Elipse_11504" data-name="Elipse 11504" cx="50.5" cy="50.5" r="50.5" transform="translate(402.668 6031)" fill="#ffce73"/>
      <circle id="Elipse_11503" data-name="Elipse 11503" cx="52.5" cy="52.5" r="52.5" transform="translate(395.668 6021)" fill="#f3f9ff"/>
    </g>
    <g id="Grupo_1118339" data-name="Grupo 1118339" transform="translate(1117.387 13586.806)">
      <rect id="Rectángulo_401104" data-name="Rectángulo 401104" width="62" height="63" transform="translate(5.562 5.196)" fill="none"/>
      <g id="Grupo_1118349" data-name="Grupo 1118349" transform="translate(501.631 0.708)">
        <path id="Trazado_905365" data-name="Trazado 905365" d="M-485.912,47.354q0-5.843,0-11.686a3.029,3.029,0,0,1,3.315-3.3c1.742-.015,3.485.011,5.228-.012a2.043,2.043,0,0,1,1.322.439,32.471,32.471,0,0,1,2.791,2.073,5.053,5.053,0,0,0,4.147,1.207c.493-.036.645-.179.629-.66a26.381,26.381,0,0,1,.009-2.869c.061-.792-.218-.962-.972-.957-5.467.032-10.934.016-16.4.018a3.6,3.6,0,0,1-2.245-.545,2.879,2.879,0,0,1-1.3-2.42c0-1.162-.037-2.325.014-3.485.029-.655-.144-.876-.834-.857-1.844.05-3.69.026-5.535.014-1.542-.009-2.291-.719-2.3-2.243-.016-5.194,0-10.387-.012-15.581a1.51,1.51,0,0,1,.492-1.171q2.052-2,4.056-4.057a1.613,1.613,0,0,1,1.262-.523c3.554.018,7.107,0,10.661.015a2.013,2.013,0,0,1,2.217,2.227q.015,9.533,0,19.066a2.033,2.033,0,0,1-2.283,2.267c-1.777.014-3.555.037-5.33-.013-.753-.021-1.109.113-1.027.975.087.914.017,1.843.02,2.766,0,1.648.533,2.171,2.222,2.173q5.535.007,11.071,0c1.777,0,3.554-.021,5.33.011.621.011.924-.091.894-.823-.06-1.467-.041-2.938-.006-4.407.013-.542-.15-.7-.689-.692-1.879.03-3.759.019-5.638.009-1.592-.009-2.307-.721-2.309-2.321-.008-5.125.005-10.251-.014-15.376a1.8,1.8,0,0,1,.612-1.424c1.3-1.255,2.575-2.544,3.835-3.842a1.819,1.819,0,0,1,1.43-.617c3.485.027,6.97.008,10.456.016,1.619,0,2.354.756,2.355,2.406q.007,9.38,0,18.759c0,1.642-.744,2.391-2.364,2.4-1.811.009-3.623.027-5.433-.011-.633-.013-.9.11-.867.821.06,1.467.038,2.938.008,4.407-.011.54.171.7.7.694,5.638-.016,11.276,0,16.914-.018a1.674,1.674,0,0,0,1.9-1.9c.017-1.093-.031-2.188.017-3.279.027-.61-.2-.733-.761-.724-1.845.031-3.69.018-5.535.009-1.59-.008-2.339-.735-2.341-2.295-.007-5.125.006-10.251-.014-15.376a1.8,1.8,0,0,1,.6-1.429c1.329-1.278,2.624-2.592,3.911-3.913a1.718,1.718,0,0,1,1.349-.564c3.519.022,7.039,0,10.558.015a2.055,2.055,0,0,1,2.292,2.268q.014,9.533,0,19.066a2.044,2.044,0,0,1-2.231,2.227c-1.913.018-3.827.023-5.74-.008-.535-.009-.711.134-.69.682.042,1.058.018,2.118.011,3.177-.015,2.218-1.191,3.43-3.41,3.437q-8.252.026-16.5-.01c-.766,0-1.1.141-1.029.989a19.744,19.744,0,0,1,.006,2.766c-.032.6.2.72.758.733a2.471,2.471,0,0,0,2.057-.788,9.708,9.708,0,0,1,12.459-1.112,9.785,9.785,0,0,1,3.245,12.1c-.2.424-.742.873-.542,1.256a3.51,3.51,0,0,0,1.51,1.483,4.74,4.74,0,0,1,1.076.745q4.078,3.663,8.145,7.338a2.883,2.883,0,0,1,.277,4.323,2.827,2.827,0,0,1-4.243-.272c-2.559-2.8-5.1-5.611-7.652-8.414-.453-.5-.647-1.159-1.177-1.629a1.575,1.575,0,0,0-2.659.6c-1,2.35-1.99,4.7-2.957,7.064a3.708,3.708,0,0,1-3.786,2.53c-7.654-.03-15.308-.011-22.961-.014-1.872,0-2.371-.5-2.371-2.349q0-5.792,0-11.583Z" transform="translate(0)"/>
        <path id="Trazado_905366" data-name="Trazado 905366" d="M-402.911,207.448a2.279,2.279,0,0,1-.084.508c-.855,2.041-1.725,4.076-2.579,6.117a2.138,2.138,0,0,1-2.142,1.43q-11.675,0-23.351,0c-.787,0-.937-.252-.626-.99,2.328-5.521,4.621-11.058,6.937-16.584a2.075,2.075,0,0,1,2.044-1.415q3.738.015,7.476,0c.523,0,.784.045.74.712a9.7,9.7,0,0,0,10.629,10.226C-403.567,207.42-403.261,207.448-402.911,207.448Z" transform="translate(-52.627 -155.616)" fill="#ffce73"/>
        <path id="Trazado_905367" data-name="Trazado 905367" d="M-373.374,18.035c0,3.074-.024,6.148.016,9.221.011.867-.222,1.21-1.15,1.2q-6.813-.059-13.627,0c-.872.007-1.115-.3-1.11-1.132q.041-7.069,0-14.139c0-.6.117-.879.781-.812a11.513,11.513,0,0,0,1.74.006,2,2,0,0,0,2.116-2.126c.025-.648.026-1.3,0-1.946-.018-.444.144-.592.588-.59q4.918.02,9.836,0c.736,0,.817.414.815.995C-373.379,11.819-373.374,14.927-373.374,18.035Z" transform="translate(-86.486 -5.553)" fill="#f0f0f2"/>
        <path id="Trazado_905368" data-name="Trazado 905368" d="M-475.358,17.625c0,3.11-.019,6.22.013,9.329.008.787-.235,1.094-1.053,1.089q-6.92-.041-13.84,0c-.69,0-1-.216-1-.935q.021-7.228,0-14.455c0-.547.166-.72.7-.684a15.367,15.367,0,0,0,1.844,0A2,2,0,0,0-486.6,9.828c.036-.809-.362-1.885.162-2.358.559-.5,1.629-.141,2.475-.148,2.426-.021,4.854.037,7.278-.028,1.012-.027,1.379.242,1.355,1.311C-475.4,11.61-475.358,14.618-475.358,17.625Z" transform="translate(-5.417 -5.143)" fill="#f0f0f2"/>
        <path id="Trazado_905369" data-name="Trazado 905369" d="M-271.455,17.752c0,3.041-.026,6.082.016,9.122.012.883-.254,1.2-1.166,1.192q-6.815-.055-13.631,0c-.86.006-1.124-.3-1.119-1.134q.043-7.072,0-14.144c0-.617.138-.865.79-.8a11.566,11.566,0,0,0,1.843,0,2.01,2.01,0,0,0,2.041-2.106c0-.034,0-.069,0-.1.048-.777-.331-1.8.154-2.271.527-.516,1.556-.153,2.364-.161,2.494-.024,4.989.027,7.482-.027.931-.02,1.26.248,1.243,1.214C-271.489,11.6-271.455,14.677-271.455,17.752Z" transform="translate(-167.473 -5.162)" fill="#f0f0f2"/>
        <path id="Trazado_905370" data-name="Trazado 905370" d="M-432.07,182.641q0-.553,0-1.106,0-9.073.007-18.146c0-1.588.551-2.131,2.164-2.129,1.742,0,3.6-.36,5.19.143,1.548.491,2.84,1.837,4.189,2.88a3.163,3.163,0,0,0,2.166.679c1.557-.046,3.117-.013,4.773-.013-.24.626-.453,1.122-.62,1.633s-.556.419-.923.419q-3.742,0-7.484,0a3.556,3.556,0,0,0-3.7,2.484q-2.555,6.083-5.1,12.17c-.142.339-.3.672-.446,1.008Z" transform="translate(-52.447 -127.497)" fill="#ffce73"/>
        <path id="Trazado_905371" data-name="Trazado 905371" d="M-340.766,170.084a8.483,8.483,0,0,1,8.017-8.32,8.431,8.431,0,0,1,8.586,6.985,8.181,8.181,0,0,1-.844,5.256c-.871,1.709-.885,1.695.4,3.071.184.2.61.353.342.731-.25.352-.481.719-1.029.216-1.522-1.4-1.546-1.371-3.316-.458A8.378,8.378,0,0,1-340.766,170.084Z" transform="translate(-125.02 -127.978)" fill="#ffb937"/>
        <path id="Trazado_905372" data-name="Trazado 905372" d="M-241.908,258.77a1.247,1.247,0,0,1-.826,1.382,1.319,1.319,0,0,1-1.592-.3c-1.972-2.172-3.967-4.323-5.906-6.524-.713-.81.473-.884.671-1.362.233-.562.587-.223.873.037q2.314,2.094,4.629,4.188.835.754,1.679,1.5A1.246,1.246,0,0,1-241.908,258.77Z" transform="translate(-196.8 -199.451)" fill="#5b5a60"/>
        <path id="Trazado_905373" data-name="Trazado 905373" d="M-281.583,15.283a12.736,12.736,0,0,1,2-2.028C-279.237,15.309-279.5,15.574-281.583,15.283Z" transform="translate(-172.061 -9.955)" fill="#c6adab"/>
        <path id="Trazado_905374" data-name="Trazado 905374" d="M-482.629,15.453c.277,1.626.166,1.743-1.783,1.652Z" transform="translate(-10.844 -11.702)" fill="#cdb3b1"/>
        <path id="Trazado_905375" data-name="Trazado 905375" d="M-383.937,15.931l1.995-1.89C-381.449,15.814-381.742,16.128-383.937,15.931Z" transform="translate(-90.706 -10.58)" fill="#ceb4b2"/>
        <path id="Trazado_905376" data-name="Trazado 905376" d="M-256.831,244.416c-.3.548-.6,1.035-1.173,1.128a.554.554,0,0,1-.57-.59,1.431,1.431,0,0,1,1.114-1.067C-257.164,243.837-256.984,244.183-256.831,244.416Z" transform="translate(-190.342 -193.266)" fill="#a4a9ad"/>
        <path id="Trazado_905377" data-name="Trazado 905377" d="M-373.014,54.778c1.534,0,3.068,0,4.6,0,.529,0,1.123-.03,1.148.677s-.539.745-1.088.744q-4.755-.009-9.511,0c-.5,0-1.022-.028-1.04-.684-.02-.742.549-.734,1.082-.733Q-375.417,54.781-373.014,54.778Z" transform="translate(-94.707 -42.956)" fill="#060606"/>
        <path id="Trazado_905378" data-name="Trazado 905378" d="M-374.345,92.193c-1.2,0-2.391,0-3.586,0-.528,0-.991-.107-.975-.756.015-.6.472-.673.948-.673h7.376c.486,0,.924.1.921.7,0,.653-.475.736-1,.733C-371.887,92.189-373.116,92.193-374.345,92.193Z" transform="translate(-94.704 -71.563)" fill="#030303"/>
        <path id="Trazado_905379" data-name="Trazado 905379" d="M-357.058,18.725c1.02,0,2.04,0,3.06,0,.515,0,.891.212.868.758-.02.492-.4.669-.859.669q-3.162,0-6.324,0c-.471,0-.815-.205-.812-.707s.315-.719.8-.717C-359.234,18.728-358.146,18.725-357.058,18.725Z" transform="translate(-108.837 -14.302)" fill="#040404"/>
        <path id="Trazado_905380" data-name="Trazado 905380" d="M-375.54,72.8c.816,0,1.632.01,2.448,0,.492-.008.832.23.835.69a.709.709,0,0,1-.8.73c-1.7-.007-3.4,0-5.1-.006a.68.68,0,0,1-.773-.744c.012-.534.389-.665.841-.667C-377.24,72.8-376.39,72.8-375.54,72.8Z" transform="translate(-94.684 -57.284)" fill="#050505"/>
        <path id="Trazado_905381" data-name="Trazado 905381" d="M-346.041,38.143c-.647,0-1.294.007-1.94,0-.469-.007-.82-.222-.8-.72s.365-.691.837-.691c1.26,0,2.519,0,3.779,0,.477,0,.828.2.849.678.025.563-.373.743-.882.74C-344.816,38.14-345.429,38.143-346.041,38.143Z" transform="translate(-118.645 -28.611)" fill="#060606"/>
        <path id="Trazado_905382" data-name="Trazado 905382" d="M-376.546,36.723c.475,0,.951.011,1.426,0a.7.7,0,0,1,.807.72.667.667,0,0,1-.726.693c-1.052,0-2.1.01-3.157,0-.419,0-.733-.194-.745-.659-.013-.5.284-.737.765-.746C-377.632,36.717-377.089,36.724-376.546,36.723Z" transform="translate(-94.677 -28.605)" fill="#070707"/>
        <path id="Trazado_905383" data-name="Trazado 905383" d="M-337.086,74.213a7.9,7.9,0,0,1-1.12-.012.665.665,0,0,1-.617-.694.674.674,0,0,1,.729-.691c.646-.018,1.292-.009,1.939-.006a.666.666,0,0,1,.757.655c.016.481-.289.737-.769.756-.306.012-.612,0-.918,0Z" transform="translate(-126.564 -57.288)" fill="#070707"/>
        <path id="Trazado_905384" data-name="Trazado 905384" d="M-473.3,34.13a6.555,6.555,0,0,1-.8-.383.6.6,0,0,1-.315-.69c.1-.311.332-.589.669-.519a17.671,17.671,0,0,1,2.654.686c.722.273.426.98.232,1.42-.332.753,0,1.992-1.117,2.176-.881.144-.646-.721-.648-1.412-.729.4-1.392.755-2.043,1.129-1.708.983-3.411,1.976-5.116,2.965-.431.25-.9.5-1.225-.089-.293-.536.046-.863.515-1.131C-478.1,36.919-475.728,35.536-473.3,34.13Z" transform="translate(-13.465 -25.274)" fill="#020202"/>
        <path id="Trazado_905385" data-name="Trazado 905385" d="M-429.325,56.639c0,1.569,0,3.138,0,4.707,0,.476-.043.925-.659.942-.662.019-.757-.437-.757-.965q0-4.758,0-9.516c0-.525.093-1.01.73-1,.656,0,.691.517.689,1.028C-429.329,53.433-429.324,55.036-429.325,56.639Z" transform="translate(-53.505 -39.799)" fill="#060606"/>
        <path id="Trazado_905386" data-name="Trazado 905386" d="M-446.173,65.337c0,1.26-.007,2.52,0,3.78,0,.529-.074.986-.743.958-.606-.025-.666-.478-.666-.949q0-3.78,0-7.56c0-.528.117-.993.763-.967.6.024.65.479.647.958C-446.178,62.817-446.173,64.077-446.173,65.337Z" transform="translate(-40.12 -47.585)" fill="#060606"/>
        <path id="Trazado_905387" data-name="Trazado 905387" d="M-464.446,73.91q0-1.379,0-2.758c0-.488.148-.939.7-.942s.717.408.715.919c-.009,1.907-.006,3.814,0,5.72,0,.507-.151.884-.74.87-.547-.013-.662-.411-.668-.847C-464.454,75.885-464.445,74.9-464.446,73.91Z" transform="translate(-26.712 -55.225)" fill="#070708"/>
        <path id="Trazado_905388" data-name="Trazado 905388" d="M-481.144,82.617c0-.644-.012-1.289,0-1.932.01-.42.2-.736.663-.738a.654.654,0,0,1,.688.722q.026,2.034.006,4.068a.638.638,0,0,1-.676.719c-.483.011-.67-.281-.68-.7C-481.157,84.042-481.145,83.329-481.144,82.617Z" transform="translate(-13.438 -62.964)" fill="#020202"/>
        <path id="Trazado_905389" data-name="Trazado 905389" d="M-284.055,38.042a4.861,4.861,0,0,1,3.04-4.08,4.929,4.929,0,0,1,5.632.78,4.953,4.953,0,0,1,1.622,5.445,1.023,1.023,0,0,0,.413,1.352c1.029.726,2,1.542,2.962,2.355a2.252,2.252,0,0,1,.2,3.486,2.284,2.284,0,0,1-3.488-.226c-.823-1-1.64-2.009-2.421-3.044a.857.857,0,0,0-1.1-.368C-280.738,44.821-284.1,42.315-284.055,38.042Z" transform="translate(-170.096 -25.98)"/>
        <path id="Trazado_905390" data-name="Trazado 905390" d="M-325.985,169.814a6.785,6.785,0,0,1,6.7,6.742,6.785,6.785,0,0,1-6.713,6.736,6.77,6.77,0,0,1-6.751-6.792A6.783,6.783,0,0,1-325.985,169.814Z" transform="translate(-131.395 -134.394)" fill="#000101"/>
        <path id="Trazado_905391" data-name="Trazado 905391" d="M-269.538,44.38a3.885,3.885,0,0,1-3.865,3.934,3.878,3.878,0,0,1-3.841-3.851,3.809,3.809,0,0,1,3.862-3.9A3.806,3.806,0,0,1-269.538,44.38Z" transform="translate(-175.51 -31.659)" fill="#6a4d23"/>
        <path id="Trazado_905392" data-name="Trazado 905392" d="M-236.941,80a.933.933,0,0,1-.527.9.76.76,0,0,1-.952-.067c-.968-1.138-1.9-2.307-2.846-3.465-.182-.222-.029-.368.115-.518s.363-.282.541-.14q1.793,1.426,3.552,2.9C-236.952,79.7-236.962,79.922-236.941,80Z" transform="translate(-204.041 -60.345)" fill="#5a5a5f"/>
        <path id="Trazado_905393" data-name="Trazado 905393" d="M-320.515,176.649a5.356,5.356,0,0,1,5.272,5.393,5.328,5.328,0,0,1-5.393,5.267,5.309,5.309,0,0,1-5.263-5.387A5.336,5.336,0,0,1-320.515,176.649Z" transform="translate(-136.836 -139.827)" fill="#bbecfd"/>
        <path id="Trazado_905394" data-name="Trazado 905394" d="M-265.287,45.9a2.866,2.866,0,0,1,2.754,1.963c.137.47.173.909-.385,1.083-.468.146-.751-.1-.912-.564a1.348,1.348,0,0,0-1.924-.927c-.462.155-.914.147-1.077-.412-.148-.507.243-.747.629-.9A6.335,6.335,0,0,1-265.287,45.9Z" transform="translate(-183.761 -35.903)" fill="#020404"/>
      </g>
    </g>
  </g>
</svg>
