<svg xmlns="http://www.w3.org/2000/svg" xmlns:xlink="http://www.w3.org/1999/xlink" width="120" height="120" viewBox="0 0 120 120">
  <defs>
    <clipPath id="clip-path">
      <rect id="Rectángulo_400938" data-name="Rectángulo 400938" width="120" height="120" transform="translate(0 0)" fill="none"/>
    </clipPath>
    <clipPath id="clip-path-2">
      <rect id="Rectángulo_401073" data-name="Rectángulo 401073" width="92.219" height="41.532" fill="#7d3a1b"/>
    </clipPath>
  </defs>
  <g id="Grupo_1120041" data-name="Grupo 1120041" transform="translate(-810 -19002.031)">
    <g id="Grupo_1120035" data-name="Grupo 1120035" transform="translate(422.332 12989.031)">
      <rect id="Rectángulo_401103" data-name="Rectángulo 401103" width="120" height="120" transform="translate(387.668 6013)" fill="none"/>
      <g id="Grupo_1099348" data-name="Grupo 1099348" transform="translate(387.668 6013)">
        <g id="Grupo_1099282" data-name="Grupo 1099282">
          <g id="Grupo_1099281" data-name="Grupo 1099281" clip-path="url(#clip-path-2)">
            <path id="Trazado_873375" data-name="Trazado 873375" d="M74.8,9.1c-4.139,0-6.28-2.03-8.17-3.821-1.855-1.756-3.452-3.274-6.792-3.274s-4.937,1.517-6.792,3.274C51.161,7.072,49.023,9.1,44.881,9.1s-6.28-2.03-8.169-3.821C34.857,3.525,33.26,2.007,29.92,2.007s-4.937,1.517-6.789,3.274C21.241,7.072,19.1,9.1,14.962,9.1S8.679,7.072,6.789,5.281C4.937,3.525,3.34,2.007,0,2.007V0C4.139,0,6.28,2.033,8.17,3.821c1.855,1.759,3.452,3.274,6.792,3.274S19.9,5.58,21.75,3.824C23.637,2.033,25.781,0,29.92,0s6.283,2.033,8.17,3.821c1.855,1.759,3.452,3.274,6.792,3.274s4.937-1.514,6.792-3.274C53.56,2.033,55.7,0,59.843,0s6.283,2.033,8.17,3.821C69.867,5.58,71.464,7.094,74.8,7.094S79.742,5.58,81.6,3.821C83.483,2.033,85.624,0,89.766,0V2.007c-3.34,0-4.937,1.517-6.792,3.274C81.084,7.072,78.943,9.1,74.8,9.1" transform="translate(2.453 32.43)" fill="#7d3a1b"/>
            <path id="Trazado_873376" data-name="Trazado 873376" d="M74.8,9.1c-4.139,0-6.283-2.03-8.17-3.824-1.855-1.756-3.452-3.27-6.792-3.27s-4.937,1.514-6.792,3.27C51.164,7.072,49.023,9.1,44.881,9.1s-6.283-2.03-8.17-3.824c-1.855-1.756-3.452-3.27-6.792-3.27s-4.937,1.517-6.789,3.27C21.241,7.072,19.1,9.1,14.962,9.1S8.679,7.072,6.789,5.278C4.937,3.522,3.34,2.007,0,2.007V0C4.139,0,6.283,2.03,8.17,3.821c1.855,1.759,3.452,3.274,6.792,3.274S19.9,5.58,21.75,3.821C23.637,2.03,25.781,0,29.92,0S36.2,2.03,38.093,3.821c1.852,1.759,3.449,3.274,6.789,3.274s4.937-1.514,6.792-3.274C53.56,2.03,55.7,0,59.843,0s6.283,2.03,8.17,3.821C69.867,5.58,71.464,7.094,74.8,7.094S79.742,5.58,81.6,3.821C83.486,2.03,85.627,0,89.769,0V2.007c-3.34,0-4.94,1.517-6.8,3.27C81.084,7.072,78.943,9.1,74.8,9.1" transform="translate(1.635 21.62)" fill="#7d3a1b"/>
            <path id="Trazado_873377" data-name="Trazado 873377" d="M74.8,9.1c-4.139,0-6.283-2.03-8.169-3.824-1.855-1.756-3.452-3.27-6.792-3.27s-4.937,1.514-6.792,3.27C51.164,7.072,49.02,9.1,44.881,9.1s-6.283-2.03-8.17-3.824c-1.855-1.756-3.452-3.27-6.792-3.27s-4.937,1.517-6.789,3.27C21.241,7.072,19.1,9.1,14.962,9.1S8.678,7.072,6.789,5.278C4.937,3.522,3.34,2.007,0,2.007V0C4.139,0,6.283,2.03,8.169,3.821c1.851,1.759,3.452,3.274,6.792,3.274S19.9,5.58,21.75,3.821C23.637,2.03,25.781,0,29.92,0S36.2,2.03,38.093,3.821c1.852,1.759,3.449,3.274,6.789,3.274s4.937-1.514,6.792-3.274C53.56,2.03,55.7,0,59.843,0s6.283,2.03,8.17,3.821C69.867,5.58,71.464,7.094,74.8,7.094S79.742,5.58,81.6,3.821C83.486,2.03,85.624,0,89.769,0V2.007c-3.34,0-4.941,1.517-6.8,3.27C81.084,7.072,78.943,9.1,74.8,9.1" transform="translate(0.818 10.81)" fill="#7d3a1b"/>
            <path id="Trazado_873378" data-name="Trazado 873378" d="M74.8,9.1c-4.139,0-6.28-2.03-8.17-3.821-1.855-1.756-3.452-3.27-6.792-3.27s-4.937,1.514-6.789,3.27C51.164,7.069,49.023,9.1,44.881,9.1s-6.28-2.03-8.169-3.821c-1.855-1.756-3.452-3.27-6.792-3.27s-4.937,1.514-6.789,3.267C21.245,7.069,19.1,9.1,14.962,9.1S8.678,7.069,6.789,5.278C4.937,3.522,3.34,2.007,0,2.007V0C4.139,0,6.283,2.03,8.17,3.821c1.855,1.756,3.452,3.27,6.792,3.27S19.9,5.577,21.75,3.821C23.64,2.03,25.781,0,29.92,0s6.28,2.03,8.173,3.821c1.852,1.756,3.449,3.27,6.789,3.27s4.937-1.514,6.792-3.27C53.563,2.03,55.7,0,59.843,0s6.28,2.03,8.17,3.821c1.855,1.756,3.452,3.27,6.792,3.27s4.937-1.514,6.792-3.27C83.486,2.03,85.627,0,89.769,0V2.007c-3.344,0-4.941,1.514-6.8,3.27C81.084,7.069,78.943,9.1,74.8,9.1" transform="translate(0 0.003)" fill="#7d3a1b"/>
          </g>
        </g>
      </g>
      <circle id="Elipse_11504" data-name="Elipse 11504" cx="50" cy="50" r="50" transform="translate(402.668 6031)" fill="#efb499"/>
      <circle id="Elipse_11503" data-name="Elipse 11503" cx="52" cy="52" r="52" transform="translate(395.668 6021)" fill="#f3f9ff"/>
    </g>
    <g id="Grupo_1120036" data-name="Grupo 1120036" transform="translate(835.719 19027.805)">
      <rect id="Rectángulo_401104" data-name="Rectángulo 401104" width="68" height="69" transform="translate(0.059 -0.804)" fill="none"/>
    </g>
    <g id="Grupo_1120012" data-name="Grupo 1120012" transform="translate(537.495 -301.895)">
      <g id="Grupo_1118368" data-name="Grupo 1118368" transform="translate(300.282 19334.895)">
        <g id="Grupo_1118369" data-name="Grupo 1118369" transform="translate(0 0)">
          <path id="Trazado_905514" data-name="Trazado 905514" d="M-446.552,34.99a3.5,3.5,0,0,1,.574,5.035c4.547,3.322,6.748,8.029,8,13.409a14.752,14.752,0,0,1,7.39-2.454,13.946,13.946,0,0,1,9.429,2.914c.869.673.88,1.06.068,1.876q-3.364,3.384-6.742,6.755c-.258.259-.5.53-.837.882,2.488,2.462,4.961,4.85,7.348,7.321a3.77,3.77,0,0,1,.809,1.917c.137.79-.049,1.632.048,2.434a2.573,2.573,0,0,1-1.511,2.757,15.938,15.938,0,0,1-19.936-3,17.369,17.369,0,0,1-1.752-3.285h-1c-7.769,0-15.538.02-23.307-.012a4.518,4.518,0,0,1-4.378-6.1,12.1,12.1,0,0,1,1.852-2.4c.223-.3.517-.712.469-1.025-1.32-8.639.9-16.016,7.683-21.79a2.528,2.528,0,0,0,.2-.225c-1.082-1.8-1.061-3.524.4-4.788a34.982,34.982,0,0,1-1.286-5.069c-.334-3.306,1.756-4.816,4.873-3.714.168.059.332.129.53.206.912-1.618,1.306-3.837,3.731-3.735,2.2.092,2.6,2.12,3.434,3.7.484-.148.963-.315,1.451-.44a3.043,3.043,0,0,1,3.984,2.814A9.962,9.962,0,0,1-446.552,34.99Zm3.293,34.941c0-2.268,0-4.4,0-6.54a10.238,10.238,0,0,1,2.51-7.161,3.554,3.554,0,0,0,.74-4.074c-.074-.208-.123-.424-.189-.636-1.192-3.855-3.016-7.316-6.337-9.772a3.667,3.667,0,0,0-2-.656c-3.7-.063-7.4-.054-11.092-.008a3.175,3.175,0,0,0-1.711.523,16.788,16.788,0,0,0-6.01,8.441c-1.452,4.151-2.177,8.362-.664,12.681.265.758-.07,1.151-.8,1.4a2.9,2.9,0,0,0-2.162,2.981,3.038,3.038,0,0,0,3.242,2.816c4.881.015,9.762.006,14.643.006Zm20.667-14.936c-4.535-3.58-11.795-3-15.929,1.125A9.938,9.938,0,0,0-439.8,69a11.494,11.494,0,0,0,8.545,4.956,12.262,12.262,0,0,0,8.667-2.2c-2.491-2.488-4.9-4.887-7.3-7.291-1.033-1.034-1.037-1.221-.011-2.24C-427.482,59.825-425.061,57.437-422.591,54.995ZM-454.1,34.445h3.659c2.493,0,2.887-.3,3.52-2.743.074-.285.1-.584.162-.871.254-1.087.4-2.257-.649-2.925-.955-.61-1.911.059-2.77.57-1.074.64-1.41.488-1.794-.726a12.116,12.116,0,0,0-.952-2.346c-.659-1.157-1.479-1.149-2.174-.032a8.206,8.206,0,0,0-.717,1.49c-.788,2.133-.756,2.083-2.8,1.23a2.539,2.539,0,0,0-2.044-.105,2.566,2.566,0,0,0-.706,2.036,18.749,18.749,0,0,0,.968,3.487,1.335,1.335,0,0,0,1.528.955C-457.283,34.4-455.692,34.445-454.1,34.445Zm12.579,35.229c-.093,1.578-.2,2.921.822,4.078a14.393,14.393,0,0,0,17.04,3.087c1.693-.895,1.82-1.19,1.341-3.122A14.572,14.572,0,0,1-441.524,69.674Zm-12.644-30.332c1.776,0,3.552.009,5.328,0,1.3-.009,1.972-.555,1.991-1.567s-.694-1.624-1.941-1.629q-5.273-.018-10.545,0a1.711,1.711,0,0,0-1.912,1.58,1.672,1.672,0,0,0,1.862,1.611C-457.645,39.355-455.906,39.34-454.167,39.342Z" transform="translate(472.659 -22.896)" fill="#6a4d23"/>
          <path id="Trazado_905515" data-name="Trazado 905515" d="M-255.882,163.566c-.514-1.752.463-3.164,2.007-4.508,2.2-1.914,4.25-4,6.32-6.06.7-.7,1.3-.755,1.966-.036,3.624,3.914,5.976,8.382,5.431,13.869-.393,3.955-3.03,6.44-6.293,8.318a1.308,1.308,0,0,1-1.147-.293q-3.952-3.726-7.817-7.544a2,2,0,0,1-.447-1.169C-255.932,165.411-255.882,164.667-255.882,163.566Zm9.283-9.143-7.065,6.812c1.192,1.288,2.291,2.533,3.452,3.716,1.184,1.206,2.429,2.353,3.636,3.515A9.266,9.266,0,0,0-246.6,154.423Zm-1.2,17.958c.386-1.741.1-2.981-1.223-3.992a35.715,35.715,0,0,1-2.891-2.743q-1.056-1.016-2.114-2.03l-.317.123c.1.875-.112,2.042.37,2.574C-252.076,168.407-249.955,170.3-247.8,172.381Zm1.855.3c2.892-1.333,4.84-5.448,4.05-8.727a10.711,10.711,0,0,1-3.136,5.355C-246.235,170.3-246.062,171.418-245.946,172.681Z" transform="translate(304.127 -123.679)" fill="#6a4d23"/>
          <path id="Trazado_905516" data-name="Trazado 905516" d="M-307.393,36.89c-3.33,0-6.661.006-9.991,0-1.647,0-2.26-.628-2.273-2.284-.007-.888-.012-1.776,0-2.664.023-1.472.624-2.094,2.1-2.1,3.219-.017,6.439-.006,9.658-.006,3.552,0,7.1-.006,10.657,0,1.667,0,2.279.62,2.288,2.262.005.888.011,1.776,0,2.664a1.879,1.879,0,0,1-2.112,2.123C-300.511,36.9-303.952,36.89-307.393,36.89Zm-10.553-1.807h21.2V31.619h-21.2Z" transform="translate(353.639 -28.289)" fill="#6a4d23"/>
          <path id="Trazado_905517" data-name="Trazado 905517" d="M-310.2,69.681c2.442,0,4.885-.008,7.327,0,1.494.007,2.066.585,2.089,2.095.015.962.021,1.925,0,2.886-.032,1.311-.591,1.982-1.874,1.992q-7.549.058-15.1,0c-1.285-.008-1.88-.683-1.908-1.952q-.035-1.554,0-3.108a1.7,1.7,0,0,1,1.917-1.914C-315.236,69.668-312.72,69.682-310.2,69.681Zm-7.813,5.242h15.445V71.3c-5.009,0-9.92-.007-14.83.025a.835.835,0,0,0-.587.565C-318.051,72.872-318.016,73.864-318.016,74.923Z" transform="translate(353.657 -59.289)" fill="#6a4d23"/>
          <path id="Trazado_905518" data-name="Trazado 905518" d="M-312.793,116.169c-1.7,0-3.4.012-5.1,0-1.178-.011-1.734-.5-1.78-1.643-.05-1.217-.048-2.439,0-3.657a1.548,1.548,0,0,1,1.761-1.691q5.154-.041,10.309,0a1.552,1.552,0,0,1,1.73,1.724c.041,1.218.048,2.44-.007,3.657a1.509,1.509,0,0,1-1.7,1.607C-309.32,116.183-311.057,116.168-312.793,116.169Zm5.189-1.651v-3.586h-10.32v3.586Z" transform="translate(353.673 -89.999)" fill="#6a4d23"/>
          <path id="Trazado_905519" data-name="Trazado 905519" d="M-416.966,133.383a11.231,11.231,0,0,1-11.214,11.22,11.3,11.3,0,0,1-11.266-11.312A11.316,11.316,0,0,1-428.2,122.062,11.243,11.243,0,0,1-416.966,133.383Zm-11.269,9.5a9.6,9.6,0,0,0,9.654-9.534,9.614,9.614,0,0,0-9.5-9.584,9.5,9.5,0,0,0-9.655,9.489A9.478,9.478,0,0,0-428.234,142.887Z" transform="translate(446.821 -100.041)" fill="#6a4d23"/>
          <path id="Trazado_905520" data-name="Trazado 905520" d="M-397.332,149.763c-.163.174-.412.658-.667.661a1.31,1.31,0,0,1-.971-.605,1.976,1.976,0,0,0-2.815-.994,1.305,1.305,0,0,0-.66.888c0,.281.4.691.714.81a15.508,15.508,0,0,0,2.038.49c1.477.339,2.192,1.013,2.314,2.178a2.7,2.7,0,0,1-1.727,2.815,6.471,6.471,0,0,1-1.8.9c-1,.128-3.223-1.983-3.259-3.018-.012-.351.351-.716.543-1.074.36.227.887.371,1.049.7a2,2,0,0,0,3.02.83c.67-.492.63-1.251-.156-1.541a23.1,23.1,0,0,0-2.359-.58A2.4,2.4,0,0,1-404.206,150a2.614,2.614,0,0,1,1.629-2.652c.544-.262,1.061-.431,1.047-1.212,0-.194.517-.563.779-.548s.528.389.759.636c.314.337.529.818.9,1.035A3.1,3.1,0,0,1-397.332,149.763Z" transform="translate(419.42 -118.345)" fill="#6a4d23"/>
        </g>
      </g>
    </g>
  </g>
</svg>
