<svg xmlns="http://www.w3.org/2000/svg" width="70" height="70" viewBox="0 0 70 70">
  <g id="Grupo_1104810" data-name="Grupo 1104810" transform="translate(-1230 -6500.746)">
    <g id="Grupo_1099489" data-name="Grupo 1099489" transform="translate(961 5542.746)">
      <circle id="Elipse_5614" data-name="Elipse 5614" cx="35" cy="35" r="35" transform="translate(269 958)" fill="#fff"/>
    </g>
    <g id="Grupo_1104816" data-name="Grupo 1104816" transform="translate(708.648 6261.424)">
      <path id="Trazado_896352" data-name="Trazado 896352" d="M581.351,267.4h-25a14.793,14.793,0,0,1,11.82-7.195c0-2.085,0-4.115,0-6.146,0-1.17.117-1.308,1.235-1.612a3.907,3.907,0,0,1,3.4.741,5.764,5.764,0,0,0,3.412,1.181,3.253,3.253,0,0,0,2.431-.9c.234-.228.706-.211,1.07-.306.062.374.265.791.165,1.115-1.024,3.337-3.6,4.7-6.963,3.779a16.146,16.146,0,0,0-2.545-.387c-.527-.056-.789.183-.795.785-.016,1.693-.039,1.67,1.63,1.959a14.421,14.421,0,0,1,9.812,6.378C581.125,266.958,581.2,267.135,581.351,267.4Z" transform="translate(-13.319)" fill="#6a4d23"/>
      <path id="Trazado_896353" data-name="Trazado 896353" d="M564.966,459.562v-7.4a13.75,13.75,0,0,0,2.383-.253,17.393,17.393,0,0,0,3.908-1.4,8.034,8.034,0,0,1,6.824-.679c.95.313,1.916.585,2.848.944.624.24,1.176.655.931,1.451a1.469,1.469,0,0,1-1.578,1c-.779-.008-1.558-.1-2.337-.158q-1.961-.147-3.922-.3c-.493-.039-.954.045-.984.627-.029.561.4.727.9.766q2.962.229,5.923.477a4.045,4.045,0,0,0,2.513-.708c2.718-1.647,5.473-3.234,8.233-4.81a1.784,1.784,0,0,1,2.417.619,1.566,1.566,0,0,1-.549,2.263q-6.427,3.664-12.906,7.234a5.3,5.3,0,0,1-3.076.593C572.689,459.507,568.892,458.931,564.966,459.562Z" transform="translate(-20.493 -163.651)" fill="#6a4d23"/>
      <path id="Trazado_896354" data-name="Trazado 896354" d="M572.008,365.43c-.014-.313-.038-.61-.039-.907,0-2.9.064-5.811-.031-8.712a34.446,34.446,0,0,0-.609-4.286c-.08-.495-.367-.707-.929-.705q-11.558.031-23.116,0c-.521,0-.783.183-.866.662a27.365,27.365,0,0,0-.627,3.86c-.091,3.293-.032,6.59-.032,9.885v.872c-1.4.308-1.447.277-1.439-1,.023-3.657-.041-7.319.128-10.97a18.025,18.025,0,0,1,1.053-4.191,1.015,1.015,0,0,1,.783-.521c8.375-.028,16.75-.019,25.126-.031a.807.807,0,0,1,.867.593,14.2,14.2,0,0,1,1.114,5.2c.026,2.848.01,5.7.011,8.545C573.4,364.952,573.333,365.038,572.008,365.43Z" transform="translate(-3.303 -80.811)" fill="#6a4d23"/>
      <path id="Trazado_896355" data-name="Trazado 896355" d="M616.533,411.633c-2.339-.3-4.592-1.532-7.134-.208a35.229,35.229,0,0,1,.285-4.444,3.413,3.413,0,0,1,3.548-2.6,3.541,3.541,0,0,1,3.325,3.2c.09,1.194.039,2.4.045,3.6A3.093,3.093,0,0,1,616.533,411.633Z" transform="translate(-57.486 -126.591)" fill="#6a4d23"/>
      <path id="Trazado_896356" data-name="Trazado 896356" d="M663.29,421.925a3.379,3.379,0,0,0-1.893-2.208,1.054,1.054,0,0,1-.441-.758c-.05-1.057-.021-2.118-.021-3.177a2.5,2.5,0,0,1,3.007-2.567,2.759,2.759,0,0,1,2.38,2.623c.046,1.281.041,2.565,0,3.846a1.017,1.017,0,0,1-.424.7C665.084,420.911,664.228,421.379,663.29,421.925Z" transform="translate(-100.386 -133.922)" fill="#6a4d23"/>
      <path id="Trazado_896357" data-name="Trazado 896357" d="M569.057,420.921c0-1.814-.061-3.563.022-5.306a2.711,2.711,0,0,1,2.208-2.326,2.853,2.853,0,0,1,2.921,1.17c.062.091.163.188.165.284.025,1.5.042,3,.04,4.5,0,.1-.147.235-.258.293A9.792,9.792,0,0,1,569.057,420.921Z" transform="translate(-23.88 -133.963)" fill="#6a4d23"/>
      <path id="Trazado_896358" data-name="Trazado 896358" d="M542.928,470.448h-2.576V459.691h2.576Z" transform="translate(0 -172.647)" fill="#6a4d23"/>
      <path id="Trazado_896359" data-name="Trazado 896359" d="M624.378,377.166a1.707,1.707,0,1,1-1.724-1.749A1.7,1.7,0,0,1,624.378,377.166Z" transform="translate(-67.115 -102.484)" fill="#6a4d23"/>
      <path id="Trazado_896360" data-name="Trazado 896360" d="M579.321,391.647a1.3,1.3,0,1,1,.007-2.589,1.3,1.3,0,1,1-.007,2.589Z" transform="translate(-31.339 -113.841)" fill="#6a4d23"/>
      <path id="Trazado_896361" data-name="Trazado 896361" d="M668.458,390.225a1.312,1.312,0,0,1,1.471-1.162,1.289,1.289,0,0,1,1.155,1.462,1.323,1.323,0,0,1-2.626-.3Z" transform="translate(-106.649 -113.84)" fill="#6a4d23"/>
    </g>
  </g>
</svg>
