<svg xmlns="http://www.w3.org/2000/svg" xmlns:xlink="http://www.w3.org/1999/xlink" width="121" height="121" viewBox="0 0 121 121">
  <defs>
    <clipPath id="clip-path">
      <rect id="Rectángulo_400938" data-name="Rectángulo 400938" width="121" height="121" transform="translate(0 0)" fill="none"/>
    </clipPath>
    <clipPath id="clip-path-2">
      <rect id="Rectángulo_401073" data-name="Rectángulo 401073" width="92.219" height="41.532" fill="#efb499"/>
    </clipPath>
    <clipPath id="clip-path-3">
      <rect id="Rectángulo_406046" data-name="Rectángulo 406046" width="70" height="70" transform="translate(570.777 3149)" fill="#fff"/>
    </clipPath>
  </defs>
  <g id="Grupo_1120023" data-name="Grupo 1120023" transform="translate(-1091.496 -4872)">
    <g id="Grupo_1105096" data-name="Grupo 1105096" transform="translate(703.828 -1141)">
      <rect id="Rectángulo_401103" data-name="Rectángulo 401103" width="121" height="121" transform="translate(387.668 6013)" fill="none"/>
      <g id="Grupo_1099348" data-name="Grupo 1099348" transform="translate(387.668 6013)">
        <g id="Grupo_1099282" data-name="Grupo 1099282">
          <g id="Grupo_1099281" data-name="Grupo 1099281" clip-path="url(#clip-path-2)">
            <path id="Trazado_873375" data-name="Trazado 873375" d="M74.8,9.1c-4.139,0-6.28-2.03-8.17-3.821-1.855-1.756-3.452-3.274-6.792-3.274s-4.937,1.517-6.792,3.274C51.161,7.072,49.023,9.1,44.881,9.1s-6.28-2.03-8.169-3.821C34.857,3.525,33.26,2.007,29.92,2.007s-4.937,1.517-6.789,3.274C21.241,7.072,19.1,9.1,14.962,9.1S8.679,7.072,6.789,5.281C4.937,3.525,3.34,2.007,0,2.007V0C4.139,0,6.28,2.033,8.17,3.821c1.855,1.759,3.452,3.274,6.792,3.274S19.9,5.58,21.75,3.824C23.637,2.033,25.781,0,29.92,0s6.283,2.033,8.17,3.821c1.855,1.759,3.452,3.274,6.792,3.274s4.937-1.514,6.792-3.274C53.56,2.033,55.7,0,59.843,0s6.283,2.033,8.17,3.821C69.867,5.58,71.464,7.094,74.8,7.094S79.742,5.58,81.6,3.821C83.483,2.033,85.624,0,89.766,0V2.007c-3.34,0-4.937,1.517-6.792,3.274C81.084,7.072,78.943,9.1,74.8,9.1" transform="translate(2.453 32.43)" fill="#efb499"/>
            <path id="Trazado_873376" data-name="Trazado 873376" d="M74.8,9.1c-4.139,0-6.283-2.03-8.17-3.824-1.855-1.756-3.452-3.27-6.792-3.27s-4.937,1.514-6.792,3.27C51.164,7.072,49.023,9.1,44.881,9.1s-6.283-2.03-8.17-3.824c-1.855-1.756-3.452-3.27-6.792-3.27s-4.937,1.517-6.789,3.27C21.241,7.072,19.1,9.1,14.962,9.1S8.679,7.072,6.789,5.278C4.937,3.522,3.34,2.007,0,2.007V0C4.139,0,6.283,2.03,8.17,3.821c1.855,1.759,3.452,3.274,6.792,3.274S19.9,5.58,21.75,3.821C23.637,2.03,25.781,0,29.92,0S36.2,2.03,38.093,3.821c1.852,1.759,3.449,3.274,6.789,3.274s4.937-1.514,6.792-3.274C53.56,2.03,55.7,0,59.843,0s6.283,2.03,8.17,3.821C69.867,5.58,71.464,7.094,74.8,7.094S79.742,5.58,81.6,3.821C83.486,2.03,85.627,0,89.769,0V2.007c-3.34,0-4.94,1.517-6.8,3.27C81.084,7.072,78.943,9.1,74.8,9.1" transform="translate(1.635 21.62)" fill="#efb499"/>
            <path id="Trazado_873377" data-name="Trazado 873377" d="M74.8,9.1c-4.139,0-6.283-2.03-8.169-3.824-1.855-1.756-3.452-3.27-6.792-3.27s-4.937,1.514-6.792,3.27C51.164,7.072,49.02,9.1,44.881,9.1s-6.283-2.03-8.17-3.824c-1.855-1.756-3.452-3.27-6.792-3.27s-4.937,1.517-6.789,3.27C21.241,7.072,19.1,9.1,14.962,9.1S8.678,7.072,6.789,5.278C4.937,3.522,3.34,2.007,0,2.007V0C4.139,0,6.283,2.03,8.169,3.821c1.851,1.759,3.452,3.274,6.792,3.274S19.9,5.58,21.75,3.821C23.637,2.03,25.781,0,29.92,0S36.2,2.03,38.093,3.821c1.852,1.759,3.449,3.274,6.789,3.274s4.937-1.514,6.792-3.274C53.56,2.03,55.7,0,59.843,0s6.283,2.03,8.17,3.821C69.867,5.58,71.464,7.094,74.8,7.094S79.742,5.58,81.6,3.821C83.486,2.03,85.624,0,89.769,0V2.007c-3.34,0-4.941,1.517-6.8,3.27C81.084,7.072,78.943,9.1,74.8,9.1" transform="translate(0.818 10.81)" fill="#efb499"/>
            <path id="Trazado_873378" data-name="Trazado 873378" d="M74.8,9.1c-4.139,0-6.28-2.03-8.17-3.821-1.855-1.756-3.452-3.27-6.792-3.27s-4.937,1.514-6.789,3.27C51.164,7.069,49.023,9.1,44.881,9.1s-6.28-2.03-8.169-3.821c-1.855-1.756-3.452-3.27-6.792-3.27s-4.937,1.514-6.789,3.267C21.245,7.069,19.1,9.1,14.962,9.1S8.678,7.069,6.789,5.278C4.937,3.522,3.34,2.007,0,2.007V0C4.139,0,6.283,2.03,8.17,3.821c1.855,1.756,3.452,3.27,6.792,3.27S19.9,5.577,21.75,3.821C23.64,2.03,25.781,0,29.92,0s6.28,2.03,8.173,3.821c1.852,1.756,3.449,3.27,6.789,3.27s4.937-1.514,6.792-3.27C53.563,2.03,55.7,0,59.843,0s6.28,2.03,8.17,3.821c1.855,1.756,3.452,3.27,6.792,3.27s4.937-1.514,6.792-3.27C83.486,2.03,85.627,0,89.769,0V2.007c-3.344,0-4.941,1.514-6.8,3.27C81.084,7.069,78.943,9.1,74.8,9.1" transform="translate(0 0.003)" fill="#efb499"/>
          </g>
        </g>
      </g>
      <circle id="Elipse_11504" data-name="Elipse 11504" cx="50.5" cy="50.5" r="50.5" transform="translate(402.668 6031)" fill="#ffce73"/>
      <circle id="Elipse_11503" data-name="Elipse 11503" cx="52.5" cy="52.5" r="52.5" transform="translate(395.668 6021)" fill="#f3f9ff"/>
    </g>
    <g id="Enmascarar_grupo_1098768" data-name="Enmascarar grupo 1098768" transform="translate(546.223 1751)" clip-path="url(#clip-path-3)">
      <g id="Grupo_1118415" data-name="Grupo 1118415" transform="translate(-2681.132 2541.709)">
        <path id="Trazado_905723" data-name="Trazado 905723" d="M3366.549,801.584a.219.219,0,0,1,.074.155h-2.051a8.573,8.573,0,0,1,.024,3.958q-10.9.01-21.808.023c-.836,0-1.311-.333-1.265-1.226.007-.131,0-.262,0-.393-.008-2.088-.008-2.087,2-2.37.085-.012.16-.1.24-.15.917,0,1.84-.061,2.75.023.981.09,1.18-.3,1.177-1.217-.031-8.519-.015-17.038-.012-25.557h14.944q0,8.408.008,16.816c0,3.016.017,6.032-.012,9.047-.006.674.184.941.886.906C3364.515,801.548,3365.533,801.584,3366.549,801.584Zm-11.422-14.539a3.849,3.849,0,0,0,3.964-3.958,3.944,3.944,0,0,0-7.888-.04A3.849,3.849,0,0,0,3355.127,787.045Z" transform="translate(-68.273 -130.906)" fill="#c6865b"/>
        <path id="Trazado_905724" data-name="Trazado 905724" d="M3452.6,801.547c-1.016,0-2.034-.036-3.048.015-.7.035-.893-.232-.886-.906.029-3.016.014-6.031.012-9.047q0-8.408-.008-16.816l5.052-.009Q3453.161,788.165,3452.6,801.547Z" transform="translate(-154.324 -130.869)" fill="#b36d3d"/>
        <path id="Trazado_905725" data-name="Trazado 905725" d="M3352.171,774.792c0,8.519-.019,17.038.012,25.557,0,.918-.2,1.307-1.177,1.217-.91-.083-1.833-.021-2.75-.023-.187-3.985-.391-7.97-.559-11.957-.208-4.934-.387-9.869-.579-14.8Z" transform="translate(-72.769 -130.869)" fill="#b36d3d"/>
        <path id="Trazado_905726" data-name="Trazado 905726" d="M3522.434,704.9c1.5,3.791,3.016,7.578,4.5,11.377a1.565,1.565,0,0,1-.274,1.651c-1.622,1.965-3.209,3.958-4.823,5.928-.911,1.112-1.789,1.01-2.527-.258-.508-.873-1.028-1.739-1.542-2.608q.016-5.683.032-11.367a1.906,1.906,0,0,0,.5-.283c.946-1.025,1.861-2.079,2.817-3.094C3521.542,705.793,3521.753,705.115,3522.434,704.9Z" transform="translate(-209.82 -74.748)" fill="#ffb937"/>
        <path id="Trazado_905727" data-name="Trazado 905727" d="M3332.009,738.552c-.779,0-1.557,0-2.336,0a1.008,1.008,0,0,1-.99-.481,4.106,4.106,0,0,1,.463-3.447l1.779-.076,3.867.015,3.008,0h11.814l1.949.01,3.058-.008,1.674.061a3.707,3.707,0,0,1,.175,3.9l-4.305.03h-14.976Z" transform="translate(-57.803 -98.555)" fill="#c6865b"/>
        <path id="Trazado_905728" data-name="Trazado 905728" d="M3304.884,631.5q.008,19.016.017,38.032.007,9.631.025,19.262l-1.833.008q0-13.383.01-26.766l-.016-14.123q.014-6.514.028-13.028a.648.648,0,0,0-.16-.542,13.32,13.32,0,0,0,.2-2.86A4.643,4.643,0,0,0,3304.884,631.5Z" transform="translate(-37.301 -15.781)" fill="#c5d2dc"/>
        <path id="Trazado_905729" data-name="Trazado 905729" d="M3510.358,650.659q-.016,5.684-.032,11.367,0,13.386.009,26.772l-1.833-.008c.009-.458.025-.917.025-1.375q0-27.272,0-54.544c0-.458.011-.917.017-1.375a4.617,4.617,0,0,0,1.732-.017,13.31,13.31,0,0,0,.2,2.861,1.479,1.479,0,0,0-.153.444Q3510.331,642.722,3510.358,650.659Z" transform="translate(-202.38 -15.779)" fill="#c5d2dc"/>
        <path id="Trazado_905730" data-name="Trazado 905730" d="M3265.786,714.933q.008,7.061.016,14.123c-.548.928-1.091,1.858-1.644,2.782a1.288,1.288,0,0,1-2.306.21c-1.664-2.022-3.3-4.068-4.963-6.087a1.5,1.5,0,0,1-.268-1.565,12.663,12.663,0,0,1,1.122-2.6.878.878,0,0,0,.649-.16c1.178-.978,2.4-1.911,3.528-2.941C3263.248,717.484,3264.5,716.19,3265.786,714.933Z" transform="translate(0 -82.803)" fill="#ffb937"/>
        <path id="Trazado_905731" data-name="Trazado 905731" d="M3379.446,630.97a6.412,6.412,0,0,1,.686-7.762,6.179,6.179,0,0,1,7.821-1.139,5.332,5.332,0,0,0,.164.562,6.414,6.414,0,0,1-7.572,8.489C3380.191,631.028,3379.854,630.7,3379.446,630.97Z" transform="translate(-97.929 -7.481)" fill="#fdd1a4"/>
        <path id="Trazado_905732" data-name="Trazado 905732" d="M3270.816,659.577c-1.286,1.258-2.538,2.551-3.867,3.761-1.131,1.03-2.35,1.963-3.528,2.941a.877.877,0,0,1-.649.16c.774-2.529,1.864-4.938,2.815-7.4,1.682-4.351,3.4-8.69,5.1-13.034a.648.648,0,0,1,.16.542Q3270.831,653.063,3270.816,659.577Z" transform="translate(-5.03 -27.447)" fill="#ffce73"/>
        <path id="Trazado_905733" data-name="Trazado 905733" d="M3369.39,697.736h-3.968a17.22,17.22,0,0,0-.025-2.047c-.064-.519-.319-1.055-.972-1.032-.676.023-.945.492-.949,1.127,0,.651,0,1.3.006,1.953l-3.008,0c0-1.375-.042-2.751.019-4.123a5.522,5.522,0,0,1,2.845-4.646,1.074,1.074,0,0,1,.917-.237c.356.582.7,1.171,1.071,1.743,1.561,2.4,2.616,2.394,4.033-.013Q3369.374,694.1,3369.39,697.736Z" transform="translate(-83.485 -61.733)" fill="#0774cd"/>
        <path id="Trazado_905734" data-name="Trazado 905734" d="M3383.526,634.732c.408-.274.746.058,1.1.15a6.414,6.414,0,0,0,7.572-8.489,5.391,5.391,0,0,1-.164-.562,5.57,5.57,0,0,1,3.161,4.73c.3,2.709-.679,5.539-4.787,7.064h-3.051A6.813,6.813,0,0,1,3383.526,634.732Z" transform="translate(-102.009 -11.243)" fill="#febd87"/>
        <path id="Trazado_905735" data-name="Trazado 905735" d="M3517.777,662.329q-.022-7.937-.038-15.875a1.478,1.478,0,0,1,.153-.444l4.52,11.595c-.681.212-.892.89-1.323,1.347-.956,1.015-1.872,2.069-2.817,3.094A1.906,1.906,0,0,1,3517.777,662.329Z" transform="translate(-209.799 -27.449)" fill="#ffce73"/>
        <path id="Trazado_905736" data-name="Trazado 905736" d="M3384.311,685.737h3.051c1.241.128,2.5-.156,3.737.2a1.464,1.464,0,0,1,.841.411l-.825,1.469c-.187.263-.383.522-.562.791-1.162,1.747-2.542,1.667-3.511-.2-.058-.113-.135-.216-.2-.323a6.963,6.963,0,0,0-1.078-2.138l-.922,2.138c-1.417,2.408-2.472,2.414-4.033.013-.371-.571-.715-1.161-1.071-1.743a3.207,3.207,0,0,1,2.166-.592C3382.7,685.746,3383.507,685.745,3384.311,685.737Z" transform="translate(-98.964 -59.354)" fill="#daf2fa"/>
        <path id="Trazado_905737" data-name="Trazado 905737" d="M3437.537,690.125l.825-1.469c.395-.151.693.081.993.264a5.792,5.792,0,0,1,2.853,5.129c.029,1.2,0,2.41,0,3.616l-3.058.008c0-.357,0-.715,0-1.072-.006-.736.146-1.517-.592-2.041.311-.3.122-.642.114-.987C3438.639,692.3,3437.886,691.282,3437.537,690.125Z" transform="translate(-145.387 -61.661)" fill="#066ac5"/>
        <path id="Trazado_905738" data-name="Trazado 905738" d="M3468.635,687.348c0-2.022-.017-4.044.014-6.065a3.163,3.163,0,0,0-1.631-3.177,8.11,8.11,0,0,1-1.321-1.128,3.182,3.182,0,0,0,1.016-1.184,5.191,5.191,0,0,1,3.706,4.654c.012,2.326,0,4.652,0,6.978Z" transform="translate(-168.002 -51.369)" fill="#c5d2dc"/>
        <path id="Trazado_905739" data-name="Trazado 905739" d="M3333.576,687.361l-1.779.077c0-2.328-.017-4.656-.012-6.984a3.965,3.965,0,0,1,1.831-3.49c.613-.407,1.057-1.09,1.875-1.17a3.244,3.244,0,0,0,1.017,1.187,9.272,9.272,0,0,1-1.811,1.462,2.681,2.681,0,0,0-1.13,2.257C3333.561,682.92,3333.571,685.141,3333.576,687.361Z" transform="translate(-60.454 -51.369)" fill="#c5d2dc"/>
        <path id="Trazado_905740" data-name="Trazado 905740" d="M3346.391,754.889l5.181,0q.008,1.961.016,3.922h0l-5.053-.009Q3346.463,756.847,3346.391,754.889Z" transform="translate(-72.186 -114.892)" fill="#995e34"/>
        <path id="Trazado_905741" data-name="Trazado 905741" d="M3448.7,754.785l4.305-.03.885.046q-.077,1.949-.153,3.9l-5.052.009h0Q3448.7,756.746,3448.7,754.785Z" transform="translate(-154.342 -114.785)" fill="#995e34"/>
        <path id="Trazado_905742" data-name="Trazado 905742" d="M3470.809,738.516l-.885-.046a3.709,3.709,0,0,0-.175-3.9l2.14-.088,1.779.077a4.258,4.258,0,0,1,.488,3.465,1.04,1.04,0,0,1-1,.486C3472.373,738.506,3471.591,738.512,3470.809,738.516Z" transform="translate(-171.257 -98.5)" fill="#b36d3d"/>
        <path id="Trazado_905743" data-name="Trazado 905743" d="M3458.631,915.447a8.576,8.576,0,0,0-.024-3.958h2.051c.229,0,.457-.007.686,0,1.276.016,1.467.209,1.483,1.493.031,2.491.031,2.492-2.434,2.49C3459.806,915.467,3459.219,915.454,3458.631,915.447Z" transform="translate(-162.308 -240.656)" fill="#b36d3d"/>
        <path id="Trazado_905744" data-name="Trazado 905744" d="M3301.387,615.734a4.645,4.645,0,0,1-1.733-.017,2.691,2.691,0,0,1-1.03-1.5,2.018,2.018,0,0,1,1.293-2.268,2.051,2.051,0,0,1,2.414,1.02,1.926,1.926,0,0,1-.575,2.446C3301.631,615.52,3301.509,615.628,3301.387,615.734Z" transform="translate(-33.803 -0.017)" fill="#fddf76"/>
        <path id="Trazado_905745" data-name="Trazado 905745" d="M3505.623,615.7a4.616,4.616,0,0,1-1.732.017c-1.318-1.1-1.537-2.166-.651-3.156a1.911,1.911,0,0,1,2.789-.229,2.006,2.006,0,0,1,.156,2.82C3506.013,615.349,3505.811,615.518,3505.623,615.7Z" transform="translate(-197.726)" fill="#fddf76"/>
        <path id="Trazado_905746" data-name="Trazado 905746" d="M3295.824,922.583l1.833-.008c.361.006.721.023,1.082.017.492-.007.833.151.864.705s-.171,1.03-.77,1.052c-1.342.048-2.688.042-4.031,0a.87.87,0,0,1-.9-.969c.023-.55.4-.786.936-.788C3295.168,922.593,3295.5,922.587,3295.824,922.583Z" transform="translate(-30.032 -249.564)" fill="#b6c4cf"/>
        <path id="Trazado_905747" data-name="Trazado 905747" d="M3500.545,922.573l1.833.008c.361,0,.722,0,1.082.017a.787.787,0,0,1,.841.782.8.8,0,0,1-.71.923c-1.438.064-2.882.08-4.32.023-.531-.021-.705-.511-.672-1.032.035-.555.373-.712.865-.7C3499.824,922.6,3500.185,922.58,3500.545,922.573Z" transform="translate(-194.423 -249.562)" fill="#b6c4cf"/>
        <path id="Trazado_905748" data-name="Trazado 905748" d="M3457.51,667.805a3.182,3.182,0,0,1-1.016,1.184,1.933,1.933,0,0,1-1.814-.439,1.559,1.559,0,0,1-.306-1.726,1.594,1.594,0,0,1,2.914-.059A5.044,5.044,0,0,1,3457.51,667.805Z" transform="translate(-158.8 -43.381)" fill="#79707b"/>
        <path id="Trazado_905749" data-name="Trazado 905749" d="M3351.627,668.947a3.241,3.241,0,0,1-1.017-1.187,5.736,5.736,0,0,1,.113-.77,1.6,1.6,0,0,1,3.138.55,1.521,1.521,0,0,1-1.552,1.442C3352.082,668.993,3351.854,668.961,3351.627,668.947Z" transform="translate(-75.574 -43.336)" fill="#79707b"/>
        <path id="Trazado_905750" data-name="Trazado 905750" d="M3387.68,754.907q-.008,1.961-.016,3.922H3372.72q-.008-1.961-.016-3.922Z" transform="translate(-93.318 -114.907)" fill="#b36d3d"/>
        <path id="Trazado_905751" data-name="Trazado 905751" d="M3394.626,804.686a3.849,3.849,0,0,1-3.924-4,3.944,3.944,0,0,1,7.888.04A3.849,3.849,0,0,1,3394.626,804.686Z" transform="translate(-107.772 -148.548)" fill="#fddf76"/>
        <path id="Trazado_905752" data-name="Trazado 905752" d="M3419.967,696.316c.349,1.157,1.1,2.177,1.132,3.448.008.344.2.686-.114.987-.984-.079-1.321.514-1.364,1.359-.03.58,0,1.162.006,1.744h-3.968q.016-3.637.031-7.274c.068.107.146.21.2.323.969,1.872,2.349,1.952,3.511.2C3419.584,696.838,3419.779,696.579,3419.967,696.316Z" transform="translate(-127.816 -67.851)" fill="#0774cd"/>
        <path id="Trazado_905753" data-name="Trazado 905753" d="M3407.658,688.939q-.015,3.637-.03,7.274h-1.939q-.015-3.637-.03-7.274l.922-2.138A6.964,6.964,0,0,1,3407.658,688.939Z" transform="translate(-119.785 -60.209)" fill="#0258a6"/>
        <path id="Trazado_905754" data-name="Trazado 905754" d="M3375.777,722.04c0-.651-.01-1.3-.006-1.953,0-.635.273-1.1.949-1.127.653-.022.908.513.972,1.032a17.117,17.117,0,0,1,.025,2.047Z" transform="translate(-95.78 -86.037)" fill="#0258a6"/>
        <path id="Trazado_905755" data-name="Trazado 905755" d="M3435.737,721.915c0-.581-.036-1.164-.006-1.744.043-.846.38-1.438,1.364-1.359.738.524.586,1.306.592,2.041,0,.357,0,.715,0,1.072Z" transform="translate(-143.926 -85.912)" fill="#0258a6"/>
      </g>
    </g>
  </g>
</svg>
