<svg xmlns="http://www.w3.org/2000/svg" xmlns:xlink="http://www.w3.org/1999/xlink" width="70" height="70" viewBox="0 0 70 70">
  <defs>
    <clipPath id="clip-path">
      <rect id="Rectángulo_401141" data-name="Rectángulo 401141" width="46" height="48" transform="translate(275.75 971.833)" fill="#fff" stroke="#707070" stroke-width="1"/>
    </clipPath>
  </defs>
  <g id="Grupo_1104809" data-name="Grupo 1104809" transform="translate(-269 -958)">
    <circle id="Elipse_5614" data-name="Elipse 5614" cx="35" cy="35" r="35" transform="translate(269 958)" fill="#fff"/>
    <g id="Enmascarar_grupo_1098690" data-name="Enmascarar grupo 1098690" transform="translate(5.25 -2.833)" clip-path="url(#clip-path)">
      <g id="Grupo_1104815" data-name="Grupo 1104815" transform="translate(102.514 698.746)">
        <path id="Trazado_896348" data-name="Trazado 896348" d="M232.132,486.446a4.988,4.988,0,0,1-1.213,2.635,3,3,0,0,0-.729,2.011c-.015,1.529-.126,3.057-.209,4.585a4.211,4.211,0,0,1-3.842,4.053,69.329,69.329,0,0,1-7.093.005,4.165,4.165,0,0,1-3.806-3.931c-.1-1.67-.157-3.344-.179-5.016a1.41,1.41,0,0,1,.392-.91c1.047-1.049,2.127-2.065,3.222-3.064a1.457,1.457,0,0,1,.854-.412c4.065-.026,8.131-.017,12.2-.014A3.146,3.146,0,0,1,232.132,486.446Z" transform="translate(-28.491 -181.04)" fill="#6a4d23"/>
        <path id="Trazado_896349" data-name="Trazado 896349" d="M199.613,388.517c.082-2.692.115-5.386.262-8.074.129-2.363.091-2.188,2.429-2.948q1.158-.376,2.3-.8a.943.943,0,0,1,1.239.365c.906,1.233,1.842,2.444,2.767,3.663.6.79.95.793,1.537.018.924-1.22,1.862-2.43,2.765-3.664a.98.98,0,0,1,1.3-.355c1.144.417,2.3.787,3.458,1.175a1.427,1.427,0,0,1,1.086,1.421c.057,1.479.185,2.956.24,4.435a1.444,1.444,0,0,1-1.648,1.707c-4.5,0-8.994.007-13.491-.01a1.554,1.554,0,0,0-1.2.479c-.915.906-1.866,1.776-2.8,2.66Z" transform="translate(-15.262 -87.018)" fill="#6a4d23"/>
        <path id="Trazado_896350" data-name="Trazado 896350" d="M235.995,281.267a6.528,6.528,0,0,1-6.291,6.375,6.7,6.7,0,0,1-6.418-6.385,6.461,6.461,0,0,1,6.383-6.272A6.35,6.35,0,0,1,235.995,281.267Z" transform="translate(-35.536 0)" fill="#6a4d23"/>
        <path id="Trazado_896351" data-name="Trazado 896351" d="M182.953,396.46l-1.161-1.258c.465-.439.88-.826,1.29-1.218,1.763-1.686,3.536-3.362,5.28-5.067a1.821,1.821,0,0,1,1.392-.569c4.569.019,9.137,0,13.706.024a1.546,1.546,0,0,0,1.331-.64c2.136-2.609,4.3-5.2,6.446-7.8a1.323,1.323,0,0,0,.311-.73l-3.939.662c-.065-.09-.127-.141-.143-.2-.366-1.41-.366-1.414,1.068-1.677,1.713-.314,3.431-.6,5.139-.942.5-.1.7.055.772.533.293,1.91.617,3.816.9,5.728a.985.985,0,0,1-1.382,1.007c-.126-.055-.212-.295-.242-.462-.152-.845-.276-1.7-.418-2.542-.038-.227-.105-.449-.2-.824-.334.365-.578.611-.8.877q-3.39,4.086-6.766,8.183a1.413,1.413,0,0,1-1.221.57c-4.617-.019-9.233,0-13.849-.023a1.909,1.909,0,0,0-1.455.592C187.041,392.6,185.038,394.478,182.953,396.46Z" transform="translate(0 -87.379)" fill="#6a4d23"/>
      </g>
    </g>
  </g>
</svg>
