<svg xmlns="http://www.w3.org/2000/svg" width="131" height="131" viewBox="0 0 131 131">
  <g id="Grupo_1100287" data-name="Grupo 1100287" transform="translate(-345 -7528)">
    <g id="Grupo_156312" data-name="Grupo 156312" transform="translate(344 7528)">
      <path id="Elipse_5845" data-name="Elipse 5845" d="M65.5,0A65.5,65.5,0,1,1,0,65.5,65.5,65.5,0,0,1,65.5,0Z" transform="translate(1 0)" fill="#ffce73"/>
    </g>
    <g id="Grupo_1119615" data-name="Grupo 1119615" transform="translate(-2949.956 6267.186)">
      <path id="Trazado_906221" data-name="Trazado 906221" d="M3367.791,1480.542c2.241,0,4.156,0,6.071,0a3.032,3.032,0,0,1,1.244.05c.424.212,1.042.7,1.009,1.007a2.058,2.058,0,0,1-.968,1.214c-.3.193-.817.063-1.237.064q-25.155,0-50.31,0c-2.745,0-3.527-.828-3.382-3.571a40.38,40.38,0,0,1,79.5-7.285,54.829,54.829,0,0,1,1.141,7.959c.188,1.914-.84,2.887-2.783,2.892-5.674.014-11.348,0-17.022.009-.883,0-1.677-.159-1.648-1.244.028-1.03.825-1.1,1.639-1.1,2.69.011,5.38,0,8.069,0h1.544c-.755-10.3-5.077-18.439-13.6-23.937-10.386-6.695-21.233-6.853-31.927-.714a29.136,29.136,0,0,0-14.534,24.6c.393.017.795.051,1.2.051,6.851,0,13.7-.005,20.552.013.741,0,1.169-.092,1.448-.951a7.081,7.081,0,0,1,6.937-5.034,2.86,2.86,0,0,0,1.632-.689c3.873-3.357,7.7-6.768,11.556-10.146,1.586-1.39,3.462-1.43,4.739-.154,1.317,1.317,1.273,3.129-.144,4.741q-4.786,5.444-9.588,10.873C3368.608,1479.554,3368.306,1479.93,3367.791,1480.542Zm16.3-21.219a32.867,32.867,0,0,1,8.954,21.219h5.363c.665-7.479-5.27-21.541-10.472-25.042Zm-51.1-3.906a37.917,37.917,0,0,0-10.423,25.047h5.509a33.545,33.545,0,0,1,2.534-11.365,33.018,33.018,0,0,1,6.313-9.68Zm5.765,2.167c.69-.562,1.354-1.142,2.056-1.67a32.165,32.165,0,0,1,17.511-6.615c.351-.024.963-.374.974-.6.084-1.618.045-3.242.045-5.008a37.969,37.969,0,0,0-24.507,9.929Zm23-13.881c0,1.61.049,2.994-.017,4.372-.043.9.236,1.151,1.167,1.294a60.969,60.969,0,0,1,8.106,1.622,30.077,30.077,0,0,1,11.324,6.606l3.942-3.975A37.873,37.873,0,0,0,3361.747,1443.7Zm5.238,34.1c3.16-3.578,6.51-7.342,9.8-11.157.25-.29.085-.937.114-1.419-.445.069-1.018-.017-1.313.23-2,1.673-3.937,3.412-5.89,5.137-1.818,1.605-3.629,3.219-5.338,4.735Zm-10.911,2.617h8.938a4.627,4.627,0,0,0-8.938,0Z" transform="translate(-0.089 -116.216)" fill="#7d3a1b"/>
      <path id="Trazado_906222" data-name="Trazado 906222" d="M3354.2,1304.722c-2.594,2.66-5.113,5.3-7.694,7.877q-10.08,10.069-20.225,20.075a5.48,5.48,0,0,1-2.323,1.37,3.186,3.186,0,0,1-3.475-1.721,3.225,3.225,0,0,1,.561-3.842c2.14-2.2,4.329-4.347,6.5-6.511q11.17-11.118,22.347-22.231c2.931-2.912,5.985-2.9,8.911,0q5.326,5.285,10.635,10.588a6.321,6.321,0,0,1,.751,1.208l18.6-18.868c-1,0-2.1.059-3.2-.012-2.76-.18-4.3-2.728-3.027-4.979a3.105,3.105,0,0,1,2.758-1.719c4.077-.035,8.156-.056,12.232,0a3.252,3.252,0,0,1,3.256,3.455q.045,5.8,0,11.6a3.433,3.433,0,0,1-3.341,3.553,3.472,3.472,0,0,1-3.4-3.386c-.07-1.12-.012-2.248-.012-3.631-.465.4-.748.611-1,.858q-3.671,3.639-7.334,7.287c-.179.178-.357.356-.541.529-.574.542-1.3.708-1.728.027a1.715,1.715,0,0,1,.075-1.625q4.876-5.016,9.918-9.867a1.954,1.954,0,0,1,1.8-.309,2.575,2.575,0,0,1,1.151,1.72,40.837,40.837,0,0,1,.061,4.534c0,.72.094,1.518,1.012,1.338a1.683,1.683,0,0,0,.964-1.28c.078-3.7.043-7.4.044-11.1a1.235,1.235,0,0,0-1.4-1.395c-3.741,0-7.483-.035-11.223.046a1.676,1.676,0,0,0-1.262,1c-.121.771.589.965,1.3.958,1.471-.015,2.943,0,4.414,0,.918-.006,1.821.243,1.951,1.2a2.814,2.814,0,0,1-.583,2.1q-9.585,9.673-19.291,19.226c-1.264,1.251-2.58,1.21-3.867-.064q-5.689-5.633-11.35-11.294c-2.025-2.015-3.6-2.021-5.627,0q-14.084,14-28.163,28.009c-.238.237-.572.452-.666.74-.113.351-.173.939.023,1.117a1.429,1.429,0,0,0,1.2.237c.4-.131.712-.561,1.039-.885q13.462-13.376,26.917-26.758c1.967-1.955,2.962-1.948,4.956.038q5.45,5.426,10.9,10.851c1.89,1.879,3.541,1.891,5.437.026q2.966-2.918,5.906-5.865c.608-.607,1.285-1.146,2.039-.36.723.755.248,1.443-.378,2.059-2.065,2.035-4.095,4.107-6.175,6.128a5.509,5.509,0,0,1-8.2-.019c-3.719-3.652-7.4-7.342-11.1-11.013C3354.992,1305.456,3354.682,1305.179,3354.2,1304.722Z" transform="translate(0 0)" fill="#7d3a1b"/>
    </g>
  </g>
</svg>
