<svg xmlns="http://www.w3.org/2000/svg" width="190" height="138" viewBox="0 0 190 138">
  <g id="Grupo_1104197" data-name="Grupo 1104197" transform="translate(-1125 -1893)">
    <rect id="Rectángulo_405471" data-name="Rectángulo 405471" width="190" height="138" transform="translate(1125 1893)" fill="none"/>
    <g id="Grupo_1104851" data-name="Grupo 1104851" transform="translate(1017.34 1756.913)">
      <g id="Grupo_1104834" data-name="Grupo 1104834" transform="translate(150.667 160.922)">
        <g id="Grupo_1104823" data-name="Grupo 1104823" transform="translate(17.176)">
          <g id="Grupo_1104822" data-name="Grupo 1104822">
            <path id="Trazado_896364" data-name="Trazado 896364" d="M183.016,197.621l-30.9-36.831a46.216,46.216,0,0,1,30.9-11.246Z" transform="translate(-152.113 -149.543)" fill="#6a4d23"/>
          </g>
        </g>
        <g id="Grupo_1104825" data-name="Grupo 1104825" transform="translate(0 11.246)">
          <g id="Grupo_1104824" data-name="Grupo 1104824">
            <path id="Trazado_896365" data-name="Trazado 896365" d="M191.538,192.041l-30.9,36.829a48.079,48.079,0,0,1-5.928-67.735,45.814,45.814,0,0,1,5.928-5.926Z" transform="translate(-143.458 -155.21)" fill="#648c00"/>
          </g>
        </g>
        <g id="Grupo_1104827" data-name="Grupo 1104827" transform="translate(17.176 48.078)">
          <g id="Grupo_1104826" data-name="Grupo 1104826">
            <path id="Trazado_896366" data-name="Trazado 896366" d="M183.016,173.769l30.9,36.829a47.7,47.7,0,0,1-61.807,0Z" transform="translate(-152.113 -173.769)" fill="#96b400"/>
          </g>
        </g>
        <g id="Grupo_1104829" data-name="Grupo 1104829" transform="translate(48.08 48.078)">
          <g id="Grupo_1104828" data-name="Grupo 1104828">
            <path id="Trazado_896367" data-name="Trazado 896367" d="M167.685,173.769l47.345,8.347A46.218,46.218,0,0,1,198.588,210.6Z" transform="translate(-167.685 -173.769)" fill="#09614d"/>
          </g>
        </g>
        <g id="Grupo_1104831" data-name="Grupo 1104831" transform="translate(48.08 24.039)">
          <g id="Grupo_1104830" data-name="Grupo 1104830">
            <path id="Trazado_896368" data-name="Trazado 896368" d="M167.685,185.695l41.636-24.039a46.212,46.212,0,0,1,5.71,32.386Z" transform="translate(-167.685 -161.656)" fill="#ffc800"/>
          </g>
        </g>
        <g id="Grupo_1104833" data-name="Grupo 1104833" transform="translate(48.08)">
          <g id="Grupo_1104832" data-name="Grupo 1104832">
            <path id="Trazado_896369" data-name="Trazado 896369" d="M167.685,197.621V149.543a46.886,46.886,0,0,1,41.636,24.039Z" transform="translate(-167.685 -149.543)" fill="#efb499"/>
          </g>
        </g>
      </g>
      <g id="Grupo_1104835" data-name="Grupo 1104835" transform="translate(230.529 137.986)">
        <rect id="Rectángulo_405649" data-name="Rectángulo 405649" width="3.453" height="19.969" fill="#efb499"/>
        <rect id="Rectángulo_405650" data-name="Rectángulo 405650" width="3.453" height="17.85" transform="translate(4.693 2.118)" fill="#ffc800"/>
        <rect id="Rectángulo_405651" data-name="Rectángulo 405651" width="3.454" height="12.279" transform="translate(9.384 7.689)" fill="#09614d"/>
        <rect id="Rectángulo_405652" data-name="Rectángulo 405652" width="3.454" height="15.81" transform="translate(14.076 4.159)" fill="#96b400"/>
      </g>
      <g id="Grupo_1104837" data-name="Grupo 1104837" transform="translate(213.093 159.229)">
        <path id="Trazado_896370" data-name="Trazado 896370" d="M176.5,169.814l-.862-.49,11.719-20.633H214.1v.992H187.934Z" transform="translate(-174.202 -148.69)" fill="#646464"/>
        <g id="Grupo_1104836" data-name="Grupo 1104836" transform="translate(0 19.013)">
          <path id="Trazado_896371" data-name="Trazado 896371" d="M178.4,161.058a1.865,1.865,0,1,1-.7-2.544A1.865,1.865,0,0,1,178.4,161.058Z" transform="translate(-174.914 -158.27)" fill="#646464"/>
        </g>
      </g>
      <rect id="Rectángulo_405653" data-name="Rectángulo 405653" width="32.909" height="16.993" rx="1" transform="translate(237.567 191.54)" fill="#09614d"/>
      <g id="Grupo_1104838" data-name="Grupo 1104838" transform="translate(240.935 194.31)">
        <rect id="Rectángulo_405654" data-name="Rectángulo 405654" width="8.744" height="1.985" fill="#fff"/>
        <rect id="Rectángulo_405655" data-name="Rectángulo 405655" width="9.613" height="1.985" transform="translate(10.729)" fill="#fff"/>
        <rect id="Rectángulo_405656" data-name="Rectángulo 405656" width="3.845" height="1.985" transform="translate(22.326)" fill="#fff"/>
        <rect id="Rectángulo_405657" data-name="Rectángulo 405657" width="13.148" height="1.985" transform="translate(0 4.465)" fill="#fff"/>
        <rect id="Rectángulo_405658" data-name="Rectángulo 405658" width="11.039" height="1.985" transform="translate(15.132 4.465)" fill="#fff"/>
        <rect id="Rectángulo_405659" data-name="Rectángulo 405659" width="7.318" height="1.985" transform="translate(0 8.93)" fill="#fff"/>
        <rect id="Rectángulo_405660" data-name="Rectángulo 405660" width="11.723" height="1.985" transform="translate(9.303 8.93)" fill="#fff"/>
        <rect id="Rectángulo_405661" data-name="Rectángulo 405661" width="3.161" height="1.985" transform="translate(23.01 8.93)" fill="#fff"/>
      </g>
      <g id="Grupo_1104840" data-name="Grupo 1104840" transform="translate(213.776 251.366)">
        <path id="Trazado_896372" data-name="Trazado 896372" d="M185.432,210.712l-3.976-8.076-4.983,7.042-1.215-.86,6.429-9.083,3.962,8.049,7.637-11.02,1.223.847Z" transform="translate(-175.258 -193.496)" fill="#b4b4b4"/>
        <g id="Grupo_1104839" data-name="Grupo 1104839" transform="translate(14.666)">
          <path id="Trazado_896373" data-name="Trazado 896373" d="M189.179,195.117a22.439,22.439,0,0,0-.712,7.244l-2.181-3.068-3.638-.962A22.53,22.53,0,0,0,189.179,195.117Z" transform="translate(-182.648 -195.117)" fill="#b4b4b4"/>
        </g>
      </g>
      <g id="Grupo_1104842" data-name="Grupo 1104842" transform="translate(198.429 242.731)">
        <path id="Trazado_896374" data-name="Trazado 896374" d="M201.238,219.084H177.314l-9.1-27.186.942-.316,8.874,26.509h23.209Z" transform="translate(-166.848 -189.963)" fill="#646464"/>
        <g id="Grupo_1104841" data-name="Grupo 1104841">
          <path id="Trazado_896375" data-name="Trazado 896375" d="M167.622,193.225a1.865,1.865,0,1,1,2.36,1.177A1.865,1.865,0,0,1,167.622,193.225Z" transform="translate(-167.525 -190.766)" fill="#646464"/>
        </g>
      </g>
      <rect id="Rectángulo_405662" data-name="Rectángulo 405662" width="32.909" height="16.993" rx="1" transform="translate(136.136 203.233)" fill="#ffc800"/>
      <g id="Grupo_1104843" data-name="Grupo 1104843" transform="translate(139.504 206.003)">
        <rect id="Rectángulo_405663" data-name="Rectángulo 405663" width="8.744" height="1.985" transform="translate(17.427)" fill="#fff"/>
        <rect id="Rectángulo_405664" data-name="Rectángulo 405664" width="9.613" height="1.985" transform="translate(5.83)" fill="#fff"/>
        <rect id="Rectángulo_405665" data-name="Rectángulo 405665" width="3.845" height="1.985" fill="#fff"/>
        <rect id="Rectángulo_405666" data-name="Rectángulo 405666" width="13.148" height="1.985" transform="translate(13.024 4.465)" fill="#fff"/>
        <rect id="Rectángulo_405667" data-name="Rectángulo 405667" width="11.039" height="1.985" transform="translate(0 4.465)" fill="#fff"/>
        <rect id="Rectángulo_405668" data-name="Rectángulo 405668" width="7.318" height="1.985" transform="translate(18.853 8.93)" fill="#fff"/>
        <rect id="Rectángulo_405669" data-name="Rectángulo 405669" width="11.723" height="1.985" transform="translate(5.146 8.93)" fill="#fff"/>
        <rect id="Rectángulo_405670" data-name="Rectángulo 405670" width="3.161" height="1.985" transform="translate(0 8.93)" fill="#fff"/>
      </g>
      <g id="Grupo_1104845" data-name="Grupo 1104845" transform="translate(153.686 153.771)">
        <path id="Trazado_896376" data-name="Trazado 896376" d="M175.353,163.57l-8.6-16.638H144.979v-.992h22.38l8.875,17.175Z" transform="translate(-144.979 -145.94)" fill="#646464"/>
        <g id="Grupo_1104844" data-name="Grupo 1104844" transform="translate(28.907 15.455)">
          <path id="Trazado_896377" data-name="Trazado 896377" d="M163.068,154.737a1.865,1.865,0,1,1-2.514-.8A1.865,1.865,0,0,1,163.068,154.737Z" transform="translate(-159.545 -153.728)" fill="#646464"/>
        </g>
      </g>
      <g id="Grupo_1104850" data-name="Grupo 1104850" transform="translate(141.283 142.38)">
        <g id="Grupo_1104847" data-name="Grupo 1104847">
          <g id="Grupo_1104846" data-name="Grupo 1104846">
            <path id="Trazado_896378" data-name="Trazado 896378" d="M149.908,151.379l9.044-6.571a11.179,11.179,0,1,1-15.615-2.473,10.707,10.707,0,0,1,6.571-2.135Z" transform="translate(-138.729 -140.2)" fill="#7d3a1b"/>
          </g>
        </g>
        <g id="Grupo_1104849" data-name="Grupo 1104849" transform="translate(11.179)">
          <g id="Grupo_1104848" data-name="Grupo 1104848">
            <path id="Trazado_896379" data-name="Trazado 896379" d="M144.362,151.379V140.2a10.84,10.84,0,0,1,9.044,4.608Z" transform="translate(-144.362 -140.2)" fill="#efb499"/>
          </g>
        </g>
      </g>
      <path id="Trazado_896380" data-name="Trazado 896380" d="M186.436,179.987A12.533,12.533,0,1,1,173.9,167.453,12.534,12.534,0,0,1,186.436,179.987Z" transform="translate(24.844 29.012)" fill="#fff"/>
    </g>
  </g>
</svg>
