<svg xmlns="http://www.w3.org/2000/svg" xmlns:xlink="http://www.w3.org/1999/xlink" width="145" height="145" viewBox="0 0 145 145">
  <defs>
    <clipPath id="clip-path">
      <rect id="Rectángulo_400938" data-name="Rectángulo 400938" width="145" height="145" transform="translate(0 -0.281)" fill="none"/>
    </clipPath>
    <clipPath id="clip-path-2">
      <rect id="Rectángulo_401073" data-name="Rectángulo 401073" width="110.228" height="49.642" fill="#7d3a1b"/>
    </clipPath>
    <clipPath id="clip-path-3">
      <rect id="Rectángulo_405842" data-name="Rectángulo 405842" width="88" height="88" transform="translate(194 9572.789)" fill="#fff" stroke="#707070" stroke-width="1"/>
    </clipPath>
  </defs>
  <g id="Grupo_1117952" data-name="Grupo 1117952" transform="translate(-729 -4406.93)">
    <g id="Grupo_1117907" data-name="Grupo 1117907" transform="translate(554 -5133.789)">
      <g id="Grupo_1099404" data-name="Grupo 1099404" transform="translate(175 9541)">
        <g id="Grupo_1099379" data-name="Grupo 1099379" transform="translate(0 0)">
          <rect id="Rectángulo_401103" data-name="Rectángulo 401103" width="145" height="145" transform="translate(0 -0.281)" fill="none"/>
          <g id="Grupo_1099348" data-name="Grupo 1099348" transform="translate(0.045 0.045)">
            <g id="Grupo_1099282" data-name="Grupo 1099282">
              <g id="Grupo_1099281" data-name="Grupo 1099281" clip-path="url(#clip-path-2)">
                <path id="Trazado_873375" data-name="Trazado 873375" d="M89.413,10.879c-4.947,0-7.506-2.426-9.765-4.567C77.431,4.213,75.522,2.4,71.529,2.4s-5.9,1.814-8.118,3.913c-2.259,2.141-4.814,4.567-9.765,4.567S46.14,8.453,43.881,6.312C41.664,4.213,39.755,2.4,35.763,2.4s-5.9,1.814-8.114,3.913c-2.259,2.141-4.818,4.567-9.765,4.567s-7.51-2.426-9.769-4.567C5.9,4.213,3.993,2.4,0,2.4V0C4.947,0,7.506,2.43,9.765,4.567c2.217,2.1,4.126,3.913,8.118,3.913S23.785,6.67,26,4.571C28.253,2.43,30.816,0,35.763,0s7.51,2.43,9.765,4.567c2.217,2.1,4.126,3.913,8.118,3.913s5.9-1.81,8.118-3.913C64.019,2.43,66.582,0,71.529,0s7.51,2.43,9.765,4.567c2.217,2.1,4.126,3.913,8.118,3.913s5.9-1.81,8.118-3.913C99.786,2.43,102.345,0,107.3,0V2.4c-3.993,0-5.9,1.814-8.118,3.913-2.259,2.141-4.818,4.567-9.765,4.567" transform="translate(2.932 38.763)" fill="#7d3a1b"/>
                <path id="Trazado_873376" data-name="Trazado 873376" d="M89.413,10.879c-4.947,0-7.51-2.426-9.765-4.571C77.431,4.209,75.522,2.4,71.529,2.4s-5.9,1.81-8.118,3.909c-2.255,2.145-4.814,4.571-9.765,4.571s-7.51-2.426-9.765-4.571C41.664,4.209,39.755,2.4,35.763,2.4s-5.9,1.814-8.115,3.909c-2.259,2.145-4.818,4.571-9.765,4.571s-7.51-2.426-9.769-4.571C5.9,4.209,3.993,2.4,0,2.4V0C4.947,0,7.51,2.426,9.765,4.567c2.217,2.1,4.126,3.913,8.118,3.913S23.785,6.67,26,4.567C28.253,2.426,30.816,0,35.763,0s7.51,2.426,9.769,4.567c2.213,2.1,4.122,3.913,8.115,3.913s5.9-1.81,8.118-3.913C64.019,2.426,66.582,0,71.529,0s7.51,2.426,9.765,4.567c2.217,2.1,4.126,3.913,8.118,3.913s5.9-1.81,8.118-3.913C99.79,2.426,102.349,0,107.3,0V2.4c-3.993,0-5.905,1.814-8.122,3.909-2.259,2.145-4.818,4.571-9.765,4.571" transform="translate(1.955 25.842)" fill="#7d3a1b"/>
                <path id="Trazado_873377" data-name="Trazado 873377" d="M89.412,10.879c-4.947,0-7.51-2.426-9.765-4.571C77.431,4.209,75.522,2.4,71.529,2.4s-5.9,1.81-8.118,3.909c-2.255,2.145-4.818,4.571-9.765,4.571s-7.51-2.426-9.765-4.571C41.664,4.209,39.755,2.4,35.763,2.4s-5.9,1.814-8.115,3.909c-2.259,2.145-4.818,4.571-9.765,4.571s-7.51-2.426-9.769-4.571C5.9,4.209,3.993,2.4,0,2.4V0C4.947,0,7.51,2.426,9.765,4.567c2.213,2.1,4.126,3.913,8.118,3.913S23.785,6.67,26,4.567C28.253,2.426,30.816,0,35.763,0s7.51,2.426,9.769,4.567c2.213,2.1,4.122,3.913,8.115,3.913s5.9-1.81,8.118-3.913C64.019,2.426,66.582,0,71.529,0s7.51,2.426,9.765,4.567c2.217,2.1,4.126,3.913,8.118,3.913s5.9-1.81,8.118-3.913C99.79,2.426,102.345,0,107.3,0V2.4c-3.993,0-5.905,1.814-8.122,3.909-2.259,2.145-4.818,4.571-9.765,4.571" transform="translate(0.977 12.921)" fill="#7d3a1b"/>
                <path id="Trazado_873378" data-name="Trazado 873378" d="M89.413,10.875c-4.947,0-7.506-2.426-9.765-4.567C77.431,4.209,75.522,2.4,71.529,2.4s-5.9,1.81-8.115,3.909c-2.259,2.141-4.818,4.567-9.769,4.567S46.14,8.449,43.881,6.308C41.664,4.209,39.755,2.4,35.763,2.4s-5.9,1.81-8.115,3.905c-2.255,2.145-4.818,4.571-9.765,4.571s-7.51-2.426-9.769-4.567C5.9,4.209,3.993,2.4,0,2.4V0C4.947,0,7.51,2.426,9.765,4.567c2.217,2.1,4.126,3.909,8.118,3.909s5.9-1.81,8.115-3.909C28.257,2.426,30.816,0,35.763,0s7.506,2.426,9.769,4.567c2.213,2.1,4.122,3.909,8.115,3.909s5.9-1.81,8.118-3.909C64.023,2.426,66.582,0,71.529,0s7.506,2.426,9.765,4.567c2.217,2.1,4.126,3.909,8.118,3.909s5.9-1.81,8.118-3.909C99.79,2.426,102.349,0,107.3,0V2.4c-4,0-5.905,1.81-8.122,3.909-2.259,2.141-4.818,4.567-9.765,4.567" transform="translate(0 0.004)" fill="#7d3a1b"/>
              </g>
            </g>
          </g>
          <path id="Trazado_873425" data-name="Trazado 873425" d="M60.362,0A60.362,60.362,0,1,1,0,60.362,60.362,60.362,0,0,1,60.362,0Z" transform="translate(17.974 21.56)" fill="#efb499"/>
          <circle id="Elipse_11503" data-name="Elipse 11503" cx="63" cy="63" r="63" transform="translate(9 9.719)" fill="#fef7eb"/>
        </g>
      </g>
    </g>
    <g id="Enmascarar_grupo_1098748" data-name="Enmascarar grupo 1098748" transform="translate(564 -5131.789)" clip-path="url(#clip-path-3)">
      <g id="Grupo_1117949" data-name="Grupo 1117949" transform="translate(-356.429 8188)">
        <path id="Trazado_904302" data-name="Trazado 904302" d="M579.941,1461.1h3.711v-1.5q0-6.9,0-13.806c0-1.755.286-2.033,2.013-2.038q2.3-.007,4.6,0c1.844,0,2.11.255,2.112,2.064q.009,6.9,0,13.806v1.451h3.643c.022-.458.063-.933.064-1.41q.006-11.816,0-23.632c0-2.016.214-2.229,2.193-2.232q2.177,0,4.354,0c1.961,0,2.182.226,2.182,2.244q0,9.079,0,18.159v6.888h5.138a1.536,1.536,0,0,0-.179-.4,9.361,9.361,0,0,1-1.418-10.876c.934-1.988,2.49-3.678,3.7-5.544a2.153,2.153,0,0,0,.333-1.483c-.3-1.285-.835-2.516-1.137-3.8a2.064,2.064,0,0,1,.233-1.666,2.016,2.016,0,0,1,1.651-.081,2.785,2.785,0,0,0,2.817-.127,1.484,1.484,0,0,1,1.38.025,2.722,2.722,0,0,0,2.7.129c.529-.164,1.407-.276,1.658.006a2.237,2.237,0,0,1,.273,1.767c-.352,1.443-1.376,2.912-1.191,4.24.171,1.236,1.567,2.3,2.4,3.451.406.564.755,1.168,1.22,1.895-1.622.171-3.072.445-3.9-1.288-.139-.289-.465-.485-.623-.769-1.1-1.966-2.962-1.6-4.715-1.557a.711.711,0,0,0-.441.19c-2.58,2.551-4.823,5.313-4.891,9.172a6.7,6.7,0,0,0,8.658,6.486,10.2,10.2,0,0,0,.062-1.667,1.408,1.408,0,0,0-.511-.921,3.743,3.743,0,0,1,2.066-7.057c1.659-.01,3.317,0,4.976,0,3.443,0,4.815,1.507,4.5,4.939,2.5,1.927,2.668,2.248,2.535,4.87,1.9.4,1.953.462,1.922,2.461-.277,17.91-13.648,33.988-31.086,37.781a39.954,39.954,0,0,1-46.423-26.04,39.256,39.256,0,0,1-2.1-11.689c-.058-2.167.156-2.372,2.276-2.372h14.5c0-1.967,0-3.853,0-5.739,0-2.969,0-2.969,2.952-2.969,1.327,0,2.654-.008,3.981,0,1.425.012,1.781.346,1.793,1.756C579.955,1456.493,579.941,1458.763,579.941,1461.1Zm-12.418,27.13c8.448,9.531,24.706,14.97,40.1,9,16.841-6.534,23.915-22.428,23.782-33.486H616.629c2.154,1.906,2.25,3.034.539,5.251-.709.918-1.384,1.864-2.133,2.749a10.9,10.9,0,0,0-2.449,6.359,12.18,12.18,0,0,1-1.425,4.918,15.12,15.12,0,0,1-5.914,5.38c-2.277,1.273-4.309.814-5.723-1.349a13.86,13.86,0,0,1-1.779-3.914c-.733-2.726-.212-5.719-1.717-8.307a2.162,2.162,0,0,1-.092-.981c-.041-2.8-1.1-3.874-3.921-3.535a12.013,12.013,0,0,1-6.688-1.412,7.472,7.472,0,0,1-4.167-5.179H564.446a4.292,4.292,0,0,0,1.484,4.058c.742.721,1.559,1.365,2.315,2.072,2.779,2.6,3.186,4.65,1.958,8.273a11.692,11.692,0,0,0-.708,4.348C569.637,1484.745,569.515,1486.774,567.522,1488.231Zm48.466-21.828c-.7-.367-1.278-.662-1.849-.964-.728-.386-1.437-.812-2.184-1.156a4.654,4.654,0,0,0-1.774-.6c-8.369-.039-16.739-.027-25.108-.024-.39,0-.779.039-1.169.06l-.229.314a10.808,10.808,0,0,0,2.024,2.178,9.688,9.688,0,0,0,6.221,1.615c3.455-.353,6.7,1.219,6.525,5.84a4.979,4.979,0,0,0,.213,1.208,51.734,51.734,0,0,1,1.107,5.148,10.98,10.98,0,0,0,1.686,5.494c.865,1.189,1.478,1.4,2.72.614a30.413,30.413,0,0,0,3.058-2.325,7.407,7.407,0,0,0,2.934-5.9,11.788,11.788,0,0,1,2.925-7.727C614.063,1469.01,614.947,1467.765,615.988,1466.4Zm-54.1-2.675h-4.831a1.43,1.43,0,0,0-.1.292,4.175,4.175,0,0,0,.005.5,37.009,37.009,0,0,0,7.7,20.6,5.03,5.03,0,0,0,1.431.905,12.81,12.81,0,0,0,.938-1.622,2.036,2.036,0,0,0,0-1.1,10.6,10.6,0,0,1,.732-5.83c1.073-2.951.806-3.987-1.578-6.1-.217-.193-.436-.382-.66-.566C563.342,1469,561.61,1466.949,561.892,1463.729Zm36.81-27.388v24.75h3.515v-24.75Zm-8.935,24.781V1446.33h-3.5v14.793ZM573.823,1455v6.095h3.5V1455Zm49.057-1.287c-.95,0-1.9,0-2.85,0-.856,0-1.488.324-1.472,1.275.015.88.624,1.2,1.421,1.205q2.85.016,5.7,0c.852,0,1.5-.329,1.471-1.279s-.707-1.21-1.543-1.206C624.7,1453.711,623.789,1453.708,622.88,1453.709Zm2.483,7.457a15.916,15.916,0,0,0,2.964-.053,1.912,1.912,0,0,0,1.266-1.16c.187-.826-.483-1.253-1.3-1.26-1.983-.019-3.971-.079-5.945.049a1.823,1.823,0,0,0-1.259,1.155c-.188.828.487,1.243,1.3,1.264C623.38,1461.188,624.371,1461.167,625.363,1461.166Zm-6.314-21.1H614.11c.672,1.026.178,2.254,1.441,2.422a21.056,21.056,0,0,0,2.731.023Z" transform="translate(0 -33.82)" fill="#6a4d23"/>
        <path id="Trazado_904303" data-name="Trazado 904303" d="M579.591,1397.193l-4.177-5.165-4.108,5.052a4.011,4.011,0,0,0,.66.166c2.054.089,2.193.225,2.194,2.224,0,2.735-.01,5.471.005,8.206.005.88-.2,1.662-1.208,1.683-1.1.023-1.3-.8-1.289-1.723.017-2.566.006-5.131.006-7.89a22.026,22.026,0,0,1-2.744-.031,1.993,1.993,0,0,1-1.406-.714,1.812,1.812,0,0,1,.314-1.541c2.088-2.679,4.237-5.311,6.391-7.938.8-.974,1.556-.974,2.358,0,2.155,2.626,4.3,5.26,6.39,7.939a1.808,1.808,0,0,1,.307,1.542,2.012,2.012,0,0,1-1.41.709,21.622,21.622,0,0,1-2.736.031c0,2.373,0,4.638,0,6.9,0,.456.017.913-.012,1.367-.051.769-.487,1.39-1.233,1.207a1.86,1.86,0,0,1-1.179-1.245c-.152-1.518-.06-3.061-.061-4.595,0-1.367,0-2.735,0-4.1,0-1.744.248-1.986,2.009-2.028C578.867,1397.246,579.072,1397.226,579.591,1397.193Z" transform="translate(-9.784)" fill="#6a4d23"/>
        <path id="Trazado_904304" data-name="Trazado 904304" d="M637.012,1392.626c-.769,0-1.47-.008-2.171,0-.919.013-1.742-.2-1.713-1.3.026-1.02.819-1.1,1.679-1.213a39.2,39.2,0,0,0,4.7-.911c.743-.189,1.557-.628,1.96.222a2.247,2.247,0,0,1-.249,1.867,77.339,77.339,0,0,1-14.774,16.177,76.17,76.17,0,0,1-13.693,9.166c-.367.19-.738.374-1.109.556-.779.381-1.564.526-2.026-.4s.107-1.442.9-1.842c1.145-.576,2.285-1.166,3.392-1.811a79.283,79.283,0,0,0,22.5-19.462c.18-.227.354-.459.519-.7A1.384,1.384,0,0,0,637.012,1392.626Z" transform="translate(-41.337 -0.099)" fill="#6a4d23"/>
        <path id="Trazado_904305" data-name="Trazado 904305" d="M837.721,1416.791c-.086.986.131,2.192-1.276,2.192s-1.21-1.2-1.3-2.165c-.488-.263-1.007-.5-1.486-.81-.711-.454-1.083-1.092-.557-1.878.482-.721,1.137-.6,1.865-.267a3.312,3.312,0,0,0,1.857.422,1.9,1.9,0,0,0,1.306-1.161,1.985,1.985,0,0,0-.969-1.468,24.939,24.939,0,0,0-2.665-.993,3.606,3.606,0,0,1-2.294-4.41,3.971,3.971,0,0,1,3.352-2.7c.034-.244-.013-.541.114-.7.35-.433.775-1.121,1.167-1.119a1.633,1.633,0,0,1,1.214,1.049,2.157,2.157,0,0,0,.989,1.656,1.817,1.817,0,0,1,.372,1.663c-.1.285-1.017.407-1.562.392a20.765,20.765,0,0,0-2.126-.333,1.474,1.474,0,0,0-1.048.963c-.05.366.4.946.788,1.189a8.429,8.429,0,0,0,1.856.677c2.2.73,3.317,1.972,3.412,3.786C840.828,1414.612,839.975,1415.765,837.721,1416.791Z" transform="translate(-208.567 -9.73)" fill="#6a4d23"/>
        <path id="Trazado_904306" data-name="Trazado 904306" d="M812.388,1589.584a8.929,8.929,0,0,1-3.809,6.408,2.069,2.069,0,0,1-1.384.4c-.482-.1-1.145-.519-1.243-.918a1.547,1.547,0,0,1,.705-1.342,5.187,5.187,0,0,0,2.959-3.591,2.709,2.709,0,0,0,.034-1.425c-.175-.751-.071-1.342.674-1.638a1.231,1.231,0,0,1,1.707.779A8.415,8.415,0,0,1,812.388,1589.584Z" transform="translate(-188.955 -149.187)" fill="#6a4d23"/>
      </g>
    </g>
  </g>
</svg>
