<svg xmlns="http://www.w3.org/2000/svg" width="131" height="131" viewBox="0 0 131 131">
  <g id="Grupo_1100287" data-name="Grupo 1100287" transform="translate(-345 -7528)">
    <g id="Grupo_156312" data-name="Grupo 156312" transform="translate(344 7528)">
      <path id="Elipse_5845" data-name="Elipse 5845" d="M65.5,0A65.5,65.5,0,1,1,0,65.5,65.5,65.5,0,0,1,65.5,0Z" transform="translate(1 0)" fill="#ffce73"/>
    </g>
    <g id="Grupo_1119613" data-name="Grupo 1119613" transform="translate(-2487.264 6243.426)">
      <path id="Trazado_906209" data-name="Trazado 906209" d="M2903.071,1386.526c-2.6-.18-3.709-1.053-3.724-2.781-.015-1.711,1.027-2.554,3.723-2.92,0-.792.028-1.606-.008-2.416-.041-.93.4-1.285,1.291-1.282q5.762.019,11.526,0c1-.006,1.375.454,1.338,1.411-.035.917-.008,1.836-.008,2.981,2.371,0,4.653.021,6.934-.027a1.126,1.126,0,0,0,.774-.607c.676-1.523,1.444-2.97.679-4.8a7.519,7.519,0,0,1-.332-5.972,5.681,5.681,0,0,1,5.372-3.645,5.581,5.581,0,0,1,5.43,3.787c1.842,6.01,3.636,12.038,5.239,18.114.319,1.21-.269,2.673-.5,4.01a28.419,28.419,0,0,0-.795,4.3c-.08,7.837-.021,15.675-.053,23.513-.006,1.406-.216,2.812-.351,4.447a24.577,24.577,0,0,1,3.1.039,4.91,4.91,0,0,1,1.548.837c-.509.29-1.016.829-1.527.833-6.966.056-13.933.038-20.9.038q-31.889,0-63.777-.022c-.808,0-2.221.5-2.2-.864.024-1.3,1.411-.755,2.246-.85a11.408,11.408,0,0,1,1.449-.012c-.125-1.807-.331-3.467-.339-5.128-.036-7.735.017-15.471-.049-23.206a10.772,10.772,0,0,0-.739-3.69,8.008,8.008,0,0,1-.3-5.517c1.645-5.322,3.138-10.691,4.7-16.039.97-3.32,3.892-5.17,7.006-4.454a5.906,5.906,0,0,1,4.373,7.184c-.2,1.05-.618,2.059-.812,3.109a3.806,3.806,0,0,0,.058,1.915c1.23,3.333.622,2.667,3.806,2.724,1.982.035,3.964.006,6.123.006,0-1.139.026-2.1-.008-3.059-.032-.909.353-1.3,1.271-1.3q5.763.028,11.526,0c.992-.006,1.388.435,1.371,1.393-.024,1.331.024,2.664-.017,4-.039,1.256-.663,1.932-1.983,1.638-.838-.187-1.545-.042-1.587.88-.048,1.067.762,1.173,1.618,1.022,1.465-.259,1.916.544,1.969,1.83.14,3.387.15,3.387-3.226,3.4-.5,0-1,0-1.479,0-.4,2.745-1.328,3.811-3.089,3.676-1.66-.127-2.5-1.295-2.548-3.543a1.655,1.655,0,0,0-.283-.1c-1.152-.206-2.753-.028-3.333-.715s-.126-2.231-.126-3.733h-12.937c-.966,2.983-2.25,6.151-.672,9.9,3.175,7.536,5.974,15.23,8.989,22.834a5.827,5.827,0,0,1,.075,4.87H2920.3c-1.18-2.031-.352-3.854.382-5.717,2.867-7.278,5.661-14.585,8.57-21.846a9.509,9.509,0,0,0,.322-7.158c-.388-1.042-.636-2.136-.869-2.936H2917.21c0,1.186-.024,2.093.006,3,.032.954-.373,1.445-1.348,1.439-1.383-.008-2.769.042-4.149-.02-1.163-.052-1.813-.657-1.592-1.91.146-.831.169-1.686-.948-1.644-1.051.04-1.023.806-.91,1.689.064.5-.306,1.474-.593,1.52a21.064,21.064,0,0,1-4.061.166c-.2-.007-.495-.718-.52-1.117C2903.024,1388.864,2903.071,1387.74,2903.071,1386.526Zm-30.942-11.581c1.115-3.213.175-5.891-2.2-6.576-3-.868-5.015,1.115-5.665,3.662-1.35,5.294-3.086,10.489-4.494,15.77a6.439,6.439,0,0,0,.174,3.828c4.228,10.36,8.578,20.671,12.911,30.989.763,1.818,2.018,2.451,3.47,1.857,1.381-.564,1.8-1.983,1.093-3.788-2.584-6.617-5.226-13.212-7.736-19.857-.931-2.464-2.058-5.02-2.179-7.577-.115-2.451,1.034-4.944,1.467-7.447a6.3,6.3,0,0,0-.209-3.044c-.764-2.163-1.8-4.229-2.645-6.365a2.992,2.992,0,1,1,5.459-2.447C2871.715,1374.2,2871.855,1374.45,2872.129,1374.945Zm55.048-.115c.111-.218.2-.378.275-.541.931-1.934,2.544-2.654,4.216-1.881,1.544.713,2.052,2.431,1.276,4.354a14.675,14.675,0,0,1-1.087,2.53c-2.2,3.394-2.079,6.821-.561,10.444a9.26,9.26,0,0,1-.232,7.176c-3.158,7.983-6.263,15.986-9.372,23.989-.644,1.659-.126,3.087,1.227,3.6a2.5,2.5,0,0,0,3.319-1.652c4.4-10.507,8.812-21.013,13.129-31.556a5.443,5.443,0,0,0,.171-3.275c-1.514-5.516-3.167-10.995-4.8-16.477-.827-2.769-3.272-4.078-5.683-3.106C2926.72,1369.371,2925.858,1372.2,2927.177,1374.83Zm-31.468,13.253c-2.409-.452-3.392-1.261-3.458-2.808-.07-1.641.772-2.389,3.393-3.041v-3.3H2885.1c-.105,1.382-.329,2.554.873,3.668a2.23,2.23,0,0,1-.038,3.319c-1.214,1.117-.96,2.294-.773,3.7.628,0,1.186-.006,1.743,0,2,.028,2.26.346,2.113,2.312a1.59,1.59,0,0,0,.444,1.174,1.109,1.109,0,0,0,1.093-.027,1.574,1.574,0,0,0,.406-1.178c-.191-1.835.132-2.246,2-2.279.9-.016,1.8,0,2.751,0Zm-34.468,11.265-.247.049c-.026.282-.076.565-.076.848q-.006,10.668,0,21.337c0,1.936,1.014,3.038,2.677,3.036s2.646-1.074,2.669-3.045c.029-2.456-.069-4.915.034-7.367a11.841,11.841,0,0,0-1.1-5.48C2863.818,1405.629,2862.556,1402.476,2861.241,1399.348Zm76.926.245-.312-.034q-2.36,5.639-4.714,11.281a2.4,2.4,0,0,0-.2.887c-.01,3.476-.081,6.954.031,10.427a2.525,2.525,0,0,0,4.123,1.945,4.208,4.208,0,0,0,1.116-2.8c.093-6.848.052-13.7.046-20.548C2938.254,1400.365,2938.2,1399.979,2938.167,1399.593Zm-22.736-20.721h-10.721c0,.9.046,1.707-.011,2.508-.084,1.19-.686,1.7-1.941,1.467a2.375,2.375,0,0,0-1.484.333,1.149,1.149,0,0,0-.033,1.037,2.673,2.673,0,0,0,1.47.386c1.479-.09,1.95.264,2,1.771.034,1.01.007,2.021.007,3.089h1.623c.29-2.374,1.13-3.407,2.767-3.473,1.7-.068,2.626.982,3.044,3.429h3.244c.18-1.312.328-2.271-1.29-2.818-1.948-.659-2.045-3.446-.3-4.6a10.047,10.047,0,0,1,1.625-.717Zm-37.35,6.353c1.793,0,3.59.062,5.377-.041.479-.028.928-.564,1.391-.866a9.978,9.978,0,0,0-1.386-1.1c-.276-.153-.7-.037-1.061-.037-2.356,0-4.713-.02-7.069,0a2.667,2.667,0,0,1-2.783-1.943c-.726-1.966-1.53-3.9-2.284-5.856-.348-.9-.727-1.881-1.934-1.362-1.072.461-.777,1.341-.4,2.218,1.137,2.625,2.17,5.3,3.368,7.893a2.2,2.2,0,0,0,1.558,1.045C2874.591,1385.312,2876.34,1385.226,2878.081,1385.225Zm43.031-.006v.007c1.738,0,3.482.085,5.21-.049a2.2,2.2,0,0,0,1.559-1.038c1.228-2.632,2.323-5.327,3.447-8.007.333-.793.552-1.673-.452-2.111-1.1-.479-1.558.319-1.9,1.2-.66,1.713-1.335,3.421-1.99,5.136-1.01,2.643-1.265,2.817-4.164,2.826q-3.45.011-6.9.047c-.737.008-1.624.075-1.45,1.062.068.382.911.854,1.426.887C2917.632,1385.287,2919.374,1385.219,2921.112,1385.219Zm-52.767,31.029-.21.106q-.209,4.083-.418,8.16h4.1Zm59.028,8.28h4.128c-.159-2.781-.314-5.473-.468-8.165l-.211-.048Z" transform="translate(0 -37.948)" fill="#7d3a1b"/>
      <path id="Trazado_906210" data-name="Trazado 906210" d="M3080.241,1319.476a7.787,7.787,0,1,1-7.67-7.824A7.918,7.918,0,0,1,3080.241,1319.476Zm-13.832-.072a6.048,6.048,0,1,0,6.021-6.009A5.917,5.917,0,0,0,3066.41,1319.4Z" transform="translate(-144.608 0)" fill="#7d3a1b"/>
      <path id="Trazado_906211" data-name="Trazado 906211" d="M2896.494,1319.381a7.78,7.78,0,1,1-7.744-7.73A7.878,7.878,0,0,1,2896.494,1319.381Zm-7.742-5.985a6.045,6.045,0,1,0,6.025,6.029A5.974,5.974,0,0,0,2888.752,1313.4Z" transform="translate(-17.362 0)" fill="#7d3a1b"/>
    </g>
  </g>
</svg>
