<svg xmlns="http://www.w3.org/2000/svg" xmlns:xlink="http://www.w3.org/1999/xlink" width="121" height="121" viewBox="0 0 121 121">
  <defs>
    <clipPath id="clip-path">
      <rect id="Rectángulo_400938" data-name="Rectángulo 400938" width="121" height="121" transform="translate(0 0)" fill="none"/>
    </clipPath>
    <clipPath id="clip-path-2">
      <rect id="Rectángulo_401073" data-name="Rectángulo 401073" width="92.219" height="41.532" fill="#efb499"/>
    </clipPath>
    <clipPath id="clip-path-3">
      <rect id="Rectángulo_406779" data-name="Rectángulo 406779" width="70" height="70" transform="translate(570.777 3149)" fill="#fff"/>
    </clipPath>
  </defs>
  <g id="Grupo_1120051" data-name="Grupo 1120051" transform="translate(-740.496 -4872)">
    <g id="Grupo_1105097" data-name="Grupo 1105097" transform="translate(352.828 -1141)">
      <rect id="Rectángulo_401103" data-name="Rectángulo 401103" width="121" height="121" transform="translate(387.668 6013)" fill="none"/>
      <g id="Grupo_1099348" data-name="Grupo 1099348" transform="translate(387.668 6013)">
        <g id="Grupo_1099282" data-name="Grupo 1099282">
          <g id="Grupo_1099281" data-name="Grupo 1099281" clip-path="url(#clip-path-2)">
            <path id="Trazado_873375" data-name="Trazado 873375" d="M74.8,9.1c-4.139,0-6.28-2.03-8.17-3.821-1.855-1.756-3.452-3.274-6.792-3.274s-4.937,1.517-6.792,3.274C51.161,7.072,49.023,9.1,44.881,9.1s-6.28-2.03-8.169-3.821C34.857,3.525,33.26,2.007,29.92,2.007s-4.937,1.517-6.789,3.274C21.241,7.072,19.1,9.1,14.962,9.1S8.679,7.072,6.789,5.281C4.937,3.525,3.34,2.007,0,2.007V0C4.139,0,6.28,2.033,8.17,3.821c1.855,1.759,3.452,3.274,6.792,3.274S19.9,5.58,21.75,3.824C23.637,2.033,25.781,0,29.92,0s6.283,2.033,8.17,3.821c1.855,1.759,3.452,3.274,6.792,3.274s4.937-1.514,6.792-3.274C53.56,2.033,55.7,0,59.843,0s6.283,2.033,8.17,3.821C69.867,5.58,71.464,7.094,74.8,7.094S79.742,5.58,81.6,3.821C83.483,2.033,85.624,0,89.766,0V2.007c-3.34,0-4.937,1.517-6.792,3.274C81.084,7.072,78.943,9.1,74.8,9.1" transform="translate(2.453 32.43)" fill="#efb499"/>
            <path id="Trazado_873376" data-name="Trazado 873376" d="M74.8,9.1c-4.139,0-6.283-2.03-8.17-3.824-1.855-1.756-3.452-3.27-6.792-3.27s-4.937,1.514-6.792,3.27C51.164,7.072,49.023,9.1,44.881,9.1s-6.283-2.03-8.17-3.824c-1.855-1.756-3.452-3.27-6.792-3.27s-4.937,1.517-6.789,3.27C21.241,7.072,19.1,9.1,14.962,9.1S8.679,7.072,6.789,5.278C4.937,3.522,3.34,2.007,0,2.007V0C4.139,0,6.283,2.03,8.17,3.821c1.855,1.759,3.452,3.274,6.792,3.274S19.9,5.58,21.75,3.821C23.637,2.03,25.781,0,29.92,0S36.2,2.03,38.093,3.821c1.852,1.759,3.449,3.274,6.789,3.274s4.937-1.514,6.792-3.274C53.56,2.03,55.7,0,59.843,0s6.283,2.03,8.17,3.821C69.867,5.58,71.464,7.094,74.8,7.094S79.742,5.58,81.6,3.821C83.486,2.03,85.627,0,89.769,0V2.007c-3.34,0-4.94,1.517-6.8,3.27C81.084,7.072,78.943,9.1,74.8,9.1" transform="translate(1.635 21.62)" fill="#efb499"/>
            <path id="Trazado_873377" data-name="Trazado 873377" d="M74.8,9.1c-4.139,0-6.283-2.03-8.169-3.824-1.855-1.756-3.452-3.27-6.792-3.27s-4.937,1.514-6.792,3.27C51.164,7.072,49.02,9.1,44.881,9.1s-6.283-2.03-8.17-3.824c-1.855-1.756-3.452-3.27-6.792-3.27s-4.937,1.517-6.789,3.27C21.241,7.072,19.1,9.1,14.962,9.1S8.678,7.072,6.789,5.278C4.937,3.522,3.34,2.007,0,2.007V0C4.139,0,6.283,2.03,8.169,3.821c1.851,1.759,3.452,3.274,6.792,3.274S19.9,5.58,21.75,3.821C23.637,2.03,25.781,0,29.92,0S36.2,2.03,38.093,3.821c1.852,1.759,3.449,3.274,6.789,3.274s4.937-1.514,6.792-3.274C53.56,2.03,55.7,0,59.843,0s6.283,2.03,8.17,3.821C69.867,5.58,71.464,7.094,74.8,7.094S79.742,5.58,81.6,3.821C83.486,2.03,85.624,0,89.769,0V2.007c-3.34,0-4.941,1.517-6.8,3.27C81.084,7.072,78.943,9.1,74.8,9.1" transform="translate(0.818 10.81)" fill="#efb499"/>
            <path id="Trazado_873378" data-name="Trazado 873378" d="M74.8,9.1c-4.139,0-6.28-2.03-8.17-3.821-1.855-1.756-3.452-3.27-6.792-3.27s-4.937,1.514-6.789,3.27C51.164,7.069,49.023,9.1,44.881,9.1s-6.28-2.03-8.169-3.821c-1.855-1.756-3.452-3.27-6.792-3.27s-4.937,1.514-6.789,3.267C21.245,7.069,19.1,9.1,14.962,9.1S8.678,7.069,6.789,5.278C4.937,3.522,3.34,2.007,0,2.007V0C4.139,0,6.283,2.03,8.17,3.821c1.855,1.756,3.452,3.27,6.792,3.27S19.9,5.577,21.75,3.821C23.64,2.03,25.781,0,29.92,0s6.28,2.03,8.173,3.821c1.852,1.756,3.449,3.27,6.789,3.27s4.937-1.514,6.792-3.27C53.563,2.03,55.7,0,59.843,0s6.28,2.03,8.17,3.821c1.855,1.756,3.452,3.27,6.792,3.27s4.937-1.514,6.792-3.27C83.486,2.03,85.627,0,89.769,0V2.007c-3.344,0-4.941,1.514-6.8,3.27C81.084,7.069,78.943,9.1,74.8,9.1" transform="translate(0 0.003)" fill="#efb499"/>
          </g>
        </g>
      </g>
      <circle id="Elipse_11504" data-name="Elipse 11504" cx="50.5" cy="50.5" r="50.5" transform="translate(402.668 6031)" fill="#ffce73"/>
      <circle id="Elipse_11503" data-name="Elipse 11503" cx="52.5" cy="52.5" r="52.5" transform="translate(395.668 6021)" fill="#f3f9ff"/>
    </g>
    <g id="Enmascarar_grupo_1098794" data-name="Enmascarar grupo 1098794" transform="translate(195.223 1749)" clip-path="url(#clip-path-3)">
      <g id="Grupo_1120060" data-name="Grupo 1120060" transform="translate(-2315.476 2510.263)">
        <path id="Trazado_907194" data-name="Trazado 907194" d="M2889.269,677.7q-.005-14.858-.008-29.717c0-1.6.672-2.246,2.322-2.247q14.711,0,29.421,0,0,6.632,0,13.265a16.2,16.2,0,0,0-1.82.4,5.235,5.235,0,0,0-3.667,4.259,5.455,5.455,0,0,0,2.077,5.421c.618.5,1.429.594,1.991,1.147-.3.01-.592.025-.888.029a5.56,5.56,0,0,0-5.747,5.112,22.511,22.511,0,0,0-.045,2.269l-1.819,0c0-.627,0-1.254-.007-1.88a5.491,5.491,0,0,0-5.491-5.463,2.88,2.88,0,0,1-1.456-.129c.186-.067.37-.139.557-.2a5.573,5.573,0,0,0-3.015-10.723,5.62,5.62,0,0,0-4.145,6.289,5.68,5.68,0,0,0,4.43,4.639,3.719,3.719,0,0,1-1.649.126,5.282,5.282,0,0,0-4.591,2.742c-.9,1.449-.678,3.037-.719,4.6Z" transform="translate(-0.005)" fill="#ededef"/>
        <path id="Trazado_907195" data-name="Trazado 907195" d="M3049.143,659.005q0-6.632,0-13.264,14.761,0,29.521,0c1.512,0,2.209.65,2.21,2.144q.009,14.908-.007,29.817l-5.725-.058c0-.657,0-1.314-.007-1.971a5.5,5.5,0,0,0-3.95-5.186c-1.1-.336-2.226-.05-3.321-.27,3.459-.747,5.338-3.483,4.675-6.807a5.7,5.7,0,0,0-4.947-4.335,5.779,5.779,0,0,0-5.256,2.721c-2,3.528-.125,7.482,3.991,8.417-.591.026-1.182.064-1.773.075a5.472,5.472,0,0,0-5.358,4.4,16.98,16.98,0,0,0-.14,2.956l-1.82,0c0-.462-.015-.925,0-1.387a5.789,5.789,0,0,0-1.893-4.6,6.173,6.173,0,0,0-4.594-1.435c.139-.429.582-.375.883-.527a5.667,5.667,0,0,0,2.955-6.309,5.575,5.575,0,0,0-5.45-4.291Z" transform="translate(-128.145 -0.001)" fill="#dcdce0"/>
        <path id="Trazado_907196" data-name="Trazado 907196" d="M3080.863,825.468q.016,9.158.026,18.317a1.812,1.812,0,0,1-1.926,1.926c-.3.013-.594,0-.891,0q-13.864,0-27.727,0c-.4,0-.79-.029-1.184-.045q0-10.083,0-20.167l0-.06c.2.011.4.032.593.032Q3065.305,825.472,3080.863,825.468Z" transform="translate(-128.161 -144.034)" fill="#8d5041"/>
        <path id="Trazado_907197" data-name="Trazado 907197" d="M2921,825.6l0,20.167c-3.173.011-6.346.031-9.519.033q-9.917.007-19.835,0c-1.757,0-2.394-.634-2.392-2.386q.011-8.924.032-17.848,5.4,0,10.8.008Z" transform="translate(0 -144.137)" fill="#a25d4e"/>
        <path id="Trazado_907198" data-name="Trazado 907198" d="M2921.036,810.3l-20.908-.027q-5.4-.006-10.8-.008-.01-1.866-.021-3.731l5.728-.058h16.087l1.818,0,8.1.054-.007,3.707Z" transform="translate(-0.041 -128.838)" fill="#61362b"/>
        <path id="Trazado_907199" data-name="Trazado 907199" d="M3049.113,810.232l.007-3.707-.018-.053,8.109,0,1.82,0h16.086l5.725.058-.021,3.735q-15.558,0-31.116,0C3049.508,810.264,3049.311,810.244,3049.113,810.232Z" transform="translate(-128.12 -128.826)" fill="#4d2c21"/>
        <path id="Trazado_907200" data-name="Trazado 907200" d="M2934.251,776.314h-16.087c.042-1.563-.183-3.15.719-4.6a5.282,5.282,0,0,1,4.591-2.742,3.717,3.717,0,0,0,1.649-.126l2.173,0a2.881,2.881,0,0,0,1.456.129,5.492,5.492,0,0,1,5.491,5.463C2934.255,775.06,2934.249,775.687,2934.251,776.314Z" transform="translate(-23.172 -98.67)" fill="#86beeb"/>
        <path id="Trazado_907201" data-name="Trazado 907201" d="M2937.178,724.153l-2.173,0a5.68,5.68,0,0,1-4.43-4.639,5.621,5.621,0,0,1,4.146-6.289,5.573,5.573,0,0,1,3.015,10.723C2937.548,724.014,2937.364,724.085,2937.178,724.153Z" transform="translate(-33.053 -53.98)" fill="#ebb886"/>
        <path id="Trazado_907202" data-name="Trazado 907202" d="M3016.45,776.624l-8.1-.054a22.655,22.655,0,0,1,.046-2.269,5.56,5.56,0,0,1,5.747-5.112c.3,0,.592-.019.888-.029l1.4.075q0,3.668,0,7.336Z" transform="translate(-95.45 -98.925)" fill="#aadd16"/>
        <path id="Trazado_907203" data-name="Trazado 907203" d="M3026.622,723.883l-1.4-.075c-.561-.553-1.373-.642-1.99-1.147a5.454,5.454,0,0,1-2.077-5.421,5.235,5.235,0,0,1,3.667-4.259,16.2,16.2,0,0,1,1.82-.4l-.009.087q.014,5.544.028,11.088A.569.569,0,0,1,3026.622,723.883Z" transform="translate(-105.643 -53.573)" fill="#ebb886"/>
        <path id="Trazado_907204" data-name="Trazado 907204" d="M3115.211,776.464h-16.086a17,17,0,0,1,.141-2.956,5.472,5.472,0,0,1,5.358-4.4c.591-.011,1.182-.049,1.774-.074a4.934,4.934,0,0,0,1.536,0c1.095.22,2.22-.066,3.321.27a5.5,5.5,0,0,1,3.949,5.186C3115.213,775.15,3115.209,775.807,3115.211,776.464Z" transform="translate(-168.213 -98.824)" fill="#4894fe"/>
        <path id="Trazado_907205" data-name="Trazado 907205" d="M3117.93,723.894a4.939,4.939,0,0,1-1.536,0c-4.117-.936-5.992-4.89-3.992-8.418a5.779,5.779,0,0,1,5.256-2.721,5.7,5.7,0,0,1,4.947,4.335C3123.268,720.411,3121.389,723.146,3117.93,723.894Z" transform="translate(-178.21 -53.681)" fill="#dfa470"/>
        <path id="Trazado_907206" data-name="Trazado 907206" d="M3049.088,769.009a.569.569,0,0,0,.037-.131,3.3,3.3,0,0,0,1.585.04,6.172,6.172,0,0,1,4.594,1.435,5.788,5.788,0,0,1,1.893,4.6c-.011.462,0,.925,0,1.387l-8.109,0Q3049.09,772.677,3049.088,769.009Z" transform="translate(-128.108 -98.699)" fill="#7dbf01"/>
        <path id="Trazado_907207" data-name="Trazado 907207" d="M3050.746,724.136a3.3,3.3,0,0,1-1.585-.04q-.014-5.544-.028-11.088a5.576,5.576,0,0,1,5.45,4.291,5.668,5.668,0,0,1-2.955,6.309C3051.329,723.761,3050.885,723.707,3050.746,724.136Z" transform="translate(-128.145 -53.916)" fill="#dea46f"/>
      </g>
    </g>
  </g>
</svg>
