<svg xmlns="http://www.w3.org/2000/svg" width="70" height="70" viewBox="0 0 70 70">
  <g id="Grupo_1104812" data-name="Grupo 1104812" transform="translate(-300 -6501)">
    <g id="Grupo_1099486" data-name="Grupo 1099486" transform="translate(31 5543)">
      <circle id="Elipse_5614" data-name="Elipse 5614" cx="35" cy="35" r="35" transform="translate(269 958)" fill="#fff"/>
    </g>
    <g id="Grupo_1104813" data-name="Grupo 1104813" transform="translate(683.256 6629.66)">
      <path id="Trazado_896340" data-name="Trazado 896340" d="M-302.715,66.317c0-2.6.012-5.193-.011-7.789a.7.7,0,0,1,.6-.81,9.734,9.734,0,0,1,9.089,1.611,9.3,9.3,0,0,0,4.725,1.978c1.08.146,2.15.363,3.222.561a3.872,3.872,0,0,1,3.162,4.231,3.825,3.825,0,0,1-4.452,3.368c-2.964-.489-5.92-1.023-8.879-1.538-.143-.025-.287-.053-.431-.066a1.385,1.385,0,0,0-1.617,1.108,1.4,1.4,0,0,0,1.195,1.568c.924.2,1.857.342,2.788.5,2.076.36,4.159.688,6.229,1.082a6.642,6.642,0,0,0,7.5-4.124,1.733,1.733,0,0,1,.776-.85q3.847-1.894,7.734-3.7a3.428,3.428,0,0,1,4.231,1.075,3.445,3.445,0,0,1-.168,4.361,4.989,4.989,0,0,1-1.007.826c-2.62,1.708-5.273,3.365-7.87,5.108a20.129,20.129,0,0,1-18.376,2.491c-2.577-.842-5.179-1.607-7.779-2.379a.78.78,0,0,1-.682-.9C-302.7,71.461-302.715,68.889-302.715,66.317Z" transform="translate(-58.805 -148.842)" fill="#6a4d23"/>
      <path id="Trazado_896341" data-name="Trazado 896341" d="M-229.679-93.257a1.378,1.378,0,0,1-2.156,1.286c-1.956-1.014-3.911-2.032-5.846-3.087a1.219,1.219,0,0,0-1.325.01c-1.916,1.039-3.858,2.028-5.784,3.049a1.445,1.445,0,0,1-1.7-.03,1.509,1.509,0,0,1-.463-1.638c.4-2.167.731-4.345,1.13-6.511a.98.98,0,0,0-.334-1.008c-1.576-1.51-3.129-3.043-4.7-4.558a1.522,1.522,0,0,1-.608-1.661c.231-.7.774-.9,1.455-.989q3.276-.439,6.538-.978a1.24,1.24,0,0,0,.791-.568c1.008-1.959,1.973-3.94,2.937-5.921.293-.6.658-1.09,1.4-1.091s1.1.475,1.4,1.083c.961,1.983,1.933,3.961,2.937,5.923a1.154,1.154,0,0,0,.715.559c2.271.369,4.548.7,6.827,1.015a1.365,1.365,0,0,1,1.221.889,1.366,1.366,0,0,1-.372,1.528c-1.637,1.585-3.257,3.189-4.9,4.764a.987.987,0,0,0-.337,1.009c.388,2.144.741,4.294,1.106,6.442C-229.721-93.548-229.694-93.356-229.679-93.257Z" transform="translate(-102.545 0)" fill="#6a4d23"/>
      <path id="Trazado_896342" data-name="Trazado 896342" d="M-371.555,57.253q0-4.328,0-8.656c0-1.255.446-1.691,1.715-1.694,1.358,0,2.716-.008,4.073,0a1.324,1.324,0,0,1,1.49,1.477q.013,8.947,0,17.894a1.379,1.379,0,0,1-1.531,1.534c-1.382.019-2.764.016-4.146,0a1.411,1.411,0,0,1-1.6-1.612Q-371.561,61.726-371.555,57.253Z" transform="translate(0 -139.994)" fill="#6a4d23"/>
    </g>
  </g>
</svg>
