<svg xmlns="http://www.w3.org/2000/svg" xmlns:xlink="http://www.w3.org/1999/xlink" width="131" height="131" viewBox="0 0 131 131">
  <defs>
    <clipPath id="clip-path">
      <rect id="Rectángulo_402355" data-name="Rectángulo 402355" width="87" height="87" transform="translate(342 951.244)" fill="#7d3a1b" stroke="#707070" stroke-width="1"/>
    </clipPath>
  </defs>
  <g id="Grupo_1100287" data-name="Grupo 1100287" transform="translate(-345 -7528)">
    <g id="Grupo_156312" data-name="Grupo 156312" transform="translate(344 7528)">
      <path id="Elipse_5845" data-name="Elipse 5845" d="M65.5,0A65.5,65.5,0,1,1,0,65.5,65.5,65.5,0,0,1,65.5,0Z" transform="translate(1 0)" fill="#ffce73"/>
    </g>
    <g id="Grupo_1098715" data-name="Grupo 1098715" transform="translate(24 6599)" clip-path="url(#clip-path)">
      <g id="Grupo_1119617" data-name="Grupo 1119617" transform="translate(-2516.802 -581.384)">
        <path id="Trazado_906224" data-name="Trazado 906224" d="M2880.14,1563.256a1.984,1.984,0,0,0-.341-.068c-2.878.38-2.878.38-3.612,3.172-.557,2.119-1.1,4.2-3.669,4.854a4.521,4.521,0,0,1-5.6-5.254c.678-2.88,1.469-5.737,2.347-8.562a2.453,2.453,0,0,1,1.483-1.414c4.236-1.053,8.5-1.988,12.765-2.933a8.023,8.023,0,0,1,1.522-.013,9.065,9.065,0,0,1,.928-8.588,8.76,8.76,0,0,1,4.721-3.568,9.1,9.1,0,0,1,10.656,4.136c2.414,4.2,1.348,8.256-3.338,12.578.925,1.809,1.813,3.659,2.824,5.44a1.982,1.982,0,0,0,1.353.835c1.246.118,2.512.014,3.768.049a4.405,4.405,0,0,1,4.59,4.55,4.326,4.326,0,0,1-4.6,4.488c-2.415.022-4.831-.056-7.242.027-1.8.062-3.479.067-3.986-2.346-.972,2-.972,2,.664,2.857,2.269,1.189,4.5,2.456,6.818,3.544a2.826,2.826,0,0,1,1.812,3.067c-.109,2.754-.031,5.515-.031,8.384h8.195v-8.729c0-3.153.094-3.25,3.175-3.25h9.857v-17.45c-.566-.028-1.1-.075-1.628-.076q-6.413-.01-12.826,0c-.976,0-2.006.044-2.251-1.225s.746-1.574,1.613-2.012a23.284,23.284,0,0,0,3.4-1.917c1.508-1.118,1.62-2.353.585-3.93a21.949,21.949,0,0,1-1.243-1.883,4.088,4.088,0,0,1,2.144-6.072,9.591,9.591,0,0,1,2.757-.692,38.89,38.89,0,0,1,4.366-.173c1.677.015,3.229.362,3.7-2.151.335-1.789,2.637-2.594,4.6-2.2a4.071,4.071,0,0,1,3.145,4.079q.029,12.745.01,25.491c0,3.315,0,6.63,0,10.217.711,0,1.338.027,1.961-.006,1.42-.074,2,.614,1.99,2-.024,4.073-.008,8.145-.008,12.217q0,11.388,0,22.776c0,1.981-.3,2.288-2.263,2.288q-32.743.005-65.487,0c-1.973,0-2.294-.316-2.3-2.26q-.012-5.279,0-10.558c.005-1.768.474-2.246,2.217-2.259,2.206-.016,4.413,0,6.826,0v-1.7c0-5.681.194-11.371-.063-17.041-.2-4.382.942-8.437,2.051-12.548C2879.046,1567.39,2879.581,1565.359,2880.14,1563.256Zm-9.635,49.521h63.928v-33.15H2915.14c0,3.226,0,6.335,0,9.445,0,2.279-.255,2.541-2.48,2.542q-9.051,0-18.1,0h-1.746c0,3.4.005,6.608,0,9.813,0,1.927-.347,2.267-2.3,2.268q-9.2.008-18.4,0h-1.606Zm10.708-42c3.126.345,6.016.644,8.9,1,.764.093,1.066-.143,1.227-.9a26.282,26.282,0,0,1,1.111-4.056,2.987,2.987,0,0,1,1.493-1.724c.417-.124,1.281.7,1.7,1.272.613.843.933,1.895,1.526,2.757a2.036,2.036,0,0,0,1.373.826c2.409.082,4.823.025,7.235.042,1.072.008,1.786-.386,1.764-1.544-.021-1.136-.732-1.553-1.8-1.54-1.457.018-2.922-.092-4.369.03a2.579,2.579,0,0,1-2.891-1.811,41.1,41.1,0,0,0-2.183-4.29,2.863,2.863,0,0,0-1.37-1.232c-3.46-1.192-6.949-2.3-10.437-3.407a2.352,2.352,0,0,0-1.159-.055c-3.479.752-6.959,1.505-10.418,2.344a1.917,1.917,0,0,0-1.182,1.084c-.687,2.2-1.253,4.436-1.844,6.663a1.5,1.5,0,0,0,1.136,2.092c1.007.243,1.607-.28,1.867-1.268.382-1.454.858-2.885,1.185-4.349a2.079,2.079,0,0,1,1.781-1.767c1.866-.384,3.722-.817,5.588-1.2,1.776-.365,2.541.488,2.072,2.263C2882.763,1564.862,2882.017,1567.717,2881.213,1570.779Zm14.4,17.708h5.351c0-1.064.013-2.012,0-2.961-.032-1.9.555-4.187-.3-5.593s-3.245-1.8-4.812-2.861c-4.709-3.185-10.172-2.5-15.678-3.432-1.441,9.133-.277,18.085-.758,27.014h5.392v-1.848q0-9.039,0-18.078c0-2.372.847-2.868,3-1.779s4.267,2.234,6.436,3.277a2.149,2.149,0,0,1,1.383,2.244C2895.58,1585.767,2895.617,1587.066,2895.617,1588.487Zm-8.244-39a6.212,6.212,0,0,0,6.055,6.216,6.16,6.16,0,0,0,.126-12.319A6.239,6.239,0,0,0,2887.373,1549.492Zm37.912,6.45c0-3.766.021-7.47-.045-11.172,0-.254-.65-.709-1-.709-2.158,0-4.325,0-6.47.2-2.789.264-3.2,1.322-1.55,3.564,2.287,3.1,2.254,4.767-.147,7.8-.044.055.005.183.013.314Zm5.211,20.523c.039-.464.093-.8.093-1.145q.006-16.966,0-33.931c0-.3.071-.67-.073-.886-.225-.337-.606-.791-.921-.791a1.641,1.641,0,0,0-1.167.657,2.5,2.5,0,0,0-.183,1.312q-.012,16.739,0,33.479a12.98,12.98,0,0,0,.13,1.3Zm-40.677,24.19v-1.547c0-2.808.02-5.616-.008-8.423-.013-1.364.574-2.068,1.963-2.069a8.714,8.714,0,0,0,.966-.118c0-.817.041-1.564-.014-2.3-.038-.516-.039-1.294-.347-1.486-1.377-.855-2.86-1.541-4.507-2.393v18.34Z" fill="#7d3a1b"/>
      </g>
    </g>
  </g>
</svg>
