<svg xmlns="http://www.w3.org/2000/svg" xmlns:xlink="http://www.w3.org/1999/xlink" width="145" height="145" viewBox="0 0 145 145">
  <defs>
    <clipPath id="clip-path">
      <rect id="Rectángulo_400938" data-name="Rectángulo 400938" width="145" height="145" transform="translate(0 -0.281)" fill="none"/>
    </clipPath>
    <clipPath id="clip-path-2">
      <rect id="Rectángulo_401073" data-name="Rectángulo 401073" width="110.228" height="49.642" fill="#7d3a1b"/>
    </clipPath>
    <clipPath id="clip-path-3">
      <rect id="Rectángulo_405841" data-name="Rectángulo 405841" width="88" height="88" transform="translate(194 9572.789)" fill="#fff" stroke="#707070" stroke-width="1"/>
    </clipPath>
  </defs>
  <g id="Grupo_1117906" data-name="Grupo 1117906" transform="translate(-175 -9540.719)">
    <g id="Grupo_1099404" data-name="Grupo 1099404" transform="translate(175 9541)">
      <g id="Grupo_1099379" data-name="Grupo 1099379" transform="translate(0 0)">
        <rect id="Rectángulo_401103" data-name="Rectángulo 401103" width="145" height="145" transform="translate(0 -0.281)" fill="none"/>
        <g id="Grupo_1099348" data-name="Grupo 1099348" transform="translate(0.045 0.045)">
          <g id="Grupo_1099282" data-name="Grupo 1099282">
            <g id="Grupo_1099281" data-name="Grupo 1099281" clip-path="url(#clip-path-2)">
              <path id="Trazado_873375" data-name="Trazado 873375" d="M89.413,10.879c-4.947,0-7.506-2.426-9.765-4.567C77.431,4.213,75.522,2.4,71.529,2.4s-5.9,1.814-8.118,3.913c-2.259,2.141-4.814,4.567-9.765,4.567S46.14,8.453,43.881,6.312C41.664,4.213,39.755,2.4,35.763,2.4s-5.9,1.814-8.114,3.913c-2.259,2.141-4.818,4.567-9.765,4.567s-7.51-2.426-9.769-4.567C5.9,4.213,3.993,2.4,0,2.4V0C4.947,0,7.506,2.43,9.765,4.567c2.217,2.1,4.126,3.913,8.118,3.913S23.785,6.67,26,4.571C28.253,2.43,30.816,0,35.763,0s7.51,2.43,9.765,4.567c2.217,2.1,4.126,3.913,8.118,3.913s5.9-1.81,8.118-3.913C64.019,2.43,66.582,0,71.529,0s7.51,2.43,9.765,4.567c2.217,2.1,4.126,3.913,8.118,3.913s5.9-1.81,8.118-3.913C99.786,2.43,102.345,0,107.3,0V2.4c-3.993,0-5.9,1.814-8.118,3.913-2.259,2.141-4.818,4.567-9.765,4.567" transform="translate(2.932 38.763)" fill="#7d3a1b"/>
              <path id="Trazado_873376" data-name="Trazado 873376" d="M89.413,10.879c-4.947,0-7.51-2.426-9.765-4.571C77.431,4.209,75.522,2.4,71.529,2.4s-5.9,1.81-8.118,3.909c-2.255,2.145-4.814,4.571-9.765,4.571s-7.51-2.426-9.765-4.571C41.664,4.209,39.755,2.4,35.763,2.4s-5.9,1.814-8.115,3.909c-2.259,2.145-4.818,4.571-9.765,4.571s-7.51-2.426-9.769-4.571C5.9,4.209,3.993,2.4,0,2.4V0C4.947,0,7.51,2.426,9.765,4.567c2.217,2.1,4.126,3.913,8.118,3.913S23.785,6.67,26,4.567C28.253,2.426,30.816,0,35.763,0s7.51,2.426,9.769,4.567c2.213,2.1,4.122,3.913,8.115,3.913s5.9-1.81,8.118-3.913C64.019,2.426,66.582,0,71.529,0s7.51,2.426,9.765,4.567c2.217,2.1,4.126,3.913,8.118,3.913s5.9-1.81,8.118-3.913C99.79,2.426,102.349,0,107.3,0V2.4c-3.993,0-5.905,1.814-8.122,3.909-2.259,2.145-4.818,4.571-9.765,4.571" transform="translate(1.955 25.842)" fill="#7d3a1b"/>
              <path id="Trazado_873377" data-name="Trazado 873377" d="M89.412,10.879c-4.947,0-7.51-2.426-9.765-4.571C77.431,4.209,75.522,2.4,71.529,2.4s-5.9,1.81-8.118,3.909c-2.255,2.145-4.818,4.571-9.765,4.571s-7.51-2.426-9.765-4.571C41.664,4.209,39.755,2.4,35.763,2.4s-5.9,1.814-8.115,3.909c-2.259,2.145-4.818,4.571-9.765,4.571s-7.51-2.426-9.769-4.571C5.9,4.209,3.993,2.4,0,2.4V0C4.947,0,7.51,2.426,9.765,4.567c2.213,2.1,4.126,3.913,8.118,3.913S23.785,6.67,26,4.567C28.253,2.426,30.816,0,35.763,0s7.51,2.426,9.769,4.567c2.213,2.1,4.122,3.913,8.115,3.913s5.9-1.81,8.118-3.913C64.019,2.426,66.582,0,71.529,0s7.51,2.426,9.765,4.567c2.217,2.1,4.126,3.913,8.118,3.913s5.9-1.81,8.118-3.913C99.79,2.426,102.345,0,107.3,0V2.4c-3.993,0-5.905,1.814-8.122,3.909-2.259,2.145-4.818,4.571-9.765,4.571" transform="translate(0.977 12.921)" fill="#7d3a1b"/>
              <path id="Trazado_873378" data-name="Trazado 873378" d="M89.413,10.875c-4.947,0-7.506-2.426-9.765-4.567C77.431,4.209,75.522,2.4,71.529,2.4s-5.9,1.81-8.115,3.909c-2.259,2.141-4.818,4.567-9.769,4.567S46.14,8.449,43.881,6.308C41.664,4.209,39.755,2.4,35.763,2.4s-5.9,1.81-8.115,3.905c-2.255,2.145-4.818,4.571-9.765,4.571s-7.51-2.426-9.769-4.567C5.9,4.209,3.993,2.4,0,2.4V0C4.947,0,7.51,2.426,9.765,4.567c2.217,2.1,4.126,3.909,8.118,3.909s5.9-1.81,8.115-3.909C28.257,2.426,30.816,0,35.763,0s7.506,2.426,9.769,4.567c2.213,2.1,4.122,3.909,8.115,3.909s5.9-1.81,8.118-3.909C64.023,2.426,66.582,0,71.529,0s7.506,2.426,9.765,4.567c2.217,2.1,4.126,3.909,8.118,3.909s5.9-1.81,8.118-3.909C99.79,2.426,102.349,0,107.3,0V2.4c-4,0-5.905,1.81-8.122,3.909-2.259,2.141-4.818,4.567-9.765,4.567" transform="translate(0 0.004)" fill="#7d3a1b"/>
            </g>
          </g>
        </g>
        <path id="Trazado_873425" data-name="Trazado 873425" d="M60.362,0A60.362,60.362,0,1,1,0,60.362,60.362,60.362,0,0,1,60.362,0Z" transform="translate(17.974 21.56)" fill="#efb499"/>
        <circle id="Elipse_11503" data-name="Elipse 11503" cx="63" cy="63" r="63" transform="translate(9 9.719)" fill="#fef7eb"/>
      </g>
    </g>
    <g id="Enmascarar_grupo_1098747" data-name="Enmascarar grupo 1098747" transform="translate(13)" clip-path="url(#clip-path-3)">
      <g id="Grupo_1117948" data-name="Grupo 1117948" transform="translate(-132.357 8578.402)">
        <path id="Trazado_904301" data-name="Trazado 904301" d="M351.021,1027.571h5.27a1.827,1.827,0,0,0-.589-2.2,6.8,6.8,0,0,1-2.5-5.347,23.976,23.976,0,0,1,.026-3.786,4.839,4.839,0,0,1,3.433-3.8c.822-.294,1.684-.479,2.529-.709a5.353,5.353,0,0,0,4.252-4.872c.095-.778.209-1.481,1.184-1.452s1.055.757,1.071,1.531a4.646,4.646,0,0,0,2.85,4.46,2.44,2.44,0,0,1,1.572,2.661c-.168,2.106-.3,4.215-.452,6.322a6.929,6.929,0,0,1-2.433,4.9,1.911,1.911,0,0,0-.69,2.277h5.23c.023-.433.061-.82.061-1.208,0-4.307.017-8.615,0-12.922a10.373,10.373,0,0,0-9.608-10.733,9.923,9.923,0,0,0-7.066,2.06c-.193.142-.379.293-.557.452-.611.545-1.269.783-1.86.045-.545-.681-.192-1.269.385-1.752a12.21,12.21,0,0,1,9.881-2.978,12.525,12.525,0,0,1,11.046,12.784c.012,4.427.02,8.854-.013,13.281a1.364,1.364,0,0,0,.943,1.518,5.419,5.419,0,0,1,3.452,5.26c.033,2.752.01,5.5.011,8.256,0,.429,0,.858,0,1.342h4.476c0-.906.05-1.773-.009-2.633a6.718,6.718,0,0,1,5.344-7.075,2.284,2.284,0,0,0,.372-.151v-1.3c-.3-.076-.64-.064-.807-.229-.336-.332-.864-.834-.788-1.132a1.616,1.616,0,0,1,1.08-1.012,12.753,12.753,0,0,1,3.338,0,1.746,1.746,0,0,1,1.167,1.051c.081.27-.564.783-.927,1.142-.118.117-.376.092-.643.147v1.388c2.111.441,4.084,1.443,4.853,3.538a39.79,39.79,0,0,1,1.244,6.323h.984c2.912,0,5.825-.01,8.737,0,1.54.007,2.106.568,2.114,2.08.012,2.553.021,5.105-.013,7.657-.006.453-.08,1.121-.371,1.313-.891.587-.756,1.4-.757,2.224q0,9.213,0,18.426c0,1.813-.458,2.276-2.244,2.276q-34.888,0-69.775,0c-1.876,0-2.3-.433-2.3-2.337,0-6.262.015-12.524-.031-18.785a5.466,5.466,0,0,0-.634-1.631,4.619,4.619,0,0,1-.46-1.427c-.046-2.592-.033-5.184-.018-7.777.008-1.433.59-2.01,2.052-2.019,2.912-.017,5.825-.005,8.737-.005h1.423c0-3.139-.016-6.158.012-9.176a8.9,8.9,0,0,1,.258-2.119,4.959,4.959,0,0,1,2.882-3.466,1.605,1.605,0,0,0,1.073-1.811c0-4.945,0-9.89.107-14.833a8.993,8.993,0,0,1,.777-3.1,1.057,1.057,0,0,1,2,.678c-1.181,3.6-.516,7.289-.649,10.933C350.948,1022.577,351.021,1025.042,351.021,1027.571ZM335.814,1074.7h69.714v-19.967c-1.307,0-2.535,0-3.763,0-.753,0-1.376-.218-1.4-1.1s.571-1.144,1.337-1.16c.439-.009.877-.006,1.316-.006h3.752c0-1.986,0-3.777,0-5.567,0-1.594,0-1.595-1.628-1.595H336.2a4.4,4.4,0,0,0-1.071.037c-.206.052-.506.32-.509.5-.035,2.173-.023,4.347-.023,6.629h1.72q29.383,0,58.767.01c.9,0,2.165-.314,2.137,1.165-.026,1.374-1.23,1.09-2.1,1.09q-28.9.013-57.809.007h-1.492Zm17.128-44.747a5.986,5.986,0,0,0,.187.59,9.149,9.149,0,0,0,12.224,4.652c.736-.313,1.441-.507,1.851.333.438.9-.135,1.465-.937,1.722a17.626,17.626,0,0,1-3.557.941,11.177,11.177,0,0,1-11.9-7.46c-.306-.811-.651-1.03-1.485-.732a3.377,3.377,0,0,0-2.439,3.43c-.035,2.792-.015,5.584-.009,8.375,0,.379.053.757.08,1.123h3.15c0-1.791.009-3.5,0-5.207-.006-.875-.014-1.853,1.139-1.855s1.15.995,1.153,1.857c0,.6,0,1.2,0,1.795v3.41h10.764c0-.515,0-.947,0-1.378.013-2.094.339-2.417,2.449-2.421,1.663,0,3.325,0,5.076,0a14.526,14.526,0,0,1,.022-1.938,2.033,2.033,0,0,1,.516-1.117.993.993,0,0,1,.954-.122,2.087,2.087,0,0,1,.69,1.24c.073,1.9.031,3.805.031,5.738h3.253c0-3.425.056-6.769-.026-10.11a3.186,3.186,0,0,0-2.76-2.893,1.2,1.2,0,0,0-.951.511c-.443.747-.736,1.583-1.132,2.361a1.1,1.1,0,0,1-1.6.573c-.712-.369-.693-.99-.375-1.641.284-.583.564-1.167.859-1.778a1.858,1.858,0,0,0-2.384.94,7.375,7.375,0,0,1-12.572-.062A1.719,1.719,0,0,0,352.942,1029.954Zm11.395-18.939c-2.65,2.247-2.65,2.247-6.461,3.406-.228.069-.525.066-.673.214-.629.627-1.509,1.2-1.762,1.969a7.086,7.086,0,0,0,3.679,8.472c3,1.565,7.7-.759,8.159-4.126.3-2.2.374-4.437.507-6.661a1.219,1.219,0,0,0-.349-.9C366.441,1012.573,365.393,1011.816,364.337,1011.015Zm30,28.219c-.187-2.434-2.254-4.017-4.9-3.874a4.112,4.112,0,0,0-4.061,3.874Zm-36.808-9.034c2.2,3.143,7.048,2.062,7.928.036l-1.67-2.718a5.863,5.863,0,0,1-4.759-.016Zm27.722,12.748h9.129v-1.293H385.25Zm-19.8,0H370.6v-1.528H365.45Z" transform="translate(0 0)" fill="#6a4d23"/>
      </g>
    </g>
  </g>
</svg>
