<svg xmlns="http://www.w3.org/2000/svg" xmlns:xlink="http://www.w3.org/1999/xlink" width="190" height="193" viewBox="0 0 190 193">
  <defs>
    <clipPath id="clip-path">
      <rect id="Rectángulo_405697" data-name="Rectángulo 405697" width="190" height="193" transform="translate(285 2843)" fill="#fff" stroke="#707070" stroke-width="1"/>
    </clipPath>
  </defs>
  <g id="Enmascarar_grupo_1098740" data-name="Enmascarar grupo 1098740" transform="translate(-285 -2843)" clip-path="url(#clip-path)">
    <g id="Grupo_1104864" data-name="Grupo 1104864" transform="translate(269.388 2732.127)">
      <g id="Grupo_1104852" data-name="Grupo 1104852" transform="translate(34.185 149.351)">
        <rect id="Rectángulo_405676" data-name="Rectángulo 405676" width="154.123" height="103.1" rx="1.626" fill="#464646"/>
      </g>
      <g id="Grupo_1104853" data-name="Grupo 1104853" transform="translate(39.598 154.758)">
        <rect id="Rectángulo_405677" data-name="Rectángulo 405677" width="143.299" height="90.171" fill="#fff"/>
      </g>
      <g id="Grupo_1104854" data-name="Grupo 1104854" transform="translate(39.598 154.758)">
        <rect id="Rectángulo_405678" data-name="Rectángulo 405678" width="143.299" height="5.42" fill="#007896"/>
      </g>
      <g id="Grupo_1104855" data-name="Grupo 1104855" transform="translate(39.598 241.669)">
        <rect id="Rectángulo_405679" data-name="Rectángulo 405679" width="143.299" height="3.261" fill="#007896"/>
      </g>
      <rect id="Rectángulo_405680" data-name="Rectángulo 405680" width="143.292" height="6.204" transform="translate(39.598 160.178)" fill="#dcdcdc"/>
      <g id="Grupo_1104858" data-name="Grupo 1104858" transform="translate(48.216 172.804)">
        <path id="Trazado_896381" data-name="Trazado 896381" d="M153.138,217.583H37.479V160.427H39.23v55.4H153.138Z" transform="translate(-34.189 -155.142)" fill="#b4b4b4"/>
        <g id="Grupo_1104856" data-name="Grupo 1104856" transform="translate(116.75 57.402)">
          <path id="Trazado_896382" data-name="Trazado 896382" d="M88.69,184.677a26.534,26.534,0,0,1-7.483-4.164l1.5,4.164-1.5,4.162A26.463,26.463,0,0,1,88.69,184.677Z" transform="translate(-81.207 -180.513)" fill="#b4b4b4"/>
        </g>
        <g id="Grupo_1104857" data-name="Grupo 1104857">
          <path id="Trazado_896383" data-name="Trazado 896383" d="M40.375,158.39a26.512,26.512,0,0,0,4.164,7.486l-4.164-1.508-4.164,1.508A26.322,26.322,0,0,0,40.375,158.39Z" transform="translate(-36.211 -158.39)" fill="#b4b4b4"/>
        </g>
      </g>
      <g id="Grupo_1104859" data-name="Grupo 1104859" transform="translate(39.598 154.751)" opacity="0.1" style="mix-blend-mode: screen;isolation: isolate">
        <path id="Trazado_896384" data-name="Trazado 896384" d="M85.537,151.432,32.89,204.057V174.894l23.466-23.462Z" transform="translate(-32.89 -151.432)" fill="#fff"/>
      </g>
      <g id="Grupo_1104860" data-name="Grupo 1104860" transform="translate(124.891 186.928)" opacity="0.1" style="mix-blend-mode: screen;isolation: isolate">
        <path id="Trazado_896385" data-name="Trazado 896385" d="M123.762,163.833V201.6l-20.233,20.233H65.762Z" transform="translate(-65.762 -163.833)" fill="#fff"/>
      </g>
      <path id="Trazado_896386" data-name="Trazado 896386" d="M141.421,199.477l-17.046-30.266-23.521,27.662L73.376,172.133,42.44,190.1l-1.172-2.021,32.407-18.816,26.957,24.272L123.3,166.872V162.54l20.157,35.792Z" transform="translate(20.07 21.033)" fill="#b4b4b4"/>
      <path id="Trazado_896387" data-name="Trazado 896387" d="M48.327,175.372a4.232,4.232,0,1,1-4.232-4.232A4.231,4.231,0,0,1,48.327,175.372Z" transform="translate(17.829 34.746)" fill="#007896"/>
      <path id="Trazado_896388" data-name="Trazado 896388" d="M60.535,168.287a4.233,4.233,0,1,1-4.235-4.235A4.235,4.235,0,0,1,60.535,168.287Z" transform="translate(37.294 23.443)" fill="#007896"/>
      <path id="Trazado_896389" data-name="Trazado 896389" d="M71.023,177.525a4.232,4.232,0,1,1-4.232-4.232A4.231,4.231,0,0,1,71.023,177.525Z" transform="translate(54.022 38.18)" fill="#007896"/>
      <path id="Trazado_896390" data-name="Trazado 896390" d="M80.166,166.976a4.232,4.232,0,1,1-4.232-4.232A4.231,4.231,0,0,1,80.166,166.976Z" transform="translate(68.602 21.357)" fill="#007896"/>
      <path id="Trazado_896391" data-name="Trazado 896391" d="M87.094,179.156a4.233,4.233,0,1,1-4.232-4.232A4.231,4.231,0,0,1,87.094,179.156Z" transform="translate(79.647 40.78)" fill="#007896"/>
      <g id="Grupo_1104861" data-name="Grupo 1104861" transform="translate(101.672 172.95)">
        <rect id="Rectángulo_405681" data-name="Rectángulo 405681" width="10.29" height="2.335" transform="translate(20.505)" fill="#b4b4b4"/>
        <rect id="Rectángulo_405682" data-name="Rectángulo 405682" width="11.311" height="2.335" transform="translate(6.859)" fill="#b4b4b4"/>
        <rect id="Rectángulo_405683" data-name="Rectángulo 405683" width="4.524" height="2.335" fill="#b4b4b4"/>
        <rect id="Rectángulo_405684" data-name="Rectángulo 405684" width="15.47" height="2.336" transform="translate(15.325 5.254)" fill="#b4b4b4"/>
        <rect id="Rectángulo_405685" data-name="Rectángulo 405685" width="12.988" height="2.336" transform="translate(0 5.254)" fill="#b4b4b4"/>
        <rect id="Rectángulo_405686" data-name="Rectángulo 405686" width="8.611" height="2.335" transform="translate(22.184 10.509)" fill="#b4b4b4"/>
        <rect id="Rectángulo_405687" data-name="Rectángulo 405687" width="13.794" height="2.335" transform="translate(6.055 10.509)" fill="#b4b4b4"/>
        <rect id="Rectángulo_405688" data-name="Rectángulo 405688" width="3.718" height="2.335" transform="translate(0 10.509)" fill="#b4b4b4"/>
      </g>
      <g id="Grupo_1104862" data-name="Grupo 1104862" transform="translate(82.675 205.599)">
        <rect id="Rectángulo_405689" data-name="Rectángulo 405689" width="4.062" height="23.497" fill="#ff6400"/>
        <rect id="Rectángulo_405690" data-name="Rectángulo 405690" width="4.063" height="21.005" transform="translate(5.521 2.492)" fill="#ffc800"/>
        <rect id="Rectángulo_405691" data-name="Rectángulo 405691" width="4.064" height="14.449" transform="translate(11.041 9.047)" fill="#00a0b4"/>
        <rect id="Rectángulo_405692" data-name="Rectángulo 405692" width="4.064" height="18.603" transform="translate(16.563 4.894)" fill="#96b400"/>
      </g>
      <g id="Grupo_1104863" data-name="Grupo 1104863" transform="translate(127.6 178.445)">
        <rect id="Rectángulo_405693" data-name="Rectángulo 405693" width="4.476" height="45.78" transform="translate(39.796 42.903) rotate(-45.002)" fill="#323232"/>
        <path id="Trazado_896392" data-name="Trazado 896392" d="M92.53,211.949a25.725,25.725,0,0,1-12.864-48,26.168,26.168,0,0,1,25.731,0,25.723,25.723,0,0,1-12.867,48Zm0-46.227a20.5,20.5,0,0,0-10.249,38.264,20.869,20.869,0,0,0,20.506,0A20.5,20.5,0,0,0,92.53,165.722Z" transform="translate(-66.806 -160.564)" fill="#323232"/>
        <path id="Trazado_896393" data-name="Trazado 896393" d="M114.245,209.039a2.985,2.985,0,0,1-4.216,0L85.2,184.211a1.494,1.494,0,0,1,0-2.109l3.165-3.166a1.492,1.492,0,0,1,2.109,0L115.3,203.764a2.979,2.979,0,0,1,0,4.216Z" transform="translate(-38.169 -131.961)" fill="#007896"/>
        <path id="Trazado_896394" data-name="Trazado 896394" d="M110.324,183.251a20.8,20.8,0,1,1-2.781-10.41A20.757,20.757,0,0,1,110.324,183.251Z" transform="translate(-63.789 -157.586)" fill="#e6ffff" opacity="0.5"/>
        <path id="Trazado_896395" data-name="Trazado 896395" d="M89.167,178.937a1.488,1.488,0,0,0-2.1,0l-1.476,1.471L113.575,208.4l.42-.42a2.975,2.975,0,0,0,0-4.214Z" transform="translate(-36.858 -131.96)" fill="#008caa"/>
      </g>
      <rect id="Rectángulo_405694" data-name="Rectángulo 405694" width="165.132" height="10.509" rx="1.35" transform="translate(28.683 254.885)" fill="#464646"/>
      <rect id="Rectángulo_405695" data-name="Rectángulo 405695" width="33.666" height="4.75" transform="translate(35.549 257.765)" fill="#323232"/>
      <path id="Trazado_896396" data-name="Trazado 896396" d="M92.525,193.213a1.889,1.889,0,1,1-1.889-1.891A1.889,1.889,0,0,1,92.525,193.213Z" transform="translate(95.783 66.928)" fill="#ff6400"/>
      <path id="Trazado_896397" data-name="Trazado 896397" d="M89.514,193.213a1.89,1.89,0,1,1-1.889-1.891A1.889,1.889,0,0,1,89.514,193.213Z" transform="translate(90.978 66.928)" fill="#96b400"/>
    </g>
  </g>
</svg>
