<svg xmlns="http://www.w3.org/2000/svg" xmlns:xlink="http://www.w3.org/1999/xlink" width="139" height="139" viewBox="0 0 139 139">
  <defs>
    <clipPath id="clip-path">
      <rect id="Rectángulo_400938" data-name="Rectángulo 400938" width="139" height="139" transform="translate(-0.043 -0.043)" fill="none"/>
    </clipPath>
    <clipPath id="clip-path-2">
      <rect id="Rectángulo_401073" data-name="Rectángulo 401073" width="105.872" height="47.68" fill="#7d3a1b"/>
    </clipPath>
    <clipPath id="clip-path-3">
      <rect id="Rectángulo_406533" data-name="Rectángulo 406533" width="81" height="81" transform="translate(443.777 3258)" fill="#fff" stroke="#707070" stroke-width="1"/>
    </clipPath>
  </defs>
  <g id="Grupo_1119975" data-name="Grupo 1119975" transform="translate(-421.777 -3228.563)">
    <g id="Grupo_1117779" data-name="Grupo 1117779" transform="translate(156.82 -2055.395)">
      <g id="Grupo_1099379" data-name="Grupo 1099379" transform="translate(265 5284)">
        <rect id="Rectángulo_401103" data-name="Rectángulo 401103" width="139" height="139" transform="translate(-0.043 -0.043)" fill="none"/>
        <g id="Grupo_1099348" data-name="Grupo 1099348" transform="translate(0)">
          <g id="Grupo_1099282" data-name="Grupo 1099282">
            <g id="Grupo_1099281" data-name="Grupo 1099281" clip-path="url(#clip-path-2)">
              <path id="Trazado_873375" data-name="Trazado 873375" d="M85.879,10.449c-4.752,0-7.21-2.33-9.379-4.386C74.371,4.047,72.538,2.3,68.7,2.3s-5.668,1.742-7.8,3.758c-2.17,2.056-4.624,4.386-9.379,4.386s-7.21-2.33-9.379-4.386C40.018,4.047,38.184,2.3,34.349,2.3s-5.668,1.742-7.794,3.758c-2.17,2.056-4.627,4.386-9.379,4.386S9.963,8.119,7.794,6.063C5.668,4.047,3.835,2.3,0,2.3V0C4.752,0,7.21,2.334,9.379,4.386c2.129,2.02,3.963,3.758,7.8,3.758s5.668-1.738,7.794-3.755C27.136,2.334,29.6,0,34.349,0s7.213,2.334,9.379,4.386c2.129,2.02,3.963,3.758,7.8,3.758s5.668-1.738,7.8-3.758C61.489,2.334,63.951,0,68.7,0s7.213,2.334,9.379,4.386c2.129,2.02,3.963,3.758,7.8,3.758s5.668-1.738,7.8-3.758C95.843,2.334,98.3,0,103.056,0V2.3c-3.835,0-5.668,1.742-7.8,3.758-2.169,2.056-4.627,4.386-9.379,4.386" transform="translate(2.816 37.231)" fill="#7d3a1b"/>
              <path id="Trazado_873376" data-name="Trazado 873376" d="M85.879,10.449c-4.752,0-7.213-2.33-9.379-4.39C74.371,4.043,72.538,2.3,68.7,2.3s-5.668,1.738-7.8,3.755c-2.166,2.06-4.624,4.39-9.379,4.39s-7.213-2.33-9.379-4.39C40.018,4.043,38.184,2.3,34.349,2.3s-5.668,1.742-7.794,3.755c-2.17,2.06-4.627,4.39-9.379,4.39s-7.213-2.33-9.383-4.39C5.668,4.043,3.835,2.3,0,2.3V0C4.752,0,7.213,2.33,9.379,4.386c2.129,2.02,3.963,3.758,7.8,3.758s5.668-1.738,7.794-3.758C27.136,2.33,29.6,0,34.349,0s7.213,2.33,9.383,4.386c2.126,2.02,3.959,3.758,7.794,3.758s5.668-1.738,7.8-3.758C61.489,2.33,63.951,0,68.7,0s7.213,2.33,9.379,4.386c2.129,2.02,3.963,3.758,7.8,3.758s5.668-1.738,7.8-3.758C95.846,2.33,98.3,0,103.059,0V2.3c-3.835,0-5.672,1.742-7.8,3.755-2.169,2.06-4.628,4.39-9.379,4.39" transform="translate(1.877 24.821)" fill="#7d3a1b"/>
              <path id="Trazado_873377" data-name="Trazado 873377" d="M85.879,10.449c-4.752,0-7.213-2.33-9.379-4.39C74.371,4.043,72.538,2.3,68.7,2.3s-5.668,1.738-7.8,3.755c-2.166,2.06-4.627,4.39-9.379,4.39s-7.213-2.33-9.379-4.39C40.018,4.043,38.184,2.3,34.349,2.3s-5.668,1.742-7.794,3.755c-2.169,2.06-4.627,4.39-9.379,4.39s-7.213-2.33-9.383-4.39C5.668,4.043,3.835,2.3,0,2.3V0C4.752,0,7.213,2.33,9.379,4.386c2.126,2.02,3.963,3.758,7.8,3.758s5.668-1.738,7.794-3.758C27.136,2.33,29.6,0,34.349,0s7.213,2.33,9.383,4.386c2.126,2.02,3.959,3.758,7.794,3.758s5.668-1.738,7.8-3.758C61.489,2.33,63.951,0,68.7,0s7.213,2.33,9.379,4.386c2.129,2.02,3.963,3.758,7.8,3.758s5.668-1.738,7.8-3.758C95.846,2.33,98.3,0,103.059,0V2.3c-3.835,0-5.672,1.742-7.8,3.755-2.169,2.06-4.627,4.39-9.379,4.39" transform="translate(0.939 12.41)" fill="#7d3a1b"/>
              <path id="Trazado_873378" data-name="Trazado 873378" d="M85.879,10.445c-4.752,0-7.21-2.33-9.379-4.386C74.371,4.043,72.538,2.3,68.7,2.3s-5.668,1.738-7.794,3.755c-2.169,2.056-4.627,4.386-9.383,4.386s-7.21-2.33-9.379-4.386C40.018,4.043,38.184,2.3,34.349,2.3s-5.668,1.738-7.794,3.751c-2.166,2.06-4.627,4.39-9.379,4.39S9.963,8.115,7.794,6.059C5.668,4.043,3.835,2.3,0,2.3V0C4.752,0,7.213,2.33,9.379,4.386c2.129,2.016,3.963,3.755,7.8,3.755S22.845,6.4,24.971,4.386C27.14,2.33,29.6,0,34.349,0s7.21,2.33,9.383,4.386c2.126,2.016,3.959,3.755,7.794,3.755s5.668-1.738,7.8-3.755C61.493,2.33,63.951,0,68.7,0s7.21,2.33,9.379,4.386c2.129,2.016,3.963,3.755,7.8,3.755s5.668-1.738,7.8-3.755C95.846,2.33,98.3,0,103.059,0V2.3c-3.839,0-5.672,1.738-7.8,3.755-2.169,2.056-4.627,4.386-9.379,4.386" transform="translate(0 0.004)" fill="#7d3a1b"/>
            </g>
          </g>
        </g>
        <path id="Trazado_873425" data-name="Trazado 873425" d="M57.977,0A57.977,57.977,0,1,1,0,57.977,57.977,57.977,0,0,1,57.977,0Z" transform="translate(17.221 20.665)" fill="#ffe2b7"/>
        <circle id="Elipse_11503" data-name="Elipse 11503" cx="60.5" cy="60.5" r="60.5" transform="translate(8.957 8.957)" fill="#fff"/>
      </g>
    </g>
    <g id="Enmascarar_grupo_1098778" data-name="Enmascarar grupo 1098778" transform="translate(7)" clip-path="url(#clip-path-3)">
      <g id="Grupo_1119629" data-name="Grupo 1119629" transform="translate(-2758.757 403.903)">
        <path id="Trazado_906308" data-name="Trazado 906308" d="M3241.55,2938.782v4.324h4.852c0-1.937,0-3.831,0-5.725,0-1.766.333-2.108,2.059-2.111q4.115-.005,8.228,0h1.346v-5.51a11.172,11.172,0,0,1-2.085-.033,1.9,1.9,0,0,1-1.291-.777,1.678,1.678,0,0,1,.359-1.456c2-2.1,4.067-4.139,6.127-6.181a1.326,1.326,0,0,1,2.091.022c2.025,2.022,4.078,4.018,6.046,6.094a1.874,1.874,0,0,1,.392,1.568c-.116.357-.824.637-1.312.731a11.369,11.369,0,0,1-2.061.03v5.447c.439.021.859.06,1.279.061,3.418,0,6.837,0,10.256.006,1.385,0,1.779.385,1.779,1.77q.01,20.457,0,40.914c0,1.411-.344,1.737-1.8,1.737q-35.238.007-70.477,0c-1.489,0-1.8-.326-1.8-1.85q-.009-13.3,0-26.6c0-1.517.382-1.885,1.912-1.892,1.786-.009,3.572,0,5.455,0l.134-1.208a10.631,10.631,0,0,1-2.069-.031c-.521-.109-1.242-.393-1.4-.787a1.831,1.831,0,0,1,.463-1.538c1.944-2.043,3.968-4.011,5.963-6.007a1.372,1.372,0,0,1,2.182-.027c2.029,2.019,4.077,4.021,6.044,6.1a1.837,1.837,0,0,1,.373,1.555c-.122.354-.83.613-1.318.708a11.018,11.018,0,0,1-2.006.029c-.04.37-.075.7-.121,1.122h4.816c0-1.378-.005-2.717,0-4.055.009-1.724.316-2.039,2-2.045,1.708-.006,3.416,0,5.228,0v-4.377a7.68,7.68,0,0,1-1.883-.034,2.555,2.555,0,0,1-1.48-.92c-.172-.287.141-1.076.468-1.417,1.979-2.066,4.031-4.062,6.044-6.094a1.326,1.326,0,0,1,2.157.022c2.016,2.03,4.066,4.028,6.04,6.1a1.651,1.651,0,0,1,.4,1.434,2.208,2.208,0,0,1-1.373.877A9.03,9.03,0,0,1,3241.55,2938.782Zm24.676-.874c0,.541,0,.971,0,1.4q0,6.443,0,12.885c0,1.333-.373,1.708-1.688,1.723-1.511.018-3.022.011-4.532,0-1.531-.008-1.894-.366-1.9-1.9q-.01-6.442,0-12.885v-1.234h-9.109c0,2.005.008,3.944,0,5.881-.009,1.516-.4,1.914-1.9,1.922-1.823.01-3.646,0-5.628,0v1.505q0,7.218,0,14.436c0,1.888-.311,2.186-2.24,2.189-1.272,0-2.545,0-3.817,0-1.683-.008-2.1-.428-2.106-2.114q0-7.337,0-14.675v-1.23h-4.8c0,1.341,0,2.571,0,3.8,0,2.09-.234,2.324-2.317,2.325h-5.023v1.5q0,8.173,0,16.345c0,1.574-.383,1.941-1.984,1.949q-2.028.011-4.055,0c-1.708-.006-2.108-.4-2.109-2.092q0-8.173,0-16.345v-1.271h-4.958v1.258c0,7.516.027,15.033-.029,22.549-.009,1.162.4,1.354,1.432,1.354q33.1-.038,66.2,0c1.122,0,1.479-.257,1.475-1.431-.043-12.169-.026-24.339-.026-36.508v-1.353Zm-32.01-1.78c1.388.124,1.7.881,1.7,1.994-.022,7.236-.011,14.471-.011,21.707v1.349h3.042v-1.469c0-7.156.015-14.312-.014-21.468,0-1.155.216-2.024,1.412-2.117l-2.909-3.11Zm24.8-9.026c1.487.174,1.683,1.106,1.677,2.312-.034,6.833-.016,13.667-.016,20.5v1.488h1.469c1.583,0,1.583,0,1.583-1.626,0-6.754.011-13.508-.01-20.261,0-1.168,0-2.253,1.384-2.394l-2.885-3.067Zm-40.372,41.991v-1.538c0-6.6.015-13.2-.014-19.8,0-1.152.157-2.076,1.552-2.236l-3.1-2.993-3.086,3.038c1.462.075,1.635,1.017,1.631,2.171-.021,6.679-.01,13.359-.01,20.038v1.321Z" transform="translate(0 -48.521)" fill="#7d3a1b"/>
        <path id="Trazado_906309" data-name="Trazado 906309" d="M3316.867,2902.21c-.525.372-1.032.745-1.553,1.1a2.138,2.138,0,0,1-2.557.051,2.174,2.174,0,0,1-.933-2.39,1.433,1.433,0,0,1,.129-.456c.679-1.188.18-1.884-.862-2.569-1.3-.856-1.593-2.273-.63-3.241a3.4,3.4,0,0,1,2.174-.89c1.114-.015,1.709-.288,2.005-1.424.375-1.436,1.187-2.094,2.271-2.018a2.337,2.337,0,0,1,2.254,2.082,1.451,1.451,0,0,0,1.788,1.335c1.556-.1,2.426.476,2.729,1.578a2.333,2.333,0,0,1-1.278,2.793c-.887.524-1.206,1.073-.7,2.1a2.267,2.267,0,0,1-.575,3c-.911.726-1.853.632-3.137-.273C3317.637,2902.741,3317.278,2902.5,3316.867,2902.21Zm-3.451-5.826a3,3,0,0,1,1.277,4.141,2.894,2.894,0,0,1,4.194-.031c-.13-2.49-.13-2.49,1.491-4.223-1.99.292-3.044-.639-3.511-2.455C3316.4,2895.656,3315.37,2896.544,3313.416,2896.384Z" transform="translate(-79.469 -25.334)" fill="#7d3a1b"/>
        <path id="Trazado_906310" data-name="Trazado 906310" d="M3229.164,2941.745c.235-.7.4-1.315.646-1.9a2.239,2.239,0,0,1,4.208,0,2.761,2.761,0,0,1,.213.681c.144,1.035.746,1.286,1.733,1.242,1.575-.07,2.4.469,2.758,1.566s0,2-1.371,2.86a1.387,1.387,0,0,0-.606,2.043,2.315,2.315,0,0,1-.582,3.014c-.935.74-1.907.714-3.126-.295a1.437,1.437,0,0,0-2.231,0,2.266,2.266,0,0,1-3.036.375c-.967-.657-1.239-1.629-.679-3.094a1.428,1.428,0,0,0-.63-2.055c-1.382-.88-1.717-1.766-1.344-2.85.385-1.121,1.17-1.574,2.753-1.588C3228.265,2941.742,3228.659,2941.745,3229.164,2941.745Zm-.624,2.574a7.439,7.439,0,0,1,1.363,1.846,7.983,7.983,0,0,1,.05,2.326c1.212-1.238,2.578-1.218,4.076-.049a3.02,3.02,0,0,1,1.352-4.058c-1.98.174-2.991-.78-3.486-2.6A2.8,2.8,0,0,1,3228.539,2944.319Z" transform="translate(-14.804 -61.891)" fill="#7d3a1b"/>
        <path id="Trazado_906311" data-name="Trazado 906311" d="M3415.984,2868.339c1.406-2.039.479-3.193-1.02-4.356a2.33,2.33,0,0,1-.218-2.144c.264-.593,1.128-.935,1.763-1.334a1.085,1.085,0,0,1,.7-.019c1.125.226,1.606-.3,1.882-1.353.383-1.462,1.111-2.036,2.269-2.037a2.2,2.2,0,0,1,2.286,2.009c.225,1.223.883,1.507,1.981,1.382a2.266,2.266,0,0,1,1.411,4.25,1.553,1.553,0,0,0-.784,2.378,2.151,2.151,0,0,1-.673,2.864,2.072,2.072,0,0,1-2.921-.206c-1.013-1.006-1.805-.693-2.714.106a1.888,1.888,0,0,1-2.516.239A9.89,9.89,0,0,1,3415.984,2868.339Zm5.373-7.732c-.434,1.877-1.63,2.543-3.482,2.487,1.7,1,1.949,2.382,1.359,4.106a3.694,3.694,0,0,0,5.65-4.139A2.975,2.975,0,0,1,3421.357,2860.607Z" transform="translate(-159.197)" fill="#7d3a1b"/>
      </g>
    </g>
  </g>
</svg>
