<svg xmlns="http://www.w3.org/2000/svg" width="70" height="70" viewBox="0 0 70 70">
  <g id="Grupo_1117956" data-name="Grupo 1117956" transform="translate(-300 -6501)">
    <g id="Grupo_1099486" data-name="Grupo 1099486" transform="translate(31 5543)">
      <circle id="Elipse_5614" data-name="Elipse 5614" cx="35" cy="35" r="35" transform="translate(269 958)" fill="#fff"/>
    </g>
    <g id="Grupo_1117958" data-name="Grupo 1117958" transform="translate(-429.995 4595.791)">
      <path id="Trazado_904328" data-name="Trazado 904328" d="M805.82,1955.755q1.469-1.451,2.938-2.9c.349-.345.688-.7,1.041-1.038.378-.364.721-.777.267-1.255s-.876-.144-1.248.23q-1.813,1.826-3.639,3.641a1.163,1.163,0,0,1-.622.367c.5-.951.963-1.923,1.5-2.849a38.187,38.187,0,0,1,6.193-7.917c6.121-6.04,12.152-12.171,18.234-18.251a10.1,10.1,0,0,1,5.206-2.684,4.136,4.136,0,0,1,.865-.047.927.927,0,0,1,1.017.927,3.89,3.89,0,0,1-.089,1.256,10,10,0,0,1-2.453,4.677c-6.744,6.774-13.466,13.573-20.294,20.262a30.143,30.143,0,0,1-8.44,5.57c-.118.055-.246.09-.37.134Zm27.815-30.981c-.084.021-.3.063-.511.126-.474.142-.85.412-.675.957.16.5.577.512,1.046.387.728-.2,1.124.243.919,1.014-.122.46-.043.833.416.971s.748-.15.916-.572A2.118,2.118,0,0,0,833.635,1924.774Z" transform="translate(-53.646)" fill="#6a4d23"/>
      <path id="Trazado_904329" data-name="Trazado 904329" d="M931.018,2150.837c-2.117,0-4.234.006-6.35,0a2.068,2.068,0,0,1-2.307-2.252q-.022-4.879,0-9.759a2.011,2.011,0,0,1,2.2-2.219c3.831-.007,7.662.023,11.494.035.577,0,1.158-.056,1.732-.011a1.958,1.958,0,0,1,1.876,1.979q.034,5.113,0,10.227a2.028,2.028,0,0,1-2.155,2C935.34,2150.847,933.179,2150.836,931.018,2150.837Zm-.039-10.363c.6.519,1.133,1.031,1.726,1.456a1.424,1.424,0,0,0,.992.266c.165-.033.322-.531.333-.826.04-1.021.011-2.046.018-3.069,0-.484-.066-.951-.665-.948s-.684.454-.675.946c.011.559,0,1.118,0,1.822-.454-.377-.769-.621-1.063-.887a.885.885,0,0,0-1.353.011c-.3.274-.622.518-1.051.871,0-.754,0-1.327,0-1.9,0-.485-.178-.866-.7-.862-.505,0-.637.392-.635.843.006,1.067-.025,2.136.019,3.2a1.054,1.054,0,0,0,.383.807,1.1,1.1,0,0,0,.881-.224C929.794,2141.536,930.346,2141.015,930.978,2140.474Zm4.883,6.817c.534,0,1.068.015,1.6,0,.425-.016.748-.206.724-.687a.632.632,0,0,0-.722-.621q-1.6-.01-3.2,0c-.4,0-.708.171-.725.613-.018.476.3.677.723.695C934.793,2147.307,935.328,2147.29,935.862,2147.291Zm-.028,2.121c.533,0,1.066,0,1.6,0,.438,0,.754-.189.751-.653s-.331-.658-.758-.663c-1.044-.01-2.088-.013-3.131,0-.426.006-.751.216-.754.675s.328.639.761.64Q935.067,2149.414,935.833,2149.411Z" transform="translate(-155.681 -184.991)" fill="#6a4d23"/>
      <path id="Trazado_904330" data-name="Trazado 904330" d="M769.524,1933.7l-8.751,8.759-7.014-7.934c.889-.681,1.75-1.336,2.6-2,.173-.135.424-.29.449-.463.035-.25-.024-.66-.187-.755a.987.987,0,0,0-.872-.013c-.923.621-1.808,1.3-2.682,1.99a.982.982,0,0,1-1.088.173q-3.83-1.473-7.68-2.892a1.438,1.438,0,0,1-1-1.055c-.188-.731-.5-1.434-.645-2.171a1.431,1.431,0,0,1,.231-1.137,1.384,1.384,0,0,1,1.15-.2c3.438,1,6.862,2.044,10.289,3.078q7.281,2.2,14.561,4.4C769.115,1933.544,769.335,1933.633,769.524,1933.7Z" transform="translate(0 -2.52)" fill="#6a4d23"/>
      <path id="Trazado_904331" data-name="Trazado 904331" d="M933.758,2031.981l3.691,12.6c-.262.026-.449.06-.636.06-2.316,0-4.632.008-6.948-.006a1.226,1.226,0,0,1-.744-.188c-1.409-1.222-2.79-2.476-4.148-3.692Z" transform="translate(-157.954 -94.362)" fill="#6a4d23"/>
      <path id="Trazado_904332" data-name="Trazado 904332" d="M766.91,2097.517c-1.606-.577-3.231-1.161-4.854-1.746-.459-.166-.925-.319-1.372-.513a.7.7,0,0,1-.274-1.186,2.758,2.758,0,0,1,2.537-1.223c2.319.194,4.653.2,7.08.281Z" transform="translate(-15.207 -147.079)" fill="#6a4d23"/>
      <path id="Trazado_904333" data-name="Trazado 904333" d="M851.4,2142.928a1.044,1.044,0,0,1,.086.233c.147,2.465.3,4.93.429,7.4.026.486-1.052,1.836-1.535,1.839a1.053,1.053,0,0,1-.831-.442c-.783-1.935-1.5-3.895-2.224-5.854a.542.542,0,0,1,.116-.492C848.735,2144.709,850.047,2143.837,851.4,2142.928Z" transform="translate(-90.676 -190.469)" fill="#6a4d23"/>
      <path id="Trazado_904334" data-name="Trazado 904334" d="M767.729,1978.437a9.843,9.843,0,0,1-1.4,1.253,1.247,1.247,0,0,1-1.078.012c-1.013-.6-1.159-1.242-.5-1.905a.8.8,0,0,1,.666-.175C766.136,1977.833,766.836,1978.115,767.729,1978.437Z" transform="translate(-18.817 -47.259)" fill="#6a4d23"/>
    </g>
  </g>
</svg>
