<svg xmlns="http://www.w3.org/2000/svg" width="131" height="131" viewBox="0 0 131 131">
  <g id="Grupo_1100287" data-name="Grupo 1100287" transform="translate(-345 -7528.244)">
    <g id="Grupo_156312" data-name="Grupo 156312" transform="translate(344 7528.244)">
      <path id="Elipse_5845" data-name="Elipse 5845" d="M65.5,0A65.5,65.5,0,1,1,0,65.5,65.5,65.5,0,0,1,65.5,0Z" transform="translate(1 0)" fill="#ffce73"/>
    </g>
    <g id="Grupo_1119614" data-name="Grupo 1119614" transform="translate(-1740.403 6120.57)">
      <path id="Trazado_906212" data-name="Trazado 906212" d="M2358.831,1496.86c.763-1.477,1.37-2.649,1.975-3.823a1.692,1.692,0,0,1,2.527-.88c1.657.793,3.334,1.542,4.994,2.329a3.025,3.025,0,0,1,1.84,2.933q0,6.057,0,12.113c0,1.346-.694,1.934-2.009,1.932q-9.352-.013-18.705,0c-1.421,0-2.007-.715-2-2.1.024-4.037.013-8.075.007-12.113a3.04,3.04,0,0,1,1.926-3.027c1.683-.735,3.385-1.423,5.078-2.136a1.612,1.612,0,0,1,2.3.84C2357.4,1494.136,2358.037,1495.348,2358.831,1496.86Zm-8.272,11.319h16.449v-6.988c0-3.938,0-3.939-3.585-5.462a1.469,1.469,0,0,0-.411,0,25.361,25.361,0,0,1-1.89,3.559,3.688,3.688,0,0,1-2.3,1.628c-.776,0-1.744-.884-2.287-1.629a29.175,29.175,0,0,1-2.023-3.764c-1.181.488-2.229.878-3.233,1.361-.3.146-.686.545-.689.833C2350.542,1501.172,2350.559,1504.633,2350.559,1508.179Z" transform="translate(-170.599 -40.365)" fill="#7d3a1b"/>
      <path id="Trazado_906213" data-name="Trazado 906213" d="M2235.762,1639.262a33.921,33.921,0,0,1,2.3-3.692,4.135,4.135,0,0,1,2.078-1.218,7.512,7.512,0,0,1,2.44-.012,4.665,4.665,0,0,1,4.517,4.7c.07,3.628.021,7.259.021,10.888,0,1.4-.71,2.01-2.1,2.005q-9.278-.03-18.556,0a1.791,1.791,0,0,1-2.063-2.047c.005-3.578-.035-7.157.016-10.735a4.694,4.694,0,0,1,4.563-4.819c.712-.055,1.432,0,2.146-.038a2.392,2.392,0,0,1,2.482,1.4C2234.2,1636.823,2234.919,1637.881,2235.762,1639.262Zm-8.185,9.428h16.364c0-3.219.065-6.33-.057-9.434a2.2,2.2,0,0,0-1.231-1.636c-.875-.243-1.983-.529-2.646.744-.8,1.537-1.747,3-2.681,4.463-.925,1.447-2.2,1.451-3.125.009-.934-1.462-1.883-2.925-2.682-4.462-.661-1.27-1.766-1-2.643-.756a2.2,2.2,0,0,0-1.241,1.628C2227.513,1642.35,2227.578,1645.461,2227.578,1648.69Z" transform="translate(-85.271 -139.062)" fill="#7d3a1b"/>
      <path id="Trazado_906214" data-name="Trazado 906214" d="M2112.609,1512.028c-3.016,0-6.032.014-9.048-.006-1.632-.01-2.137-.494-2.146-2.088-.02-4.09.006-8.18-.012-12.269a3.254,3.254,0,0,1,1.84-3.108c.495-.266.986-.539,1.479-.807,2.537-1.378,2.538-1.377,4.75.517a4.866,4.866,0,0,0,7-.484c1.093-1.291,2.017-1.367,3.4-.5,4.678,2.927,4.242,2.249,4.244,7.6,0,2.914.006,5.828,0,8.742-.005,1.981-.428,2.4-2.455,2.4C2118.641,1512.034,2115.625,1512.028,2112.609,1512.028Zm8.359-3.272c0-3.583.043-7.046-.023-10.506-.024-1.271-2.031-2.081-3.078-1.334-3.362,2.4-6.88,2.358-10.345-.114-.958-.684-2.967.149-2.985,1.317-.054,3.509-.019,7.019-.019,10.638Z" transform="translate(0 -40.931)" fill="#7d3a1b"/>
      <path id="Trazado_906215" data-name="Trazado 906215" d="M2228.031,1449.1l-2.488,1.6c-12.12-18.57-38.062-17.806-50.012-1.051l-2.5-1.763c6.25-8.4,14.436-13.239,24.762-14.1A33.074,33.074,0,0,1,2228.031,1449.1Z" transform="translate(-49.659)" fill="#7d3a1b"/>
      <path id="Trazado_906216" data-name="Trazado 906216" d="M2236.187,1585.211a27.934,27.934,0,0,1,2-5.309,6.433,6.433,0,0,1,6.6-2.984,6.9,6.9,0,0,1,5.842,4.579,10.643,10.643,0,0,1,0,7.787,7.128,7.128,0,0,1-8,4.471,7.537,7.537,0,0,1-6.011-7.167c-.026-.406,0-.816,0-1.224Zm3.625.228a18.732,18.732,0,0,0,.179,1.979,4.018,4.018,0,0,0,7.9-.037,11.23,11.23,0,0,0,.128-1.983c.013-3.323-1.58-5.4-4.1-5.386S2239.845,1582.1,2239.812,1585.44Z" transform="translate(-93.451 -99.27)" fill="#7d3a1b"/>
      <path id="Trazado_906217" data-name="Trazado 906217" d="M2128.914,1443.925a8.353,8.353,0,0,1-2.209,6.6,7.1,7.1,0,0,1-11.547-1.957,10.333,10.333,0,0,1-.148-8.473,7.167,7.167,0,0,1,7.646-4.38,7.587,7.587,0,0,1,6.255,7.132C2128.942,1443.3,2128.914,1443.763,2128.914,1443.925Zm-11.345.2c0,.448-.02.857,0,1.264a4.047,4.047,0,1,0,8.093.084,15.036,15.036,0,0,0-.054-3.056,4,4,0,0,0-5.443-3.29C2117.947,1440.057,2117.379,1441.943,2117.569,1444.127Z" transform="translate(-8.855 -1.353)" fill="#7d3a1b"/>
      <path id="Trazado_906218" data-name="Trazado 906218" d="M2375.49,1444.187a24.085,24.085,0,0,1-1.387,4.6,6.652,6.652,0,0,1-6.983,3.68,6.823,6.823,0,0,1-6.014-4.742,10.756,10.756,0,0,1-.018-7.358,7.224,7.224,0,0,1,7.836-4.775,7.566,7.566,0,0,1,6.239,7.127c.032.457,0,.918,0,1.377Zm-11.824-.229.132.019c0,.46-.028.922,0,1.379a4.155,4.155,0,0,0,4.042,4.015,4.023,4.023,0,0,0,4.025-3.827,15.728,15.728,0,0,0-.049-3.358,3.966,3.966,0,0,0-7.714-.767A16.407,16.407,0,0,0,2363.666,1443.957Z" transform="translate(-179.606 -1.282)" fill="#7d3a1b"/>
      <path id="Trazado_906219" data-name="Trazado 906219" d="M2304.951,1594.48a5.151,5.151,0,0,1-.43-.595c-.341-.682-.664-1.373-1.051-2.181,8.917-4.7,14.5-11.99,16.927-21.9l3.093.7C2320.81,1581.342,2314.78,1589.336,2304.951,1594.48Z" transform="translate(-140.101 -94.383)" fill="#7d3a1b"/>
      <path id="Trazado_906220" data-name="Trazado 906220" d="M2154.252,1570.748l3.078-.692c2.416,9.754,7.914,17.061,16.914,21.789l-1.372,2.863C2162.964,1589.509,2156.919,1581.538,2154.252,1570.748Z" transform="translate(-36.643 -94.559)" fill="#7d3a1b"/>
    </g>
  </g>
</svg>
