<svg xmlns="http://www.w3.org/2000/svg" xmlns:xlink="http://www.w3.org/1999/xlink" width="121" height="121" viewBox="0 0 121 121">
  <defs>
    <clipPath id="clip-path">
      <rect id="Rectángulo_400938" data-name="Rectángulo 400938" width="121" height="121" transform="translate(0 0)" fill="none"/>
    </clipPath>
    <clipPath id="clip-path-2">
      <rect id="Rectángulo_401073" data-name="Rectángulo 401073" width="92.219" height="41.532" fill="#efb499"/>
    </clipPath>
    <clipPath id="clip-path-3">
      <rect id="Rectángulo_406048" data-name="Rectángulo 406048" width="70" height="70" transform="translate(570.777 3149)" fill="#fff"/>
    </clipPath>
  </defs>
  <g id="Grupo_1120022" data-name="Grupo 1120022" transform="translate(-388 -4872)">
    <g id="Grupo_1105095" data-name="Grupo 1105095" transform="translate(0.332 -1141)">
      <rect id="Rectángulo_401103" data-name="Rectángulo 401103" width="121" height="121" transform="translate(387.668 6013)" fill="none"/>
      <g id="Grupo_1099348" data-name="Grupo 1099348" transform="translate(387.668 6013)">
        <g id="Grupo_1099282" data-name="Grupo 1099282">
          <g id="Grupo_1099281" data-name="Grupo 1099281" clip-path="url(#clip-path-2)">
            <path id="Trazado_873375" data-name="Trazado 873375" d="M74.8,9.1c-4.139,0-6.28-2.03-8.17-3.821-1.855-1.756-3.452-3.274-6.792-3.274s-4.937,1.517-6.792,3.274C51.161,7.072,49.023,9.1,44.881,9.1s-6.28-2.03-8.169-3.821C34.857,3.525,33.26,2.007,29.92,2.007s-4.937,1.517-6.789,3.274C21.241,7.072,19.1,9.1,14.962,9.1S8.679,7.072,6.789,5.281C4.937,3.525,3.34,2.007,0,2.007V0C4.139,0,6.28,2.033,8.17,3.821c1.855,1.759,3.452,3.274,6.792,3.274S19.9,5.58,21.75,3.824C23.637,2.033,25.781,0,29.92,0s6.283,2.033,8.17,3.821c1.855,1.759,3.452,3.274,6.792,3.274s4.937-1.514,6.792-3.274C53.56,2.033,55.7,0,59.843,0s6.283,2.033,8.17,3.821C69.867,5.58,71.464,7.094,74.8,7.094S79.742,5.58,81.6,3.821C83.483,2.033,85.624,0,89.766,0V2.007c-3.34,0-4.937,1.517-6.792,3.274C81.084,7.072,78.943,9.1,74.8,9.1" transform="translate(2.453 32.43)" fill="#efb499"/>
            <path id="Trazado_873376" data-name="Trazado 873376" d="M74.8,9.1c-4.139,0-6.283-2.03-8.17-3.824-1.855-1.756-3.452-3.27-6.792-3.27s-4.937,1.514-6.792,3.27C51.164,7.072,49.023,9.1,44.881,9.1s-6.283-2.03-8.17-3.824c-1.855-1.756-3.452-3.27-6.792-3.27s-4.937,1.517-6.789,3.27C21.241,7.072,19.1,9.1,14.962,9.1S8.679,7.072,6.789,5.278C4.937,3.522,3.34,2.007,0,2.007V0C4.139,0,6.283,2.03,8.17,3.821c1.855,1.759,3.452,3.274,6.792,3.274S19.9,5.58,21.75,3.821C23.637,2.03,25.781,0,29.92,0S36.2,2.03,38.093,3.821c1.852,1.759,3.449,3.274,6.789,3.274s4.937-1.514,6.792-3.274C53.56,2.03,55.7,0,59.843,0s6.283,2.03,8.17,3.821C69.867,5.58,71.464,7.094,74.8,7.094S79.742,5.58,81.6,3.821C83.486,2.03,85.627,0,89.769,0V2.007c-3.34,0-4.94,1.517-6.8,3.27C81.084,7.072,78.943,9.1,74.8,9.1" transform="translate(1.635 21.62)" fill="#efb499"/>
            <path id="Trazado_873377" data-name="Trazado 873377" d="M74.8,9.1c-4.139,0-6.283-2.03-8.169-3.824-1.855-1.756-3.452-3.27-6.792-3.27s-4.937,1.514-6.792,3.27C51.164,7.072,49.02,9.1,44.881,9.1s-6.283-2.03-8.17-3.824c-1.855-1.756-3.452-3.27-6.792-3.27s-4.937,1.517-6.789,3.27C21.241,7.072,19.1,9.1,14.962,9.1S8.678,7.072,6.789,5.278C4.937,3.522,3.34,2.007,0,2.007V0C4.139,0,6.283,2.03,8.169,3.821c1.851,1.759,3.452,3.274,6.792,3.274S19.9,5.58,21.75,3.821C23.637,2.03,25.781,0,29.92,0S36.2,2.03,38.093,3.821c1.852,1.759,3.449,3.274,6.789,3.274s4.937-1.514,6.792-3.274C53.56,2.03,55.7,0,59.843,0s6.283,2.03,8.17,3.821C69.867,5.58,71.464,7.094,74.8,7.094S79.742,5.58,81.6,3.821C83.486,2.03,85.624,0,89.769,0V2.007c-3.34,0-4.941,1.517-6.8,3.27C81.084,7.072,78.943,9.1,74.8,9.1" transform="translate(0.818 10.81)" fill="#efb499"/>
            <path id="Trazado_873378" data-name="Trazado 873378" d="M74.8,9.1c-4.139,0-6.28-2.03-8.17-3.821-1.855-1.756-3.452-3.27-6.792-3.27s-4.937,1.514-6.789,3.27C51.164,7.069,49.023,9.1,44.881,9.1s-6.28-2.03-8.169-3.821c-1.855-1.756-3.452-3.27-6.792-3.27s-4.937,1.514-6.789,3.267C21.245,7.069,19.1,9.1,14.962,9.1S8.678,7.069,6.789,5.278C4.937,3.522,3.34,2.007,0,2.007V0C4.139,0,6.283,2.03,8.17,3.821c1.855,1.756,3.452,3.27,6.792,3.27S19.9,5.577,21.75,3.821C23.64,2.03,25.781,0,29.92,0s6.28,2.03,8.173,3.821c1.852,1.756,3.449,3.27,6.789,3.27s4.937-1.514,6.792-3.27C53.563,2.03,55.7,0,59.843,0s6.28,2.03,8.17,3.821c1.855,1.756,3.452,3.27,6.792,3.27s4.937-1.514,6.792-3.27C83.486,2.03,85.627,0,89.769,0V2.007c-3.344,0-4.941,1.514-6.8,3.27C81.084,7.069,78.943,9.1,74.8,9.1" transform="translate(0 0.003)" fill="#efb499"/>
          </g>
        </g>
      </g>
      <circle id="Elipse_11504" data-name="Elipse 11504" cx="50.5" cy="50.5" r="50.5" transform="translate(402.668 6031)" fill="#ffce73"/>
      <circle id="Elipse_11503" data-name="Elipse 11503" cx="52.5" cy="52.5" r="52.5" transform="translate(395.668 6021)" fill="#f3f9ff"/>
    </g>
    <g id="Enmascarar_grupo_1098770" data-name="Enmascarar grupo 1098770" transform="translate(-156.777 1749)" clip-path="url(#clip-path-3)">
      <g id="Grupo_1118417" data-name="Grupo 1118417" transform="translate(-3083.32 3098.465)">
        <path id="Trazado_905777" data-name="Trazado 905777" d="M3700.258,141.624a23.951,23.951,0,0,1-6.675,2.841,4.9,4.9,0,0,0-2.087-5.109,2.311,2.311,0,0,1-.424-.434,2.816,2.816,0,0,1,1.7-4.6,2.054,2.054,0,0,0,1.81-2c.038-1.046.022-2.095,0-3.142a1.966,1.966,0,0,0-1.01-1.662,5.444,5.444,0,0,0-4.858.542c-1.273,1.259-2.577,2.492-3.787,3.809a3.769,3.769,0,0,1-3.359,1.466,1.869,1.869,0,0,0-2.014,1.227,5.155,5.155,0,0,0,.912,4.876,2.9,2.9,0,0,1,.952,2.348c-.047,1.045-.005,2.094,0,3.142a22.366,22.366,0,0,1-6.592-2.153c-.3-.143-.608-.291-.912-.436.055-.264.12-.526.164-.791a66.721,66.721,0,0,1,9.788-25.2,65.872,65.872,0,0,1,5.758-7.7c.218-.251.728-.473.359-1.006-.758-1.1-1.227-1.14-2.066-.151a70.084,70.084,0,0,0-15.262,30.583,7.477,7.477,0,0,1-.8,2.978,26.147,26.147,0,0,1-7.078-6.956c-.169-.243-.409-.454-.428-.783.709,0,1.42.03,2.127-.011a2.686,2.686,0,0,0,2.684-2.429,4.63,4.63,0,0,1,1.722-3.295c.522-.48,1.005-1,1.506-1.5a3.346,3.346,0,0,0,.917-2.181c.156-1.645-.856-2.615-1.9-3.6a2.8,2.8,0,0,0-4.221-.124,3.07,3.07,0,0,1-1.958.954c-1.687.01-3.374-.03-5.06-.049a30.848,30.848,0,0,1,.2-5.953c1.45-.022,2.9-.069,4.349-.058a2.235,2.235,0,0,0,2.3-1.323,2.173,2.173,0,0,0-.634-2.569c-.972-.985-1.958-1.956-2.93-2.942-.252-.256-.608-.459-.561-.905a26.058,26.058,0,0,1,17.337-13.817,2.481,2.481,0,0,0,.37-.16,1.5,1.5,0,0,1,.864.2c1.113.629,2.224,1.262,3.359,1.85.576.3.524.533.1.943a45.7,45.7,0,0,1-4.038,3.955,6.214,6.214,0,0,0-2.5,6.488,27.305,27.305,0,0,1-4.408-1.621c-.376-.134-.71-.3-1.08.111-.7.773-1.459,1.492-2.205,2.222-.328.322-.355.505.14.69,1.164.435,2.294.968,3.47,1.365a2.153,2.153,0,0,1,1.459,1.486c.383,1.111.894,2.177,1.291,3.283.268.75.531.648.889.093a22.044,22.044,0,0,0,2.177-2.056.55.55,0,0,0,.168-.711c-.585-1.306-.96-2.7-1.666-3.958-.012-.262-.23-.495-.108-.775l1.049-.034c.639.02,1.277.061,1.916.053.423-.005.888.143,1.247-.229,2.1-2.177,4.356-4.208,6.356-6.487.525-.444.677.023.867.363,1.082,1.947,2.156,3.9,3.238,5.846,1.509,2.716,1.511,2.715,3.589.33a.861.861,0,0,0,.094-.178,2,2,0,0,0,.161-2.264c-.929-2.374-1.891-4.735-2.845-7.1-.618-1.53-.317-2.236,1.26-2.923a25.207,25.207,0,0,1,4.422,2.1,5.408,5.408,0,0,1-1.389,1.126c-.589.4-.507.754-.087,1.2.361.386.532,1.056,1.305.461a5.318,5.318,0,0,1,2.243-1.432l2.8,2.291q-.012,6.487-.023,12.974-1.723.006-3.445.012c-1.946.005-2.616.674-2.616,2.629,0,7.365.032,14.73-.026,22.094C3698.616,139.341,3698.709,140.751,3700.258,141.624Zm-8.638-25.552c-.676,0-1.351-.01-2.026,0-.58.011-1.087.32-1.037.881.1,1.131-.621,1.717-1.29,2.378-.457.45-.905.909-1.361,1.361a1.638,1.638,0,0,0-.317,1.875c.234.618.819.613,1.374.6a14.515,14.515,0,0,1,1.519.007,1.863,1.863,0,0,0,1.777-.741,3.078,3.078,0,0,1,3.065-1.315c.881.113,1.3-.418,1.273-1.293-.007-.27,0-.54,0-.81C3694.625,115.881,3694.76,116.042,3691.62,116.071Z" transform="translate(0 -30.132)" fill="#727997"/>
        <path id="Trazado_905778" data-name="Trazado 905778" d="M3851.515,218.841c-1.549-.872-1.642-2.283-1.629-3.876.058-7.364.025-14.73.026-22.094,0-1.954.67-2.624,2.616-2.629q1.723,0,3.445-.012h6.088l2.07.008,2.026.034q-.017,1.515-.033,3.03c-.2-.005-.4-.014-.607-.015-1.4-.008-1.4-.007-1.4,1.426q0,6.08,0,12.16,0,.309,0,.618a15.658,15.658,0,0,0-1.063,1.9c-.6.894-.954,1.975-1.928,2.59-.017-.4-.049-.808-.049-1.212,0-5.436-.013-10.872.011-16.308,0-.784-.055-1.23-1.055-1.217-.95.011-1,.431-1,1.171.021,6.719.014,13.438.016,20.157l-.006.229a48.674,48.674,0,0,1-4.845,3.817C3853.305,218.752,3852.383,218.464,3851.515,218.841Zm2.454-14.446c0,3.411.029,6.822-.021,10.232-.012.853.312,1,1.061,1,.716,0,1.01-.152,1.006-.951q-.045-10.232,0-20.464c0-.8-.289-.951-1.006-.951-.749,0-1.073.148-1.061,1C3854,197.641,3853.968,201.018,3853.968,204.4Z" transform="translate(-151.257 -107.35)" fill="#7d3a1b"/>
        <path id="Trazado_905779" data-name="Trazado 905779" d="M3761.973,80.1a.861.861,0,0,1-.094.178c-2.078,2.385-2.08,2.386-3.588-.33q-1.623-2.921-3.238-5.846c-.189-.34-.341-.807-.867-.363a3.039,3.039,0,0,0-1.542.69,23.308,23.308,0,0,0-3.415,3.276,7.752,7.752,0,0,1-3.93,2.313c-.253.062-.558.029-.632.383l-1.05.034a.211.211,0,0,1-.125-.13,6.215,6.215,0,0,1,2.5-6.488,45.6,45.6,0,0,0,4.038-3.955c.422-.41.474-.645-.1-.943-1.135-.588-2.246-1.221-3.359-1.85a1.5,1.5,0,0,0-.864-.2c-.525-.919-1.562-1.1-2.375-1.566-1.96-1.127-1.992-1.071-.4-2.648a2.625,2.625,0,0,1,3.451-.723c2.435.982,4.881,1.936,7.306,2.942a1.284,1.284,0,0,0,1.611-.368,12.857,12.857,0,0,1,5.765-3.938c.388-.105.789-.16,1.178-.262.49-.129,1.125-.376,1.4.068a1.517,1.517,0,0,1-.085,1.621,1.712,1.712,0,0,0-.35.349,15.246,15.246,0,0,1-3.853,4.617c-2.053,1.679-2.274,3.117-1.11,5.506C3759.48,75.01,3760.869,77.484,3761.973,80.1Z" transform="translate(-65.108 -3.651)" fill="#cfd4d7"/>
        <path id="Trazado_905780" data-name="Trazado 905780" d="M3756.752,277.716c0-1.048-.044-2.1,0-3.142a2.9,2.9,0,0,0-.952-2.348,5.156,5.156,0,0,1-.912-4.876,1.87,1.87,0,0,1,2.015-1.227,3.769,3.769,0,0,0,3.359-1.466c1.21-1.318,2.514-2.55,3.788-3.809a5.443,5.443,0,0,1,4.858-.542,1.964,1.964,0,0,1,1.01,1.662c.022,1.047.038,2.1,0,3.142a2.053,2.053,0,0,1-1.81,2,2.816,2.816,0,0,0-1.7,4.6,2.288,2.288,0,0,0,.424.434,4.9,4.9,0,0,1,2.087,5.109,13.562,13.562,0,0,1-4.787.94A19.939,19.939,0,0,1,3756.752,277.716Z" transform="translate(-75.336 -162.918)" fill="#a7b2b9"/>
        <path id="Trazado_905781" data-name="Trazado 905781" d="M3883.041,193.355l.034-3.03c.574-.01,1.148-.031,1.722-.027,1.578.012,2.319.772,2.321,2.394q.007,6.639,0,13.279c0,3.514.009,7.028,0,10.542A1.983,1.983,0,0,1,3885,218.7c-4.628.009-9.257-.012-13.885-.021a48.681,48.681,0,0,0,4.845-3.818c-.1,1.14.754.727,1.3.8.693.091.757-.347.731-.877-.032-.67-.04-1.341-.059-2.011q.054-.365.107-.731c.974-.616,1.329-1.7,1.928-2.59a15.63,15.63,0,0,1,1.064-1.9c0,2.465.022,4.93-.01,7.394-.01.815.5.736,1.006.72.478-.015,1.047.163,1.04-.681-.037-4.59-.049-9.18-.07-13.771Q3883.019,197.281,3883.041,193.355Z" transform="translate(-168.174 -107.404)" fill="#5a260e"/>
        <path id="Trazado_905782" data-name="Trazado 905782" d="M3660.458,222.851c1.687.019,3.374.059,5.06.049a3.071,3.071,0,0,0,1.958-.954,2.8,2.8,0,0,1,4.221.124c1.041.99,2.052,1.959,1.9,3.6a3.348,3.348,0,0,1-.917,2.181c-.5.5-.984,1.023-1.506,1.5a4.63,4.63,0,0,0-1.722,3.295,2.686,2.686,0,0,1-2.684,2.429c-.707.041-1.418.01-2.127.011a15.924,15.924,0,0,1-2.761-5.3A22.714,22.714,0,0,1,3660.458,222.851Z" transform="translate(-0.287 -131.911)" fill="#a7b2b9"/>
        <path id="Trazado_905783" data-name="Trazado 905783" d="M3716.021,193.817a7.486,7.486,0,0,0,.8-2.978,70.083,70.083,0,0,1,15.262-30.583c.839-.989,1.308-.945,2.066.151.368.533-.141.754-.359,1.006a65.846,65.846,0,0,0-5.758,7.7,66.722,66.722,0,0,0-9.788,25.2c-.044.265-.109.527-.164.791-.158,1.166-.356,2.329-.464,3.5-.111,1.2-.927.615-1.485.628-.714.016-.654-.419-.557-.963.225-1.257.356-2.53.565-3.79A.977.977,0,0,0,3716.021,193.817Z" transform="translate(-44.165 -82.896)" fill="#ffb937"/>
        <path id="Trazado_905784" data-name="Trazado 905784" d="M3881.954,126.564h-2.077q.011-6.487.022-12.974a4.356,4.356,0,0,1,2.723-3.02,4.022,4.022,0,0,1,5.386,3.868c.038,4.044.02,8.089.025,12.134l-2.069-.008a20.432,20.432,0,0,0-.155-4.473c.052-.083.15-.166.15-.249.011-2.557.054-5.116-.006-7.672a1.952,1.952,0,0,0-1.976-1.8,2.018,2.018,0,0,0-2.032,1.856c-.052.567-.013,1.143-.014,1.715Q3881.943,121.255,3881.954,126.564Z" transform="translate(-175.16 -43.684)" fill="#7d3a1b"/>
        <path id="Trazado_905785" data-name="Trazado 905785" d="M3850.936,67.616a5.32,5.32,0,0,0-2.243,1.432c-.772.6-.944-.075-1.305-.461-.419-.449-.5-.806.087-1.2a5.4,5.4,0,0,0,1.389-1.126c1.9-1.216,3.791-2.463,5.719-3.641a55.343,55.343,0,0,1,5.458-2.88c.265-.124.585-.186.78-.588-1.079-.543-2.143-1.118-3.242-1.617-.582-.264-.683-.564-.341-1.076.3-.453.325-1.259,1.257-.773,1.823.95,3.674,1.845,5.516,2.76a.609.609,0,0,1,.313.972c-.955,1.858-1.881,3.732-2.8,5.606-.421.855-.9.216-1.334.056s-.866-.316-.515-1a5.387,5.387,0,0,0,.967-2.3l.1-.069c-.019,0-.046,0-.056.005a.269.269,0,0,0-.036.071,47.09,47.09,0,0,0-8.186,4.581C3851.916,66.732,3851.22,66.932,3850.936,67.616Z" transform="translate(-149.001)" fill="#ffb937"/>
        <path id="Trazado_905786" data-name="Trazado 905786" d="M3663.958,162.206c-.047.446.309.65.561.905.972.986,1.958,1.957,2.93,2.942a2.174,2.174,0,0,1,.634,2.569,2.236,2.236,0,0,1-2.3,1.323c-1.449-.011-2.9.036-4.349.058A22.045,22.045,0,0,1,3663.958,162.206Z" transform="translate(-1.069 -85.015)" fill="#a6b1b8"/>
        <path id="Trazado_905787" data-name="Trazado 905787" d="M3823.786,87.457c-1.1-2.613-2.493-5.087-3.733-7.633-1.163-2.389-.942-3.827,1.11-5.506a15.231,15.231,0,0,0,3.853-4.617,1.724,1.724,0,0,1,.35-.349,9.51,9.51,0,0,1-2.51,5.006c-.209.242-.556.4-.494.813-1.578.687-1.878,1.393-1.26,2.923.955,2.364,1.917,4.725,2.845,7.1A2,2,0,0,1,3823.786,87.457Z" transform="translate(-126.922 -11.012)" fill="#a6aaad"/>
        <path id="Trazado_905788" data-name="Trazado 905788" d="M3866.276,345.169c.555.081,1.441-.388,1.4.947-.029.905-.277,1.219-1.144,1.084a4.654,4.654,0,0,0-.7-.005c-1.2,0-1.54-.477-1.232-1.657a.434.434,0,0,1,.5-.368Z" transform="translate(-162.895 -230.82)" fill="#9ba3a8"/>
        <path id="Trazado_905789" data-name="Trazado 905789" d="M3926.258,345.158c.435.194,1.386-.519,1.4.814.011.951-.209,1.389-1.208,1.215a3.58,3.58,0,0,0-.6,0c-1.25,0-1.546-.4-1.262-1.628.066-.288.2-.4.471-.4C3925.425,345.16,3925.794,345.158,3926.258,345.158Z" transform="translate(-210.714 -230.808)" fill="#9ba3a8"/>
        <path id="Trazado_905790" data-name="Trazado 905790" d="M3791.076,205.256c3.141-.03,3.005-.191,2.977,2.948,0,.27-.007.54,0,.81.023.875-.393,1.406-1.273,1.293a3.078,3.078,0,0,0-3.065,1.315,1.863,1.863,0,0,1-1.777.741,14.515,14.515,0,0,0-1.519-.007c-.555.009-1.14.014-1.374-.6a1.638,1.638,0,0,1,.317-1.875c.456-.452.9-.911,1.361-1.361.67-.66,1.391-1.247,1.29-2.378-.051-.561.457-.869,1.037-.881C3789.726,205.246,3790.4,205.256,3791.076,205.256Z" transform="translate(-99.457 -119.317)" fill="#cdd2d5"/>
        <path id="Trazado_905791" data-name="Trazado 905791" d="M3719.022,152.6a.21.21,0,0,0,.125.13c-.122.281.1.513.108.775.058,1.318.509,2.6.186,3.961-.225.949-.7,1.806-.865,2.763-.358.555-.62.657-.889-.093-.4-1.107-.908-2.172-1.291-3.283a2.154,2.154,0,0,0-1.459-1.486c-1.176-.4-2.306-.93-3.47-1.365-.495-.185-.468-.368-.14-.69.746-.73,1.506-1.449,2.205-2.222.37-.409.7-.245,1.08-.111A27.313,27.313,0,0,0,3719.022,152.6Z" transform="translate(-40.639 -75.946)" fill="#ccd1d4"/>
        <path id="Trazado_905792" data-name="Trazado 905792" d="M3755.955,133.864c.074-.354.378-.321.632-.383a7.75,7.75,0,0,0,3.929-2.313,23.324,23.324,0,0,1,3.416-3.276,3.038,3.038,0,0,1,1.542-.69c-2,2.278-4.253,4.309-6.356,6.487-.359.372-.824.224-1.247.229C3757.232,133.925,3756.594,133.884,3755.955,133.864Z" transform="translate(-76.397 -57.118)" fill="#a0a5a9"/>
        <path id="Trazado_905793" data-name="Trazado 905793" d="M3747.971,170.727c.167-.957.641-1.814.865-2.763.323-1.364-.128-2.643-.186-3.961.707,1.256,1.081,2.651,1.666,3.957a.55.55,0,0,1-.168.711A22.017,22.017,0,0,1,3747.971,170.727Z" transform="translate(-70.034 -86.447)" fill="#a0a5a9"/>
        <path id="Trazado_905794" data-name="Trazado 905794" d="M3869.92,216.3c0-3.377.029-6.754-.02-10.13-.012-.853.312-1,1.06-1,.717,0,1.01.153,1.006.951q-.044,10.232,0,20.464c0,.8-.29.95-1.006.951-.749,0-1.073-.149-1.06-1C3869.949,223.125,3869.92,219.714,3869.92,216.3Z" transform="translate(-167.209 -119.258)" fill="#cfd4d7"/>
        <path id="Trazado_905795" data-name="Trazado 905795" d="M3897.023,223.83c-.036.243-.072.487-.107.731-.919.342-1.108,1.457-1.97,1.86,0-6.719.005-13.438-.016-20.157,0-.74.048-1.16,1-1.171,1-.012,1.059.433,1.055,1.217-.024,5.436-.014,10.872-.011,16.308C3896.974,223.022,3897.006,223.426,3897.023,223.83Z" transform="translate(-187.158 -119.195)" fill="#cfd4d7"/>
        <path id="Trazado_905796" data-name="Trazado 905796" d="M3890.021,148.545q-.011-5.309-.022-10.619a22.068,22.068,0,0,1,3.878,6.145,20.4,20.4,0,0,1,.155,4.473Z" transform="translate(-183.228 -65.664)" fill="#727997"/>
        <path id="Trazado_905797" data-name="Trazado 905797" d="M3921.9,244.031c.021,4.59.032,9.181.07,13.771.007.844-.562.666-1.041.681-.51.016-1.016.1-1.005-.72.032-2.464.011-4.929.01-7.394q0-.309,0-.618a15.2,15.2,0,0,0,1.239-3.392C3921.4,245.582,3921.333,244.7,3921.9,244.031Z" transform="translate(-207.075 -150.228)" fill="#a6aaad"/>
        <path id="Trazado_905798" data-name="Trazado 905798" d="M3921.94,213.146c-.565.673-.494,1.551-.724,2.328a15.19,15.19,0,0,1-1.239,3.392q0-6.08,0-12.16c0-1.433,0-1.434,1.4-1.426.2,0,.405.01.607.015Q3921.961,209.22,3921.94,213.146Z" transform="translate(-207.117 -119.343)" fill="#cfd4d7"/>
        <path id="Trazado_905799" data-name="Trazado 905799" d="M3894.949,302.85c.862-.4,1.051-1.518,1.97-1.86.018.67.026,1.341.058,2.01.026.53-.038.967-.731.877-.549-.072-1.406.341-1.3-.8Q3894.946,302.964,3894.949,302.85Z" transform="translate(-187.161 -195.624)" fill="#a6aaad"/>
        <path id="Trazado_905800" data-name="Trazado 905800" d="M3913.964,86.051a.269.269,0,0,1,.036-.071c.01-.01.037,0,.056-.005l-.1.069Z" transform="translate(-202.322 -24.259)" fill="#f6f6f6"/>
      </g>
    </g>
  </g>
</svg>
