<svg xmlns="http://www.w3.org/2000/svg" width="131" height="131" viewBox="0 0 131 131">
  <g id="Grupo_1100287" data-name="Grupo 1100287" transform="translate(-345 -7528)">
    <g id="Grupo_156312" data-name="Grupo 156312" transform="translate(344 7528)">
      <path id="Elipse_5845" data-name="Elipse 5845" d="M65.5,0A65.5,65.5,0,1,1,0,65.5,65.5,65.5,0,0,1,65.5,0Z" transform="translate(1 0)" fill="#ffce73"/>
    </g>
    <g id="Grupo_1099977" data-name="Grupo 1099977" transform="translate(366.383 7550.335)">
      <path id="Trazado_873216" data-name="Trazado 873216" d="M0,0H88.6V88.6H0Z" transform="translate(0.53 0.553)" fill="none"/>
      <g id="Grupo_1099977-2" data-name="Grupo 1099977" transform="translate(-1.269 -1.324)">
        <path id="Trazado_873216-2" data-name="Trazado 873216" d="M0,0H88.6V88.6H0Z" transform="translate(3.761 1.932)" fill="none"/>
        <g id="Grupo_1104056" data-name="Grupo 1104056" transform="translate(0 0)">
          <path id="Trazado_895117" data-name="Trazado 895117" d="M239.326,27.387a.114.114,0,0,1,.037.138,6.585,6.585,0,0,0,5.191,8.991.114.114,0,0,1,.1.1,6.541,6.541,0,0,0,2.438,4.251L244.445,50a3.344,3.344,0,0,0,2.282,4.145l6.9,2a3.35,3.35,0,0,0,4.146-2.282l1.2-4.154,1.2,4.154a3.35,3.35,0,0,0,4.146,2.282l6.9-2A3.344,3.344,0,0,0,273.5,50l-2.647-9.131a6.542,6.542,0,0,0,2.438-4.251.113.113,0,0,1,.1-.1,6.585,6.585,0,0,0,5.191-8.991.114.114,0,0,1,.037-.138,6.585,6.585,0,0,0,0-10.381.114.114,0,0,1-.037-.138,6.585,6.585,0,0,0-5.191-8.991.114.114,0,0,1-.1-.1A6.585,6.585,0,0,0,264.3,2.586a.113.113,0,0,1-.138-.037,6.585,6.585,0,0,0-10.381,0,.114.114,0,0,1-.138.037,6.585,6.585,0,0,0-8.991,5.191.114.114,0,0,1-.1.1,6.585,6.585,0,0,0-5.191,8.991.114.114,0,0,1-.037.138,6.585,6.585,0,0,0,0,10.381Zm15.957,25.753a.758.758,0,0,1-.937.516l-6.9-2a.757.757,0,0,1-.516-.937l2.512-8.662a6.568,6.568,0,0,0,4.2-.249.114.114,0,0,1,.138.037,6.571,6.571,0,0,0,3.588,2.335l.255.878Zm15.733-2.421a.757.757,0,0,1-.516.937l-6.9,2a.756.756,0,0,1-.937-.516L260.1,44.283a6.618,6.618,0,0,0,4.067-2.438.114.114,0,0,1,.138-.037,6.578,6.578,0,0,0,4.2.249Zm-30.1-31.673a2.687,2.687,0,0,0,.844-3.148,4,4,0,0,1,3.15-5.457,2.686,2.686,0,0,0,2.3-2.3,4,4,0,0,1,5.456-3.15,2.687,2.687,0,0,0,3.148-.844,4,4,0,0,1,6.3,0,2.686,2.686,0,0,0,3.148.844,4,4,0,0,1,5.457,3.15,2.686,2.686,0,0,0,2.3,2.3,4,4,0,0,1,3.15,5.457,2.686,2.686,0,0,0,.844,3.148,4,4,0,0,1,0,6.3,2.687,2.687,0,0,0-.843,3.148,4,4,0,0,1-3.15,5.456,2.686,2.686,0,0,0-2.3,2.3,4,4,0,0,1-5.457,3.15,2.686,2.686,0,0,0-3.148.844,3.976,3.976,0,0,1-3.591,1.513h0a4.014,4.014,0,0,1-2.709-1.513h0a2.882,2.882,0,0,0-3.578-.7,3.975,3.975,0,0,1-3.016-.362l-.009,0-.043-.023a3.975,3.975,0,0,1-1.959-2.907,2.686,2.686,0,0,0-2.3-2.3,4,4,0,0,1-3.15-5.456,2.687,2.687,0,0,0-.844-3.148,3.995,3.995,0,0,1,0-6.3Z" transform="translate(-195.913 -0.016)" fill="#7d3a1b"/>
          <path id="Trazado_895118" data-name="Trazado 895118" d="M340.582,108.71l-4.587,4.587-2.848-2.848a1.295,1.295,0,0,0-1.831,1.831l3.764,3.764a1.3,1.3,0,0,0,1.831,0l5.5-5.5a1.295,1.295,0,1,0-1.831-1.831Z" transform="translate(-273.803 -89.631)" fill="#7d3a1b"/>
          <path id="Trazado_895119" data-name="Trazado 895119" d="M87.775,313.468c-1.8-3.755-5.557-4.447-9.36-2.961l-19.8,5.859a5.956,5.956,0,0,0-4.085-5.572c-12.52-5-14.17-5.917-17.585-5.976h-.055c-9.813.033-11.822.111-16.937,2.4-6.915,3.094-7.57,5.158-11.9,6.349L2.109,315.2A2.877,2.877,0,0,0,0,317.966v19.751A2.869,2.869,0,0,0,3.888,340.4l8.5-3.226a1.295,1.295,0,0,0-.919-2.421l-8.5,3.226a.28.28,0,0,1-.379-.261V317.966a.28.28,0,0,1,.205-.27l5.937-1.632c4.831-1.328,5.58-3.487,12.273-6.482,4.639-2.077,6.355-2.143,15.859-2.175h0c2.889.046,4.286.838,16.7,5.793a3.585,3.585,0,0,1,2.275,4.557s0,.008,0,.012-.007.019-.01.029a2.646,2.646,0,0,1-3.3,1.9c-3.709-.908-12.545-3.036-12.633-3.058a1.295,1.295,0,1,0-.606,2.518c.089.021,8.92,2.148,12.624,3.055a5.081,5.081,0,0,0,6.128-2.977l21.148-6.257c.59-.174,4.518-1.967,6.238,1.59,1.447,3.325-1.84,5.272-2.6,5.669L54.7,332.679l-.033.015-.037.018a11.688,11.688,0,0,1-8.977.538l-8.038-3.209c-3.973-1.585-8.926-1.557-13.948.079l-.058.021-6.492,2.465a1.295,1.295,0,0,0,.919,2.421l6.462-2.453c4.373-1.419,8.8-1.466,12.157-.127l8.067,3.221.058.022a14.309,14.309,0,0,0,11-.656L83.911,322.59l.067-.032c2.362-1.211,5.824-4.481,3.814-9.051l-.017-.038Z" transform="translate(0 -252.196)" fill="#7d3a1b"/>
          <path id="Trazado_895120" data-name="Trazado 895120" d="M300.482,77.225a13.5,13.5,0,0,0,13.1-10.179,1.295,1.295,0,0,0-2.51-.638,10.93,10.93,0,1,1,0-5.4,1.295,1.295,0,0,0,2.51-.638,13.52,13.52,0,1,0-13.1,16.86Z" transform="translate(-237.421 -41.525)" fill="#7d3a1b"/>
        </g>
      </g>
    </g>
  </g>
</svg>
