<svg xmlns="http://www.w3.org/2000/svg" width="295" height="230.605" viewBox="0 0 295 230.605">
  <g id="Grupo_1119965" data-name="Grupo 1119965" transform="translate(-1020 -3346.555)">
    <circle id="Elipse_11657" data-name="Elipse 11657" cx="111.5" cy="111.5" r="111.5" transform="translate(1092 3347)" fill="#ffce73"/>
    <g id="Grupo_1104934" data-name="Grupo 1104934" transform="translate(988.711 3260.091)">
      <g id="Background_Complete" data-name="Background Complete" transform="translate(52.868 156.452)">
        <g id="Grupo_1104867" data-name="Grupo 1104867" transform="translate(66.984 68.657)">
          <g id="Grupo_1104865" data-name="Grupo 1104865" transform="translate(2.366 5.353)">
            <path id="Rectángulo_405700" data-name="Rectángulo 405700" d="M0,0H4.093a0,0,0,0,1,0,0V59.019A1.186,1.186,0,0,1,2.908,60.2H1.186A1.186,1.186,0,0,1,0,59.019V0A0,0,0,0,1,0,0Z" fill="#f0f0f0"/>
          </g>
          <rect id="Rectángulo_405701" data-name="Rectángulo 405701" width="35.481" height="5.353" transform="translate(93.605)" fill="#e6e6e6"/>
          <g id="Grupo_1104866" data-name="Grupo 1104866" transform="translate(27.727 5.353)">
            <path id="Rectángulo_405702" data-name="Rectángulo 405702" d="M0,0H4.093a0,0,0,0,1,0,0V59.019A1.186,1.186,0,0,1,2.908,60.2H1.186A1.186,1.186,0,0,1,0,59.019V0A0,0,0,0,1,0,0Z" fill="#e6e6e6"/>
          </g>
          <path id="Rectángulo_405703" data-name="Rectángulo 405703" d="M0,0H4.093a0,0,0,0,1,0,0V59.019A1.186,1.186,0,0,1,2.907,60.2H1.186A1.186,1.186,0,0,1,0,59.019V0A0,0,0,0,1,0,0Z" transform="translate(122.626 5.353)" fill="#e6e6e6"/>
          <rect id="Rectángulo_405704" data-name="Rectángulo 405704" width="103.725" height="5.353" fill="#f5f5f5"/>
          <path id="Rectángulo_405705" data-name="Rectángulo 405705" d="M0,0H4.093a0,0,0,0,1,0,0V59.019A1.186,1.186,0,0,1,2.908,60.2H1.186A1.186,1.186,0,0,1,0,59.019V0A0,0,0,0,1,0,0Z" transform="translate(97.266 5.353)" fill="#f0f0f0"/>
        </g>
        <g id="Grupo_1104874" data-name="Grupo 1104874" transform="translate(233.508)">
          <rect id="Rectángulo_405706" data-name="Rectángulo 405706" width="1.734" height="108.684" transform="translate(20.824 133.385) rotate(180)" fill="#ebebeb"/>
          <path id="Trazado_896399" data-name="Trazado 896399" d="M416.914,193.172c0,5.547-3.938,10.385-9.78,12.965H387.767c-5.843-2.58-9.78-7.418-9.78-12.965s3.938-10.386,9.78-12.965h19.367C412.977,182.786,416.914,187.625,416.914,193.172Z" transform="translate(-377.494 -179.718)" fill="#f0f0f0"/>
          <g id="Grupo_1104873" data-name="Grupo 1104873">
            <g id="Grupo_1104868" data-name="Grupo 1104868" transform="translate(0 0.011)">
              <path id="Trazado_896400" data-name="Trazado 896400" d="M387.76,205.462c-5-2.35-9.536-6.627-9.536-12.539s4.537-10.191,9.536-12.54c.574-.27.074-1.121-.5-.852-5.317,2.5-10.025,7.146-10.025,13.391s4.707,10.892,10.025,13.391c.571.268,1.073-.582.5-.852Z" transform="translate(-377.237 -179.48)" fill="#e0e0e0"/>
            </g>
            <g id="Grupo_1104869" data-name="Grupo 1104869" transform="translate(9.62)">
              <path id="Trazado_896401" data-name="Trazado 896401" d="M397.013,179.6c-6.862,6.553-6.863,20.074,0,26.628.459.439,1.157-.258.7-.7-6.475-6.183-6.476-19.048,0-25.233.46-.439-.238-1.136-.7-.7Z" transform="translate(-391.866 -179.464)" fill="#e0e0e0"/>
            </g>
            <g id="Grupo_1104870" data-name="Grupo 1104870" transform="translate(19.463 0.012)">
              <path id="Trazado_896402" data-name="Trazado 896402" d="M406.835,179.959v25.93a.493.493,0,0,0,.986,0v-25.93a.493.493,0,0,0-.986,0Z" transform="translate(-406.835 -179.482)" fill="#e0e0e0"/>
            </g>
            <g id="Grupo_1104871" data-name="Grupo 1104871" transform="translate(24.299)">
              <path id="Trazado_896403" data-name="Trazado 896403" d="M414.34,180.3c6.475,6.183,6.476,19.048,0,25.233-.46.439.238,1.136.7.7,6.862-6.553,6.863-20.074,0-26.628-.459-.439-1.157.258-.7.7Z" transform="translate(-414.189 -179.464)" fill="#e0e0e0"/>
            </g>
            <g id="Grupo_1104872" data-name="Grupo 1104872" transform="translate(29.137 0.011)">
              <path id="Trazado_896404" data-name="Trazado 896404" d="M421.8,180.384c5,2.351,9.536,6.627,9.536,12.54s-4.537,10.191-9.536,12.539c-.574.27-.074,1.121.5.852,5.317-2.5,10.025-7.147,10.025-13.391s-4.707-10.893-10.025-13.391c-.571-.268-1.073.582-.5.852Z" transform="translate(-421.545 -179.48)" fill="#e0e0e0"/>
            </g>
          </g>
          <path id="Trazado_896405" data-name="Trazado 896405" d="M389.036,382.012h24.4a2.978,2.978,0,0,0-2.978-2.978h-18.44a2.978,2.978,0,0,0-2.978,2.978Z" transform="translate(-381.277 -247.798)" fill="#ebebeb"/>
        </g>
        <g id="Grupo_1104880" data-name="Grupo 1104880" transform="translate(-21.579 44.816)">
          <g id="Grupo_1104875" data-name="Grupo 1104875" transform="translate(36.645 3.852)">
            <path id="Trazado_896406" data-name="Trazado 896406" d="M112.551,290.709c.055.08-.359.529,1.1.491,3.606-.093,9.949-.763,12.118-4.193,3.1-4.9-4.739-3.941-4.147-6.567s9.181-1.09,10.583-4.877-4.694-2.656-4.535-4.566,6.769.108,8.632-3.933-3.628-1.578-2.824-3.254,7.5-8.88,4.505-10.185-9.244,6.166-11.409,7.066-3.139-5.951-5.9-3.451-.149,12.763-3.458,14.282c-2.465,1.131-1.336-2.686-4.447-2.334C108.548,269.668,108.132,284.333,112.551,290.709Z" transform="translate(-109.416 -253.473)" fill="#ebebeb"/>
            <path id="Trazado_896407" data-name="Trazado 896407" d="M126.645,274.845a12.229,12.229,0,0,0-3.137.249,23.279,23.279,0,0,1,2.524-2.527.265.265,0,0,0-.328-.415,31.117,31.117,0,0,0-5.145,5.786,23.539,23.539,0,0,1,3.293-12.419.2.2,0,1,0-.332-.217,23.854,23.854,0,0,0-3.327,13.154c-.447.646-.9,1.339-1.363,2.088a49.971,49.971,0,0,0-4.078,8.4,18.151,18.151,0,0,1-1.1-8.267.2.2,0,1,0-.395-.037,18.244,18.244,0,0,0,1.287,8.837,61.591,61.591,0,0,0-3.573,17.912.265.265,0,0,0,.249.279h.033a.265.265,0,0,0,.245-.249,58.261,58.261,0,0,1,5.532-22.411,7.263,7.263,0,0,1,4.483-1.869.207.207,0,0,0,.191-.205.2.2,0,0,0-.2-.191,7.454,7.454,0,0,0-4.054,1.424,44.214,44.214,0,0,1,5.6-8.538,10.934,10.934,0,0,1,3.58-.385.2.2,0,0,0,.206-.19A.2.2,0,0,0,126.645,274.845Z" transform="translate(-109.949 -257.492)" fill="#e0e0e0"/>
          </g>
          <g id="Grupo_1104878" data-name="Grupo 1104878">
            <g id="Grupo_1104877" data-name="Grupo 1104877">
              <path id="Trazado_896408" data-name="Trazado 896408" d="M83.651,291.124c-4.07.077-11.021-3.7-13.75-7.379-2.769-3.731,5.02-1.416,4.22-4.346s-10.4-.764-12.176-4.96,5.156-3.232,4.881-5.377-7.453-1.709-9.758-6.17,4.01-1.962,3.019-3.811-8.906-9.63-5.593-11.251,10.731,6.482,13.217,7.387,3.067-4.694,6.3-2.016.813,14.38,4.621,15.924c2.836,1.15,1.63-4.208,4.9-2.856C89.245,268.635,85.3,291.092,83.651,291.124Z" transform="translate(-53.69 -247.616)" fill="#e6e6e6"/>
              <g id="Grupo_1104876" data-name="Grupo 1104876" opacity="0.3">
                <path id="Trazado_896409" data-name="Trazado 896409" d="M83.651,291.124c-4.07.077-11.021-3.7-13.75-7.379-2.769-3.731,5.02-1.416,4.22-4.346s-10.4-.764-12.176-4.96,5.156-3.232,4.881-5.377-7.453-1.709-9.758-6.17,4.01-1.962,3.019-3.811-8.906-9.63-5.593-11.251,10.731,6.482,13.217,7.387,3.067-4.694,6.3-2.016.813,14.38,4.621,15.924c2.836,1.15,1.63-4.208,4.9-2.856C89.245,268.635,85.3,291.092,83.651,291.124Z" transform="translate(-53.69 -247.616)" fill="#e6e6e6"/>
              </g>
            </g>
            <path id="Trazado_896410" data-name="Trazado 896410" d="M87.869,290.824a.261.261,0,0,0,.144-.119A21.42,21.42,0,0,0,89.839,279.8a.272.272,0,1,0-.543.042,21.754,21.754,0,0,1-1.648,10.369,83.445,83.445,0,0,0-6.2-13.11,28.652,28.652,0,0,0-3.8-15.966.272.272,0,1,0-.459.292,28.264,28.264,0,0,1,3.773,14.832,76.281,76.281,0,0,0-10.409-13.913.363.363,0,0,0-.508.519A70.665,70.665,0,0,1,77.986,272.9a21.3,21.3,0,0,0-7.694-1.355.272.272,0,0,0,.005.544H70.3a20.88,20.88,0,0,1,8.207,1.6,86.435,86.435,0,0,1,4.428,7.616,9.2,9.2,0,0,0-7.592-1.337.272.272,0,1,0,.139.525,8.773,8.773,0,0,1,8.025,1.941A73.718,73.718,0,0,1,91.4,312.272a.362.362,0,0,0,.362.349h.014a.363.363,0,0,0,.349-.377A71.608,71.608,0,0,0,87.869,290.824Z" transform="translate(-59.252 -252.2)" fill="#f5f5f5"/>
          </g>
          <path id="Trazado_896411" data-name="Trazado 896411" d="M107.956,362.836c3.153-8.985,5.225-21.967,5.225-27.657a19.856,19.856,0,0,0-3.85-12.148H93.182a19.856,19.856,0,0,0-3.85,12.148c0,5.69,2.071,18.672,5.225,27.657Z" transform="translate(-65.894 -273.438)" fill="#e6e6e6"/>
          <g id="Grupo_1104879" data-name="Grupo 1104879" transform="translate(29.203 11.56)">
            <path id="Trazado_896412" data-name="Trazado 896412" d="M102.824,295.141c.051.045-.161.426.847.156,2.483-.665,6.767-2.185,7.7-4.922,1.33-3.908-3.939-1.942-3.966-3.859s6.18-2.284,6.521-5.14-3.694-1.059-3.9-2.409,4.708-1.052,5.326-4.162-2.776-.489-2.5-1.785,3.719-7.4,1.426-7.806-5.378,5.81-6.728,6.795-3.166-3.6-4.66-1.41,2.021,8.868-.019,10.471c-1.52,1.194-1.372-1.639-3.47-.877C96.548,281.228,98.7,291.458,102.824,295.141Z" transform="translate(-98.099 -265.194)" fill="#f5f5f5"/>
            <path id="Trazado_896413" data-name="Trazado 896413" d="M110.212,283.13a8.69,8.69,0,0,0-2.132.7,16.691,16.691,0,0,1,1.328-2.171.188.188,0,1,0-.3-.233,22.161,22.161,0,0,0-2.6,4.866,16.77,16.77,0,0,1,.214-9.153.141.141,0,0,0-.266-.1,16.994,16.994,0,0,0-.116,9.668c-.2.522-.4,1.078-.6,1.674a35.6,35.6,0,0,0-1.428,6.5,12.928,12.928,0,0,1-2.136-5.545.141.141,0,1,0-.279.041,13,13,0,0,0,2.363,5.909,43.9,43.9,0,0,0,.505,13.006.188.188,0,0,0,.22.151l.022-.005a.189.189,0,0,0,.129-.214,41.5,41.5,0,0,1,.1-16.448,5.175,5.175,0,0,1,2.795-2.04.149.149,0,0,0,.1-.174.141.141,0,0,0-.174-.1,5.31,5.31,0,0,0-2.572,1.661,31.468,31.468,0,0,1,2.459-6.847,7.764,7.764,0,0,1,2.417-.863.144.144,0,0,0,.111-.166A.142.142,0,0,0,110.212,283.13Z" transform="translate(-99.4 -269.218)" fill="#e0e0e0"/>
          </g>
        </g>
        <g id="Grupo_1104881" data-name="Grupo 1104881" transform="translate(78.013 77.456)">
          <rect id="Rectángulo_405707" data-name="Rectángulo 405707" width="42.655" height="56.758" fill="#f5f5f5"/>
          <rect id="Rectángulo_405708" data-name="Rectángulo 405708" width="8.137" height="56.758" transform="translate(42.655)" fill="#e6e6e6"/>
          <rect id="Rectángulo_405709" data-name="Rectángulo 405709" width="36.899" height="13.784" transform="translate(2.988 4.212)" fill="#fafafa"/>
          <path id="Trazado_896414" data-name="Trazado 896414" d="M197.607,303.656l.161,1.837a1.173,1.173,0,0,0,1.169,1.071H205.9a1.173,1.173,0,0,0,1.169-1.071l.161-1.837Z" transform="translate(-180.981 -299.444)" fill="#ebebeb"/>
          <rect id="Rectángulo_405710" data-name="Rectángulo 405710" width="36.899" height="13.783" transform="translate(2.988 19.501)" fill="#fafafa"/>
          <path id="Trazado_896415" data-name="Trazado 896415" d="M197.607,326.906l.161,1.837a1.173,1.173,0,0,0,1.169,1.071H205.9a1.173,1.173,0,0,0,1.169-1.071l.161-1.837Z" transform="translate(-180.981 -307.405)" fill="#ebebeb"/>
          <rect id="Rectángulo_405711" data-name="Rectángulo 405711" width="36.899" height="13.783" transform="translate(2.988 34.79)" fill="#fafafa"/>
          <path id="Trazado_896416" data-name="Trazado 896416" d="M197.607,350.156l.161,1.837a1.173,1.173,0,0,0,1.169,1.071H205.9a1.173,1.173,0,0,0,1.169-1.071l.161-1.837Z" transform="translate(-180.981 -315.366)" fill="#ebebeb"/>
        </g>
      </g>
      <g id="Shadow" transform="translate(31.289 302.177)">
        <ellipse id="_Path_" data-name="&lt;Path&gt;" cx="147.5" cy="7.446" rx="147.5" ry="7.446" fill="#d1d1d1"/>
      </g>
      <g id="Data" transform="translate(96.618 86.464)">
        <g id="Grupo_1104919" data-name="Grupo 1104919">
          <g id="Grupo_1104884" data-name="Grupo 1104884">
            <g id="Grupo_1104882" data-name="Grupo 1104882">
              <path id="Trazado_896598" data-name="Trazado 896598" d="M3.354,0H170.469a3.353,3.353,0,0,1,3.353,3.353V124.917a3.354,3.354,0,0,1-3.354,3.354H3.353A3.353,3.353,0,0,1,0,124.917V3.354A3.354,3.354,0,0,1,3.354,0Z" fill="#ffe9df"/>
            </g>
            <path id="Trazado_896417" data-name="Trazado 896417" d="M154.092,86.464H123.473a3.252,3.252,0,0,0-3.252,3.252V211.483a3.253,3.253,0,0,0,3.252,3.252h30.618Z" transform="translate(-120.221 -86.464)" fill="#fff" opacity="0.3"/>
            <path id="Trazado_896418" data-name="Trazado 896418" d="M290.791,86.464H123.473a3.253,3.253,0,0,0-3.252,3.252V98.2H294.043V89.716A3.253,3.253,0,0,0,290.791,86.464Z" transform="translate(-120.221 -86.464)" fill="#efb499"/>
            <g id="Grupo_1104883" data-name="Grupo 1104883" transform="translate(5.111 3.027)">
              <path id="Trazado_896419" data-name="Trazado 896419" d="M128.561,92.2a.568.568,0,0,1,0-1.136h4.481a.568.568,0,1,1,0,1.136Z" transform="translate(-127.993 -91.067)" fill="#fff"/>
              <path id="Trazado_896420" data-name="Trazado 896420" d="M128.561,95.661a.568.568,0,0,1,0-1.137h4.481a.568.568,0,0,1,0,1.137Z" transform="translate(-127.993 -92.251)" fill="#fff"/>
              <path id="Trazado_896421" data-name="Trazado 896421" d="M128.561,99.118a.568.568,0,0,1,0-1.137h4.481a.568.568,0,0,1,0,1.137Z" transform="translate(-127.993 -93.434)" fill="#fff"/>
            </g>
          </g>
          <rect id="Rectángulo_405714" data-name="Rectángulo 405714" width="14.652" height="40.597" rx="2.192" transform="translate(39.855 19.283)" fill="#fff" opacity="0.7"/>
          <rect id="Rectángulo_405715" data-name="Rectángulo 405715" width="14.652" height="40.597" rx="2.192" transform="translate(58.169 19.283)" fill="#fff" opacity="0.4"/>
          <rect id="Rectángulo_405716" data-name="Rectángulo 405716" width="14.652" height="40.597" rx="2.192" transform="translate(76.484 19.283)" fill="#fff" opacity="0.7"/>
          <rect id="Rectángulo_405717" data-name="Rectángulo 405717" width="14.652" height="40.597" rx="2.192" transform="translate(94.799 19.283)" fill="#fff" opacity="0.4"/>
          <rect id="Rectángulo_405718" data-name="Rectángulo 405718" width="14.652" height="40.597" rx="2.192" transform="translate(113.113 19.283)" fill="#fff" opacity="0.7"/>
          <rect id="Rectángulo_405719" data-name="Rectángulo 405719" width="14.652" height="40.597" rx="2.192" transform="translate(131.428 19.283)" fill="#fff" opacity="0.4"/>
          <rect id="Rectángulo_405720" data-name="Rectángulo 405720" width="14.652" height="40.597" rx="2.192" transform="translate(149.742 19.283)" fill="#fff" opacity="0.7"/>
          <g id="Grupo_1104885" data-name="Grupo 1104885" transform="translate(75.096 82.204)">
            <path id="Trazado_896422" data-name="Trazado 896422" d="M237.391,214.06h-.522v.673h-.723v-.673h-1.726v-.5l1.511-2.033h.778l-1.4,1.927h.861v-.6h.7v.6h.522Z" transform="translate(-234.419 -211.49)"/>
            <path id="Trazado_896423" data-name="Trazado 896423" d="M241.288,213a.894.894,0,0,1,.323.723,1,1,0,0,1-.147.533,1.023,1.023,0,0,1-.446.385,1.7,1.7,0,0,1-.74.144,2.505,2.505,0,0,1-.666-.089,1.7,1.7,0,0,1-.556-.254l.293-.568a1.409,1.409,0,0,0,.421.213,1.6,1.6,0,0,0,.49.076.772.772,0,0,0,.44-.11.352.352,0,0,0,.16-.307.343.343,0,0,0-.168-.311,1.147,1.147,0,0,0-.579-.106h-.82l.165-1.8h1.955v.6h-1.337l-.051.608h.261A1.538,1.538,0,0,1,241.288,213Z" transform="translate(-236.007 -211.49)"/>
            <path id="Trazado_896424" data-name="Trazado 896424" d="M243.47,213a1.044,1.044,0,0,1,0-1.286.747.747,0,0,1,.575-.241.739.739,0,0,1,.572.241,1.049,1.049,0,0,1,0,1.286.737.737,0,0,1-.572.241A.744.744,0,0,1,243.47,213Zm.82-.263a.852.852,0,0,0,0-.76.294.294,0,0,0-.488,0,.826.826,0,0,0,0,.756.295.295,0,0,0,.488,0Zm1.664-1.226h.545l-2.188,3.2h-.545Zm-.144,3.133a.725.725,0,0,1-.281-.308,1.135,1.135,0,0,1,0-.934.73.73,0,0,1,.281-.309.786.786,0,0,1,.41-.108.746.746,0,0,1,.575.241,1.042,1.042,0,0,1,0,1.286.746.746,0,0,1-.575.241A.786.786,0,0,1,245.809,214.642Zm.655-.4a.848.848,0,0,0,0-.756.294.294,0,0,0-.488,0,.836.836,0,0,0,0,.76.295.295,0,0,0,.488,0Z" transform="translate(-237.442 -211.471)"/>
          </g>
          <g id="Grupo_1104886" data-name="Grupo 1104886" transform="translate(125.658 82.185)">
            <path id="Trazado_896425" data-name="Trazado 896425" d="M313.412,212.817a.972.972,0,0,1,.4.35.942.942,0,0,1,.146.524,1.006,1.006,0,0,1-.159.564,1.047,1.047,0,0,1-.438.373,1.421,1.421,0,0,1-.616.131,1.36,1.36,0,0,1-1.053-.412,1.674,1.674,0,0,1-.38-1.176,1.972,1.972,0,0,1,.206-.934,1.4,1.4,0,0,1,.574-.591,1.754,1.754,0,0,1,.854-.2,2.087,2.087,0,0,1,.493.058,1.311,1.311,0,0,1,.4.162l-.275.544a1.055,1.055,0,0,0-.6-.16.873.873,0,0,0-.646.238,1,1,0,0,0-.256.691,1.071,1.071,0,0,1,.792-.283A1.254,1.254,0,0,1,313.412,212.817Zm-.322,1.259a.486.486,0,0,0,0-.7.579.579,0,0,0-.4-.131.586.586,0,0,0-.4.135.463.463,0,0,0,0,.689.6.6,0,0,0,.412.133A.574.574,0,0,0,313.089,214.077Z" transform="translate(-311.31 -211.443)"/>
            <path id="Trazado_896426" data-name="Trazado 896426" d="M317.775,213a.9.9,0,0,1,.323.723,1,1,0,0,1-.147.533,1.027,1.027,0,0,1-.446.385,1.707,1.707,0,0,1-.74.144,2.5,2.5,0,0,1-.665-.089,1.706,1.706,0,0,1-.557-.254l.293-.568a1.42,1.42,0,0,0,.422.213,1.6,1.6,0,0,0,.49.076.77.77,0,0,0,.439-.11.353.353,0,0,0,.161-.307.343.343,0,0,0-.168-.311,1.147,1.147,0,0,0-.579-.106h-.819l.164-1.8H317.9v.6h-1.337l-.05.608h.261A1.539,1.539,0,0,1,317.775,213Z" transform="translate(-312.759 -211.472)"/>
            <path id="Trazado_896427" data-name="Trazado 896427" d="M319.958,213a1.044,1.044,0,0,1,0-1.286.747.747,0,0,1,.575-.241.739.739,0,0,1,.572.241,1.051,1.051,0,0,1,0,1.286.8.8,0,0,1-1.147,0Zm.819-.263a.853.853,0,0,0,0-.76.295.295,0,0,0-.488,0,.832.832,0,0,0,0,.756.285.285,0,0,0,.243.13A.282.282,0,0,0,320.777,212.735Zm1.664-1.226h.544l-2.188,3.2h-.544Zm-.144,3.133a.72.72,0,0,1-.281-.308,1.135,1.135,0,0,1,0-.934.726.726,0,0,1,.281-.309.786.786,0,0,1,.41-.108.748.748,0,0,1,.575.241,1.044,1.044,0,0,1,0,1.286.748.748,0,0,1-.575.241A.786.786,0,0,1,322.3,214.642Zm.654-.4a.843.843,0,0,0,0-.756.294.294,0,0,0-.487,0,.836.836,0,0,0,0,.76.284.284,0,0,0,.243.128A.28.28,0,0,0,322.952,214.244Z" transform="translate(-314.195 -211.453)"/>
          </g>
          <g id="Grupo_1104887" data-name="Grupo 1104887" transform="translate(135.143 4.105)">
            <path id="Trazado_896428" data-name="Trazado 896428" d="M328.123,96.166a1.34,1.34,0,0,1-.792.331v.513h-.458v-.5a2.478,2.478,0,0,1-.646-.119,1.614,1.614,0,0,1-.494-.247l.252-.558a1.659,1.659,0,0,0,.408.215,1.856,1.856,0,0,0,.481.11v-.765a3.414,3.414,0,0,1-.55-.174.973.973,0,0,1-.375-.281.757.757,0,0,1-.151-.493.884.884,0,0,1,.276-.652,1.318,1.318,0,0,1,.8-.332v-.508h.458v.5a2,2,0,0,1,.929.279l-.229.564a1.819,1.819,0,0,0-.7-.239v.779a3.287,3.287,0,0,1,.543.167.953.953,0,0,1,.373.279.748.748,0,0,1,.151.487A.868.868,0,0,1,328.123,96.166Zm-1.5-1.816a.718.718,0,0,0,.252.124v-.65a.5.5,0,0,0-.256.13.3.3,0,0,0-.082.208A.232.232,0,0,0,326.621,94.35Zm.957,1.424a.266.266,0,0,0,.082-.2.236.236,0,0,0-.085-.187.716.716,0,0,0-.245-.128v.631A.5.5,0,0,0,327.578,95.774Z" transform="translate(-325.733 -92.706)" fill="#fff"/>
            <path id="Trazado_896429" data-name="Trazado 896429" d="M331.342,93.542v3.205H330.6v-2.61h-.641v-.6Z" transform="translate(-327.18 -92.992)" fill="#fff"/>
            <path id="Trazado_896430" data-name="Trazado 896430" d="M335.216,96.114v.6h-2.423v-.481l1.236-1.168a1.3,1.3,0,0,0,.266-.323.583.583,0,0,0,.068-.268.354.354,0,0,0-.13-.3.6.6,0,0,0-.382-.1.878.878,0,0,0-.38.08.727.727,0,0,0-.284.24l-.54-.348a1.276,1.276,0,0,1,.517-.437,1.732,1.732,0,0,1,.756-.158,1.548,1.548,0,0,1,.625.117.954.954,0,0,1,.416.329.853.853,0,0,1,.149.5,1.108,1.108,0,0,1-.11.489,1.882,1.882,0,0,1-.425.523l-.737.7Z" transform="translate(-328.1 -92.963)" fill="#fff"/>
            <path id="Trazado_896431" data-name="Trazado 896431" d="M337.182,97.881a.433.433,0,0,1-.128-.32.419.419,0,0,1,.128-.318.473.473,0,0,1,.632,0,.419.419,0,0,1,.128.318.447.447,0,0,1-.76.32Z" transform="translate(-329.609 -94.218)" fill="#fff"/>
            <path id="Trazado_896432" data-name="Trazado 896432" d="M339.487,96.576a1.32,1.32,0,0,1-.487-.57,2.337,2.337,0,0,1,0-1.781,1.326,1.326,0,0,1,.487-.571,1.379,1.379,0,0,1,1.419,0,1.323,1.323,0,0,1,.488.571,2.338,2.338,0,0,1,0,1.781,1.317,1.317,0,0,1-.488.57,1.379,1.379,0,0,1-1.419,0Zm1.17-.682a1.9,1.9,0,0,0,0-1.557.542.542,0,0,0-.915,0,1.9,1.9,0,0,0,0,1.557.542.542,0,0,0,.915,0Z" transform="translate(-330.215 -92.963)" fill="#fff"/>
            <path id="Trazado_896433" data-name="Trazado 896433" d="M345.684,93.868a1.675,1.675,0,0,1,.381,1.18,1.991,1.991,0,0,1-.2.933,1.388,1.388,0,0,1-.575.591,1.765,1.765,0,0,1-.856.2,2.016,2.016,0,0,1-.49-.057,1.306,1.306,0,0,1-.4-.162l.275-.545a1.033,1.033,0,0,0,.6.16.868.868,0,0,0,.645-.24,1,1,0,0,0,.256-.694,1.077,1.077,0,0,1-.8.289,1.251,1.251,0,0,1-.558-.124.979.979,0,0,1-.4-.351.943.943,0,0,1-.147-.525,1,1,0,0,1,.16-.563,1.045,1.045,0,0,1,.437-.373,1.431,1.431,0,0,1,.616-.131A1.366,1.366,0,0,1,345.684,93.868Zm-.6.966a.468.468,0,0,0,.005-.689.6.6,0,0,0-.41-.132.572.572,0,0,0-.387.128.435.435,0,0,0-.149.348.443.443,0,0,0,.149.35.656.656,0,0,0,.792-.005Z" transform="translate(-331.789 -92.963)" fill="#fff"/>
            <path id="Trazado_896434" data-name="Trazado 896434" d="M350.533,95.345a.79.79,0,0,1,.126.444.835.835,0,0,1-.17.52,1.079,1.079,0,0,1-.476.344,2.135,2.135,0,0,1-1.417,0,1.06,1.06,0,0,1-.471-.344.837.837,0,0,1-.168-.52.79.79,0,0,1,.126-.444.917.917,0,0,1,.36-.312.775.775,0,0,1-.275-.277.748.748,0,0,1-.1-.382.784.784,0,0,1,.155-.485,1,1,0,0,1,.435-.319,1.719,1.719,0,0,1,.641-.112,1.752,1.752,0,0,1,.648.112,1,1,0,0,1,.437.319.781.781,0,0,1,.156.485.748.748,0,0,1-.1.382.765.765,0,0,1-.279.277A.906.906,0,0,1,350.533,95.345Zm-.788.758a.4.4,0,0,0,.163-.336.4.4,0,0,0-.163-.335.712.712,0,0,0-.441-.124.7.7,0,0,0-.435.124.4.4,0,0,0-.16.335.405.405,0,0,0,.16.339.831.831,0,0,0,.877,0Zm-.8-1.992a.358.358,0,0,0-.135.3.349.349,0,0,0,.132.288.568.568,0,0,0,.362.106.586.586,0,0,0,.366-.106.344.344,0,0,0,.137-.288.356.356,0,0,0-.137-.3A.578.578,0,0,0,349.3,94,.561.561,0,0,0,348.944,94.11Z" transform="translate(-333.343 -92.963)" fill="#fff"/>
            <path id="Trazado_896435" data-name="Trazado 896435" d="M352.744,97.881a.435.435,0,0,1-.128-.32.421.421,0,0,1,.128-.318.474.474,0,0,1,.633,0,.418.418,0,0,1,.128.318.447.447,0,0,1-.76.32Z" transform="translate(-334.938 -94.218)" fill="#fff"/>
            <path id="Trazado_896436" data-name="Trazado 896436" d="M356.5,95.016a.9.9,0,0,1,.323.723,1,1,0,0,1-.147.533,1.023,1.023,0,0,1-.447.385,1.7,1.7,0,0,1-.739.144,2.506,2.506,0,0,1-.666-.089,1.709,1.709,0,0,1-.556-.254l.293-.568a1.422,1.422,0,0,0,.422.214,1.618,1.618,0,0,0,.49.075.763.763,0,0,0,.439-.11.351.351,0,0,0,.16-.307.344.344,0,0,0-.167-.311,1.153,1.153,0,0,0-.579-.105h-.82l.165-1.8h1.955v.6h-1.337l-.05.609h.261A1.538,1.538,0,0,1,356.5,95.016Z" transform="translate(-335.505 -92.992)" fill="#fff"/>
            <path id="Trazado_896437" data-name="Trazado 896437" d="M359.281,96.576a1.311,1.311,0,0,1-.487-.57,2.329,2.329,0,0,1,0-1.781,1.317,1.317,0,0,1,.487-.571,1.379,1.379,0,0,1,1.419,0,1.323,1.323,0,0,1,.488.571,2.337,2.337,0,0,1,0,1.781,1.317,1.317,0,0,1-.488.57,1.379,1.379,0,0,1-1.419,0Zm1.17-.682a1.9,1.9,0,0,0,0-1.557.525.525,0,0,0-.46-.252.52.52,0,0,0-.455.252,1.9,1.9,0,0,0,0,1.557.519.519,0,0,0,.455.251A.525.525,0,0,0,360.451,95.894Z" transform="translate(-336.993 -92.963)" fill="#fff"/>
            <path id="Trazado_896438" data-name="Trazado 896438" d="M364.462,93.542v3.205h-.742v-2.61h-.641v-.6Z" transform="translate(-338.521 -92.992)" fill="#fff"/>
            <path id="Trazado_896439" data-name="Trazado 896439" d="M366.125,97.881a.435.435,0,0,1-.128-.32.42.42,0,0,1,.128-.318.474.474,0,0,1,.633,0,.418.418,0,0,1,.128.318.447.447,0,0,1-.76.32Z" transform="translate(-339.52 -94.218)" fill="#fff"/>
            <path id="Trazado_896440" data-name="Trazado 896440" d="M368.429,96.576a1.317,1.317,0,0,1-.488-.57,2.338,2.338,0,0,1,0-1.781,1.323,1.323,0,0,1,.488-.571,1.379,1.379,0,0,1,1.419,0,1.323,1.323,0,0,1,.488.571,2.337,2.337,0,0,1,0,1.781,1.317,1.317,0,0,1-.488.57,1.379,1.379,0,0,1-1.419,0Zm1.17-.682a1.9,1.9,0,0,0,0-1.557.542.542,0,0,0-.916,0,1.9,1.9,0,0,0,0,1.557.543.543,0,0,0,.916,0Z" transform="translate(-340.125 -92.963)" fill="#fff"/>
            <path id="Trazado_896441" data-name="Trazado 896441" d="M373.156,96.576a1.32,1.32,0,0,1-.487-.57,2.338,2.338,0,0,1,0-1.781,1.326,1.326,0,0,1,.487-.571,1.379,1.379,0,0,1,1.419,0,1.323,1.323,0,0,1,.488.571,2.337,2.337,0,0,1,0,1.781,1.317,1.317,0,0,1-.488.57,1.379,1.379,0,0,1-1.419,0Zm1.17-.682a1.9,1.9,0,0,0,0-1.557.542.542,0,0,0-.915,0,1.9,1.9,0,0,0,0,1.557.543.543,0,0,0,.915,0Z" transform="translate(-341.744 -92.963)" fill="#fff"/>
          </g>
          <g id="Grupo_1104888" data-name="Grupo 1104888" transform="translate(44.424 64.956)">
            <path id="Trazado_896442" data-name="Trazado 896442" d="M189.16,185.243v3.205h-.742v-2.61h-.641v-.6Z" transform="translate(-187.777 -185.243)"/>
            <path id="Trazado_896443" data-name="Trazado 896443" d="M191.035,185.243h1.457a2.048,2.048,0,0,1,.923.2,1.5,1.5,0,0,1,.623.56,1.713,1.713,0,0,1,0,1.685,1.5,1.5,0,0,1-.623.561,2.048,2.048,0,0,1-.923.2h-1.457Zm1.42,2.6a1.074,1.074,0,0,0,.767-.268,1.063,1.063,0,0,0,0-1.451,1.074,1.074,0,0,0-.767-.268h-.678v1.987Z" transform="translate(-188.893 -185.243)"/>
          </g>
          <g id="Grupo_1104889" data-name="Grupo 1104889" transform="translate(61.967 64.956)">
            <path id="Trazado_896444" data-name="Trazado 896444" d="M215.838,185.243v3.205H215.1v-2.61h-.641v-.6Z" transform="translate(-214.455 -185.243)"/>
            <path id="Trazado_896445" data-name="Trazado 896445" d="M222.412,185.243l-1.048,3.205h-.8l-.7-2.171-.728,2.171h-.792l-1.053-3.205h.769l.723,2.253.756-2.253h.687l.733,2.271.746-2.271Z" transform="translate(-215.425 -185.243)"/>
          </g>
          <g id="Grupo_1104890" data-name="Grupo 1104890" transform="translate(80.758 64.956)">
            <path id="Trazado_896446" data-name="Trazado 896446" d="M244.413,185.243v3.205h-.742v-2.61h-.641v-.6Z" transform="translate(-243.03 -185.243)"/>
            <path id="Trazado_896447" data-name="Trazado 896447" d="M249.205,188.448l0-1.923-.943,1.584h-.335l-.938-1.543v1.882h-.7v-3.205h.614l1.2,1.991,1.181-1.991h.61l.009,3.205Z" transform="translate(-244.146 -185.243)"/>
          </g>
          <g id="Grupo_1104892" data-name="Grupo 1104892" transform="translate(96.172 62.983)">
            <rect id="Rectángulo_405721" data-name="Rectángulo 405721" width="11.904" height="7.326" rx="3.663" fill="#6a4d23"/>
            <g id="Grupo_1104891" data-name="Grupo 1104891" transform="translate(2.406 1.974)">
              <path id="Trazado_896448" data-name="Trazado 896448" d="M272.455,186.861a.865.865,0,0,1,.224.606.955.955,0,0,1-.147.516,1.015,1.015,0,0,1-.446.377,1.705,1.705,0,0,1-.735.142,2.506,2.506,0,0,1-.666-.089,1.709,1.709,0,0,1-.556-.254l.288-.568a1.421,1.421,0,0,0,.424.214,1.644,1.644,0,0,0,.492.075.783.783,0,0,0,.44-.107.347.347,0,0,0,.16-.305q0-.394-.6-.393h-.339v-.49l.659-.746h-1.364v-.6h2.243v.481l-.723.824A1.081,1.081,0,0,1,272.455,186.861Z" transform="translate(-270.129 -185.243)" fill="#fff"/>
              <path id="Trazado_896449" data-name="Trazado 896449" d="M277.752,188.448l0-1.923-.943,1.584h-.335l-.938-1.543v1.882h-.7v-3.205h.614l1.2,1.991,1.181-1.991h.609l.009,3.205Z" transform="translate(-271.74 -185.243)" fill="#fff"/>
            </g>
          </g>
          <g id="Grupo_1104893" data-name="Grupo 1104893" transform="translate(116.973 64.901)">
            <path id="Trazado_896450" data-name="Trazado 896450" d="M300.2,186.533a.981.981,0,0,1,.4.35.95.95,0,0,1,.146.525,1,1,0,0,1-.16.563,1.055,1.055,0,0,1-.437.374,1.43,1.43,0,0,1-.616.13,1.36,1.36,0,0,1-1.053-.412,1.677,1.677,0,0,1-.38-1.177,1.962,1.962,0,0,1,.206-.934,1.4,1.4,0,0,1,.574-.591,1.756,1.756,0,0,1,.854-.2,2.077,2.077,0,0,1,.492.057,1.337,1.337,0,0,1,.4.162l-.274.545a1.051,1.051,0,0,0-.6-.16.872.872,0,0,0-.646.238.994.994,0,0,0-.256.692,1.07,1.07,0,0,1,.792-.284A1.254,1.254,0,0,1,300.2,186.533Zm-.323,1.259a.435.435,0,0,0,.149-.348.443.443,0,0,0-.149-.35.576.576,0,0,0-.4-.131.587.587,0,0,0-.4.135.463.463,0,0,0,0,.688.6.6,0,0,0,.412.133A.572.572,0,0,0,299.881,187.792Z" transform="translate(-298.102 -185.159)"/>
            <path id="Trazado_896451" data-name="Trazado 896451" d="M305.76,188.448l0-1.923-.943,1.584h-.335l-.938-1.543v1.882h-.7v-3.205h.614l1.2,1.991,1.181-1.991h.61l.009,3.205Z" transform="translate(-299.726 -185.188)"/>
          </g>
          <g id="Grupo_1104894" data-name="Grupo 1104894" transform="translate(136.34 64.956)">
            <path id="Trazado_896452" data-name="Trazado 896452" d="M328.937,185.243v3.205H328.2v-2.61h-.641v-.6Z" transform="translate(-327.554 -185.243)"/>
            <path id="Trazado_896453" data-name="Trazado 896453" d="M332.12,187.312v1.136h-.741V187.3l-1.242-2.06h.788l.856,1.424.856-1.424h.728Z" transform="translate(-328.438 -185.243)"/>
          </g>
          <g id="Grupo_1104895" data-name="Grupo 1104895" transform="translate(154.183 64.956)">
            <path id="Trazado_896454" data-name="Trazado 896454" d="M357.014,186.861a.865.865,0,0,1,.224.606.955.955,0,0,1-.147.516,1.015,1.015,0,0,1-.446.377,1.707,1.707,0,0,1-.735.142,2.506,2.506,0,0,1-.666-.089,1.709,1.709,0,0,1-.556-.254l.288-.568a1.413,1.413,0,0,0,.424.214,1.644,1.644,0,0,0,.492.075.779.779,0,0,0,.439-.107.346.346,0,0,0,.16-.305q0-.394-.6-.393h-.339v-.49l.659-.746h-1.365v-.6h2.244v.481l-.723.824A1.083,1.083,0,0,1,357.014,186.861Z" transform="translate(-354.688 -185.243)"/>
            <path id="Trazado_896455" data-name="Trazado 896455" d="M360.632,187.312v1.136h-.741V187.3l-1.242-2.06h.788l.856,1.424.856-1.424h.728Z" transform="translate(-356.044 -185.243)"/>
          </g>
          <g id="Grupo_1104896" data-name="Grupo 1104896" transform="translate(38.013 26.898)">
            <path id="Trazado_896456" data-name="Trazado 896456" d="M178.038,148.445h0a.916.916,0,0,1,.77-1.042l17.3-2.595,18.441-7.65,18.532-2.471,18.184,6.364,18.159-7.869h18.356l17.305-5.768a.916.916,0,0,1,1.158.579h0a.915.915,0,0,1-.579,1.158l-17.587,5.862H269.8l-18.469,8-18.446-6.456-17.978,2.4L196.488,146.6l-17.409,2.611A.916.916,0,0,1,178.038,148.445Z" transform="translate(-178.027 -127.367)" fill="#ffb937"/>
          </g>
          <g id="Grupo_1104897" data-name="Grupo 1104897" transform="translate(37.817 22.942)">
            <path id="Trazado_896457" data-name="Trazado 896457" d="M195.992,150.409l-17.926-14.64a.916.916,0,0,1-.13-1.288h0a.916.916,0,0,1,1.288-.13l17.285,14.116,17.821-2.97,18.234-6.686,18.393-8.877L269.449,125l18.278,2.437,17.244-6.035a.915.915,0,0,1,1.167.562h0a.916.916,0,0,1-.562,1.167l-17.657,6.18-18.351-2.447-18.054,4.815-18.236,8.814-18.562,6.794Z" transform="translate(-177.73 -121.352)" fill="#263238"/>
          </g>
          <g id="Grupo_1104898" data-name="Grupo 1104898" transform="translate(3.895 16.111)">
            <circle id="Elipse_11575" data-name="Elipse 11575" cx="4.982" cy="4.982" r="4.982" transform="translate(7.054 9.697) rotate(-76.718)" fill="#7d3a1b"/>
            <path id="Rectángulo_405722" data-name="Rectángulo 405722" d="M1.538,0H24.556a1.539,1.539,0,0,1,1.539,1.539V5.546a1.539,1.539,0,0,1-1.539,1.539H1.539A1.539,1.539,0,0,1,0,5.546V1.538A1.538,1.538,0,0,1,1.538,0Z" transform="translate(0 14.49)" fill="#fff" opacity="0.5"/>
            <path id="Trazado_896458" data-name="Trazado 896458" d="M130.416,138.605l-1.04.547.2-1.158-.841-.82L129.9,137l.52-1.053.52,1.053,1.163.169-.841.82.2,1.158Z" transform="translate(-127.031 -119.519)" fill="#ffb937"/>
            <path id="Trazado_896459" data-name="Trazado 896459" d="M137.762,138.605l-1.04.547.2-1.158-.841-.82,1.163-.169.52-1.053.52,1.053,1.163.169-.841.82.2,1.158Z" transform="translate(-129.546 -119.519)" fill="#ffb937"/>
            <path id="Trazado_896460" data-name="Trazado 896460" d="M145.109,138.605l-1.04.547.2-1.158-.841-.82,1.163-.169.52-1.053.52,1.053,1.163.169-.841.82.2,1.158Z" transform="translate(-132.062 -119.519)" fill="#ffb937"/>
            <path id="Trazado_896461" data-name="Trazado 896461" d="M152.455,138.605l-1.04.547.2-1.158-.841-.82,1.163-.169.52-1.053.52,1.053,1.163.169-.841.82.2,1.158Z" transform="translate(-134.577 -119.519)" fill="#fff" opacity="0.9"/>
            <path id="Trazado_896462" data-name="Trazado 896462" d="M159.8,138.605l-1.04.547.2-1.158-.841-.82,1.163-.169.52-1.053.52,1.053,1.163.169-.841.82.2,1.158Z" transform="translate(-137.093 -119.519)" fill="#fff" opacity="0.9"/>
          </g>
          <g id="Grupo_1104899" data-name="Grupo 1104899" transform="translate(3.895 43.53)">
            <circle id="Elipse_11576" data-name="Elipse 11576" cx="4.982" cy="4.982" r="4.982" transform="translate(7.054 9.697) rotate(-76.718)" fill="#263238"/>
            <circle id="Elipse_11577" data-name="Elipse 11577" cx="4.982" cy="4.982" r="4.982" transform="translate(7.054 9.697) rotate(-76.718)" fill="#fff" opacity="0.7"/>
            <path id="Rectángulo_405723" data-name="Rectángulo 405723" d="M1.538,0H24.556a1.539,1.539,0,0,1,1.539,1.539V5.546a1.539,1.539,0,0,1-1.539,1.539H1.539A1.539,1.539,0,0,1,0,5.546V1.538A1.538,1.538,0,0,1,1.538,0Z" transform="translate(0 14.49)" fill="#fff" opacity="0.5"/>
            <path id="Trazado_896463" data-name="Trazado 896463" d="M130.416,180.3l-1.04.547.2-1.158-.841-.82,1.163-.169.52-1.053.52,1.053,1.163.169-.841.82.2,1.158Z" transform="translate(-127.031 -161.217)" fill="#407bff"/>
            <path id="Trazado_896464" data-name="Trazado 896464" d="M137.762,180.3l-1.04.547.2-1.158-.841-.82,1.163-.169.52-1.053.52,1.053,1.163.169-.841.82.2,1.158Z" transform="translate(-129.546 -161.217)" fill="#407bff"/>
            <path id="Trazado_896465" data-name="Trazado 896465" d="M145.109,180.3l-1.04.547.2-1.158-.841-.82,1.163-.169.52-1.053.52,1.053,1.163.169-.841.82.2,1.158Z" transform="translate(-132.062 -161.217)" fill="#fff" opacity="0.9"/>
            <path id="Trazado_896466" data-name="Trazado 896466" d="M152.455,180.3l-1.04.547.2-1.158-.841-.82,1.163-.169.52-1.053.52,1.053,1.163.169-.841.82.2,1.158Z" transform="translate(-134.577 -161.217)" fill="#fff" opacity="0.9"/>
            <path id="Trazado_896467" data-name="Trazado 896467" d="M159.8,180.3l-1.04.547.2-1.158-.841-.82,1.163-.169.52-1.053.52,1.053,1.163.169-.841.82.2,1.158Z" transform="translate(-137.093 -161.217)" fill="#fff" opacity="0.9"/>
          </g>
          <g id="Grupo_1104900" data-name="Grupo 1104900" transform="translate(3.895 69.898)">
            <circle id="Elipse_11578" data-name="Elipse 11578" cx="4.982" cy="4.982" r="4.982" transform="translate(6.002 7.045) rotate(-45)" fill="#efb499"/>
            <path id="Rectángulo_405724" data-name="Rectángulo 405724" d="M1.538,0H24.556a1.539,1.539,0,0,1,1.539,1.539V5.546a1.539,1.539,0,0,1-1.539,1.539H1.539A1.539,1.539,0,0,1,0,5.546V1.538A1.538,1.538,0,0,1,1.538,0Z" transform="translate(0 15.542)" fill="#fff" opacity="0.5"/>
            <path id="Trazado_896468" data-name="Trazado 896468" d="M130.416,222l-1.04.547.2-1.158-.841-.82,1.163-.169.52-1.053.52,1.053,1.163.169-.841.82.2,1.158Z" transform="translate(-127.031 -201.862)" fill="#407bff"/>
            <path id="Trazado_896469" data-name="Trazado 896469" d="M137.762,222l-1.04.547.2-1.158-.841-.82,1.163-.169.52-1.053.52,1.053,1.163.169-.841.82.2,1.158Z" transform="translate(-129.546 -201.862)" fill="#407bff"/>
            <path id="Trazado_896470" data-name="Trazado 896470" d="M145.109,222l-1.04.547.2-1.158-.841-.82,1.163-.169.52-1.053.52,1.053,1.163.169-.841.82.2,1.158Z" transform="translate(-132.062 -201.862)" fill="#407bff"/>
            <path id="Trazado_896471" data-name="Trazado 896471" d="M152.455,222l-1.04.547.2-1.158-.841-.82,1.163-.169.52-1.053.52,1.053,1.163.169-.841.82.2,1.158Z" transform="translate(-134.577 -201.862)" fill="#407bff"/>
            <path id="Trazado_896472" data-name="Trazado 896472" d="M159.8,222l-1.04.547.2-1.158-.841-.82,1.163-.169.52-1.053.52,1.053,1.163.169-.841.82.2,1.158Z" transform="translate(-137.093 -201.862)" fill="#fff" opacity="0.9"/>
          </g>
          <g id="Grupo_1104901" data-name="Grupo 1104901" transform="translate(3.895 97.318)">
            <circle id="Elipse_11580" data-name="Elipse 11580" cx="4.982" cy="4.982" r="4.982" transform="translate(6.002 7.045) rotate(-45)" fill="#263238"/>
            <circle id="Elipse_11581" data-name="Elipse 11581" cx="4.982" cy="4.982" r="4.982" transform="translate(6.002 7.045) rotate(-45)" fill="#fff" opacity="0.5"/>
            <rect id="Rectángulo_405725" data-name="Rectángulo 405725" width="26.094" height="7.084" rx="1.539" transform="translate(0 15.542)" fill="#fff" opacity="0.5"/>
            <path id="Trazado_896473" data-name="Trazado 896473" d="M130.416,263.7l-1.04.547.2-1.158-.841-.82,1.163-.169.52-1.053.52,1.053,1.163.169-.841.82.2,1.158Z" transform="translate(-127.031 -243.559)" fill="#407bff"/>
            <path id="Trazado_896474" data-name="Trazado 896474" d="M137.762,263.7l-1.04.547.2-1.158-.841-.82,1.163-.169.52-1.053.52,1.053,1.163.169-.841.82.2,1.158Z" transform="translate(-129.546 -243.559)" fill="#407bff"/>
            <path id="Trazado_896475" data-name="Trazado 896475" d="M145.109,263.7l-1.04.547.2-1.158-.841-.82,1.163-.169.52-1.053.52,1.053,1.163.169-.841.82.2,1.158Z" transform="translate(-132.062 -243.559)" fill="#fff" opacity="0.9"/>
            <path id="Trazado_896476" data-name="Trazado 896476" d="M145.109,263.7l-1.04.547.2-1.158-.841-.82,1.163-.169.52-1.053Z" transform="translate(-132.062 -243.559)" fill="#407bff"/>
            <path id="Trazado_896477" data-name="Trazado 896477" d="M152.455,263.7l-1.04.547.2-1.158-.841-.82,1.163-.169.52-1.053.52,1.053,1.163.169-.841.82.2,1.158Z" transform="translate(-134.577 -243.559)" fill="#fff" opacity="0.9"/>
            <path id="Trazado_896478" data-name="Trazado 896478" d="M159.8,263.7l-1.04.547.2-1.158-.841-.82,1.163-.169.52-1.053.52,1.053,1.163.169-.841.82.2,1.158Z" transform="translate(-137.093 -243.559)" fill="#fff" opacity="0.9"/>
          </g>
          <g id="Grupo_1104904" data-name="Grupo 1104904" transform="translate(39.855 95.862)">
            <rect id="Rectángulo_405726" data-name="Rectángulo 405726" width="5.333" height="10.093" transform="translate(0 12.963)" fill="#ffb937"/>
            <rect id="Rectángulo_405727" data-name="Rectángulo 405727" width="5.333" height="13.949" transform="translate(12.874 9.106)" fill="#ffb937"/>
            <rect id="Rectángulo_405728" data-name="Rectángulo 405728" width="5.333" height="21.033" transform="translate(25.748 2.022)" fill="#ffb937"/>
            <g id="Grupo_1104902" data-name="Grupo 1104902" transform="translate(6.437 5.564)">
              <rect id="Rectángulo_405729" data-name="Rectángulo 405729" width="5.333" height="15.891" transform="translate(0 1.6)" fill="#263238"/>
              <rect id="Rectángulo_405730" data-name="Rectángulo 405730" width="5.333" height="17.491" transform="translate(12.874)" fill="#263238"/>
              <rect id="Rectángulo_405731" data-name="Rectángulo 405731" width="5.333" height="17.077" transform="translate(25.748 0.414)" fill="#263238"/>
            </g>
            <g id="Grupo_1104903" data-name="Grupo 1104903" transform="translate(6.437 5.564)" opacity="0.6">
              <rect id="Rectángulo_405732" data-name="Rectángulo 405732" width="5.333" height="15.891" transform="translate(0 1.6)" fill="#fff"/>
              <rect id="Rectángulo_405733" data-name="Rectángulo 405733" width="5.333" height="17.491" transform="translate(12.874)" fill="#fff"/>
              <rect id="Rectángulo_405734" data-name="Rectángulo 405734" width="5.333" height="17.077" transform="translate(25.748 0.414)" fill="#fff"/>
            </g>
            <rect id="Rectángulo_405735" data-name="Rectángulo 405735" width="5.333" height="23.055" transform="translate(38.622)" fill="#ffb937"/>
          </g>
          <g id="Grupo_1104905" data-name="Grupo 1104905" transform="translate(91.136 95.862)">
            <path id="Trazado_896479" data-name="Trazado 896479" d="M302.766,255.3H258.811l2.977-10.093,6.127-5.8,6.437,8.916,6.437-10.517,6.437,6.974,6.437-6.561,6.437-5.978h2.667Z" transform="translate(-258.811 -232.241)" fill="#efb499"/>
            <path id="Trazado_896480" data-name="Trazado 896480" d="M302.766,255.3H258.811l2.977-6.739,6.127-4.96,6.437,4.725,6.437-5.486,6.437,1.944,6.437-1.53,6.437-2.625,2.667-8.384Z" transform="translate(-258.811 -232.241)" fill="#fff" opacity="0.8"/>
          </g>
          <g id="Grupo_1104906" data-name="Grupo 1104906" transform="translate(142.659 74.945)">
            <path id="Trazado_896481" data-name="Trazado 896481" d="M347.876,211.171h10.715a10.714,10.714,0,1,0-21.429,0h10.714Z" transform="translate(-337.162 -200.441)" fill="#407bff"/>
            <path id="Trazado_896482" data-name="Trazado 896482" d="M347.876,211.171h10.715a10.714,10.714,0,1,0-21.429,0h10.714Z" transform="translate(-337.162 -200.441)" fill="#fff" opacity="0.5"/>
            <path id="Trazado_896483" data-name="Trazado 896483" d="M355.453,203.594a10.715,10.715,0,0,0-18.291,7.577h10.714Z" transform="translate(-337.162 -200.441)" fill="#fff" opacity="0.7"/>
            <path id="Trazado_896484" data-name="Trazado 896484" d="M341.934,203.572l7.576,7.576V200.433A10.681,10.681,0,0,0,341.934,203.572Z" transform="translate(-338.796 -200.433)" opacity="0.2"/>
            <path id="Trazado_896485" data-name="Trazado 896485" d="M341.934,203.572l7.576,7.576V200.433A10.681,10.681,0,0,0,341.934,203.572Z" transform="translate(-338.796 -200.433)" fill="#407bff"/>
            <path id="Trazado_896486" data-name="Trazado 896486" d="M341.934,203.572l7.576,7.576V200.433A10.681,10.681,0,0,0,341.934,203.572Z" transform="translate(-338.796 -200.433)" fill="#fff" opacity="0.5"/>
            <path id="Trazado_896487" data-name="Trazado 896487" d="M358.781,208.533l-.769-.772-4.848,4.835a1.076,1.076,0,0,0-.292-.059,1.12,1.12,0,1,0,1.12,1.119,1.087,1.087,0,0,0-.059-.289Z" transform="translate(-342.158 -202.942)"/>
          </g>
          <g id="Grupo_1104907" data-name="Grupo 1104907" transform="translate(142.659 91.784)">
            <path id="Trazado_896488" data-name="Trazado 896488" d="M347.876,236.777h10.715a10.714,10.714,0,1,0-21.429,0h10.714Z" transform="translate(-337.162 -226.048)" fill="#407bff"/>
            <path id="Trazado_896489" data-name="Trazado 896489" d="M347.876,236.777h10.715a10.714,10.714,0,1,0-21.429,0h10.714Z" transform="translate(-337.162 -226.048)" fill="#fff" opacity="0.5"/>
            <path id="Trazado_896490" data-name="Trazado 896490" d="M355.453,229.2a10.715,10.715,0,0,0-18.291,7.577h10.714Z" transform="translate(-337.162 -226.048)" fill="#fff" opacity="0.7"/>
            <path id="Trazado_896491" data-name="Trazado 896491" d="M341.934,229.178l7.576,7.576V226.04A10.68,10.68,0,0,0,341.934,229.178Z" transform="translate(-338.796 -226.04)" fill="#407bff"/>
            <path id="Trazado_896492" data-name="Trazado 896492" d="M341.934,229.178l7.576,7.576V226.04A10.68,10.68,0,0,0,341.934,229.178Z" transform="translate(-338.796 -226.04)" fill="#fff" opacity="0.5"/>
            <path id="Trazado_896493" data-name="Trazado 896493" d="M353.417,237.634V231.4h-1.09v6.229a1.1,1.1,0,0,0-.575.958,1.12,1.12,0,0,0,2.239,0A1.1,1.1,0,0,0,353.417,237.634Z" transform="translate(-342.158 -227.877)"/>
          </g>
          <g id="Grupo_1104908" data-name="Grupo 1104908" transform="translate(142.659 108.622)">
            <path id="Trazado_896494" data-name="Trazado 896494" d="M347.876,262.383h10.715a10.714,10.714,0,1,0-21.429,0h10.714Z" transform="translate(-337.162 -251.654)" fill="#407bff"/>
            <path id="Trazado_896495" data-name="Trazado 896495" d="M347.876,262.383h10.715a10.714,10.714,0,1,0-21.429,0h10.714Z" transform="translate(-337.162 -251.654)" fill="#fff" opacity="0.5"/>
            <path id="Trazado_896496" data-name="Trazado 896496" d="M355.453,254.807a10.714,10.714,0,0,0-18.291,7.576h10.714Z" transform="translate(-337.162 -251.654)" fill="#ffce73" opacity="0.7"/>
            <path id="Trazado_896497" data-name="Trazado 896497" d="M341.934,254.784l7.576,7.577V251.646A10.683,10.683,0,0,0,341.934,254.784Z" transform="translate(-338.796 -251.646)" fill="#407bff"/>
            <path id="Trazado_896498" data-name="Trazado 896498" d="M341.934,254.784l7.576,7.577V251.646A10.683,10.683,0,0,0,341.934,254.784Z" transform="translate(-338.796 -251.646)" fill="#ffb937" opacity="0.5"/>
            <path id="Trazado_896499" data-name="Trazado 896499" d="M358.781,259.746l-.769-.772-4.848,4.835a1.075,1.075,0,0,0-.292-.059,1.12,1.12,0,1,0,1.12,1.12,1.082,1.082,0,0,0-.059-.289Z" transform="translate(-342.158 -254.155)"/>
          </g>
          <g id="Grupo_1104910" data-name="Grupo 1104910" transform="translate(158.969 10.782)">
            <path id="Trazado_896500" data-name="Trazado 896500" d="M370.939,102.86l-7.2.078a1.793,1.793,0,0,0-1.772,1.812l.065,6.024a1.793,1.793,0,0,0,1.806,1.773l2.083-.016.9,1.392a.759.759,0,0,0,1.29-.022l.856-1.429,2.071-.016a1.792,1.792,0,0,0,1.778-1.812l-.065-6.012A1.791,1.791,0,0,0,370.939,102.86Z" transform="translate(-361.966 -102.86)" fill="#6a4d23"/>
            <g id="Grupo_1104909" data-name="Grupo 1104909" transform="translate(1.897 3.87)">
              <path id="Trazado_896501" data-name="Trazado 896501" d="M366.39,109.751a.719.719,0,0,1,.292.257.7.7,0,0,1,.107.383.735.735,0,0,1-.117.412.768.768,0,0,1-.321.274,1.043,1.043,0,0,1-.45.1,1,1,0,0,1-.772-.3,1.224,1.224,0,0,1-.278-.861,1.443,1.443,0,0,1,.151-.684,1.021,1.021,0,0,1,.421-.433,1.28,1.28,0,0,1,.625-.148,1.506,1.506,0,0,1,.36.042.963.963,0,0,1,.293.119l-.2.4a.772.772,0,0,0-.44-.117.635.635,0,0,0-.472.174.73.73,0,0,0-.189.506.786.786,0,0,1,.581-.208A.915.915,0,0,1,366.39,109.751Zm-.236.923a.322.322,0,0,0,.108-.255.327.327,0,0,0-.108-.256.425.425,0,0,0-.291-.1.431.431,0,0,0-.292.1.34.34,0,0,0,0,.505.446.446,0,0,0,.3.1A.42.42,0,0,0,366.154,110.674Z" transform="translate(-364.851 -108.745)" fill="#fff"/>
              <path id="Trazado_896502" data-name="Trazado 896502" d="M368.585,111.029a.968.968,0,0,1-.356-.418,1.708,1.708,0,0,1,0-1.3.959.959,0,0,1,1.753,0,1.708,1.708,0,0,1,0,1.3.979.979,0,0,1-1.4.418Zm.858-.5a1.4,1.4,0,0,0,0-1.14.386.386,0,0,0-.337-.184.382.382,0,0,0-.333.184,1.39,1.39,0,0,0,0,1.14.381.381,0,0,0,.333.185A.385.385,0,0,0,369.442,110.529Z" transform="translate(-365.963 -108.745)" fill="#fff"/>
              <path id="Trazado_896503" data-name="Trazado 896503" d="M371.663,109.884a.762.762,0,0,1,0-.942.59.59,0,0,1,.84,0,.767.767,0,0,1,0,.942.588.588,0,0,1-.84,0Zm.6-.193a.627.627,0,0,0,0-.556.206.206,0,0,0-.18-.094.208.208,0,0,0-.178.1.6.6,0,0,0,0,.554.216.216,0,0,0,.357,0Zm1.218-.9h.4l-1.6,2.347h-.4Zm-.105,2.295a.534.534,0,0,1-.206-.226.83.83,0,0,1,0-.684.532.532,0,0,1,.206-.227.581.581,0,0,1,.3-.079.548.548,0,0,1,.421.177.766.766,0,0,1,0,.942.548.548,0,0,1-.421.176A.574.574,0,0,1,373.377,111.088Zm.479-.292a.614.614,0,0,0,0-.553.215.215,0,0,0-.356,0,.61.61,0,0,0,0,.556.215.215,0,0,0,.356,0Z" transform="translate(-367.128 -108.752)" fill="#fff"/>
            </g>
          </g>
          <g id="Grupo_1104912" data-name="Grupo 1104912" transform="translate(158.988 30.876)">
            <path id="Trazado_896504" data-name="Trazado 896504" d="M363.872,144.828l7.2-.078a1.791,1.791,0,0,0,1.772-1.811l-.065-6.024a1.792,1.792,0,0,0-1.805-1.773l-2.083.016-.9-1.393a.759.759,0,0,0-1.289.022l-.857,1.429-2.071.016a1.792,1.792,0,0,0-1.779,1.811l.065,6.012A1.793,1.793,0,0,0,363.872,144.828Z" transform="translate(-361.995 -133.417)" fill="#263238"/>
            <g id="Grupo_1104911" data-name="Grupo 1104911" transform="translate(1.852 5.806)">
              <path id="Trazado_896505" data-name="Trazado 896505" d="M366.446,143.387a.657.657,0,0,1,.236.53.737.737,0,0,1-.107.391.746.746,0,0,1-.327.281,1.247,1.247,0,0,1-.542.106,1.865,1.865,0,0,1-.489-.065,1.267,1.267,0,0,1-.406-.186l.214-.416a1.023,1.023,0,0,0,.308.156,1.183,1.183,0,0,0,.359.055.559.559,0,0,0,.322-.08.256.256,0,0,0,.118-.224.251.251,0,0,0-.123-.228.835.835,0,0,0-.424-.078h-.6l.12-1.321h1.432v.436h-.979l-.037.446h.192A1.129,1.129,0,0,1,366.446,143.387Z" transform="translate(-364.811 -142.267)" fill="#fff"/>
              <path id="Trazado_896506" data-name="Trazado 896506" d="M368.478,144.53a.973.973,0,0,1-.357-.418,1.715,1.715,0,0,1,0-1.3.967.967,0,0,1,.357-.417.959.959,0,0,1,1.4.417,1.707,1.707,0,0,1,0,1.3.979.979,0,0,1-1.4.418Zm.857-.5a1.4,1.4,0,0,0,0-1.14.384.384,0,0,0-.337-.184.38.38,0,0,0-.333.184,1.383,1.383,0,0,0,0,1.14.38.38,0,0,0,.333.184A.384.384,0,0,0,369.335,144.03Z" transform="translate(-365.9 -142.246)" fill="#fff"/>
              <path id="Trazado_896507" data-name="Trazado 896507" d="M371.556,143.385a.762.762,0,0,1,0-.942.588.588,0,0,1,.84,0,.767.767,0,0,1,0,.942.588.588,0,0,1-.84,0Zm.6-.193a.628.628,0,0,0,0-.557.216.216,0,0,0-.357,0,.6.6,0,0,0,0,.553.216.216,0,0,0,.357,0Zm1.219-.9h.4l-1.6,2.348h-.4Zm-.105,2.3a.534.534,0,0,1-.207-.226.832.832,0,0,1,0-.685.535.535,0,0,1,.207-.226.574.574,0,0,1,.3-.079.55.55,0,0,1,.421.176.767.767,0,0,1,0,.942.55.55,0,0,1-.421.176A.574.574,0,0,1,373.27,144.589Zm.479-.292a.614.614,0,0,0,0-.553.214.214,0,0,0-.356,0,.6.6,0,0,0,0,.556.214.214,0,0,0,.356,0Z" transform="translate(-367.065 -142.253)" fill="#fff"/>
            </g>
          </g>
          <g id="Grupo_1104915" data-name="Grupo 1104915" transform="translate(91.548 81.933)">
            <g id="Grupo_1104913" data-name="Grupo 1104913">
              <path id="Trazado_896508" data-name="Trazado 896508" d="M260.3,212.788a.865.865,0,1,1,0-1.729h26.75a.865.865,0,0,1,0,1.729Z" transform="translate(-259.438 -211.059)" fill="#263238"/>
              <path id="Trazado_896509" data-name="Trazado 896509" d="M260.3,222.27a.865.865,0,1,1,0-1.729h21.535a.865.865,0,0,1,0,1.729Z" transform="translate(-259.438 -214.306)" fill="#263238"/>
              <path id="Trazado_896510" data-name="Trazado 896510" d="M260.3,217.529a.865.865,0,1,1,0-1.729h19.335a.865.865,0,1,1,0,1.729Z" transform="translate(-259.438 -212.682)" fill="#263238"/>
            </g>
            <g id="Grupo_1104914" data-name="Grupo 1104914" opacity="0.5">
              <path id="Trazado_896511" data-name="Trazado 896511" d="M260.3,212.788a.865.865,0,1,1,0-1.729h26.75a.865.865,0,0,1,0,1.729Z" transform="translate(-259.438 -211.059)" fill="#fff"/>
              <path id="Trazado_896512" data-name="Trazado 896512" d="M260.3,222.27a.865.865,0,1,1,0-1.729h21.535a.865.865,0,0,1,0,1.729Z" transform="translate(-259.438 -214.306)" fill="#fff"/>
              <path id="Trazado_896513" data-name="Trazado 896513" d="M260.3,217.529a.865.865,0,1,1,0-1.729h19.335a.865.865,0,1,1,0,1.729Z" transform="translate(-259.438 -212.682)" fill="#fff"/>
            </g>
          </g>
          <g id="Grupo_1104918" data-name="Grupo 1104918" transform="translate(39.855 81.933)">
            <g id="Grupo_1104916" data-name="Grupo 1104916">
              <path id="Trazado_896514" data-name="Trazado 896514" d="M181.693,212.788a.865.865,0,1,1,0-1.729h26.749a.865.865,0,0,1,0,1.729Z" transform="translate(-180.828 -211.059)" fill="#263238"/>
              <path id="Trazado_896515" data-name="Trazado 896515" d="M181.693,222.27a.865.865,0,1,1,0-1.729H197.36a.865.865,0,1,1,0,1.729Z" transform="translate(-180.828 -214.306)" fill="#263238"/>
              <path id="Trazado_896516" data-name="Trazado 896516" d="M181.693,217.529a.865.865,0,1,1,0-1.729h22.689a.865.865,0,0,1,0,1.729Z" transform="translate(-180.828 -212.682)" fill="#263238"/>
            </g>
            <g id="Grupo_1104917" data-name="Grupo 1104917" opacity="0.5">
              <path id="Trazado_896517" data-name="Trazado 896517" d="M181.693,212.788a.865.865,0,1,1,0-1.729h26.749a.865.865,0,0,1,0,1.729Z" transform="translate(-180.828 -211.059)" fill="#fff"/>
              <path id="Trazado_896518" data-name="Trazado 896518" d="M181.693,222.27a.865.865,0,1,1,0-1.729H197.36a.865.865,0,1,1,0,1.729Z" transform="translate(-180.828 -214.306)" fill="#fff"/>
              <path id="Trazado_896519" data-name="Trazado 896519" d="M181.693,217.529a.865.865,0,1,1,0-1.729h22.689a.865.865,0,0,1,0,1.729Z" transform="translate(-180.828 -212.682)" fill="#fff"/>
            </g>
          </g>
        </g>
      </g>
      <g id="Character_2" data-name="Character 2" transform="translate(235.142 146.932)">
        <g id="Grupo_1104928" data-name="Grupo 1104928" transform="translate(0 0)">
          <g id="Grupo_1104926" data-name="Grupo 1104926" transform="translate(2.038 19.654)">
            <path id="Trazado_896520" data-name="Trazado 896520" d="M348.012,213.944H336.58a1.14,1.14,0,0,1-1.114-1.024L333.977,195.9a.923.923,0,0,1,.934-1.024h11.432a1.141,1.141,0,0,1,1.114,1.024l1.489,17.022A.923.923,0,0,1,348.012,213.944Z" transform="translate(-333.973 -194.874)" fill="#407bff"/>
            <path id="Trazado_896521" data-name="Trazado 896521" d="M349.012,213.944H337.58a1.14,1.14,0,0,1-1.114-1.024L334.977,195.9a.923.923,0,0,1,.934-1.024h11.432a1.141,1.141,0,0,1,1.114,1.024l1.489,17.022A.923.923,0,0,1,349.012,213.944Z" transform="translate(-334.315 -194.874)" fill="#407bff"/>
            <path id="Trazado_896522" data-name="Trazado 896522" d="M349.012,213.944H337.58a1.14,1.14,0,0,1-1.114-1.024L334.977,195.9a.923.923,0,0,1,.934-1.024h11.432a1.141,1.141,0,0,1,1.114,1.024l1.489,17.022A.923.923,0,0,1,349.012,213.944Z" transform="translate(-334.315 -194.874)" opacity="0.5"/>
            <path id="Trazado_896523" data-name="Trazado 896523" d="M347.745,195.874H336.312a.331.331,0,0,0-.334.366l1.489,17.022a.409.409,0,0,0,.4.366H349.3a.331.331,0,0,0,.335-.366l-1.489-17.022A.409.409,0,0,0,347.745,195.874Z" transform="translate(-334.659 -195.216)" fill="#fff" opacity="0.6"/>
            <path id="Trazado_896524" data-name="Trazado 896524" d="M350.483,213.573l-1.469-16.792L338.461,213.84a.4.4,0,0,0,.255.1h11.432A.331.331,0,0,0,350.483,213.573Z" transform="translate(-335.51 -195.527)" fill="#fff" opacity="0.3"/>
            <path id="Trazado_896525" data-name="Trazado 896525" d="M347.505,206.842h-5.921a.762.762,0,0,1-.744-.684l-.306-3.5a.617.617,0,0,1,.624-.684h5.921a.761.761,0,0,1,.743.684l.306,3.5A.616.616,0,0,1,347.505,206.842Z" transform="translate(-336.219 -197.307)" fill="#fff" opacity="0.9"/>
            <path id="Trazado_896526" data-name="Trazado 896526" d="M348.314,216.092h-5.921a.762.762,0,0,1-.744-.684l-.306-3.5a.617.617,0,0,1,.624-.684h5.921a.762.762,0,0,1,.744.684l.306,3.5A.617.617,0,0,1,348.314,216.092Z" transform="translate(-336.496 -200.474)" fill="#fff" opacity="0.9"/>
            <g id="Grupo_1104922" data-name="Grupo 1104922" transform="translate(5.239 5.66)">
              <g id="Grupo_1104920" data-name="Grupo 1104920">
                <path id="Trazado_896527" data-name="Trazado 896527" d="M342.167,203.9a.231.231,0,0,1-.226-.208.188.188,0,0,1,.19-.208h4.755a.232.232,0,0,1,.226.208.187.187,0,0,1-.19.208Z" transform="translate(-341.94 -203.481)" fill="#263238"/>
                <path id="Trazado_896528" data-name="Trazado 896528" d="M342.367,206.18a.231.231,0,0,1-.226-.208.188.188,0,0,1,.189-.208h3.948a.232.232,0,0,1,.226.208.187.187,0,0,1-.189.208Z" transform="translate(-342.008 -204.263)" fill="#263238"/>
                <path id="Trazado_896529" data-name="Trazado 896529" d="M342.267,205.039a.232.232,0,0,1-.226-.208.187.187,0,0,1,.189-.208h3.141a.231.231,0,0,1,.226.208.188.188,0,0,1-.19.208Z" transform="translate(-341.974 -203.872)" fill="#263238"/>
              </g>
              <g id="Grupo_1104921" data-name="Grupo 1104921" opacity="0.5">
                <path id="Trazado_896530" data-name="Trazado 896530" d="M342.167,203.9a.231.231,0,0,1-.226-.208.188.188,0,0,1,.19-.208h4.755a.232.232,0,0,1,.226.208.187.187,0,0,1-.19.208Z" transform="translate(-341.94 -203.481)" fill="#fff"/>
                <path id="Trazado_896531" data-name="Trazado 896531" d="M342.367,206.18a.231.231,0,0,1-.226-.208.188.188,0,0,1,.189-.208h3.948a.232.232,0,0,1,.226.208.187.187,0,0,1-.189.208Z" transform="translate(-342.008 -204.263)" fill="#fff"/>
                <path id="Trazado_896532" data-name="Trazado 896532" d="M342.267,205.039a.232.232,0,0,1-.226-.208.187.187,0,0,1,.189-.208h3.141a.231.231,0,0,1,.226.208.188.188,0,0,1-.19.208Z" transform="translate(-341.974 -203.872)" fill="#fff"/>
              </g>
            </g>
            <g id="Grupo_1104925" data-name="Grupo 1104925" transform="translate(5.779 11.831)">
              <g id="Grupo_1104923" data-name="Grupo 1104923">
                <path id="Trazado_896533" data-name="Trazado 896533" d="M342.988,213.281a.232.232,0,0,1-.226-.208.187.187,0,0,1,.19-.208h4.755a.231.231,0,0,1,.226.208.187.187,0,0,1-.189.208Z" transform="translate(-342.761 -212.865)" fill="#263238"/>
                <path id="Trazado_896534" data-name="Trazado 896534" d="M343.088,214.422a.231.231,0,0,1-.226-.208.187.187,0,0,1,.189-.208h3.141a.231.231,0,0,1,.226.208.188.188,0,0,1-.19.208Z" transform="translate(-342.795 -213.256)" fill="#263238"/>
              </g>
              <g id="Grupo_1104924" data-name="Grupo 1104924" opacity="0.5">
                <path id="Trazado_896535" data-name="Trazado 896535" d="M342.988,213.281a.232.232,0,0,1-.226-.208.187.187,0,0,1,.19-.208h4.755a.231.231,0,0,1,.226.208.187.187,0,0,1-.189.208Z" transform="translate(-342.761 -212.865)" fill="#fff"/>
                <path id="Trazado_896536" data-name="Trazado 896536" d="M343.088,214.422a.231.231,0,0,1-.226-.208.187.187,0,0,1,.189-.208h3.141a.231.231,0,0,1,.226.208.188.188,0,0,1-.19.208Z" transform="translate(-342.795 -213.256)" fill="#fff"/>
              </g>
            </g>
          </g>
          <path id="Trazado_896537" data-name="Trazado 896537" d="M370.377,178.815c.109-.38,0-.746-.253-.817s-.538.18-.646.56,0,.746.253.817S370.269,179.2,370.377,178.815Z" transform="translate(-344.078 -169.437)" fill="#263238"/>
          <path id="Trazado_896538" data-name="Trazado 896538" d="M368.6,180.124l-2.9,1.862a2.584,2.584,0,0,0,2.006,1.18Z" transform="translate(-342.796 -170.169)" fill="#de5753"/>
          <path id="Trazado_896539" data-name="Trazado 896539" d="M382.583,180.555c-1.948,4.6-2.675,6.591-5.9,8.165-4.5,1.176-10.085-1.031-9.547-6.123.481-4.581,3.58-11.316,8.856-11.587a6.819,6.819,0,0,1,6.592,9.544Z" transform="translate(-343.278 -167.046)" fill="#e4897b"/>
          <path id="Trazado_896540" data-name="Trazado 896540" d="M371.514,177.218a.242.242,0,0,1-.157-.153,1.826,1.826,0,0,0-1.13-1.232.232.232,0,0,1-.156-.284.237.237,0,0,1,.286-.161,2.3,2.3,0,0,1,1.445,1.537.226.226,0,0,1-.133.29l-.01,0A.2.2,0,0,1,371.514,177.218Z" transform="translate(-344.293 -168.545)" fill="#263238"/>
          <path id="Trazado_896541" data-name="Trazado 896541" d="M371.919,193.492s-3.345.68-4.666-2.241c.449,2.344,2.4,3.838,4.745,4.424l.806-.562-.435-1.19Z" transform="translate(-343.33 -173.979)" opacity="0.2"/>
          <path id="Trazado_896542" data-name="Trazado 896542" d="M379.052,201.844s-2.89-1.415-.807-6.925c0,0-2.307-2.289-4.706-1.318s-.385,6.047-3.209,6.829C370.33,200.43,371.8,202.471,379.052,201.844Z" transform="translate(-344.384 -174.702)" fill="#e4897b"/>
          <path id="Trazado_896543" data-name="Trazado 896543" d="M370.315,177.844a1.138,1.138,0,0,1-.7-.538.89.89,0,0,0,.6.719Z" transform="translate(-344.138 -169.205)" fill="#263238"/>
          <g id="Grupo_1104927" data-name="Grupo 1104927" transform="translate(24.569 23.731)">
            <path id="Trazado_896544" data-name="Trazado 896544" d="M368.236,203.3s1.726-2.688,6.37-2.154,3.729,3.341,3.729,3.341Z" transform="translate(-368.236 -201.074)" fill="#feebcf"/>
            <path id="Trazado_896545" data-name="Trazado 896545" d="M368.236,203.3s1.726-2.688,6.37-2.154,3.729,3.341,3.729,3.341Z" transform="translate(-368.236 -201.074)" fill="#feebcf" opacity="0.3"/>
          </g>
          <path id="Trazado_896546" data-name="Trazado 896546" d="M373.925,178.683a7.593,7.593,0,0,1,1.345-3.8c1.33-1.976.577-3.254.652-4.506s6.486-2.512,8.952,1.762c0,0,4.439,3.836,1.315,8.44s-4.384,8.118-8.165,7.539S376.391,181.286,373.925,178.683Z" transform="translate(-345.615 -166.423)" fill="#263238"/>
          <path id="Trazado_896547" data-name="Trazado 896547" d="M387.184,172.164a6.073,6.073,0,0,0-4.862-2.913c-.98,2.184,1.61,4.6,1.61,4.6s-3.8.938-3.2,4.053,5.035,1.476,5.035,1.476-2.793,2.707-.746,4.309a1.454,1.454,0,0,0,1.276.326c.656-1.023,1.36-2.177,2.2-3.415C391.623,176,387.184,172.164,387.184,172.164Z" transform="translate(-347.924 -166.446)" opacity="0.4"/>
          <path id="Trazado_896548" data-name="Trazado 896548" d="M388.541,173.033a5.564,5.564,0,0,0-.986-1.245,5.366,5.366,0,0,0-2.923,4.776,5.239,5.239,0,0,0,4.931,5.348c.1-.147.191-.291.293-.44C392.979,176.869,388.541,173.033,388.541,173.033Z" transform="translate(-349.281 -167.315)" fill="#407bff"/>
          <path id="Trazado_896549" data-name="Trazado 896549" d="M373.589,181.238a3.838,3.838,0,0,0-1.558,2.5c-.21,1.337,1.027,1.86,2.208,1.368,1.07-.445,2.455-1.678,2.126-2.965A1.738,1.738,0,0,0,373.589,181.238Z" transform="translate(-344.958 -170.424)" fill="#e4897b"/>
          <path id="Trazado_896550" data-name="Trazado 896550" d="M386.516,172.747s-3.408-3.79-.554-5.989c2.3-1.772,4.074,2.713,4.074,2.713s-.375-5.014,3.159-4.439c3.567.581,1.4,4.932,1.4,4.932s3.124-1.973,4.439.164-2.514,3.544-2.514,3.544,4.322,2.548,2.267,4.311-4.028-.343-4.028-.343,1.233,3.421-1.069,3.961c-2.084.489-2.713-2.676-2.713-2.676s-1.562,3.781-3.452,2.3.082-3.98.082-3.98-3.484,1.514-4.044-1.363S386.516,172.747,386.516,172.747Z" transform="translate(-348.894 -164.986)" fill="#263238"/>
          <path id="Trazado_896551" data-name="Trazado 896551" d="M388.818,222.767s6.254,13.44,3.241,14.658-12.2,3.288-12.2,3.288l-4.422,1.6-2.563-1.666.65-4.31L380,237.748l7.763-3.477-3.667-8.167Z" transform="translate(-345.255 -184.771)" fill="#e4897b"/>
          <path id="Trazado_896552" data-name="Trazado 896552" d="M390.95,211.725a.431.431,0,0,1,.714.121c1.434,3.319,8.173,19.263,6.292,21.585-1.4,1.726-8.164,2.63-8.164,2.63l-1.439-3.863,4.1-1.891-4.616-10.519A11.072,11.072,0,0,1,390.95,211.725Z" transform="translate(-350.372 -180.942)" fill="#ffe2b7"/>
          <path id="Trazado_896553" data-name="Trazado 896553" d="M387.84,219.862l2.461,5.609c2.039-12.125.649-13.673.649-13.673A11.072,11.072,0,0,0,387.84,219.862Z" transform="translate(-350.372 -181.015)" opacity="0.2"/>
          <path id="Trazado_896554" data-name="Trazado 896554" d="M389.307,386.206l3.526,11.988,3.579-.208-.758-13.014Z" transform="translate(-350.882 -240.311)" fill="#e4897b"/>
          <path id="Trazado_896555" data-name="Trazado 896555" d="M360.061,251.277s-4.351,8.747-.168,24.831,20.919,72.116,20.919,72.116l4.713-.566s.3-20.107-6.333-36.332c0,0-3.181-27.585-1.632-34.069a26.421,26.421,0,0,0-.127-15.188,47.648,47.648,0,0,0-3.02-8.541c-1.231-2.453-.867-3.4-.867-3.4Z" transform="translate(-340.188 -194.141)" fill="#263238"/>
          <path id="Trazado_896556" data-name="Trazado 896556" d="M392.341,397.893l4.713-.566s.011-.777-.02-2.135l-5.284.717Z" transform="translate(-351.718 -243.811)" opacity="0.5"/>
          <path id="Trazado_896557" data-name="Trazado 896557" d="M367.259,305.447c6.047-16.8,4.382-29,4.382-29l-3.781-.493-2.959,5.261-2.062,8.62C364.01,294.095,365.552,299.522,367.259,305.447Z" transform="translate(-341.819 -202.983)" opacity="0.4"/>
          <path id="Trazado_896558" data-name="Trazado 896558" d="M391.229,404.244l4.254-.594a.4.4,0,0,1,.423.262l2.029,3.888a.663.663,0,0,1-.4.848.653.653,0,0,1-.136.033c-1.774.184-3.36.277-5.565.547-2.6.315-1.9.546-4.956.96-1.839.247-2.43-1.806-1.662-2,3.521-.883,3.762-2.007,4.987-3.454A1.593,1.593,0,0,1,391.229,404.244Z" transform="translate(-349.37 -246.706)" fill="#263238"/>
          <path id="Trazado_896559" data-name="Trazado 896559" d="M391.073,397.548l6.532-.82-.1,1.947-5.762.712Z" transform="translate(-351.486 -244.336)" fill="#263238"/>
          <path id="Trazado_896560" data-name="Trazado 896560" d="M361.841,388.082l1.54,11.946H367l.932-11.727Z" transform="translate(-341.477 -241.376)" fill="#e4897b"/>
          <path id="Trazado_896561" data-name="Trazado 896561" d="M350.3,249.832a11.406,11.406,0,0,1-.876,3.133A42.491,42.491,0,0,0,346.7,274.4c1.919,16.508,10.749,74.315,10.749,74.315H362.2s3.255-19.644-.587-36.949c0,0-1.362-24.36.666-30.711,1.412-4.422,5.405-8.7,4.382-18.043s-3.5-12.54-3.5-12.54Z" transform="translate(-336.179 -194.038)" fill="#263238"/>
          <path id="Trazado_896562" data-name="Trazado 896562" d="M362.721,396.938l.327,2.148H367.8s.128-.779.3-2.148Z" transform="translate(-341.779 -244.408)" opacity="0.5"/>
          <path id="Trazado_896563" data-name="Trazado 896563" d="M360.166,405.679l4.232.089a.394.394,0,0,1,.379.314l.811,3.994a.655.655,0,0,1-.505.776.7.7,0,0,1-.138.014c-1.762-.063-3.327-.188-5.522-.225-2.59-.047-1.938.275-4.983.263-1.835-.01-2.133-2.1-1.353-2.189a8.66,8.66,0,0,0,6.011-2.7A1.573,1.573,0,0,1,360.166,405.679Z" transform="translate(-338.341 -247.4)" fill="#263238"/>
          <path id="Trazado_896564" data-name="Trazado 896564" d="M361.841,398.675h6.589l-.368,1.914h-5.811Z" transform="translate(-341.477 -245.003)" fill="#263238"/>
          <path id="Trazado_896565" data-name="Trazado 896565" d="M373.569,242.024c-6.743-9.288,5.014-29.921,3.637-33.78s-22.79-10.279-25.6.658-1.32,18.422-1.743,23.175c-.622,6.987-3.5,9.782-3.5,9.782S361.239,247.449,373.569,242.024Z" transform="translate(-336.177 -177.944)" fill="#ffe2b7"/>
          <path id="Trazado_896566" data-name="Trazado 896566" d="M351.922,220.642a75.806,75.806,0,0,0-.222,9.636c7.965-9.233,6.2-17.972,6.2-17.972l-.648.411-2.877,2.384S353.236,217.553,351.922,220.642Z" transform="translate(-337.986 -181.189)" opacity="0.2"/>
          <path id="Trazado_896567" data-name="Trazado 896567" d="M332.39,218.084s2.23,11.636,4.775,13.655,11.341-12.369,11.341-12.369l-4.347-2.6-6.029,8.106-3.56-8.344.706-4.452-1.16-2.728a.952.952,0,0,0-1.7.073l-1.315,2.912a2.58,2.58,0,0,0-.078,1.93Z" transform="translate(-330.874 -180.011)" fill="#e4897b"/>
          <path id="Trazado_896568" data-name="Trazado 896568" d="M339.372,222.942,337.29,217.9l-2.778,4.113s1.38,9.817,4.915,8.9c3.375-.873,11.007-12.355,12.659-16.784a11.852,11.852,0,0,0-.584-8.742s-2.7-.7-6.182,7.456C342.331,219.857,339.372,222.942,339.372,222.942Z" transform="translate(-332.12 -178.815)" fill="#ffe2b7"/>
        </g>
      </g>
      <g id="Character_1" data-name="Character 1" transform="translate(88.761 139.322)">
        <g id="Grupo_1104933" data-name="Grupo 1104933" transform="translate(0 0)">
          <path id="Trazado_896569" data-name="Trazado 896569" d="M119.01,197.992a1.563,1.563,0,0,0-2.367.452c-2.67,4.81-10.338,19.342-7.9,23.386,2.941,4.87,16.907,4.48,16.907,4.48l.674-4.132-8.962-4.638s2.762-5.509,3.6-7.383C122.261,207.276,124.186,202.362,119.01,197.992Z" transform="translate(-108.273 -168.554)" fill="#ffb937"/>
          <path id="Trazado_896570" data-name="Trazado 896570" d="M121.073,218.395s2.762-5.509,3.6-7.383c.934-2.081,2.2-5.223.875-8.455l-2.288-2.428-2.19.693s-4.44,21.4.014,25.794c1.525.239,3.031.379,4.333.457,1.565-.908,2.706-2.87,3.462-4.637Z" transform="translate(-111.982 -169.41)" opacity="0.4"/>
          <path id="Trazado_896571" data-name="Trazado 896571" d="M144.53,166.892c-.124-.434.006-.852.289-.932s.614.205.738.639-.006.851-.289.932S144.654,167.326,144.53,166.892Z" transform="translate(-120.672 -157.705)" fill="#263238"/>
          <path id="Trazado_896572" data-name="Trazado 896572" d="M145.421,168.386l3.313,2.124a2.95,2.95,0,0,1-2.288,1.346Z" transform="translate(-120.993 -158.541)" fill="#a24e3f"/>
          <path id="Trazado_896573" data-name="Trazado 896573" d="M121.65,168.877c2.223,5.246,3.053,7.519,6.732,9.315,5.129,1.341,11.5-1.176,10.891-6.985-.549-5.227-4.084-12.91-10.1-13.219a7.779,7.779,0,0,0-7.521,10.889Z" transform="translate(-112.63 -154.977)" fill="#b97964"/>
          <path id="Trazado_896574" data-name="Trazado 896574" d="M142.775,165.07a.276.276,0,0,0,.18-.174,2.084,2.084,0,0,1,1.288-1.405.264.264,0,0,0,.178-.324.271.271,0,0,0-.327-.183,2.618,2.618,0,0,0-1.647,1.754.257.257,0,0,0,.152.331l.012,0A.23.23,0,0,0,142.775,165.07Z" transform="translate(-119.969 -156.687)" fill="#263238"/>
          <path id="Trazado_896575" data-name="Trazado 896575" d="M140.057,183.636s3.815.776,5.323-2.557c-.512,2.674-2.736,4.379-5.413,5.047l-.919-.641.5-1.357Z" transform="translate(-118.811 -162.887)" opacity="0.2"/>
          <path id="Trazado_896576" data-name="Trazado 896576" d="M129.344,194.271s3.681-1.8,1.028-8.82c0,0,2.939-2.916,5.994-1.679s.491,7.7,4.087,8.7C140.453,192.47,138.575,195.069,129.344,194.271Z" transform="translate(-115.488 -163.704)" fill="#b97964"/>
          <g id="Grupo_1104929" data-name="Grupo 1104929" transform="translate(14.512 23.283)">
            <path id="Trazado_896577" data-name="Trazado 896577" d="M130.382,192.57s-.665-2.389,3.421-3.391,7.484.228,8.029,2.019S130.382,192.57,130.382,192.57Z" transform="translate(-130.342 -188.82)" fill="#263238"/>
            <path id="Trazado_896578" data-name="Trazado 896578" d="M130.382,192.57s-.665-2.389,3.421-3.391,7.484.228,8.029,2.019S130.382,192.57,130.382,192.57Z" transform="translate(-130.342 -188.82)" fill="#fff" opacity="0.2"/>
          </g>
          <path id="Trazado_896579" data-name="Trazado 896579" d="M134.424,166.025a1.481,1.481,0,0,0,0-2.346c-1.341-1.232-3.3-2.281-2.726-3.978s-2.05-2.872-2.05-2.872,2.571-1.677,1.062-3.018c-1.553-1.38-2.192,1.174-5.813,2.6-4.17,1.648-8.833,5.613-5.981,10.811s5.366,9.559,8.776,8.72,5.031-7.435,5.031-7.435Z" transform="translate(-111.617 -153.414)" fill="#263238"/>
          <path id="Trazado_896580" data-name="Trazado 896580" d="M139.852,169.656a4.378,4.378,0,0,1,1.777,2.85c.241,1.526-1.171,2.123-2.518,1.561-1.221-.508-2.8-1.914-2.426-3.383A1.983,1.983,0,0,1,139.852,169.656Z" transform="translate(-117.983 -158.831)" fill="#b97964"/>
          <path id="Trazado_896581" data-name="Trazado 896581" d="M153.731,392.206l1.294,8.771,5.277-.193.4-9.078Z" transform="translate(-123.838 -235.007)" fill="#b97964"/>
          <path id="Trazado_896582" data-name="Trazado 896582" d="M159.8,404.558l-5.2.11a.486.486,0,0,0-.466.387l-1,4.908a.8.8,0,0,0,.621.953.819.819,0,0,0,.17.018c2.165-.078,4.09-.231,6.786-.277,3.183-.057,2.382.338,6.124.324,2.255-.012,2.621-2.582,1.663-2.69-4.385-.471-5.672-1.783-7.388-3.319A1.937,1.937,0,0,0,159.8,404.558Z" transform="translate(-123.63 -239.407)" fill="#263238"/>
          <path id="Trazado_896583" data-name="Trazado 896583" d="M114.434,392.206l-.342,7.773,5.478.717,1.831-8.991Z" transform="translate(-110.266 -235.007)" fill="#b97964"/>
          <path id="Trazado_896584" data-name="Trazado 896584" d="M118.228,403.068l-5.192-.326a.484.484,0,0,0-.5.347l-1.4,4.807a.8.8,0,0,0,.539,1,.761.761,0,0,0,.168.031c2.164.1,4.094.112,6.785.293,3.176.21,2.346.537,6.076.835,2.248.178,2.828-2.353,1.882-2.542-4.33-.836-5.5-2.252-7.084-3.926A1.94,1.94,0,0,0,118.228,403.068Z" transform="translate(-109.242 -238.786)" fill="#263238"/>
          <path id="Trazado_896585" data-name="Trazado 896585" d="M132.558,234.972l3.225.775,5.459-1.38.882,2.41.678,3.38-4.342.742-3.568-2.15-4.551-.092Z" transform="translate(-115.83 -181.133)" fill="#b97964"/>
          <path id="Trazado_896586" data-name="Trazado 896586" d="M121.976,196.973l2.664,37.439,28.621.224s3.492-10.34-.823-24.987l-4.216-14.129a3.5,3.5,0,0,0-2.511-2.4c-4.243-1.047-14.56-2.3-22.611,1.859A2.083,2.083,0,0,0,121.976,196.973Z" transform="translate(-112.964 -166.657)" fill="#ffb937"/>
          <path id="Trazado_896587" data-name="Trazado 896587" d="M120.988,256.191a75.271,75.271,0,0,0-2,16.093c.008,1.228.071,2.241.157,3.059a44.562,44.562,0,0,1,.195,7.41l-.039.636c-.441,7.126-.518,14.407-.506,19.208v.1a29.348,29.348,0,0,1-1.463,9.25q-.228.7-.441,1.424c-4.044,13.869-3.7,36.006-3.7,36.006l7.847.442,21.593-94.987H122.591A1.668,1.668,0,0,0,120.988,256.191Z" transform="translate(-109.954 -188.141)" fill="#7d3a1b"/>
          <path id="Trazado_896588" data-name="Trazado 896588" d="M140.628,277.412l-2.687-.619-1.66-2.011a123.181,123.181,0,0,0,4.528,29.688l4.249-18.689Z" transform="translate(-117.863 -194.971)" opacity="0.2"/>
          <g id="Grupo_1104930" data-name="Grupo 1104930" transform="translate(2.542 159.712)">
            <path id="Trazado_896589" data-name="Trazado 896589" d="M112.139,396.288l.116,2.311,8.93.366.4-2.345Z" transform="translate(-112.139 -396.288)" fill="#407bff"/>
          </g>
          <path id="Trazado_896590" data-name="Trazado 896590" d="M112.139,396.288l.116,2.311,8.93.366.4-2.345Z" transform="translate(-109.597 -236.576)" fill="#4e320a" opacity="0.3"/>
          <path id="Trazado_896591" data-name="Trazado 896591" d="M136.537,254.834c-1.831,10.98-.7,17.239.515,20.512q.179.48.357.876a22.43,22.43,0,0,1,1.8,6.253c.014.1.027.205.041.308a194.547,194.547,0,0,0,4.6,22.4l.019.072a17.081,17.081,0,0,1,.433,6.678c-.1.729-.178,1.511-.234,2.337-.864,12.784,3.338,36.087,3.338,36.087l7.68-.708,3.358-93.71a1.044,1.044,0,0,0-1.012-1.109Z" transform="translate(-117.621 -188.141)" fill="#7d3a1b"/>
          <g id="Grupo_1104931" data-name="Grupo 1104931" transform="translate(28.789 160.17)">
            <path id="Trazado_896592" data-name="Trazado 896592" d="M152.053,397.857l.656,2.256,8.63-.749.126-2.379Z" transform="translate(-152.053 -396.984)" fill="#4e320a"/>
            <path id="Trazado_896593" data-name="Trazado 896593" d="M152.053,397.857l.656,2.256,8.63-.749.126-2.379Z" transform="translate(-152.053 -396.984)" fill="#4e320a" opacity="0.3"/>
          </g>
          <g id="Grupo_1104932" data-name="Grupo 1104932" transform="translate(11.282 68.287)" opacity="0.7">
            <rect id="Rectángulo_405736" data-name="Rectángulo 405736" width="14.499" height="2.012" transform="translate(7.789)" fill="#fff"/>
            <path id="Trazado_896594" data-name="Trazado 896594" d="M131.3,257.258h-5.569l-.3,2.012H131.3Z" transform="translate(-125.429 -257.258)" fill="#fff"/>
            <rect id="Rectángulo_405737" data-name="Rectángulo 405737" width="4.418" height="2.012" transform="translate(24.245)" fill="#fff"/>
          </g>
          <path id="Trazado_896595" data-name="Trazado 896595" d="M164.762,212.883l-2.277-7.629-1.557-2.172-2.012-1.547-.952,2.348a18.989,18.989,0,0,0,7.737,12.655C165.439,215.352,165.13,214.134,164.762,212.883Z" transform="translate(-125.288 -169.891)" opacity="0.4"/>
          <path id="Trazado_896596" data-name="Trazado 896596" d="M189.063,193.726l1.386-3.014-.247-4.688a2.331,2.331,0,0,1,.563-1.643l.8-.928a2.327,2.327,0,0,1,3.532.012l.459.537a2.332,2.332,0,0,1,.556,1.57l-.068,2.647a2.329,2.329,0,0,1-.6,1.5l-2.219,2.443-.973,4.447Z" transform="translate(-135.936 -163.424)" fill="#b97964"/>
          <path id="Trazado_896597" data-name="Trazado 896597" d="M160.268,194.606l13.5,10.871,4.72-9.133,4.052,1.7s-2.886,16.216-6.579,16.475-12.934-4.115-16.738-9.314c-2.766-3.78-1.51-8.107-.618-10.188A1.071,1.071,0,0,1,160.268,194.606Z" transform="translate(-125.141 -167.437)" fill="#ffb937"/>
        </g>
      </g>
    </g>
  </g>
</svg>
