<svg xmlns="http://www.w3.org/2000/svg" xmlns:xlink="http://www.w3.org/1999/xlink" width="131" height="131" viewBox="0 0 131 131">
  <defs>
    <clipPath id="clip-path">
      <rect id="Rectángulo_402355" data-name="Rectángulo 402355" width="87" height="87" transform="translate(342 951.244)" fill="#fff" stroke="#707070" stroke-width="1"/>
    </clipPath>
  </defs>
  <g id="Grupo_1100287" data-name="Grupo 1100287" transform="translate(-345 -7528)">
    <g id="Grupo_156312" data-name="Grupo 156312" transform="translate(344 7528)">
      <path id="Elipse_5845" data-name="Elipse 5845" d="M65.5,0A65.5,65.5,0,1,1,0,65.5,65.5,65.5,0,0,1,65.5,0Z" transform="translate(1 0)" fill="#ffce73"/>
    </g>
    <g id="Enmascarar_grupo_1098715" data-name="Enmascarar grupo 1098715" transform="translate(24 6599)" clip-path="url(#clip-path)">
      <g id="Grupo_1119618" data-name="Grupo 1119618" transform="translate(-2096.804 -829.703)">
        <path id="Trazado_906226" data-name="Trazado 906226" d="M2467.686,1834.761c-3.319,3.886-6.674,7.815-10.029,11.744-1.3,1.526-2.584,3.071-3.907,4.579a6.54,6.54,0,0,1-9.808.05c-2.927-2.965-2.841-7.171.217-9.791q7.77-6.657,15.552-13.3c.235-.2.457-.416.419-.381-.738-2.843-1.795-5.452-2.042-8.135-.776-8.406,2.761-14.762,9.944-19.088a1.851,1.851,0,0,0,1.076-1.879c-.053-2.184-.021-4.37-.016-6.555,0-1.755.278-2.037,1.991-2.038,11.551,0,23.1.01,34.652-.021a3.177,3.177,0,0,1,2.455,1.062q6.586,6.654,13.246,13.236a3.321,3.321,0,0,1,1.071,2.587q-.042,21.072-.019,42.144c0,2.721.009,5.441,0,8.161-.007,1.478-.333,1.805-1.813,1.806q-24.885.007-49.771,0c-1.455,0-1.806-.351-1.808-1.818-.008-6.823-.022-13.647.015-20.47C2469.11,1835.63,2468.917,1834.919,2467.686,1834.761Zm52.662-27.995h-1.56q-5.483,0-10.966,0c-1.9,0-2.112-.216-2.114-2.171q0-3.544,0-7.087v-5.359h-34.445v6.674c9.232-2.289,16.985-.138,22.474,7.7,4.522,6.458,4.927,13.622,1.01,20.456-5.24,9.143-13.451,11.814-23.512,9.393v20.394h49.113Zm-42.725,28.459a17.652,17.652,0,1,0-17.688-17.517A17.684,17.684,0,0,0,2477.623,1835.226Zm-21.364-1.572q-5.564,4.75-11.087,9.465a3.716,3.716,0,0,0-1.274,3.479,5.047,5.047,0,0,0,3.318,4.322c1.573.627,3.264.72,4.474-.635,3.345-3.748,6.575-7.6,9.8-11.349Zm62.092-29.019-10.447-10.562v10.562Zm-60.257,27.453,4.888,5.059,2.718-3.174-4.521-4.5Z" transform="translate(0)" fill="#7d3a1b"/>
        <path id="Trazado_906227" data-name="Trazado 906227" d="M2594.181,2013.236h-16.969a2.576,2.576,0,0,1-1.055-.033,6.051,6.051,0,0,1-1.108-.916,8.151,8.151,0,0,1,1.143-1.041c.225-.142.608-.035.92-.035h34.2c.178,0,.393-.064.528.013.519.3,1.386.583,1.441.971.133.929-.7,1.046-1.468,1.045Q2603,2013.229,2594.181,2013.236Z" transform="translate(-97.59 -162.027)" fill="#7d3a1b"/>
        <path id="Trazado_906228" data-name="Trazado 906228" d="M2611.854,1982.97q7.216,0,14.433,0a2.509,2.509,0,0,1,1.173.114,1.5,1.5,0,0,1,.707.979c.025.27-.372.71-.681.846a3.348,3.348,0,0,1-1.307.131q-14.433.008-28.866,0c-.312,0-.693.1-.92-.04a6.909,6.909,0,0,1-1.057-.989,5.632,5.632,0,0,1,1.033-1c.269-.156.7-.045,1.052-.045Z" transform="translate(-112.448 -141.344)" fill="#7d3a1b"/>
        <path id="Trazado_906229" data-name="Trazado 906229" d="M2649.612,1954.92c2.939,0,5.878.007,8.817,0,.806,0,1.663.043,1.638,1.072-.022.91-.829,1.017-1.591,1.016q-9.017-.005-18.034,0c-.771,0-1.572-.144-1.577-1.036-.006-1.009.856-1.056,1.663-1.053C2643.556,1954.928,2646.584,1954.92,2649.612,1954.92Z" transform="translate(-144.329 -120.823)" fill="#7d3a1b"/>
        <path id="Trazado_906230" data-name="Trazado 906230" d="M2665.119,1926.813c2.223,0,4.447.012,6.67-.007.735-.006,1.449.125,1.477.963.031.941-.744,1.081-1.512,1.081h-13.339c-.755,0-1.558-.1-1.539-1.049s.816-1,1.574-.993C2660.673,1926.822,2662.9,1926.813,2665.119,1926.813Z" transform="translate(-157.52 -100.237)" fill="#7d3a1b"/>
        <path id="Trazado_906231" data-name="Trazado 906231" d="M2669.4,1872.552c-2.045,0-4.091-.009-6.136,0-.744,0-1.478-.179-1.352-1.02a1.672,1.672,0,0,1,1.295-.922q6.2-.107,12.4,0c.458.008,1.241.558,1.291.933.109.828-.617,1.017-1.366,1.01C2673.5,1872.54,2671.45,1872.552,2669.4,1872.552Z" transform="translate(-161.202 -59.042)" fill="#7d3a1b"/>
        <path id="Trazado_906232" data-name="Trazado 906232" d="M2670.8,1898.715c2,0,4.011-.058,6.01.042.48.024,1.264.511,1.331.889.148.829-.569,1.059-1.322,1.058q-5.945-.01-11.891,0c-.731,0-1.492-.162-1.3-1.047a1.7,1.7,0,0,1,1.3-.9C2666.877,1898.657,2668.839,1898.715,2670.8,1898.715Z" transform="translate(-162.441 -79.65)" fill="#7d3a1b"/>
        <path id="Trazado_906233" data-name="Trazado 906233" d="M2622.88,1816.166c-1.648,0-3.3.069-4.942-.043a1.712,1.712,0,0,1-1.294-.917c-.2-.884.568-1.068,1.293-1.069q5.012-.009,10.023,0c.748,0,1.472.252,1.322,1.076-.07.386-.845.881-1.327.913C2626.271,1816.235,2624.574,1816.166,2622.88,1816.166Z" transform="translate(-128.032 -17.714)" fill="#7d3a1b"/>
        <path id="Trazado_906234" data-name="Trazado 906234" d="M2650.383,1844.311c-.782-.166-2.109.422-2.076-1.061.03-1.334,1.268-.938,2.071-.948.859-.011,2.159-.343,2.131,1.041C2652.483,1844.61,2651.238,1844.217,2650.383,1844.311Z" transform="translate(-151.244 -38.31)" fill="#7d3a1b"/>
        <path id="Trazado_906235" data-name="Trazado 906235" d="M2532.922,1866.2a15.519,15.519,0,1,1,15.622-15.357A15.492,15.492,0,0,1,2532.922,1866.2Zm-13.373-15.454a13.47,13.47,0,1,0,13.335-13.51A13.52,13.52,0,0,0,2519.55,1850.747Z" transform="translate(-55.463 -33.117)" fill="#7d3a1b"/>
        <path id="Trazado_906236" data-name="Trazado 906236" d="M2544.707,1870.9a14.256,14.256,0,0,1,10.63,4.822,1.476,1.476,0,0,1,.015,2.306,14.335,14.335,0,0,1-21.4.019,1.49,1.49,0,0,1-.01-2.316A14.25,14.25,0,0,1,2544.707,1870.9Zm-.02,9.893a3.926,3.926,0,0,0,3.83-3.985,3.838,3.838,0,0,0-3.981-3.8,3.89,3.89,0,0,0-3.79,3.882A3.964,3.964,0,0,0,2544.687,1880.789Zm-5.716-1.227v-5.375l-3.54,2.719Zm14.935-2.718-3.586-2.574v5.3Z" transform="translate(-67.08 -59.288)" fill="#7d3a1b"/>
        <path id="Trazado_906237" data-name="Trazado 906237" d="M2554.357,1860.549q-3.141,0-6.281,0c-.761,0-1.515-.066-1.48-1.075.034-.946.8-.93,1.477-.931q6.281-.008,12.561,0c.715,0,1.521.13,1.387.987-.063.4-.885.948-1.386.974C2558.547,1860.612,2556.45,1860.549,2554.357,1860.549Z" transform="translate(-76.75 -50.239)" fill="#7d3a1b"/>
        <path id="Trazado_906238" data-name="Trazado 906238" d="M2554.367,1920.5c2.049,0,4.1,0,6.145,0,.738,0,1.571.036,1.547,1.02-.023.958-.831.985-1.583.983q-6.212-.011-12.424,0c-.708,0-1.425-.039-1.463-.954-.043-1.045.774-1.039,1.5-1.044C2550.181,1920.49,2552.274,1920.5,2554.367,1920.5Z" transform="translate(-76.745 -95.614)" fill="#7d3a1b"/>
      </g>
    </g>
  </g>
</svg>
