<svg xmlns="http://www.w3.org/2000/svg" xmlns:xlink="http://www.w3.org/1999/xlink" width="129" height="128" viewBox="0 0 129 128">
  <defs>
    <clipPath id="clip-path">
      <rect id="Rectángulo_400938" data-name="Rectángulo 400938" width="120" height="120" fill="none"/>
    </clipPath>
    <clipPath id="clip-path-2">
      <rect id="Rectángulo_400938-2" data-name="Rectángulo 400938" width="113" height="113" transform="translate(0.211 0.211)" fill="none"/>
    </clipPath>
    <clipPath id="clip-path-3">
      <rect id="Rectángulo_401073" data-name="Rectángulo 401073" width="86.443" height="38.93" fill="#7d3a1b"/>
    </clipPath>
  </defs>
  <g id="Grupo_1104657" data-name="Grupo 1104657" transform="translate(-376 -7590.678)">
    <g id="Grupo_108927" data-name="Grupo 108927" transform="translate(-14 3123.678)">
      <path id="Rectángulo_36179" data-name="Rectángulo 36179" d="M0,0H129V128H0Z" transform="translate(390 4467)" fill="#feebcf"/>
    </g>
    <g id="Grupo_1104490" data-name="Grupo 1104490" transform="translate(118.789 2314.467)">
      <g id="Grupo_1099379" data-name="Grupo 1099379" transform="translate(265 5284)">
        <rect id="Rectángulo_401103" data-name="Rectángulo 401103" width="113" height="113" transform="translate(0.211 0.211)" fill="none"/>
        <g id="Grupo_1099348" data-name="Grupo 1099348">
          <g id="Grupo_1099282" data-name="Grupo 1099282">
            <g id="Grupo_1099281" data-name="Grupo 1099281" clip-path="url(#clip-path-3)">
              <path id="Trazado_873375" data-name="Trazado 873375" d="M70.12,8.532c-3.88,0-5.887-1.9-7.658-3.581C60.723,3.3,59.226,1.882,56.1,1.882S51.467,3.3,49.728,4.95c-1.771,1.679-3.775,3.581-7.658,3.581s-5.886-1.9-7.658-3.581C32.674,3.3,31.177,1.882,28.046,1.882S23.418,3.3,21.682,4.95C19.911,6.629,17.9,8.532,14.024,8.532S8.135,6.629,6.364,4.95C4.628,3.3,3.131,1.882,0,1.882V0C3.88,0,5.887,1.906,7.658,3.581,9.4,5.23,10.893,6.65,14.024,6.65s4.628-1.419,6.364-3.066C22.157,1.906,24.166,0,28.046,0s5.89,1.906,7.658,3.581C37.442,5.23,38.939,6.65,42.07,6.65S46.7,5.23,48.437,3.581C50.205,1.906,52.215,0,56.1,0s5.89,1.906,7.658,3.581C65.491,5.23,66.988,6.65,70.12,6.65s4.628-1.419,6.367-3.069C78.255,1.906,80.261,0,84.144,0V1.882c-3.131,0-4.628,1.422-6.367,3.069C76.006,6.629,74,8.532,70.12,8.532" transform="translate(2.299 30.399)" fill="#7d3a1b"/>
              <path id="Trazado_873376" data-name="Trazado 873376" d="M70.12,8.532c-3.88,0-5.889-1.9-7.658-3.584C60.723,3.3,59.226,1.882,56.1,1.882S51.467,3.3,49.728,4.947c-1.768,1.682-3.775,3.584-7.658,3.584s-5.889-1.9-7.658-3.584C32.674,3.3,31.177,1.882,28.046,1.882S23.418,3.3,21.682,4.947C19.911,6.629,17.9,8.532,14.025,8.532s-5.889-1.9-7.661-3.584C4.628,3.3,3.131,1.882,0,1.882V0C3.88,0,5.889,1.9,7.658,3.581,9.4,5.23,10.893,6.65,14.025,6.65s4.628-1.419,6.364-3.069C22.157,1.9,24.166,0,28.046,0s5.889,1.9,7.661,3.581C37.442,5.23,38.939,6.65,42.071,6.65S46.7,5.23,48.437,3.581C50.206,1.9,52.215,0,56.1,0s5.89,1.9,7.658,3.581C65.491,5.23,66.988,6.65,70.12,6.65s4.628-1.419,6.367-3.069C78.257,1.9,80.264,0,84.147,0V1.882c-3.131,0-4.631,1.422-6.37,3.066C76.006,6.629,74,8.532,70.12,8.532" transform="translate(1.533 20.266)" fill="#7d3a1b"/>
              <path id="Trazado_873377" data-name="Trazado 873377" d="M70.119,8.532c-3.88,0-5.889-1.9-7.658-3.584C60.723,3.3,59.226,1.882,56.1,1.882S51.467,3.3,49.728,4.947C47.96,6.629,45.95,8.532,42.071,8.532s-5.89-1.9-7.658-3.584C32.674,3.3,31.177,1.882,28.046,1.882S23.418,3.3,21.682,4.947C19.911,6.629,17.9,8.532,14.025,8.532s-5.89-1.9-7.661-3.584C4.628,3.3,3.131,1.882,0,1.882V0C3.88,0,5.889,1.9,7.658,3.581,9.393,5.23,10.893,6.65,14.025,6.65s4.628-1.419,6.364-3.069C22.156,1.9,24.166,0,28.046,0s5.89,1.9,7.661,3.581C37.442,5.23,38.939,6.65,42.071,6.65S46.7,5.23,48.437,3.581C50.205,1.9,52.215,0,56.1,0s5.889,1.9,7.658,3.581C65.491,5.23,66.988,6.65,70.119,6.65s4.628-1.419,6.367-3.069C78.257,1.9,80.261,0,84.147,0V1.882c-3.131,0-4.631,1.422-6.37,3.066C76.006,6.629,74,8.532,70.119,8.532" transform="translate(0.766 10.133)" fill="#7d3a1b"/>
              <path id="Trazado_873378" data-name="Trazado 873378" d="M70.12,8.529c-3.88,0-5.887-1.9-7.658-3.581C60.723,3.3,59.226,1.882,56.095,1.882S51.467,3.3,49.731,4.947C47.96,6.626,45.953,8.529,42.07,8.529s-5.887-1.9-7.658-3.581C32.674,3.3,31.177,1.882,28.046,1.882S23.418,3.3,21.682,4.944C19.914,6.626,17.9,8.529,14.024,8.529s-5.89-1.9-7.661-3.581C4.628,3.3,3.131,1.882,0,1.882V0C3.88,0,5.89,1.9,7.658,3.581,9.4,5.228,10.893,6.647,14.024,6.647s4.628-1.419,6.364-3.066C22.159,1.9,24.166,0,28.046,0s5.887,1.9,7.661,3.581c1.736,1.646,3.233,3.066,6.364,3.066S46.7,5.228,48.437,3.581C50.208,1.9,52.215,0,56.095,0s5.887,1.9,7.658,3.581c1.739,1.646,3.236,3.066,6.367,3.066s4.628-1.419,6.367-3.066C78.257,1.9,80.264,0,84.147,0V1.882c-3.134,0-4.631,1.419-6.37,3.066C76.006,6.626,74,8.529,70.12,8.529" transform="translate(0 0.003)" fill="#7d3a1b"/>
            </g>
          </g>
        </g>
        <path id="Trazado_873425" data-name="Trazado 873425" d="M47.337,0A47.337,47.337,0,1,1,0,47.337,47.337,47.337,0,0,1,47.337,0Z" transform="translate(14.061 16.873)" fill="#7d3a1b"/>
        <circle id="Elipse_11503" data-name="Elipse 11503" cx="49.5" cy="49.5" r="49.5" transform="translate(7.211 7.211)" fill="#fff"/>
      </g>
      <g id="Grupo_1099977" data-name="Grupo 1099977" transform="translate(289.438 5308.697)">
        <path id="Trazado_873216" data-name="Trazado 873216" d="M0,0H62.506V62.507H0Z" transform="translate(0 0)" fill="none"/>
        <g id="Grupo_1119626" data-name="Grupo 1119626" transform="translate(-3220.511 -2417.388)">
          <path id="Trazado_906271" data-name="Trazado 906271" d="M3290.622,2445.905a3.327,3.327,0,0,1-2.292-2.49,3.148,3.148,0,0,1,2.879-3.715,2.787,2.787,0,0,0,1.244-.36,6.99,6.99,0,0,1,7.75-.36c.144.078.292.148.522.264.033-.568.06-1.036.09-1.563h2l.06,1.216c1.5-.293,2.983-.67,4.492-.843a4.786,4.786,0,0,1,2.115.41,18.978,18.978,0,0,0,3.9,1.524,2.564,2.564,0,0,1,1.942,2.453,2.985,2.985,0,0,1-1.262,2.906,11.109,11.109,0,0,1-1.021.6q.887,1.489,1.778,2.985a4.384,4.384,0,0,1-.4,4.856,4.166,4.166,0,0,1-4.5,1.342,4.224,4.224,0,0,1-2.9-3.811,4.077,4.077,0,0,1,.675-2.649c.743-1.118,1.4-2.3,2.077-3.434a4.624,4.624,0,0,0-5.386-.193,1.028,1.028,0,0,0-.36.758c.244,2.794.529,5.584.8,8.4.342.08.644.136.938.22a3.1,3.1,0,0,1,2.279,3.308,3.043,3.043,0,0,1-2.884,2.789c-2.219.066-4.442.062-6.661,0a3.054,3.054,0,0,1-2.92-2.753,3.111,3.111,0,0,1,2.337-3.367c.265-.073.538-.116.874-.188.279-2.823.57-5.646.815-8.472a1.021,1.021,0,0,0-.419-.73,4.7,4.7,0,0,0-5.34.2c.748,1.256,1.507,2.524,2.26,3.8a4.389,4.389,0,0,1-.426,4.769,4.171,4.171,0,0,1-7.394-2.222,4,4,0,0,1,.641-2.862C3289.537,2447.844,3290.016,2446.916,3290.622,2445.905Zm21.59-1.814c.367-.423.909-.774,1-1.219.139-.677-.4-1.109-1.085-1.066a3.33,3.33,0,0,1-2.349-.844,4.759,4.759,0,0,0-5.716.123,3.733,3.733,0,0,1-4.458.028,4.723,4.723,0,0,0-5.54-.288,4.369,4.369,0,0,1-2.723,1.029c-.312-.01-.9.641-.9.983s.534.818.936.978c.285.114.793-.121,1.11-.336a6.955,6.955,0,0,1,8.173-.014,1.755,1.755,0,0,0,2.268.024,6.933,6.933,0,0,1,8.17-.029C3311.375,2443.648,3311.68,2443.791,3312.212,2444.092Zm-10.394,14.363h2.911c.676,0,1.195-.281,1.22-.992.027-.773-.5-1.088-1.223-1.089q-2.911,0-5.823,0c-.676,0-1.194.279-1.219.991-.028.774.5,1.087,1.223,1.09C3299.878,2458.458,3300.848,2458.455,3301.819,2458.454Zm.926-4.167c-.282-2.8-.548-5.437-.815-8.075l-.234.008c-.262,2.648-.524,5.3-.792,8.013.339.025.54.048.74.052C3301.948,2454.293,3302.252,2454.288,3302.745,2454.288Zm-12.3-3.072a2,2,0,0,0,1.927,2.023,2.037,2.037,0,0,0,2.088-2.023Zm22.754-.006h-4.015a2.008,2.008,0,1,0,4.015,0Zm-20.764-4.265-1.2,2.092h2.437Zm17.527,2.075h2.478l-1.254-2.025Z" transform="translate(-55.398 -16.066)" fill="#7d3a1b"/>
          <path id="Trazado_906272" data-name="Trazado 906272" d="M3260.407,2467.366h-2.082v-1.1q0-21.562,0-43.126c0-3.641,2.108-5.746,5.754-5.747q19.792,0,39.584,0c3.575,0,5.694,2.123,5.7,5.692,0,.451.02.9-.016,1.354a3.644,3.644,0,0,1-3.287,3.349c-.241.024-.486.018-.728.018-1.385,0-2.769,0-4.227,0v-2.039l1.17-.083c-.088-.646-.171-1.25-.265-1.937l-.937-.2v-1.923c.29-.024.556-.062.822-.065,2.186-.024,2.229.018,2.26,2.165.019,1.278.619,2.018,1.61,1.986.951-.031,1.545-.744,1.5-1.976a7.44,7.44,0,0,0-.371-2.533c-.618-1.492-2.437-2.1-4.409-1.655a3.1,3.1,0,0,0-2.489,3.164c-.021,3.715-.008,7.431-.008,11.146v1.182h-2.082v-1.077c0-3.472-.051-6.946.026-10.417a34.626,34.626,0,0,1,.552-4.023,4.318,4.318,0,0,0-.583-.047q-16.98-.005-33.959,0a3.178,3.178,0,0,0-3.537,3.542q-.006,21.511,0,43.021Z" transform="translate(-31.698)" fill="#7d3a1b"/>
          <path id="Trazado_906273" data-name="Trazado 906273" d="M3266.213,2647.631h2.009c.025.27.07.535.07.8,0,2.776.018,5.552,0,8.328a5.169,5.169,0,0,1-5.362,5.4q-20.405.021-40.81,0a3.615,3.615,0,0,1-3.821-3.774c-.016-.971-.019-1.944,0-2.915a3.584,3.584,0,0,1,3.67-3.71q18.218-.027,36.438,0a3.586,3.586,0,0,1,3.635,3.536c.129,2.6.039,2.7-2.553,2.7h-1.528v-2.035l1.916-.089c.1-1.224-.43-1.974-1.394-2.027a1.581,1.581,0,0,0-1.637,1.739c-.025.936-.031,1.875,0,2.81a1.547,1.547,0,0,0,1.7,1.677c1.526.031,3.055.045,4.58,0a3.092,3.092,0,0,0,3.076-3.256c.025-2.672.007-5.344.007-8.016Zm-11.361,12.451v-6.251h-32.006c-.278,0-.556-.012-.833.007a1.554,1.554,0,0,0-1.627,1.65c-.034.761-.011,1.526-.009,2.289,0,1.875.438,2.3,2.341,2.305q15.556,0,31.112,0Z" transform="translate(0 -182.273)" fill="#7d3a1b"/>
          <path id="Trazado_906274" data-name="Trazado 906274" d="M3434.684,2498.158c-1.755-1.079-2.269-.927-3.024.81-.606,1.4-1.2,2.793-1.841,4.271l-1.938-.82c.843-1.9,1.55-3.739,2.468-5.47a3.188,3.188,0,0,1,4.081-1.313c.384.152.753.343,1.25.571.49-.965.962-1.915,1.451-2.856.507-.975.936-1.121,1.924-.638q1.728.844,3.439,1.725c1,.511,1.162.949.681,1.911q-6.087,12.188-12.2,24.364a3.694,3.694,0,0,1-.672.912c-1.511,1.532-3.041,3.046-4.559,4.572-.437.439-.963.91-1.515.433a1.875,1.875,0,0,1-.492-1.419q.3-2.946.813-5.869a9.163,9.163,0,0,1,.812-2.441c2.965-6,5.967-11.975,8.957-17.96C3434.444,2498.7,3434.552,2498.445,3434.684,2498.158Zm1.948.9c-.228.442-.389.746-.543,1.053-2.975,5.953-6.005,11.88-8.882,17.881a21.847,21.847,0,0,0-1.1,4.414l.517.241a34.882,34.882,0,0,0,3.1-4.174c2.009-3.719,3.825-7.542,5.716-11.324,1.143-2.286,2.282-4.576,3.462-6.942Zm4.364-3.033-2.305-1.121-1.122,2.271,2.272,1.134Z" transform="translate(-162.644 -59.419)" fill="#7d3a1b"/>
          <path id="Trazado_906275" data-name="Trazado 906275" d="M3296.307,2607.727v1.96h-17.571v-1.96Z" transform="translate(-47.857 -150.683)" fill="#7d3a1b"/>
          <path id="Trazado_906276" data-name="Trazado 906276" d="M3391.111,2567.712v1.931h-12.395v-1.931Z" transform="translate(-127.007 -119.005)" fill="#7d3a1b"/>
          <path id="Trazado_906277" data-name="Trazado 906277" d="M3368.737,2587.578h12.348v1.991h-12.348Z" transform="translate(-119.106 -134.732)" fill="#7d3a1b"/>
          <path id="Trazado_906278" data-name="Trazado 906278" d="M3341.1,2647.729v1.96h-12.363v-1.96Z" transform="translate(-87.439 -182.351)" fill="#7d3a1b"/>
          <path id="Trazado_906279" data-name="Trazado 906279" d="M3318.975,2589.665h-10.284v-1.976h10.284Z" transform="translate(-71.571 -134.82)" fill="#7d3a1b"/>
          <path id="Trazado_906280" data-name="Trazado 906280" d="M3318.882,2627.741v1.955h-10.318v-1.955Z" transform="translate(-71.47 -166.527)" fill="#7d3a1b"/>
          <path id="Trazado_906281" data-name="Trazado 906281" d="M3377.977,2627.733v1.958h-9.239v-1.958Z" transform="translate(-119.107 -166.521)" fill="#7d3a1b"/>
          <path id="Trazado_906282" data-name="Trazado 906282" d="M3278.568,2569.607v-1.958h8.2v1.958Z" transform="translate(-47.724 -118.955)" fill="#7d3a1b"/>
          <path id="Trazado_906283" data-name="Trazado 906283" d="M3336.876,2569.653h-8.211v-1.986h8.211Z" transform="translate(-87.383 -118.969)" fill="#7d3a1b"/>
          <path id="Trazado_906284" data-name="Trazado 906284" d="M3286.8,2647.743v1.954h-8.235v-1.954Z" transform="translate(-47.721 -182.362)" fill="#7d3a1b"/>
          <path id="Trazado_906285" data-name="Trazado 906285" d="M3278.571,2547.584h6.128v1.985h-6.128Z" transform="translate(-47.726 -103.071)" fill="#7d3a1b"/>
          <path id="Trazado_906286" data-name="Trazado 906286" d="M3278.567,2589.607v-1.958h4.032v1.958Z" transform="translate(-47.723 -134.789)" fill="#7d3a1b"/>
          <path id="Trazado_906287" data-name="Trazado 906287" d="M3278.705,2627.607h4.027v1.953h-4.027Z" transform="translate(-47.832 -166.421)" fill="#7d3a1b"/>
        </g>
      </g>
    </g>
  </g>
</svg>
