<svg xmlns="http://www.w3.org/2000/svg" xmlns:xlink="http://www.w3.org/1999/xlink" width="121" height="121" viewBox="0 0 121 121">
  <defs>
    <clipPath id="clip-path">
      <rect id="Rectángulo_400938" data-name="Rectángulo 400938" width="121" height="121" transform="translate(0 0)" fill="none"/>
    </clipPath>
    <clipPath id="clip-path-2">
      <rect id="Rectángulo_401073" data-name="Rectángulo 401073" width="92.219" height="41.532" fill="#efb499"/>
    </clipPath>
  </defs>
  <g id="Grupo_1119979" data-name="Grupo 1119979" transform="translate(-740.496 -4872)">
    <g id="Grupo_1105097" data-name="Grupo 1105097" transform="translate(352.828 -1141)">
      <rect id="Rectángulo_401103" data-name="Rectángulo 401103" width="121" height="121" transform="translate(387.668 6013)" fill="none"/>
      <g id="Grupo_1099348" data-name="Grupo 1099348" transform="translate(387.668 6013)">
        <g id="Grupo_1099282" data-name="Grupo 1099282">
          <g id="Grupo_1099281" data-name="Grupo 1099281" clip-path="url(#clip-path-2)">
            <path id="Trazado_873375" data-name="Trazado 873375" d="M74.8,9.1c-4.139,0-6.28-2.03-8.17-3.821-1.855-1.756-3.452-3.274-6.792-3.274s-4.937,1.517-6.792,3.274C51.161,7.072,49.023,9.1,44.881,9.1s-6.28-2.03-8.169-3.821C34.857,3.525,33.26,2.007,29.92,2.007s-4.937,1.517-6.789,3.274C21.241,7.072,19.1,9.1,14.962,9.1S8.679,7.072,6.789,5.281C4.937,3.525,3.34,2.007,0,2.007V0C4.139,0,6.28,2.033,8.17,3.821c1.855,1.759,3.452,3.274,6.792,3.274S19.9,5.58,21.75,3.824C23.637,2.033,25.781,0,29.92,0s6.283,2.033,8.17,3.821c1.855,1.759,3.452,3.274,6.792,3.274s4.937-1.514,6.792-3.274C53.56,2.033,55.7,0,59.843,0s6.283,2.033,8.17,3.821C69.867,5.58,71.464,7.094,74.8,7.094S79.742,5.58,81.6,3.821C83.483,2.033,85.624,0,89.766,0V2.007c-3.34,0-4.937,1.517-6.792,3.274C81.084,7.072,78.943,9.1,74.8,9.1" transform="translate(2.453 32.43)" fill="#efb499"/>
            <path id="Trazado_873376" data-name="Trazado 873376" d="M74.8,9.1c-4.139,0-6.283-2.03-8.17-3.824-1.855-1.756-3.452-3.27-6.792-3.27s-4.937,1.514-6.792,3.27C51.164,7.072,49.023,9.1,44.881,9.1s-6.283-2.03-8.17-3.824c-1.855-1.756-3.452-3.27-6.792-3.27s-4.937,1.517-6.789,3.27C21.241,7.072,19.1,9.1,14.962,9.1S8.679,7.072,6.789,5.278C4.937,3.522,3.34,2.007,0,2.007V0C4.139,0,6.283,2.03,8.17,3.821c1.855,1.759,3.452,3.274,6.792,3.274S19.9,5.58,21.75,3.821C23.637,2.03,25.781,0,29.92,0S36.2,2.03,38.093,3.821c1.852,1.759,3.449,3.274,6.789,3.274s4.937-1.514,6.792-3.274C53.56,2.03,55.7,0,59.843,0s6.283,2.03,8.17,3.821C69.867,5.58,71.464,7.094,74.8,7.094S79.742,5.58,81.6,3.821C83.486,2.03,85.627,0,89.769,0V2.007c-3.34,0-4.94,1.517-6.8,3.27C81.084,7.072,78.943,9.1,74.8,9.1" transform="translate(1.635 21.62)" fill="#efb499"/>
            <path id="Trazado_873377" data-name="Trazado 873377" d="M74.8,9.1c-4.139,0-6.283-2.03-8.169-3.824-1.855-1.756-3.452-3.27-6.792-3.27s-4.937,1.514-6.792,3.27C51.164,7.072,49.02,9.1,44.881,9.1s-6.283-2.03-8.17-3.824c-1.855-1.756-3.452-3.27-6.792-3.27s-4.937,1.517-6.789,3.27C21.241,7.072,19.1,9.1,14.962,9.1S8.678,7.072,6.789,5.278C4.937,3.522,3.34,2.007,0,2.007V0C4.139,0,6.283,2.03,8.169,3.821c1.851,1.759,3.452,3.274,6.792,3.274S19.9,5.58,21.75,3.821C23.637,2.03,25.781,0,29.92,0S36.2,2.03,38.093,3.821c1.852,1.759,3.449,3.274,6.789,3.274s4.937-1.514,6.792-3.274C53.56,2.03,55.7,0,59.843,0s6.283,2.03,8.17,3.821C69.867,5.58,71.464,7.094,74.8,7.094S79.742,5.58,81.6,3.821C83.486,2.03,85.624,0,89.769,0V2.007c-3.34,0-4.941,1.517-6.8,3.27C81.084,7.072,78.943,9.1,74.8,9.1" transform="translate(0.818 10.81)" fill="#efb499"/>
            <path id="Trazado_873378" data-name="Trazado 873378" d="M74.8,9.1c-4.139,0-6.28-2.03-8.17-3.821-1.855-1.756-3.452-3.27-6.792-3.27s-4.937,1.514-6.789,3.27C51.164,7.069,49.023,9.1,44.881,9.1s-6.28-2.03-8.169-3.821c-1.855-1.756-3.452-3.27-6.792-3.27s-4.937,1.514-6.789,3.267C21.245,7.069,19.1,9.1,14.962,9.1S8.678,7.069,6.789,5.278C4.937,3.522,3.34,2.007,0,2.007V0C4.139,0,6.283,2.03,8.17,3.821c1.855,1.756,3.452,3.27,6.792,3.27S19.9,5.577,21.75,3.821C23.64,2.03,25.781,0,29.92,0s6.28,2.03,8.173,3.821c1.852,1.756,3.449,3.27,6.789,3.27s4.937-1.514,6.792-3.27C53.563,2.03,55.7,0,59.843,0s6.28,2.03,8.17,3.821c1.855,1.756,3.452,3.27,6.792,3.27s4.937-1.514,6.792-3.27C83.486,2.03,85.627,0,89.769,0V2.007c-3.344,0-4.941,1.514-6.8,3.27C81.084,7.069,78.943,9.1,74.8,9.1" transform="translate(0 0.003)" fill="#efb499"/>
          </g>
        </g>
      </g>
      <circle id="Elipse_11504" data-name="Elipse 11504" cx="50.5" cy="50.5" r="50.5" transform="translate(402.668 6031)" fill="#ffce73"/>
      <circle id="Elipse_11503" data-name="Elipse 11503" cx="52.5" cy="52.5" r="52.5" transform="translate(395.668 6021)" fill="#f3f9ff"/>
    </g>
    <g id="Grupo_1105100" data-name="Grupo 1105100" transform="translate(766.438 4897.804)">
      <rect id="Rectángulo_401104" data-name="Rectángulo 401104" width="68" height="69" transform="translate(-0.438 -0.804)" fill="none"/>
      <g id="Grupo_1105110" data-name="Grupo 1105110" transform="translate(-1186.412 -683.532)">
        <path id="Trazado_897167" data-name="Trazado 897167" d="M1199.995,704.186c-2.422-3.3-2.306-6.516.283-8.757a5.9,5.9,0,0,1,7.906,8.741,6.662,6.662,0,0,1,3,2.567c.132-.14.194-.213.262-.278a4.734,4.734,0,0,0,1.6-3.445c.111-2.251,1.579-3.78,3.622-4.712-2.418-3.2-2.326-6.434.208-8.695a5.9,5.9,0,0,1,7.984,8.678,6.01,6.01,0,0,1,3.659,4.515c.012.064.051.132.039.191-.324,1.646.716,2.65,1.818,3.721a6.285,6.285,0,0,1,2.976-2.515c-2.023-2.607-2.351-5.015-.982-7.283a5.61,5.61,0,0,1,5.015-2.883,2.032,2.032,0,0,0,1.605-.632,4.784,4.784,0,0,1,5.439-.882,4.917,4.917,0,0,1,2.794,4.771,4.832,4.832,0,0,1-3.452,4.305,1.4,1.4,0,0,0-1.095.922,5.824,5.824,0,0,1-1.169,1.643c1.577.749,2.958,1.784,3.341,3.5a35.683,35.683,0,0,0,1.882,5.121c1.175,3.027.386,5.839-1.726,8.261a6.1,6.1,0,0,0-1.293,1.918,4.4,4.4,0,0,1-1.381,1.872.841.841,0,0,0-.365,1c.136.429.3.71.83.776.8.1,1.592.333,2.386.515a7.616,7.616,0,0,1,5.964,7.407c.032,4.542,0,9.084.025,13.625,0,.612-.157.75-.757.75q-29.652-.025-59.3,0c-.631,0-.741-.19-.737-.768.024-4.346.01-8.692.014-13.037a7.779,7.779,0,0,1,6.746-8.174,12.957,12.957,0,0,1,1.628-.325c.552-.035.681-.368.819-.787.15-.455-.058-.719-.381-1a5.318,5.318,0,0,1-1.569-2.326,2.623,2.623,0,0,0-.7-1.036,8.393,8.393,0,0,1-2.621-6.222c0-1.47,0-2.941,0-4.411a2.937,2.937,0,0,1,1.823-2.871c.236-.111.466-.154.583-.449A6.077,6.077,0,0,1,1199.995,704.186Zm30.584,14.793c0-1.8-.007-3.594,0-5.391a9.137,9.137,0,0,0-.293-2.324,9.8,9.8,0,0,0-19.321,2.5q-.015,4.8,0,9.605c0,.713-.313,1.657.143,2.076.422.387,1.27-.2,1.933-.326a8.851,8.851,0,0,0,2.851-.618c.927-.527.952-1.088.123-1.742a7.577,7.577,0,0,1-2.935-4.814,43.228,43.228,0,0,1-.149-5.67c-.019-.523.4-.522.733-.6.823-.2,1.668-.326,2.469-.589,2.525-.828,3.678-2.19,3.635-4.372-.016-.8.254-.97,1-.969s1.133.161.975.966c-.355,1.806.779,2.763,2.068,3.62a9.469,9.469,0,0,0,3.961,1.316c.641.095.872.362.847,1.02-.049,1.305-.01,2.613-.016,3.92a7.571,7.571,0,0,1-3.137,6.326c-.755.57-.733,1,.077,1.53a2.775,2.775,0,0,0,1.1.388,31.3,31.3,0,0,1,3.163.624c.646.177.793.044.784-.593C1230.561,722.9,1230.579,720.939,1230.579,718.979ZM1219.8,742.514c0-.849-.053-1.7.013-2.546a5.226,5.226,0,0,0-.774-3.052c-1.668-2.988-3.3-6-4.862-9.041a1.112,1.112,0,0,0-1.53-.678,8.885,8.885,0,0,0-5.668,4.619c-1.134,2.2-.889,4.567-.91,6.907,0,.4.266.373.531.373.914,0,1.83-.034,2.742.013.586.03.7-.193.673-.73a12.73,12.73,0,0,1,.711-4.609c.225-.7.455-.862,1.156-.6.661.244,1.053.365.719,1.253a10.046,10.046,0,0,0,.2,7.627c.583,1.4,1.348,2.77,1.108,4.386-.071.477.222.512.593.51,1.567-.011,3.134-.021,4.7.005.477.008.612-.153.6-.615C1219.779,745.061,1219.8,743.787,1219.8,742.514Zm1.953-.513c0,1.8.021,3.038-.01,4.278-.012.5.113.684.646.672q2.3-.052,4.6,0c.513.01.717-.138.653-.657a5.368,5.368,0,0,1,.592-3.023,11,11,0,0,0,.622-9.173c-.363-.919.563-.717.957-.947.439-.257.755-.2.942.379a13.166,13.166,0,0,1,.782,4.893c-.029.485.064.712.616.686.912-.042,1.828-.036,2.741,0,.487.018.608-.169.595-.622-.03-1.077.027-2.156-.027-3.231a8.79,8.79,0,0,0-6.411-8.011c-.784-.226-1.269-.183-1.7.672-1.148,2.3-2.326,4.6-3.67,6.793C1222.187,737.148,1221.219,739.649,1221.749,742Zm27.444-1.666c0-1.926.041-3.853-.011-5.778a5.7,5.7,0,0,0-3.047-5.021c-.51-.3-.794-.277-1.114.332-1.756,3.343-3.571,6.656-5.367,9.979a1.865,1.865,0,0,0-.261.924c.014,1.861.023,3.722,0,5.582-.007.489.164.6.616.588,1.469-.025,2.941-.063,4.406.013.783.04.888-.244.88-.931-.037-3,.029-6.008-.043-9.009-.022-.91.4-.858,1.031-.883.709-.028,1,.1.987.925-.06,2.937,0,5.876-.041,8.813-.011.789.088,1.124,1.02,1.105.867-.017.991-.3.969-1.058C1249.159,744.057,1249.2,742.2,1249.193,740.335Zm-56.851-.5c0,2.394.053,4.355-.024,6.31-.036.912.472.778,1.026.8.611.023,1.006.018.989-.837-.061-3.034.012-6.071-.047-9.106-.016-.824.321-.877.967-.864s1.056,0,1.036.9c-.068,3.034-.007,6.07-.04,9.106-.007.643.176.832.816.812,1.435-.046,2.872-.036,4.308,0,.556.013.813-.079.8-.731-.047-1.794-.022-3.59-.011-5.385a1.879,1.879,0,0,0-.229-.934c-1.828-3.384-3.662-6.765-5.466-10.161-.252-.475-.494-.5-.917-.271a5.448,5.448,0,0,0-3.019,3.872C1192.089,735.632,1192.468,737.962,1192.343,739.837Zm34.316-24a7.374,7.374,0,0,1,.01-1.229c.2-.965-.29-1.264-1.144-1.443a8.16,8.16,0,0,1-4.148-2.27c-.5-.5-.768-.45-1.228.023a10.515,10.515,0,0,1-2.753,1.834c-.808.426-2.1.093-2.437,1.028a9.053,9.053,0,0,0-.066,2.915c0,.065,0,.131.007.2a5.921,5.921,0,0,0,5.2,5.5,5.747,5.747,0,0,0,6.245-3.811A7.6,7.6,0,0,0,1226.658,715.833Zm-29.459,2.755c.134-1.7.806-2.77,2.292-3.175a8.749,8.749,0,0,1,1.544-.239c1.466-.127,2.627-.577,3.1-2.194.209-.721,1.011-.272,1.536-.32.543-.051.416.439.321.7-.192.534.042.753.474.986a4.754,4.754,0,0,1,2.052,2.169c.114.234.133.553.53.679,0-1.527-.1-3.006.039-4.461a1.909,1.909,0,0,0-.782-1.843,5,5,0,0,0-3.233-1.212c-2.482-.005-4.965-.009-7.447,0-1.04,0-1.35.31-1.359,1.335-.013,1.5-.021,3.006.007,4.507A5.653,5.653,0,0,0,1197.2,718.588Zm47.227-.089a5.8,5.8,0,0,0,.256-5.675,5.441,5.441,0,0,0-4.84-3.134c-.878-.048-1.761-.023-2.641-.01a5.505,5.505,0,0,0-4.284,2.006,1.194,1.194,0,0,0-.418.751q0,2.361,0,4.723a7.047,7.047,0,0,1,2.49-2.757c.491-.264.792-.511.551-1.125-.1-.246-.147-.645.324-.632.705.019,1.536-.331,1.782.86a2.056,2.056,0,0,0,1.683,1.473,13.643,13.643,0,0,0,1.45.205C1243.176,715.486,1243.859,716.087,1244.426,718.5Zm-37.372.966a3.248,3.248,0,0,0-1.547-3.426.908.908,0,0,0-1.219.066,3.987,3.987,0,0,1-2.137.869c-3.433.5-3.048-.022-2.888,3.917a3.808,3.808,0,0,0,4.95,3.329C1206.1,723.7,1207.053,722.163,1207.054,719.465Zm35.288.279c0-2.37,0-2.371-2.239-2.661a4.7,4.7,0,0,1-2.658-.845c-.734-.653-1.275-.349-1.861.113a2.716,2.716,0,0,0-1.068,2.009,15.315,15.315,0,0,0,0,2.441,3.91,3.91,0,0,0,6.432,2.641A4.107,4.107,0,0,0,1242.342,719.744Zm-21.785,10.46c1.228,0,2.475.354,3.247-.1s1.077-1.715,1.585-2.623c.047-.085.076-.182.131-.261.265-.379.25-.576-.265-.748a3.379,3.379,0,0,1-2.061-1.839.64.64,0,0,0-.854-.4,6.585,6.585,0,0,1-3.007-.018.8.8,0,0,0-1.058.541,2.8,2.8,0,0,1-1.675,1.566c-.911.278-.65.618-.4,1.291C1217.014,729.791,1218.3,730.972,1220.557,730.2Zm.274-36.207c-1.142,0-2.284.022-3.425-.01-.517-.014-.586.187-.515.636a3.933,3.933,0,0,0,7.76.02c.094-.543-.076-.671-.59-.656C1222.985,694.02,1221.908,694,1220.831,694Zm-16.653,5.882c-1.142,0-2.284.021-3.425-.01-.5-.014-.6.16-.529.626a3.935,3.935,0,0,0,7.778-.056c.053-.43-.052-.578-.5-.568C1206.4,699.9,1205.287,699.879,1204.178,699.879Zm33.3,0c-1.109,0-2.219.022-3.327-.01-.509-.014-.688.107-.595.654a3.933,3.933,0,0,0,7.76-.016c.072-.446.01-.654-.511-.638C1239.7,699.9,1238.587,699.879,1237.478,699.879Zm-4.024,44.144h.066c0-.781.007-1.563,0-2.344,0-.21.107-.567-.166-.591a9.391,9.391,0,0,0-2.043.006c-.412.054-.367.585-.455.894-.382,1.331-1.246,2.493-1.283,3.953-.02.792.151,1.117.995,1.011.956-.12,2.251.4,2.8-.2C1233.824,746.229,1233.454,744.96,1233.454,744.023Zm-25.429.129c.1.8-.43,2.086.2,2.635.539.474,1.794.133,2.733.151.162,0,.326-.012.488,0,.359.033.53-.08.521-.481a5.029,5.029,0,0,0-.315-2.094,23.866,23.866,0,0,1-1.053-2.72.72.72,0,0,0-.807-.61c-1.762-.034-1.761-.054-1.761,1.686Zm35.32-44.525a2.247,2.247,0,0,0,1.037-.624,2.858,2.858,0,0,0,.3-3.812,2.892,2.892,0,0,0-3.742-.807c-.253.153-.7.283-.159.658A6.048,6.048,0,0,1,1243.346,699.627Zm-39.24,43.887c0,.815.062,1.636-.017,2.443-.083.844.236.994,1.024,1.015.876.023,1.023-.3.976-1.062-.062-1.007-.024-2.02-.013-3.031.011-.938.238-1.971-1.127-2.211-.111-.02-.208-.152-.3-.243-.413-.408-.539-.2-.541.253C1204.1,741.624,1204.107,742.569,1204.105,743.515Zm33.109-3.344c-.37.24-.618.7-1.1.754-.59.073-.662.411-.65.927.034,1.464.066,2.932-.008,4.393-.046.92.538.674,1,.681s1.029.218.992-.693c-.073-1.787-.017-3.58-.028-5.37C1237.425,740.629,1237.553,740.332,1237.214,740.171ZM1240.6,697.9a3.326,3.326,0,0,0-3.054-1.926,3.421,3.421,0,0,0-3.288,1.926Zm-16.47-5.886a3.791,3.791,0,0,0-3.764-1.9,3.43,3.43,0,0,0-2.884,1.9Zm-23.3,5.913h6.6A3.779,3.779,0,0,0,1200.827,697.927Zm19.948,38.129,2.032-3.789h-4.073Zm11.759-13.987c0,1.372.016,2.743-.009,4.115-.009.519.144.736.679.6.379-.095.772-.135,1.144-.25.473-.146.779-1.117.408-1.44A10.031,10.031,0,0,1,1232.533,722.07Zm-23.521-.036a7.873,7.873,0,0,1-1.793,2.614c-.653.519-.788,1.128-.32,1.655a2.372,2.372,0,0,0,1.892.481c.239-.007.221-.28.221-.475Q1209.012,724.171,1209.012,722.033Zm11.775-22.154c-.488,0-.978.02-1.465-.006-.463-.024-.573.142-.423.571a1.928,1.928,0,0,0,1.617,1.375,1.861,1.861,0,0,0,1.911-.911c.175-.267.4-.6.238-.9-.15-.28-.529-.1-.805-.123C1221.5,699.86,1221.144,699.879,1220.786,699.879Zm-16.647,5.881c-.488,0-.978.024-1.464-.006-.569-.035-.57.219-.41.646a1.913,1.913,0,0,0,1.569,1.3,1.846,1.846,0,0,0,1.806-.736c.247-.307.515-.693.358-1.056-.138-.32-.578-.114-.883-.14C1204.793,705.739,1204.465,705.76,1204.14,705.76Zm35.246.029h-3.849a1.9,1.9,0,0,0,1.8,1.933C1238.371,707.777,1239.1,707.121,1239.385,705.789ZM1203.1,737.9a4.762,4.762,0,0,0,1.074-3.168c-.015-.442-.094-.594-.508-.532-.379.057-.878-.219-1.079.361s-.881,1.081-.322,1.838A13.4,13.4,0,0,1,1203.1,737.9Zm35.311-.071c1.217-1.617,1.291-2.191.563-3.318-.365-.565-.872-.243-1.313-.317-.222-.037-.326.078-.32.343A4.616,4.616,0,0,0,1238.409,737.827Zm-4.9-31.464a3.48,3.48,0,0,0-1.819,2.544c0,.268-.1,1,.495.656a5.785,5.785,0,0,0,1.973-1.335C1234.368,707.922,1233.771,707.057,1233.508,706.363Zm3.627,19.825a.345.345,0,0,0-.44.231.588.588,0,0,0,.194.688,1.919,1.919,0,0,0,3.048,0,.589.589,0,0,0,.2-.687c-.1-.293-.332-.272-.561-.216A5.157,5.157,0,0,1,1237.135,726.188Zm-32.244.446c-.021-.3-.144-.521-.486-.442a5.268,5.268,0,0,1-2.51,0c-.2-.049-.4-.03-.48.205a.523.523,0,0,0,.178.688c.433.288.851.6,1.305.853C1203.3,728.162,1204.9,727.084,1204.891,726.634Zm4.8-17.18a2.787,2.787,0,0,0-1.179-2.822c-.378-.281-.468-.268-.71.219-.47.946-.393,1.485.68,1.825A5.428,5.428,0,0,1,1209.7,709.454Zm5.349-6.272a2.441,2.441,0,0,0,1.126-.386c1.417-.58,1.414-.589.848-1.933a.85.85,0,0,1-.024-.094c-.072-.249-.21-.3-.421-.142A3.333,3.333,0,0,0,1215.045,703.182Zm11.47.11a3.47,3.47,0,0,0-1.425-2.587c-.306-.249-.44-.211-.587.2-.477,1.333-.5,1.324.827,1.879C1225.683,702.933,1226.033,703.086,1226.515,703.292Zm-22.63,28.945c.394.025.993.116,1.036-.705.013-.259-1.408-1.119-1.807-1.07-.305.037-.664.1-.676.525C1202.418,731.76,1202.915,732.233,1203.885,732.236Zm33.855.006c.1,0,.195-.006.291,0,.42.033.807-.01.839-.542.021-.349.508-.667.076-1.044-.391-.341-.772-.206-1.155.026a4.189,4.189,0,0,0-.432.216c-.292.229-.885.2-.714.842S1237.307,732.226,1237.74,732.242Zm-36.7-3.012a1.375,1.375,0,0,0-.787-.68,1.952,1.952,0,0,0-1.923.267c-.26.187.282.694.418,1.074.146.406.424.31.7.167C1199.968,729.793,1200.48,729.522,1201.041,729.23Zm39.5-.073c2.4,1.391,1.984,1.324,2.711-.362C1241.781,728.273,1241.59,728.3,1240.542,729.157Zm2.612-20.638c-.214-.424-.328-.693-.48-.936a3.889,3.889,0,0,0-.479-.606c-.712-.748-.773-.706-1.167.254-.216.526-.1.641.419.729A12.206,12.206,0,0,1,1243.154,708.519Zm-44.289-.843h1.825c-.31-.446-.2-1.225-.566-1.216C1199.572,706.474,1199.167,707.046,1198.865,707.676Zm1.941,26.006c.4-.705.049-1.159-.067-1.629-.062-.25-.2-.394-.489-.245-.256.131-.315.3-.176.545C1200.292,732.743,1200.506,733.137,1200.806,733.682Zm39.929.009c.306-.565.532-.972.747-1.386a.308.308,0,0,0-.17-.466c-.212-.1-.4-.063-.463.157A1.876,1.876,0,0,0,1240.735,733.691Zm-33.824-5.089c-.833-.4-1.2.124-1.576.452-.22.19.107.316.254.376C1206.383,729.754,1206.354,728.855,1206.911,728.6Zm27.836-.024a9.3,9.3,0,0,0,.688.826c.24.231.478.026.7-.1.143-.082.151-.232.03-.3C1235.756,728.761,1235.436,728.224,1234.747,728.578Z" transform="translate(0 0)" fill="#050504"/>
        <path id="Trazado_897168" data-name="Trazado 897168" d="M1314.562,783.2c0,1.96-.018,3.921.01,5.881.009.637-.138.77-.784.593a31.287,31.287,0,0,0-3.163-.624,2.777,2.777,0,0,1-1.1-.388c-.81-.53-.831-.96-.077-1.53a7.571,7.571,0,0,0,3.137-6.326c.006-1.307-.033-2.615.016-3.92.024-.657-.207-.925-.848-1.02a9.469,9.469,0,0,1-3.961-1.316c-1.289-.856-2.423-1.814-2.069-3.62.158-.805-.238-.964-.975-.966s-1.011.164-1,.969c.043,2.182-1.11,3.544-3.635,4.372-.8.263-1.647.389-2.469.589-.335.081-.751.08-.733.6a43.2,43.2,0,0,0,.149,5.67,7.576,7.576,0,0,0,2.935,4.814c.828.653.8,1.214-.123,1.742a8.854,8.854,0,0,1-2.851.618c-.663.129-1.511.713-1.933.326-.456-.419-.14-1.363-.143-2.076q-.022-4.8,0-9.605a9.8,9.8,0,0,1,19.321-2.5,9.126,9.126,0,0,1,.293,2.324C1314.555,779.606,1314.562,781.4,1314.562,783.2Z" transform="translate(-83.983 -64.221)" fill="#656b75"/>
        <path id="Trazado_897169" data-name="Trazado 897169" d="M1284.059,902.255c0,1.273-.017,2.547.009,3.82.01.462-.125.623-.6.615-1.567-.026-3.134-.016-4.7-.005-.37,0-.664-.032-.593-.51.241-1.616-.525-2.982-1.108-4.386a10.046,10.046,0,0,1-.2-7.627c.334-.887-.058-1.009-.719-1.253-.7-.259-.932-.093-1.157.6a12.728,12.728,0,0,0-.711,4.609c.028.537-.087.759-.673.73-.912-.047-1.828-.013-2.742-.013-.265,0-.534.029-.53-.374.021-2.339-.225-4.71.91-6.907a8.885,8.885,0,0,1,5.668-4.619,1.112,1.112,0,0,1,1.53.678c1.564,3.043,3.194,6.053,4.861,9.041a5.226,5.226,0,0,1,.775,3.052C1284.006,900.554,1284.059,901.406,1284.059,902.255Z" transform="translate(-64.263 -159.742)" fill="#ffb937"/>
        <path id="Trazado_897170" data-name="Trazado 897170" d="M1349.72,901.809c-.53-2.351.438-4.853,1.935-7.294,1.344-2.191,2.521-4.49,3.67-6.793.427-.855.912-.9,1.7-.672a8.791,8.791,0,0,1,6.411,8.011c.054,1.075,0,2.155.027,3.231.012.453-.108.64-.6.622-.913-.034-1.829-.04-2.741,0-.552.025-.645-.2-.616-.686a13.169,13.169,0,0,0-.782-4.893c-.187-.574-.5-.635-.942-.379-.394.23-1.32.028-.957.947a11,11,0,0,1-.622,9.173,5.37,5.37,0,0,0-.591,3.023c.064.519-.14.668-.653.657q-2.3-.047-4.6,0c-.533.012-.659-.175-.646-.672C1349.74,904.847,1349.72,903.606,1349.72,901.809Z" transform="translate(-127.97 -159.809)" fill="#ffb937"/>
        <path id="Trazado_897171" data-name="Trazado 897171" d="M1450.053,909.253c0,1.861-.036,3.722.019,5.582.022.761-.1,1.04-.969,1.057-.932.019-1.031-.316-1.02-1.1.043-2.937-.019-5.876.041-8.813.017-.826-.278-.953-.987-.925-.632.025-1.053-.027-1.031.883.072,3,.006,6.006.043,9.009.008.687-.1.971-.88.931-1.465-.075-2.937-.037-4.406-.013-.452.008-.623-.1-.616-.588.028-1.86.018-3.721,0-5.582a1.865,1.865,0,0,1,.261-.924c1.8-3.323,3.611-6.636,5.367-9.979.32-.609.6-.629,1.114-.331a5.7,5.7,0,0,1,3.047,5.021C1450.093,905.4,1450.052,907.327,1450.053,909.253Z" transform="translate(-200.859 -168.919)" fill="#f5f5f5"/>
        <path id="Trazado_897172" data-name="Trazado 897172" d="M1200.268,908.672c.125-1.875-.253-4.205.182-6.5a5.448,5.448,0,0,1,3.019-3.872c.424-.225.665-.2.917.271,1.8,3.4,3.639,6.777,5.466,10.161a1.878,1.878,0,0,1,.229.934c-.011,1.795-.036,3.591.011,5.385.017.653-.24.744-.8.731-1.436-.032-2.873-.042-4.308,0-.64.02-.822-.169-.815-.812.033-3.035-.027-6.072.041-9.106.02-.9-.393-.883-1.036-.9s-.983.041-.967.864c.059,3.034-.014,6.071.047,9.106.017.855-.377.86-.989.837-.554-.022-1.061.113-1.026-.8C1200.321,913.027,1200.268,911.067,1200.268,908.672Z" transform="translate(-7.925 -168.835)" fill="#e2806d"/>
        <path id="Trazado_897173" data-name="Trazado 897173" d="M1326.754,807.659a7.605,7.605,0,0,1-.313,2.747,5.747,5.747,0,0,1-6.245,3.811,5.921,5.921,0,0,1-5.2-5.5c0-.065-.007-.131-.007-.2a9.05,9.05,0,0,1,.066-2.915c.336-.934,1.629-.6,2.437-1.028a10.515,10.515,0,0,0,2.753-1.834c.46-.473.727-.526,1.228-.023a8.159,8.159,0,0,0,4.148,2.27c.854.179,1.343.478,1.144,1.443A7.357,7.357,0,0,0,1326.754,807.659Zm-6.189,4.626a4.182,4.182,0,0,0,3.619-1.677c.172-.25.771-.692.179-.918-.509-.195-.984-1.264-1.755-.247a2.023,2.023,0,0,1-3.212.248c-.625-.81-1.057-.548-1.732-.223-.619.3-.544.574-.22,1.021A4.058,4.058,0,0,0,1320.565,812.285Z" transform="translate(-100.096 -91.826)" fill="#e3cbb1"/>
        <path id="Trazado_897174" data-name="Trazado 897174" d="M1221.277,806.882a5.65,5.65,0,0,1-.93-3.065c-.028-1.5-.02-3-.007-4.507.009-1.024.319-1.331,1.359-1.335,2.482-.01,4.965-.007,7.447,0a5,5,0,0,1,3.233,1.212,1.909,1.909,0,0,1,.782,1.843c-.143,1.455-.039,2.934-.039,4.461-.4-.126-.417-.444-.53-.679a4.754,4.754,0,0,0-2.052-2.169c-.432-.232-.666-.452-.474-.986.095-.264.222-.754-.321-.7-.524.049-1.326-.4-1.536.321-.47,1.618-1.632,2.067-3.1,2.194a8.752,8.752,0,0,0-1.544.239C1222.084,804.112,1221.412,805.181,1221.277,806.882Z" transform="translate(-24.078 -88.294)" fill="#656b75"/>
        <path id="Trazado_897175" data-name="Trazado 897175" d="M1417.039,806.743c-.567-2.412-1.25-3.013-3.646-3.314a13.6,13.6,0,0,1-1.45-.205,2.056,2.056,0,0,1-1.683-1.473c-.247-1.191-1.077-.841-1.783-.86-.471-.013-.421.386-.324.632.241.614-.061.86-.551,1.125a7.047,7.047,0,0,0-2.49,2.757q0-2.362,0-4.723a1.194,1.194,0,0,1,.418-.751,5.506,5.506,0,0,1,4.285-2.006c.88-.013,1.763-.038,2.641.01a5.441,5.441,0,0,1,4.84,3.134A5.8,5.8,0,0,1,1417.039,806.743Z" transform="translate(-172.614 -88.243)" fill="#656b75"/>
        <path id="Trazado_897176" data-name="Trazado 897176" d="M1243.07,833.011c0,2.7-.959,4.235-2.841,4.756a3.808,3.808,0,0,1-4.95-3.329c-.16-3.939-.546-3.414,2.888-3.917a3.987,3.987,0,0,0,2.137-.869.908.908,0,0,1,1.219-.066A3.247,3.247,0,0,1,1243.07,833.011Z" transform="translate(-36.016 -113.546)" fill="#e3cbb1"/>
        <path id="Trazado_897177" data-name="Trazado 897177" d="M1423.039,833.394a4.107,4.107,0,0,1-1.389,3.7,3.91,3.91,0,0,1-6.432-2.641,15.3,15.3,0,0,1,0-2.441,2.717,2.717,0,0,1,1.068-2.009c.586-.463,1.128-.766,1.861-.113a4.7,4.7,0,0,0,2.658.845C1423.039,831.023,1423.039,831.024,1423.039,833.394Z" transform="translate(-180.697 -113.65)" fill="#e3cbb1"/>
        <path id="Trazado_897178" data-name="Trazado 897178" d="M1325.425,877.919c-2.255.768-3.543-.413-4.355-2.589-.251-.673-.512-1.012.4-1.291a2.8,2.8,0,0,0,1.675-1.566.8.8,0,0,1,1.058-.541,6.582,6.582,0,0,0,3.007.018.64.64,0,0,1,.854.4,3.379,3.379,0,0,0,2.061,1.839c.515.172.531.37.265.748-.055.079-.084.176-.131.261-.508.908-.811,2.168-1.585,2.623S1326.653,877.919,1325.425,877.919Z" transform="translate(-104.868 -147.715)" fill="#e3cbb1"/>
        <path id="Trazado_897179" data-name="Trazado 897179" d="M1329.4,718c1.077,0,2.154.023,3.229-.01.514-.016.684.112.59.656a3.933,3.933,0,0,1-7.76-.02c-.071-.45,0-.651.515-.636C1327.114,718.026,1328.256,718,1329.4,718Z" transform="translate(-108.567 -24.006)" fill="#e3cbb1"/>
        <path id="Trazado_897180" data-name="Trazado 897180" d="M1244.455,747.99c1.109,0,2.219.017,3.328-.008.445-.01.55.138.5.568a3.935,3.935,0,0,1-7.778.056c-.071-.465.028-.639.529-.626C1242.171,748.011,1243.314,747.99,1244.455,747.99Z" transform="translate(-40.277 -48.111)" fill="#e3cbb1"/>
        <path id="Trazado_897181" data-name="Trazado 897181" d="M1414.335,747.988c1.109,0,2.219.023,3.327-.01.521-.015.582.192.511.638a3.933,3.933,0,0,1-7.76.015c-.093-.547.085-.668.594-.654C1412.116,748.01,1413.225,747.988,1414.335,747.988Z" transform="translate(-176.857 -48.109)" fill="#e3cbb1"/>
        <path id="Trazado_897182" data-name="Trazado 897182" d="M1394.059,960.831c0,.938.369,2.206-.1,2.725-.545.607-1.839.084-2.8.2-.844.106-1.014-.219-.995-1.011.037-1.46.9-2.622,1.283-3.953.089-.309.044-.84.455-.894a9.4,9.4,0,0,1,2.043-.006c.273.024.163.38.166.591.011.781,0,1.562,0,2.343Z" transform="translate(-160.605 -216.809)" fill="#e3cbb1"/>
        <path id="Trazado_897183" data-name="Trazado 897183" d="M1279.882,960.929V959.5c0-1.74,0-1.72,1.761-1.686a.72.72,0,0,1,.807.61,23.836,23.836,0,0,0,1.054,2.72,5.03,5.03,0,0,1,.315,2.094c.009.4-.162.514-.521.481-.161-.015-.325,0-.488,0-.939-.018-2.193.322-2.733-.151C1279.452,963.015,1279.98,961.73,1279.882,960.929Z" transform="translate(-71.857 -216.777)" fill="#e3cbb1"/>
        <path id="Trazado_897184" data-name="Trazado 897184" d="M1448.852,723.718a6.047,6.047,0,0,0-2.568-4.585c-.537-.375-.094-.5.159-.658a2.892,2.892,0,0,1,3.742.807,2.858,2.858,0,0,1-.3,3.812A2.248,2.248,0,0,1,1448.852,723.718Z" transform="translate(-205.507 -24.091)" fill="#f5f5f5"/>
        <path id="Trazado_897185" data-name="Trazado 897185" d="M1260.251,956.929c0-.945,0-1.891,0-2.836,0-.453.128-.66.54-.253.093.091.189.224.3.243,1.365.24,1.137,1.273,1.127,2.211-.012,1.01-.05,2.024.013,3.031.047.762-.1,1.085-.976,1.062-.788-.021-1.107-.171-1.024-1.015C1260.312,958.566,1260.25,957.745,1260.251,956.929Z" transform="translate(-56.145 -213.415)" fill="#e2806d"/>
        <path id="Trazado_897186" data-name="Trazado 897186" d="M1421.96,953.437c.339.162.211.459.213.692.011,1.79-.045,3.583.028,5.37.037.911-.515.7-.992.693s-1.048.239-1-.681c.073-1.461.042-2.929.008-4.393-.012-.516.06-.854.65-.927C1421.343,954.132,1421.59,953.677,1421.96,953.437Z" transform="translate(-184.747 -213.266)" fill="#f5f5f5"/>
        <path id="Trazado_897187" data-name="Trazado 897187" d="M1420.425,730.039h-6.342a3.421,3.421,0,0,1,3.288-1.926A3.327,3.327,0,0,1,1420.425,730.039Z" transform="translate(-179.826 -32.14)" fill="#f5f5f5"/>
        <path id="Trazado_897188" data-name="Trazado 897188" d="M1335.209,700.029h-6.648a3.431,3.431,0,0,1,2.884-1.9A3.791,3.791,0,0,1,1335.209,700.029Z" transform="translate(-111.08 -8.015)" fill="#656b75"/>
        <path id="Trazado_897189" data-name="Trazado 897189" d="M1243.66,730.156a3.779,3.779,0,0,1,6.6,0h-6.6Z" transform="translate(-42.833 -32.229)" fill="#656b75"/>
        <path id="Trazado_897190" data-name="Trazado 897190" d="M1336.989,916.933l-2.041-3.789h4.073Z" transform="translate(-116.214 -180.877)" fill="#e3cbb1"/>
        <path id="Trazado_897191" data-name="Trazado 897191" d="M1405.259,861.16a10.027,10.027,0,0,0,2.222,3.026c.37.323.065,1.294-.408,1.44-.371.115-.765.155-1.144.25-.535.134-.688-.083-.679-.6C1405.275,863.9,1405.259,862.531,1405.259,861.16Z" transform="translate(-172.726 -139.09)" fill="#f5f5f5"/>
        <path id="Trazado_897192" data-name="Trazado 897192" d="M1275.588,860.975q0,2.137,0,4.275c0,.2.018.467-.221.475a2.371,2.371,0,0,1-1.892-.481c-.468-.528-.333-1.136.32-1.655A7.874,7.874,0,0,0,1275.588,860.975Z" transform="translate(-66.576 -138.942)" fill="#f5f5f5"/>
        <path id="Trazado_897193" data-name="Trazado 897193" d="M1337.418,747.9c.358,0,.718-.019,1.074.006.276.019.655-.158.805.123.159.3-.063.634-.238.9a1.861,1.861,0,0,1-1.911.911,1.928,1.928,0,0,1-1.617-1.375c-.151-.429-.04-.6.423-.571C1336.44,747.922,1336.93,747.9,1337.418,747.9Z" transform="translate(-116.632 -48.023)" fill="#e3cbb1"/>
        <path id="Trazado_897194" data-name="Trazado 897194" d="M1252.493,777.871c.326,0,.653-.021.976.006.3.026.745-.18.883.14.157.363-.111.749-.358,1.056a1.846,1.846,0,0,1-1.806.736,1.912,1.912,0,0,1-1.569-1.3c-.16-.427-.16-.681.41-.646C1251.515,777.9,1252,777.871,1252.493,777.871Z" transform="translate(-48.353 -72.111)" fill="#e3cbb1"/>
        <path id="Trazado_897195" data-name="Trazado 897195" d="M1424.457,778.162c-.282,1.332-1.015,1.988-2.047,1.933a1.9,1.9,0,0,1-1.8-1.933Z" transform="translate(-185.071 -72.373)" fill="#e3cbb1"/>
        <path id="Trazado_897196" data-name="Trazado 897196" d="M1250.928,926.619a13.384,13.384,0,0,0-.835-1.5c-.559-.757.117-1.246.322-1.838s.7-.3,1.079-.36c.414-.062.493.089.508.532A4.764,4.764,0,0,1,1250.928,926.619Z" transform="translate(-47.83 -188.721)" fill="#f5f5f5"/>
        <path id="Trazado_897197" data-name="Trazado 897197" d="M1430.865,926.49a4.616,4.616,0,0,1-1.07-3.292c-.006-.266.1-.38.32-.343.441.073.948-.248,1.313.317C1432.156,924.3,1432.082,924.873,1430.865,926.49Z" transform="translate(-192.456 -188.663)" fill="#bdd982"/>
        <path id="Trazado_897198" data-name="Trazado 897198" d="M1402.795,781.088c.263.694.86,1.56.649,1.866a5.784,5.784,0,0,1-1.973,1.335c-.6.339-.491-.388-.495-.656A3.48,3.48,0,0,1,1402.795,781.088Z" transform="translate(-169.287 -74.725)" fill="#bdd982"/>
        <path id="Trazado_897199" data-name="Trazado 897199" d="M1426.786,882.1a5.159,5.159,0,0,0,2.443.021c.229-.056.462-.077.561.216a.589.589,0,0,1-.2.687,1.92,1.92,0,0,1-3.048,0,.588.588,0,0,1-.194-.688A.345.345,0,0,1,1426.786,882.1Z" transform="translate(-189.651 -155.913)" fill="#e3cbb1"/>
        <path id="Trazado_897200" data-name="Trazado 897200" d="M1249.9,882.544c.01.45-1.594,1.529-1.993,1.309-.454-.25-.872-.565-1.305-.853a.523.523,0,0,1-.178-.688c.085-.236.284-.254.481-.205a5.269,5.269,0,0,0,2.51,0C1249.76,882.023,1249.884,882.241,1249.9,882.544Z" transform="translate(-45.013 -155.91)" fill="#e3cbb1"/>
        <path id="Trazado_897201" data-name="Trazado 897201" d="M1280.009,784.522a5.439,5.439,0,0,0-1.209-.777c-1.073-.34-1.149-.879-.68-1.825.242-.487.332-.5.71-.219A2.788,2.788,0,0,1,1280.009,784.522Z" transform="translate(-70.313 -75.069)" fill="#bdd982"/>
        <path id="Trazado_897202" data-name="Trazado 897202" d="M1316.144,754.035a3.333,3.333,0,0,1,1.529-2.555c.21-.156.349-.107.421.142a.875.875,0,0,0,.023.094c.566,1.344.569,1.353-.848,1.933A2.438,2.438,0,0,1,1316.144,754.035Z" transform="translate(-101.099 -50.854)" fill="#e2806d"/>
        <path id="Trazado_897203" data-name="Trazado 897203" d="M1365.151,754.194c-.482-.206-.833-.359-1.185-.506-1.327-.555-1.3-.546-.827-1.879.147-.411.281-.45.587-.2A3.47,3.47,0,0,1,1365.151,754.194Z" transform="translate(-138.636 -50.903)" fill="#e2806d"/>
        <path id="Trazado_897204" data-name="Trazado 897204" d="M1253.319,905.705c-.971,0-1.468-.477-1.447-1.251.012-.429.37-.487.676-.525.4-.048,1.82.811,1.806,1.07C1254.313,905.822,1253.713,905.73,1253.319,905.705Z" transform="translate(-49.434 -173.469)" fill="#e3cbb1"/>
        <path id="Trazado_897205" data-name="Trazado 897205" d="M1427.231,905.682c-.433-.015-.927.138-1.095-.5s.422-.613.714-.842a4.213,4.213,0,0,1,.432-.216c.383-.232.763-.367,1.155-.026.432.376-.055.7-.076,1.044-.032.532-.419.575-.839.542C1427.426,905.676,1427.328,905.683,1427.231,905.682Z" transform="translate(-189.491 -173.44)" fill="#e2806d"/>
        <path id="Trazado_897206" data-name="Trazado 897206" d="M1233.359,894.273c-.561.292-1.073.563-1.589.827-.278.143-.557.239-.7-.167-.136-.38-.679-.886-.419-1.074a1.952,1.952,0,0,1,1.922-.267A1.376,1.376,0,0,1,1233.359,894.273Z" transform="translate(-32.318 -165.043)" fill="#e2806d"/>
        <path id="Trazado_897207" data-name="Trazado 897207" d="M1446.125,894.382c1.048-.862,1.239-.884,2.711-.362C1448.109,895.707,1448.526,895.773,1446.125,894.382Z" transform="translate(-205.583 -165.225)" fill="#e2806d"/>
        <path id="Trazado_897208" data-name="Trazado 897208" d="M1450.3,783.636a12.184,12.184,0,0,0-1.707-.56c-.524-.088-.635-.2-.419-.729.394-.96.455-1,1.167-.254a3.877,3.877,0,0,1,.479.606C1449.972,782.944,1450.085,783.212,1450.3,783.636Z" transform="translate(-207.146 -75.117)" fill="#bdd982"/>
        <path id="Trazado_897209" data-name="Trazado 897209" d="M1233.655,782.8c.3-.63.707-1.2,1.258-1.216.362-.009.256.771.566,1.216Z" transform="translate(-34.791 -75.122)" fill="#bdd982"/>
        <path id="Trazado_897210" data-name="Trazado 897210" d="M1240.248,912.43c-.3-.545-.514-.939-.733-1.329-.139-.249-.08-.414.176-.545.292-.149.427-.005.489.245C1240.3,911.271,1240.652,911.724,1240.248,912.43Z" transform="translate(-39.442 -178.748)" fill="#bdd982"/>
        <path id="Trazado_897211" data-name="Trazado 897211" d="M1446.417,912.593a1.876,1.876,0,0,1,.114-1.695c.066-.22.251-.26.463-.157a.308.308,0,0,1,.17.466C1446.949,911.621,1446.723,912.028,1446.417,912.593Z" transform="translate(-205.682 -178.902)" fill="#e2806d"/>
        <path id="Trazado_897212" data-name="Trazado 897212" d="M1267.915,893.873c-.557.254-.528,1.153-1.323.828-.146-.06-.473-.186-.254-.376C1266.718,894,1267.082,893.477,1267.915,893.873Z" transform="translate(-61.004 -165.272)" fill="#e2806d"/>
        <path id="Trazado_897213" data-name="Trazado 897213" d="M1416.583,893.858c.689-.354,1.009.183,1.414.423.121.072.113.222-.03.3-.219.125-.456.329-.7.1A9.332,9.332,0,0,1,1416.583,893.858Z" transform="translate(-181.836 -165.28)" fill="#e2806d"/>
        <path id="Trazado_897214" data-name="Trazado 897214" d="M1330,839.529a4.058,4.058,0,0,1-3.121-1.8c-.323-.447-.4-.723.22-1.021.675-.325,1.106-.587,1.731.223a2.023,2.023,0,0,0,3.212-.248c.771-1.017,1.246.052,1.755.247.592.227-.008.668-.179.918A4.182,4.182,0,0,1,1330,839.529Z" transform="translate(-109.531 -119.07)" fill="#050504"/>
      </g>
    </g>
  </g>
</svg>
