<svg xmlns="http://www.w3.org/2000/svg" width="505" height="269" viewBox="0 0 505 269">
  <g id="Grupo_1119977" data-name="Grupo 1119977" transform="translate(-810 -5022.001)">
    <path id="Sustracción_105" data-name="Sustracción 105" d="M-2418.9,11969h-448.648a230.128,230.128,0,0,1-3.677-41,229.677,229.677,0,0,1,4.632-45.949,226.856,226.856,0,0,1,13.285-42.8,228.009,228.009,0,0,1,21.022-38.729,229.733,229.733,0,0,1,27.841-33.743,229.722,229.722,0,0,1,33.744-27.84,227.986,227.986,0,0,1,38.729-21.021,226.93,226.93,0,0,1,42.8-13.285,229.726,229.726,0,0,1,45.95-4.632,229.726,229.726,0,0,1,45.95,4.632,226.919,226.919,0,0,1,42.8,13.285,228.026,228.026,0,0,1,38.729,21.021,229.681,229.681,0,0,1,33.744,27.84,229.7,229.7,0,0,1,27.841,33.743,227.975,227.975,0,0,1,21.022,38.729,226.856,226.856,0,0,1,13.285,42.8,229.677,229.677,0,0,1,4.632,45.949,230.126,230.126,0,0,1-3.677,41Z" transform="translate(3730 -6678)" fill="#ffe2b7"/>
    <g id="Grupo_1119677" data-name="Grupo 1119677" transform="translate(810 4857.984)">
      <g id="Background_Complete" data-name="Background Complete" transform="translate(0 183.724)">
        <g id="Grupo_1119633" data-name="Grupo 1119633">
          <rect id="Rectángulo_406536" data-name="Rectángulo 406536" width="505" height="0.173" transform="translate(0 173.504)" fill="#ebebeb"/>
          <rect id="Rectángulo_406537" data-name="Rectángulo 406537" width="33.453" height="0.173" transform="translate(420.947 184.656)" fill="#ebebeb"/>
          <rect id="Rectángulo_406538" data-name="Rectángulo 406538" width="71.514" height="0.173" transform="translate(336.715 184.656)" fill="#ebebeb"/>
          <rect id="Rectángulo_406539" data-name="Rectángulo 406539" width="19.384" height="0.173" transform="translate(277.892 178.222)" fill="#ebebeb"/>
          <rect id="Rectángulo_406540" data-name="Rectángulo 406540" width="34.633" height="0.173" transform="translate(52.984 179.386)" fill="#ebebeb"/>
          <rect id="Rectángulo_406541" data-name="Rectángulo 406541" width="62.971" height="0.173" transform="translate(96.609 179.386)" fill="#ebebeb"/>
          <rect id="Rectángulo_406542" data-name="Rectángulo 406542" width="37.182" height="0.173" transform="translate(190.217 182.312)" fill="#ebebeb"/>
          <path id="Trazado_906316" data-name="Trazado 906316" d="M239,326.33H43.972c-3.178,0-5.765-1.774-5.765-3.954V134.328c0-2.18,2.587-3.954,5.765-3.954H239c3.177,0,5.764,1.774,5.764,3.954V322.376C244.766,324.556,242.18,326.33,239,326.33ZM43.972,130.547c-3.04,0-5.513,1.7-5.513,3.781V322.376c0,2.085,2.472,3.781,5.513,3.781H239c3.039,0,5.512-1.7,5.512-3.781V134.328c0-2.085-2.472-3.781-5.512-3.781Z" transform="translate(0.382 -135.938)" fill="#ebebeb"/>
          <path id="Trazado_906317" data-name="Trazado 906317" d="M455.3,326.33H260.269c-3.178,0-5.764-1.774-5.764-3.954V134.328c0-2.18,2.586-3.954,5.764-3.954H455.3c3.18,0,5.766,1.774,5.766,3.954V322.376C461.064,324.556,458.478,326.33,455.3,326.33ZM260.269,130.547c-3.039,0-5.512,1.7-5.512,3.781V322.376c0,2.085,2.472,3.781,5.512,3.781H455.3c3.04,0,5.514-1.7,5.514-3.781V134.328c0-2.085-2.473-3.781-5.514-3.781Z" transform="translate(2.545 -135.938)" fill="#ebebeb"/>
        </g>
        <g id="Grupo_1119637" data-name="Grupo 1119637" transform="translate(20.254 -7.493)">
          <g id="Grupo_1119634" data-name="Grupo 1119634">
            <path id="Trazado_907113" data-name="Trazado 907113" d="M0,0H133.374V130.114H0Z" fill="#efb499"/>
            <rect id="Rectángulo_406544" data-name="Rectángulo 406544" width="1.351" height="130.114" transform="translate(134.726 130.114) rotate(180)" fill="#ebebeb"/>
            <rect id="Rectángulo_406545" data-name="Rectángulo 406545" width="107.635" height="120.188" transform="translate(12.87 4.963)" fill="#fff"/>
          </g>
          <g id="Grupo_1119636" data-name="Grupo 1119636" transform="translate(185.502 114.268)">
            <g id="Grupo_1119635" data-name="Grupo 1119635">
              <rect id="Rectángulo_406546" data-name="Rectángulo 406546" width="26.955" height="99.402" transform="translate(26.955 99.402) rotate(180)" fill="#e6e6e6"/>
              <path id="Trazado_906318" data-name="Trazado 906318" d="M208.2,382.4h-4.486v-8.945h9.189Z" transform="translate(-203.718 -282.996)" fill="#f0f0f0"/>
              <rect id="Rectángulo_406547" data-name="Rectángulo 406547" width="26.955" height="99.402" transform="translate(220.911 99.402) rotate(180)" fill="#e6e6e6"/>
              <rect id="Rectángulo_406548" data-name="Rectángulo 406548" width="197.871" height="95.968" transform="translate(197.871 95.968) rotate(180)" fill="#f0f0f0"/>
              <rect id="Rectángulo_406549" data-name="Rectángulo 406549" width="190.911" height="26.318" transform="translate(194.391 30.571) rotate(180)" fill="#e6e6e6"/>
              <path id="Trazado_906319" data-name="Trazado 906319" d="M255.093,295.432h94.326c4.376,0,8.561-3.247,11.572-8.979H243.521C246.532,292.185,250.715,295.432,255.093,295.432Z" transform="translate(-203.32 -283)" fill="#f0f0f0"/>
              <path id="Trazado_906320" data-name="Trazado 906320" d="M395.235,382.4h4.486v-8.945h-9.189Z" transform="translate(-201.85 -282.996)" fill="#f0f0f0"/>
              <rect id="Rectángulo_406550" data-name="Rectángulo 406550" width="190.911" height="26.318" transform="translate(194.391 61.143) rotate(180)" fill="#e6e6e6"/>
              <path id="Trazado_906321" data-name="Trazado 906321" d="M255.093,326h94.326c4.376,0,8.561-3.247,11.572-8.979H243.521C246.532,322.755,250.715,326,255.093,326Z" transform="translate(-203.32 -282.999)" fill="#f0f0f0"/>
              <rect id="Rectángulo_406551" data-name="Rectángulo 406551" width="190.911" height="26.318" transform="translate(194.391 91.714) rotate(180)" fill="#e6e6e6"/>
              <path id="Trazado_906322" data-name="Trazado 906322" d="M255.093,356.572h94.326c4.376,0,8.561-3.247,11.572-8.979H243.521C246.532,353.325,250.715,356.572,255.093,356.572Z" transform="translate(-203.32 -282.997)" fill="#f0f0f0"/>
            </g>
          </g>
        </g>
      </g>
      <g id="Shadow" transform="translate(56.672 404.927)">
        <ellipse id="_Path_" data-name="&lt;Path&gt;" cx="195.828" cy="11.324" rx="195.828" ry="11.324" fill="#e5c08b"/>
      </g>
      <g id="Character_2" data-name="Character 2" transform="translate(253.434 183.724)">
        <g id="Grupo_1119651" data-name="Grupo 1119651" transform="translate(0 0)">
          <g id="Grupo_1119644" data-name="Grupo 1119644" transform="translate(19.886 88.672)">
            <g id="Grupo_1119642" data-name="Grupo 1119642" transform="translate(22.185 91.451)">
              <g id="Grupo_1119638" data-name="Grupo 1119638" transform="translate(69.486)">
                <path id="Trazado_906323" data-name="Trazado 906323" d="M369.966,410.536h-1.082a.935.935,0,0,1-.858-.87l-6.651-45.83h5.05l4.4,45.526A1,1,0,0,1,369.966,410.536Z" transform="translate(-361.376 -363.836)" fill="#7a4f00"/>
                <path id="Trazado_906324" data-name="Trazado 906324" d="M369.966,410.536h-1.082a.935.935,0,0,1-.858-.87l-6.651-45.83h5.05l4.4,45.526A1,1,0,0,1,369.966,410.536Z" transform="translate(-361.376 -363.836)" fill="#7a4f00" opacity="0.3"/>
              </g>
              <g id="Grupo_1119639" data-name="Grupo 1119639" transform="translate(83.342)">
                <path id="Trazado_906325" data-name="Trazado 906325" d="M383.685,410.536H382.6a.935.935,0,0,1-.857-.87l-6.651-45.83h5.05l4.4,45.526A1,1,0,0,1,383.685,410.536Z" transform="translate(-375.095 -363.836)" fill="#7a4f00"/>
                <path id="Trazado_906326" data-name="Trazado 906326" d="M383.685,410.536H382.6a.935.935,0,0,1-.857-.87l-6.651-45.83h5.05l4.4,45.526A1,1,0,0,1,383.685,410.536Z" transform="translate(-375.095 -363.836)" fill="#7a4f00" opacity="0.3"/>
              </g>
              <g id="Grupo_1119640" data-name="Grupo 1119640" transform="translate(13.856)">
                <path id="Trazado_906327" data-name="Trazado 906327" d="M307.167,410.536h1.083a.935.935,0,0,0,.856-.87l6.651-45.83h-5.049l-4.4,45.526A1,1,0,0,0,307.167,410.536Z" transform="translate(-306.297 -363.836)" fill="#7a4f00"/>
                <path id="Trazado_906328" data-name="Trazado 906328" d="M307.167,410.536h1.083a.935.935,0,0,0,.856-.87l6.651-45.83h-5.049l-4.4,45.526A1,1,0,0,0,307.167,410.536Z" transform="translate(-306.297 -363.836)" fill="#7a4f00" opacity="0.3"/>
              </g>
              <g id="Grupo_1119641" data-name="Grupo 1119641">
                <path id="Trazado_906329" data-name="Trazado 906329" d="M293.448,410.536h1.083a.937.937,0,0,0,.857-.87l6.65-45.83h-5.05l-4.4,45.526A1,1,0,0,0,293.448,410.536Z" transform="translate(-292.578 -363.836)" fill="#7a4f00"/>
                <path id="Trazado_906330" data-name="Trazado 906330" d="M293.448,410.536h1.083a.937.937,0,0,0,.857-.87l6.65-45.83h-5.05l-4.4,45.526A1,1,0,0,0,293.448,410.536Z" transform="translate(-292.578 -363.836)" fill="#7a4f00" opacity="0.3"/>
              </g>
            </g>
            <g id="Grupo_1119643" data-name="Grupo 1119643">
              <path id="Trazado_906331" data-name="Trazado 906331" d="M275.71,309.513h34.017c6.036-20.752,27.752-37.124,49.992-37.124h11.048c23.278,0,38.3,17.935,33.555,40.059a44.659,44.659,0,0,1-4.329,11.673l-5.365,32.2c-.692,4.155-4.04,7.523-7.478,7.523H284.762c-3.438,0-6.785-3.368-7.478-7.523l-6.545-39.279C270.046,312.883,272.272,309.513,275.71,309.513Z" transform="translate(-270.613 -272.389)" fill="#d1a555"/>
              <path id="Trazado_906332" data-name="Trazado 906332" d="M275.71,309.513h34.017c6.036-20.752,27.752-37.124,49.992-37.124h11.048c23.278,0,38.3,17.935,33.555,40.059a44.659,44.659,0,0,1-4.329,11.673l-5.365,32.2c-.692,4.155-4.04,7.523-7.478,7.523H284.762c-3.438,0-6.785-3.368-7.478-7.523l-6.545-39.279C270.046,312.883,272.272,309.513,275.71,309.513Z" transform="translate(-270.613 -272.389)" fill="#d1a555" opacity="0.5"/>
            </g>
          </g>
          <g id="Grupo_1119649" data-name="Grupo 1119649">
            <g id="Grupo_1119648" data-name="Grupo 1119648">
              <g id="Grupo_1119646" data-name="Grupo 1119646" transform="translate(0 112.712)">
                <path id="Trazado_906333" data-name="Trazado 906333" d="M267.391,398.677l8.425,3.828a.582.582,0,0,1,.321.76l-2.651,6.785a1.467,1.467,0,0,1-1.924.724c-2.91-1.383-4.233-2.19-7.938-3.874a98.928,98.928,0,0,1-11.332-6.5c-2.749-1.959-.731-4.7.641-4.1,6.155,2.688,10.074,2.929,12.954,2.245A2.347,2.347,0,0,1,267.391,398.677Z" transform="translate(-250.924 -296.424)" fill="#263238"/>
                <g id="Grupo_1119645" data-name="Grupo 1119645" transform="translate(15.809)">
                  <path id="Trazado_906334" data-name="Trazado 906334" d="M326.974,296.428s-53.862.663-54.695,21.686c-1.2,30.217-5.7,80.388-5.7,80.388l9.083,4.007s15.914-50.347,16.482-73.945c15.112-3.728,54.1.03,58.684-12.268a39.978,39.978,0,0,0,1.721-19.868Z" transform="translate(-266.577 -296.428)" fill="#727997"/>
                  <path id="Trazado_906335" data-name="Trazado 906335" d="M326.974,296.428s-53.862.663-54.695,21.686c-1.2,30.217-5.7,80.388-5.7,80.388l9.083,4.007s15.914-50.347,16.482-73.945c15.112-3.728,54.1.03,58.684-12.268a39.978,39.978,0,0,0,1.721-19.868Z" transform="translate(-266.577 -296.428)" fill="#727997" opacity="0.2"/>
                </g>
              </g>
              <path id="Trazado_906336" data-name="Trazado 906336" d="M338.279,241.122c-.469,1.941-.941,3.691-1.484,5.507q-.8,2.7-1.67,5.371c-1.183,3.562-2.485,7.1-3.988,10.6a87.15,87.15,0,0,1-5.191,10.413,50.553,50.553,0,0,1-3.421,5.1,29.172,29.172,0,0,1-4.692,4.908l-.149.121c-.105.085-.217.167-.328.24a7.688,7.688,0,0,1-3.389,1.2,9.623,9.623,0,0,1-2.3-.016,14.241,14.241,0,0,1-3.094-.742,32.427,32.427,0,0,1-4.52-2.035,73.845,73.845,0,0,1-7.5-4.719c-2.348-1.671-4.609-3.4-6.805-5.2-2.182-1.83-4.321-3.635-6.4-5.623a3.033,3.033,0,0,1-.08-4.318,3.108,3.108,0,0,1,3.714-.553l.049.028c2.384,1.308,4.789,2.7,7.2,3.984,2.4,1.317,4.8,2.617,7.194,3.834,2.381,1.233,4.8,2.377,7.1,3.318a21.57,21.57,0,0,0,3.218,1.067,3.909,3.909,0,0,0,.983.13c.069,0,.019-.041-.216-.024a3.138,3.138,0,0,0-1.433.532l-.477.361a18.67,18.67,0,0,0,2.615-3.189,47.644,47.644,0,0,0,2.434-4.1,94.687,94.687,0,0,0,4.145-9.275c1.243-3.224,2.407-6.523,3.486-9.861,1.1-3.305,2.095-6.774,3.006-10.011l.034-.122a6.188,6.188,0,0,1,7.612-4.253A6.125,6.125,0,0,1,338.279,241.122Z" transform="translate(-250.609 -183.719)" fill="#7d3a1b"/>
              <g id="Grupo_1119647" data-name="Grupo 1119647" transform="translate(43.047 112.712)">
                <path id="Trazado_906337" data-name="Trazado 906337" d="M316.258,403.017h10.105a.64.64,0,0,1,.667.608l.49,7.916a1.584,1.584,0,0,1-1.574,1.584c-3.519-.06-5.2-.265-9.643-.265-2.734,0-8.248.281-12.023.281-3.693,0-3.668-3.7-2.067-4.031,7.174-1.5,9.957-3.571,12.5-5.545A2.55,2.55,0,0,1,316.258,403.017Z" transform="translate(-293.469 -296.424)" fill="#263238"/>
                <path id="Trazado_906338" data-name="Trazado 906338" d="M341.221,296.428s-48.855,4.086-47.654,25.091c1.316,23,22.767,81.5,22.767,81.5h9.88s-8.457-53.573-11.43-76.994c13.77,0,45.708,2.567,50.289-9.731a39.978,39.978,0,0,0,1.721-19.868Z" transform="translate(-293.545 -296.428)" fill="#8890b2"/>
              </g>
              <path id="Trazado_906339" data-name="Trazado 906339" d="M287.736,262.4a16.406,16.406,0,0,0-2.747-3.338c-2,1.855-3.122,7.264-3.122,7.264l2.762.247S287.8,265.553,287.736,262.4Z" transform="translate(-250.615 -183.718)" fill="#ffce73"/>
              <path id="Trazado_906340" data-name="Trazado 906340" d="M277.71,257.54l-3.141-1.351a1.845,1.845,0,0,0-2.3.728l-1.488,2.441a1.8,1.8,0,0,0,.246,2.2l4.313,4.455,7.193-.288a2.293,2.293,0,0,0,1.948-1.233l.831-1.607a2.228,2.228,0,0,0-.717-2.89C282.26,258.465,277.71,257.54,277.71,257.54Z" transform="translate(-250.728 -183.718)" fill="#ffc3bd"/>
              <path id="Trazado_906341" data-name="Trazado 906341" d="M325.941,239.067c-1.442,8.974-3.3,28.434.5,57.738l40.044-.375c-.239-20.3,2.975-39.373,6.113-58a5.552,5.552,0,0,0-4.757-6.411,149.943,149.943,0,0,0-34.572-.028A8.554,8.554,0,0,0,325.941,239.067Z" transform="translate(-250.192 -183.719)" fill="#7d3a1b"/>
              <path id="Trazado_906342" data-name="Trazado 906342" d="M372.751,235.9c1.176,2.887,2.121,5.661,3.089,8.521.96,2.842,1.8,5.727,2.6,8.641.765,2.924,1.5,5.872,2.055,8.9a71.517,71.517,0,0,1,1.228,9.375c.053.809.069,1.648.079,2.488l-.016,1.282a7.677,7.677,0,0,1-1,3.744,6.775,6.775,0,0,1-1.68,1.943,6.394,6.394,0,0,1-1,.665,6.316,6.316,0,0,1-.966.441,8.373,8.373,0,0,1-2.966.511,13.687,13.687,0,0,1-3.537-.547,31.265,31.265,0,0,1-4.893-1.911c-1.464-.714-2.838-1.469-4.182-2.242a111.385,111.385,0,0,1-14.811-10.5,3.03,3.03,0,0,1-.383-4.3,3.1,3.1,0,0,1,3.685-.8l.071.034c5.223,2.465,10.529,4.988,15.7,7.111,1.291.527,2.581,1.02,3.833,1.432a21.484,21.484,0,0,0,3.451.934,1.746,1.746,0,0,0,.831.021,1.546,1.546,0,0,0-.8.135,4.58,4.58,0,0,0-.467.209,4.867,4.867,0,0,0-.547.358,4.309,4.309,0,0,0-.976,1.112,3.574,3.574,0,0,0-.521,1.638l-.059-.905c-.056-.616-.109-1.234-.2-1.875a105.7,105.7,0,0,0-3.77-15.959c-1.623-5.364-3.479-10.848-5.371-16.059l-.018-.052a6.1,6.1,0,0,1,3.725-7.83A6.213,6.213,0,0,1,372.751,235.9Z" transform="translate(-249.977 -183.719)" fill="#7d3a1b"/>
              <path id="Trazado_906343" data-name="Trazado 906343" d="M356.816,211.913l-4.845,3.978-6.6,5.424a21.2,21.2,0,0,1,.419,2.638c.315,3.153-.383,6.053-4.253,7.522a5.1,5.1,0,0,0-3.2,3.094c-.522,1.676.095,3.538,5.41,3.537,7.8,0,11.879-3.437,13.414-5.129a1.351,1.351,0,0,0,.066-1.7C354.144,226.934,355.556,217.334,356.816,211.913Z" transform="translate(-250.052 -183.72)" fill="#ffc3bd"/>
              <path id="Trazado_906344" data-name="Trazado 906344" d="M343.531,236.406a3.052,3.052,0,0,1,.676,1.36,5.561,5.561,0,0,1,1.464-1.36,5.2,5.2,0,0,1,2.8,3.245,14.9,14.9,0,0,1-4.2-1.545,7.24,7.24,0,0,1-2.81.865C341.523,237.24,343.531,236.406,343.531,236.406Z" transform="translate(-250.019 -183.719)" fill="#407bff"/>
              <path id="Trazado_906345" data-name="Trazado 906345" d="M345.629,236.406a12.037,12.037,0,0,1,2.673,5.83s12.93-3.2,12.323-11.543a13.213,13.213,0,0,0-3.584-1.09S354.26,234.6,345.629,236.406Z" transform="translate(-249.977 -183.719)" fill="#ffce73"/>
              <path id="Trazado_906346" data-name="Trazado 906346" d="M343.569,236.406a13.344,13.344,0,0,0-2.846,5.83s-6.632-5.976-.172-11.474a17.1,17.1,0,0,1,3.418-.71S339.677,233.5,343.569,236.406Z" transform="translate(-250.056 -183.719)" fill="#ffce73"/>
              <path id="Trazado_906347" data-name="Trazado 906347" d="M345.3,221.315a21.2,21.2,0,0,1,.419,2.638c2.459-.49,5.747-3.085,6.09-5.573a11.191,11.191,0,0,0,.086-2.489Z" transform="translate(-249.98 -183.719)" opacity="0.2"/>
              <path id="Trazado_906348" data-name="Trazado 906348" d="M338.328,194.687c-6.083,4.27-2.68,14.288,2.509,10.454S343.285,191.207,338.328,194.687Z" transform="translate(-250.083 -183.72)" fill="#263238"/>
              <path id="Trazado_906349" data-name="Trazado 906349" d="M358.844,203.607c-1.685,7.667-2.276,12.227-6.85,15.726a10.317,10.317,0,0,1-16.667-7.343c-.6-7.138,2.253-18.479,10.4-20.65A10.379,10.379,0,0,1,358.844,203.607Z" transform="translate(-250.081 -183.72)" fill="#ffc3bd"/>
              <path id="Trazado_906350" data-name="Trazado 906350" d="M355.265,197.925c-4.294-1.175-15.363,1.615-19.293-2.535-4.215-4.451,1.935-6.614,3.746-5.069-2.295-2.6-1.437-5.378,1.811-5.131,2.368.181,3.124,2.782,3.124,2.782s-.4-4.547,3.678-4.235c3.7.284,3.712,5.224,3.712,5.224s8.832-2.473,11.776,5.873c5.557-.124,5.432,11.457-5.744,15.579C353.538,208.187,353.329,200.287,355.265,197.925Z" transform="translate(-250.088 -183.721)" fill="#263238"/>
              <path id="Trazado_906351" data-name="Trazado 906351" d="M362.365,196.5a1.113,1.113,0,0,1-.2-2.208,1.615,1.615,0,0,0,.65-.812,2.609,2.609,0,0,0,.122-2.083,1.109,1.109,0,0,1,.556-1.474,1.127,1.127,0,0,1,1.489.551,4.861,4.861,0,0,1-.243,4.174,3.271,3.271,0,0,1-2.171,1.833A1.057,1.057,0,0,1,362.365,196.5Z" transform="translate(-249.821 -183.72)" fill="#263238"/>
              <path id="Trazado_906352" data-name="Trazado 906352" d="M359.923,210.716a7.07,7.07,0,0,1-4.253,2.608c-2.19.382-2.855-1.613-1.887-3.549.871-1.743,3.06-4.041,5.084-3.544C360.862,206.72,361.222,209.027,359.923,210.716Z" transform="translate(-249.9 -183.72)" fill="#ffc3bd"/>
              <path id="Trazado_906353" data-name="Trazado 906353" d="M345.493,204.308c-.1.629-.515,1.1-.932,1.05s-.676-.6-.578-1.228.515-1.1.932-1.049S345.591,203.679,345.493,204.308Z" transform="translate(-249.994 -183.72)" fill="#263238"/>
              <path id="Trazado_906354" data-name="Trazado 906354" d="M338.355,203.46c-.1.628-.516,1.1-.932,1.049s-.676-.6-.578-1.227.515-1.1.932-1.05S338.453,202.831,338.355,203.46Z" transform="translate(-250.065 -183.72)" fill="#263238"/>
              <path id="Trazado_906355" data-name="Trazado 906355" d="M340.545,203.712a20.258,20.258,0,0,1-3.011,4.485,3.133,3.133,0,0,0,2.566.616Z" transform="translate(-250.058 -183.72)" fill="#ed847e"/>
              <path id="Trazado_906356" data-name="Trazado 906356" d="M343.006,212.045a5.554,5.554,0,0,0,4.01-1.635.185.185,0,0,0-.017-.263.19.19,0,0,0-.267.017,5.316,5.316,0,0,1-4.429,1.465.187.187,0,1,0-.044.371A6.275,6.275,0,0,0,343.006,212.045Z" transform="translate(-250.013 -183.72)" fill="#263238"/>
              <path id="Trazado_906357" data-name="Trazado 906357" d="M348.381,200.682a.387.387,0,0,0,.168-.085.372.372,0,0,0,.031-.528,3.644,3.644,0,0,0-3.17-1.235.368.368,0,0,0-.307.432.376.376,0,0,0,.435.3,2.89,2.89,0,0,1,2.479,1A.378.378,0,0,0,348.381,200.682Z" transform="translate(-249.983 -183.72)" fill="#263238"/>
              <path id="Trazado_906358" data-name="Trazado 906358" d="M335.794,200.272a.38.38,0,0,0,.345-.072,3.182,3.182,0,0,1,2.689-.723.374.374,0,1,0,.206-.719h0a3.923,3.923,0,0,0-3.374.868.369.369,0,0,0-.049.525A.374.374,0,0,0,335.794,200.272Z" transform="translate(-250.078 -183.72)" fill="#263238"/>
              <path id="Trazado_906359" data-name="Trazado 906359" d="M348.9,256.941l-4.42-2.72a2.819,2.819,0,0,0-3.878.923l-.52.853a2.755,2.755,0,0,0,.286,3.257l3.05,3.466s2.654,6.128,5.732,4.51L351.5,263.2Z" transform="translate(-250.037 -183.718)" fill="#ffc3bd"/>
              <path id="Trazado_906360" data-name="Trazado 906360" d="M353.379,264.776a18.384,18.384,0,0,0-2.311-4.077c-2.219,1.883-4.018,7.885-4.018,7.885l2.716.58A5.027,5.027,0,0,0,353.379,264.776Z" transform="translate(-249.963 -183.718)" fill="#ffce73"/>
            </g>
          </g>
          <g id="Grupo_1119650" data-name="Grupo 1119650" transform="translate(79.731 125.796)">
            <path id="Trazado_906361" data-name="Trazado 906361" d="M387.4,309.512H334.964c-3.438,0-5.664,3.368-4.972,7.524l6.546,39.279c.692,4.155,4.04,7.523,7.478,7.523h36.892Z" transform="translate(-329.866 -309.512)" fill="#d1a554"/>
          </g>
        </g>
      </g>
      <g id="Table" transform="translate(124.006 286.488)">
        <g id="Grupo_1119657" data-name="Grupo 1119657">
          <g id="Grupo_1119656" data-name="Grupo 1119656" transform="translate(6.593 2.548)">
            <g id="Grupo_1119652" data-name="Grupo 1119652" transform="translate(17.174)">
              <path id="Trazado_906363" data-name="Trazado 906363" d="M147.293,413.908h1.514a1.019,1.019,0,0,0,.98-.987l8.334-123.892h-6.259l-5.55,123.764A1.03,1.03,0,0,0,147.293,413.908Z" transform="translate(-146.31 -289.029)" fill="#916e2d"/>
              <path id="Trazado_906364" data-name="Trazado 906364" d="M147.293,413.908h1.514a1.019,1.019,0,0,0,.98-.987l8.334-123.892h-6.259l-5.55,123.764A1.03,1.03,0,0,0,147.293,413.908Z" transform="translate(-146.31 -289.029)" fill="#916e2d" opacity="0.3"/>
            </g>
            <g id="Grupo_1119653" data-name="Grupo 1119653">
              <path id="Trazado_906365" data-name="Trazado 906365" d="M130.289,413.908H131.8a1.019,1.019,0,0,0,.98-.987l8.333-123.892h-6.259l-5.55,123.764A1.03,1.03,0,0,0,130.289,413.908Z" transform="translate(-129.306 -289.029)" fill="#916e2d"/>
              <path id="Trazado_906366" data-name="Trazado 906366" d="M130.289,413.908H131.8a1.019,1.019,0,0,0,.98-.987l8.333-123.892h-6.259l-5.55,123.764A1.03,1.03,0,0,0,130.289,413.908Z" transform="translate(-129.306 -289.029)" fill="#916e2d" opacity="0.3"/>
            </g>
            <g id="Grupo_1119654" data-name="Grupo 1119654" transform="translate(201.9)">
              <path id="Trazado_906367" data-name="Trazado 906367" d="M340.033,413.908H338.52a1.019,1.019,0,0,1-.981-.987l-8.333-123.892h6.259l5.549,123.764A1.03,1.03,0,0,1,340.033,413.908Z" transform="translate(-329.207 -289.029)" fill="#916e2d"/>
              <path id="Trazado_906368" data-name="Trazado 906368" d="M340.033,413.908H338.52a1.019,1.019,0,0,1-.981-.987l-8.333-123.892h6.259l5.549,123.764A1.03,1.03,0,0,1,340.033,413.908Z" transform="translate(-329.207 -289.029)" fill="#916e2d" opacity="0.3"/>
            </g>
            <g id="Grupo_1119655" data-name="Grupo 1119655" transform="translate(219.073)">
              <path id="Trazado_906369" data-name="Trazado 906369" d="M357.037,413.908h-1.513a1.019,1.019,0,0,1-.981-.987L346.21,289.029h6.259l5.55,123.764A1.03,1.03,0,0,1,357.037,413.908Z" transform="translate(-346.21 -289.029)" fill="#916e2d"/>
              <path id="Trazado_906370" data-name="Trazado 906370" d="M357.037,413.908h-1.513a1.019,1.019,0,0,1-.981-.987L346.21,289.029h6.259l5.55,123.764A1.03,1.03,0,0,1,357.037,413.908Z" transform="translate(-346.21 -289.029)" fill="#916e2d" opacity="0.3"/>
            </g>
          </g>
          <rect id="Rectángulo_406552" data-name="Rectángulo 406552" width="243.715" height="2.548" fill="#916e2d"/>
        </g>
      </g>
      <g id="Character_1" data-name="Character 1" transform="translate(82.483 175.166)">
        <g id="Grupo_1119672" data-name="Grupo 1119672" transform="translate(0 0)">
          <g id="Grupo_1119664" data-name="Grupo 1119664" transform="translate(24.004)">
            <g id="Grupo_1119663" data-name="Grupo 1119663">
              <path id="Trazado_906371" data-name="Trazado 906371" d="M118.891,247.019l-2.3,16.77c-.726,5.584-1.485,11.182-2.028,16.68-.077.692-.127,1.367-.184,2.046l-.084,1.018a2.2,2.2,0,0,0-.035-.5,2.122,2.122,0,0,0-.117-.476,1.991,1.991,0,0,0-.151-.35,1.5,1.5,0,0,0-.14-.226c-.179-.227-.2-.2-.15-.147a2.094,2.094,0,0,0,.343.284,10.154,10.154,0,0,0,1.338.775,53.85,53.85,0,0,0,7.415,2.725c5.3,1.592,10.861,2.97,16.353,4.31l-.621,4.777a123.355,123.355,0,0,1-17.515-1.8,50.867,50.867,0,0,1-9-2.353,19.1,19.1,0,0,1-2.495-1.158,10.7,10.7,0,0,1-1.409-.947,7.614,7.614,0,0,1-1.612-1.7,6.429,6.429,0,0,1-.764-1.53,6.875,6.875,0,0,1-.239-.994,7.578,7.578,0,0,1-.06-1.031l.025-1.11c.017-.74.029-1.485.066-2.21.239-5.843.77-11.544,1.4-17.246s1.35-11.35,2.253-17.029Z" transform="translate(-105.433 -175.16)" fill="#7f3e3b"/>
              <path id="Trazado_906372" data-name="Trazado 906372" d="M151.584,294.969l-3.7,3.351a2.887,2.887,0,0,1-3.176.462l-4.095-1.951s-6.07-.249-6.936-3.92l1.57-2.853,9.4-1.035a4.423,4.423,0,0,1,2.77.61l3.875,2.343A1.869,1.869,0,0,1,151.584,294.969Z" transform="translate(-105.151 -175.158)" fill="#7f3e3b"/>
              <path id="Trazado_906373" data-name="Trazado 906373" d="M129.474,212.564c.961,5.752,1.776,16.264-2.381,19.961,0,0,10.143,5.258,16.794,14.436,7.113-5.58,1.156-13.907,1.156-13.907-6.394-1.713-6.086-6.439-4.831-10.849Z" transform="translate(-105.217 -175.161)" fill="#7f3e3b"/>
              <g id="Grupo_1119658" data-name="Grupo 1119658" transform="translate(17.848 52.968)">
                <path id="Trazado_906374" data-name="Trazado 906374" d="M148.494,236.59s-.535-4.877-3.224-7.288c-2.258-2.026-14.111-.9-17.844-.488a2.038,2.038,0,0,0-1.615,1.139l-2.708,5.6Z" transform="translate(-123.104 -228.129)" fill="#407bff"/>
                <path id="Trazado_906375" data-name="Trazado 906375" d="M148.494,236.59s-.535-4.877-3.224-7.288c-2.258-2.026-14.111-.9-17.844-.488a2.038,2.038,0,0,0-1.615,1.139l-2.708,5.6Z" transform="translate(-123.104 -228.129)" fill="#fff" opacity="0.8"/>
              </g>
              <path id="Trazado_906376" data-name="Trazado 906376" d="M115.813,234.022c-7.313,2.356-8.884,12.064-8.226,19.621l14.761,8.99s3.583-11.033,3.554-16.926C125.869,239.436,120.779,232.422,115.813,234.022Z" transform="translate(-105.413 -175.16)" fill="#ffb937"/>
              <g id="Grupo_1119659" data-name="Grupo 1119659" transform="translate(0.804 77.128)">
                <path id="Trazado_906377" data-name="Trazado 906377" d="M118.574,260.43a1.417,1.417,0,0,1-.97-.39,1.446,1.446,0,0,1-.162-.21.917.917,0,0,1-.131-.24,1.965,1.965,0,0,1-.082-.25,1.2,1.2,0,0,1-.029-.26,1.365,1.365,0,0,1,.4-.96,1.418,1.418,0,0,1,1.939,0,1.365,1.365,0,0,1,.4.96,1.142,1.142,0,0,1-.03.26,1.035,1.035,0,0,1-.081.25.9.9,0,0,1-.121.24c-.051.069-.111.14-.172.21A1.383,1.383,0,0,1,118.574,260.43Z" transform="translate(-106.119 -252.287)" fill="#fff"/>
                <path id="Trazado_906378" data-name="Trazado 906378" d="M115.825,259.51h.01a1.364,1.364,0,0,1-.879-1.22h0a1.361,1.361,0,0,1-1.485.22h0a1.367,1.367,0,0,1-.8-1.26h0a1.358,1.358,0,0,1-1.5.13h0a1.347,1.347,0,0,1-.716-1.3h0a1.388,1.388,0,0,1-1.5.05h0a1.352,1.352,0,0,1-.465-1.86h0a1.386,1.386,0,0,1,1.888-.46h0a1.39,1.39,0,0,1,.658,1.27h0a1.368,1.368,0,0,1,1.434-.09h0a1.368,1.368,0,0,1,.726,1.23h0a1.376,1.376,0,0,1,1.425-.17h0a1.362,1.362,0,0,1,.8,1.179h0a1.411,1.411,0,0,1,1.414-.25h0a1.358,1.358,0,0,1,.768,1.761h0a1.36,1.36,0,0,1-1.273.86h0A1.521,1.521,0,0,1,115.825,259.51Z" transform="translate(-106.208 -252.287)" fill="#fff"/>
                <path id="Trazado_906379" data-name="Trazado 906379" d="M107.6,255a1.282,1.282,0,0,1-.274-.03,1.062,1.062,0,0,1-.253-.08.952.952,0,0,1-.241-.12,1.645,1.645,0,0,1-.2-.17,1.04,1.04,0,0,1-.172-.2c-.05-.08-.091-.159-.131-.239a2.393,2.393,0,0,1-.081-.25,2.468,2.468,0,0,1-.021-.27,2.085,2.085,0,0,1,.021-.26,2.563,2.563,0,0,1,.081-.26,1,1,0,0,1,.131-.23,1.51,1.51,0,0,1,.172-.21,1.645,1.645,0,0,1,.2-.17,1.318,1.318,0,0,1,.241-.12,1.729,1.729,0,0,1,.253-.08,1.418,1.418,0,0,1,1.233.37,1.584,1.584,0,0,1,.172.21,1.7,1.7,0,0,1,.131.23,1.31,1.31,0,0,1,.071.26,1.08,1.08,0,0,1,.03.26,1.243,1.243,0,0,1-.03.27,1.221,1.221,0,0,1-.071.25c-.04.08-.081.159-.131.239a1.076,1.076,0,0,1-.172.2A1.387,1.387,0,0,1,107.6,255Z" transform="translate(-106.229 -252.288)" fill="#fff"/>
              </g>
              <path id="Trazado_906380" data-name="Trazado 906380" d="M162.271,248.131c-.618,8.318-2.487,22.326-7.091,45.9l-39.53-1.164c1.037-14.449-.529-25.222-4.1-50.509a8.238,8.238,0,0,1,7.381-9.313c2.538-.259,5.421-.472,8.323-.525a126.918,126.918,0,0,1,17.951.529c1.926.231,3.916.532,5.816.853A13.459,13.459,0,0,1,162.271,248.131Z" transform="translate(-105.373 -175.16)" fill="#ffb937"/>
              <path id="Trazado_906381" data-name="Trazado 906381" d="M149.7,201.976c.094.772.583,1.349,1.093,1.289s.847-.736.753-1.508-.583-1.349-1.092-1.289S149.607,201.2,149.7,201.976Z" transform="translate(-104.991 -175.162)" fill="#263238"/>
              <path id="Trazado_906382" data-name="Trazado 906382" d="M150.229,200.538l1.808-.757S151.252,201.344,150.229,200.538Z" transform="translate(-104.985 -175.162)" fill="#263238"/>
              <path id="Trazado_906383" data-name="Trazado 906383" d="M149.967,203.174a20.759,20.759,0,0,0,3.376,4.6,3.4,3.4,0,0,1-2.718.846Z" transform="translate(-104.988 -175.162)" fill="#630f0f"/>
              <path id="Trazado_906384" data-name="Trazado 906384" d="M149.826,195.206a.452.452,0,0,0,.034-.451.463.463,0,0,0-.614-.217,4.532,4.532,0,0,0-2.627,3.258.461.461,0,0,0,.913.124h0a3.623,3.623,0,0,1,2.109-2.557A.457.457,0,0,0,149.826,195.206Z" transform="translate(-105.021 -175.162)" fill="#263238"/>
              <path id="Trazado_906385" data-name="Trazado 906385" d="M123.067,201.8c1.736,9.413,2.267,13.435,7.694,17.729,8.163,6.458,19.46,2.288,20.6-7.449,1.025-8.764-1.986-22.686-11.818-25.348A13.127,13.127,0,0,0,123.067,201.8Z" transform="translate(-105.259 -175.162)" fill="#7f3e3b"/>
              <path id="Trazado_906386" data-name="Trazado 906386" d="M144.122,204.437c1.6,5.172,5.422,17.678-3.014,20.462-6.6,2.178-27.262,3.92-29.641-8.067-2.46-12.395,8.7-21.217,8.7-21.217s-8.844-7.181-3.177-15c7.3-10.084,24.787-4.382,29.978,2.743C152.015,190.279,144.122,204.437,144.122,204.437Z" transform="translate(-105.376 -175.163)" fill="#263238"/>
              <path id="Trazado_906387" data-name="Trazado 906387" d="M128.15,226.618a29.691,29.691,0,0,1-11.036-2.156c-4.692-2-7.432-5.093-7.92-8.941-1.657-13.073,10.627-20.255,10.751-20.326l.489.838c-.118.069-11.846,6.941-10.27,19.366.56,4.409,4.3,6.878,7.337,8.173,6,2.557,13.745,2.543,15.626,1.178l.578.781C132.726,226.241,130.662,226.618,128.15,226.618Z" transform="translate(-105.397 -175.162)" fill="#263238"/>
              <path id="Trazado_906388" data-name="Trazado 906388" d="M116.316,193.738c-.111,1.672-1.513,3.969,4.342,4.832s13.991.782,15.659-.612,3.314-4.728-.177-4.43S116.505,190.88,116.316,193.738Z" transform="translate(-105.327 -175.162)" fill="#ffb937"/>
              <path id="Trazado_906389" data-name="Trazado 906389" d="M140.637,205.911a7.56,7.56,0,0,0,4.482,3.625c2.55.74,3.858-1.511,3.176-3.91-.613-2.16-2.679-5.148-5.251-4.835A3.365,3.365,0,0,0,140.637,205.911Z" transform="translate(-105.086 -175.162)" fill="#7f3e3b"/>
              <path id="Trazado_906390" data-name="Trazado 906390" d="M201.686,403.56l9.373-.176-4.538-23.166-9.373.176Z" transform="translate(-104.516 -175.154)" fill="#7f3e3b"/>
              <path id="Trazado_906391" data-name="Trazado 906391" d="M208.67,393.473c2.48,9.245,11.591,19.033,11.591,19.033l-13.006-3.272-5.684-8,.995-2.116Z" transform="translate(-104.472 -175.154)" fill="#7f3e3b"/>
              <path id="Trazado_906392" data-name="Trazado 906392" d="M199.455,397.77a18.664,18.664,0,0,0,.189,3.235c.548,3.824,2.253,13.962,2.253,13.962l.883.006a89.83,89.83,0,0,1-.715-9.34c.121-2.514,1.76,1.932,3.74,4.448s5.544,4.806,11.31,4.984c6.752.209,9.442-.071,7.279-1.74s-6.764-2.758-6.764-2.758a20.508,20.508,0,0,1-9.109-7.541,23.706,23.706,0,0,0-8.378-7.178C199.6,395.942,199.486,396.954,199.455,397.77Z" transform="translate(-104.493 -175.154)" fill="#263238"/>
              <path id="Trazado_906393" data-name="Trazado 906393" d="M234.6,372.091l11.964.366-13.381-19.7L224.9,359.77Z" transform="translate(-104.239 -175.156)" fill="#7f3e3b"/>
              <path id="Trazado_906394" data-name="Trazado 906394" d="M237.32,363.727c8.692,4.009,22.615,3.22,22.615,3.22l-11.317,8.989-9.7-.711-1.025-2.135Z" transform="translate(-104.114 -175.155)" fill="#7f3e3b"/>
              <path id="Trazado_906395" data-name="Trazado 906395" d="M235.508,373.941a18.932,18.932,0,0,0,2.516,2.067c3.174,2.189,11.744,7.8,11.744,7.8l.549-.684a90.484,90.484,0,0,1-7.367-5.832c-1.79-1.815,2.519-.05,5.608.13s6.987-1.029,10.681-5.4c4.324-5.115,5.777-7.4,3.2-6.859s-6.223,3.38-6.223,3.38A18.348,18.348,0,0,1,245,370.476a21.18,21.18,0,0,0-10.5,1.615C234.243,372.578,234.923,373.359,235.508,373.941Z" transform="translate(-104.143 -175.155)" fill="#263238"/>
              <path id="Trazado_906396" data-name="Trazado 906396" d="M141.374,293.351s64-9.373,70.624,6.869c11.528,28.261,27.807,60.643,27.807,60.643l-7.861,6.438s-27.9-25.575-37.83-53.969c-11.857,3.8-49.58,16.021-63.4,16.021-14.757,0-20.784-12.458-15.454-33.143a4.191,4.191,0,0,1,4.095-3.112C128.649,293.143,141.374,293.351,141.374,293.351Z" transform="translate(-105.354 -175.158)" fill="#263238"/>
              <path id="Trazado_906397" data-name="Trazado 906397" d="M147.46,301.6s52.526-1.566,52.969,16.86c.732,30.47,9.405,74.132,9.405,74.132l-9.581.883s-15.664-34.73-19.808-64.5c-18.71,1.2-35.96.372-49.777.372-15.484,0-16.764-16.838-1.692-36.483C138.19,292.87,147.46,301.6,147.46,301.6Z" transform="translate(-105.304 -175.158)" fill="#263238"/>
              <path id="Trazado_906398" data-name="Trazado 906398" d="M115.1,290.555l-1.116,3.473c-.146.268.171.555.627.568l40.686,1.2c.357.011.656-.153.686-.374l.462-3.493c.032-.242-.271-.457-.661-.468l-40.031-1.179A.72.72,0,0,0,115.1,290.555Z" transform="translate(-105.348 -175.158)" fill="#fff"/>
              <g id="Grupo_1119660" data-name="Grupo 1119660" transform="translate(13.569 114.936)">
                <path id="Trazado_906399" data-name="Trazado 906399" d="M120.3,295.145l-1.072-.032c-.214-.006-.373-.12-.355-.253l.639-4.536c.019-.133.209-.237.422-.23l1.073.031c.213.006.373.12.355.253l-.64,4.537C120.7,295.048,120.509,295.151,120.3,295.145Z" transform="translate(-118.868 -290.094)" fill="#263238"/>
                <path id="Trazado_906400" data-name="Trazado 906400" d="M151.908,296.085l-1.072-.031c-.214-.007-.374-.121-.355-.253l.639-4.537c.019-.133.209-.236.422-.23l1.073.031c.213.007.373.12.354.253l-.639,4.537C152.312,295.988,152.122,296.091,151.908,296.085Z" transform="translate(-118.551 -290.094)" fill="#263238"/>
                <path id="Trazado_906401" data-name="Trazado 906401" d="M136.1,295.615l-1.073-.032c-.213-.006-.373-.12-.354-.252l.639-4.537c.018-.133.208-.237.422-.23l1.072.031c.214.007.374.12.355.253l-.639,4.537C136.505,295.518,136.315,295.621,136.1,295.615Z" transform="translate(-118.71 -290.094)" fill="#263238"/>
              </g>
              <g id="Grupo_1119661" data-name="Grupo 1119661" transform="translate(68.908 76.449)">
                <path id="Trazado_906402" data-name="Trazado 906402" d="M184.432,251.609h25.552a1.214,1.214,0,0,1,1.176,1.551l-9.549,32.449a1.221,1.221,0,0,1-1.175.873H174.884a1.214,1.214,0,0,1-1.176-1.551l9.549-32.449A1.222,1.222,0,0,1,184.432,251.609Z" transform="translate(-173.659 -251.609)" fill="#7a4f00"/>
                <path id="Trazado_906403" data-name="Trazado 906403" d="M184.889,252.8l24.834.583-9.807,30.605-24.834-.583Z" transform="translate(-173.645 -251.609)" fill="#e0e0e0"/>
                <path id="Trazado_906404" data-name="Trazado 906404" d="M184.11,252.5l24.841.1-9.2,30.789-24.841-.1Z" transform="translate(-173.646 -251.609)" fill="#fff"/>
              </g>
              <path id="Trazado_906405" data-name="Trazado 906405" d="M161.94,253.136c.051.975.143,2.188.234,3.3.1,1.133.225,2.267.376,3.4.283,2.259.663,4.5,1.13,6.679a47.8,47.8,0,0,0,1.8,6.306,30.21,30.21,0,0,0,1.232,2.875c.217.466.466.9.709,1.328l.37.615c-.031-.041-.075-.044-.04-.008a4.512,4.512,0,0,0,1.609.932,19.548,19.548,0,0,0,2.91.862,56.733,56.733,0,0,0,6.754,1.033c4.665.45,9.538.674,14.314.771l.482,4.793a92.455,92.455,0,0,1-15.057,1.685,54.448,54.448,0,0,1-7.874-.32,27.982,27.982,0,0,1-4.229-.847,12.651,12.651,0,0,1-4.831-2.468,8.624,8.624,0,0,1-1.268-1.357l-.65-.9c-.407-.594-.81-1.194-1.162-1.8a31.372,31.372,0,0,1-1.906-3.7,48.3,48.3,0,0,1-2.608-7.563,64.509,64.509,0,0,1-1.5-7.636q-.253-1.916-.417-3.84c-.114-1.309-.183-2.518-.2-3.968Z" transform="translate(-104.966 -175.16)" fill="#7f3e3b"/>
              <path id="Trazado_906406" data-name="Trazado 906406" d="M158.68,238.389c6.36,5.929,4.828,21.381,4.828,21.381l-12.187,2.109s-7.523-11.078-4.879-15.724C149.2,241.318,155.239,235.181,158.68,238.389Z" transform="translate(-105.029 -175.16)" fill="#ffb937"/>
              <g id="Grupo_1119662" data-name="Grupo 1119662" transform="translate(44.922 83.255)">
                <path id="Trazado_906407" data-name="Trazado 906407" d="M163.344,261.13a1.41,1.41,0,0,1-.97-.4,1.156,1.156,0,0,1-.172-.209,1.557,1.557,0,0,1-.121-.23,1.931,1.931,0,0,1-.081-.261,2.071,2.071,0,0,1-.021-.259,1.356,1.356,0,0,1,.395-.96,1.747,1.747,0,0,1,.212-.17.98.98,0,0,1,.232-.12,1.228,1.228,0,0,1,.262-.08,1.408,1.408,0,0,1,1.233.37,1.365,1.365,0,0,1,.4.96,1.071,1.071,0,0,1-.03.259,1.109,1.109,0,0,1-.081.261,1,1,0,0,1-.121.23,1.156,1.156,0,0,1-.172.209A1.393,1.393,0,0,1,163.344,261.13Z" transform="translate(-149.789 -258.414)" fill="#fff"/>
                <path id="Trazado_906408" data-name="Trazado 906408" d="M152.37,261.85a1.361,1.361,0,0,1,1.251-1.47h0a1.356,1.356,0,0,1,1.284.64h0a1.388,1.388,0,0,1,1.1-.92h0a1.4,1.4,0,0,1,1.323.57h0a1.351,1.351,0,0,1,1.04-.97h0a1.372,1.372,0,0,1,1.352.49h0a1.376,1.376,0,0,1,.991-1.041v.011a1.364,1.364,0,0,1,1.677.96h0a1.358,1.358,0,0,1-.981,1.659h0a1.386,1.386,0,0,1-1.423-.469h0a1.382,1.382,0,0,1-1.071,1.049h0a1.4,1.4,0,0,1-1.394-.559h0a1.362,1.362,0,0,1-1.122.99h0a1.383,1.383,0,0,1-1.362-.63h0a1.383,1.383,0,0,1-1.182.92h-.112A1.375,1.375,0,0,1,152.37,261.85Z" transform="translate(-149.885 -258.414)" fill="#fff"/>
                <path id="Trazado_906409" data-name="Trazado 906409" d="M151.284,263.24a1.331,1.331,0,0,1-.273-.03,1.855,1.855,0,0,1-.253-.08,1.82,1.82,0,0,1-.242-.12,1.74,1.74,0,0,1-.2-.17.892.892,0,0,1-.172-.21,1.719,1.719,0,0,1-.131-.231,1.178,1.178,0,0,1-.071-.259,1.079,1.079,0,0,1-.03-.26,1.245,1.245,0,0,1,.03-.271,1.12,1.12,0,0,1,.071-.25c.04-.08.081-.159.131-.239a1.033,1.033,0,0,1,.172-.2,1.557,1.557,0,0,1,.2-.17,1.093,1.093,0,0,1,.242-.12,1.018,1.018,0,0,1,.253-.08,1.362,1.362,0,0,1,1.232.37,1.034,1.034,0,0,1,.172.2c.051.08.09.159.131.239a2.473,2.473,0,0,1,.081.25c.009.091.02.181.02.271a2.308,2.308,0,0,1-.02.26,2.549,2.549,0,0,1-.081.259,1.832,1.832,0,0,1-.131.231,1.154,1.154,0,0,1-.172.21A1.387,1.387,0,0,1,151.284,263.24Z" transform="translate(-149.91 -258.414)" fill="#fff"/>
              </g>
              <path id="Trazado_906410" data-name="Trazado 906410" d="M204.348,276.218l-4.217-.281a4.791,4.791,0,0,0-2.973.79l-7.749,5.153-.059,3.248c2.483,2.859,7.981.3,7.981.3l5.1-.162a2.04,2.04,0,0,0,1.851-1.327l1.845-5.013A2.022,2.022,0,0,0,204.348,276.218Z" transform="translate(-104.594 -175.159)" fill="#7f3e3b"/>
            </g>
          </g>
          <g id="Grupo_1119671" data-name="Grupo 1119671" transform="translate(0 97.23)">
            <g id="Grupo_1119669" data-name="Grupo 1119669" transform="translate(20.715 96.663)">
              <g id="Grupo_1119665" data-name="Grupo 1119665" transform="translate(14.646)">
                <path id="Trazado_906411" data-name="Trazado 906411" d="M117.6,418.409h1.144a.99.99,0,0,0,.906-.92l7.03-48.441h-5.338l-4.655,48.12A1.055,1.055,0,0,0,117.6,418.409Z" transform="translate(-116.678 -369.048)" fill="#7a4f00"/>
                <path id="Trazado_906412" data-name="Trazado 906412" d="M117.6,418.409h1.144a.99.99,0,0,0,.906-.92l7.03-48.441h-5.338l-4.655,48.12A1.055,1.055,0,0,0,117.6,418.409Z" transform="translate(-116.678 -369.048)" fill="#7a4f00" opacity="0.3"/>
              </g>
              <g id="Grupo_1119666" data-name="Grupo 1119666">
                <path id="Trazado_906413" data-name="Trazado 906413" d="M103.1,418.409h1.144a.989.989,0,0,0,.906-.92l7.03-48.441h-5.338l-4.655,48.12A1.056,1.056,0,0,0,103.1,418.409Z" transform="translate(-102.177 -369.048)" fill="#7a4f00"/>
                <path id="Trazado_906414" data-name="Trazado 906414" d="M103.1,418.409h1.144a.989.989,0,0,0,.906-.92l7.03-48.441h-5.338l-4.655,48.12A1.056,1.056,0,0,0,103.1,418.409Z" transform="translate(-102.177 -369.048)" fill="#7a4f00" opacity="0.3"/>
              </g>
              <g id="Grupo_1119667" data-name="Grupo 1119667" transform="translate(73.446)">
                <path id="Trazado_906415" data-name="Trazado 906415" d="M183.975,418.409h-1.143a.988.988,0,0,1-.906-.92l-7.03-48.441h5.337l4.656,48.12A1.056,1.056,0,0,1,183.975,418.409Z" transform="translate(-174.896 -369.048)" fill="#7a4f00"/>
                <path id="Trazado_906416" data-name="Trazado 906416" d="M183.975,418.409h-1.143a.988.988,0,0,1-.906-.92l-7.03-48.441h5.337l4.656,48.12A1.056,1.056,0,0,1,183.975,418.409Z" transform="translate(-174.896 -369.048)" fill="#7a4f00" opacity="0.3"/>
              </g>
              <g id="Grupo_1119668" data-name="Grupo 1119668" transform="translate(88.091)">
                <path id="Trazado_906417" data-name="Trazado 906417" d="M198.476,418.409h-1.144a.99.99,0,0,1-.906-.92l-7.03-48.441h5.338l4.656,48.12A1.056,1.056,0,0,1,198.476,418.409Z" transform="translate(-189.396 -369.048)" fill="#7a4f00"/>
                <path id="Trazado_906418" data-name="Trazado 906418" d="M198.476,418.409h-1.144a.99.99,0,0,1-.906-.92l-7.03-48.441h5.338l4.656,48.12A1.056,1.056,0,0,1,198.476,418.409Z" transform="translate(-189.396 -369.048)" fill="#7a4f00" opacity="0.3"/>
              </g>
            </g>
            <g id="Grupo_1119670" data-name="Grupo 1119670">
              <path id="Trazado_906419" data-name="Trazado 906419" d="M218.534,311.63H182.578c-6.379-21.935-29.333-39.241-52.84-39.241H118.059c-24.606,0-40.484,18.957-35.467,42.342a47.211,47.211,0,0,0,4.575,12.339l5.67,34.029c.732,4.392,4.271,7.952,7.905,7.952H208.966c3.633,0,7.172-3.561,7.9-7.953l6.917-41.517C224.52,315.19,222.168,311.63,218.534,311.63Z" transform="translate(-81.667 -272.389)" fill="#d1a554"/>
            </g>
          </g>
        </g>
      </g>
      <g id="Bubble_Speech" data-name="Bubble Speech" transform="translate(168.419 171.35)">
        <g id="Grupo_1119676" data-name="Grupo 1119676">
          <g id="Grupo_1119673" data-name="Grupo 1119673" transform="translate(0 34.192)">
            <rect id="Rectángulo_406554" data-name="Rectángulo 406554" width="66.759" height="28.683" rx="3.365" transform="translate(2.387 2.363)" fill="#efb499"/>
            <path id="Trazado_906422" data-name="Trazado 906422" d="M240.069,177.68H183.78a1.534,1.534,0,0,1-1.542-1.527h0a1.534,1.534,0,0,1,1.542-1.527h56.289a1.534,1.534,0,0,1,1.542,1.527h0A1.534,1.534,0,0,1,240.069,177.68Z" transform="translate(-176.158 -159.449)" fill="#fff"/>
            <path id="Trazado_906423" data-name="Trazado 906423" d="M228.023,187.069H183.78a1.534,1.534,0,0,1-1.542-1.526h0a1.534,1.534,0,0,1,1.542-1.527h44.243a1.534,1.534,0,0,1,1.542,1.527h0A1.534,1.534,0,0,1,228.023,187.069Z" transform="translate(-176.158 -162.499)" fill="#fff"/>
            <path id="Trazado_906424" data-name="Trazado 906424" d="M202.762,168.29H183.78a1.534,1.534,0,0,1-1.542-1.527h0a1.534,1.534,0,0,1,1.542-1.527h18.982a1.534,1.534,0,0,1,1.542,1.527h0A1.534,1.534,0,0,1,202.762,168.29Z" transform="translate(-176.158 -156.398)" fill="#fff"/>
            <path id="Trazado_906425" data-name="Trazado 906425" d="M239.664,168.29H220.682a1.534,1.534,0,0,1-1.542-1.527h0a1.534,1.534,0,0,1,1.542-1.527h18.982a1.534,1.534,0,0,1,1.542,1.527h0A1.534,1.534,0,0,1,239.664,168.29Z" transform="translate(-187.898 -156.398)" fill="#fff"/>
            <path id="Trazado_906426" data-name="Trazado 906426" d="M182.238,195.407v7.313a1.712,1.712,0,0,0,2.758,1.34l11.319-8.674Z" transform="translate(-176.158 -166.192)" fill="#efb499"/>
          </g>
          <g id="Grupo_1119675" data-name="Grupo 1119675" transform="translate(91.13)">
            <g id="Grupo_1119674" data-name="Grupo 1119674">
              <path id="Trazado_906427" data-name="Trazado 906427" d="M292.739,102H230.57a2.283,2.283,0,0,0-2.295,2.272v24.14a2.283,2.283,0,0,0,2.295,2.272h49.112l8.9,6.821a1.711,1.711,0,0,0,2.757-1.34v-5.482h1.4a2.284,2.284,0,0,0,2.295-2.272v-24.14A2.284,2.284,0,0,0,292.739,102Z" transform="translate(-227.933 -101.665)" fill="#fff" stroke="#998b2f" stroke-width="1"/>
              <path id="Trazado_906428" data-name="Trazado 906428" d="M289.468,138.039a2.053,2.053,0,0,1-1.253-.427l-8.81-6.75h-49a2.626,2.626,0,0,1-2.636-2.609v-24.14a2.626,2.626,0,0,1,2.636-2.609h62.169a2.626,2.626,0,0,1,2.635,2.609v24.14a2.626,2.626,0,0,1-2.635,2.609h-1.057v5.144a2.017,2.017,0,0,1-1.148,1.824A2.074,2.074,0,0,1,289.468,138.039ZM230.41,102.178a1.947,1.947,0,0,0-1.954,1.934v24.14a1.947,1.947,0,0,0,1.954,1.934h49.228l8.993,6.891a1.352,1.352,0,0,0,1.442.146,1.329,1.329,0,0,0,.766-1.218v-5.819h1.739a1.946,1.946,0,0,0,1.954-1.934v-24.14a1.946,1.946,0,0,0-1.954-1.934Z" transform="translate(-227.774 -101.503)" fill="#407bff"/>
            </g>
            <path id="Trazado_906429" data-name="Trazado 906429" d="M274.559,124.037h29.474a1.534,1.534,0,0,0,1.541-1.527h0a1.534,1.534,0,0,0-1.541-1.527H274.559a1.534,1.534,0,0,0-1.542,1.527h0A1.534,1.534,0,0,0,274.559,124.037Z" transform="translate(-242.167 -107.831)" fill="#7d3a1b"/>
            <path id="Trazado_906430" data-name="Trazado 906430" d="M244.382,124.037h14.593a1.534,1.534,0,0,0,1.541-1.527h0a1.534,1.534,0,0,0-1.541-1.527H244.382a1.534,1.534,0,0,0-1.542,1.527h0A1.534,1.534,0,0,0,244.382,124.037Z" transform="translate(-232.567 -107.831)" fill="#7d3a1b"/>
            <rect id="Rectángulo_406555" data-name="Rectángulo 406555" width="47.326" height="3.053" rx="1.526" transform="translate(63.407 22.545) rotate(180)" fill="#7d3a1b"/>
            <path id="Trazado_906431" data-name="Trazado 906431" d="M235.232,114.647h56.29a1.534,1.534,0,0,0,1.541-1.527h0a1.534,1.534,0,0,0-1.541-1.527h-56.29a1.535,1.535,0,0,0-1.542,1.527h0A1.534,1.534,0,0,0,235.232,114.647Z" transform="translate(-229.656 -104.781)" fill="#7d3a1b"/>
          </g>
        </g>
      </g>
    </g>
  </g>
</svg>
