<svg xmlns="http://www.w3.org/2000/svg" width="70" height="70" viewBox="0 0 70 70">
  <g id="Grupo_1118288" data-name="Grupo 1118288" transform="translate(-1230 -6501)">
    <g id="Grupo_1099489" data-name="Grupo 1099489" transform="translate(961 5543)">
      <circle id="Elipse_5614" data-name="Elipse 5614" cx="35" cy="35" r="35" transform="translate(269 958)" fill="#fff"/>
    </g>
    <g id="Grupo_1119680" data-name="Grupo 1119680" transform="translate(887.463 6817.945)">
      <path id="Trazado_906437" data-name="Trazado 906437" d="M555.056-268.6c-.98,0-1.874.005-2.767,0a2.1,2.1,0,0,1-2.372-2.356q-.005-3.1,0-6.2a2.073,2.073,0,0,1,2.3-2.3q6.171-.005,12.341,0a2.078,2.078,0,0,1,2.311,2.284q.019,3.136,0,6.272a2.066,2.066,0,0,1-2.293,2.3c-1.731.013-3.462-.019-5.192.023a1.63,1.63,0,0,0-.979.42c-.723.673-1.365,1.432-2.083,2.11a1.075,1.075,0,0,1-.846.319c-.207-.073-.374-.506-.4-.8C555.016-267.166,555.056-267.819,555.056-268.6Zm3.309-6.509a1.1,1.1,0,0,0-1.035,1.112,1.054,1.054,0,0,0,1.094,1.033,1.07,1.07,0,0,0,1.042-1.091A1.123,1.123,0,0,0,558.365-275.1Zm4.642,1.093a1.061,1.061,0,0,0-1.034-1.1,1.087,1.087,0,0,0-1.066,1.075,1.045,1.045,0,0,0,1.044,1.075A1.021,1.021,0,0,0,563.006-274.012Zm-8.192,1.053a1.053,1.053,0,0,0,1.068-1.056,1.09,1.09,0,0,0-1.051-1.093,1.091,1.091,0,0,0-1.067,1.076A1.053,1.053,0,0,0,554.814-272.958Z" transform="translate(-167.777 -18.764)" fill="#7a4f00"/>
      <path id="Trazado_906438" data-name="Trazado 906438" d="M459.273-189.615h1.233v.743q0,6.779,0,13.558c0,1.532-.685,2.229-2.214,2.232q-5.261.01-10.522,0h-.85v3.069c.875,0,1.743,0,2.611,0a1.251,1.251,0,0,1,.652.085.913.913,0,0,1,.39.613c0,.164-.266.38-.461.481a1.387,1.387,0,0,1-.6.045q-4.722,0-9.443,0l-.337,0c-.406,0-.738-.142-.739-.6s.325-.617.728-.624c.7-.012,1.394-.005,2.091-.006h.849v-3.069H440.92c-.854,0-1.711-.041-2.562.01a3.311,3.311,0,0,1-3.006-1,6.525,6.525,0,0,0-2.034-1.079l1.633-2.976h24.322Z" transform="translate(-66.909 -96.484)" fill="#7a4f00"/>
      <path id="Trazado_906439" data-name="Trazado 906439" d="M355.993-65.145c.039-1.733-.24-3.477.511-5.119a3.658,3.658,0,0,1,3.708-2.463c1.66.068,3.325.014,4.987.014a3.751,3.751,0,0,1,4.093,3.2,35.8,35.8,0,0,1,.4,4.371Z" transform="translate(0 -197.6)" fill="#7a4f00"/>
      <path id="Trazado_906440" data-name="Trazado 906440" d="M475.227-147.377a5.576,5.576,0,0,1,1.107-4.224,2.693,2.693,0,0,1,2.178-1.015c1.549.021,3.1.005,4.649.006a3.027,3.027,0,0,1,3.275,2.237,21.364,21.364,0,0,1,.567,3Z" transform="translate(-103.145 -128.492)" fill="#7a4f00"/>
      <path id="Trazado_906441" data-name="Trazado 906441" d="M385.53-135.4a3.875,3.875,0,0,1-3.885,3.906,3.876,3.876,0,0,1-3.841-3.884,3.889,3.889,0,0,1,3.887-3.911A3.882,3.882,0,0,1,385.53-135.4Z" transform="translate(-18.885 -140.018)" fill="#7a4f00"/>
      <path id="Trazado_906442" data-name="Trazado 906442" d="M404.653-257.747c.314-1.914.314-1.914.948-2.512a4.463,4.463,0,0,0,4.022,2.488,4.35,4.35,0,0,0,3.981-2.45c.716.484.808.721.963,2.492h6v1.222H404.225c-.968,0-1.148.176-1.149,1.13q0,4.721,0,9.443v.773h-1.22v-.723q0-4.721,0-9.443c0-1.708.624-2.337,2.353-2.379C404.361-257.71,404.513-257.733,404.653-257.747Z" transform="translate(-39.692 -35.371)" fill="#7a4f00"/>
      <path id="Trazado_906443" data-name="Trazado 906443" d="M440.131-297.6a3.55,3.55,0,0,1-3.518,3.591A3.564,3.564,0,0,1,433-297.578a3.588,3.588,0,0,1,3.56-3.568A3.568,3.568,0,0,1,440.131-297.6Zm-2.3.029a1.289,1.289,0,0,0-1.267-1.3,1.331,1.331,0,0,0-1.287,1.291,1.287,1.287,0,0,0,1.282,1.278A1.247,1.247,0,0,0,437.835-297.572Z" transform="translate(-66.632 0)" fill="#7a4f00"/>
      <path id="Trazado_906444" data-name="Trazado 906444" d="M497.182-210.453a3.346,3.346,0,0,1,3.307,3.315,3.336,3.336,0,0,1-3.326,3.29,3.345,3.345,0,0,1-3.278-3.276A3.359,3.359,0,0,1,497.182-210.453Z" transform="translate(-119.306 -78.458)" fill="#7a4f00"/>
    </g>
  </g>
</svg>
