<svg xmlns="http://www.w3.org/2000/svg" xmlns:xlink="http://www.w3.org/1999/xlink" width="129" height="128" viewBox="0 0 129 128">
  <defs>
    <clipPath id="clip-path">
      <rect id="Rectángulo_400938" data-name="Rectángulo 400938" width="120" height="120" fill="none"/>
    </clipPath>
    <clipPath id="clip-path-2">
      <rect id="Rectángulo_400938-2" data-name="Rectángulo 400938" width="113" height="113" transform="translate(0.211 0.211)" fill="none"/>
    </clipPath>
    <clipPath id="clip-path-3">
      <rect id="Rectángulo_401073" data-name="Rectángulo 401073" width="86.443" height="38.93" fill="#7d3a1b"/>
    </clipPath>
  </defs>
  <g id="Grupo_1104658" data-name="Grupo 1104658" transform="translate(-376 -7812.09)">
    <g id="Grupo_108927" data-name="Grupo 108927" transform="translate(-14 3345.09)">
      <path id="Rectángulo_36179" data-name="Rectángulo 36179" d="M0,0H129V128H0Z" transform="translate(390 4467)" fill="#feebcf"/>
    </g>
    <g id="Grupo_1104483" data-name="Grupo 1104483" transform="translate(118.789 2535.879)">
      <g id="Grupo_1099379" data-name="Grupo 1099379" transform="translate(265 5284)">
        <rect id="Rectángulo_401103" data-name="Rectángulo 401103" width="113" height="113" transform="translate(0.211 0.211)" fill="none"/>
        <g id="Grupo_1099348" data-name="Grupo 1099348">
          <g id="Grupo_1099282" data-name="Grupo 1099282">
            <g id="Grupo_1099281" data-name="Grupo 1099281" clip-path="url(#clip-path-3)">
              <path id="Trazado_873375" data-name="Trazado 873375" d="M70.12,8.532c-3.88,0-5.887-1.9-7.658-3.581C60.723,3.3,59.226,1.882,56.1,1.882S51.467,3.3,49.728,4.95c-1.771,1.679-3.775,3.581-7.658,3.581s-5.886-1.9-7.658-3.581C32.674,3.3,31.177,1.882,28.046,1.882S23.418,3.3,21.682,4.95C19.911,6.629,17.9,8.532,14.024,8.532S8.135,6.629,6.364,4.95C4.628,3.3,3.131,1.882,0,1.882V0C3.88,0,5.887,1.906,7.658,3.581,9.4,5.23,10.893,6.65,14.024,6.65s4.628-1.419,6.364-3.066C22.157,1.906,24.166,0,28.046,0s5.89,1.906,7.658,3.581C37.442,5.23,38.939,6.65,42.07,6.65S46.7,5.23,48.437,3.581C50.205,1.906,52.215,0,56.1,0s5.89,1.906,7.658,3.581C65.491,5.23,66.988,6.65,70.12,6.65s4.628-1.419,6.367-3.069C78.255,1.906,80.261,0,84.144,0V1.882c-3.131,0-4.628,1.422-6.367,3.069C76.006,6.629,74,8.532,70.12,8.532" transform="translate(2.299 30.399)" fill="#7d3a1b"/>
              <path id="Trazado_873376" data-name="Trazado 873376" d="M70.12,8.532c-3.88,0-5.889-1.9-7.658-3.584C60.723,3.3,59.226,1.882,56.1,1.882S51.467,3.3,49.728,4.947c-1.768,1.682-3.775,3.584-7.658,3.584s-5.889-1.9-7.658-3.584C32.674,3.3,31.177,1.882,28.046,1.882S23.418,3.3,21.682,4.947C19.911,6.629,17.9,8.532,14.025,8.532s-5.889-1.9-7.661-3.584C4.628,3.3,3.131,1.882,0,1.882V0C3.88,0,5.889,1.9,7.658,3.581,9.4,5.23,10.893,6.65,14.025,6.65s4.628-1.419,6.364-3.069C22.157,1.9,24.166,0,28.046,0s5.889,1.9,7.661,3.581C37.442,5.23,38.939,6.65,42.071,6.65S46.7,5.23,48.437,3.581C50.206,1.9,52.215,0,56.1,0s5.89,1.9,7.658,3.581C65.491,5.23,66.988,6.65,70.12,6.65s4.628-1.419,6.367-3.069C78.257,1.9,80.264,0,84.147,0V1.882c-3.131,0-4.631,1.422-6.37,3.066C76.006,6.629,74,8.532,70.12,8.532" transform="translate(1.533 20.266)" fill="#7d3a1b"/>
              <path id="Trazado_873377" data-name="Trazado 873377" d="M70.119,8.532c-3.88,0-5.889-1.9-7.658-3.584C60.723,3.3,59.226,1.882,56.1,1.882S51.467,3.3,49.728,4.947C47.96,6.629,45.95,8.532,42.071,8.532s-5.89-1.9-7.658-3.584C32.674,3.3,31.177,1.882,28.046,1.882S23.418,3.3,21.682,4.947C19.911,6.629,17.9,8.532,14.025,8.532s-5.89-1.9-7.661-3.584C4.628,3.3,3.131,1.882,0,1.882V0C3.88,0,5.889,1.9,7.658,3.581,9.393,5.23,10.893,6.65,14.025,6.65s4.628-1.419,6.364-3.069C22.156,1.9,24.166,0,28.046,0s5.89,1.9,7.661,3.581C37.442,5.23,38.939,6.65,42.071,6.65S46.7,5.23,48.437,3.581C50.205,1.9,52.215,0,56.1,0s5.889,1.9,7.658,3.581C65.491,5.23,66.988,6.65,70.119,6.65s4.628-1.419,6.367-3.069C78.257,1.9,80.261,0,84.147,0V1.882c-3.131,0-4.631,1.422-6.37,3.066C76.006,6.629,74,8.532,70.119,8.532" transform="translate(0.766 10.133)" fill="#7d3a1b"/>
              <path id="Trazado_873378" data-name="Trazado 873378" d="M70.12,8.529c-3.88,0-5.887-1.9-7.658-3.581C60.723,3.3,59.226,1.882,56.095,1.882S51.467,3.3,49.731,4.947C47.96,6.626,45.953,8.529,42.07,8.529s-5.887-1.9-7.658-3.581C32.674,3.3,31.177,1.882,28.046,1.882S23.418,3.3,21.682,4.944C19.914,6.626,17.9,8.529,14.024,8.529s-5.89-1.9-7.661-3.581C4.628,3.3,3.131,1.882,0,1.882V0C3.88,0,5.89,1.9,7.658,3.581,9.4,5.228,10.893,6.647,14.024,6.647s4.628-1.419,6.364-3.066C22.159,1.9,24.166,0,28.046,0s5.887,1.9,7.661,3.581c1.736,1.646,3.233,3.066,6.364,3.066S46.7,5.228,48.437,3.581C50.208,1.9,52.215,0,56.095,0s5.887,1.9,7.658,3.581c1.739,1.646,3.236,3.066,6.367,3.066s4.628-1.419,6.367-3.066C78.257,1.9,80.264,0,84.147,0V1.882c-3.134,0-4.631,1.419-6.37,3.066C76.006,6.626,74,8.529,70.12,8.529" transform="translate(0 0.003)" fill="#7d3a1b"/>
            </g>
          </g>
        </g>
        <path id="Trazado_873425" data-name="Trazado 873425" d="M47.337,0A47.337,47.337,0,1,1,0,47.337,47.337,47.337,0,0,1,47.337,0Z" transform="translate(14.061 16.873)" fill="#7d3a1b"/>
        <circle id="Elipse_11503" data-name="Elipse 11503" cx="49.5" cy="49.5" r="49.5" transform="translate(7.211 7.211)" fill="#fff"/>
      </g>
      <g id="Grupo_1099977" data-name="Grupo 1099977" transform="translate(293.705 5309.391)">
        <path id="Trazado_873216" data-name="Trazado 873216" d="M0,0H62.506V62.507H0Z" transform="translate(0 0)" fill="none"/>
        <g id="Grupo_1119625" data-name="Grupo 1119625" transform="translate(-2818.851 -2372.992)">
          <path id="Trazado_906269" data-name="Trazado 906269" d="M2841.135,2412.677l-2.2-1.985c-.428.386-.975.874-1.516,1.369-.434.4-.92.628-1.385.127-.482-.521-.267-1.022.219-1.445.234-.2.446-.437.692-.625a2.174,2.174,0,0,0,.968-2.1,2.774,2.774,0,0,1,3.329-2.838,1.18,1.18,0,0,0,1.266-.481c1.226-1.519,2.5-3,3.76-4.5-2.25-1.419-2.658-3.93-1.034-6.3l-1.47-1.359c-.192.1-.43.223-.674.337a3.114,3.114,0,0,1-3.88-1.089,2.946,2.946,0,0,1,.143-3.849c1.122-1.2,2.315-2.343,3.479-3.507,2.482-2.484,4.957-4.977,7.456-7.444a2.965,2.965,0,0,1,3.513-.614,3.293,3.293,0,0,1,1.855,3.274,1.706,1.706,0,0,1-.055.369c-.157.456-.578,1.022-.436,1.335.24.524.835.888,1.333,1.369a4.194,4.194,0,0,1,.81-.659,2.721,2.721,0,0,1,1.463-.461c1.485.314,3.089.495,3.864,2.164a4.42,4.42,0,0,0,.935,1.027c.4.411.691.856.23,1.381-.5.564-.985.345-1.439-.1-.089-.086-.185-.164-.187-.165l-13.629,13.654,3.708,3.719,13.614-13.632a1.9,1.9,0,0,1-.488-.648,1.249,1.249,0,0,1,.1-1.005c.181-.2.833-.325.957-.189,1.038,1.138,2.662,1.617,3.262,3.295.569,1.59.793,2.941-.752,4.155l1.609,1.454a3.2,3.2,0,0,1,4.162,4.83c-2.97,3.007-5.973,5.982-8.961,8.972-.235.235-.457.482-.818.865.487.023.809.051,1.132.052,3.17,0,6.341-.022,9.511.013a2.789,2.789,0,0,1,2.809,3.715,2.592,2.592,0,0,1-2.514,1.876,1.139,1.139,0,0,0-1.239.869c-.336,1.153-.641,2.314-.94,3.477-.068.267.039.624-.1.816-.226.309-.6.719-.9.7s-.625-.47-.8-.806c-.127-.243-.025-.6-.025-1.03h-1.7q-4.475,0-8.952,0c-.677,0-1.325-.093-1.3-.939.019-.792.661-.862,1.29-.861,3.264,0,6.528-.039,9.791.025.933.019,1.466-.195,1.614-1.157a6.161,6.161,0,0,1,.392-1.063h-1.3c-10.133,0-20.266.021-30.4-.029a2.964,2.964,0,0,0-2.858,1.257,9.346,9.346,0,0,1-.8.91c.468.025.784.056,1.1.056q6.993.005,13.987,0a2.04,2.04,0,0,1,.917.054c.31.176.744.557.716.8-.038.33-.424.677-.743.9-.193.132-.543.042-.823.042h-15.958a10.43,10.43,0,0,0,.935,5.79.845.845,0,0,0,.615.414q17.157.009,34.313-.025a1.245,1.245,0,0,0,.241-.063,2.015,2.015,0,0,1-.188-.771c.063-.353.211-.9.432-.964a1.718,1.718,0,0,1,1.107.332c.179.1.25.417.339.648a1.184,1.184,0,0,0,1.237.865,2.735,2.735,0,0,1,2.685,2.869,2.764,2.764,0,0,1-2.864,2.705c-5.377.019-10.754.008-16.132.009H2839.6c-2.5,0-3.271-.65-3.7-3.212-2.963.678-3.6-1.6-4.464-3.756-1.125,1.213-2.175,2.346-3.227,3.477-.719.774-1.41,1.578-2.169,2.311a4.217,4.217,0,0,1-5.953-.067,4.139,4.139,0,0,1,.041-5.944c4.206-3.964,8.474-7.863,12.718-11.786.446-.412.949-.537,1.393-.056.468.508.194.969-.234,1.366l-8.764,8.1c-1.256,1.16-2.528,2.3-3.762,3.484a2.478,2.478,0,1,0,3.482,3.515q8.021-8.644,16.005-17.325A1.744,1.744,0,0,0,2841.135,2412.677Zm16.146,18.446q8.858,0,17.716,0c.311,0,.706.1.912-.052.358-.261.795-.666.826-1.042.025-.3-.469-.7-.812-.939-.191-.137-.542-.062-.821-.062q-17.856,0-35.711,0c-.279,0-.634-.072-.819.068-.336.254-.786.641-.786.972s.435.746.775.989c.212.151.6.063.911.064Q2848.377,2431.125,2857.281,2431.124Zm-15.99-15.832h33.718c1.272,0,1.757-.27,1.792-.992.036-.757-.5-1.081-1.8-1.081h-27.6a4.244,4.244,0,0,0-2.687.492,1.289,1.289,0,0,1-.979.211C2842.536,2413.549,2842.023,2414.379,2841.291,2415.292Zm5.515-3.939H2858.6a10.052,10.052,0,0,1,.305-2.6c.271-.682.239-1.042-.288-1.493a3.921,3.921,0,0,1-.607-.9c-2.338,1.895-4.469,1.567-6.5-.8-1.258,1.053-2.476,2.16-3.79,3.14C2846.792,2409.385,2846.214,2410.1,2846.806,2411.353Zm5.707-33.743a9.273,9.273,0,0,0-1.19.831q-5.187,5.154-10.349,10.337c-.811.813-.852,1.48-.165,2.164s1.345.635,2.164-.18q3.236-3.22,6.459-6.453c1.34-1.339,2.717-2.645,3.99-4.045a1.739,1.739,0,0,0,.33-1.475C2853.585,2378.33,2852.982,2378.029,2852.513,2377.609Zm9.19,34.035a8.661,8.661,0,0,0,1.275-.847q5.191-5.151,10.347-10.335c.791-.793.819-1.506.129-2.174s-1.32-.623-2.163.215q-2.312,2.3-4.613,4.609c-1.932,1.933-3.888,3.842-5.771,5.823a1.78,1.78,0,0,0-.407,1.463C2860.646,2410.865,2861.238,2411.191,2861.7,2411.645Zm-.952-27.48c-1.571-1.113-2.051-1.086-3.384.247l-10.548,10.549c-1.2,1.2-1.206,2.026-.121,3.249Zm-7.361,20.957a7.974,7.974,0,0,0,1.567.632,1.593,1.593,0,0,0,1.229-.236q5.974-5.881,11.866-11.847a1.143,1.143,0,0,0,.34-.881,15.525,15.525,0,0,0-.751-1.919Zm-6.857-12.491,8.542-8.512-1.212-1.447-8.629,8.558Zm21.394,4.08-8.609,8.563,1.2,1.216,8.576-8.549Zm-20.41,4.733-4.08,4.869,1.987,2.046,4.927-4.131Zm-6.763,5.254c-.376.324-.879.554-.989.906a1.614,1.614,0,0,0,.225,1.324c.846.986,1.8,1.885,2.737,2.788a1.229,1.229,0,1,0,1.706-1.752c-.863-.892-1.739-1.772-2.637-2.627A6.281,6.281,0,0,0,2840.754,2406.7Zm-4.7,21.171c-.42-1.836-.841-3.676-1.256-5.491-2.234,2.211-2.181,1.6-1.177,4.191C2834.2,2428.071,2834.473,2428.151,2836.052,2427.868Z" transform="translate(0)" fill="#7d3a1b"/>
          <path id="Trazado_906270" data-name="Trazado 906270" d="M2956.776,2630.971h-9.5c-.279,0-.626.085-.822-.048-.3-.2-.674-.56-.668-.845s.422-.585.716-.8c.145-.1.422-.032.639-.032h19.289c.186,0,.427-.069.548.022.31.233.781.535.784.813a1.156,1.156,0,0,1-.742.835,9.249,9.249,0,0,1-1.948.054Q2960.923,2630.973,2956.776,2630.971Z" transform="translate(-103.262 -205.967)" fill="#7d3a1b"/>
        </g>
      </g>
    </g>
  </g>
</svg>
