<svg xmlns="http://www.w3.org/2000/svg" xmlns:xlink="http://www.w3.org/1999/xlink" width="129" height="128" viewBox="0 0 129 128">
  <defs>
    <clipPath id="clip-path">
      <rect id="Rectángulo_400938" data-name="Rectángulo 400938" width="120" height="120" fill="none"/>
    </clipPath>
    <clipPath id="clip-path-2">
      <rect id="Rectángulo_400938-2" data-name="Rectángulo 400938" width="113" height="113" transform="translate(0.211 0.211)" fill="none"/>
    </clipPath>
    <clipPath id="clip-path-3">
      <rect id="Rectángulo_401073" data-name="Rectángulo 401073" width="86.443" height="38.93" fill="#7d3a1b"/>
    </clipPath>
  </defs>
  <g id="Grupo_1104655" data-name="Grupo 1104655" transform="translate(-376 -7150)">
    <g id="Grupo_108927" data-name="Grupo 108927" transform="translate(-14 2683)">
      <path id="Rectángulo_36179" data-name="Rectángulo 36179" d="M0,0H129V128H0Z" transform="translate(390 4467)" fill="#feebcf"/>
    </g>
    <g id="Grupo_1104496" data-name="Grupo 1104496" transform="translate(118.789 1873.789)">
      <g id="Grupo_1099379" data-name="Grupo 1099379" transform="translate(265 5284)">
        <rect id="Rectángulo_401103" data-name="Rectángulo 401103" width="113" height="113" transform="translate(0.211 0.211)" fill="none"/>
        <g id="Grupo_1099348" data-name="Grupo 1099348">
          <g id="Grupo_1099282" data-name="Grupo 1099282">
            <g id="Grupo_1099281" data-name="Grupo 1099281" clip-path="url(#clip-path-3)">
              <path id="Trazado_873375" data-name="Trazado 873375" d="M70.12,8.532c-3.88,0-5.887-1.9-7.658-3.581C60.723,3.3,59.226,1.882,56.1,1.882S51.467,3.3,49.728,4.95c-1.771,1.679-3.775,3.581-7.658,3.581s-5.886-1.9-7.658-3.581C32.674,3.3,31.177,1.882,28.046,1.882S23.418,3.3,21.682,4.95C19.911,6.629,17.9,8.532,14.024,8.532S8.135,6.629,6.364,4.95C4.628,3.3,3.131,1.882,0,1.882V0C3.88,0,5.887,1.906,7.658,3.581,9.4,5.23,10.893,6.65,14.024,6.65s4.628-1.419,6.364-3.066C22.157,1.906,24.166,0,28.046,0s5.89,1.906,7.658,3.581C37.442,5.23,38.939,6.65,42.07,6.65S46.7,5.23,48.437,3.581C50.205,1.906,52.215,0,56.1,0s5.89,1.906,7.658,3.581C65.491,5.23,66.988,6.65,70.12,6.65s4.628-1.419,6.367-3.069C78.255,1.906,80.261,0,84.144,0V1.882c-3.131,0-4.628,1.422-6.367,3.069C76.006,6.629,74,8.532,70.12,8.532" transform="translate(2.299 30.399)" fill="#7d3a1b"/>
              <path id="Trazado_873376" data-name="Trazado 873376" d="M70.12,8.532c-3.88,0-5.889-1.9-7.658-3.584C60.723,3.3,59.226,1.882,56.1,1.882S51.467,3.3,49.728,4.947c-1.768,1.682-3.775,3.584-7.658,3.584s-5.889-1.9-7.658-3.584C32.674,3.3,31.177,1.882,28.046,1.882S23.418,3.3,21.682,4.947C19.911,6.629,17.9,8.532,14.025,8.532s-5.889-1.9-7.661-3.584C4.628,3.3,3.131,1.882,0,1.882V0C3.88,0,5.889,1.9,7.658,3.581,9.4,5.23,10.893,6.65,14.025,6.65s4.628-1.419,6.364-3.069C22.157,1.9,24.166,0,28.046,0s5.889,1.9,7.661,3.581C37.442,5.23,38.939,6.65,42.071,6.65S46.7,5.23,48.437,3.581C50.206,1.9,52.215,0,56.1,0s5.89,1.9,7.658,3.581C65.491,5.23,66.988,6.65,70.12,6.65s4.628-1.419,6.367-3.069C78.257,1.9,80.264,0,84.147,0V1.882c-3.131,0-4.631,1.422-6.37,3.066C76.006,6.629,74,8.532,70.12,8.532" transform="translate(1.533 20.266)" fill="#7d3a1b"/>
              <path id="Trazado_873377" data-name="Trazado 873377" d="M70.119,8.532c-3.88,0-5.889-1.9-7.658-3.584C60.723,3.3,59.226,1.882,56.1,1.882S51.467,3.3,49.728,4.947C47.96,6.629,45.95,8.532,42.071,8.532s-5.89-1.9-7.658-3.584C32.674,3.3,31.177,1.882,28.046,1.882S23.418,3.3,21.682,4.947C19.911,6.629,17.9,8.532,14.025,8.532s-5.89-1.9-7.661-3.584C4.628,3.3,3.131,1.882,0,1.882V0C3.88,0,5.889,1.9,7.658,3.581,9.393,5.23,10.893,6.65,14.025,6.65s4.628-1.419,6.364-3.069C22.156,1.9,24.166,0,28.046,0s5.89,1.9,7.661,3.581C37.442,5.23,38.939,6.65,42.071,6.65S46.7,5.23,48.437,3.581C50.205,1.9,52.215,0,56.1,0s5.889,1.9,7.658,3.581C65.491,5.23,66.988,6.65,70.119,6.65s4.628-1.419,6.367-3.069C78.257,1.9,80.261,0,84.147,0V1.882c-3.131,0-4.631,1.422-6.37,3.066C76.006,6.629,74,8.532,70.119,8.532" transform="translate(0.766 10.133)" fill="#7d3a1b"/>
              <path id="Trazado_873378" data-name="Trazado 873378" d="M70.12,8.529c-3.88,0-5.887-1.9-7.658-3.581C60.723,3.3,59.226,1.882,56.095,1.882S51.467,3.3,49.731,4.947C47.96,6.626,45.953,8.529,42.07,8.529s-5.887-1.9-7.658-3.581C32.674,3.3,31.177,1.882,28.046,1.882S23.418,3.3,21.682,4.944C19.914,6.626,17.9,8.529,14.024,8.529s-5.89-1.9-7.661-3.581C4.628,3.3,3.131,1.882,0,1.882V0C3.88,0,5.89,1.9,7.658,3.581,9.4,5.228,10.893,6.647,14.024,6.647s4.628-1.419,6.364-3.066C22.159,1.9,24.166,0,28.046,0s5.887,1.9,7.661,3.581c1.736,1.646,3.233,3.066,6.364,3.066S46.7,5.228,48.437,3.581C50.208,1.9,52.215,0,56.095,0s5.887,1.9,7.658,3.581c1.739,1.646,3.236,3.066,6.367,3.066s4.628-1.419,6.367-3.066C78.257,1.9,80.264,0,84.147,0V1.882c-3.134,0-4.631,1.419-6.37,3.066C76.006,6.626,74,8.529,70.12,8.529" transform="translate(0 0.003)" fill="#7d3a1b"/>
            </g>
          </g>
        </g>
        <path id="Trazado_873425" data-name="Trazado 873425" d="M47.337,0A47.337,47.337,0,1,1,0,47.337,47.337,47.337,0,0,1,47.337,0Z" transform="translate(14.061 16.873)" fill="#7d3a1b"/>
        <circle id="Elipse_11503" data-name="Elipse 11503" cx="49.5" cy="49.5" r="49.5" transform="translate(7.211 7.211)" fill="#fff"/>
      </g>
    </g>
    <g id="Grupo_1104497" data-name="Grupo 1104497" transform="translate(409.48 7186.838)">
      <path id="Trazado_873216" data-name="Trazado 873216" d="M0,0H62.506V62.507H0Z" transform="translate(0 0)" fill="none"/>
      <g id="Grupo_1119622" data-name="Grupo 1119622" transform="translate(-2848.088 -2003.852)">
        <path id="Trazado_906239" data-name="Trazado 906239" d="M2896.832,2031.06c3.291.79,5.349,2.68,5.755,5.939a7.4,7.4,0,0,1-.551,3.74c-1.188,2.676-1.117,5.4-.855,8.184.075.8.423,1.046,1.236,1.033a3.95,3.95,0,0,1,4.313,3.209,11.963,11.963,0,0,1,.13,1.608c1.732.524,1.732.524,1.732,2.435q0,1.221,0,2.443c0,1.565-.133,1.717-1.777,1.963,0,.821-.01,1.662,0,2.5.013.883-.393,1.33-1.289,1.31-.237-.005-.474,0-.712,0h-53.64c-1.809,0-1.97-.161-1.97-1.974v-55.168c0-1.858.15-2,2.042-2q16.54,0,33.08.014a2.085,2.085,0,0,1,1.325.542q5.329,5.249,10.577,10.58a2.241,2.241,0,0,1,.573,1.41c.047,3.7.026,7.4.026,11.094Zm-45.53,32.25h33.462v-1.739c-1.507-.164-1.621-.286-1.627-1.69,0-.916,0-1.832,0-2.749,0-1.844,0-1.844,1.639-2.359.371-3.681,1.28-4.565,4.892-4.869a1.069,1.069,0,0,0,.747-.683,14.882,14.882,0,0,0-.657-8.2,8.409,8.409,0,0,1-.717-3.627c.2-3.269,2.133-5.3,5.684-6.323v-11.642h-1.168c-2.749,0-5.5,0-8.247,0-1.413,0-1.641-.234-1.646-1.67-.007-2.478,0-4.955,0-7.433v-1.92H2851.3Zm47.956-13.432c-.483-3.62-.531-7.061,1.093-10.351a4.143,4.143,0,0,0-.14-3.644,4.808,4.808,0,0,0-6.348-2.363,4.877,4.877,0,0,0-2.458,6.328,18.143,18.143,0,0,1,1.2,4.366,53.1,53.1,0,0,1,.049,5.72c1.8,0,3.764,0,5.725,0C2898.645,2049.931,2898.91,2049.9,2899.258,2049.878Zm5.447,4.972c.185-2.091-.52-2.871-2.493-2.872q-6.46,0-12.92,0c-1.833,0-2.63.994-2.275,2.871Zm-19.478,4.545h21.236v-2.322h-21.236Zm1.712,3.915h17.753V2061.6h-17.753Zm-1.165-53.442v7.425h7.522c-2.375-2.359-4.58-4.551-6.786-6.741C2886.323,2010.367,2886.123,2010.192,2885.775,2009.869Z" transform="translate(0)" fill="#7d3a1b"/>
        <path id="Trazado_906240" data-name="Trazado 906240" d="M2932.751,2163.51a10.92,10.92,0,1,1-10.832-11.026A10.886,10.886,0,0,1,2932.751,2163.51Zm-2.042,0a8.88,8.88,0,1,0-8.911,8.8A8.878,8.878,0,0,0,2930.709,2163.515Z" transform="translate(-49.137 -116.431)" fill="#7d3a1b"/>
        <path id="Trazado_906241" data-name="Trazado 906241" d="M2893.477,2117.548q-8.5,0-17,0c-.337,0-.752.066-.989-.1a1.3,1.3,0,0,1-.577-.937,1.6,1.6,0,0,1,.75-.931c.252-.156.66-.068,1-.068q16.845,0,33.691,0c.135,0,.271,0,.407,0,.761-.022,1.415.178,1.4,1.075-.017.851-.661.973-1.376.972Q2902.129,2117.54,2893.477,2117.548Z" transform="translate(-20.467 -86.966)" fill="#7d3a1b"/>
        <path id="Trazado_906242" data-name="Trazado 906242" d="M2893.43,2088.334h16.791a2.115,2.115,0,0,1,.9.037c.346.183.842.523.846.8a1.589,1.589,0,0,1-.658,1.081c-.253.186-.716.111-1.085.111q-16.843.006-33.685,0c-.169,0-.339,0-.508,0-.732-.008-1.314-.26-1.294-1.088.019-.791.6-.954,1.288-.953Q2884.729,2088.342,2893.43,2088.334Z" transform="translate(-20.331 -65.321)" fill="#7d3a1b"/>
        <path id="Trazado_906243" data-name="Trazado 906243" d="M2886.058,2033.58q4.986,0,9.972,0c.745,0,1.334.26,1.3,1.068-.028.73-.587,1.012-1.294.975-.034,0-.068,0-.1,0q-9.921,0-19.842,0c-.728,0-1.333-.182-1.342-1.02s.61-1.028,1.332-1.026Q2881.072,2033.586,2886.058,2033.58Z" transform="translate(-20.344 -21.74)" fill="#7d3a1b"/>
        <path id="Trazado_906244" data-name="Trazado 906244" d="M2886,2062.868q-4.883,0-9.766,0c-.719,0-1.466-.04-1.48-.97-.013-.969.739-1.08,1.508-1.08q9.766,0,19.531,0c.136,0,.272,0,.407.008.655.051,1.149.359,1.14,1.048s-.49.989-1.168.988c-2.034,0-4.069,0-6.1,0Q2888.038,2062.87,2886,2062.868Z" transform="translate(-20.347 -43.435)" fill="#7d3a1b"/>
        <path id="Trazado_906245" data-name="Trazado 906245" d="M2939.457,2190.25c2.131-2.141,4.187-4.209,6.245-6.273.239-.24.459-.579.749-.667.369-.112.969-.171,1.164.035a1.89,1.89,0,0,1,.266,1.251c-.007.208-.323.413-.514.6q-3.416,3.42-6.838,6.834c-.891.887-1.317.883-2.206.009-.411-.4-.826-.805-1.223-1.223a1.018,1.018,0,0,1-.073-1.54c.5-.5,1.044-.355,1.524.108C2938.816,2189.645,2939.085,2189.9,2939.457,2190.25Z" transform="translate(-69.679 -140.896)" fill="#7d3a1b"/>
      </g>
    </g>
  </g>
</svg>
