<svg xmlns="http://www.w3.org/2000/svg" xmlns:xlink="http://www.w3.org/1999/xlink" width="139" height="139" viewBox="0 0 139 139">
  <defs>
    <clipPath id="clip-path">
      <rect id="Rectángulo_400938" data-name="Rectángulo 400938" width="139" height="139" transform="translate(-0.043 -0.043)" fill="none"/>
    </clipPath>
    <clipPath id="clip-path-2">
      <rect id="Rectángulo_401073" data-name="Rectángulo 401073" width="105.872" height="47.68" fill="#7d3a1b"/>
    </clipPath>
    <clipPath id="clip-path-3">
      <rect id="Rectángulo_406527" data-name="Rectángulo 406527" width="89" height="89" transform="translate(449 5133)" fill="#7d3a1b" stroke="#707070" stroke-width="1"/>
    </clipPath>
  </defs>
  <g id="Grupo_1119973" data-name="Grupo 1119973" transform="translate(-421 -5106.563)">
    <g id="Grupo_1117779" data-name="Grupo 1117779" transform="translate(156.043 -177.395)">
      <g id="Grupo_1099379" data-name="Grupo 1099379" transform="translate(265 5284)">
        <rect id="Rectángulo_401103" data-name="Rectángulo 401103" width="139" height="139" transform="translate(-0.043 -0.043)" fill="none"/>
        <g id="Grupo_1099348" data-name="Grupo 1099348" transform="translate(0)">
          <g id="Grupo_1099282" data-name="Grupo 1099282">
            <g id="Grupo_1099281" data-name="Grupo 1099281" clip-path="url(#clip-path-2)">
              <path id="Trazado_873375" data-name="Trazado 873375" d="M85.879,10.449c-4.752,0-7.21-2.33-9.379-4.386C74.371,4.047,72.538,2.3,68.7,2.3s-5.668,1.742-7.8,3.758c-2.17,2.056-4.624,4.386-9.379,4.386s-7.21-2.33-9.379-4.386C40.018,4.047,38.184,2.3,34.349,2.3s-5.668,1.742-7.794,3.758c-2.17,2.056-4.627,4.386-9.379,4.386S9.963,8.119,7.794,6.063C5.668,4.047,3.835,2.3,0,2.3V0C4.752,0,7.21,2.334,9.379,4.386c2.129,2.02,3.963,3.758,7.8,3.758s5.668-1.738,7.794-3.755C27.136,2.334,29.6,0,34.349,0s7.213,2.334,9.379,4.386c2.129,2.02,3.963,3.758,7.8,3.758s5.668-1.738,7.8-3.758C61.489,2.334,63.951,0,68.7,0s7.213,2.334,9.379,4.386c2.129,2.02,3.963,3.758,7.8,3.758s5.668-1.738,7.8-3.758C95.843,2.334,98.3,0,103.056,0V2.3c-3.835,0-5.668,1.742-7.8,3.758-2.169,2.056-4.627,4.386-9.379,4.386" transform="translate(2.816 37.231)" fill="#7d3a1b"/>
              <path id="Trazado_873376" data-name="Trazado 873376" d="M85.879,10.449c-4.752,0-7.213-2.33-9.379-4.39C74.371,4.043,72.538,2.3,68.7,2.3s-5.668,1.738-7.8,3.755c-2.166,2.06-4.624,4.39-9.379,4.39s-7.213-2.33-9.379-4.39C40.018,4.043,38.184,2.3,34.349,2.3s-5.668,1.742-7.794,3.755c-2.17,2.06-4.627,4.39-9.379,4.39s-7.213-2.33-9.383-4.39C5.668,4.043,3.835,2.3,0,2.3V0C4.752,0,7.213,2.33,9.379,4.386c2.129,2.02,3.963,3.758,7.8,3.758s5.668-1.738,7.794-3.758C27.136,2.33,29.6,0,34.349,0s7.213,2.33,9.383,4.386c2.126,2.02,3.959,3.758,7.794,3.758s5.668-1.738,7.8-3.758C61.489,2.33,63.951,0,68.7,0s7.213,2.33,9.379,4.386c2.129,2.02,3.963,3.758,7.8,3.758s5.668-1.738,7.8-3.758C95.846,2.33,98.3,0,103.059,0V2.3c-3.835,0-5.672,1.742-7.8,3.755-2.169,2.06-4.628,4.39-9.379,4.39" transform="translate(1.877 24.821)" fill="#7d3a1b"/>
              <path id="Trazado_873377" data-name="Trazado 873377" d="M85.879,10.449c-4.752,0-7.213-2.33-9.379-4.39C74.371,4.043,72.538,2.3,68.7,2.3s-5.668,1.738-7.8,3.755c-2.166,2.06-4.627,4.39-9.379,4.39s-7.213-2.33-9.379-4.39C40.018,4.043,38.184,2.3,34.349,2.3s-5.668,1.742-7.794,3.755c-2.169,2.06-4.627,4.39-9.379,4.39s-7.213-2.33-9.383-4.39C5.668,4.043,3.835,2.3,0,2.3V0C4.752,0,7.213,2.33,9.379,4.386c2.126,2.02,3.963,3.758,7.8,3.758s5.668-1.738,7.794-3.758C27.136,2.33,29.6,0,34.349,0s7.213,2.33,9.383,4.386c2.126,2.02,3.959,3.758,7.794,3.758s5.668-1.738,7.8-3.758C61.489,2.33,63.951,0,68.7,0s7.213,2.33,9.379,4.386c2.129,2.02,3.963,3.758,7.8,3.758s5.668-1.738,7.8-3.758C95.846,2.33,98.3,0,103.059,0V2.3c-3.835,0-5.672,1.742-7.8,3.755-2.169,2.06-4.627,4.39-9.379,4.39" transform="translate(0.939 12.41)" fill="#7d3a1b"/>
              <path id="Trazado_873378" data-name="Trazado 873378" d="M85.879,10.445c-4.752,0-7.21-2.33-9.379-4.386C74.371,4.043,72.538,2.3,68.7,2.3s-5.668,1.738-7.794,3.755c-2.169,2.056-4.627,4.386-9.383,4.386s-7.21-2.33-9.379-4.386C40.018,4.043,38.184,2.3,34.349,2.3s-5.668,1.738-7.794,3.751c-2.166,2.06-4.627,4.39-9.379,4.39S9.963,8.115,7.794,6.059C5.668,4.043,3.835,2.3,0,2.3V0C4.752,0,7.213,2.33,9.379,4.386c2.129,2.016,3.963,3.755,7.8,3.755S22.845,6.4,24.971,4.386C27.14,2.33,29.6,0,34.349,0s7.21,2.33,9.383,4.386c2.126,2.016,3.959,3.755,7.794,3.755s5.668-1.738,7.8-3.755C61.493,2.33,63.951,0,68.7,0s7.21,2.33,9.379,4.386c2.129,2.016,3.963,3.755,7.8,3.755s5.668-1.738,7.8-3.755C95.846,2.33,98.3,0,103.059,0V2.3c-3.839,0-5.672,1.738-7.8,3.755-2.169,2.056-4.627,4.386-9.379,4.386" transform="translate(0 0.004)" fill="#7d3a1b"/>
            </g>
          </g>
        </g>
        <path id="Trazado_873425" data-name="Trazado 873425" d="M57.977,0A57.977,57.977,0,1,1,0,57.977,57.977,57.977,0,0,1,57.977,0Z" transform="translate(17.221 20.665)" fill="#ffe2b7"/>
        <circle id="Elipse_11503" data-name="Elipse 11503" cx="60.5" cy="60.5" r="60.5" transform="translate(8.957 8.957)" fill="#fff"/>
      </g>
    </g>
    <g id="Enmascarar_grupo_1098773" data-name="Enmascarar grupo 1098773" clip-path="url(#clip-path-3)">
      <g id="Grupo_1119627" data-name="Grupo 1119627" transform="translate(-1894.101 2511.037)">
        <path id="Trazado_906288" data-name="Trazado 906288" d="M2391.592,2689.194v-2.321h-1.277q-10.849,0-21.7,0c-2.3,0-3.08-.765-3.081-3.042q0-11.027,0-22.054c0-2.692.67-3.36,3.358-3.359h1.326v2.342h-2.249v23.653h2.307v-1.26c0-3.636.023-7.272-.017-10.908a2.323,2.323,0,0,1,.89-2.165,3.855,3.855,0,0,0,1.536-3.562c-.083-7.152-.021-14.307-.066-21.46,0-.631-.26-1.657-.657-1.805a7.781,7.781,0,0,0-2.779-.165c-.109,0-.247.442-.308.695a9.487,9.487,0,1,1-.014-4c.049.228.1.456.177.848.734,0,1.469-.01,2.2,0a3.544,3.544,0,0,1,3.769,3.8c.016,6.719.006,13.438.006,20.157v1.575a26.853,26.853,0,0,0,2-1.972,2.847,2.847,0,0,1,2.582-1.057c1.969.084,3.944.024,6,.024.036-.353.092-.653.092-.952.006-4.111-.013-8.221.02-12.331.006-.763-.191-1.045-.994-1.224a9.446,9.446,0,1,1,4.34.021c-.5.117-1.006.057-1,.839.026,4.5.013,9,.013,13.571h10.671v-1.2q0-8.537,0-17.074c0-2.854,1.34-4.171,4.226-4.178.551,0,1.1,0,1.694,0,.172-.611.311-1.178.491-1.733a9.475,9.475,0,0,1,18.473,3.462,9.469,9.469,0,0,1-18.694,1.553c-.366-1.714-1.561-.689-2.354-.874a1.122,1.122,0,0,0-1.446,1.165c-.026,6.275-.014,12.55-.014,18.916h2.32v16.566h2.318v-18.872h-2.21v-2.349a20.585,20.585,0,0,1,2.778.025c1.238.169,1.9,1.2,1.9,2.734q.008,8.537,0,17.074v1.375h2.318c.019-.394.052-.777.053-1.16q.005-9.13,0-18.26c0-2.857-1.351-4.2-4.208-4.21-.906,0-1.813,0-2.812,0v-2.229a30.585,30.585,0,0,1,4.67.043,5.56,5.56,0,0,1,4.693,5.48q.077,13.279,0,26.559a5.781,5.781,0,0,1-5.807,5.7c-3.121.052-6.244.014-9.367.016h-1.336v2.373c1.042,0,2.092-.008,3.143,0,2.477.022,3.794,1.433,3.927,3.9.232,4.305-1.1,5.71-5.574,5.623-7.823-.152-15.65-.04-23.476-.044-2.8,0-4.045-1.354-4.193-4.118-.222-4.145,1.346-5.671,5.321-5.371.546.041,1.1.006,1.733.006v-2.373h-1.275c-3.083,0-6.166.024-9.248-.01a5.844,5.844,0,0,1-5.976-5.91q-.05-13.043,0-26.085a5.862,5.862,0,0,1,5.958-5.931c1.135-.021,2.271,0,3.458,0v2.368c-1.026,0-2.039-.006-3.051,0-2.561.017-4,1.413-4,3.936q-.015,12.686,0,25.374a3.541,3.541,0,0,0,3.694,3.881c8.023.023,16.046.01,24.069.008C2391.12,2689.243,2391.309,2689.216,2391.592,2689.194Zm-18.883-4.776h18.912c0-.357,0-.629,0-.9.03-3.286.5-3.756,3.786-3.756h5.6V2665.6h-21.278v7.07h-7.02Zm21.343,4.805c4.505,0,8.922.048,13.336-.026a3.132,3.132,0,0,0,3.046-2.693,33.035,33.035,0,0,0,.04-4.314h-16.423Zm-16.776,7.135h-1.741c-2.908,0-2.908,0-2.887,2.871.011,1.552.321,1.871,1.871,1.872q8,.006,15.991,0c3,0,6-.007,9,0,.8,0,1.557-.225,1.533-1.09-.033-1.184.642-2.555-.647-3.509a1.017,1.017,0,0,0-.563-.137c-1.135-.012-2.27-.006-3.368-.006-.635,1.865-1.305,2.361-3.156,2.363q-6.4.009-12.793,0C2378.583,2698.727,2377.937,2698.259,2377.275,2696.359Zm2.545-.086H2393.9v-4.594H2379.82Zm36.511-56.749h-4.349v4.6h4.349Zm-27.277-2.375h-4.349v4.61h4.349Zm-27.291,6.98v-4.616h-4.341v4.616Zm57.029-4.792v4.94c.7-.127,2.013-.173,2.046-.4a15.1,15.1,0,0,0,0-4.138C2420.8,2639.521,2419.54,2639.473,2418.792,2639.337Zm-36.562,2.588v-4.986c-.751.17-2.031.241-2.072.507a13.006,13.006,0,0,0,.013,4.027C2380.212,2641.726,2381.5,2641.778,2382.23,2641.925Zm9.287-.032c.685-.113,2.006-.146,2.038-.366a14.744,14.744,0,0,0,.012-4.14c-.032-.227-1.344-.275-2.05-.4Zm-36.559,2.422v-4.985c-.733.154-2.021.211-2.062.467a13,13,0,0,0-.005,4.027C2352.932,2644.086,2354.215,2644.152,2354.958,2644.315Zm9.294-4.984v4.984c.739-.162,2.025-.228,2.067-.491a12.973,12.973,0,0,0-.005-4.027C2366.272,2639.541,2364.984,2639.484,2364.252,2639.331Zm45.251-.039c-.769.186-2.04.27-2.082.543a12.985,12.985,0,0,0,.03,4.027c.04.247,1.339.288,2.052.423Zm-32.18,28.554-2.474,2.33h2.474Zm-18.795-21.218,1.119,1.605,1-1.605Zm54.529-.012,1.125,1.607,1.024-1.607Zm-25.12-2.348h-2.131l1.071,1.582Zm26.209-8.9-1.026,1.618h2.084ZM2360.688,2637l-1.087-1.591-1.059,1.591Zm27.282-2.357-1.127-1.607-1.024,1.607Zm-4.345-1.591-1.948,1.492C2383.25,2635.083,2383.483,2634.108,2383.625,2633.056Zm8.488,1.482-2.031-1.474C2390.265,2634.108,2390.5,2635.074,2392.113,2634.539Zm-29.279,13.672,1.966-1.488C2363.308,2646.2,2362.977,2647.072,2362.834,2648.21Zm48.088,0c-.49-1.8-.49-1.8-1.914-1.426Zm8.457-1.473c-1.619-.548-1.844.419-2.285,1.66Zm-27.189-2.449c-1.761-.153-1.842-.087-2.193,1.627Zm-8.294,1.744c-.693-1.973-.693-1.973-2.18-1.643Zm-19.088-9.113-1.991-1.483C2363,2636.494,2363.253,2637.457,2364.808,2636.917Zm54.6-.024-2.069-1.443C2417.533,2636.526,2417.833,2637.446,2419.405,2636.894Zm-8.506-1.466-2.04,1.559C2410.5,2637.109,2410.5,2637.109,2410.9,2635.427Zm-54.511,12.784c-.182-1.043-.382-2.06-1.971-1.479Zm0-12.793-2.037,1.535C2355.9,2637.13,2355.9,2637.13,2356.384,2635.418Z" transform="translate(0 0)" fill="#7d3a1b"/>
        <path id="Trazado_906289" data-name="Trazado 906289" d="M2520.585,2730.139h5.758v2.265h-5.758Z" transform="translate(-130.055 -76.419)" fill="#7d3a1b"/>
        <path id="Trazado_906290" data-name="Trazado 906290" d="M2520.424,2750.141h5.791v2.259h-5.791Z" transform="translate(-129.932 -91.678)" fill="#7d3a1b"/>
        <path id="Trazado_906291" data-name="Trazado 906291" d="M2471.306,2752.483h-5.791v-2.259h5.791Z" transform="translate(-88.045 -91.741)" fill="#7d3a1b"/>
        <path id="Trazado_906292" data-name="Trazado 906292" d="M2465.413,2732.439v-2.225h5.818v2.225Z" transform="translate(-87.967 -76.476)" fill="#7d3a1b"/>
        <path id="Trazado_906293" data-name="Trazado 906293" d="M2479.144,2820.279v2.234h-23.557v-2.234Z" transform="translate(-80.471 -145.183)" fill="#7d3a1b"/>
        <path id="Trazado_906294" data-name="Trazado 906294" d="M2485.41,2802.44v-2.223H2501.9v2.223Z" transform="translate(-103.221 -129.879)" fill="#7d3a1b"/>
        <path id="Trazado_906295" data-name="Trazado 906295" d="M2457.732,2840.21v2.225h-2.247v-2.225Z" transform="translate(-80.393 -160.387)" fill="#7d3a1b"/>
        <path id="Trazado_906296" data-name="Trazado 906296" d="M2477.743,2840.229v2.216h-2.237v-2.216Z" transform="translate(-95.666 -160.402)" fill="#7d3a1b"/>
        <path id="Trazado_906297" data-name="Trazado 906297" d="M2497.793,2840.295v2.227h-2.222v-2.227Z" transform="translate(-110.972 -160.452)" fill="#7d3a1b"/>
        <path id="Trazado_906298" data-name="Trazado 906298" d="M2545.442,2860.166h2.225v2.247h-2.225Z" transform="translate(-149.017 -175.611)" fill="#7d3a1b"/>
        <path id="Trazado_906299" data-name="Trazado 906299" d="M2565.414,2862.531v-2.218h2.239v2.218Z" transform="translate(-164.253 -175.723)" fill="#7d3a1b"/>
        <path id="Trazado_906300" data-name="Trazado 906300" d="M2585.442,2860.166h2.226v2.247h-2.226Z" transform="translate(-179.531 -175.611)" fill="#7d3a1b"/>
      </g>
    </g>
  </g>
</svg>
