<svg xmlns="http://www.w3.org/2000/svg" xmlns:xlink="http://www.w3.org/1999/xlink" width="121" height="121" viewBox="0 0 121 121">
  <defs>
    <clipPath id="clip-path">
      <rect id="Rectángulo_400938" data-name="Rectángulo 400938" width="121" height="121" transform="translate(0 0)" fill="none"/>
    </clipPath>
    <clipPath id="clip-path-2">
      <rect id="Rectángulo_401073" data-name="Rectángulo 401073" width="92.219" height="41.532" fill="#efb499"/>
    </clipPath>
  </defs>
  <g id="Grupo_1119981" data-name="Grupo 1119981" transform="translate(-1091.496 -4872)">
    <g id="Grupo_1105096" data-name="Grupo 1105096" transform="translate(703.828 -1141)">
      <rect id="Rectángulo_401103" data-name="Rectángulo 401103" width="121" height="121" transform="translate(387.668 6013)" fill="none"/>
      <g id="Grupo_1099348" data-name="Grupo 1099348" transform="translate(387.668 6013)">
        <g id="Grupo_1099282" data-name="Grupo 1099282">
          <g id="Grupo_1099281" data-name="Grupo 1099281" clip-path="url(#clip-path-2)">
            <path id="Trazado_873375" data-name="Trazado 873375" d="M74.8,9.1c-4.139,0-6.28-2.03-8.17-3.821-1.855-1.756-3.452-3.274-6.792-3.274s-4.937,1.517-6.792,3.274C51.161,7.072,49.023,9.1,44.881,9.1s-6.28-2.03-8.169-3.821C34.857,3.525,33.26,2.007,29.92,2.007s-4.937,1.517-6.789,3.274C21.241,7.072,19.1,9.1,14.962,9.1S8.679,7.072,6.789,5.281C4.937,3.525,3.34,2.007,0,2.007V0C4.139,0,6.28,2.033,8.17,3.821c1.855,1.759,3.452,3.274,6.792,3.274S19.9,5.58,21.75,3.824C23.637,2.033,25.781,0,29.92,0s6.283,2.033,8.17,3.821c1.855,1.759,3.452,3.274,6.792,3.274s4.937-1.514,6.792-3.274C53.56,2.033,55.7,0,59.843,0s6.283,2.033,8.17,3.821C69.867,5.58,71.464,7.094,74.8,7.094S79.742,5.58,81.6,3.821C83.483,2.033,85.624,0,89.766,0V2.007c-3.34,0-4.937,1.517-6.792,3.274C81.084,7.072,78.943,9.1,74.8,9.1" transform="translate(2.453 32.43)" fill="#efb499"/>
            <path id="Trazado_873376" data-name="Trazado 873376" d="M74.8,9.1c-4.139,0-6.283-2.03-8.17-3.824-1.855-1.756-3.452-3.27-6.792-3.27s-4.937,1.514-6.792,3.27C51.164,7.072,49.023,9.1,44.881,9.1s-6.283-2.03-8.17-3.824c-1.855-1.756-3.452-3.27-6.792-3.27s-4.937,1.517-6.789,3.27C21.241,7.072,19.1,9.1,14.962,9.1S8.679,7.072,6.789,5.278C4.937,3.522,3.34,2.007,0,2.007V0C4.139,0,6.283,2.03,8.17,3.821c1.855,1.759,3.452,3.274,6.792,3.274S19.9,5.58,21.75,3.821C23.637,2.03,25.781,0,29.92,0S36.2,2.03,38.093,3.821c1.852,1.759,3.449,3.274,6.789,3.274s4.937-1.514,6.792-3.274C53.56,2.03,55.7,0,59.843,0s6.283,2.03,8.17,3.821C69.867,5.58,71.464,7.094,74.8,7.094S79.742,5.58,81.6,3.821C83.486,2.03,85.627,0,89.769,0V2.007c-3.34,0-4.94,1.517-6.8,3.27C81.084,7.072,78.943,9.1,74.8,9.1" transform="translate(1.635 21.62)" fill="#efb499"/>
            <path id="Trazado_873377" data-name="Trazado 873377" d="M74.8,9.1c-4.139,0-6.283-2.03-8.169-3.824-1.855-1.756-3.452-3.27-6.792-3.27s-4.937,1.514-6.792,3.27C51.164,7.072,49.02,9.1,44.881,9.1s-6.283-2.03-8.17-3.824c-1.855-1.756-3.452-3.27-6.792-3.27s-4.937,1.517-6.789,3.27C21.241,7.072,19.1,9.1,14.962,9.1S8.678,7.072,6.789,5.278C4.937,3.522,3.34,2.007,0,2.007V0C4.139,0,6.283,2.03,8.169,3.821c1.851,1.759,3.452,3.274,6.792,3.274S19.9,5.58,21.75,3.821C23.637,2.03,25.781,0,29.92,0S36.2,2.03,38.093,3.821c1.852,1.759,3.449,3.274,6.789,3.274s4.937-1.514,6.792-3.274C53.56,2.03,55.7,0,59.843,0s6.283,2.03,8.17,3.821C69.867,5.58,71.464,7.094,74.8,7.094S79.742,5.58,81.6,3.821C83.486,2.03,85.624,0,89.769,0V2.007c-3.34,0-4.941,1.517-6.8,3.27C81.084,7.072,78.943,9.1,74.8,9.1" transform="translate(0.818 10.81)" fill="#efb499"/>
            <path id="Trazado_873378" data-name="Trazado 873378" d="M74.8,9.1c-4.139,0-6.28-2.03-8.17-3.821-1.855-1.756-3.452-3.27-6.792-3.27s-4.937,1.514-6.789,3.27C51.164,7.069,49.023,9.1,44.881,9.1s-6.28-2.03-8.169-3.821c-1.855-1.756-3.452-3.27-6.792-3.27s-4.937,1.514-6.789,3.267C21.245,7.069,19.1,9.1,14.962,9.1S8.678,7.069,6.789,5.278C4.937,3.522,3.34,2.007,0,2.007V0C4.139,0,6.283,2.03,8.17,3.821c1.855,1.756,3.452,3.27,6.792,3.27S19.9,5.577,21.75,3.821C23.64,2.03,25.781,0,29.92,0s6.28,2.03,8.173,3.821c1.852,1.756,3.449,3.27,6.789,3.27s4.937-1.514,6.792-3.27C53.563,2.03,55.7,0,59.843,0s6.28,2.03,8.17,3.821c1.855,1.756,3.452,3.27,6.792,3.27s4.937-1.514,6.792-3.27C83.486,2.03,85.627,0,89.769,0V2.007c-3.344,0-4.941,1.514-6.8,3.27C81.084,7.069,78.943,9.1,74.8,9.1" transform="translate(0 0.003)" fill="#efb499"/>
          </g>
        </g>
      </g>
      <circle id="Elipse_11504" data-name="Elipse 11504" cx="50.5" cy="50.5" r="50.5" transform="translate(402.668 6031)" fill="#ffce73"/>
      <circle id="Elipse_11503" data-name="Elipse 11503" cx="52.5" cy="52.5" r="52.5" transform="translate(395.668 6021)" fill="#f3f9ff"/>
    </g>
    <g id="Grupo_1105099" data-name="Grupo 1105099" transform="translate(1117.438 4897.804)">
      <rect id="Rectángulo_401104" data-name="Rectángulo 401104" width="62" height="63" transform="translate(5.562 5.196)" fill="none"/>
      <g id="Grupo_1105109" data-name="Grupo 1105109" transform="translate(6.373 6.094)">
        <path id="Trazado_897140" data-name="Trazado 897140" d="M614.727,606.27c.561-.615,1.1-1.239,1.679-1.828.312-.319.22-.687.221-1.043q.01-6.559.005-13.117c0-1.35.244-1.6,1.563-1.6q1.463-.005,2.926,0c1.315,0,1.558.254,1.559,1.606,0,3.4,0,6.791,0,10.217a1.286,1.286,0,0,0,.311,0c1.713-.51,1.713-.511,1.713-2.382q0-8.476,0-16.952c0-1.325.25-1.569,1.6-1.569q12.564,0,25.128,0c1.264,0,1.529.266,1.529,1.534q0,18.667,0,37.335c0,1.2-.286,1.486-1.474,1.489-2.456.006-4.912.025-7.367-.015a.821.821,0,0,0-.969.719,10.868,10.868,0,0,1-1.295,3.043c-.335.537-.228.841.194,1.259,3.276,3.24,6.522,6.511,9.789,9.759a3.156,3.156,0,0,1,1.061,2.993,3.005,3.005,0,0,1-5.041,1.583c-1.189-1.09-2.3-2.268-3.439-3.409q-3.249-3.244-6.49-6.495c-.337-.34-.548-.511-1.067-.183q-9.29,5.882-18.51-.155c-.108-.071-.228-.12-.37-.193a11.176,11.176,0,0,1-7.763,6.9,9.989,9.989,0,0,1-2.286.33c-1.051.028-1.385-.295-1.39-1.357-.009-2.624-.032-5.248.016-7.87.014-.728-.2-.879-.894-.867-2.589.042-5.18.022-7.77.015-1.179,0-1.47-.321-1.439-1.515a11.105,11.105,0,0,1,13.865-10.217c.259.072.527.12.776.216.345.133.556.112.594-.325a14.216,14.216,0,0,1,.889-3.809c.169-.448-.043-.505-.417-.5-.807.015-1.615,0-2.422,0a1.044,1.044,0,0,1-1.181-1.177q0-5.9,0-11.806c0-.8.444-1.144,1.215-1.141,1.177.005,2.355.017,3.532,0,.953-.017,1.313.452,1.307,1.367-.019,2.859-.009,5.718,0,8.577C614.613,605.868,614.526,606.079,614.727,606.27Zm21.187-4.478a21.238,21.238,0,0,1,3.66,3.219,2.2,2.2,0,0,0,1.984.841c2.084-.046,4.169-.02,6.254-.01.675,0,1.107.35,1.086,1.042a.954.954,0,0,1-1.07.96c-.571.012-1.143,0-1.715,0h-4.37a6.835,6.835,0,0,1,.517,1.06c.222.833.749,1.026,1.558.982,1.24-.068,2.487-.006,3.731-.022.718-.009,1.332.163,1.345.992s-.579,1.036-1.308,1.029c-1.374-.013-2.749,0-4.108,0-.081.423.13.742.123,1.058-.018.868.4,1.04,1.174.983.97-.07,1.949-.013,2.924-.018.707,0,1.211.282,1.2,1.038-.013.7-.495.976-1.158.975a21.317,21.317,0,0,1-2.519-.02c-1.067-.129-1.5.181-1.419,1.309.037.521.01.763.64.75,1.949-.039,3.9-.034,5.85,0,.537.009.667-.159.667-.678q-.021-17.5,0-35c0-.508-.112-.685-.66-.683q-11.449.027-22.9,0c-.617,0-.692.229-.691.756q.025,8.372,0,16.743c0,.584.173.716.735.7,1.983-.038,3.967-.018,5.951-.018,1.11,0,2.219,0,3.329,0a.953.953,0,0,1,1.076.953c.025.692-.4,1.027-1.08,1.052C636.449,601.8,636.182,601.791,635.914,601.791Zm5.949,14.15a14.133,14.133,0,1,0-14.233,14.115A14.157,14.157,0,0,0,641.863,615.941ZM608.55,629.253c0,1.278.059,2.56-.02,3.833-.054.872.328.962,1,.789a9.136,9.136,0,0,0,6.582-5.839,1,1,0,0,0-.229-1.179,15.658,15.658,0,0,1-4.181-9.187,1.2,1.2,0,0,0-.889-1.156,9.166,9.166,0,0,0-8.126.821c-.645.389-.751.672-.151,1.248,1.795,1.724,3.518,3.521,5.3,5.257a2.191,2.191,0,0,1,.728,1.782C608.518,626.83,608.55,628.043,608.55,629.253Zm31.624-3.027c-.308.333-.7.7-1.02,1.12-.278.361.126.538.316.728q4.733,4.752,9.48,9.49c.5.5,1.059.836,1.661.254s.3-1.155-.2-1.66l-4.554-4.553c-1.525-1.525-3.265-3.264-5.005-5A.836.836,0,0,0,640.174,626.226Zm-21.532-23.878c.727-.561,2.037-.29,2.031-1.632-.014-3.088-.041-6.178.017-9.265.019-1-.6-.713-1.113-.764-.619-.061-.974.023-.954.822.058,2.281.02,4.565.02,6.848Zm-8.074.45c0,1.445.052,2.893-.02,4.334-.042.84.45.765.949.713.445-.046,1.121.336,1.109-.647q-.053-4.385,0-8.77c.014-.977-.643-.628-1.1-.662-.484-.037-1.006-.161-.963.7C610.621,599.9,610.569,601.352,610.569,602.8Zm-5.511,21.2c-1.549-1.554-2.931-2.938-4.31-4.324-.227-.228-.4-.165-.571.068a8.152,8.152,0,0,0-1.553,3.755c-.042.325.038.505.409.5C600.959,623.99,602.886,623.994,605.057,623.994Z" transform="translate(-592.397 -579.586)" fill="#050404"/>
        <path id="Trazado_897141" data-name="Trazado 897141" d="M604.558,583.548a12.619,12.619,0,0,0-.969,1.219c-.83,1.379-1.92,2.2-3.625,1.848-.4-.084-.586.154-.776.465a2.864,2.864,0,0,1-3.433,1.415.857.857,0,0,0-.963.315,13.511,13.511,0,0,1-1.07,1.068.927.927,0,0,0-.3,1.056,2.994,2.994,0,0,1-5.456,2.319,1.038,1.038,0,0,0-1.116-.59,5.964,5.964,0,0,1-1.108,0,1.911,1.911,0,0,0-2.061.941,2.512,2.512,0,0,1-2.862,1,1.14,1.14,0,0,0-1.305.4c-.426.475-.884.922-1.35,1.358a.97.97,0,0,1-1.444.072.98.98,0,0,1,.021-1.515c.227-.247.468-.483.715-.71a2.281,2.281,0,0,0,1-2.453,2.7,2.7,0,0,1,1.956-2.936,2.807,2.807,0,0,1,3.39,1.044,1.486,1.486,0,0,0,1.616.8,6.41,6.41,0,0,1,1.209,0,1.344,1.344,0,0,0,1.446-.74,2.661,2.661,0,0,1,2.974-1.213,1.315,1.315,0,0,0,1.4-.4c.771-.755,1.427-1.382,1.147-2.7a2.667,2.667,0,0,1,2.04-2.87,2.962,2.962,0,0,1,3.446,1.2,1.5,1.5,0,0,0,2.515.067c.6-.756,1.206-1.513,1.9-2.385a8.241,8.241,0,0,1-1.058-.081.937.937,0,0,1-.814-1,.888.888,0,0,1,.852-.956,31.068,31.068,0,0,1,3.325.005c.573.035.844.493.846,1.072,0,.84-.012,1.681.007,2.521.014.616-.076,1.187-.757,1.362C605.163,584.737,604.792,584.261,604.558,583.548Zm-8.978,2.062a.959.959,0,0,0,.961.964.965.965,0,1,0,0-1.93C595.957,584.651,595.652,585.037,595.58,585.61Zm-14.117,7.038a.961.961,0,0,0,.929-1,.965.965,0,1,0-1.929.077A.953.953,0,0,0,581.463,592.648Zm10.032-1.007a.96.96,0,0,0-.983-.943.965.965,0,1,0,.045,1.929A.954.954,0,0,0,591.495,591.641Z" transform="translate(-576.371 -579.545)" fill="#050404"/>
        <path id="Trazado_897142" data-name="Trazado 897142" d="M588.522,825.543c0,1.547.01,3.093,0,4.64-.009,1.011-.338,1.327-1.321,1.334a11.192,11.192,0,0,1-10.785-10.786c.006-.948.428-1.325,1.35-1.32,3.127.017,6.254,0,9.382.01,1.062,0,1.367.314,1.374,1.382C588.53,822.383,588.522,823.963,588.522,825.543Zm-2.012-.173c0-1.109-.022-2.22.01-3.328.014-.486-.142-.628-.624-.623q-3.379.034-6.758,0c-.511-.005-.591.157-.547.637.3,3.27,4.023,6.99,7.294,7.291.483.045.65-.039.636-.549C586.487,827.657,586.51,826.513,586.51,825.37Z" transform="translate(-576.405 -770.967)" fill="#050404"/>
        <path id="Trazado_897143" data-name="Trazado 897143" d="M622.46,675.565c0,1.578-.015,3.155.006,4.732.012.936-.416,1.346-1.343,1.327-1.174-.024-2.35-.006-3.525-.006a1.043,1.043,0,0,1-1.186-1.167q0-4.884,0-9.768a1.041,1.041,0,0,1,1.184-1.168c1.175,0,2.35.018,3.525-.007.927-.019,1.358.387,1.346,1.324C622.445,672.409,622.46,673.987,622.46,675.565Zm-2.012.092c0-1.142-.055-2.288.018-3.426.056-.864-.486-.729-.966-.695-.455.032-1.113-.309-1.093.666q.07,3.375,0,6.753c-.015.785.464.7.911.639s1.163.382,1.136-.611C620.424,677.874,620.447,676.765,620.448,675.656Z" transform="translate(-608.324 -651.339)" fill="#050404"/>
        <path id="Trazado_897144" data-name="Trazado 897144" d="M582.462,680.109c0,1.41-.011,2.819,0,4.228.009.876-.384,1.3-1.272,1.294q-1.762-.02-3.524,0c-.892.01-1.266-.43-1.263-1.3q.019-4.279,0-8.558c0-.828.382-1.244,1.218-1.24q1.812.008,3.625,0c.84,0,1.216.423,1.211,1.247C582.455,677.223,582.462,678.666,582.462,680.109Zm-2.012.022c0-.941-.059-1.886.017-2.82.072-.881-.464-.791-1-.765-.488.023-1.086-.222-1.056.712q.089,2.819,0,5.642c-.03.936.567.691,1.056.714.539.025,1.08.12,1.005-.764C580.391,681.951,580.45,681.039,580.45,680.132Z" transform="translate(-576.399 -655.348)" fill="#050404"/>
        <path id="Trazado_897145" data-name="Trazado 897145" d="M755.453,609.689c.268,0,.535.008.8,0,.675-.025,1.105-.36,1.08-1.052a.953.953,0,0,0-1.076-.953c-1.11-.009-2.219,0-3.329,0-1.984,0-3.968-.02-5.951.018-.562.011-.737-.121-.735-.7q.033-8.372,0-16.743c0-.527.073-.758.691-.756q11.449.033,22.9,0c.547,0,.66.175.66.683q-.019,17.5,0,35c0,.519-.13.686-.667.678-1.95-.032-3.9-.038-5.85,0-.63.013-.6-.229-.64-.75-.08-1.128.352-1.438,1.419-1.309a21.343,21.343,0,0,0,2.519.02c.664,0,1.145-.279,1.158-.975.014-.755-.489-1.041-1.2-1.037-.975,0-1.954-.053-2.924.018-.777.056-1.193-.115-1.174-.983.007-.316-.2-.635-.123-1.058,1.359,0,2.734-.01,4.108,0,.728.007,1.321-.2,1.308-1.029s-.627-1-1.345-.992c-1.244.017-2.491-.045-3.731.022-.809.044-1.336-.149-1.558-.982a6.831,6.831,0,0,0-.517-1.06h4.37c.572,0,1.143.007,1.715,0a.955.955,0,0,0,1.07-.96c.02-.692-.412-1.039-1.087-1.042-2.085-.01-4.17-.036-6.254.01a2.2,2.2,0,0,1-1.984-.841A21.236,21.236,0,0,0,755.453,609.689Zm3.93-4.137c0,1.611.015,3.223-.006,4.834-.012.937.416,1.337,1.343,1.328,2.149-.02,4.3-.015,6.446,0,.875.005,1.3-.381,1.3-1.27q-.014-4.784,0-9.568c0-.886-.413-1.28-1.292-1.274-2.149.014-4.3,0-6.446.008-1.046.006-1.334.317-1.34,1.412C759.377,602.531,759.383,604.042,759.383,605.553Zm-1.01-12.009c2.854,0,5.709-.007,8.563,0,.763,0,1.508-.07,1.494-1.039-.013-.9-.719-.984-1.449-.982q-8.613.013-17.226,0c-.732,0-1.435.088-1.443.988-.009.97.739,1.036,1.5,1.033C752.665,593.537,755.519,593.544,758.373,593.544Zm.1,2.025c-2.922,0-5.843.007-8.764,0-.745,0-1.411.131-1.4,1.029.007.826.625.993,1.342.992q8.714-.012,17.428,0c.713,0,1.339-.154,1.354-.98.016-.894-.641-1.044-1.392-1.041C764.186,595.576,761.331,595.569,758.477,595.569Zm-5.642,6.048c1.072,0,2.145-.009,3.217,0,.734.008,1.3-.232,1.28-1.05-.021-.755-.572-.972-1.261-.969q-3.268.015-6.535,0c-.7,0-1.224.241-1.23,1s.512,1.021,1.211,1.018C750.623,601.613,751.729,601.617,752.835,601.617Zm-.02,2.025c-1.072,0-2.145.01-3.217,0-.73-.009-1.305.217-1.291,1.038.013.757.559.983,1.25.98q3.268-.013,6.535,0c.694,0,1.234-.234,1.241-.989.008-.82-.572-1.039-1.3-1.03C754.96,603.653,753.887,603.642,752.815,603.642Z" transform="translate(-711.936 -587.484)" fill="#e8ebef"/>
        <path id="Trazado_897146" data-name="Trazado 897146" d="M709.6,703.641a14.133,14.133,0,1,1-14.088-14.15A14.164,14.164,0,0,1,709.6,703.641Zm-14.157,12.082a12.1,12.1,0,1,0-12.077-12.149A12.11,12.11,0,0,0,695.447,715.723Z" transform="translate(-660.138 -667.286)" fill="#ffb937"/>
        <path id="Trazado_897147" data-name="Trazado 897147" d="M631.008,772.812c0-1.211-.033-2.423.012-3.632a2.191,2.191,0,0,0-.728-1.782c-1.784-1.735-3.507-3.533-5.3-5.257-.6-.576-.494-.859.151-1.248a9.167,9.167,0,0,1,8.126-.821,1.2,1.2,0,0,1,.889,1.156,15.658,15.658,0,0,0,4.181,9.187,1,1,0,0,1,.229,1.179,9.136,9.136,0,0,1-6.582,5.839c-.669.173-1.051.083-1-.789C631.067,775.372,631.008,774.09,631.008,772.812Z" transform="translate(-614.854 -723.144)" fill="#fecab2"/>
        <path id="Trazado_897148" data-name="Trazado 897148" d="M808.531,810.481a.836.836,0,0,1,.677.38q4.782,4.774,9.559,9.554c.5.5.8,1.079.2,1.66s-1.163.244-1.661-.255q-4.74-4.745-9.48-9.49c-.19-.191-.594-.367-.316-.729C807.833,811.182,808.223,810.814,808.531,810.481Z" transform="translate(-760.754 -763.841)" fill="#ffb937"/>
        <path id="Trazado_897149" data-name="Trazado 897149" d="M706.242,646.11V642.12c0-2.283.037-4.567-.02-6.848-.02-.8.336-.883.954-.822.516.051,1.132-.234,1.113.764-.058,3.087-.03,6.177-.017,9.265C708.279,645.821,706.969,645.549,706.242,646.11Z" transform="translate(-679.996 -623.348)" fill="#efb499"/>
        <path id="Trazado_897150" data-name="Trazado 897150" d="M666.26,674.458c0-1.445.051-2.893-.019-4.334-.042-.859.479-.736.963-.7.453.035,1.11-.315,1.1.662q-.061,4.384,0,8.77c.012.983-.664.6-1.109.647-.5.052-.991.127-.949-.713C666.312,677.35,666.26,675.9,666.26,674.458Z" transform="translate(-648.088 -651.246)" fill="#efb499"/>
        <path id="Trazado_897151" data-name="Trazado 897151" d="M613.6,781.778c-2.172,0-4.1,0-6.025,0-.371,0-.45-.179-.409-.5a8.152,8.152,0,0,1,1.553-3.755c.167-.233.344-.3.571-.068C610.667,778.84,612.049,780.224,613.6,781.778Z" transform="translate(-600.938 -737.37)" fill="#ffce73"/>
        <path id="Trazado_897152" data-name="Trazado 897152" d="M671.485,605.759c.072-.573.377-.959.959-.966a.965.965,0,1,1,0,1.93A.959.959,0,0,1,671.485,605.759Z" transform="translate(-652.275 -599.693)" fill="#5282c5"/>
        <path id="Trazado_897153" data-name="Trazado 897153" d="M597.627,636.724a.954.954,0,0,1-1-.922.965.965,0,1,1,1.929-.077A.961.961,0,0,1,597.627,636.724Z" transform="translate(-592.535 -623.621)" fill="#5282c5"/>
        <path id="Trazado_897154" data-name="Trazado 897154" d="M643.556,635.709a.954.954,0,0,1-.938.986.965.965,0,1,1-.045-1.929A.96.96,0,0,1,643.556,635.709Z" transform="translate(-628.432 -623.613)" fill="#5282c5"/>
        <path id="Trazado_897155" data-name="Trazado 897155" d="M595.071,833.306c0,1.143-.022,2.287.01,3.429.014.509-.153.593-.636.549-3.271-.3-6.992-4.022-7.294-7.291-.044-.481.036-.642.547-.637q3.379.035,6.758,0c.482,0,.639.137.625.623C595.049,831.087,595.071,832.2,595.071,833.306Z" transform="translate(-584.966 -778.903)" fill="#ccced0"/>
        <path id="Trazado_897156" data-name="Trazado 897156" d="M628.335,683.541c0,1.109-.023,2.218.007,3.326.027.993-.7.553-1.136.611s-.927.146-.911-.639q.066-3.375,0-6.753c-.021-.975.637-.634,1.093-.666.48-.034,1.021-.169.966.695C628.281,681.253,628.336,682.4,628.335,683.541Z" transform="translate(-616.211 -659.223)" fill="#efb499"/>
        <path id="Trazado_897157" data-name="Trazado 897157" d="M588.344,688.031c0,.907-.059,1.819.017,2.72.074.883-.467.788-1.005.764-.489-.022-1.086.223-1.056-.714q.09-2.819,0-5.642c-.029-.935.568-.689,1.056-.713.541-.026,1.076-.116,1,.765C588.285,686.145,588.344,687.09,588.344,688.031Z" transform="translate(-584.293 -663.247)" fill="#efb499"/>
        <path id="Trazado_897158" data-name="Trazado 897158" d="M811.279,645.493c0-1.511-.007-3.021,0-4.532.006-1.095.295-1.406,1.34-1.412,2.149-.012,4.3.006,6.446-.008.878-.005,1.294.389,1.292,1.274q-.014,4.784,0,9.568c0,.889-.422,1.275-1.3,1.27-2.149-.013-4.3-.018-6.446,0-.927.009-1.355-.391-1.343-1.328C811.294,648.716,811.279,647.1,811.279,645.493Zm7.065.138c0-1.108-.023-2.218.01-3.325.016-.524-.065-.788-.69-.763-1.241.05-2.487.043-3.728,0-.558-.019-.661.191-.656.694.024,2.25.028,4.5,0,6.752-.008.554.185.672.692.658,1.242-.032,2.487-.039,3.728,0,.558.019.671-.19.656-.694C818.321,647.849,818.344,646.74,818.344,645.631Z" transform="translate(-763.831 -627.425)" fill="#050404"/>
        <path id="Trazado_897159" data-name="Trazado 897159" d="M766.541,601.583c-2.854,0-5.709-.007-8.563,0-.761,0-1.508-.063-1.5-1.033.008-.9.712-.989,1.443-.988q8.613.013,17.226,0c.731,0,1.436.084,1.449.982.014.969-.731,1.042-1.494,1.039C772.25,601.576,769.4,601.583,766.541,601.583Z" transform="translate(-720.103 -595.522)" fill="#050404"/>
        <path id="Trazado_897160" data-name="Trazado 897160" d="M766.637,619.557c2.854,0,5.709.007,8.563,0,.751,0,1.408.147,1.392,1.041-.015.827-.641.981-1.354.98q-8.714-.012-17.428,0c-.716,0-1.335-.165-1.342-.992-.008-.9.659-1.032,1.4-1.029C760.794,619.563,763.715,619.557,766.637,619.557Z" transform="translate(-720.096 -611.472)" fill="#050404"/>
        <path id="Trazado_897161" data-name="Trazado 897161" d="M760.983,641.561c-1.106,0-2.212,0-3.318,0-.7,0-1.217-.263-1.211-1.018s.535-1,1.231-1q3.267.011,6.535,0c.689,0,1.24.213,1.261.969.022.817-.546,1.058-1.28,1.05C763.128,641.552,762.055,641.561,760.983,641.561Z" transform="translate(-720.084 -627.428)" fill="#050404"/>
        <path id="Trazado_897162" data-name="Trazado 897162" d="M760.966,659.535c1.072,0,2.145.01,3.217,0,.728-.01,1.308.209,1.3,1.029-.007.755-.547.992-1.241.989q-3.267-.012-6.535,0c-.691,0-1.236-.224-1.25-.98-.015-.821.56-1.047,1.291-1.038C758.822,659.544,759.894,659.535,760.966,659.535Z" transform="translate(-720.088 -643.376)" fill="#050404"/>
        <path id="Trazado_897163" data-name="Trazado 897163" d="M703.478,723.752a12.1,12.1,0,1,1,12.126-12.1A12.108,12.108,0,0,1,703.478,723.752Zm-.02-2.007a10.091,10.091,0,1,0-10.047-10.185A10.12,10.12,0,0,0,703.459,721.745Z" transform="translate(-668.169 -675.315)" fill="#050404"/>
        <path id="Trazado_897164" data-name="Trazado 897164" d="M826.265,653.532c0,1.109-.023,2.218.01,3.326.015.5-.1.713-.656.694-1.242-.042-2.486-.035-3.728,0-.507.013-.7-.1-.692-.658.031-2.25.026-4.5,0-6.751-.005-.5.1-.713.656-.694,1.242.042,2.487.048,3.728,0,.625-.025.706.239.69.763C826.242,651.314,826.265,652.424,826.265,653.532Z" transform="translate(-771.752 -635.325)" fill="#ccced0"/>
        <path id="Trazado_897165" data-name="Trazado 897165" d="M711.4,729.687a10.091,10.091,0,1,1,10.136-10A10.109,10.109,0,0,1,711.4,729.687Zm-.32-2.028c.721.044,1.32-.157,1.344-.982.021-.757-.513-.981-1.2-1.041a6,6,0,0,1-5.818-5.807c-.059-.688-.271-1.229-1.031-1.215-.827.015-1.008.608-1,1.332A8.141,8.141,0,0,0,711.083,727.66Z" transform="translate(-676.113 -683.258)" fill="#e8ebef"/>
        <path id="Trazado_897166" data-name="Trazado 897166" d="M719.068,763.655a8.14,8.14,0,0,1-7.706-7.713c-.01-.724.171-1.317,1-1.332.76-.013.972.527,1.031,1.215a6,6,0,0,0,5.818,5.807c.691.06,1.225.284,1.2,1.041C720.388,763.5,719.789,763.7,719.068,763.655Z" transform="translate(-684.098 -719.254)" fill="#050404"/>
      </g>
    </g>
  </g>
</svg>
