<svg xmlns="http://www.w3.org/2000/svg" width="601.311" height="456.559" viewBox="0 0 601.311 456.559">
  <g id="Grupo_1119966" data-name="Grupo 1119966" transform="translate(-180 -6148)">
    <rect id="Rectángulo_406768" data-name="Rectángulo 406768" width="402" height="431" transform="translate(265 6148)" fill="#fef7eb"/>
    <g id="Grupo_1117977" data-name="Grupo 1117977" transform="translate(-15.81 5816.977)">
      <g id="Grupo_1117976" data-name="Grupo 1117976" transform="translate(195.81 351.384)">
        <g id="Grupo_1117960" data-name="Grupo 1117960" transform="translate(190 -124.226)">
          <rect id="Rectángulo_405871" data-name="Rectángulo 405871" width="6.763" height="122.589" transform="translate(177.011 104.17)" fill="#03244e"/>
          <rect id="Rectángulo_405872" data-name="Rectángulo 405872" width="6.763" height="122.589" transform="translate(27.254 104.17)" fill="#03244e"/>
          <rect id="Rectángulo_405873" data-name="Rectángulo 405873" width="210" height="80.075" rx="11.561" transform="translate(0 158.997)" fill="#7d3a1b"/>
          <path id="Trazado_904336" data-name="Trazado 904336" d="M244.479,631.44v16.509h210V631.44c0-2.186-3.384-3.958-7.558-3.958H252.038C247.863,627.482,244.479,629.254,244.479,631.44Z" transform="translate(-244.479 -468.486)" fill="#ffce00"/>
          <text id="CITUR" transform="translate(37.406 226.877)" fill="#fff" font-size="47" font-family="Roboto-Black, Roboto" font-weight="800"><tspan x="0" y="0">CITUR</tspan></text>
        </g>
        <path id="Trazado_904337" data-name="Trazado 904337" d="M1243.2,1702.727h-98.164a5.35,5.35,0,0,1-5.351-5.351h0a5.351,5.351,0,0,1,5.351-5.351H1243.2a5.351,5.351,0,0,1,5.351,5.351h0A5.351,5.351,0,0,1,1243.2,1702.727Z" transform="translate(-843.507 -1271.351)" fill="#ffe2b7"/>
        <path id="Trazado_904338" data-name="Trazado 904338" d="M1624.747,1695.857H1512.629a4.315,4.315,0,0,1-4.314-4.315h0c0-2.383,2.667-3.579,5.05-3.579l111.382-.736a4.314,4.314,0,0,1,4.314,4.315h0A4.314,4.314,0,0,1,1624.747,1695.857Z" transform="translate(-1096.47 -1268.059)" fill="#ffe2b7"/>
        <path id="Trazado_904339" data-name="Trazado 904339" d="M1887.234,1714.45H1795a4.314,4.314,0,0,1-4.314-4.315h0a4.315,4.315,0,0,1,4.314-4.314h92.232a4.314,4.314,0,0,1,4.314,4.314h0A4.314,4.314,0,0,1,1887.234,1714.45Z" transform="translate(-1290.238 -1280.818)" fill="#ffe2b7"/>
        <g id="Grupo_1117966" data-name="Grupo 1117966" transform="translate(0 173.604)">
          <rect id="Rectángulo_405878" data-name="Rectángulo 405878" width="87.084" height="4.24" transform="translate(258.007 127.945) rotate(11.634)" fill="#7d3a1b"/>
          <rect id="Rectángulo_405879" data-name="Rectángulo 405879" width="87.084" height="4.239" transform="matrix(0.918, -0.396, 0.396, 0.918, 256.518, 130.944)" fill="#7d3a1b"/>
          <rect id="Rectángulo_405880" data-name="Rectángulo 405880" width="194.858" height="137.488" transform="translate(0 97.243)" fill="#7d3a1b"/>
          <rect id="Rectángulo_405881" data-name="Rectángulo 405881" width="202.059" height="23.203" transform="translate(0 88.442)" fill="#7d3a1b"/>
          <rect id="Rectángulo_405882" data-name="Rectángulo 405882" width="208.613" height="138.878" transform="translate(27.772 95.853)" fill="#dc9a68"/>
          <g id="Grupo_1117961" data-name="Grupo 1117961" transform="translate(77.173)">
            <path id="Trazado_904340" data-name="Trazado 904340" d="M617.746,963.048c11.19-4.859,19.531-16.27,25.886-23.6.188-.216,2.111-6.634,4.032-7.106a.69.69,0,0,1,.861.442c.186.547-.18.875-.543,1.972s-.371,2.421-.013,2.321c.789-.216,4.746-7.345,6.379-8.834.816-.744,1.676-.477-.1,2.4-.527.853-1.14,1.733-1.706,2.545-1.34,1.921-1.906,3.342-1.433,2.935,1.407-1.212,6.549-8.694,7.787-8.088.6.3-5.6,7.908-6.95,9.878,2.415-1.434,7.313-8.988,7.588-7.275.171,1.062-4.718,7.136-6.061,8.34-1.634,1.463.509.347,1.589-.233.884-.475,3.626-3.219,3.291-1.424-.3,1.588-8.909,6.72-11.646,9.2h0c-2.422,2.2-12.07,21.5-22.377,27.221-6.808,3.777-26.534,4.4-36.7,5.3a7.163,7.163,0,0,1-5.792-2.177l-.268-.279a7.177,7.177,0,0,1,.361-10.3h0a7.2,7.2,0,0,1,5.615-1.805C592.612,965.027,614.529,964.444,617.746,963.048Z" transform="translate(-536.325 -920.593)" fill="#f4b081"/>
            <path id="Trazado_904341" data-name="Trazado 904341" d="M626.927,1039.205c-.8-.386-10.469,2.124-15.075,1.542S614,1057,614,1057s11.706-.118,14.7-.859C631.97,1055.33,630.407,1040.888,626.927,1039.205Z" transform="translate(-557.374 -996.953)" fill="#f2f8ff"/>
            <path id="Trazado_904342" data-name="Trazado 904342" d="M619.905,1060.286a61.713,61.713,0,0,0,8.8-.719c.848-.21,1.37-1.34,1.618-2.925-1.224-.022-2.46-.043-2.656-.066-4.574-.511-11.323-5.5-13.24-9.888a10.4,10.4,0,0,0-1.49-2.434c-.342-.011-.743-.037-1.082-.08-4.606-.582,2.153,16.251,2.153,16.251l4.382-.681S618.982,1059.973,619.905,1060.286Z" transform="translate(-557.374 -1000.38)" fill="#053878" opacity="0.39"/>
            <path id="Trazado_904343" data-name="Trazado 904343" d="M452.915,1108.365l-11.163,24.963,9.241.55,14.835-24.871Z" transform="translate(-441.752 -1044.439)" fill="#f4b081"/>
            <path id="Trazado_904344" data-name="Trazado 904344" d="M500.879,1044.037l12.582,42.591,32.565.44s4.85-25.464,4.85-27.416-12.649-15.624-15.082-18.057S504.292,1038.966,500.879,1044.037Z" transform="translate(-482.326 -997.483)" fill="#f2f8ff"/>
            <path id="Trazado_904345" data-name="Trazado 904345" d="M521.272,1095.667,500.879,1053l12.563,42.573Z" transform="translate(-482.326 -1006.448)" fill="#053878" opacity="0.39"/>
            <path id="Trazado_904346" data-name="Trazado 904346" d="M478.315,1053,468,1072.716l13.071,6.595,2.769-8.3S484.938,1059.625,478.315,1053Z" transform="translate(-459.762 -1006.448)" fill="#f2f8ff"/>
            <path id="Trazado_904347" data-name="Trazado 904347" d="M484.814,962.063c0,4.551-3.277,8.241-7.32,8.241s-7.32-3.69-7.32-8.241,3.277-8.241,7.32-8.241S484.814,957.512,484.814,962.063Z" transform="translate(-461.256 -938.389)" fill="#26004a"/>
            <path id="Trazado_904348" data-name="Trazado 904348" d="M549.006,1038.305c-3.5-2.04-13.572-2.038-16.189.579s17.532,20.153,26.563,20.153C560.3,1059.037,554,1041.218,549.006,1038.305Z" transform="translate(-504.083 -995.358)" fill="#9369bf"/>
            <path id="Trazado_904349" data-name="Trazado 904349" d="M554.46,998.765s-2.538,13.468,0,16.006c1.991,1.991,6.315,9.241,8.322,12.174,2.656,3.881-.676,2.5-1.784,2.185-5.619-1.611-18.552-15.14-18.552-15.14l-.5-17.839Z" transform="translate(-510.504 -967.436)" fill="#f4b081"/>
            <path id="Trazado_904350" data-name="Trazado 904350" d="M545.928,996.983c1.594,4.952,4.373,9.325,7.247,11.047a31.732,31.732,0,0,0,2.9,1.528,71.958,71.958,0,0,1,1.124-10.222Z" transform="translate(-513.239 -968.007)" fill="#f3ab79" opacity="0.68" style="mix-blend-mode: multiply;isolation: isolate"/>
            <path id="Trazado_904351" data-name="Trazado 904351" d="M620.681,1102.386s.147-.367,1.833-.367,4.21,2.36,4.21,2.36-.763,1.748-3.33.574S620.681,1102.386,620.681,1102.386Z" transform="translate(-564.536 -1040.084)" fill="#9369bf"/>
            <path id="Trazado_904352" data-name="Trazado 904352" d="M546.658,929.607s12.73,13.228,11.778,23.185-13.8,4.463-19.177.429S532.565,928.445,546.658,929.607Z" transform="translate(-506.065 -921.74)" fill="#f4b081"/>
            <path id="Trazado_904353" data-name="Trazado 904353" d="M526.868,906.192a6.836,6.836,0,0,1,1.78,7.817c-1.659,3.416-6.149,3.221-10.053,6.149s-3.831,15.128-3.831,15.128-15.493,2.83-11.882-11.809,5.758-10.931,10.248-14.054C516.992,906.736,522.253,902.252,526.868,906.192Z" transform="translate(-483.326 -904.639)" fill="#320063"/>
            <path id="Trazado_904354" data-name="Trazado 904354" d="M527.892,1034.463a105.178,105.178,0,0,1,10.3,10.839,47.142,47.142,0,0,0,7.752,7.755l5.471,4.348s-6.12-.229-8.87-1.67-2.223-3.033-5.512-3.033a9.04,9.04,0,0,1-7.007-3.091c-1.827-1.827-3.375-2.4-4.935-3.961s-5-7.83-3.9-8.929S527.892,1034.463,527.892,1034.463Z" transform="translate(-496.115 -993.726)" fill="#9369bf"/>
            <path id="Trazado_904355" data-name="Trazado 904355" d="M614.02,1100.615a2.195,2.195,0,1,1-1.095-2.9A2.195,2.195,0,0,1,614.02,1100.615Z" transform="translate(-557.086 -1036.993)" fill="#9369bf"/>
            <path id="Trazado_904356" data-name="Trazado 904356" d="M604.613,1107.161s-2.86.733-2.86,2.714a3.367,3.367,0,0,1-1.174,2.787s2.75.33,4.034-.953S604.613,1107.161,604.613,1107.161Z" transform="translate(-550.741 -1043.613)" fill="#9369bf"/>
          </g>
          <rect id="Rectángulo_405883" data-name="Rectángulo 405883" width="224.48" height="23.203" transform="translate(19.106 88.442)" fill="#b76641"/>
          <rect id="Rectángulo_405884" data-name="Rectángulo 405884" width="224.48" height="4.959" transform="translate(19.106 88.442)" fill="#689de0" style="mix-blend-mode: screen;isolation: isolate"/>
          <g id="Grupo_1117962" data-name="Grupo 1117962" transform="translate(8.149 34.986)">
            <path id="Trazado_904357" data-name="Trazado 904357" d="M299.591,1056.06l-65.166-1.562-12.646-37.258,64.261-1.1Z" transform="translate(-221.779 -1016.137)" fill="#474747"/>
            <path id="Trazado_904358" data-name="Trazado 904358" d="M234.425,1056.725l65.166,1.562-1.131-3.332c-8.276-.445-25.785-2.214-41.857-9.217-14.007-6.1-24.291-17.928-29.917-26.356l-4.907.084Z" transform="translate(-221.779 -1018.364)" fill="#404040"/>
            <path id="Trazado_904359" data-name="Trazado 904359" d="M303.752,1076c-6.3,6.2-10.814,16.039-9.966,28.969l-9.47-1.413c2.579-14.744,10.209-24.7,18.225-29.687Z" transform="translate(-264.693 -1055.752)" fill="#626262"/>
            <path id="Trazado_904360" data-name="Trazado 904360" d="M300.536,1171.753H263.768v-6.741H293.8a6.741,6.741,0,0,1,6.741,6.741Z" transform="translate(-250.592 -1118.297)" fill="#474747"/>
            <path id="Trazado_904361" data-name="Trazado 904361" d="M293.467,1171.753H256.7v-6.741h30.028a6.741,6.741,0,0,1,6.741,6.741Z" transform="translate(-245.741 -1118.297)" fill="#404040"/>
          </g>
          <g id="Grupo_1117963" data-name="Grupo 1117963" transform="translate(168.465 34.986)">
            <path id="Trazado_904362" data-name="Trazado 904362" d="M732.69,1056.06l65.166-1.562,12.646-37.258-64.261-1.1Z" transform="translate(-732.689 -1016.137)" fill="#474747"/>
            <path id="Trazado_904363" data-name="Trazado 904363" d="M797.855,1056.725l-65.166,1.562,1.131-3.332c8.276-.445,25.785-2.214,41.857-9.217,14.007-6.1,24.291-17.928,29.917-26.356l4.907.084Z" transform="translate(-732.689 -1018.364)" fill="#404040"/>
            <path id="Trazado_904364" data-name="Trazado 904364" d="M856.19,1076c6.3,6.2,10.814,16.039,9.966,28.969l9.47-1.413c-2.578-14.744-10.209-24.7-18.225-29.687Z" transform="translate(-817.437 -1055.752)" fill="#626262"/>
            <path id="Trazado_904365" data-name="Trazado 904365" d="M821.5,1171.753h36.769v-6.741H828.243a6.741,6.741,0,0,0-6.741,6.741Z" transform="translate(-793.634 -1118.297)" fill="#474747"/>
            <path id="Trazado_904366" data-name="Trazado 904366" d="M828.572,1171.753H865.34v-6.741H835.313a6.741,6.741,0,0,0-6.741,6.741Z" transform="translate(-798.485 -1118.297)" fill="#626262"/>
          </g>
          <path id="Rectángulo_405885" data-name="Rectángulo 405885" d="M29.879,0h0A29.879,29.879,0,0,1,59.759,29.879v124.15a0,0,0,0,1,0,0H0a0,0,0,0,1,0,0V29.879A29.879,29.879,0,0,1,29.879,0Z" transform="translate(200.388 80.702)" fill="#7d3a1b"/>
          <path id="Rectángulo_405886" data-name="Rectángulo 405886" d="M29.879,0h0A29.879,29.879,0,0,1,59.759,29.879V154.03a0,0,0,0,1,0,0H0a0,0,0,0,1,0,0V29.879A29.879,29.879,0,0,1,29.879,0Z" transform="translate(212.701 80.702)" fill="#dc9a68"/>
          <path id="Trazado_904367" data-name="Trazado 904367" d="M1014.336,1315.858v-131.1a22.928,22.928,0,0,0-22.761-22.927c6,3.725,11.15,10.752,12.159,23.634,2.023,25.812-1.266,98.621-2.866,130.4Z" transform="translate(-741.875 -1081.127)" fill="#dfe7f2"/>
          <path id="Rectángulo_405887" data-name="Rectángulo 405887" d="M7.593,0h20.84a7.593,7.593,0,0,1,7.593,7.593V9.327a7.592,7.592,0,0,1-7.592,7.592H7.592A7.592,7.592,0,0,1,0,9.327V7.593A7.593,7.593,0,0,1,7.593,0Z" transform="translate(227.949 92.078)" fill="#021833"/>
          <g id="Grupo_1117964" data-name="Grupo 1117964" transform="translate(234.287 93.784)">
            <path id="Trazado_904368" data-name="Trazado 904368" d="M942.456,1204.261a.742.742,0,0,0,.412.665l9.154,4.554v.048l-9.154,4.553a.741.741,0,0,0-.412.664h0a.742.742,0,0,0,1.081.66l9.78-5.017a.741.741,0,0,0,.4-.661v-.452a.741.741,0,0,0-.4-.66l-9.78-5.017a.742.742,0,0,0-1.081.661Z" transform="translate(-942.456 -1203.518)" fill="#ffce00"/>
            <path id="Trazado_904369" data-name="Trazado 904369" d="M988.561,1204.261h0a.742.742,0,0,0,.412.665l9.154,4.554v.048l-9.154,4.553a.741.741,0,0,0-.412.664h0a.742.742,0,0,0,1.081.66l9.78-5.017a.742.742,0,0,0,.4-.661v-.452a.741.741,0,0,0-.4-.66l-9.78-5.017A.742.742,0,0,0,988.561,1204.261Z" transform="translate(-974.094 -1203.518)" fill="#ffce00"/>
          </g>
          <path id="Rectángulo_405888" data-name="Rectángulo 405888" d="M24.53,0h0a24.53,24.53,0,0,1,24.53,24.53v129.5a0,0,0,0,1,0,0H0a0,0,0,0,1,0,0V24.53A24.53,24.53,0,0,1,24.53,0Z" transform="translate(353.095 80.702)" fill="#7d3a1b"/>
          <path id="Rectángulo_405889" data-name="Rectángulo 405889" d="M24.53,0h0A24.53,24.53,0,0,1,49.06,24.53V153.546a.483.483,0,0,1-.483.483H.483A.483.483,0,0,1,0,153.547V24.53A24.53,24.53,0,0,1,24.53,0Z" transform="translate(363.204 80.702)" fill="#dc9a68"/>
          <path id="Trazado_904370" data-name="Trazado 904370" d="M1468.785,1315.858v-131.1c0-12.607-8.353-22.838-18.686-22.927,4.923,3.725,9.154,10.752,9.982,23.634,1.661,25.812-1.039,98.621-2.353,130.4Z" transform="translate(-1056.521 -1081.127)" fill="#dfe7f2"/>
          <path id="Rectángulo_405890" data-name="Rectángulo 405890" d="M7.593,0H28.433a7.593,7.593,0,0,1,7.593,7.593V9.326a7.593,7.593,0,0,1-7.593,7.593H7.592A7.592,7.592,0,0,1,0,9.327V7.593A7.593,7.593,0,0,1,7.593,0Z" transform="translate(368.981 93.711)" fill="#021833"/>
          <g id="Grupo_1117965" data-name="Grupo 1117965" transform="translate(375.319 95.417)">
            <path id="Trazado_904371" data-name="Trazado 904371" d="M1391.909,1209.466a.742.742,0,0,0,.412.665l9.154,4.554v.048l-9.154,4.553a.742.742,0,0,0-.412.665h0a.742.742,0,0,0,1.081.66l9.78-5.016a.742.742,0,0,0,.4-.66v-.453a.742.742,0,0,0-.4-.66l-9.78-5.017a.742.742,0,0,0-1.081.661Z" transform="translate(-1391.909 -1208.722)" fill="#ffce00"/>
            <path id="Trazado_904372" data-name="Trazado 904372" d="M1438.014,1209.466h0a.742.742,0,0,0,.412.665l9.154,4.554v.048l-9.154,4.553a.742.742,0,0,0-.412.665h0a.742.742,0,0,0,1.081.66l9.78-5.016a.742.742,0,0,0,.4-.66v-.453a.741.741,0,0,0-.4-.66l-9.78-5.017A.742.742,0,0,0,1438.014,1209.466Z" transform="translate(-1423.547 -1208.722)" fill="#ffce00"/>
          </g>
        </g>
        <g id="Grupo_1117971" data-name="Grupo 1117971" transform="translate(411.846 152.471)">
          <path id="Trazado_904373" data-name="Trazado 904373" d="M1520.676,1655.744s.259,3.956-1.757,6.2-9.513,3.441-10.521,6,7.555,2.717,10.433,1.933,10.355-1.4,12.227-1.5-2.407-12.543-2.791-12.887S1520.676,1655.744,1520.676,1655.744Z" transform="translate(-1508.316 -1398.679)" fill="#f4b285"/>
          <path id="Trazado_904374" data-name="Trazado 904374" d="M1683.566,1648.722s-1.857,8.352-1.681,11.577,4.1,8.226,7.117,8.061,5.514-2.179,4.778-6.1-3.02-13.252-3.02-13.252Z" transform="translate(-1627.414 -1394.107)" fill="#f4b285"/>
          <path id="Trazado_904375" data-name="Trazado 904375" d="M1651.64,1027.938c-1.25-10.416-3.327-60-3.327-60-3.478-4.129-15.839-8.848-15.839-8.848-8.75-3.234-14.311-5.637-24.9,1.972-7.779,5.589-10.93,36.249-10.93,45.207s8.958,38.331,8.958,38.331h4.914s-4.2-23.1-3.664-44.863c.414-16.716,5.358-32.648,6.6-36.73,2.852-9.4,14.583,1.063,14.583,1.063s2.85,26.158-2.186,41.782,1.213,38.748,1.213,38.748c10.208,4.583,31.683,4.02,31.665-3.958C1658.715,1037.01,1652.89,1038.355,1651.64,1027.938Z" transform="translate(-1568.927 -918.759)" fill="#5792dc"/>
          <path id="Trazado_904376" data-name="Trazado 904376" d="M1624.873,841.517s-6.168,2.026-7.7,7.581-5.347,17.013,0,22.36c2.847,2.847,9,2.982,9,2.982s5.669-6.593,4.723-15.482S1624.873,841.517,1624.873,841.517Z" transform="translate(-1581.128 -840.191)" fill="#343b42"/>
          <path id="Trazado_904377" data-name="Trazado 904377" d="M1606.79,1047.413s3.021-61.768,0-64.789-37.707-4.305-37.707-4.305-9.583,8.264-9.583,12.847-.658,56.738-.658,56.738c-7.976,2.94-20.318,55.773-21.243,69.385s1.076,76.927,1.076,76.927l11.615-1.261c6.341-9.944,9.2-62.31,11.05-68.828,2.557-9,14.565-36.539,14.565-36.539l6.186-2.7s-1.432,41.519-.909,51.087-.072,55.918-.072,55.918l11.649-.637c9.12-16.355,15.635-91.82,15.419-95.772s3.811-10.432,4.653-21.744C1613.5,1064.817,1606.79,1047.413,1606.79,1047.413Z" transform="translate(-1528.243 -934.067)" fill="#7a4f00"/>
          <rect id="Rectángulo_405891" data-name="Rectángulo 405891" width="20.662" height="2.188" transform="translate(37.469 111.948)" fill="#ffce00"/>
          <path id="Rectángulo_405892" data-name="Rectángulo 405892" d="M1.8,0H4.832a1.8,1.8,0,0,1,1.8,1.8v0a1.8,1.8,0,0,1-1.8,1.8H1.8A1.8,1.8,0,0,1,0,1.8v0A1.8,1.8,0,0,1,1.8,0Z" transform="translate(44.359 111.406)" fill="#f0f8e9"/>
          <path id="Trazado_904378" data-name="Trazado 904378" d="M1702.118,984.952c-1.867-1.867-16.84-3.038-19.41-3.24.43,4.646-.029,27.675-4.354,41.092-2.73,8.472-2.327,18.862-1.3,26.937h0a110.226,110.226,0,0,0,2.76,14.11c.249.076,6.663,3.517,17.806,3.518a41.41,41.41,0,0,0,9.492-1.092,129.107,129.107,0,0,0-4.993-16.536C1705.164,984.275,1702.119,985.117,1702.118,984.952Z" transform="translate(-1623.572 -936.395)" fill="#7348a1"/>
          <path id="Trazado_904379" data-name="Trazado 904379" d="M1597.2,978.319s-.073.062-.2.179l-.068.06-.249.223-.1.093-.134.122-.121.111-.3.278-.147.137-.092.086-.158.15-.365.348-.181.174-.4.386-.2.2-.208.207c-2.818,2.821-6.656,7.2-6.656,10.1v.1c0,.575-.01,1.718-.025,3.3-.072,9.188-.183,33.033,1.439,45.333.151,1.146-.654,1.139-1.979.55-.056,4.53-.093,7.459-.093,7.459-2.6.957-5.655,7.2-8.632,15.655,9.706.831,21.493,1.268,22.308-1.4.245-.8-1.65-9.992-2.242-14.743h-.013c-3.948-32.062-.665-60.113,2.444-68.936C1598.581,978.37,1597.2,978.319,1597.2,978.319Z" transform="translate(-1556.356 -934.067)" fill="#7348a1"/>
          <path id="Trazado_904380" data-name="Trazado 904380" d="M1725.238,1047.386c.018,7.978-21.457,8.542-31.665,3.958l1.111-34.581,4.305-50.93s12.1,4.234,16.491,7.22c0,0,1.425,51.209,2.674,61.625S1725.23,1043.749,1725.238,1047.386Z" transform="translate(-1635.442 -925.499)" fill="#8bb4e7"/>
          <path id="Trazado_904381" data-name="Trazado 904381" d="M1589.17,971.394s-5.121,38.079-5.121,48.7-2.012,28.956-2.012,28.956,10.868,4.166,18.454,2.292c0,0-7.2-40.906-7.2-43.577s7.2-41.934,7.2-41.934S1593.737,968.945,1589.17,971.394Z" transform="translate(-1558.904 -925.499)" fill="#8bb4e7"/>
          <path id="Trazado_904382" data-name="Trazado 904382" d="M1610.514,1044.6s-4.2-23.1-3.664-44.863c.414-16.716,5.358-32.648,6.6-36.73,2.852-9.4,14.583,1.063,14.583,1.063s2.85,26.158-2.186,41.782,1.213,38.748,1.213,38.748l4.167,1.439s.833-27.078,6.458-41.66,3.541-42.055-5.208-45.29-14.311-5.637-24.9,1.972c-7.779,5.589-10.93,36.249-10.93,45.207s8.958,38.331,8.958,38.331Z" transform="translate(-1568.927 -918.759)" fill="#5792dc"/>
          <path id="Trazado_904383" data-name="Trazado 904383" d="M1650.2,929.646v16.367s3.472,12.937,6.666,12.937,8.055-13.816,8.055-13.816l-1.389-18.822Z" transform="translate(-1605.677 -898.38)" fill="#f4b285"/>
          <path id="Trazado_904384" data-name="Trazado 904384" d="M1650.2,936.163c5.247,2.853,10.864-.7,13.685-5.085l-.352-4.765-13.333,3.333Z" transform="translate(-1605.677 -898.38)" fill="#f19a5e" opacity="0.68" style="mix-blend-mode: multiply;isolation: isolate"/>
          <path id="Trazado_904385" data-name="Trazado 904385" d="M1635.961,856.468c-1.718,1.773-4.305,4.583-4.305,8.889s-1.528,13.888,4.305,17.916,12.5.268,15.416-4.171,2.917-14.856,1.111-19.022S1637.192,855.2,1635.961,856.468Z" transform="translate(-1592.83 -850.061)" fill="#f4b285"/>
          <path id="Trazado_904386" data-name="Trazado 904386" d="M1662.559,860.078c-1.759-4.059-14.609-4.841-16.408-3.7,1.179,3.283,4.875,5.5,4.875,5.5a10.039,10.039,0,0,1,5.085,6.211c1.18,4.294-.875,11.4.407,15.521a13.967,13.967,0,0,0,4.93-4.5C1664.364,874.661,1664.364,864.245,1662.559,860.078Z" transform="translate(-1602.9 -850.061)" fill="#a46940" opacity="0.49"/>
          <path id="Trazado_904387" data-name="Trazado 904387" d="M1669.232,846.107c-4.306-5.968-21.094-11.992-23.471-6.9-2.589,5.543,6.333,8.987,6.333,8.987a10.326,10.326,0,0,1,4.78,6.283c1.25,4.55-1.806,10.3,0,14.272,3.472,7.628,11.445,4.084,14.292,1.237S1673.537,852.074,1669.232,846.107Z" transform="translate(-1602.309 -837.292)" fill="#4e5963"/>
          <path id="Trazado_904388" data-name="Trazado 904388" d="M1551.585,1657.373l-14.785.808.395-3.057,14.673-.8Z" transform="translate(-1527.862 -1397.951)" fill="#ad8dce"/>
          <path id="Trazado_904389" data-name="Trazado 904389" d="M1687.587,1649.938l-14.785.809.395-3.057,14.673-.8Z" transform="translate(-1621.188 -1392.848)" fill="#ad8dce"/>
          <path id="Trazado_904390" data-name="Trazado 904390" d="M1530.265,1673.835c-1.112,1.405-4.738,4.281-15.352,3.01-2.764,1.115-5.89,2.177-6.515,3.765-1.008,2.559,7.555,2.716,10.433,1.933s10.355-1.4,12.227-1.5C1532.078,1680.984,1531.272,1677.265,1530.265,1673.835Z" transform="translate(-1508.316 -1411.34)" fill="#011125"/>
          <path id="Trazado_904391" data-name="Trazado 904391" d="M1681.885,1675.337c.176,3.224,4.1,8.226,7.117,8.061s5.514-2.179,4.778-6.1c-.248-1.32-.671-3.254-1.123-5.237-.385,2.448-1.522,6.614-4.741,5.172-3.484-1.559-5.024-5.181-5.634-6.593A26.744,26.744,0,0,0,1681.885,1675.337Z" transform="translate(-1627.413 -1409.145)" fill="#011125"/>
          <g id="Grupo_1117967" data-name="Grupo 1117967" transform="translate(24.373 103.367)">
            <path id="Trazado_904392" data-name="Trazado 904392" d="M1585.989,1174.974c4.23-.215,9.652-.488,14.943-.749-.187-1.725-.367-3.542-.534-5.43l-14.022.744C1586.261,1171.367,1586.128,1173.2,1585.989,1174.974Z" transform="translate(-1585.989 -1168.141)" fill="#011125" opacity="0.18" style="mix-blend-mode: multiply;isolation: isolate"/>
            <path id="Trazado_904393" data-name="Trazado 904393" d="M1707.271,1175.293a8.7,8.7,0,0,0,4.237-1.1,71.778,71.778,0,0,1-.741-7.48h-27.253c.041,1.815.143,3.6.289,5.334,1.782-.074,3.026-.118,3.492-.118C1690.462,1171.928,1702.792,1175.293,1707.271,1175.293Z" transform="translate(-1652.911 -1166.712)" fill="#011125" opacity="0.18" style="mix-blend-mode: multiply;isolation: isolate"/>
          </g>
          <g id="Grupo_1117968" data-name="Grupo 1117968" transform="translate(77.803 103.375)">
            <rect id="Rectángulo_405893" data-name="Rectángulo 405893" width="2.951" height="34.796" transform="translate(0 0.052) rotate(-1.005)" fill="#ffce00"/>
          </g>
          <path id="Trazado_904394" data-name="Trazado 904394" d="M1717.908,1316.366l.865,13.81a22.411,22.411,0,0,0,12.926,3.887c.28-3.617.411-5.985.377-6.6-.1-1.769.657-4.044,1.594-7.033Z" transform="translate(-1652.141 -1166.04)" fill="#021329" opacity="0.38"/>
          <g id="Grupo_1117969" data-name="Grupo 1117969" transform="translate(18.15 45.656)">
            <path id="Trazado_904395" data-name="Trazado 904395" d="M1578.682,983.444s-3.806-1.807-9.187,16.223-1.806,41.194,1.908,43.6,39.778,1.514,39.778,1.514l.14-12.99s-27.3-4.266-30-7.581c-.664-.815.476-4.3.238-8.273C1580.824,1003.751,1578.682,983.444,1578.682,983.444Z" transform="translate(-1566.566 -983.205)" fill="#adcaee"/>
            <path id="Trazado_904396" data-name="Trazado 904396" d="M1596.456,1044.718h0c-10.461,0-23.387-.3-25.564-1.706-1.946-1.26-3.776-7.873-4.45-16.083a78.623,78.623,0,0,1,2.464-27.728c4.42-14.809,7.808-16.408,9.06-16.408a.95.95,0,0,1,.389.068l.1.046.011.105c.022.2,2.151,20.451,2.872,32.5a29.388,29.388,0,0,1-.27,5.267c-.16,1.365-.3,2.545-.01,2.9,2.627,3.222,29.616,7.472,29.888,7.514l.161.025-.143,13.335-.182,0C1610.71,1044.558,1604.156,1044.718,1596.456,1044.718Zm-18.491-61.548c-.911,0-4.229,1.164-8.7,16.139a78.247,78.247,0,0,0-2.449,27.59c.666,8.1,2.425,14.6,4.279,15.8,1.662,1.076,10.432,1.645,25.359,1.645,6.982,0,13.019-.131,14.13-.157l.136-12.646c-2.47-.39-27.323-4.387-29.961-7.623-.389-.477-.263-1.552-.072-3.18a29.036,29.036,0,0,0,.268-5.2c-.691-11.539-2.674-30.606-2.857-32.356A.9.9,0,0,0,1577.965,983.17Z" transform="translate(-1566.157 -982.793)" fill="#327ad5"/>
          </g>
          <path id="Trazado_904397" data-name="Trazado 904397" d="M1576,1091.1a33.426,33.426,0,0,1-5.133-4.288c-1.4-1.719-4.206-4.031-4.331-2.805S1567.7,1087,1567.7,1087s-5.1-3.562-5.774-3.011-1.345,4.367-.873,8.581,12.424,7.281,12.424,7.281Z" transform="translate(-1544.395 -1006.355)" fill="#e8a475"/>
          <path id="Trazado_904398" data-name="Trazado 904398" d="M1728.647,1296.551l-1.078.109c-6.157.855-10.619-1.573-10.739-3.9l-1.127-21.827,11.968-1.217a4.91,4.91,0,0,1,5.185,3.424l5.576,17.9C1739.167,1293.395,1734.652,1295.939,1728.647,1296.551Z" transform="translate(-1650.628 -1134.01)" fill="#ffe783"/>
          <path id="Trazado_904399" data-name="Trazado 904399" d="M1715.207,1294.555l-1.724-21.152,1.9-.193a4.521,4.521,0,0,1,4.9,3.675l3.073,16.6C1724.355,1298.882,1715.653,1300.026,1715.207,1294.555Z" transform="translate(-1649.104 -1136.409)" fill="#ffce00"/>
          <g id="Grupo_1117970" data-name="Grupo 1117970" transform="translate(29.647 44.782)">
            <rect id="Rectángulo_405894" data-name="Rectángulo 405894" width="2.693" height="100.12" transform="translate(0 0.937) rotate(-20.375)" fill="#ffce00"/>
          </g>
          <path id="Trazado_904400" data-name="Trazado 904400" d="M1648.178,1050.537c-13,2.17-40.447-7.494-51.575-10.99l4.171-14.438s32.776,9.068,37.071,7.14c2.123-.953,7.563-11.047,9.559-21.314a109.118,109.118,0,0,0,1.535-22.094s9.416,12.317,6.762,38.394C1653.676,1047.134,1653.9,1049.583,1648.178,1050.537Z" transform="translate(-1568.9 -941.288)" fill="#84afe6"/>
          <path id="Trazado_904401" data-name="Trazado 904401" d="M1725.092,1084.859s-3.069,2.6-5.464,4.549-6.146,7.2-6.146,7.2,4.452,1.057,6.013,1.216,6.692-2.7,8.475-2.516,1.264-2.461-.922-2.008-4.348.683-4.348.683,5.127-3.363,7.522-5.315.456-3.429-1.5-1.832a19.2,19.2,0,0,1-4.083,2.5s6.9-5.829,5.9-7.056S1725.092,1084.859,1725.092,1084.859Z" transform="translate(-1649.104 -1005.24)" fill="#e8a475"/>
          <path id="Trazado_904402" data-name="Trazado 904402" d="M1743.973,1302.25a8.209,8.209,0,0,1-3.407,2.567c-5.229,2.085-12.574-6.506-12.647-6.592l-.342.29c.274.324,6.055,7.081,11.213,7.081a5.209,5.209,0,0,0,1.943-.362,8.577,8.577,0,0,0,3.4-2.473Z" transform="translate(-1658.775 -1153.591)" fill="#ffce00"/>
        </g>
        <g id="Grupo_1117973" data-name="Grupo 1117973" transform="translate(460.283 138.449)">
          <path id="Trazado_904403" data-name="Trazado 904403" d="M1685.8,1100.2s-.936,6.382,1.476,9.52,6.057,1.342,10.264,2.3,9.236,9.573,9.236,9.573l4.431-11.667s-7.6-5.421-8.115-5.934-2.448-5.788-3.945-7.135a1.511,1.511,0,0,0-2.191-.158s.3,4.507-1.324,4.95S1685.8,1100.2,1685.8,1100.2Z" transform="translate(-1678.423 -1001.012)" fill="#f4b285"/>
          <path id="Trazado_904404" data-name="Trazado 904404" d="M1770.887,956.451s-4.466,4.968-10.508,17.555-6.458,40.5-8.75,42.794-11.8-8.595-11.8-8.595l-6.328,10.044s12.714,20.425,20.422,20.425,16.966-12.708,16.966-12.708Z" transform="translate(-1711.277 -905.038)" fill="#727997"/>
          <path id="Trazado_904405" data-name="Trazado 904405" d="M1753.922,1038.674c7.708,0,16.966-12.708,16.966-12.708V956.451s-3.9,82.366-20.057,78.353c-9.905-2.461-17.33-16.555-17.33-16.555S1746.214,1038.674,1753.922,1038.674Z" transform="translate(-1711.278 -905.038)" fill="#535a76"/>
          <path id="Trazado_904406" data-name="Trazado 904406" d="M1663.076,1067.573c4.771,5.3,6.139,9.539,8.767,16.076a1.544,1.544,0,0,0,1.4.966,36.193,36.193,0,0,1,5.779.607,1.544,1.544,0,0,0,1.835-1.477c.154-6.9-.3-14.555-3.386-19.847a1.544,1.544,0,0,0-1.349-.766c-2.3.022-8.6.252-12.536,2.011A1.538,1.538,0,0,0,1663.076,1067.573Z" transform="translate(-1662.681 -978.244)" fill="#064697"/>
          <path id="Trazado_904407" data-name="Trazado 904407" d="M1678.772,1054.973a1.823,1.823,0,0,0-1.786,2.189l2.863,14,1.826,7.576a1.823,1.823,0,0,0,1.806,1.4l6.958-.13a1.823,1.823,0,0,0,1.775-2.05l-2.687-21.381a1.823,1.823,0,0,0-1.809-1.6Z" transform="translate(-1672.471 -972.645)" fill="#edf5ff"/>
          <path id="Trazado_904408" data-name="Trazado 904408" d="M1714.021,1099.2s-1.159,1.608-.71,2.917,3.2-.471,3.814-1.087-1.237-3.484-1.237-3.484A10.432,10.432,0,0,0,1714.021,1099.2Z" transform="translate(-1697.352 -1001.86)" fill="#f4b285"/>
          <path id="Trazado_904409" data-name="Trazado 904409" d="M1685.764,1095.639s.73-8.469,2.45-8.026.625,9.18.625,9.741.834-2.673,2.093-2.254c1.022.341.181,9.574.181,9.574a35.876,35.876,0,0,1-4.147-1.545C1687.108,1102.988,1685.764,1095.639,1685.764,1095.639Z" transform="translate(-1678.521 -995.032)" fill="#f4b285"/>
          <path id="Trazado_904410" data-name="Trazado 904410" d="M1773.9,1657.061a20.47,20.47,0,0,1-9.024,7.3c-5.654,2.077-12.758,1.106-14.05,5.994s35.019.714,35.019.714-1.769-12.183-1.809-14.208.786-9.4.786-9.4l-8.2-.393Z" transform="translate(-1723.144 -1378.946)" fill="#f4b285"/>
          <path id="Trazado_904411" data-name="Trazado 904411" d="M1971.052,1644.679s.035.316.035.844a11.206,11.206,0,0,1-2.784,7.648c-3.3,3.434-3.32,7.706.167,8.436s11.8-.233,11.8-.233,1.88-3.267.6-11.993-2.029-18.3-2.029-18.3l-9.475-1.479Z" transform="translate(-1870.713 -1366.967)" fill="#f4b285"/>
          <path id="Trazado_904412" data-name="Trazado 904412" d="M1823.74,1261.8a4.56,4.56,0,0,0-.294,1.24c-.54,5.825-4.571,49.669-4.4,58.416.156,7.915-.026,43.73-.087,54.68-.012,2.211,14.265,2.034,14.5.28,1.756-12.9,9.409-69.548,10.77-86.827.333-4.225,5.836-5.869,8.252-2.386.076.11.151.225.222.346,2.586,4.324,7.323,41.223,10.466,52.621,2.549,9.243,2.306,29.785,2.123,37.22-.047,1.9,15.383,2.68,15.435.607.445-17.619,2.506-105.167-.157-116.724a138.385,138.385,0,0,0-4.581-15.977,4.583,4.583,0,0,0-4.4-3.016l-37.484.741a4.588,4.588,0,0,0-4.183,2.92Z" transform="translate(-1769.923 -1101.179)" fill="#7d3a1b"/>
          <path id="Trazado_904413" data-name="Trazado 904413" d="M1870.326,1379.048c-.153-.048-3.567-1.062-6.856,2.227-3.365,3.365-12.9,90.124-12.9,90.124h0c2.492-.177,4.5-.61,4.584-1.258,1.756-12.9,9.409-69.548,10.77-86.826A4.641,4.641,0,0,1,1870.326,1379.048Z" transform="translate(-1791.611 -1194.904)" fill="#021329" opacity="0.38"/>
          <path id="Trazado_904414" data-name="Trazado 904414" d="M1887.732,1252.786c-.932-3.256-1.769-5.746-2.4-7.489a4.583,4.583,0,0,0-4.4-3.016l-37.484.741a4.588,4.588,0,0,0-4.183,2.92l-6.186,15.859a4.578,4.578,0,0,0-.294,1.24c-.047.509-.121,1.308-.216,2.348,2.378,5.879,9.668,15.381,18.893,15.382h0a13.845,13.845,0,0,0,5-.949C1867.134,1275.7,1882.709,1260.8,1887.732,1252.786Z" transform="translate(-1779.259 -1101.179)" fill="#021227"/>
          <path id="Trazado_904415" data-name="Trazado 904415" d="M1991.842,1251.952c-.53,1.827-2.839,7.2-4.089,10.053a18.891,18.891,0,0,1-1.763,3.838c-2.847,3.392-1.98,4.9-1.98,4.9l9.962,7.889s2.34-11.384,3.629-13.34c1.441-2.186,1.89-2.132,4.224-5.77Z" transform="translate(-1883.096 -1107.815)" fill="#f4b285"/>
          <g id="Grupo_1117972" data-name="Grupo 1117972" transform="translate(99.305 161.318)">
            <path id="Trazado_904416" data-name="Trazado 904416" d="M1990.713,1316.654a.446.446,0,0,1-.282-.1l-11.1-8.991a.489.489,0,0,1-.079-.67.448.448,0,0,1,.645-.083l11.1,8.991a.489.489,0,0,1,.079.67A.452.452,0,0,1,1990.713,1316.654Z" transform="translate(-1979.154 -1306.708)" fill="#021227"/>
          </g>
          <path id="Trazado_904417" data-name="Trazado 904417" d="M1906.366,956.873c-10.416-27.5-19.193-26.9-19.193-26.9l-30.6-1.475s-15.1,6.14-17.616,8.654-6.3,106.231-6.3,109.981,11.21,19.741,23.084,15.157c10-3.859,24.615-17.843,29.723-25.306a19.088,19.088,0,0,0,1.362-4.583c1.157-11.085,2.662-32.744,3.086-49.111a24.293,24.293,0,0,1,5.2,15.046c0,4.48-5.04,20.489-8.413,32.109l11.347,7.121c5.943-9.264,13.381-21.281,15.19-26.106C1916.365,1003.12,1916.782,984.371,1906.366,956.873Z" transform="translate(-1779.323 -885.853)" fill="#727997"/>
          <path id="Trazado_904418" data-name="Trazado 904418" d="M1888.739,1114.81c.112-4.394.679-9.472.871-14.239,2.342-31.224,1.924-53.387,6.344-96.708l-.893.161c-.073.709-6.354,67.978-7.155,110.719Q1888.321,1114.79,1888.739,1114.81Z" transform="translate(-1817.234 -937.574)" fill="#c9dcf4"/>
          <path id="Trazado_904419" data-name="Trazado 904419" d="M1916.017,1099.492a1.231,1.231,0,1,1-1.231-1.231A1.231,1.231,0,0,1,1916.017,1099.492Z" transform="translate(-1834.834 -1002.35)" fill="#c9dcf4"/>
          <path id="Trazado_904420" data-name="Trazado 904420" d="M1913.514,1136.369a1.231,1.231,0,1,1-1.231-1.231A1.231,1.231,0,0,1,1913.514,1136.369Z" transform="translate(-1833.116 -1027.656)" fill="#c9dcf4"/>
          <path id="Trazado_904421" data-name="Trazado 904421" d="M1911.012,1167.114a1.232,1.232,0,1,1-1.232-1.232A1.231,1.231,0,0,1,1911.012,1167.114Z" transform="translate(-1831.399 -1048.753)" fill="#c9dcf4"/>
          <path id="Trazado_904422" data-name="Trazado 904422" d="M1908.385,1196.66a1.231,1.231,0,1,1,.45-1.682A1.231,1.231,0,0,1,1908.385,1196.66Z" transform="translate(-1830.019 -1068.296)" fill="#c9dcf4"/>
          <path id="Trazado_904423" data-name="Trazado 904423" d="M1906.761,1230.979a1.232,1.232,0,1,1,.451-1.682A1.232,1.232,0,0,1,1906.761,1230.979Z" transform="translate(-1828.904 -1091.846)" fill="#c9dcf4"/>
          <path id="Trazado_904424" data-name="Trazado 904424" d="M1904.46,1258.625a1.231,1.231,0,1,1,.451-1.682A1.231,1.231,0,0,1,1904.46,1258.625Z" transform="translate(-1827.325 -1110.817)" fill="#c9dcf4"/>
          <path id="Trazado_904425" data-name="Trazado 904425" d="M1902.136,1292.239a1.232,1.232,0,1,1,.451-1.682A1.232,1.232,0,0,1,1902.136,1292.239Z" transform="translate(-1825.731 -1133.883)" fill="#c9dcf4"/>
          <path id="Trazado_904426" data-name="Trazado 904426" d="M1959.206,1011.338q.073-2.352.134-4.722a18.886,18.886,0,0,1,2.062,3.063,17.667,17.667,0,0,0,.754-4.262c1.736-21.369-13.478-34.644-17.74-37.86a41.9,41.9,0,0,0-10.545-5.235l11.712,22.136S1954.365,1009.513,1959.206,1011.338Z" transform="translate(-1848.775 -909.067)" fill="#053f87"/>
          <path id="Trazado_904427" data-name="Trazado 904427" d="M1888.418,971.75c-7.183,1.34-10.155,10.516-10.155,19.961s9.2,16.536,5.241,30.489a196.038,196.038,0,0,1-8.575,24.23s1.979,4.583,15.171,4.583c0,0,7.915-19.24,9.894-31.077s-12.2-26.559-9.235-32.669,16.876-11.3,16.876-11.3C1907.271,971.606,1893.484,970.8,1888.418,971.75Z" transform="translate(-1808.328 -915.294)" fill="#535a76"/>
          <path id="Trazado_904428" data-name="Trazado 904428" d="M1865.625,921.969s-11.04-17.317-8.54-25.6,11.95-16.627,30.834-14.539,26.107,13.754,25,22.086S1881.666,925.58,1865.625,921.969Z" transform="translate(-1795.831 -853.608)" fill="#ffce00"/>
          <path id="Trazado_904429" data-name="Trazado 904429" d="M1944.416,967.557a41.9,41.9,0,0,0-10.545-5.235l6.9,13.035a79.491,79.491,0,0,0,8.781-3.206A45.256,45.256,0,0,0,1944.416,967.557Z" transform="translate(-1848.775 -909.067)" fill="#ffce00"/>
          <path id="Trazado_904430" data-name="Trazado 904430" d="M1946.442,889.274s10.6,4.824,13.181,11.554-9.541,17.051-9.541,17.051Z" transform="translate(-1857.402 -858.94)" fill="#ffce00"/>
          <path id="Trazado_904431" data-name="Trazado 904431" d="M1913.554,979.928s15.254,21.559,18.7,36.274c.9,3.821-7.711,26.054-7.711,26.054s10.628,3.528,15.211,2.278c0,0,9.239-22.776,7.374-39.237s-19.618-31.853-19.618-31.853Z" transform="translate(-1834.834 -916.7)" fill="#ffce00"/>
          <path id="Trazado_904432" data-name="Trazado 904432" d="M1900.159,873.027l2.916,25.324s13.213.438,15.263-.7a7.264,7.264,0,0,0,2.648-3.058,9.04,9.04,0,0,0,.866-6.119l-5.235-25.267Z" transform="translate(-1825.642 -841.053)" fill="#f2a169"/>
          <path id="Trazado_904433" data-name="Trazado 904433" d="M1915,883.843c-1.5,1.835-8.432,3.69-12.674,2.38l-.083-.027,1.6,13.888c3.736.7,9.677-1.013,11.708-2.706,5.042-4.2,3.165-23.267,3.165-23.267S1917.367,880.954,1915,883.843Z" transform="translate(-1827.074 -848.537)" fill="#f3ab79" opacity="0.68" style="mix-blend-mode: multiply;isolation: isolate"/>
          <path id="Trazado_904434" data-name="Trazado 904434" d="M1886.607,793.9s-1.054,3.8-1.054,17.762,2.448,17.79,8.125,17.5c10.041-.514,10.625-.625,12.5-6.458s4.9-21.353,1.25-25S1889.836,790.671,1886.607,793.9Z" transform="translate(-1815.619 -792.604)" fill="#cbddf4"/>
          <path id="Trazado_904435" data-name="Trazado 904435" d="M1889.109,835.365s-.833-10.179,2.5-11.638,9.089-1.458,13.4,0c1.616.547,2.777,2.492,3.6,4.711a20.555,20.555,0,0,1,.108,13.658c-1.149,3.423-3.066,8.516-4.121,8.516-1.941,0-11.073-1.924-13.8-1.924S1889.109,835.365,1889.109,835.365Z" transform="translate(-1817.925 -813.211)" fill="#f4b285"/>
          <path id="Trazado_904436" data-name="Trazado 904436" d="M1888.16,892.185c1.153.654,11.913,2.232,14.8.266,5.042-3.439,3.165-20.812,3.165-20.812s-1.351,7.237-3.716,9.6c-1.5,1.5-8.432,1.38-12.674.308a5.6,5.6,0,0,1-4.239-5.468l.035-5.3S1880.452,887.81,1888.16,892.185Z" transform="translate(-1814.476 -846.254)" fill="#cbddf4"/>
          <path id="Trazado_904437" data-name="Trazado 904437" d="M1953.695,860.778s1.374-2.449,2.6-1.083.581,7.146-1.3,7.146S1953.029,862.327,1953.695,860.778Z" transform="translate(-1862.119 -838.358)" fill="#f4b285"/>
          <path id="Trazado_904438" data-name="Trazado 904438" d="M1882.444,862.566s-1.374-2.449-2.6-1.083-.581,7.146,1.3,7.146S1883.11,864.114,1882.444,862.566Z" transform="translate(-1811.274 -839.585)" fill="#f4b285"/>
          <path id="Trazado_904439" data-name="Trazado 904439" d="M1874.329,959.237c-6.05,1.34-14.694,10.517-14.694,19.961s13.888,16.536,10.555,30.489a220.99,220.99,0,0,1-7.221,24.231s1.666,4.583,12.777,4.583c0,0,6.666-19.24,8.333-31.078s-10.277-26.558-7.777-32.669,14.213-11.3,14.213-11.3C1890.207,959.094,1878.6,958.292,1874.329,959.237Z" transform="translate(-1797.834 -906.708)" fill="#ffe783"/>
          <path id="Trazado_904440" data-name="Trazado 904440" d="M1965.838,1688.432a54.09,54.09,0,0,0-4.337,6.76c-.823,1.99-.646,6.939,0,7.449,5.683,4.487,16.459.449,16.459.449a64.274,64.274,0,0,0,1.115-7.329c.374-4.038.163-7.8-1.115-7.8s-1.5,2.118-4.419,1.52S1968.829,1687.833,1965.838,1688.432Z" transform="translate(-1867.356 -1407.01)" fill="#425a78"/>
          <path id="Trazado_904441" data-name="Trazado 904441" d="M1978.854,1719.231a37.8,37.8,0,0,1-7.931,2.251c-2.952.422-6.927-.893-9.926-2.213-.155,2.116.067,4.486.5,4.831,5.684,4.487,16.459.449,16.459.449S1978.467,1722.3,1978.854,1719.231Z" transform="translate(-1867.356 -1428.469)" fill="#dce9f8"/>
          <path id="Trazado_904442" data-name="Trazado 904442" d="M1783.864,1688.887s.325,1.937,1.136,5.237a14.069,14.069,0,0,1,0,6.313s-33.75-.43-35.048-1.578-.365-4.986,0-5.309,4.706-1.22,6.977-2.439,10.06-5.882,12.575-5.524,3.57,2.3,8.356,2.8S1782.728,1687.882,1783.864,1688.887Z" transform="translate(-1722.11 -1405.368)" fill="#425a78"/>
          <path id="Trazado_904443" data-name="Trazado 904443" d="M1749.952,1716.317c1.3,1.148,35.048,1.578,35.048,1.578a14.114,14.114,0,0,0,.3-4.482c-17.764,2.2-35.352-2.4-35.352-2.4C1749.587,1711.331,1748.654,1715.169,1749.952,1716.317Z" transform="translate(-1722.11 -1422.826)" fill="#dce9f8"/>
          <path id="Trazado_904444" data-name="Trazado 904444" d="M1786.762,1713.413a91.992,91.992,0,0,1-35.352-2.4,123.373,123.373,0,0,0,32.023,2.656Z" transform="translate(-1723.569 -1422.826)" fill="#70a2e1"/>
        </g>
        <g id="Grupo_1117975" data-name="Grupo 1117975" transform="translate(260.147 198.958)">
          <rect id="Rectángulo_405895" data-name="Rectángulo 405895" width="44.774" height="31.528" rx="9.286" transform="translate(71.683 143.738)" fill="#ffce00"/>
          <path id="Trazado_904445" data-name="Trazado 904445" d="M1298.088,1472.132v-25.7a2.914,2.914,0,0,0-2.914-2.914h-1.314c.886,6.434,2.34,21.639-3.174,24.519-5.691,2.973-28.768,2.647-37.372,2.415v1.68a2.914,2.914,0,0,0,2.914,2.914h38.946A2.914,2.914,0,0,0,1298.088,1472.132Z" transform="translate(-1181.632 -1299.78)" fill="#ffce00"/>
          <path id="Trazado_904446" data-name="Trazado 904446" d="M1309.547,1412.595h-3.809a6.359,6.359,0,0,0-6.351,6.351v12.02h2.519v-12.02a3.836,3.836,0,0,1,3.832-3.832h3.809a3.836,3.836,0,0,1,3.832,3.832v12.02h2.519v-12.02A6.359,6.359,0,0,0,1309.547,1412.595Z" transform="translate(-1213.247 -1278.56)" fill="#ffce00"/>
          <path id="Trazado_904447" data-name="Trazado 904447" d="M1290.4,1102.41s8.866,23.029,12.917,37.889,0,53.853,0,53.853,2.845,8.952,1.8,10-8.2,2.24-9.274,0-.887-8.4,0-11.477.014-38.114-2.432-44.51S1286.445,1099.911,1290.4,1102.41Z" transform="translate(-1206.008 -1065.632)" fill="#f4b285"/>
          <path id="Trazado_904448" data-name="Trazado 904448" d="M1298.532,1200.582c-1.393-1.394.434-37.958,0-46.522-.313-6.181-6.02-34.026-9.17-49.037-1.919,5.8,1.876,39.332,4.045,45,2.446,6.4,3.319,41.431,2.432,44.51s-1.072,9.238,0,11.477c.6,1.258,3.127,1.432,5.408,1.158C1301.611,1204.048,1299.656,1201.706,1298.532,1200.582Z" transform="translate(-1206.008 -1067.5)" fill="#f3ab79" opacity="0.68" style="mix-blend-mode: multiply;isolation: isolate"/>
          <g id="Grupo_1117974" data-name="Grupo 1117974" transform="translate(48.688 149.682)">
            <path id="Trazado_904449" data-name="Trazado 904449" d="M1272.722,1473.764s.62,12.2,1.86,23.566-1.86,36.177-1.86,38.45-6.409,2.068-6.409,2.068-8.682-54.368-6.408-64.084S1268.987,1467.564,1272.722,1473.764Z" transform="translate(-1234.581 -1466.072)" fill="#f4b285"/>
            <path id="Trazado_904450" data-name="Trazado 904450" d="M1196.259,1466.017v18.4c0,12.4-7.546,43.309-7.546,46.1a20.16,20.16,0,0,1-1.137,5.892l-7.546-.62s3.824-65.118,3.824-70.286S1194.605,1462.606,1196.259,1466.017Z" transform="translate(-1180.031 -1462.459)" fill="#f4b285"/>
            <path id="Trazado_904451" data-name="Trazado 904451" d="M1272.722,1473.764c-3.734-6.2-10.543-9.716-12.817,0-.452,1.929-.471,5.62-.212,10.3,5.524-.272,10.343-.827,13.6-1.277C1272.912,1477.509,1272.722,1473.764,1272.722,1473.764Z" transform="translate(-1234.581 -1466.072)" fill="#f3ab79" opacity="0.68" style="mix-blend-mode: multiply;isolation: isolate"/>
            <path id="Trazado_904452" data-name="Trazado 904452" d="M1203.308,1480.577v-14.56c-1.654-3.411-12.4-5.685-12.4-.517,0,1.3-.24,6.363-.6,13.228A58.324,58.324,0,0,0,1203.308,1480.577Z" transform="translate(-1187.08 -1462.459)" fill="#f3ab79" opacity="0.68" style="mix-blend-mode: multiply;isolation: isolate"/>
          </g>
          <path id="Trazado_904453" data-name="Trazado 904453" d="M1282.78,1678.663a22.733,22.733,0,0,1,1.055,5.485v4.5s-7.028.671-9.819,0c0,0-.207-5.272.517-7.339s.956-2.636.956-2.636S1281.17,1680.273,1282.78,1678.663Z" transform="translate(-1195.819 -1461.139)"/>
          <path id="Trazado_904454" data-name="Trazado 904454" d="M1160.353,1676.09s.207,1.4.724,3.773a11.42,11.42,0,0,1,0,4.548s-21.5-.31-22.326-1.137-.233-3.592,0-3.825,3-.878,4.444-1.757,6.408-4.238,8.011-3.979,2.274,1.654,5.323,2.015S1159.63,1675.367,1160.353,1676.09Z" transform="translate(-1102.725 -1457.733)"/>
          <path id="Trazado_904455" data-name="Trazado 904455" d="M1214.213,1282.194s2.067,19.225,3.721,29.561,0,35.143,0,35.143a154.236,154.236,0,0,1-24.6,2.067c-13.23,0-20.879-3.721-20.879-3.721s3.928-56.436,7.856-66.152S1213.5,1275.773,1214.213,1282.194Z" transform="translate(-1126.145 -1183.53)" fill="#7a4f00"/>
          <path id="Trazado_904456" data-name="Trazado 904456" d="M1228.462,1297.424c-.984-7.986-1.763-15.23-1.763-15.23-.718-6.421-29.975-12.817-33.9-3.1a52.337,52.337,0,0,0-2.146,9.481C1196.909,1293.423,1215.179,1303.184,1228.462,1297.424Z" transform="translate(-1138.63 -1183.53)" fill="#9369bf" style="mix-blend-mode: multiply;isolation: isolate"/>
          <path id="Trazado_904457" data-name="Trazado 904457" d="M1212.2,991.205a10.823,10.823,0,0,0-9.923,5.892c-3.256,6.357-6.512,20.621,0,22.636s11.008-3.566,13.024-9.458S1212.2,991.205,1212.2,991.205Z" transform="translate(-1144.031 -989.391)" fill="#f4b285"/>
          <path id="Trazado_904458" data-name="Trazado 904458" d="M1229.788,1052.71s-.62,10.388-1.318,12.636,11.008.93,11.008.93l-3.129-21.939Z" transform="translate(-1164.563 -1025.857)" fill="#f4b285"/>
          <path id="Trazado_904459" data-name="Trazado 904459" d="M1205.448,1101.825c-1.161.027-1.646,5-1.646,5s6.78.365,6.969.175S1207.958,1101.767,1205.448,1101.825Z" transform="translate(-1147.655 -1065.305)" fill="#ffce00"/>
          <path id="Trazado_904460" data-name="Trazado 904460" d="M1224.694,1098.7s-27.61-.41-32.662,1.24c-2.16.706-5.431,3.4-5.431,11.932s-4.182,46.468-.977,49.672,26.047,10.851,41.138,2.738c0,0,2.894-22.757,2.894-38.278A77.486,77.486,0,0,0,1224.694,1098.7Z" transform="translate(-1134.352 -1063.128)" fill="#727997"/>
          <path id="Trazado_904461" data-name="Trazado 904461" d="M1189.988,1103.331a22.263,22.263,0,0,0-3.324,7.014c-.053,1.211-.063,2.619-.063,4.264,0,8.534-4.182,46.468-.977,49.672a4.666,4.666,0,0,0,.575.476c3.206-5.156,5.493-14.013,6.894-23.461,2.54-17.13,2.168-36.2-.915-38.652l-.146.033A12.292,12.292,0,0,0,1189.988,1103.331Z" transform="translate(-1134.352 -1065.868)" fill="#535a76"/>
          <path id="Trazado_904462" data-name="Trazado 904462" d="M1246.908,1204.744h-1.737c-9.949.365-16.664-4.228-16.478-7.956l1.743-34.961H1249.7a7.864,7.864,0,0,1,7.706,6.3l5.983,29.42C1264.181,1201.422,1256.574,1204.744,1246.908,1204.744Z" transform="translate(-1164.733 -1106.479)" fill="#ffce00"/>
          <path id="Trazado_904463" data-name="Trazado 904463" d="M1228.505,1195.809l1.8-33.982h1.933a7.241,7.241,0,0,1,7.217,6.65l2.206,26.947C1242.381,1204.186,1228.329,1204.6,1228.505,1195.809Z" transform="translate(-1164.606 -1106.479)" fill="#ffce00"/>
          <path id="Trazado_904464" data-name="Trazado 904464" d="M1209.048,1100.243s5.323,1.181,7.91,18.828h1.933s.184-16.215-3.68-19.212C1213.991,1098.913,1209.048,1100.243,1209.048,1100.243Z" transform="translate(-1151.255 -1063.723)" fill="#ffce00"/>
          <path id="Trazado_904465" data-name="Trazado 904465" d="M1281.473,1203.684a8.922,8.922,0,0,1-5.9,5.609,10.324,10.324,0,0,1-8.618-1.6c-1.289-.88-4.8-5.258-4.835-5.3l-.655.524c.147.184,3.625,4.521,5.017,5.472,5.433,3.71,12.417,2.415,15.278-3.285Z" transform="translate(-1187.226 -1134.317)" fill="#ffce00"/>
          <path id="Trazado_904466" data-name="Trazado 904466" d="M1223.776,999.842s3.256,4.617,3.256,8.73-3.256,21.786,0,31.6,19.38,16.12,25.272,6.11-3.1-15.083-3.1-19.882,3.256-9.736,1.24-15.083-9.937-14.535-11.4-20.705-17.734-7.215-21.621-.959C1217.42,989.65,1223.776,995.019,1223.776,999.842Z" transform="translate(-1157 -985.44)" fill="#7d3a1b"/>
          <path id="Trazado_904467" data-name="Trazado 904467" d="M1240,1030.807s3.1-.868,2.637,2.861-3.412,4.116-3.412,4.116l-1.55-4.988S1238.629,1030.807,1240,1030.807Z" transform="translate(-1170.901 -1016.511)" fill="#f4b285"/>
          <path id="Trazado_904468" data-name="Trazado 904468" d="M1024.869,1158.3l8.188,15.609,5.774-2.172L1034,1155.884Z" transform="translate(-1024.869 -1102.401)" fill="#86b1e6"/>
          <path id="Trazado_904469" data-name="Trazado 904469" d="M1039.141,1171.912l-7.8,3.384a1.686,1.686,0,0,0-.816,2.341l6.588,12.333a1.687,1.687,0,0,0,2.17.747l5.913-2.615a1.687,1.687,0,0,0,.9-2.113l-4.7-13.1A1.686,1.686,0,0,0,1039.141,1171.912Z" transform="translate(-1028.614 -1113.303)" fill="#fff"/>
          <path id="Trazado_904470" data-name="Trazado 904470" d="M1102.82,1218.9c-3.721,0-21.086-8.848-21.086-8.848l-2.17,8.848s18.652,16.115,26.977,16.745c6.615.5,10.931-12.367,13.08-26.654-3.428-2.594-7.076-3.79-11.5-4.823C1106.389,1212.425,1104.335,1218.9,1102.82,1218.9Z" transform="translate(-1062.401 -1135.536)" fill="#f4b285"/>
          <path id="Trazado_904471" data-name="Trazado 904471" d="M1050.245,1201.6a1.79,1.79,0,0,0-1.762.982c-.956,1.916-2.909,6.162-2.643,8.393.35,2.939,10.565,6.159,10.565,6.159s3.012,2.379,3.5.35-1.331-9.2-1.331-9.2a21.366,21.366,0,0,1-4.688-4.73A4.607,4.607,0,0,0,1050.245,1201.6Z" transform="translate(-1039.243 -1133.766)" fill="#f4b285"/>
          <path id="Trazado_904472" data-name="Trazado 904472" d="M1179.393,1104.679c-4.547,2.9-7.889,19.027-10.418,31.051,4.42,1.033,8.574,2.348,12,4.943C1183.863,1121.492,1181.5,1103.34,1179.393,1104.679Z" transform="translate(-1123.757 -1067.216)" fill="#727997"/>
        </g>
      </g>
      <path id="Trazado_904473" data-name="Trazado 904473" d="M543.125,1383.973a8.3,8.3,0,0,1-2.429-4.3l-.705-3.086,5.735-25.469q3.887-17.938,4.616-21.866t.213-4.747a2.727,2.727,0,0,0-1.223-1.042,7.334,7.334,0,0,0-2.256-.109q-2.487.13-2.8-.527a3.791,3.791,0,0,1-.229-2.568q.283-1.747.831-2.09a15.74,15.74,0,0,1,3.751-.542q3.339-.285,7.753-.557,7.15-.345,9.017-.267t2.3.763a2.838,2.838,0,0,1,.172,1.56q-.089,1.15-.755,4.564t-1.768,8.718q-1.1,5.3-3.235,15.106-5.7,25.828-5.648,28.647-.068,2.325,1.814,2.288l2.042-.233a9.355,9.355,0,0,1,2.777-.122,2.194,2.194,0,0,1,1.411.734,2.654,2.654,0,0,1,.42,1.734,2.967,2.967,0,0,1-1.955,2.651,28.859,28.859,0,0,1-7.227,1.673Q546.236,1386.327,543.125,1383.973Zm25.8-82.325a10.375,10.375,0,1,1-10.375-10.375A10.375,10.375,0,0,1,568.929,1301.648Z" transform="translate(-236.182 -644.966)" fill="#fff"/>
      <path id="Trazado_904474" data-name="Trazado 904474" d="M315.751,647.129a1.228,1.228,0,0,1-.36-.636l-.1-.457.849-3.769q.575-2.655.683-3.236a1.376,1.376,0,0,0,.031-.7.4.4,0,0,0-.181-.154,1.089,1.089,0,0,0-.334-.016c-.245.013-.384-.013-.415-.078a.56.56,0,0,1-.034-.38q.042-.258.123-.309a2.327,2.327,0,0,1,.555-.08q.494-.042,1.147-.083,1.058-.051,1.335-.04c.185.008.3.045.341.113a.423.423,0,0,1,.025.231q-.013.17-.111.675t-.262,1.29q-.163.785-.479,2.235-.844,3.822-.836,4.24-.01.344.269.339l.3-.035a1.387,1.387,0,0,1,.411-.018.326.326,0,0,1,.209.109.393.393,0,0,1,.062.257.439.439,0,0,1-.289.392,4.256,4.256,0,0,1-1.069.248A2.715,2.715,0,0,1,315.751,647.129Zm3.819-12.183a1.535,1.535,0,1,1-1.535-1.535A1.535,1.535,0,0,1,319.57,634.945Z" transform="translate(-81.987 -193.53)" fill="#fff"/>
    </g>
  </g>
</svg>
