<svg xmlns="http://www.w3.org/2000/svg" xmlns:xlink="http://www.w3.org/1999/xlink" width="121" height="121" viewBox="0 0 121 121">
  <defs>
    <clipPath id="clip-path">
      <rect id="Rectángulo_400938" data-name="Rectángulo 400938" width="121" height="121" transform="translate(0 0)" fill="none"/>
    </clipPath>
    <clipPath id="clip-path-2">
      <rect id="Rectángulo_401073" data-name="Rectángulo 401073" width="92.219" height="41.532" fill="#efb499"/>
    </clipPath>
    <clipPath id="clip-path-3">
      <rect id="Rectángulo_406777" data-name="Rectángulo 406777" width="70" height="70" transform="translate(570.777 3149)" fill="#fff"/>
    </clipPath>
  </defs>
  <g id="Grupo_1120056" data-name="Grupo 1120056" transform="translate(-740.496 -4872)">
    <g id="Grupo_1105097" data-name="Grupo 1105097" transform="translate(352.828 -1141)">
      <rect id="Rectángulo_401103" data-name="Rectángulo 401103" width="121" height="121" transform="translate(387.668 6013)" fill="none"/>
      <g id="Grupo_1099348" data-name="Grupo 1099348" transform="translate(387.668 6013)">
        <g id="Grupo_1099282" data-name="Grupo 1099282">
          <g id="Grupo_1099281" data-name="Grupo 1099281" clip-path="url(#clip-path-2)">
            <path id="Trazado_873375" data-name="Trazado 873375" d="M74.8,9.1c-4.139,0-6.28-2.03-8.17-3.821-1.855-1.756-3.452-3.274-6.792-3.274s-4.937,1.517-6.792,3.274C51.161,7.072,49.023,9.1,44.881,9.1s-6.28-2.03-8.169-3.821C34.857,3.525,33.26,2.007,29.92,2.007s-4.937,1.517-6.789,3.274C21.241,7.072,19.1,9.1,14.962,9.1S8.679,7.072,6.789,5.281C4.937,3.525,3.34,2.007,0,2.007V0C4.139,0,6.28,2.033,8.17,3.821c1.855,1.759,3.452,3.274,6.792,3.274S19.9,5.58,21.75,3.824C23.637,2.033,25.781,0,29.92,0s6.283,2.033,8.17,3.821c1.855,1.759,3.452,3.274,6.792,3.274s4.937-1.514,6.792-3.274C53.56,2.033,55.7,0,59.843,0s6.283,2.033,8.17,3.821C69.867,5.58,71.464,7.094,74.8,7.094S79.742,5.58,81.6,3.821C83.483,2.033,85.624,0,89.766,0V2.007c-3.34,0-4.937,1.517-6.792,3.274C81.084,7.072,78.943,9.1,74.8,9.1" transform="translate(2.453 32.43)" fill="#efb499"/>
            <path id="Trazado_873376" data-name="Trazado 873376" d="M74.8,9.1c-4.139,0-6.283-2.03-8.17-3.824-1.855-1.756-3.452-3.27-6.792-3.27s-4.937,1.514-6.792,3.27C51.164,7.072,49.023,9.1,44.881,9.1s-6.283-2.03-8.17-3.824c-1.855-1.756-3.452-3.27-6.792-3.27s-4.937,1.517-6.789,3.27C21.241,7.072,19.1,9.1,14.962,9.1S8.679,7.072,6.789,5.278C4.937,3.522,3.34,2.007,0,2.007V0C4.139,0,6.283,2.03,8.17,3.821c1.855,1.759,3.452,3.274,6.792,3.274S19.9,5.58,21.75,3.821C23.637,2.03,25.781,0,29.92,0S36.2,2.03,38.093,3.821c1.852,1.759,3.449,3.274,6.789,3.274s4.937-1.514,6.792-3.274C53.56,2.03,55.7,0,59.843,0s6.283,2.03,8.17,3.821C69.867,5.58,71.464,7.094,74.8,7.094S79.742,5.58,81.6,3.821C83.486,2.03,85.627,0,89.769,0V2.007c-3.34,0-4.94,1.517-6.8,3.27C81.084,7.072,78.943,9.1,74.8,9.1" transform="translate(1.635 21.62)" fill="#efb499"/>
            <path id="Trazado_873377" data-name="Trazado 873377" d="M74.8,9.1c-4.139,0-6.283-2.03-8.169-3.824-1.855-1.756-3.452-3.27-6.792-3.27s-4.937,1.514-6.792,3.27C51.164,7.072,49.02,9.1,44.881,9.1s-6.283-2.03-8.17-3.824c-1.855-1.756-3.452-3.27-6.792-3.27s-4.937,1.517-6.789,3.27C21.241,7.072,19.1,9.1,14.962,9.1S8.678,7.072,6.789,5.278C4.937,3.522,3.34,2.007,0,2.007V0C4.139,0,6.283,2.03,8.169,3.821c1.851,1.759,3.452,3.274,6.792,3.274S19.9,5.58,21.75,3.821C23.637,2.03,25.781,0,29.92,0S36.2,2.03,38.093,3.821c1.852,1.759,3.449,3.274,6.789,3.274s4.937-1.514,6.792-3.274C53.56,2.03,55.7,0,59.843,0s6.283,2.03,8.17,3.821C69.867,5.58,71.464,7.094,74.8,7.094S79.742,5.58,81.6,3.821C83.486,2.03,85.624,0,89.769,0V2.007c-3.34,0-4.941,1.517-6.8,3.27C81.084,7.072,78.943,9.1,74.8,9.1" transform="translate(0.818 10.81)" fill="#efb499"/>
            <path id="Trazado_873378" data-name="Trazado 873378" d="M74.8,9.1c-4.139,0-6.28-2.03-8.17-3.821-1.855-1.756-3.452-3.27-6.792-3.27s-4.937,1.514-6.789,3.27C51.164,7.069,49.023,9.1,44.881,9.1s-6.28-2.03-8.169-3.821c-1.855-1.756-3.452-3.27-6.792-3.27s-4.937,1.514-6.789,3.267C21.245,7.069,19.1,9.1,14.962,9.1S8.678,7.069,6.789,5.278C4.937,3.522,3.34,2.007,0,2.007V0C4.139,0,6.283,2.03,8.17,3.821c1.855,1.756,3.452,3.27,6.792,3.27S19.9,5.577,21.75,3.821C23.64,2.03,25.781,0,29.92,0s6.28,2.03,8.173,3.821c1.852,1.756,3.449,3.27,6.789,3.27s4.937-1.514,6.792-3.27C53.563,2.03,55.7,0,59.843,0s6.28,2.03,8.17,3.821c1.855,1.756,3.452,3.27,6.792,3.27s4.937-1.514,6.792-3.27C83.486,2.03,85.627,0,89.769,0V2.007c-3.344,0-4.941,1.514-6.8,3.27C81.084,7.069,78.943,9.1,74.8,9.1" transform="translate(0 0.003)" fill="#efb499"/>
          </g>
        </g>
      </g>
      <circle id="Elipse_11504" data-name="Elipse 11504" cx="50.5" cy="50.5" r="50.5" transform="translate(402.668 6031)" fill="#ffce73"/>
      <circle id="Elipse_11503" data-name="Elipse 11503" cx="52.5" cy="52.5" r="52.5" transform="translate(395.668 6021)" fill="#f3f9ff"/>
    </g>
    <g id="Enmascarar_grupo_1098792" data-name="Enmascarar grupo 1098792" transform="translate(195.719 1749)" clip-path="url(#clip-path-3)">
      <g id="Grupo_1120058" data-name="Grupo 1120058" transform="translate(-2326.745 2033.283)">
        <path id="Trazado_907135" data-name="Trazado 907135" d="M3090.4,1143.5a31.081,31.081,0,0,1,15.259,13.269,31.606,31.606,0,0,1,4.184,20.393c-.134,1.136-.432,2.253-.654,3.379-2.011-.01-4.024.1-6.034-.061-.344-1.8-.676-3.606-1.037-5.4a5.967,5.967,0,0,0-3.141-4.314c-2.607-1.358-5.561-1.3-8.364-1.856-1.787-1.163-3.878-1.5-5.855-2.142l-.26-1.889c.626-1.1,1.666-1.886,2.179-3.1.857-2.033.667-4.2,1-6.29a2.923,2.923,0,0,0,2.959-2.016,2.732,2.732,0,0,0-.909-3.169,6.088,6.088,0,0,1-.409-.466,14.624,14.624,0,0,1,.329-2.573C3089.857,1146,3090.463,1144.817,3090.4,1143.5Z" transform="translate(-145.435 -20.384)" fill="#ffb937"/>
        <path id="Trazado_907136" data-name="Trazado 907136" d="M2902.228,1180.125a28.745,28.745,0,0,1-1.583-12.641,31.412,31.412,0,0,1,10.168-20.936,29.941,29.941,0,0,1,11.5-6.828,5.076,5.076,0,0,0,.119,2.959,20.149,20.149,0,0,1,.76,4.18,2.82,2.82,0,0,1-.283.3,2.929,2.929,0,0,0-1.087,3.232,2.993,2.993,0,0,0,2.823,2.08c.217.178.162.438.218.67.278,1.161.132,2.355.307,3.524a10.116,10.116,0,0,0,2.84,5.24l-.424,1.913c-1.977.658-4.069,1-5.869,2.146-.823.118-1.652.21-2.47.358-2.915.529-6.011.644-7.989,3.387.089-1.178.11-2.365.287-3.53a3.172,3.172,0,0,1,2.2-2.572c.684-.254,1.382-.471,2.074-.7a2.979,2.979,0,0,0,2.2.418,34.836,34.836,0,0,0,3.64-1.249,2.558,2.558,0,0,0,1.26-3.2,2.588,2.588,0,0,0-2.908-1.655c-.975.237-1.913.62-2.881.887a3.129,3.129,0,0,0-2.249,1.974c-.664.208-1.337.392-1.99.629a6.174,6.174,0,0,0-4.385,5.552q-.483,4.932-.952,9.867a4.851,4.851,0,0,0-2.66,3.534A4.63,4.63,0,0,0,2902.228,1180.125Z" transform="translate(0 -17.394)" fill="#ffb937"/>
        <path id="Trazado_907137" data-name="Trazado 907137" d="M3065.958,1387.757A30.5,30.5,0,0,1,3054,1395.9a31.814,31.814,0,0,1-13.192,2.09,11.266,11.266,0,0,1-1.234-.19l-.018-10.213,25.723-.028A.784.784,0,0,1,3065.958,1387.757Z" transform="translate(-109.91 -213.315)" fill="#e6795f"/>
        <path id="Trazado_907138" data-name="Trazado 907138" d="M3059.7,1364a.783.783,0,0,0-.676-.194l-25.723.028-.389-.04a1.1,1.1,0,0,0-.4-.7,3.466,3.466,0,0,1-.721-3.385c.194-.806.836-1.344,1.123-2.085l.274-.1,1.162.01,5.662-.005,1.165-.013,4.283.021,4.641,0,7.093,0,7.127.025A23.893,23.893,0,0,1,3059.7,1364Z" transform="translate(-103.647 -189.561)" fill="#fd8f70"/>
        <path id="Trazado_907139" data-name="Trazado 907139" d="M2962.6,1387.488l.389.04q.008,5.107.017,10.213a25.536,25.536,0,0,1-8.378-1.856,30.462,30.462,0,0,1-11.932-7.972c.293-.575.834-.407,1.3-.408Q2953.3,1387.487,2962.6,1387.488Z" transform="translate(-33.339 -213.252)" fill="#ce644e"/>
        <path id="Trazado_907140" data-name="Trazado 907140" d="M2944.46,1363.846q-9.3.005-18.6.016c-.464,0-1-.167-1.3.408a24.348,24.348,0,0,1-4.807-6.661l13.611-.035,7.117,0,3.983.095c-.287.74-.929,1.278-1.123,2.084a3.467,3.467,0,0,0,.72,3.385A1.1,1.1,0,0,1,2944.46,1363.846Z" transform="translate(-15.2 -189.61)" fill="#e6795f"/>
        <path id="Trazado_907141" data-name="Trazado 907141" d="M2924.6,1336.046l-13.611.035a19.693,19.693,0,0,1-2.323-5.268,4.626,4.626,0,0,1,2.659-.458l8.286-.014c.591.01,1.181.022,1.771.029a3.026,3.026,0,0,1,3.216,3.175C2924.6,1334.379,2924.6,1335.213,2924.6,1336.046Z" transform="translate(-6.436 -168.081)" fill="#9f9cb9"/>
        <path id="Trazado_907142" data-name="Trazado 907142" d="M3065.894,1123.513c.063,1.313-.542,2.494-.749,3.756a14.577,14.577,0,0,0-.328,2.573,11.264,11.264,0,0,0-2.459-.272c0-.453,0-.907-.013-1.36-.081-2.8-2.021-4.062-4.634-3.025a7.833,7.833,0,0,1-3.98.638,8.87,8.87,0,0,1,.226-4.9,21.7,21.7,0,0,1,1.871-2.706,20.963,20.963,0,0,1,8.324,2.8A4.08,4.08,0,0,1,3065.894,1123.513Z" transform="translate(-120.929 -0.394)" fill="#5b4982"/>
        <path id="Trazado_907143" data-name="Trazado 907143" d="M3016.49,1117.822a21.727,21.727,0,0,0-1.87,2.706,8.865,8.865,0,0,0-.226,4.9l.024.065a23.128,23.128,0,0,1-3.079-.892,2.938,2.938,0,0,0-4.042,2.6c-.066.652-.031,1.314-.043,1.971a12.97,12.97,0,0,0-2.471.3,20.164,20.164,0,0,0-.761-4.181,5.076,5.076,0,0,1-.119-2.959c.733-1.609,2.266-2.162,3.724-2.8A16.421,16.421,0,0,1,3016.49,1117.822Z" transform="translate(-81.591)" fill="#4c3379"/>
        <path id="Trazado_907144" data-name="Trazado 907144" d="M3160.672,1327.917l-7.127-.025c0-1.663.046-3.327-.015-4.988a3,3,0,0,1,1.277-2.77l2.917-.109c2.01.166,4.023.052,6.034.061A26.551,26.551,0,0,1,3160.672,1327.917Z" transform="translate(-200.003 -159.926)" fill="#fce26c"/>
        <path id="Trazado_907145" data-name="Trazado 907145" d="M3113.512,1276.347l-2.917.109c-1.917-.013-3.833-.036-5.75-.034a2.351,2.351,0,0,0-2.61,2.567c-.017,1.742,0,3.485,0,5.228l-4.641,0a35.625,35.625,0,0,1,2.65-5.177,2.9,2.9,0,0,0-.092-3.375c-.513-.737-.915-1.551-1.389-2.316-.368-.593-.4-1.011.3-1.444a22.239,22.239,0,0,0,2.2-1.73,1.933,1.933,0,0,0,.735-2.464c-.4-.958-.693-1.959-1.033-2.942,2.8.555,5.758.5,8.364,1.856a5.967,5.967,0,0,1,3.141,4.314C3112.836,1272.741,3113.168,1274.545,3113.512,1276.347Z" transform="translate(-155.791 -116.248)" fill="#6d618b"/>
        <path id="Trazado_907146" data-name="Trazado 907146" d="M3051.363,1150.762a7.832,7.832,0,0,0,3.98-.638c2.613-1.037,4.553.225,4.634,3.025.013.453.009.907.012,1.36a1.834,1.834,0,0,0,.275,1.3,6.081,6.081,0,0,1,.542,4.628c-.337,2.094-.146,4.257-1,6.29-.513,1.216-1.553,2-2.179,3.1h-.38c-.045-.129-.051-.318-.142-.378a23.733,23.733,0,0,1-3.661-3.18l.918-.837c.756-.335,1.321-.862,1.076-1.735-.253-.9-1.044-.846-1.8-.745a5.472,5.472,0,0,1-2.049.112,16.878,16.878,0,0,1-1.072-4.76l-.006-.78a20.674,20.674,0,0,1,.875-6.7Zm4.392,5.714a3.094,3.094,0,0,0-1.825.776.862.862,0,0,0-.145,1.147.757.757,0,0,0,1.071.356,1.545,1.545,0,0,1,1.824-.013c.451.29.88.032,1.154-.388a.805.805,0,0,0-.209-1.118A3.076,3.076,0,0,0,3055.755,1156.476Z" transform="translate(-118.561 -25.333)" fill="#eda099"/>
        <path id="Trazado_907147" data-name="Trazado 907147" d="M3084.809,1256.688c.341.982.635,1.983,1.034,2.941a1.934,1.934,0,0,1-.735,2.464,22.286,22.286,0,0,1-2.2,1.73c-.7.433-.669.851-.3,1.444.474.765.876,1.579,1.389,2.316a2.9,2.9,0,0,1,.092,3.375,35.624,35.624,0,0,0-2.649,5.177l-4.283-.021q.112-1.4.222-2.8.346-4.36.692-8.721c.4-3.266.707-6.54.844-9.829l.04-.216C3080.931,1255.192,3083.022,1255.526,3084.809,1256.688Z" transform="translate(-139.631 -108.165)" fill="#817aa0"/>
        <path id="Trazado_907148" data-name="Trazado 907148" d="M3041.439,1247.419c-.013.072-.027.144-.04.216-1.543,2.208-3.141,4.379-4.47,6.729l-2.591,0a58.106,58.106,0,0,0-4.408-6.546l-.233-.359.424-1.913a22.314,22.314,0,0,0,2.934,1.487c2.381.907,6.067.219,7.742-1.507h.38Q3041.308,1246.474,3041.439,1247.419Z" transform="translate(-102.115 -101.037)" fill="#e6795f"/>
        <path id="Trazado_907149" data-name="Trazado 907149" d="M3096.5,1178.339a6.083,6.083,0,0,0-.542-4.628,1.832,1.832,0,0,1-.275-1.3,11.258,11.258,0,0,1,2.459.272,5.959,5.959,0,0,0,.408.466,2.732,2.732,0,0,1,.909,3.169A2.923,2.923,0,0,1,3096.5,1178.339Z" transform="translate(-154.249 -43.24)" fill="#e08a7d"/>
        <path id="Trazado_907150" data-name="Trazado 907150" d="M2956.167,1284.4c0-.834.006-1.667,0-2.5a3.026,3.026,0,0,0-3.216-3.175c-.59-.007-1.18-.019-1.771-.029a5.244,5.244,0,0,0-2.579-3.538c.2-2.137.3-4.284.66-6.405,1.978-2.743,5.073-2.858,7.989-3.387.818-.148,1.647-.24,2.47-.358-.292.962-.546,1.937-.885,2.882a1.868,1.868,0,0,0,.56,2.253c.685.583,1.4,1.135,2.1,1.695s1.211,1.115.384,2.027c-.433.477-.622,1.166-1.012,1.691a3.213,3.213,0,0,0-.231,3.786,48.916,48.916,0,0,1,2.648,5.062Z" transform="translate(-38.006 -116.435)" fill="#5b4982"/>
        <path id="Trazado_907151" data-name="Trazado 907151" d="M3029.646,1169.7c-1.675,1.726-5.361,2.414-7.742,1.507a22.284,22.284,0,0,1-2.934-1.487,10.118,10.118,0,0,1-2.84-5.24c-.174-1.169-.028-2.364-.307-3.524-.056-.232,0-.492-.218-.67,0-1.682-.2-3.392.826-4.913a1.3,1.3,0,0,0,.194-1c.012-.657-.023-1.319.043-1.971a2.939,2.939,0,0,1,4.042-2.6,23.093,23.093,0,0,0,3.08.892,20.668,20.668,0,0,0-.875,6.7c-1.408-1.254-2.834-1.379-3.925-.345-.588.557-.455,1.573.106,1.455,1.257-.264,2.559.487,3.739-.269.029-.019.057-.04.086-.06a16.872,16.872,0,0,0,1.072,4.761c-.577-.054-1.152-.119-1.73-.159a1.026,1.026,0,0,0-1.079.62,1.056,1.056,0,0,0,.166,1.24,8.024,8.024,0,0,0,.755.683c1.063,1.109,2.393,1,3.739.821a23.728,23.728,0,0,0,3.661,3.18C3029.6,1169.381,3029.6,1169.57,3029.646,1169.7Z" transform="translate(-90.962 -25.205)" fill="#e08a7d"/>
        <path id="Trazado_907152" data-name="Trazado 907152" d="M3001.312,1276.3a48.914,48.914,0,0,0-2.648-5.062,3.213,3.213,0,0,1,.231-3.786c.391-.525.58-1.214,1.013-1.691.826-.912.326-1.461-.384-2.027s-1.416-1.112-2.1-1.7a1.868,1.868,0,0,1-.56-2.253c.338-.945.593-1.919.885-2.882,1.8-1.142,3.892-1.489,5.869-2.147l.233.359c-.452.481,0,.978.031,1.442.211,2.74.338,5.49.774,8.209.112,3.857.653,7.679.914,11.524l-.275.1Z" transform="translate(-76.034 -108.335)" fill="#6d618b"/>
        <path id="Trazado_907153" data-name="Trazado 907153" d="M2937.761,1246.563c-.356,2.121-.456,4.268-.66,6.405a9.145,9.145,0,0,0-3.048.017q.475-4.933.952-9.867a6.174,6.174,0,0,1,4.385-5.552c.654-.237,1.326-.421,1.99-.628a3.1,3.1,0,0,0,.939,2.819c-.692.234-1.39.45-2.074.7a3.172,3.172,0,0,0-2.2,2.572C2937.87,1244.2,2937.85,1245.385,2937.761,1246.563Z" transform="translate(-26.506 -94.245)" fill="#f6f6f6"/>
        <path id="Trazado_907154" data-name="Trazado 907154" d="M2969.75,1228.734a3.1,3.1,0,0,1-.939-2.819,3.129,3.129,0,0,1,2.249-1.975c.968-.267,1.906-.65,2.881-.887a2.588,2.588,0,0,1,2.908,1.655,2.558,2.558,0,0,1-1.259,3.2,34.894,34.894,0,0,1-3.64,1.249A2.979,2.979,0,0,1,2969.75,1228.734Z" transform="translate(-53.937 -83.222)" fill="#5b4982"/>
        <path id="Trazado_907155" data-name="Trazado 907155" d="M2924.018,1313.009a9.137,9.137,0,0,1,3.047-.017,5.244,5.244,0,0,1,2.58,3.538l-8.286.014A4.848,4.848,0,0,1,2924.018,1313.009Z" transform="translate(-16.472 -154.269)" fill="#817aa0"/>
        <path id="Trazado_907156" data-name="Trazado 907156" d="M3005.537,1172.386a1.3,1.3,0,0,1-.194,1c-1.024,1.521-.825,3.23-.826,4.913a2.994,2.994,0,0,1-2.823-2.08,2.93,2.93,0,0,1,1.087-3.232,2.775,2.775,0,0,0,.284-.3A13.023,13.023,0,0,1,3005.537,1172.386Z" transform="translate(-79.874 -43.216)" fill="#e6795f"/>
        <path id="Trazado_907157" data-name="Trazado 907157" d="M3043.8,1287.7l2.591,0c.093,1.26,1.32,1.405,2.027,2.061a6.705,6.705,0,0,1-1.084,2.108,2.279,2.279,0,0,0-.3,1.467c.346,3,.608,6,.9,9l-5.662,0c.2-1.935.374-3.872.59-5.806.258-2.311.717-4.65-1.2-6.562.226-.411.663-.563,1.016-.813C3043.213,1288.787,3043.8,1288.472,3043.8,1287.7Z" transform="translate(-111.577 -134.372)" fill="#29a6fe"/>
        <path id="Trazado_907158" data-name="Trazado 907158" d="M3119.71,1328.176c0-1.743-.022-3.486,0-5.228a2.351,2.351,0,0,1,2.61-2.567c1.917,0,3.833.021,5.75.034a3,3,0,0,0-1.276,2.77c.061,1.661.015,3.325.015,4.988Z" transform="translate(-173.261 -160.208)" fill="#fac359"/>
        <path id="Trazado_907159" data-name="Trazado 907159" d="M3068.13,1310.115c-.291-3-.553-6.007-.9-9a2.279,2.279,0,0,1,.3-1.467,6.712,6.712,0,0,0,1.084-2.108l1.6,1.039-.692,8.721q-.111,1.4-.222,2.8Z" transform="translate(-131.77 -142.149)" fill="#b7ecf7"/>
        <path id="Trazado_907160" data-name="Trazado 907160" d="M3036.125,1298.564c1.914,1.912,1.455,4.25,1.2,6.562-.216,1.933-.395,3.87-.59,5.806l-1.162-.01c-.261-3.845-.8-7.667-.914-11.524C3035.229,1299.268,3035.521,1298.641,3036.125,1298.564Z" transform="translate(-106.034 -142.961)" fill="#b7ecf7"/>
        <path id="Trazado_907161" data-name="Trazado 907161" d="M3042.719,1215.014a8.041,8.041,0,0,1-.755-.683,1.056,1.056,0,0,1-.166-1.239,1.026,1.026,0,0,1,1.079-.62c.578.04,1.154.1,1.73.159a5.476,5.476,0,0,0,2.049-.112c.754-.1,1.545-.156,1.8.745.245.873-.321,1.4-1.077,1.735C3045.966,1213.616,3044.4,1213.621,3042.719,1215.014Z" transform="translate(-111.578 -74.898)" fill="#4c3379"/>
        <path id="Trazado_907162" data-name="Trazado 907162" d="M3067.563,1181.8a3.077,3.077,0,0,1,1.869.759.805.805,0,0,1,.209,1.118c-.274.42-.7.678-1.154.388a1.545,1.545,0,0,0-1.824.013.757.757,0,0,1-1.071-.356.863.863,0,0,1,.145-1.147A3.094,3.094,0,0,1,3067.563,1181.8Z" transform="translate(-130.369 -50.66)" fill="#5b4982"/>
        <path id="Trazado_907163" data-name="Trazado 907163" d="M3034.3,1183.664c-.028.02-.056.041-.085.06-1.181.756-2.483.005-3.74.269-.561.118-.694-.9-.106-1.455,1.092-1.034,2.518-.909,3.926.345Z" transform="translate(-102.344 -50.693)" fill="#5b4982"/>
        <path id="Trazado_907164" data-name="Trazado 907164" d="M3046.682,1220.679c1.685-1.392,3.247-1.4,4.658-.016l-.918.837C3049.075,1221.681,3047.745,1221.789,3046.682,1220.679Z" transform="translate(-115.54 -80.564)" fill="#fa52a3"/>
        <path id="Trazado_907165" data-name="Trazado 907165" d="M3067.841,1265.407l-1.6-1.039c-.707-.656-1.934-.8-2.027-2.061,1.329-2.35,2.927-4.521,4.47-6.729C3068.548,1258.867,3068.242,1262.141,3067.841,1265.407Z" transform="translate(-129.401 -108.981)" fill="#f6f6f6"/>
        <path id="Trazado_907166" data-name="Trazado 907166" d="M3032.325,1265.292c-.6.077-.9.7-1.469.834-.437-2.719-.564-5.469-.775-8.209-.035-.464-.484-.961-.031-1.442a58.161,58.161,0,0,1,4.408,6.546c0,.769-.588,1.085-1.116,1.459C3032.989,1264.729,3032.551,1264.88,3032.325,1265.292Z" transform="translate(-102.235 -109.689)" fill="#f6f6f6"/>
      </g>
    </g>
  </g>
</svg>
