<svg xmlns="http://www.w3.org/2000/svg" width="70" height="70" viewBox="0 0 70 70">
  <g id="Grupo_1118290" data-name="Grupo 1118290" transform="translate(-300 -6501)">
    <g id="Grupo_1099486" data-name="Grupo 1099486" transform="translate(31 5543)">
      <circle id="Elipse_5614" data-name="Elipse 5614" cx="35" cy="35" r="35" transform="translate(269 958)" fill="#fff"/>
    </g>
    <g id="Grupo_1119678" data-name="Grupo 1119678" transform="translate(-225.399 6525.987)">
      <path id="Trazado_906432" data-name="Trazado 906432" d="M567.865,55.267a14.807,14.807,0,0,1-5.379-1.315,37.427,37.427,0,0,1-18.431-17.2,19.6,19.6,0,0,1-2.35-6.945,5.48,5.48,0,0,1,1.737-5.145c.823-.717,1.552-1.541,2.335-2.305a2.66,2.66,0,0,1,4.165-.02q2.154,2.113,4.267,4.269c1.4,1.433,1.386,2.8-.022,4.248-.805.825-1.619,1.642-2.454,2.436a.905.905,0,0,0-.216,1.193,22.87,22.87,0,0,0,4.744,6.351,22.6,22.6,0,0,0,6.141,4.54.908.908,0,0,0,1.231-.213c.793-.836,1.613-1.647,2.437-2.454a2.674,2.674,0,0,1,4.247.007q2.106,2.079,4.185,4.185c1.442,1.461,1.425,2.867-.029,4.336-.8.805-1.615,1.59-2.391,2.416A5.221,5.221,0,0,1,567.865,55.267Z" transform="translate(0 -26.529)" fill="#7a4f00"/>
      <path id="Trazado_906433" data-name="Trazado 906433" d="M703.394-5.885l.39-2.829c7.624.749,16.324,7.12,18.158,17.532l-2.865.5a18.59,18.59,0,0,0-15.683-15.2Z" transform="translate(-142.787)" fill="#7a4f00"/>
      <path id="Trazado_906434" data-name="Trazado 906434" d="M708.734,66.233A10.216,10.216,0,0,0,700.251,58l.372-2.791a12.739,12.739,0,0,1,10.919,10.545Z" transform="translate(-140.013 -56.429)" fill="#7a4f00"/>
    </g>
  </g>
</svg>
