<svg xmlns="http://www.w3.org/2000/svg" width="70" height="70" viewBox="0 0 70 70">
  <g id="Grupo_1117955" data-name="Grupo 1117955" transform="translate(-610 -6501)">
    <g id="Grupo_1099487" data-name="Grupo 1099487" transform="translate(341 5543)">
      <circle id="Elipse_5614" data-name="Elipse 5614" cx="35" cy="35" r="35" transform="translate(269 958)" fill="#fff"/>
    </g>
    <g id="Grupo_1117957" data-name="Grupo 1117957" transform="translate(-519.284 4662.761)">
      <path id="Trazado_904315" data-name="Trazado 904315" d="M1195.2,1909.313l-1.8-.682-.083.21,2.561,3.074-3.309,1.673a6.137,6.137,0,0,0-5.813-2.484,36.86,36.86,0,0,1,1.251-3.926,15.158,15.158,0,0,1,12.652-9.368c.442-.056,1.169-.549,1.3.4.111.8-.084,1.463-1.036,1.684-1.706.4-2.042.845-2.049,2.567-.01,2.18.393,2.637,2.59,2.863a1.176,1.176,0,0,1,1.185,1.189c.212,1.9.689,2.313,2.615,2.362,1.322.033,1.624.341,1.635,1.707.01,1.253-.024,2.506.013,3.758.043,1.448.846,2.147,2.365,2.137a2.014,2.014,0,0,0,2.288-2.206c.01-.391-.01-.783.01-1.174a1.1,1.1,0,0,1,1.173-1.185c.391-.012.783,0,1.174-.014a2.111,2.111,0,0,0,2.287-2.269c.036-.961.007-1.925.007-2.887l.345-.111a5.659,5.659,0,0,1,.548.852c4.165,9.967-3.473,21.445-14.25,21.457-.807,0-.987-.292-.98-1.025.028-3.288,0-6.577.023-9.865.006-.773-.074-1.359-1.1-1.19-.369-2.4-1.53-4.029-3.973-4.539a.859.859,0,0,1-.484-.662c0-.17.352-.44.593-.51a4.274,4.274,0,0,0,3.317-3.812c.136-1.017-.336-1.351-1.289-1.22A4.564,4.564,0,0,0,1195.2,1909.313Z" transform="translate(-31.303 -34.729)" fill="#6a4d23"/>
      <path id="Trazado_904316" data-name="Trazado 904316" d="M1241.445,1902.625a1.56,1.56,0,0,1,1.592-1.909c1.089-.121,1.533-1,1.557-2.043.015-.617.167-.93.892-.86a15.775,15.775,0,0,1,11.894,6.859,1.562,1.562,0,0,1,.177,1.78,8.186,8.186,0,0,0-.292,2.878c-.05,1.621-.3,1.892-1.945,1.922-2.162.04-2.634.526-2.66,2.741-.017,1.491-.417,1.894-1.752,1.857a1.246,1.246,0,0,1-1.384-1.379c-.016-1.253,0-2.506-.013-3.759-.021-1.759-.664-2.408-2.392-2.447-1.515-.034-1.712-.216-1.893-1.743a1.879,1.879,0,0,0-1.913-1.825C1241.656,1904.54,1241.437,1904.3,1241.445,1902.625Z" transform="translate(-73.139 -34.859)" fill="#6a4d23"/>
      <path id="Trazado_904317" data-name="Trazado 904317" d="M1157.788,1987.9c-3.6,0-7.2-.025-10.794.017-.87.01-1.2-.247-1.145-1.131a24.015,24.015,0,0,0,0-3.049c-.06-.927.274-1.2,1.2-1.2,5.123.04,10.246.019,15.37.019,2.112,0,4.224.031,6.335-.015.817-.018,1.127.251,1.089,1.072a31.068,31.068,0,0,0,0,3.167c.049.876-.273,1.145-1.146,1.135C1165.062,1987.878,1161.425,1987.9,1157.788,1987.9Zm9.811-3.889-.372.008v2.271l.372,0Zm-19.111-.155a1.494,1.494,0,0,0,0,2.472Z" transform="translate(-0.002 -99.691)" fill="#6a4d23"/>
      <path id="Trazado_904318" data-name="Trazado 904318" d="M1157.7,2013.755c-3.559,0-7.117-.031-10.675.021-.95.013-1.235-.3-1.177-1.213.067-1.052.037-2.111.009-3.166-.016-.631.178-.908.867-.906q11.144.027,22.289,0c.619,0,.831.25.821.834-.018,1.016-.066,2.038.015,3.049.084,1.056-.244,1.426-1.357,1.4C1164.894,2013.712,1161.3,2013.755,1157.7,2013.755Zm9.517-1.326a1.768,1.768,0,0,0,0-2.625Zm-18.772-.01v-2.6A1.712,1.712,0,0,0,1148.443,2012.419Z" transform="translate(0 -119.543)" fill="#6a4d23"/>
      <path id="Trazado_904319" data-name="Trazado 904319" d="M1154.545,1863.7c1.735-2.041,3.792-3.675,5.426-5.672l-.366-.382a8.812,8.812,0,0,1-1.149.928,3.989,3.989,0,0,1-1.629.672c-1.757.086-3.522.071-5.281.006-.5-.018-1.261-.2-1.442-.545-1.057-2.026-1.977-4.123-2.982-6.28,1.187-.282,2.129-.37,2.8.6,1.781,2.561,4.192,3.328,7.266,3.038,2.832-.266,5.708-.048,8.566-.048a4.508,4.508,0,0,1,3.648,1.81,3.916,3.916,0,0,1,.428,1.137,4.431,4.431,0,0,1-1.077.3c-1.721.032-3.446-.036-5.165.042a3.645,3.645,0,0,0-1.814.587c-1.643,1.129-3.219,2.357-4.816,3.552A2.156,2.156,0,0,1,1154.545,1863.7Z" transform="translate(-0.981 0)" fill="#6a4d23"/>
      <path id="Trazado_904320" data-name="Trazado 904320" d="M1155.307,1945.612l-2.732.194,0,.472c.377.058.753.132,1.132.171s.766.043,1.278.069l-.078,1.48c-1.726,0-3.394.016-5.061-.022a.728.728,0,0,1-.505-.487c-.154-1.425-.251-2.856-.37-4.328l2.177-.32-.01-.463-1.951-.26a2.935,2.935,0,0,1,2.239-3.705,3.173,3.173,0,0,1,3.834,2.7,6.972,6.972,0,0,1,.043.936C1155.31,1943.216,1155.307,1944.38,1155.307,1945.612Z" transform="translate(-2.398 -65.875)" fill="#6a4d23"/>
      <path id="Trazado_904321" data-name="Trazado 904321" d="M1181.548,1963.2c-.157,0-.314.008-.47,0-.92-.057-1.84-.117-2.76-.176.042-1.162.045-2.328.157-3.484.026-.273.371-.586.647-.753a4.846,4.846,0,0,1,6.183,1.393c.694.993-.333,1.751-.334,2.654,0,.123-.77.319-1.193.352C1183.039,1963.239,1182.291,1963.2,1181.548,1963.2Z" transform="translate(-24.848 -81.063)" fill="#6a4d23"/>
      <path id="Trazado_904322" data-name="Trazado 904322" d="M1210.619,1967.113a3.63,3.63,0,0,1,4.136-3.7,3.455,3.455,0,0,1,3.259,3.7Z" transform="translate(-49.561 -85.043)" fill="#6a4d23"/>
      <path id="Trazado_904323" data-name="Trazado 904323" d="M1229.793,1937.58a3.1,3.1,0,0,1-3.249,3.331A2.891,2.891,0,0,1,1229.793,1937.58Z" transform="translate(-61.692 -65.284)" fill="#6a4d23"/>
      <path id="Trazado_904324" data-name="Trazado 904324" d="M1184.589,1852.9c1.528-.338,3.858.906,4.869,2.523C1187.571,1856.113,1186.18,1855.409,1184.589,1852.9Z" transform="translate(-29.646 -0.459)" fill="#6a4d23"/>
      <path id="Trazado_904325" data-name="Trazado 904325" d="M1161.419,1919.152a15.021,15.021,0,0,1-.019,1.64c-.022.2-.273.375-.419.562-.142-.155-.4-.306-.407-.465q-.053-1.641,0-3.283c.006-.175.242-.343.372-.513.158.178.426.342.451.538A12.094,12.094,0,0,1,1161.419,1919.152Z" transform="translate(-11.253 -49.617)" fill="#6a4d23"/>
      <path id="Trazado_904326" data-name="Trazado 904326" d="M1168.322,1917.6c-.3,1.308-.529,2.407-.815,3.491-.051.192-.333.324-.508.483-.119-.208-.37-.443-.335-.62.229-1.135.5-2.264.808-3.381.056-.2.331-.345.505-.515Z" transform="translate(-15.93 -49.59)" fill="#6a4d23"/>
      <path id="Trazado_904327" data-name="Trazado 904327" d="M1151.534,1916.713c.227.821.462,1.64.677,2.464a12.05,12.05,0,0,1,.342,1.594c.019.162-.193.378-.346.517-.046.042-.35-.068-.37-.15-.351-1.413-.677-2.833-1.008-4.251Z" transform="translate(-3.818 -49.327)" fill="#6a4d23"/>
    </g>
  </g>
</svg>
