<svg xmlns="http://www.w3.org/2000/svg" xmlns:xlink="http://www.w3.org/1999/xlink" width="121" height="121" viewBox="0 0 121 121">
  <defs>
    <clipPath id="clip-path">
      <rect id="Rectángulo_400938" data-name="Rectángulo 400938" width="121" height="121" transform="translate(0 0)" fill="none"/>
    </clipPath>
    <clipPath id="clip-path-2">
      <rect id="Rectángulo_401073" data-name="Rectángulo 401073" width="92.219" height="41.532" fill="#efb499"/>
    </clipPath>
  </defs>
  <g id="Grupo_1119983" data-name="Grupo 1119983" transform="translate(6478.504 6828)">
    <g id="Grupo_1105103" data-name="Grupo 1105103" transform="translate(-6866.172 -12841)">
      <rect id="Rectángulo_401103" data-name="Rectángulo 401103" width="121" height="121" transform="translate(387.668 6013)" fill="none"/>
      <g id="Grupo_1099348" data-name="Grupo 1099348" transform="translate(387.668 6013)">
        <g id="Grupo_1099282" data-name="Grupo 1099282">
          <g id="Grupo_1099281" data-name="Grupo 1099281" clip-path="url(#clip-path-2)">
            <path id="Trazado_873375" data-name="Trazado 873375" d="M74.8,9.1c-4.139,0-6.28-2.03-8.17-3.821-1.855-1.756-3.452-3.274-6.792-3.274s-4.937,1.517-6.792,3.274C51.161,7.072,49.023,9.1,44.881,9.1s-6.28-2.03-8.169-3.821C34.857,3.525,33.26,2.007,29.92,2.007s-4.937,1.517-6.789,3.274C21.241,7.072,19.1,9.1,14.962,9.1S8.679,7.072,6.789,5.281C4.937,3.525,3.34,2.007,0,2.007V0C4.139,0,6.28,2.033,8.17,3.821c1.855,1.759,3.452,3.274,6.792,3.274S19.9,5.58,21.75,3.824C23.637,2.033,25.781,0,29.92,0s6.283,2.033,8.17,3.821c1.855,1.759,3.452,3.274,6.792,3.274s4.937-1.514,6.792-3.274C53.56,2.033,55.7,0,59.843,0s6.283,2.033,8.17,3.821C69.867,5.58,71.464,7.094,74.8,7.094S79.742,5.58,81.6,3.821C83.483,2.033,85.624,0,89.766,0V2.007c-3.34,0-4.937,1.517-6.792,3.274C81.084,7.072,78.943,9.1,74.8,9.1" transform="translate(2.453 32.43)" fill="#efb499"/>
            <path id="Trazado_873376" data-name="Trazado 873376" d="M74.8,9.1c-4.139,0-6.283-2.03-8.17-3.824-1.855-1.756-3.452-3.27-6.792-3.27s-4.937,1.514-6.792,3.27C51.164,7.072,49.023,9.1,44.881,9.1s-6.283-2.03-8.17-3.824c-1.855-1.756-3.452-3.27-6.792-3.27s-4.937,1.517-6.789,3.27C21.241,7.072,19.1,9.1,14.962,9.1S8.679,7.072,6.789,5.278C4.937,3.522,3.34,2.007,0,2.007V0C4.139,0,6.283,2.03,8.17,3.821c1.855,1.759,3.452,3.274,6.792,3.274S19.9,5.58,21.75,3.821C23.637,2.03,25.781,0,29.92,0S36.2,2.03,38.093,3.821c1.852,1.759,3.449,3.274,6.789,3.274s4.937-1.514,6.792-3.274C53.56,2.03,55.7,0,59.843,0s6.283,2.03,8.17,3.821C69.867,5.58,71.464,7.094,74.8,7.094S79.742,5.58,81.6,3.821C83.486,2.03,85.627,0,89.769,0V2.007c-3.34,0-4.94,1.517-6.8,3.27C81.084,7.072,78.943,9.1,74.8,9.1" transform="translate(1.635 21.62)" fill="#efb499"/>
            <path id="Trazado_873377" data-name="Trazado 873377" d="M74.8,9.1c-4.139,0-6.283-2.03-8.169-3.824-1.855-1.756-3.452-3.27-6.792-3.27s-4.937,1.514-6.792,3.27C51.164,7.072,49.02,9.1,44.881,9.1s-6.283-2.03-8.17-3.824c-1.855-1.756-3.452-3.27-6.792-3.27s-4.937,1.517-6.789,3.27C21.241,7.072,19.1,9.1,14.962,9.1S8.678,7.072,6.789,5.278C4.937,3.522,3.34,2.007,0,2.007V0C4.139,0,6.283,2.03,8.169,3.821c1.851,1.759,3.452,3.274,6.792,3.274S19.9,5.58,21.75,3.821C23.637,2.03,25.781,0,29.92,0S36.2,2.03,38.093,3.821c1.852,1.759,3.449,3.274,6.789,3.274s4.937-1.514,6.792-3.274C53.56,2.03,55.7,0,59.843,0s6.283,2.03,8.17,3.821C69.867,5.58,71.464,7.094,74.8,7.094S79.742,5.58,81.6,3.821C83.486,2.03,85.624,0,89.769,0V2.007c-3.34,0-4.941,1.517-6.8,3.27C81.084,7.072,78.943,9.1,74.8,9.1" transform="translate(0.818 10.81)" fill="#efb499"/>
            <path id="Trazado_873378" data-name="Trazado 873378" d="M74.8,9.1c-4.139,0-6.28-2.03-8.17-3.821-1.855-1.756-3.452-3.27-6.792-3.27s-4.937,1.514-6.789,3.27C51.164,7.069,49.023,9.1,44.881,9.1s-6.28-2.03-8.169-3.821c-1.855-1.756-3.452-3.27-6.792-3.27s-4.937,1.514-6.789,3.267C21.245,7.069,19.1,9.1,14.962,9.1S8.678,7.069,6.789,5.278C4.937,3.522,3.34,2.007,0,2.007V0C4.139,0,6.283,2.03,8.17,3.821c1.855,1.756,3.452,3.27,6.792,3.27S19.9,5.577,21.75,3.821C23.64,2.03,25.781,0,29.92,0s6.28,2.03,8.173,3.821c1.852,1.756,3.449,3.27,6.789,3.27s4.937-1.514,6.792-3.27C53.563,2.03,55.7,0,59.843,0s6.28,2.03,8.17,3.821c1.855,1.756,3.452,3.27,6.792,3.27s4.937-1.514,6.792-3.27C83.486,2.03,85.627,0,89.769,0V2.007c-3.344,0-4.941,1.514-6.8,3.27C81.084,7.069,78.943,9.1,74.8,9.1" transform="translate(0 0.003)" fill="#efb499"/>
          </g>
        </g>
      </g>
      <circle id="Elipse_11504" data-name="Elipse 11504" cx="50.5" cy="50.5" r="50.5" transform="translate(402.668 6031)" fill="#ffce73"/>
      <circle id="Elipse_11503" data-name="Elipse 11503" cx="52.5" cy="52.5" r="52.5" transform="translate(395.668 6021)" fill="#f3f9ff"/>
    </g>
    <g id="Grupo_1105105" data-name="Grupo 1105105" transform="translate(-6452.563 -6802.196)">
      <rect id="Rectángulo_401104" data-name="Rectángulo 401104" width="68" height="69" transform="translate(-0.438 -0.804)" fill="none"/>
      <g id="Grupo_1105108" data-name="Grupo 1105108" transform="translate(-905.851 -198.496)">
        <path id="Trazado_897115" data-name="Trazado 897115" d="M1067.908,315.245a8.011,8.011,0,0,0-2.587-.36c-.5-.007-.938-.105-1.122-.6a1.222,1.222,0,0,1,.3-1.264,11.071,11.071,0,0,1,8.622-4.206,28.971,28.971,0,0,1,7.823.421,14.01,14.01,0,0,1,10.512,12.312c.586,5.387-2.367,10.471-7.628,13.137a1.972,1.972,0,0,0-.225.181c1.706,1.183,1.892,2.922,1.826,4.8s0,3.735-.018,5.6a5.032,5.032,0,0,1-5.069,5.146c-7.209.03-14.419,0-21.628.018-.558,0-.709-.155-.706-.71q.031-7.422,0-14.844c0-.56.166-.725.725-.721q4.374.038,8.749,0c.532,0,.661.18.655.679-.024,1.9.012,3.8-.023,5.7-.011.571.115.835.734.839a2.625,2.625,0,0,1,1.776.943c.4.385.609.286.687-.243a8.9,8.9,0,0,1,2.246-4.7c-.044-.067-.066-.145-.106-.155-3.131-.824-4.305-2.358-4.307-5.635a2.45,2.45,0,0,1,0-.393,4.271,4.271,0,0,0-1.871-4.56c-.531-.365-.467-.686,0-1.132a5.63,5.63,0,0,0,1.846-3.789c.037-.554-.095-.761-.678-.737-1.014.042-2.032.029-3.047.006-1.179-.026-1.552-.68-1.031-1.752A10.447,10.447,0,0,1,1067.908,315.245Zm-1,3.722c3.11,0,6.02-.005,8.929,0,.722,0,1.395-.143,1.418-.988s-.607-1.059-1.356-1.032c-.987.035-.593-.728-.653-1.2s-.03-.876.676-.9a3.126,3.126,0,0,1,3.356,3.367c-.029.569.041.841.661,1.043a4.777,4.777,0,0,1,3.211,3.323,1.371,1.371,0,0,0,.711.85,3.038,3.038,0,0,1,.739,4.792,3.59,3.59,0,0,0-1.181,3.3c.035.308-.168.741.151.892.3.14.589-.207.847-.384a10.7,10.7,0,0,0,4.857-11.226,11.324,11.324,0,0,0-8.57-9.514c-2.937-.847-5.994-.488-8.989-.293a6.792,6.792,0,0,0-4.254,2,13.735,13.735,0,0,1,4.649,1.657c.21.122.513.192.524.523.021.649-1.063,1.454-1.624,1.179a.883.883,0,0,0-.829-.016A8.066,8.066,0,0,0,1066.912,318.967Zm8.211,2.014c-1.049,0-2.1.02-3.146-.009-.509-.014-.752.089-.791.677a7.488,7.488,0,0,1-1.341,3.942c-.251.35-.209.616.111.829,1.22.813,1.371,1.993,1.292,3.334-.083,1.406-.018,1.392,1.453,1.411.977.013,1.978-.135,2.275-1.142s.908-.872,1.617-.91.749.272.61.83a4.067,4.067,0,0,1-2.593,2.975,6.824,6.824,0,0,1-2.622.24c-.646,0-.654.235-.355.691a2.662,2.662,0,0,0,2.756,1.3c2.167-.305,4.327-.663,6.495-.966.409-.057.461-.255.457-.584-.009-.754.066-1.515-.016-2.259-.188-1.724.079-3.224,1.629-4.29a1.021,1.021,0,0,0,.358-1.314,1.032,1.032,0,0,0-1.17-.686c-.668.091-.807-.2-.822-.821-.05-2.107-1.215-3.212-3.349-3.25C1077.024,320.967,1076.073,320.981,1075.123,320.981Zm1.248,27.418c1.277,0,2.554.028,3.83-.007a2.928,2.928,0,0,0,3.15-2.742c.139-2.513.1-5.04.026-7.558a1.968,1.968,0,0,0-2.13-1.866,2.052,2.052,0,0,0-1.934,2.079c-.023.556.042,1.118-.014,1.669a6.2,6.2,0,0,0,1.506,5.253c.565.588.063.851-.376,1.056-.4.187-.879,1.053-1.274.091-.781-1.9-2.219-2.333-4.07-2.052a7.907,7.907,0,0,1-1.177.008c-2.764,0-2.743,0-2.69,2.766.018.93.448,1.3,1.323,1.3C1073.818,348.4,1075.094,348.4,1076.371,348.4Zm-16.331-6.09v4.511c0,1.586,0,1.548,1.6,1.585.808.019.88-.139.624-.913a3.063,3.063,0,0,1,2.412-4.134,1.452,1.452,0,0,0,1.453-1.633c.013-1.6-.018-3.2.015-4.8.011-.552-.153-.732-.713-.719-1.568.034-3.138.037-4.707,0-.569-.014-.708.176-.7.717C1060.059,338.713,1060.04,340.511,1060.04,342.309Zm7.351,6.115V348.4c.328,0,.657-.024.982,0,.664.06,1-.007.834-.878a5.823,5.823,0,0,1,.066-2.728c.2-.686.081-1.177-.6-1.4a.976.976,0,0,0-1.3.733,1.651,1.651,0,0,1-1.983,1.225c-1.01-.076-1.47.547-1.217,1.5a1.832,1.832,0,0,0,1.551,1.452C1066.277,348.393,1066.837,348.389,1067.391,348.424Zm9.912-11.245a6.722,6.722,0,0,0-3.889,4.571c-.11.4,0,.6.471.591.95-.026,1.9-.022,2.85,0,.424.009.578-.147.573-.571C1077.293,340.277,1077.3,338.784,1077.3,337.179Z" transform="translate(-120.166 -86.799)" fill="#070605"/>
        <path id="Trazado_897116" data-name="Trazado 897116" d="M924.228,341.589a9.214,9.214,0,0,1,2.357,4.9c.065.471.321.533.66.185a2.951,2.951,0,0,1,1.677-.949c.442-.067.423-.47.52-.744.487-1.385.927-2.788,1.4-4.179a3.047,3.047,0,1,1,5.751,1.96c-.552,1.674-1.1,3.35-1.662,5.021-.108.321-.207.579.072.893a3.224,3.224,0,0,1,.37,3.838,3.789,3.789,0,0,1-3.54,2.238c-3.474.037-6.948.015-10.422.016-1.245,0-2.491.012-3.736,0a4.947,4.947,0,0,1-4.975-3.8,3.149,3.149,0,0,0-.9-1.442,10.922,10.922,0,0,1-3.378-8q-.02-8.553,0-17.107a10.043,10.043,0,0,1,9.711-10.194,47.977,47.977,0,0,1,5.207.029,8.039,8.039,0,0,1,7.415,7.879,2.911,2.911,0,0,1-1.558,2.761.87.87,0,0,0-.489,1.024,6.08,6.08,0,0,0,1.931,3.966c.454.414.512.722-.007,1.061-1.894,1.236-2.178,3.057-1.958,5.121a4.764,4.764,0,0,1-1.7,4.389A5.5,5.5,0,0,1,924.228,341.589ZM912.371,347.1c.1-.179.12-.2.12-.23.007-1.441.025-2.883.012-4.324a2.848,2.848,0,0,1,.885-2.41c1.23-.887,1.157-2.053,1.12-3.285a8.591,8.591,0,0,1,.009-1.472,2.781,2.781,0,0,0-1.028-2.565,3.1,3.1,0,0,1,.615-5.073,1.23,1.23,0,0,0,.612-.7,5.021,5.021,0,0,1,5.239-3.725c2.457-.005,4.914,0,7.371-.015,1.09-.006,1.386-.336,1.348-1.43a6.015,6.015,0,0,0-5.645-5.638c-1.44-.044-2.883-.021-4.324-.015a8.011,8.011,0,0,0-8.245,8.067c-.079,5.732-.034,11.466-.011,17.2A8.768,8.768,0,0,0,912.371,347.1ZM922.8,325.33c-.917,0-1.835-.006-2.752,0-2.287.019-3.436,1.106-3.536,3.4-.021.484-.107.745-.651.671a1.105,1.105,0,0,0-1.286.669,1.27,1.27,0,0,0,.461,1.485c.264.244.489.537.773.754a1.842,1.842,0,0,1,.706,1.711c-.054,1.275-.016,2.555-.014,3.832,0,.318-.072.617.443.686,2.168.293,4.33.637,6.493.966a2.687,2.687,0,0,0,2.422-.786c.29-.291.71-.66.548-1.065-.133-.331-.647-.1-.989-.13-.357-.037-.721,0-1.08-.029a4.01,4.01,0,0,1-3.617-3.1c-.066-.3-.341-.817.185-.873.562-.06,1.471-.4,1.681.241.553,1.684,1.779,1.759,3.2,1.767.742,0,.971-.193.914-.93-.115-1.47-.2-2.96,1.31-3.9.327-.2.249-.451.049-.742a7.547,7.547,0,0,1-1.351-4.036c-.02-.49-.218-.607-.658-.6C924.967,325.343,923.885,325.33,922.8,325.33Zm-1.344,27.46h2.553c2.761,0,2.792-.032,2.7-2.8,0-.065,0-.131,0-.2a1.071,1.071,0,0,0-1.187-1.14,22.259,22.259,0,0,1-2.649-.022c-1.886-.242-3.4.13-4.155,2.087-.071.183-.172.425-.478.387a1.2,1.2,0,0,1-.874-1.9c.457-.774,1.24-1.391,1.251-2.391.015-1.342.037-2.685-.006-4.026a2.082,2.082,0,0,0-2.091-2.239c-1.261.009-2.04.9-2.045,2.364q-.011,3.24,0,6.481a3.122,3.122,0,0,0,3.349,3.389C919.038,352.809,920.249,352.789,921.46,352.789Zm7.271-1.964-.076,0c0,.457.025.916-.008,1.372-.026.358.04.561.452.551.979-.024,1.962.011,2.938-.057a1.838,1.838,0,0,0,1.605-1.263c.408-.988-.038-1.807-1.084-1.718a1.712,1.712,0,0,1-2.09-1.339.907.907,0,0,0-.205-.329.9.9,0,0,0-1.149-.251.851.851,0,0,0-.551,1.089A10.637,10.637,0,0,1,928.731,350.826Zm-8.147-9.193c0,1.493.006,2.987,0,4.481,0,.391.1.609.545.6.979-.018,1.958-.007,2.938-.005.281,0,.5-.019.493-.411C924.529,344.623,922.34,342.035,920.584,341.633Zm14.214.143c.015-.705-.245-1.086-.806-1.195a.954.954,0,0,0-1.171.651c-.371,1.045-.653,2.123-1.064,3.151s-.725,1.994.357,2.833c.186.144.223.521.554.447.3-.067.309-.388.39-.629q.687-2.039,1.367-4.081C934.568,342.521,934.7,342.086,934.8,341.776Z" transform="translate(0 -91.147)" fill="#070605"/>
        <path id="Trazado_897117" data-name="Trazado 897117" d="M920.641,200.7c2.916,0,5.832-.007,8.747,0a3.1,3.1,0,0,1,3.408,3.41q.007,4.718,0,9.435a3.109,3.109,0,0,1-3.329,3.4c-1.507.021-3.015.023-4.521-.006a.894.894,0,0,0-.983.591c-.3.689-.642,1.359-1,2.017a2.525,2.525,0,0,1-2.3,1.419,2.573,2.573,0,0,1-2.41-1.4,1.555,1.555,0,0,1-.179-.348,2.838,2.838,0,0,0-3.657-2.291,14.371,14.371,0,0,1-2.748.021,3.059,3.059,0,0,1-3.239-3.276q-.017-4.865,0-9.73A3.038,3.038,0,0,1,911.7,200.7C914.678,200.685,917.66,200.7,920.641,200.7Zm-.015,2.023c-2.913,0-5.826-.007-8.739,0-1.111,0-1.433.306-1.437,1.383q-.022,4.713,0,9.426c.005,1.077.326,1.362,1.438,1.367,1.8.008,3.6.042,5.4-.017a1.206,1.206,0,0,1,1.324.836c.336.778.736,1.529,1.126,2.282.2.39.292.933.885.916.526-.016.631-.5.819-.87.4-.787.825-1.56,1.179-2.365a1.143,1.143,0,0,1,1.251-.8c1.766.058,3.534.022,5.3.019,1.3,0,1.6-.294,1.6-1.618q.008-4.468,0-8.935c0-1.338-.285-1.624-1.6-1.627Q924.9,202.712,920.626,202.719Z" transform="translate(-0.005 0)" fill="#070605"/>
        <path id="Trazado_897118" data-name="Trazado 897118" d="M1116.462,205.812c2.915,0,5.83-.005,8.745,0a3.108,3.108,0,0,1,3.451,3.456c0,2.489.009,4.978,0,7.467a3.041,3.041,0,0,1-3.219,3.285q-2.308.037-4.618,0a.9.9,0,0,0-.978.6c-.3.686-.647,1.355-1,2.015a2.526,2.526,0,0,1-2.387,1.435,2.256,2.256,0,0,1-2.325-1.494c-.687-2.329-2.214-2.9-4.414-2.566a12.133,12.133,0,0,1-2.551,0,2.986,2.986,0,0,1-2.863-2.936q-.062-4.126,0-8.253a3.051,3.051,0,0,1,3.224-3C1110.5,205.8,1113.482,205.812,1116.462,205.812Zm.085,2.059c-2.948,0-5.9-.007-8.842,0-1.045,0-1.381.311-1.389,1.323q-.029,3.733,0,7.466c.008,1,.379,1.331,1.391,1.336,1.867.01,3.734.029,5.6-.012a1.029,1.029,0,0,1,1.114.7c.4.893.861,1.76,1.3,2.636.161.32.3.672.745.687s.6-.34.763-.657c.461-.9.946-1.793,1.349-2.72a.937.937,0,0,1,1.038-.64c1.833.033,3.668.016,5.5.011,1.214,0,1.512-.287,1.518-1.5q.016-3.586,0-7.172c-.005-1.183-.277-1.455-1.443-1.458C1122.311,207.866,1119.429,207.871,1116.547,207.872Z" transform="translate(-157.321 -4.109)" fill="#070605"/>
        <path id="Trazado_897119" data-name="Trazado 897119" d="M1103.249,327.173a8.067,8.067,0,0,1,3.273-2.617.883.883,0,0,1,.829.016c.561.274,1.646-.53,1.624-1.179-.011-.331-.314-.4-.524-.523a13.735,13.735,0,0,0-4.649-1.657,6.792,6.792,0,0,1,4.255-2c2.995-.194,6.051-.553,8.989.293a11.324,11.324,0,0,1,8.57,9.514,10.7,10.7,0,0,1-4.857,11.226c-.258.177-.552.525-.847.384-.319-.152-.117-.585-.151-.892a3.59,3.59,0,0,1,1.181-3.3,3.038,3.038,0,0,0-.739-4.792,1.371,1.371,0,0,1-.711-.85,4.777,4.777,0,0,0-3.211-3.323c-.621-.2-.69-.474-.661-1.043a3.126,3.126,0,0,0-3.356-3.367c-.705.022-.737.416-.676.9s-.334,1.235.653,1.2c.749-.027,1.379.188,1.356,1.032s-.7.99-1.418.988C1109.269,327.167,1106.359,327.173,1103.249,327.173Z" transform="translate(-156.502 -95.004)" fill="#a07649"/>
        <path id="Trazado_897120" data-name="Trazado 897120" d="M1122.775,370.869c.95,0,1.9-.014,2.851,0,2.134.038,3.3,1.143,3.349,3.25.015.625.154.912.822.821a1.031,1.031,0,0,1,1.17.686,1.021,1.021,0,0,1-.359,1.314c-1.55,1.066-1.818,2.566-1.629,4.29.082.745.007,1.506.016,2.259,0,.329-.048.527-.457.584-2.167.3-4.327.661-6.495.966a2.662,2.662,0,0,1-2.756-1.3c-.3-.456-.291-.7.355-.691a6.824,6.824,0,0,0,2.622-.24,4.067,4.067,0,0,0,2.593-2.975c.14-.558.093-.867-.61-.83s-1.324-.082-1.617.91-1.3,1.155-2.275,1.142c-1.471-.019-1.536-.005-1.453-1.411.079-1.341-.072-2.521-1.292-3.334-.32-.214-.362-.48-.111-.83a7.485,7.485,0,0,0,1.341-3.942c.039-.589.282-.691.791-.677C1120.677,370.89,1121.726,370.869,1122.775,370.869Zm.127,2.94a.942.942,0,0,0-1.042-.858.892.892,0,0,0-.941,1.019.91.91,0,0,0,1.026.947C1122.563,374.889,1122.873,374.5,1122.9,373.809Z" transform="translate(-167.817 -136.687)" fill="#e1cab0"/>
        <path id="Trazado_897121" data-name="Trazado 897121" d="M1130.236,460.567c-1.277,0-2.554,0-3.83,0-.875,0-1.3-.372-1.323-1.3-.053-2.767-.074-2.766,2.69-2.766a7.911,7.911,0,0,0,1.177-.008c1.851-.281,3.289.151,4.07,2.052.4.962.873.1,1.274-.091.439-.2.941-.467.376-1.056a6.2,6.2,0,0,1-1.506-5.253c.055-.551-.009-1.113.014-1.669a2.052,2.052,0,0,1,1.934-2.079,1.968,1.968,0,0,1,2.13,1.866c.073,2.518.113,5.045-.026,7.558a2.928,2.928,0,0,1-3.15,2.742C1132.79,460.594,1131.512,460.567,1130.236,460.567Z" transform="translate(-174.03 -198.966)" fill="#edd173"/>
        <path id="Trazado_897122" data-name="Trazado 897122" d="M1068.274,454.365c0-1.8.019-3.6-.011-5.393-.009-.541.13-.731.7-.717,1.568.038,3.138.035,4.707,0,.56-.012.724.167.713.719-.033,1.6,0,3.2-.015,4.8a1.452,1.452,0,0,1-1.453,1.633,3.063,3.063,0,0,0-2.412,4.134c.257.775.184.932-.623.914-1.6-.037-1.6,0-1.6-1.585Q1068.274,456.621,1068.274,454.365Z" transform="translate(-128.399 -198.855)" fill="#e0e1e5"/>
        <path id="Trazado_897123" data-name="Trazado 897123" d="M1092.29,489.634c-.554-.035-1.115-.032-1.661-.114a1.832,1.832,0,0,1-1.551-1.452c-.253-.953.207-1.576,1.217-1.5a1.651,1.651,0,0,0,1.983-1.225.976.976,0,0,1,1.3-.733c.679.221.8.712.6,1.4a5.823,5.823,0,0,0-.066,2.728c.167.871-.169.938-.833.878-.325-.029-.655,0-.982,0Z" transform="translate(-145.064 -228.009)" fill="#e1cab0"/>
        <path id="Trazado_897124" data-name="Trazado 897124" d="M1140.027,453.24c0,1.6-.01,3.1.006,4.591,0,.424-.149.58-.573.571-.95-.021-1.9-.025-2.85,0-.471.013-.581-.193-.471-.591A6.722,6.722,0,0,1,1140.027,453.24Z" transform="translate(-182.889 -202.859)" fill="#edd173"/>
        <path id="Trazado_897125" data-name="Trazado 897125" d="M920.552,355.442a8.769,8.769,0,0,1-1.921-5.615c-.023-5.733-.068-11.467.011-17.2a8.012,8.012,0,0,1,8.245-8.067c1.442-.006,2.884-.029,4.324.015a6.015,6.015,0,0,1,5.645,5.638c.038,1.095-.258,1.424-1.348,1.43-2.457.013-4.914.009-7.371.015a5.02,5.02,0,0,0-5.239,3.725,1.23,1.23,0,0,1-.612.7,3.1,3.1,0,0,0-.615,5.073,2.781,2.781,0,0,1,1.028,2.565,8.591,8.591,0,0,0-.009,1.472c.037,1.233.111,2.4-1.12,3.286a2.847,2.847,0,0,0-.885,2.41c.013,1.441-.005,2.883-.012,4.324C920.672,355.237,920.647,355.263,920.552,355.442Z" transform="translate(-8.181 -99.488)" fill="#edd173"/>
        <path id="Trazado_897126" data-name="Trazado 897126" d="M947.6,370.884c1.081,0,2.162.013,3.243-.006.44-.008.638.109.658.6a7.547,7.547,0,0,0,1.351,4.036c.2.291.278.538-.049.742-1.514.942-1.424,2.431-1.31,3.9.057.737-.172.934-.914.93-1.417-.008-2.643-.083-3.2-1.767-.209-.638-1.118-.3-1.681-.241-.525.056-.25.571-.185.873a4.01,4.01,0,0,0,3.617,3.1c.359.025.723-.008,1.08.029.342.035.856-.2.989.13.162.4-.258.775-.548,1.065a2.687,2.687,0,0,1-2.422.786c-2.163-.329-4.325-.673-6.493-.966-.514-.069-.442-.368-.443-.686,0-1.278-.04-2.557.014-3.832a1.842,1.842,0,0,0-.706-1.711c-.284-.217-.508-.51-.773-.754a1.27,1.27,0,0,1-.461-1.485,1.106,1.106,0,0,1,1.286-.669c.544.074.63-.187.651-.671.1-2.292,1.249-3.38,3.536-3.4C945.764,370.877,946.681,370.884,947.6,370.884Zm.794,2.072a.989.989,0,1,0,1.032.969C949.419,373.331,949.061,372.983,948.393,372.955Z" transform="translate(-24.795 -136.701)" fill="#e1cab0"/>
        <path id="Trazado_897127" data-name="Trazado 897127" d="M946.2,460.508c-1.211,0-2.423.02-3.633,0a3.122,3.122,0,0,1-3.349-3.389q-.011-3.24,0-6.481c0-1.464.784-2.355,2.045-2.364a2.083,2.083,0,0,1,2.091,2.239c.043,1.341.021,2.684.006,4.026-.011,1-.794,1.617-1.251,2.39a1.2,1.2,0,0,0,.874,1.9c.306.038.406-.2.477-.387.76-1.957,2.269-2.329,4.155-2.087a22.258,22.258,0,0,0,2.649.022,1.071,1.071,0,0,1,1.187,1.14c0,.065,0,.131,0,.2.09,2.766.06,2.8-2.7,2.8Z" transform="translate(-24.741 -198.866)" fill="#a07649"/>
        <path id="Trazado_897128" data-name="Trazado 897128" d="M1010.816,487.658a10.643,10.643,0,0,0-.168-1.944.851.851,0,0,1,.551-1.089.9.9,0,0,1,1.149.251.91.91,0,0,1,.205.329,1.711,1.711,0,0,0,2.09,1.339c1.046-.088,1.492.73,1.084,1.718a1.838,1.838,0,0,1-1.605,1.263c-.976.068-1.959.032-2.938.057-.412.01-.477-.193-.452-.551.033-.455.008-.914.008-1.372Z" transform="translate(-82.085 -227.979)" fill="#e1cab0"/>
        <path id="Trazado_897129" data-name="Trazado 897129" d="M970.256,453.774c1.756.4,3.945,2.99,3.972,4.666.006.392-.212.411-.493.411-.979,0-1.959-.013-2.938.005-.445.008-.548-.21-.545-.6C970.263,456.761,970.256,455.268,970.256,453.774Z" transform="translate(-49.672 -203.288)" fill="#a07649"/>
        <path id="Trazado_897130" data-name="Trazado 897130" d="M1028.538,449.519c-.1.31-.23.745-.374,1.176q-.679,2.042-1.367,4.081c-.081.24-.09.561-.39.629-.331.074-.368-.3-.554-.447-1.082-.839-.773-1.795-.357-2.833s.693-2.106,1.064-3.151a.954.954,0,0,1,1.172-.651C1028.293,448.433,1028.553,448.814,1028.538,449.519Z" transform="translate(-93.739 -198.89)" fill="#a07649"/>
        <path id="Trazado_897131" data-name="Trazado 897131" d="M928.874,210.983q4.271,0,8.543,0c1.319,0,1.6.289,1.6,1.627q.008,4.468,0,8.935c0,1.324-.3,1.615-1.6,1.618-1.768,0-3.536.04-5.3-.019a1.143,1.143,0,0,0-1.251.8c-.355.805-.784,1.577-1.179,2.365-.188.374-.293.854-.819.87-.592.018-.683-.526-.885-.916-.39-.754-.789-1.5-1.126-2.282a1.206,1.206,0,0,0-1.324-.836c-1.8.059-3.6.025-5.4.017-1.112,0-1.433-.29-1.438-1.367q-.023-4.713,0-9.426c0-1.077.327-1.379,1.437-1.383C923.048,210.975,925.961,210.983,928.874,210.983Zm-6.3,7.416c-1.235-1-1.212-.976-2.123-.037-.375.386-.317.6.038.932.67.623,1.33,1.262,1.94,1.944.435.487.632.449.95-.125,1.28-2.312,2.576-4.618,3.941-6.881.442-.733.09-.918-.454-1.189-.5-.251-.892-.725-1.351.165C924.606,214.97,923.566,216.664,922.574,218.4Zm10.809.723c.948,0,1.9-.053,2.842.014,1,.071.684-.625.707-1.107s.2-1.038-.707-1a49.169,49.169,0,0,1-5.194-.01c-1.076-.07-1.222.341-1.192,1.258.023.7.223.9.9.859C931.616,219.08,932.5,219.121,933.383,219.121Zm.092-6.071c-.946,0-1.9.056-2.837-.017-.817-.064-.818.385-.771.951.041.5-.236,1.119.739,1.083,1.824-.069,3.655-.069,5.479,0,.811.032.918-.294.867-.958-.044-.568.164-1.194-.836-1.081A23.61,23.61,0,0,1,933.475,213.05Z" transform="translate(-8.252 -8.264)" fill="#e0e1e5"/>
        <path id="Trazado_897132" data-name="Trazado 897132" d="M1124.847,216.291c2.882,0,5.764-.006,8.646,0,1.166,0,1.437.275,1.443,1.458q.017,3.586,0,7.172c-.005,1.211-.3,1.5-1.518,1.5-1.834.005-3.668.022-5.5-.011a.937.937,0,0,0-1.038.64c-.4.927-.889,1.819-1.35,2.72-.162.317-.309.672-.762.657s-.584-.367-.745-.687c-.44-.876-.9-1.743-1.3-2.636a1.029,1.029,0,0,0-1.114-.7c-1.866.041-3.733.022-5.6.012-1.012-.005-1.382-.34-1.39-1.336q-.031-3.733,0-7.466c.008-1.012.345-1.32,1.39-1.323C1118.953,216.285,1121.9,216.291,1124.847,216.291Zm-.175,8.12c2.457,0,4.916-.043,7.371.023.864.024.87-.393.833-1-.034-.556.19-1.136-.818-1.125q-7.272.079-14.546,0c-1.006-.012-.806.548-.825,1.112s-.086,1.043.81,1.017C1119.888,224.365,1122.281,224.411,1124.672,224.411Zm.1-4.1c2.455,0,4.912-.044,7.366.022.979.026.7-.576.74-1.077.041-.556.065-.964-.765-.957q-7.317.064-14.634,0c-.924-.01-.776.487-.789,1.034-.014.58-.074,1.033.815,1.006C1119.921,220.261,1122.345,220.308,1124.768,220.308Z" transform="translate(-165.621 -12.528)" fill="#e0e1e5"/>
        <path id="Trazado_897133" data-name="Trazado 897133" d="M1137.528,382.345c-.029.693-.339,1.08-.957,1.107a.91.91,0,0,1-1.026-.947.892.892,0,0,1,.942-1.019A.942.942,0,0,1,1137.528,382.345Z" transform="translate(-182.443 -145.222)" fill="#070605"/>
        <path id="Trazado_897134" data-name="Trazado 897134" d="M981.717,381.44c.669.028,1.026.376,1.032.969a.991.991,0,1,1-1.032-.969Z" transform="translate(-58.119 -145.186)" fill="#070605"/>
        <path id="Trazado_897135" data-name="Trazado 897135" d="M928.731,225.376c.992-1.734,2.033-3.429,2.94-5.191.458-.89.846-.416,1.351-.165.544.271.9.456.454,1.189-1.365,2.263-2.661,4.569-3.941,6.881-.318.574-.515.612-.95.125-.609-.682-1.27-1.321-1.94-1.944-.355-.33-.412-.546-.038-.932C927.519,224.4,927.5,224.377,928.731,225.376Z" transform="translate(-14.409 -15.242)" fill="#070605"/>
        <path id="Trazado_897136" data-name="Trazado 897136" d="M978.9,243.737c-.882,0-1.767-.041-2.646.013-.675.042-.875-.16-.9-.859-.03-.918.117-1.329,1.192-1.258a49.177,49.177,0,0,0,5.194.01c.9-.037.731.513.707,1s.3,1.178-.707,1.107C980.8,243.685,979.852,243.737,978.9,243.737Z" transform="translate(-53.773 -32.88)" fill="#070605"/>
        <path id="Trazado_897137" data-name="Trazado 897137" d="M979.055,221.36a23.616,23.616,0,0,0,2.64-.02c1-.113.793.513.836,1.081.051.664-.056.99-.867.958-1.824-.071-3.655-.071-5.479,0-.975.037-.7-.582-.739-1.083-.046-.566-.045-1.014.771-.951C977.159,221.416,978.109,221.36,979.055,221.36Z" transform="translate(-53.832 -16.574)" fill="#070605"/>
        <path id="Trazado_897138" data-name="Trazado 897138" d="M1133.155,248.98c-2.391,0-4.784-.047-7.174.024-.9.027-.83-.441-.81-1.017s-.181-1.124.825-1.112q7.272.087,14.546,0c1.007-.011.784.569.817,1.125.037.608.031,1.024-.833,1C1138.071,248.937,1135.612,248.98,1133.155,248.98Z" transform="translate(-174.104 -37.097)" fill="#070605"/>
        <path id="Trazado_897139" data-name="Trazado 897139" d="M1133.252,228.489c-2.423,0-4.847-.047-7.268.025-.889.026-.829-.426-.815-1.006.014-.547-.135-1.043.789-1.034q7.317.076,14.634,0c.829-.007.805.4.764.957-.037.5.24,1.1-.74,1.077C1138.165,228.444,1135.708,228.489,1133.252,228.489Z" transform="translate(-174.105 -20.709)" fill="#070605"/>
      </g>
    </g>
  </g>
</svg>
