<svg id="Grupo_1100287" data-name="Grupo 1100287" xmlns="http://www.w3.org/2000/svg" xmlns:xlink="http://www.w3.org/1999/xlink" width="116.067" height="116.066" viewBox="0 0 116.067 116.066">
  <defs>
    <clipPath id="clip-path">
      <rect id="Rectángulo_402355" data-name="Rectángulo 402355" width="77.082" height="77.082" fill="#fff" stroke="#707070" stroke-width="1"/>
    </clipPath>
  </defs>
  <g id="Grupo_156312" data-name="Grupo 156312" transform="translate(0 0)">
    <path id="Elipse_5845" data-name="Elipse 5845" d="M58.033,0A58.033,58.033,0,1,1,0,58.033,58.033,58.033,0,0,1,58.033,0Z" transform="translate(0)" fill="#ffce73"/>
  </g>
  <g id="Enmascarar_grupo_1098715" data-name="Enmascarar grupo 1098715" transform="translate(19.492 19.492)" clip-path="url(#clip-path)">
    <g id="Grupo_1103966" data-name="Grupo 1103966" transform="translate(1.772 2.658)">
      <g id="Economic_Growth">
        <path id="Trazado_894979" data-name="Trazado 894979" d="M25.884,57.462A26.628,26.628,0,0,1,10.69,28.855l7.426-1.237a1.185,1.185,0,0,1,1.24.627l5.965,11.931a1.145,1.145,0,0,1,.122.516v2.151A2.31,2.31,0,0,0,26.906,45l4.53,1.814.961,3.854a1.163,1.163,0,0,0,2.258-.563l-1.1-4.431a1.164,1.164,0,0,0-.7-.8l-5.084-2.037V40.692a3.461,3.461,0,0,0-.367-1.555L21.437,27.2a3.484,3.484,0,0,0-3.7-1.882l-6.54,1.09c.01-.039.017-.079.028-.118a1.163,1.163,0,1,0-2.246-.6A29.057,29.057,0,0,0,24.909,59.575a1.163,1.163,0,0,0,.974-2.112Z" transform="translate(1.303 4.044)" fill="#7d3a1b"/>
        <path id="Trazado_894980" data-name="Trazado 894980" d="M25.283,9.844a1.162,1.162,0,0,0,1.463.752c.739-.237,1.494-.441,2.255-.612l.053-.01v4a1.163,1.163,0,0,0,.8,1.1l2.383.79a1.177,1.177,0,0,1,.74.741l.524,1.571a1.2,1.2,0,0,1-.023.806l-1.484,3.72a1.182,1.182,0,0,1-.961.73l-7.424.826a2.326,2.326,0,0,0-1.826,3.35l3.582,7.176a2.317,2.317,0,0,0,2.087,1.282h8.966a1.129,1.129,0,0,1,.7.232l3.467,2.6a1.128,1.128,0,0,1,.4.542l.861,2.593a1.163,1.163,0,1,0,2.208-.732l-.864-2.6a3.426,3.426,0,0,0-1.216-1.67L38.516,34.45a3.474,3.474,0,0,0-2.1-.7l-8.973,0-3.575-7.175,7.418-.825a3.511,3.511,0,0,0,2.861-2.167l1.493-3.745a3.542,3.542,0,0,0,.065-2.392l-.524-1.57a3.513,3.513,0,0,0-2.214-2.213l-1.586-.526V9.57a25.54,25.54,0,0,1,9.727.52L40.971,11.3a5.787,5.787,0,0,0,2.146,5.182l3.447,2.757.815,6.526A5.841,5.841,0,0,0,50.264,30.1l4.83,2.761a5.788,5.788,0,0,0,2.877.766c.2,0,.391-.01.587-.03l2.884-.288c.041.4.1.791.128,1.2a1.163,1.163,0,0,0,1.159,1.1l.068,0a1.163,1.163,0,0,0,1.094-1.228c-.048-.827-.137-1.642-.252-2.449h0a29.005,29.005,0,0,0-33.59-24.5c-.009,0-.017,0-.025,0-.191.032-.381.081-.572.118a29.2,29.2,0,0,0-3.413.84,1.179,1.179,0,0,0-.755,1.476ZM61.106,31l-2.78.278a3.476,3.476,0,0,1-2.078-.442l-4.83-2.76a3.5,3.5,0,0,1-1.731-2.6l-.874-7a1.163,1.163,0,0,0-.427-.764l-3.815-3.051a3.472,3.472,0,0,1-1.288-3.11l.091-.82A26.749,26.749,0,0,1,61.106,31Z" transform="translate(3.508 1.14)" fill="#7d3a1b"/>
        <path id="Trazado_894981" data-name="Trazado 894981" d="M27.909,13.955A13.955,13.955,0,1,0,13.955,27.909,13.97,13.97,0,0,0,27.909,13.955Zm-25.583,0A11.629,11.629,0,1,1,13.955,25.583,11.642,11.642,0,0,1,2.326,13.955Z" fill="#7d3a1b"/>
        <path id="Trazado_894982" data-name="Trazado 894982" d="M13.814,21.443V20.222a4.061,4.061,0,0,0-.581-8.081H12.07a1.744,1.744,0,0,1,0-3.489h4.07a1.163,1.163,0,1,0,0-2.326H13.814V5.163a1.163,1.163,0,0,0-2.326,0V6.385a4.061,4.061,0,0,0,.581,8.081h1.163a1.744,1.744,0,1,1,0,3.489H9.163a1.163,1.163,0,0,0,0,2.326h2.326v1.163a1.163,1.163,0,0,0,2.326,0Z" transform="translate(1.303 0.652)" fill="#7d3a1b"/>
        <path id="Trazado_894983" data-name="Trazado 894983" d="M70.175,32.341a1.157,1.157,0,0,0-.938-.335L57.608,33.169a1.163,1.163,0,0,0-.706,1.979l2.666,2.666-8.822,8.822-6.155-6.155a1.162,1.162,0,0,0-1.644,0L24.341,59.087a1.162,1.162,0,0,0,0,1.644l3.148,3.148v4.17a1.163,1.163,0,0,0,1.163,1.163H65.864a1.163,1.163,0,0,0,1.163-1.163V45.273l.341.341a1.163,1.163,0,0,0,1.979-.706L70.51,33.279a1.166,1.166,0,0,0-.335-.938ZM29.814,63.879,40.28,53.414V66.887H29.814ZM43.769,49.925l6.155,6.155a1.162,1.162,0,0,0,1.644,0l2.666-2.666V66.887H42.606v-15.8ZM64.7,66.887h-8.14v-15.8l8.14-8.14Zm2.576-24.652-.59-.59,0,0-1.162-1.162a1.162,1.162,0,0,0-1.644,0l-9.3,9.3,0,0-3.828,3.828-6.155-6.155a1.162,1.162,0,0,0-1.644,0l-2.325,2.325,0,0L28.652,61.754l-1.844-1.844L43.769,42.948,49.924,49.1a1.162,1.162,0,0,0,1.644,0L62.034,38.637a1.162,1.162,0,0,0,0-1.644l-1.753-1.753,7.773-.777Z" transform="translate(3.909 5.212)" fill="#7d3a1b"/>
      </g>
    </g>
  </g>
</svg>
