<svg xmlns="http://www.w3.org/2000/svg" xmlns:xlink="http://www.w3.org/1999/xlink" width="70" height="70" viewBox="0 0 70 70">
  <defs>
    <clipPath id="clip-path">
      <rect id="Rectángulo_406556" data-name="Rectángulo 406556" width="46" height="48" transform="translate(275.75 971.833)" fill="#fff" stroke="#707070" stroke-width="1"/>
    </clipPath>
  </defs>
  <g id="Grupo_1118289" data-name="Grupo 1118289" transform="translate(-610 -6501)">
    <g id="Grupo_1099487" data-name="Grupo 1099487" transform="translate(341 5543)">
      <circle id="Elipse_5614" data-name="Elipse 5614" cx="35" cy="35" r="35" transform="translate(269 958)" fill="#fff"/>
    </g>
    <g id="Enmascarar_grupo_1098781" data-name="Enmascarar grupo 1098781" transform="translate(346.25 5540.167)" clip-path="url(#clip-path)">
      <path id="Trazado_906435" data-name="Trazado 906435" d="M39.618,32.851a5.538,5.538,0,0,1,3.8,5.243v5.518H41.013V38.364a.646.646,0,0,0-1.293,0v5.248H32.4V38.364a.646.646,0,0,0-1.293,0v5.248H28.7V38.094a5.538,5.538,0,0,1,3.8-5.243A5.277,5.277,0,0,0,39.618,32.851ZM36.707,44.887h3.66v15.75h-3.66Zm-1.293,15.75h-3.66V44.887h3.66Zm.646-35.674a3.987,3.987,0,1,1-3.987,3.987A3.984,3.984,0,0,1,36.061,24.964Zm7.445,32.4h.272V53.79a3.7,3.7,0,0,1,2.277-3.406,3.951,3.951,0,0,0,5.279,0,3.7,3.7,0,0,1,2.274,3.406v3.57H54.9V53.79a4.962,4.962,0,0,0-1.33-3.38c.021-.007.04-.018.06-.026a3.951,3.951,0,0,0,5.279,0,3.7,3.7,0,0,1,2.277,3.406v3.57h1.29V53.79a4.972,4.972,0,0,0-1.327-3.38l.057-.026a3.951,3.951,0,0,0,5.279,0,3.7,3.7,0,0,1,2.277,3.406v3.57h.272A1.644,1.644,0,0,1,70.676,59v1.638H41.867V59A1.644,1.644,0,0,1,43.506,57.36ZM63.853,44.777a2.662,2.662,0,1,1-2.662,2.662A2.661,2.661,0,0,1,63.853,44.777Zm-15.158,0a2.662,2.662,0,1,1-2.662,2.662A2.661,2.661,0,0,1,48.694,44.777Zm7.581,0a2.662,2.662,0,1,1-2.665,2.662A2.663,2.663,0,0,1,56.275,44.777Z" transform="translate(249.062 953.033)" fill="#6a4d23" fill-rule="evenodd"/>
    </g>
  </g>
</svg>
