<svg xmlns="http://www.w3.org/2000/svg" xmlns:xlink="http://www.w3.org/1999/xlink" width="121" height="121" viewBox="0 0 121 121">
  <defs>
    <clipPath id="clip-path">
      <rect id="Rectángulo_400938" data-name="Rectángulo 400938" width="121" height="121" transform="translate(0 0)" fill="none"/>
    </clipPath>
    <clipPath id="clip-path-2">
      <rect id="Rectángulo_401073" data-name="Rectángulo 401073" width="92.219" height="41.532" fill="#efb499"/>
    </clipPath>
  </defs>
  <g id="Grupo_1119980" data-name="Grupo 1119980" transform="translate(-388 -4872)">
    <g id="Grupo_1105095" data-name="Grupo 1105095" transform="translate(0.332 -1141)">
      <rect id="Rectángulo_401103" data-name="Rectángulo 401103" width="121" height="121" transform="translate(387.668 6013)" fill="none"/>
      <g id="Grupo_1099348" data-name="Grupo 1099348" transform="translate(387.668 6013)">
        <g id="Grupo_1099282" data-name="Grupo 1099282">
          <g id="Grupo_1099281" data-name="Grupo 1099281" clip-path="url(#clip-path-2)">
            <path id="Trazado_873375" data-name="Trazado 873375" d="M74.8,9.1c-4.139,0-6.28-2.03-8.17-3.821-1.855-1.756-3.452-3.274-6.792-3.274s-4.937,1.517-6.792,3.274C51.161,7.072,49.023,9.1,44.881,9.1s-6.28-2.03-8.169-3.821C34.857,3.525,33.26,2.007,29.92,2.007s-4.937,1.517-6.789,3.274C21.241,7.072,19.1,9.1,14.962,9.1S8.679,7.072,6.789,5.281C4.937,3.525,3.34,2.007,0,2.007V0C4.139,0,6.28,2.033,8.17,3.821c1.855,1.759,3.452,3.274,6.792,3.274S19.9,5.58,21.75,3.824C23.637,2.033,25.781,0,29.92,0s6.283,2.033,8.17,3.821c1.855,1.759,3.452,3.274,6.792,3.274s4.937-1.514,6.792-3.274C53.56,2.033,55.7,0,59.843,0s6.283,2.033,8.17,3.821C69.867,5.58,71.464,7.094,74.8,7.094S79.742,5.58,81.6,3.821C83.483,2.033,85.624,0,89.766,0V2.007c-3.34,0-4.937,1.517-6.792,3.274C81.084,7.072,78.943,9.1,74.8,9.1" transform="translate(2.453 32.43)" fill="#efb499"/>
            <path id="Trazado_873376" data-name="Trazado 873376" d="M74.8,9.1c-4.139,0-6.283-2.03-8.17-3.824-1.855-1.756-3.452-3.27-6.792-3.27s-4.937,1.514-6.792,3.27C51.164,7.072,49.023,9.1,44.881,9.1s-6.283-2.03-8.17-3.824c-1.855-1.756-3.452-3.27-6.792-3.27s-4.937,1.517-6.789,3.27C21.241,7.072,19.1,9.1,14.962,9.1S8.679,7.072,6.789,5.278C4.937,3.522,3.34,2.007,0,2.007V0C4.139,0,6.283,2.03,8.17,3.821c1.855,1.759,3.452,3.274,6.792,3.274S19.9,5.58,21.75,3.821C23.637,2.03,25.781,0,29.92,0S36.2,2.03,38.093,3.821c1.852,1.759,3.449,3.274,6.789,3.274s4.937-1.514,6.792-3.274C53.56,2.03,55.7,0,59.843,0s6.283,2.03,8.17,3.821C69.867,5.58,71.464,7.094,74.8,7.094S79.742,5.58,81.6,3.821C83.486,2.03,85.627,0,89.769,0V2.007c-3.34,0-4.94,1.517-6.8,3.27C81.084,7.072,78.943,9.1,74.8,9.1" transform="translate(1.635 21.62)" fill="#efb499"/>
            <path id="Trazado_873377" data-name="Trazado 873377" d="M74.8,9.1c-4.139,0-6.283-2.03-8.169-3.824-1.855-1.756-3.452-3.27-6.792-3.27s-4.937,1.514-6.792,3.27C51.164,7.072,49.02,9.1,44.881,9.1s-6.283-2.03-8.17-3.824c-1.855-1.756-3.452-3.27-6.792-3.27s-4.937,1.517-6.789,3.27C21.241,7.072,19.1,9.1,14.962,9.1S8.678,7.072,6.789,5.278C4.937,3.522,3.34,2.007,0,2.007V0C4.139,0,6.283,2.03,8.169,3.821c1.851,1.759,3.452,3.274,6.792,3.274S19.9,5.58,21.75,3.821C23.637,2.03,25.781,0,29.92,0S36.2,2.03,38.093,3.821c1.852,1.759,3.449,3.274,6.789,3.274s4.937-1.514,6.792-3.274C53.56,2.03,55.7,0,59.843,0s6.283,2.03,8.17,3.821C69.867,5.58,71.464,7.094,74.8,7.094S79.742,5.58,81.6,3.821C83.486,2.03,85.624,0,89.769,0V2.007c-3.34,0-4.941,1.517-6.8,3.27C81.084,7.072,78.943,9.1,74.8,9.1" transform="translate(0.818 10.81)" fill="#efb499"/>
            <path id="Trazado_873378" data-name="Trazado 873378" d="M74.8,9.1c-4.139,0-6.28-2.03-8.17-3.821-1.855-1.756-3.452-3.27-6.792-3.27s-4.937,1.514-6.789,3.27C51.164,7.069,49.023,9.1,44.881,9.1s-6.28-2.03-8.169-3.821c-1.855-1.756-3.452-3.27-6.792-3.27s-4.937,1.514-6.789,3.267C21.245,7.069,19.1,9.1,14.962,9.1S8.678,7.069,6.789,5.278C4.937,3.522,3.34,2.007,0,2.007V0C4.139,0,6.283,2.03,8.17,3.821c1.855,1.756,3.452,3.27,6.792,3.27S19.9,5.577,21.75,3.821C23.64,2.03,25.781,0,29.92,0s6.28,2.03,8.173,3.821c1.852,1.756,3.449,3.27,6.789,3.27s4.937-1.514,6.792-3.27C53.563,2.03,55.7,0,59.843,0s6.28,2.03,8.17,3.821c1.855,1.756,3.452,3.27,6.792,3.27s4.937-1.514,6.792-3.27C83.486,2.03,85.627,0,89.769,0V2.007c-3.344,0-4.941,1.514-6.8,3.27C81.084,7.069,78.943,9.1,74.8,9.1" transform="translate(0 0.003)" fill="#efb499"/>
          </g>
        </g>
      </g>
      <circle id="Elipse_11504" data-name="Elipse 11504" cx="50.5" cy="50.5" r="50.5" transform="translate(402.668 6031)" fill="#ffce73"/>
      <circle id="Elipse_11503" data-name="Elipse 11503" cx="52.5" cy="52.5" r="52.5" transform="translate(395.668 6021)" fill="#f3f9ff"/>
    </g>
    <g id="Grupo_1105098" data-name="Grupo 1105098" transform="translate(414.941 4897.804)">
      <rect id="Rectángulo_401104" data-name="Rectángulo 401104" width="68" height="69" transform="translate(0.059 -0.804)" fill="none"/>
      <g id="Grupo_1105111" data-name="Grupo 1105111" transform="translate(-831.347 -1054.506)">
        <path id="Trazado_897215" data-name="Trazado 897215" d="M839.349,1076.126a5.956,5.956,0,0,1-3.751-4.99,5.388,5.388,0,0,1,9.044-4.38c.557.533.739.565,1.2-.115,5.49-8.083,13.188-11.781,22.857-10.777,7.3.758,13.028,4.5,17.114,10.642.422.635.61.922,1.33.216a5.257,5.257,0,0,1,6.116-.8,5.437,5.437,0,0,1,2.874,5.383,5.753,5.753,0,0,1-4.154,4.821c1.573,0,3.147,0,4.72,0,1.341,0,1.622.29,1.623,1.661q.005,5.895,0,11.789c0,1.391-.255,1.7-1.6,1.669-.672-.018-.859.212-.907.827-.221,2.873-.5,5.743-.706,8.617-.071.985-.491,1.422-1.488,1.407-1.946-.03-3.894-.02-5.841,0a1.2,1.2,0,0,1-1.383-1.278c-.206-2.65-.445-5.3-.693-8.2-.4.532-.684.914-.978,1.285a23.511,23.511,0,0,1-16.941,9.2c-1.4.126-.713,1.02-.828,1.606-.176.9.549.59.978.628.358.031.721,0,1.081.011a1.057,1.057,0,0,1,1.162,1.137c.01,3.353.074,6.708-.032,10.058a4.211,4.211,0,0,1-4.352,3.939,4.264,4.264,0,0,1-4.24-4.182c-.053-3.208-.012-6.417-.02-9.626,0-.89.409-1.342,1.308-1.331.18,0,.361,0,.541,0,1.368,0,1.745-.529,1.405-1.857-.132-.513-.5-.312-.772-.337a24.024,24.024,0,0,1-13.366-5.47,25.468,25.468,0,0,1-4.616-5.12c-.181,2.028-.347,3.865-.508,5.7-.075.861-.152,1.723-.2,2.586a1.157,1.157,0,0,1-1.3,1.248c-2.019,0-4.038-.008-6.057,0-.9,0-1.278-.447-1.342-1.32-.207-2.8-.465-5.6-.667-8.4-.058-.8-.257-1.239-1.2-1.119s-1.359-.433-1.356-1.371q.018-6.165,0-12.33c0-1,.44-1.444,1.439-1.427C836.346,1076.145,837.848,1076.126,839.349,1076.126Zm51.368-8.621a3.9,3.9,0,0,0-.634.057c-1.923.487-2.585,1.723-1.91,3.534a6.593,6.593,0,0,1,.414,1.211c.2,1.24,1.017,1.606,2.128,1.613a3.208,3.208,0,1,0,0-6.415Zm-49.77,0a3.206,3.206,0,1,0,0,6.412c1.172.031,2-.361,2.225-1.651a4.81,4.81,0,0,1,.532-1.517c.617-1.094.106-1.841-.681-2.516A2.8,2.8,0,0,0,840.947,1067.508Zm49.771,32.385c.468.012.94-.011,1.4.045.7.084.945-.215.994-.894.2-2.8.453-5.6.666-8.4.092-1.218.326-1.5,1.579-1.517.58-.006.825-.124.819-.77q-.045-4.651,0-9.3c.006-.634-.218-.794-.811-.778-1.549.044-3.1.035-4.649.047-.846-.194-1.078.135-1.064.991a22.762,22.762,0,0,1-1.909,9.433,1.459,1.459,0,0,0-.209.918c.523,2.686.534,5.427.807,8.14C888.563,1099.98,888.483,1099.988,890.717,1099.892Zm-49.769-21.572c-1.514-.01-3.029.014-4.542-.044-.668-.025-.852.169-.844.84.037,2.993.042,5.986,0,8.979-.011.771.129,1.126.985,1.022a1.131,1.131,0,0,1,1.4,1.133c.22,2.512.46,5.023.641,7.538.158,2.2.128,2.2,2.362,2.1.287.012.574.033.862.034,1.5.009,1.453,0,1.561-1.526.161-2.295.445-4.581.559-6.877.046-.937.5-1.861.069-2.835a21.911,21.911,0,0,1-1.908-9.324C842.106,1078.454,841.862,1078.088,840.948,1078.321Zm46.561,1.106a21.641,21.641,0,1,0-21.619,21.585A21.673,21.673,0,0,0,887.509,1079.426Zm-19.455,32.75c0-1.226-.045-2.454.016-3.677.039-.774-.136-1.125-.992-1.038a17.575,17.575,0,0,1-2.592.046c-.648-.03-.777.239-.771.821.025,2.56-.005,5.12.018,7.68a2.206,2.206,0,0,0,2.115,2.283,2.285,2.285,0,0,0,2.2-2.33C868.069,1114.7,868.054,1113.438,868.054,1112.176Z" fill="#050506"/>
        <path id="Trazado_897216" data-name="Trazado 897216" d="M926.666,1086.759a21.641,21.641,0,1,1-21.5-21.7A21.674,21.674,0,0,1,926.666,1086.759Zm-36.351-10.878-.218.242-.43.617a.415.415,0,0,0-.247.416l0,.008-.156.266.009.01a14.086,14.086,0,0,0-2.178,4.893c-.484.184-1.143-.249-1.487.279a1.313,1.313,0,0,0,1.053,1.966q-.009,1.046-.018,2.091c-.872-.087-1.127.25-1.091,1.162a19.64,19.64,0,0,0,12.8,17.2c.8.284,1.092.075,1.292-.615l1.1.027a1.556,1.556,0,0,0,1.483.652q2.789-.031,5.58,0a1.566,1.566,0,0,0,1.487-.642,6.185,6.185,0,0,0,.951-.133,17.8,17.8,0,0,0,9.42-6.493,14.893,14.893,0,0,0,3.11-6.778c.39-.009.779-.015,1.169-.029.2-.008.406.008.525-.245a1.336,1.336,0,0,0-1.094-1.961q.015-1.042.029-2.084c1.419.181,1.13-.82,1.042-1.582-.934-8.071-5.12-13.678-12.682-16.75-.8-.325-1.172-.191-1.375.6a14.721,14.721,0,0,0-3.547-.456,10.849,10.849,0,0,0-3.953-.005,15.848,15.848,0,0,0-9.222,3.7c-1.226.948-2.578,1.852-3.144,3.435l0,0-.221.222Z" transform="translate(-39.157 -7.333)" fill="#ac7104"/>
        <path id="Trazado_897217" data-name="Trazado 897217" d="M848.743,1181.577c-2.235.093-2.2.091-2.362-2.1-.181-2.515-.422-5.026-.641-7.538a1.13,1.13,0,0,0-1.4-1.133c-.856.1-1-.251-.985-1.022.044-2.992.039-5.986,0-8.979-.008-.67.176-.865.844-.84,1.512.058,3.027.034,4.542.044Q848.744,1170.791,848.743,1181.577Z" transform="translate(-7.795 -81.684)" fill="#efb499"/>
        <path id="Trazado_897218" data-name="Trazado 897218" d="M1098.114,1160c1.55-.012,3.1,0,4.649-.047.594-.017.818.143.811.778q-.044,4.651,0,9.3c.006.646-.239.764-.819.77-1.253.014-1.486.3-1.579,1.517-.213,2.8-.465,5.6-.666,8.4-.049.679-.292.979-.995.894-.463-.055-.935-.032-1.4-.045Q1098.114,1170.785,1098.114,1160Z" transform="translate(-207.396 -81.678)" fill="#ffe9df"/>
        <path id="Trazado_897219" data-name="Trazado 897219" d="M1086.536,1159.979q0,10.785,0,21.571c-2.235.1-2.155.088-2.375-2.089-.274-2.713-.284-5.454-.807-8.14a1.459,1.459,0,0,1,.209-.918,22.762,22.762,0,0,0,1.909-9.433C1085.458,1160.114,1085.69,1159.785,1086.536,1159.979Z" transform="translate(-195.818 -81.658)" fill="#efb499"/>
        <path id="Trazado_897220" data-name="Trazado 897220" d="M868.242,1181.5q0-10.786,0-21.572c.913-.233,1.157.134,1.142,1.044a21.909,21.909,0,0,0,1.909,9.324c.431.974-.023,1.9-.07,2.835-.114,2.3-.4,4.583-.559,6.877-.107,1.531-.065,1.535-1.561,1.526C868.816,1181.53,868.529,1181.509,868.242,1181.5Z" transform="translate(-27.294 -81.604)" fill="#fecab2"/>
        <path id="Trazado_897221" data-name="Trazado 897221" d="M977.736,1299.434c0,1.262.015,2.524,0,3.786a2.285,2.285,0,0,1-2.2,2.33,2.206,2.206,0,0,1-2.115-2.283c-.024-2.56.007-5.12-.018-7.68-.006-.583.123-.851.771-.821a17.557,17.557,0,0,0,2.592-.046c.856-.087,1.031.263.992,1.037C977.691,1296.979,977.736,1298.208,977.736,1299.434Z" transform="translate(-109.682 -187.258)" fill="#ac7104"/>
        <path id="Trazado_897222" data-name="Trazado 897222" d="M856.622,1116.641a3.206,3.206,0,1,1,0-6.412Q856.623,1113.435,856.622,1116.641Z" transform="translate(-15.675 -42.721)" fill="#efb499"/>
        <path id="Trazado_897223" data-name="Trazado 897223" d="M1098.109,1110.215a3.208,3.208,0,1,1,0,6.415Q1098.109,1113.423,1098.109,1110.215Z" transform="translate(-207.392 -42.71)" fill="#ffe9df"/>
        <path id="Trazado_897224" data-name="Trazado 897224" d="M868.235,1116.615q0-3.206,0-6.412a2.8,2.8,0,0,1,2.076.727c.787.675,1.3,1.422.681,2.516a4.8,4.8,0,0,0-.532,1.517C870.237,1116.254,869.407,1116.646,868.235,1116.615Z" transform="translate(-27.288 -42.695)" fill="#ffe9df"/>
        <path id="Trazado_897225" data-name="Trazado 897225" d="M1087.977,1110.215q0,3.207,0,6.415c-1.111-.007-1.93-.372-2.129-1.613a6.594,6.594,0,0,0-.414-1.211c-.675-1.812-.013-3.047,1.91-3.534A3.927,3.927,0,0,1,1087.977,1110.215Z" transform="translate(-197.26 -42.71)" fill="#efb499"/>
        <path id="Trazado_897226" data-name="Trazado 897226" d="M1006.378,1103.547a14.892,14.892,0,0,1-3.11,6.779,17.8,17.8,0,0,1-9.42,6.493,6.157,6.157,0,0,1-.95.133q.4-4.678.8-9.355c.041-.48.084-.851.783-.852,1.536,0,1.713-.238,1.713-1.768q0-5.832,0-11.665c0-1.416-.273-1.679-1.712-1.682-1.465,0-2.93,0-4.4,0a5.978,5.978,0,0,0,3.745-4.019c.718-2.748-.43-4.942-3.386-6.57a14.75,14.75,0,0,1,3.546.456c-.363.889.017,1.218.869,1.572,6.734,2.8,10.412,7.887,11.024,15.138.075.893.384,1.08,1.123,1.024q-.015,1.042-.029,2.084c-.307.231-1.036-.274-.994.4C1006.02,1102.32,1005.449,1103.124,1006.378,1103.547Z" transform="translate(-122.757 -19.829)" fill="#fef7eb"/>
        <path id="Trazado_897227" data-name="Trazado 897227" d="M957.763,1080.452c2.956,1.628,4.1,3.822,3.386,6.57a5.978,5.978,0,0,1-3.745,4.019c1.465,0,2.931,0,4.4,0,1.44,0,1.711.267,1.712,1.682q.006,5.832,0,11.665c0,1.53-.178,1.764-1.714,1.768-.7,0-.742.372-.783.852q-.4,4.677-.8,9.355a1.567,1.567,0,0,1-1.487.642q-2.789-.03-5.58,0a1.557,1.557,0,0,1-1.483-.652q-.154-1.626-.308-3.252c-.165-2.045-.336-4.09-.49-6.136-.04-.536-.179-.809-.825-.807-1.455,0-1.666-.255-1.667-1.712q0-5.84,0-11.681c0-1.482.253-1.722,1.781-1.725q2.068,0,4.137,0a6.007,6.007,0,0,1-3.763-6.062,6.147,6.147,0,0,1,1.85-3.441c.449-.405,1.095-.545,1.43-1.091A10.847,10.847,0,0,1,957.763,1080.452Zm-7.23,18.1c0,1.548.034,3.1-.016,4.645-.021.656.141.858.823.84,1.215-.032,1.485.307,1.577,1.508.219,2.87.477,5.737.687,8.608.042.574.277.716.812.694,1.007-.042,2.018-.059,3.024-.009.625.03.789-.216.831-.79.207-2.8.465-5.594.675-8.392.1-1.371.3-1.625,1.671-1.637.537,0,.744-.1.738-.7q-.046-4.7,0-9.4c0-.561-.148-.727-.717-.723q-4.7.034-9.4-.013c-.572-.006-.729.164-.716.724C950.557,1095.459,950.533,1097.008,950.533,1098.556Zm5.375-9.694a3.237,3.237,0,1,0-3.2-3.258A3.274,3.274,0,0,0,955.908,1088.862Z" transform="translate(-90.075 -19.241)" fill="#050506"/>
        <path id="Trazado_897228" data-name="Trazado 897228" d="M914.677,1081.12c-.336.547-.981.686-1.43,1.091a6.147,6.147,0,0,0-1.85,3.441c-1.164.065-1.5,1.118-2.122,1.81a17.29,17.29,0,0,0-4.335,10.663,17.9,17.9,0,0,0,3.732,12.3,10.12,10.12,0,0,0,3.552,3.349l.308,3.252-1.1-.026c.364-.875.03-1.229-.843-1.591-6.737-2.788-10.42-7.876-11.039-15.127-.076-.891-.38-1.088-1.124-1.031q.009-1.046.018-2.092c.353-.194,1.177.3,1.024-.59-.1-.561.624-1.482-.59-1.655a14.085,14.085,0,0,1,2.178-4.893,3.331,3.331,0,0,1-.1.634c-.185.512-.243,1.035.228,1.376a1.238,1.238,0,0,0,1.5-.2,4.67,4.67,0,0,0,1.555-1.759c.362-.74.893-1.6.2-2.287s-1.376.089-2.017.43a.487.487,0,0,1-.1.029c.566-1.583,1.917-2.487,3.144-3.435A15.848,15.848,0,0,1,914.677,1081.12Zm-11.729,12.794a1.068,1.068,0,0,0-1.017-1.068.991.991,0,0,0-1.12,1.045.942.942,0,0,0,.977,1.058A1.055,1.055,0,0,0,902.947,1093.914Z" transform="translate(-50.942 -19.915)" fill="#feebcf"/>
        <path id="Trazado_897229" data-name="Trazado 897229" d="M1020.644,1098.222c-.739.056-1.048-.131-1.123-1.024-.612-7.252-4.29-12.343-11.024-15.139-.852-.354-1.232-.683-.868-1.572.2-.79.575-.923,1.375-.6,7.562,3.073,11.748,8.679,12.682,16.75C1021.774,1097.4,1022.063,1098.4,1020.644,1098.222Z" transform="translate(-136.394 -18.822)" fill="#050506"/>
        <path id="Trazado_897230" data-name="Trazado 897230" d="M894.466,1164.821c.744-.057,1.048.141,1.124,1.031.619,7.251,4.3,12.339,11.039,15.127.873.361,1.206.715.843,1.59-.2.69-.5.9-1.292.615a19.64,19.64,0,0,1-12.8-17.2C893.339,1165.07,893.595,1164.733,894.466,1164.821Z" transform="translate(-46.983 -85.483)" fill="#050506"/>
        <path id="Trazado_897231" data-name="Trazado 897231" d="M910.966,1111.423a.488.488,0,0,0,.1-.029c.641-.342,1.33-1.1,2.017-.43s.166,1.547-.2,2.287a4.668,4.668,0,0,1-1.555,1.759,1.238,1.238,0,0,1-1.5.2c-.471-.342-.413-.865-.228-1.377a3.336,3.336,0,0,0,.1-.634l-.009-.01.156-.266,0-.008a.4.4,0,0,0,.247-.416l.43-.617.218-.242-.005.006.221-.222Z" transform="translate(-59.597 -43.086)" fill="#f5f5f5"/>
        <path id="Trazado_897232" data-name="Trazado 897232" d="M894.436,1144.84c1.214.173.493,1.094.59,1.655.153.886-.671.4-1.024.59a1.312,1.312,0,0,1-1.053-1.965C893.294,1144.591,893.952,1145.024,894.436,1144.84Z" transform="translate(-46.501 -69.839)" fill="#050506"/>
        <path id="Trazado_897233" data-name="Trazado 897233" d="M1063.4,1177.017c-.929-.424-.357-1.228-.394-1.83-.041-.679.688-.174.994-.4a1.336,1.336,0,0,1,1.093,1.961c-.119.253-.32.237-.525.245C1064.178,1177,1063.788,1177.008,1063.4,1177.017Z" transform="translate(-179.778 -93.298)" fill="#050506"/>
        <path id="Trazado_897234" data-name="Trazado 897234" d="M911.516,1119a.4.4,0,0,1-.247.416A.415.415,0,0,1,911.516,1119Z" transform="translate(-61.005 -49.597)" fill="#70b2a5"/>
        <path id="Trazado_897235" data-name="Trazado 897235" d="M915.6,1114.037l-.221.222Z" transform="translate(-64.221 -45.705)" fill="#70b2a5"/>
        <path id="Trazado_897236" data-name="Trazado 897236" d="M914.612,1115.037l-.218.242Z" transform="translate(-63.453 -46.488)" fill="#70b2a5"/>
        <path id="Trazado_897237" data-name="Trazado 897237" d="M910.686,1120.961l-.156.266Z" transform="translate(-60.426 -51.13)" fill="#70b2a5"/>
        <path id="Trazado_897238" data-name="Trazado 897238" d="M958.287,1145.335c0-1.548.023-3.1-.012-4.645-.013-.56.144-.73.716-.724q4.7.047,9.4.013c.569,0,.722.162.717.723q-.038,4.7,0,9.4c.006.6-.2.7-.738.7-1.375.011-1.569.266-1.671,1.637-.209,2.8-.468,5.594-.675,8.392-.042.575-.207.821-.831.79-1.006-.049-2.017-.032-3.024.01-.535.022-.77-.12-.812-.694-.211-2.871-.468-5.738-.687-8.608-.092-1.2-.362-1.54-1.577-1.508-.682.018-.844-.184-.823-.84C958.321,1148.433,958.286,1146.884,958.287,1145.335Z" transform="translate(-97.829 -66.02)" fill="#ffce73"/>
        <path id="Trazado_897239" data-name="Trazado 897239" d="M935.632,1130.176a10.12,10.12,0,0,1-3.552-3.349,17.9,17.9,0,0,1-3.732-12.3,17.29,17.29,0,0,1,4.335-10.664c.622-.692.958-1.745,2.122-1.81a6.007,6.007,0,0,0,3.763,6.062q-2.068,0-4.137,0c-1.529,0-1.78.243-1.781,1.725q0,5.841,0,11.681c0,1.457.212,1.717,1.667,1.712.646,0,.785.271.825.807C935.3,1126.086,935.467,1128.13,935.632,1130.176Z" transform="translate(-74.35 -36.315)" fill="#fef7eb"/>
        <path id="Trazado_897240" data-name="Trazado 897240" d="M971.583,1096.568a3.237,3.237,0,1,1,3.262-3.21A3.259,3.259,0,0,1,971.583,1096.568Z" transform="translate(-105.75 -26.947)" fill="#ffce73"/>
        <path id="Trazado_897241" data-name="Trazado 897241" d="M911.576,1136.34a1.055,1.055,0,0,1-1.16,1.035.941.941,0,0,1-.977-1.058.991.991,0,0,1,1.12-1.045A1.068,1.068,0,0,1,911.576,1136.34Z" transform="translate(-59.571 -62.34)" fill="#f5f5f5"/>
      </g>
    </g>
  </g>
</svg>
