<svg xmlns="http://www.w3.org/2000/svg" xmlns:xlink="http://www.w3.org/1999/xlink" width="145" height="145" viewBox="0 0 145 145">
  <defs>
    <clipPath id="clip-path">
      <rect id="Rectángulo_400938" data-name="Rectángulo 400938" width="145" height="145" transform="translate(0 -0.281)" fill="none"/>
    </clipPath>
    <clipPath id="clip-path-2">
      <rect id="Rectángulo_401073" data-name="Rectángulo 401073" width="110.228" height="49.642" fill="#7d3a1b"/>
    </clipPath>
    <clipPath id="clip-path-3">
      <rect id="Rectángulo_405841" data-name="Rectángulo 405841" width="88" height="88" transform="translate(194 9572.789)" fill="#fff" stroke="#707070" stroke-width="1"/>
    </clipPath>
  </defs>
  <g id="Grupo_1119741" data-name="Grupo 1119741" transform="translate(-175 -9540.719)">
    <g id="Grupo_1099404" data-name="Grupo 1099404" transform="translate(175 9541)">
      <g id="Grupo_1099379" data-name="Grupo 1099379" transform="translate(0 0)">
        <rect id="Rectángulo_401103" data-name="Rectángulo 401103" width="145" height="145" transform="translate(0 -0.281)" fill="none"/>
        <g id="Grupo_1099348" data-name="Grupo 1099348" transform="translate(0.045 0.045)">
          <g id="Grupo_1099282" data-name="Grupo 1099282">
            <g id="Grupo_1099281" data-name="Grupo 1099281" clip-path="url(#clip-path-2)">
              <path id="Trazado_873375" data-name="Trazado 873375" d="M89.413,10.879c-4.947,0-7.506-2.426-9.765-4.567C77.431,4.213,75.522,2.4,71.529,2.4s-5.9,1.814-8.118,3.913c-2.259,2.141-4.814,4.567-9.765,4.567S46.14,8.453,43.881,6.312C41.664,4.213,39.755,2.4,35.763,2.4s-5.9,1.814-8.114,3.913c-2.259,2.141-4.818,4.567-9.765,4.567s-7.51-2.426-9.769-4.567C5.9,4.213,3.993,2.4,0,2.4V0C4.947,0,7.506,2.43,9.765,4.567c2.217,2.1,4.126,3.913,8.118,3.913S23.785,6.67,26,4.571C28.253,2.43,30.816,0,35.763,0s7.51,2.43,9.765,4.567c2.217,2.1,4.126,3.913,8.118,3.913s5.9-1.81,8.118-3.913C64.019,2.43,66.582,0,71.529,0s7.51,2.43,9.765,4.567c2.217,2.1,4.126,3.913,8.118,3.913s5.9-1.81,8.118-3.913C99.786,2.43,102.345,0,107.3,0V2.4c-3.993,0-5.9,1.814-8.118,3.913-2.259,2.141-4.818,4.567-9.765,4.567" transform="translate(2.932 38.763)" fill="#7d3a1b"/>
              <path id="Trazado_873376" data-name="Trazado 873376" d="M89.413,10.879c-4.947,0-7.51-2.426-9.765-4.571C77.431,4.209,75.522,2.4,71.529,2.4s-5.9,1.81-8.118,3.909c-2.255,2.145-4.814,4.571-9.765,4.571s-7.51-2.426-9.765-4.571C41.664,4.209,39.755,2.4,35.763,2.4s-5.9,1.814-8.115,3.909c-2.259,2.145-4.818,4.571-9.765,4.571s-7.51-2.426-9.769-4.571C5.9,4.209,3.993,2.4,0,2.4V0C4.947,0,7.51,2.426,9.765,4.567c2.217,2.1,4.126,3.913,8.118,3.913S23.785,6.67,26,4.567C28.253,2.426,30.816,0,35.763,0s7.51,2.426,9.769,4.567c2.213,2.1,4.122,3.913,8.115,3.913s5.9-1.81,8.118-3.913C64.019,2.426,66.582,0,71.529,0s7.51,2.426,9.765,4.567c2.217,2.1,4.126,3.913,8.118,3.913s5.9-1.81,8.118-3.913C99.79,2.426,102.349,0,107.3,0V2.4c-3.993,0-5.905,1.814-8.122,3.909-2.259,2.145-4.818,4.571-9.765,4.571" transform="translate(1.955 25.842)" fill="#7d3a1b"/>
              <path id="Trazado_873377" data-name="Trazado 873377" d="M89.412,10.879c-4.947,0-7.51-2.426-9.765-4.571C77.431,4.209,75.522,2.4,71.529,2.4s-5.9,1.81-8.118,3.909c-2.255,2.145-4.818,4.571-9.765,4.571s-7.51-2.426-9.765-4.571C41.664,4.209,39.755,2.4,35.763,2.4s-5.9,1.814-8.115,3.909c-2.259,2.145-4.818,4.571-9.765,4.571s-7.51-2.426-9.769-4.571C5.9,4.209,3.993,2.4,0,2.4V0C4.947,0,7.51,2.426,9.765,4.567c2.213,2.1,4.126,3.913,8.118,3.913S23.785,6.67,26,4.567C28.253,2.426,30.816,0,35.763,0s7.51,2.426,9.769,4.567c2.213,2.1,4.122,3.913,8.115,3.913s5.9-1.81,8.118-3.913C64.019,2.426,66.582,0,71.529,0s7.51,2.426,9.765,4.567c2.217,2.1,4.126,3.913,8.118,3.913s5.9-1.81,8.118-3.913C99.79,2.426,102.345,0,107.3,0V2.4c-3.993,0-5.905,1.814-8.122,3.909-2.259,2.145-4.818,4.571-9.765,4.571" transform="translate(0.977 12.921)" fill="#7d3a1b"/>
              <path id="Trazado_873378" data-name="Trazado 873378" d="M89.413,10.875c-4.947,0-7.506-2.426-9.765-4.567C77.431,4.209,75.522,2.4,71.529,2.4s-5.9,1.81-8.115,3.909c-2.259,2.141-4.818,4.567-9.769,4.567S46.14,8.449,43.881,6.308C41.664,4.209,39.755,2.4,35.763,2.4s-5.9,1.81-8.115,3.905c-2.255,2.145-4.818,4.571-9.765,4.571s-7.51-2.426-9.769-4.567C5.9,4.209,3.993,2.4,0,2.4V0C4.947,0,7.51,2.426,9.765,4.567c2.217,2.1,4.126,3.909,8.118,3.909s5.9-1.81,8.115-3.909C28.257,2.426,30.816,0,35.763,0s7.506,2.426,9.769,4.567c2.213,2.1,4.122,3.909,8.115,3.909s5.9-1.81,8.118-3.909C64.023,2.426,66.582,0,71.529,0s7.506,2.426,9.765,4.567c2.217,2.1,4.126,3.909,8.118,3.909s5.9-1.81,8.118-3.909C99.79,2.426,102.349,0,107.3,0V2.4c-4,0-5.905,1.81-8.122,3.909-2.259,2.141-4.818,4.567-9.765,4.567" transform="translate(0 0.004)" fill="#7d3a1b"/>
            </g>
          </g>
        </g>
        <path id="Trazado_873425" data-name="Trazado 873425" d="M60.362,0A60.362,60.362,0,1,1,0,60.362,60.362,60.362,0,0,1,60.362,0Z" transform="translate(17.974 21.56)" fill="#efb499"/>
        <circle id="Elipse_11503" data-name="Elipse 11503" cx="63" cy="63" r="63" transform="translate(9 9.719)" fill="#fef7eb"/>
      </g>
    </g>
    <g id="Enmascarar_grupo_1098747" data-name="Enmascarar grupo 1098747" transform="translate(13)" clip-path="url(#clip-path-3)">
      <g id="Grupo_1119759" data-name="Grupo 1119759" transform="translate(-3231.83 6067.979)">
        <path id="Trazado_906760" data-name="Trazado 906760" d="M3602.762,3614.254c.346.408.52.61.69.814a4.493,4.493,0,0,1-.161,6.338q-3.245,3.364-6.607,6.613c-.851.826-.91,1.5,0,2.278a10.8,10.8,0,0,1,1.341,1.377,1.67,1.67,0,0,1-.149,2.462,1.63,1.63,0,0,1-2.363.094,15.946,15.946,0,0,1-2.526-2.694c-1.3-1.89-.938-4.036.848-5.847q3.234-3.278,6.516-6.509c.727-.718.87-1.359-.49-2.393a8.065,8.065,0,0,1-.951,1.514q-12.912,13.041-25.844,26.06a4.051,4.051,0,0,1-3.273,1.364c-1.875-.081-3.758,0-5.636-.028-1.683-.027-2.332-.665-2.358-2.34-.033-2.153-.08-4.312.034-6.46a3.4,3.4,0,0,1,.881-2.044q17.6-17.776,35.282-35.475a4.489,4.489,0,0,1,6.624-.046q1.7,1.6,3.309,3.3a4.526,4.526,0,0,1-.019,6.641C3606.255,3610.968,3604.506,3612.574,3602.762,3614.254Zm-13.559-.789a.326.326,0,0,0-.091.054q-11.528,11.566-23.048,23.14c-.216.217-.493.509-.5.774-.049,1.488-.023,2.979-.023,4.536a32.719,32.719,0,0,0,3.611-.036,3.357,3.357,0,0,0,1.878-.812q11.029-11,21.981-22.079c.314-.316.6-.656.918-1Zm2.8-3.028,4.736,4.795c2.835-2.823,5.736-5.67,8.558-8.594a1.574,1.574,0,0,0-.1-1.5c-.909-1.083-1.979-2.03-2.978-3.039a1.093,1.093,0,0,0-1.774.007C3597.615,3604.909,3594.776,3607.7,3592,3610.438Z" transform="translate(-97.287 -67.489)" fill="#6a4d23"/>
        <path id="Trazado_906761" data-name="Trazado 906761" d="M3435.122,3686.746c-5.861-6.426-4.193-14.474.273-18.6a12.884,12.884,0,0,1,17.988,18.441,31.3,31.3,0,0,1,3.972,2.275,8.059,8.059,0,0,1,3.221,6.264c.069,1.783.085,3.571.034,5.355a4.324,4.324,0,0,1-4.531,4.49q-11.881.075-23.762.006a4.385,4.385,0,0,1-4.637-4.287,30.8,30.8,0,0,1,.049-5.621,8.93,8.93,0,0,1,6.774-8.083C3434.673,3686.938,3434.835,3686.861,3435.122,3686.746Zm8.985-18.381a9.168,9.168,0,1,0,9.225,9.136A9.237,9.237,0,0,0,3444.107,3668.365Zm9.246,32.995c.823,0,1.458-.036,2.088.008,1.117.077,1.592-.391,1.546-1.524-.055-1.326.009-2.655-.02-3.982a5.376,5.376,0,0,0-5.355-5.477q-7.415-.1-14.833,0a5.391,5.391,0,0,0-5.415,5.422c-.026.823-.017,1.648-.008,2.472.036,3.123-.557,3.191,3.255,3.05.079,0,.156-.073.365-.178,0-1.573-.015-3.21,0-4.847.017-1.4.747-2.269,1.85-2.268,1.128,0,1.778.8,1.8,2.28.021,1.635,0,3.271,0,4.948h10.989c0-1.7-.021-3.3.006-4.9.025-1.444.706-2.285,1.811-2.325,1.16-.043,1.891.827,1.912,2.338C3453.369,3697.969,3453.353,3699.566,3453.353,3701.359Z" transform="translate(0 -115.926)" fill="#6a4d23"/>
        <path id="Trazado_906762" data-name="Trazado 906762" d="M3545.655,3512.07c.789-5.482,2.408-7.408,5.969-7.252,3.34.147,4.932,2.27,5.264,7.252h1.549q9.278,0,18.557,0c3.769,0,5.42,1.646,5.485,5.433.038,2.245.094,4.49.112,6.734.013,1.647-.674,2.54-1.875,2.522-1.149-.017-1.819-.866-1.845-2.429-.039-2.245-.039-4.49-.058-6.735-.014-1.712-.083-1.792-1.79-1.792q-19.519-.005-39.038-.005a9.081,9.081,0,0,1-1.5-.078,1.7,1.7,0,0,1-1.543-1.811,1.678,1.678,0,0,1,1.592-1.766,27.609,27.609,0,0,1,2.88-.073C3541.468,3512.064,3543.528,3512.07,3545.655,3512.07Zm7.458-.047c.059-1.192.409-2.453-.792-3.2a2.242,2.242,0,0,0-1.977.008c-1.169.743-.912,1.988-.786,3.188Z" transform="translate(-77.838)" fill="#6a4d23"/>
        <path id="Trazado_906763" data-name="Trazado 906763" d="M3580.586,3763.39q-8.04,0-16.08,0a10.429,10.429,0,0,1-1.371-.053,1.636,1.636,0,0,1-1.53-1.659,1.707,1.707,0,0,1,1.466-1.873,6.2,6.2,0,0,1,1.369-.055q15.873,0,31.747,0c1.888,0,1.948-.063,1.958-1.92.018-3.39.02-6.78.069-10.17.008-.577.03-1.367.381-1.675a2.491,2.491,0,0,1,1.972-.7,2.548,2.548,0,0,1,1.3,1.8,42.318,42.318,0,0,1,.02,4.941c-.023,2.107-.045,4.214-.083,6.321-.06,3.351-1.75,5.023-5.135,5.035C3591.306,3763.4,3585.946,3763.389,3580.586,3763.39Z" transform="translate(-97.17 -174.312)" fill="#6a4d23"/>
        <path id="Trazado_906764" data-name="Trazado 906764" d="M3481.273,3548.75c0-4.122-.01-8.243,0-12.364.011-3.378,1.8-5.163,5.167-5.2,1.19-.012,2.382-.023,3.572,0,1.445.033,2.276.71,2.3,1.819.026,1.155-.841,1.868-2.358,1.9-1.053.023-2.106,0-3.16.007-1.786.009-1.892.107-1.892,1.853q0,12.3,0,24.591a7.369,7.369,0,0,1-.05,1.37,1.794,1.794,0,0,1-3.508.024,8.633,8.633,0,0,1-.07-1.643Q3481.269,3554.931,3481.273,3548.75Z" transform="translate(-38.929 -19.115)" fill="#6a4d23"/>
        <path id="Trazado_906765" data-name="Trazado 906765" d="M3598.828,3574.922q-4.257,0-8.515,0c-1.084,0-2.017-.262-2.33-1.474-.325-1.258.589-2.223,2.213-2.246,2.517-.036,5.035-.011,7.553-.011q4.875,0,9.751,0c.959,0,1.864.165,2.253,1.2.519,1.377-.405,2.5-2.136,2.521C3604.688,3574.949,3601.758,3574.922,3598.828,3574.922Z" transform="translate(-116.251 -48.121)" fill="#6a4d23"/>
        <path id="Trazado_906766" data-name="Trazado 906766" d="M3526.782,3644.693c1.987-2.01,3.806-3.865,5.642-5.7,1.115-1.116,2.138-1.257,2.984-.454s.712,1.943-.426,3.087q-3.238,3.256-6.5,6.49c-1.23,1.218-2.054,1.225-3.278.038q-1.525-1.478-3.007-3c-.994-1.018-1.112-2.1-.347-2.888.833-.86,1.867-.754,2.982.348C3525.453,3643.217,3526.021,3643.874,3526.782,3644.693Z" transform="translate(-67.992 -96.583)" fill="#6a4d23"/>
        <path id="Trazado_906767" data-name="Trazado 906767" d="M3526.708,3578.038c2.125-2.144,4.009-4.076,5.932-5.969.99-.974,2.151-.982,2.872-.056a1.734,1.734,0,0,1-.151,2.483q-3.567,3.621-7.19,7.186a1.822,1.822,0,0,1-2.8-.027c-1.155-1.111-2.3-2.238-3.4-3.4a1.832,1.832,0,0,1-.132-2.692,1.88,1.88,0,0,1,2.7.1,14.8,14.8,0,0,1,1.074,1.062C3525.955,3577.095,3526.261,3577.5,3526.708,3578.038Z" transform="translate(-67.96 -48.227)" fill="#6a4d23"/>
        <path id="Trazado_906768" data-name="Trazado 906768" d="M3595.329,3597.991c1.649,0,3.3-.013,4.948,0,1.415.015,2.27.726,2.262,1.836-.008,1.09-.783,1.781-2.153,1.791q-5.154.039-10.309,0c-1.355-.009-2.172-.7-2.208-1.753-.038-1.1.845-1.859,2.236-1.875C3591.846,3597.976,3593.588,3597.991,3595.329,3597.991Z" transform="translate(-116.214 -67.554)" fill="#6a4d23"/>
        <path id="Trazado_906769" data-name="Trazado 906769" d="M3593.54,3641.6c-1.234,0-2.469.017-3.7-.005a1.8,1.8,0,1,1-.019-3.6c2.469-.036,4.939-.044,7.407.006a1.685,1.685,0,0,1,1.773,1.859,1.656,1.656,0,0,1-1.755,1.73c-1.234.033-2.469.008-3.7.008Z" transform="translate(-116.299 -96.538)" fill="#6a4d23"/>
        <path id="Trazado_906770" data-name="Trazado 906770" d="M3591.563,3666.635a1.851,1.851,0,0,1-1.846,1.829,1.833,1.833,0,0,1-1.809-1.863,1.725,1.725,0,0,1,1.777-1.731A1.769,1.769,0,0,1,3591.563,3666.635Z" transform="translate(-116.238 -116.045)" fill="#6a4d23"/>
        <path id="Trazado_906771" data-name="Trazado 906771" d="M3531.367,3633.441h-3.554c-.126-1.2-.384-2.445.786-3.188a2.243,2.243,0,0,1,1.977-.008C3531.776,3630.988,3531.426,3632.249,3531.367,3633.441Z" transform="translate(-72.59 -90.779)" fill="#6a4d23"/>
      </g>
    </g>
  </g>
</svg>
