<svg xmlns="http://www.w3.org/2000/svg" xmlns:xlink="http://www.w3.org/1999/xlink" width="145" height="145" viewBox="0 0 145 145">
  <defs>
    <clipPath id="clip-path">
      <rect id="Rectángulo_400938" data-name="Rectángulo 400938" width="145" height="145" transform="translate(0 -0.281)" fill="none"/>
    </clipPath>
    <clipPath id="clip-path-2">
      <rect id="Rectángulo_401073" data-name="Rectángulo 401073" width="110.228" height="49.642" fill="#7d3a1b"/>
    </clipPath>
    <clipPath id="clip-path-3">
      <rect id="Rectángulo_406571" data-name="Rectángulo 406571" width="88" height="88" transform="translate(194 9572.789)" fill="#6a4d23" stroke="#707070" stroke-width="1"/>
    </clipPath>
  </defs>
  <g id="Grupo_1119742" data-name="Grupo 1119742" transform="translate(-729 -4406.93)">
    <g id="Grupo_1117907" data-name="Grupo 1117907" transform="translate(554 -5133.789)">
      <g id="Grupo_1099404" data-name="Grupo 1099404" transform="translate(175 9541)">
        <g id="Grupo_1099379" data-name="Grupo 1099379" transform="translate(0 0)">
          <rect id="Rectángulo_401103" data-name="Rectángulo 401103" width="145" height="145" transform="translate(0 -0.281)" fill="none"/>
          <g id="Grupo_1099348" data-name="Grupo 1099348" transform="translate(0.045 0.045)">
            <g id="Grupo_1099282" data-name="Grupo 1099282">
              <g id="Grupo_1099281" data-name="Grupo 1099281" clip-path="url(#clip-path-2)">
                <path id="Trazado_873375" data-name="Trazado 873375" d="M89.413,10.879c-4.947,0-7.506-2.426-9.765-4.567C77.431,4.213,75.522,2.4,71.529,2.4s-5.9,1.814-8.118,3.913c-2.259,2.141-4.814,4.567-9.765,4.567S46.14,8.453,43.881,6.312C41.664,4.213,39.755,2.4,35.763,2.4s-5.9,1.814-8.114,3.913c-2.259,2.141-4.818,4.567-9.765,4.567s-7.51-2.426-9.769-4.567C5.9,4.213,3.993,2.4,0,2.4V0C4.947,0,7.506,2.43,9.765,4.567c2.217,2.1,4.126,3.913,8.118,3.913S23.785,6.67,26,4.571C28.253,2.43,30.816,0,35.763,0s7.51,2.43,9.765,4.567c2.217,2.1,4.126,3.913,8.118,3.913s5.9-1.81,8.118-3.913C64.019,2.43,66.582,0,71.529,0s7.51,2.43,9.765,4.567c2.217,2.1,4.126,3.913,8.118,3.913s5.9-1.81,8.118-3.913C99.786,2.43,102.345,0,107.3,0V2.4c-3.993,0-5.9,1.814-8.118,3.913-2.259,2.141-4.818,4.567-9.765,4.567" transform="translate(2.932 38.763)" fill="#7d3a1b"/>
                <path id="Trazado_873376" data-name="Trazado 873376" d="M89.413,10.879c-4.947,0-7.51-2.426-9.765-4.571C77.431,4.209,75.522,2.4,71.529,2.4s-5.9,1.81-8.118,3.909c-2.255,2.145-4.814,4.571-9.765,4.571s-7.51-2.426-9.765-4.571C41.664,4.209,39.755,2.4,35.763,2.4s-5.9,1.814-8.115,3.909c-2.259,2.145-4.818,4.571-9.765,4.571s-7.51-2.426-9.769-4.571C5.9,4.209,3.993,2.4,0,2.4V0C4.947,0,7.51,2.426,9.765,4.567c2.217,2.1,4.126,3.913,8.118,3.913S23.785,6.67,26,4.567C28.253,2.426,30.816,0,35.763,0s7.51,2.426,9.769,4.567c2.213,2.1,4.122,3.913,8.115,3.913s5.9-1.81,8.118-3.913C64.019,2.426,66.582,0,71.529,0s7.51,2.426,9.765,4.567c2.217,2.1,4.126,3.913,8.118,3.913s5.9-1.81,8.118-3.913C99.79,2.426,102.349,0,107.3,0V2.4c-3.993,0-5.905,1.814-8.122,3.909-2.259,2.145-4.818,4.571-9.765,4.571" transform="translate(1.955 25.842)" fill="#7d3a1b"/>
                <path id="Trazado_873377" data-name="Trazado 873377" d="M89.412,10.879c-4.947,0-7.51-2.426-9.765-4.571C77.431,4.209,75.522,2.4,71.529,2.4s-5.9,1.81-8.118,3.909c-2.255,2.145-4.818,4.571-9.765,4.571s-7.51-2.426-9.765-4.571C41.664,4.209,39.755,2.4,35.763,2.4s-5.9,1.814-8.115,3.909c-2.259,2.145-4.818,4.571-9.765,4.571s-7.51-2.426-9.769-4.571C5.9,4.209,3.993,2.4,0,2.4V0C4.947,0,7.51,2.426,9.765,4.567c2.213,2.1,4.126,3.913,8.118,3.913S23.785,6.67,26,4.567C28.253,2.426,30.816,0,35.763,0s7.51,2.426,9.769,4.567c2.213,2.1,4.122,3.913,8.115,3.913s5.9-1.81,8.118-3.913C64.019,2.426,66.582,0,71.529,0s7.51,2.426,9.765,4.567c2.217,2.1,4.126,3.913,8.118,3.913s5.9-1.81,8.118-3.913C99.79,2.426,102.345,0,107.3,0V2.4c-3.993,0-5.905,1.814-8.122,3.909-2.259,2.145-4.818,4.571-9.765,4.571" transform="translate(0.977 12.921)" fill="#7d3a1b"/>
                <path id="Trazado_873378" data-name="Trazado 873378" d="M89.413,10.875c-4.947,0-7.506-2.426-9.765-4.567C77.431,4.209,75.522,2.4,71.529,2.4s-5.9,1.81-8.115,3.909c-2.259,2.141-4.818,4.567-9.769,4.567S46.14,8.449,43.881,6.308C41.664,4.209,39.755,2.4,35.763,2.4s-5.9,1.81-8.115,3.905c-2.255,2.145-4.818,4.571-9.765,4.571s-7.51-2.426-9.769-4.567C5.9,4.209,3.993,2.4,0,2.4V0C4.947,0,7.51,2.426,9.765,4.567c2.217,2.1,4.126,3.909,8.118,3.909s5.9-1.81,8.115-3.909C28.257,2.426,30.816,0,35.763,0s7.506,2.426,9.769,4.567c2.213,2.1,4.122,3.909,8.115,3.909s5.9-1.81,8.118-3.909C64.023,2.426,66.582,0,71.529,0s7.506,2.426,9.765,4.567c2.217,2.1,4.126,3.909,8.118,3.909s5.9-1.81,8.118-3.909C99.79,2.426,102.349,0,107.3,0V2.4c-4,0-5.905,1.81-8.122,3.909-2.259,2.141-4.818,4.567-9.765,4.567" transform="translate(0 0.004)" fill="#7d3a1b"/>
              </g>
            </g>
          </g>
          <path id="Trazado_873425" data-name="Trazado 873425" d="M60.362,0A60.362,60.362,0,1,1,0,60.362,60.362,60.362,0,0,1,60.362,0Z" transform="translate(17.974 21.56)" fill="#efb499"/>
          <circle id="Elipse_11503" data-name="Elipse 11503" cx="63" cy="63" r="63" transform="translate(9 9.719)" fill="#fef7eb"/>
        </g>
      </g>
    </g>
    <g id="Grupo_1119762" data-name="Grupo 1119762" transform="translate(563.5 -5134.789)" clip-path="url(#clip-path-3)">
      <g id="Grupo_1119761" data-name="Grupo 1119761" transform="translate(-861.79 8220.926)">
        <path id="Trazado_906786" data-name="Trazado 906786" d="M1119.648,1391.03c0-4.45,0-8.715-.005-12.981,0-.208,0-.5-.132-.612-1.5-1.322-3.009-2.634-4.561-3.893-.143-.116-.639.091-.9.258-.549.349-1.051.77-1.658,1.227l-1.606-1.963,1.512-1.352c-1.4-.651-2.681-1.292-4.005-1.83a1.271,1.271,0,0,0-1.092.22,1.13,1.13,0,0,0-.091,1c1.223,3.164,2.457,6.325,3.749,9.462a4.308,4.308,0,0,1-1.084,5.22c-1.13,1.081-2.173,2.253-3.437,3.575l-6.591-11.816c-.732.711-1.375,1.325-2.006,1.953-1.7,1.691-3.449,3.335-5.062,5.1a3.2,3.2,0,0,1-2.957,1.211,19.215,19.215,0,0,0-2.116-.013c.673,1.7,1.31,3.21,1.853,4.755a1.457,1.457,0,0,1-.14,1.234c-1.724,1.84-3.517,3.616-5.422,5.546-.953-2.36-1.88-4.511-2.682-6.708a2.651,2.651,0,0,0-1.759-1.721c-2.156-.8-4.272-1.7-6.589-2.638,1.94-1.94,3.754-3.791,5.63-5.577.205-.2.8-.124,1.153,0,1.5.549,2.978,1.165,4.6,1.809a4.792,4.792,0,0,0,.083-1.1c-.376-2.026.525-3.413,1.995-4.725,2.164-1.932,4.163-4.05,6.378-6.233-1.322-.728-2.4-1.357-3.524-1.915a1.542,1.542,0,0,0-.977-.012,31.972,31.972,0,0,0-20.625,15.825,1.427,1.427,0,0,0,.209,1.293c1.044,1.168,2.183,2.252,3.3,3.351a4.134,4.134,0,0,1-3.028,7.279c-1.429-.025-2.859-.005-4.354-.005-.092.8-.211,1.487-.24,2.174-.039.952-.01,1.906-.01,2.986,1.859,0,3.671.061,5.474-.04a2.932,2.932,0,0,0,1.418-.849c2.366-1.995,5.079-1.962,7.251.237a9.957,9.957,0,0,1,2.448,3.151,5.65,5.65,0,0,1-1.334,6.385c-.717.7-1.4,1.438-2.138,2.113a4.207,4.207,0,0,0-1.451,2.936c-.208,2.456-1.745,3.8-5.172,4.644l5.166,5.447-1.629,1.959c-10.144-9.258-14.581-20.521-11.961-33.978,2.61-13.4,10.95-22.176,23.872-27-.84-.483-1.53-.885-2.226-1.278s-1.421-.792-2-1.111c1.435-1.555,2.721-3.151,4.223-4.509,1.123-1.014,2.595-.87,3.967-.326,3.072,1.219,6.15,2.425,9.2,3.7a1.5,1.5,0,0,0,2.01-.4,14.561,14.561,0,0,1,7.773-5.01c1.506-.321,3.063-.4,4.583-.592.542,3.454-.264,6.1-3.134,10.62,1.483.79,2.951,1.6,4.451,2.342a1.174,1.174,0,0,0,.921-.128q6.7-3.794,13.369-7.63a3.2,3.2,0,0,0,.355-.295l-5.168-2.614,1.173-2.327,8.768,4.388-4.366,8.74-2.344-1.12,1.782-3.658-.25-.342-11.61,6.665,3.194,2.678c.2-.215.407-.411.581-.635a5.213,5.213,0,0,1,9.445,3.114c.027,4.706.008,9.411.008,14.337h3.9c4.046,0,5.26,1.228,5.26,5.317q0,14.643,0,29.286c0,3.151-1.48,4.621-4.645,4.623-6.188,0-12.377-.025-18.565.031a5.744,5.744,0,0,0-2.564.668,35.293,35.293,0,0,1-30.131,2.154c-.24-.088-.465-.218-.731-.345a7.306,7.306,0,0,1,.222-.778c.2-.479.419-.948.675-1.52l4.657,1.455c.131-2.01.408-3.787-1.334-5.263a5.191,5.191,0,0,1-1.152-2.783,11.652,11.652,0,0,1-.035-2.737,3.783,3.783,0,0,1,3.995-3.915,4.221,4.221,0,0,0,3.516-1.541c1.563-1.7,3.235-3.3,4.884-4.913,1.633-1.6,6.028-2.063,7.96-.841a3.776,3.776,0,0,1,1.855,3.264c.028,1.35.043,2.7,0,4.052a4.011,4.011,0,0,1-3.3,3.844c-.647.145-1.6.491-1.75.961a2.737,2.737,0,0,0,.459,3.047c.348.329.661.7,1.02,1.013,1.467,1.285,2.583,2.734,2.225,5.126l4.483-1.919c-.185-1.867-.475-3.471-.482-5.076-.043-9.5-.023-19-.021-28.5,0-3.259,1.443-4.7,4.687-4.71C1116.615,1391.027,1118.046,1391.03,1119.648,1391.03Zm-6.539,19.479q0,7.515,0,15.032c0,1.735.35,2.1,2.027,2.1q9.738.008,19.475,0c1.644,0,2.032-.371,2.033-1.964q.008-15.032,0-30.063c0-1.6-.386-1.968-2.027-1.969q-9.738-.008-19.476,0c-1.684,0-2.032.362-2.033,2.094Q1113.1,1403.124,1113.109,1410.509Zm-6.281-25.663c2.157-1.784,2.181-1.845,1.258-4.162-1.238-3.109-2.431-6.238-3.764-9.307a2.064,2.064,0,0,1,.538-2.786c1.85-1.7,3.792-3.381,4.713-5.837.336-.9.539-1.842.822-2.835a9.377,9.377,0,0,0-6,2.519c-1.123,1.028-2.213,2.1-3.247,3.215a1.36,1.36,0,0,1-1.8.38c-3.371-1.4-6.776-2.716-10.169-4.064-2.041-.811-2.607-.609-3.768,1.406l11.568,6.458c-2.971,2.954-5.682,5.851-8.621,8.494-1.6,1.443-1.521,3.008-1.31,4.719a4.786,4.786,0,0,0,5.141-1.656c2.219-2.5,4.7-4.779,7.071-7.148.324-.324.667-.628,1.086-1.02Zm-10.311,48.114c1.648-.195,3.724-.4,5.787-.7,1.7-.241,1.974-.649,1.611-2.313a2.852,2.852,0,0,0-.726-1.189c-.67-.743-1.436-1.4-2.095-2.151-1.464-1.67-1.321-3.657-.767-5.561a3.647,3.647,0,0,1,3.577-2.568,1.332,1.332,0,0,0,1.351-1.454c.018-1.219.058-2.442-.027-3.655a1.8,1.8,0,0,0-.644-1.178c-.865-.642-3.986-.237-4.775.545-1.608,1.594-3.266,3.143-4.79,4.814a5.912,5.912,0,0,1-5.137,2.291,1.88,1.88,0,0,0-1.451.8c-.647,1.1-.1,3.931.854,4.823a4.728,4.728,0,0,1,1.6,3.962,8.77,8.77,0,0,0,.033,2.213,1.368,1.368,0,0,0,.866.916C1093.2,1432.763,1094.643,1432.817,1096.517,1432.96Zm-32.852-28.856a32.507,32.507,0,0,0,4.234,12.561,1.142,1.142,0,0,0,.42.466,3.061,3.061,0,0,0,4.246-2.495,5.489,5.489,0,0,1,1.655-3.588c.863-.863,1.694-1.76,2.595-2.581a2.966,2.966,0,0,0,.854-3.339,7.259,7.259,0,0,0-1.771-2.349c-1.409-1.445-2.419-1.461-3.949-.1a5.5,5.5,0,0,1-3.94,1.436C1066.62,1404.08,1065.23,1404.1,1063.665,1404.1Zm63.83-13.141c0-4.581,0-9.1,0-13.614a5.728,5.728,0,0,0-.038-1.042,2.566,2.566,0,0,0-2.23-2.241,2.616,2.616,0,0,0-2.955,2.841c-.023,4.441-.009,8.883,0,13.325a4.97,4.97,0,0,0,.106.731Zm-42.937,1.583c2.267-1.524,2.068-1.506,1.515-3.579a6.506,6.506,0,0,0-5.012-4.953c-1.879-.532-2.393-.468-3.325,1.585C1081.746,1386.085,1084.038,1388.4,1084.558,1392.546Zm-20.567,1.09c1.7,0,3.091.061,4.472-.018a1.391,1.391,0,0,0,1.139-2.312c-1.1-1.262-2.35-2.388-3.732-3.767Z" fill="#6a4d23"/>
        <path id="Trazado_906787" data-name="Trazado 906787" d="M1123.715,1512.3c-.8-.108-1.4-.181-2-.275a3.693,3.693,0,0,1-.575-.2,90.736,90.736,0,0,1,22.44-51.18c.4.333.72.6,1.043.869.3.247.6.491.976.8A88.348,88.348,0,0,0,1123.715,1512.3Z" transform="translate(-44.566 -76.636)" fill="#6a4d23"/>
        <path id="Trazado_906788" data-name="Trazado 906788" d="M1199.98,1507.026q0,.457,0,.914c0,2.9-.729,3.586-3.612,3.7a2.775,2.775,0,0,0-1.869.842c-1.982,2.471-4.636,1.922-7.1,1.513-1.925-.319-2.5-3.2-1.148-4.857.493-.6,1.09-1.123,1.636-1.685.83-.855,1.71-1.57,1.781-3.007a2.222,2.222,0,0,1,2.4-1.976c1.783-.05,3.571-.056,5.354,0a2.55,2.55,0,0,1,2.552,2.6c.034.651.006,1.306.006,1.959Zm-2.713,2.047v-3.951h-4.534c-.855,1.326-1.476,2.408-2.219,3.4-.491.656-1.184,1.157-1.732,1.775a6.477,6.477,0,0,0-.654,1.11l.232.4c1.234-.231,2.821-.064,3.626-.779C1193.543,1509.648,1194.995,1508.549,1197.267,1509.073Z" transform="translate(-92.101 -107.494)" fill="#6a4d23"/>
        <path id="Trazado_906789" data-name="Trazado 906789" d="M1274.867,1650.339h-3.76v-2.452h3.76Z" transform="translate(-155.312 -214.912)" fill="#6a4d23"/>
        <path id="Trazado_906790" data-name="Trazado 906790" d="M1331.047,1650.249v-2.417h3.792v2.417Z" transform="translate(-199.576 -214.871)" fill="#6a4d23"/>
        <path id="Trazado_906791" data-name="Trazado 906791" d="M1276.165,1507.623h2.422v28.632h-2.422Z" transform="translate(-159.047 -111.331)" fill="#6a4d23"/>
        <path id="Trazado_906792" data-name="Trazado 906792" d="M1303.555,1536.509h-2.461v-28.595h2.461Z" transform="translate(-177.457 -111.546)" fill="#6a4d23"/>
        <path id="Trazado_906793" data-name="Trazado 906793" d="M1326.139,1507.61h2.437v28.643h-2.437Z" transform="translate(-195.952 -111.322)" fill="#6a4d23"/>
      </g>
    </g>
  </g>
</svg>
