<svg xmlns="http://www.w3.org/2000/svg" xmlns:xlink="http://www.w3.org/1999/xlink" width="121" height="121" viewBox="0 0 121 121">
  <defs>
    <clipPath id="clip-path">
      <rect id="Rectángulo_400938" data-name="Rectángulo 400938" width="121" height="121" transform="translate(0 0)" fill="none"/>
    </clipPath>
    <clipPath id="clip-path-2">
      <rect id="Rectángulo_401073" data-name="Rectángulo 401073" width="92.219" height="41.532" fill="#efb499"/>
    </clipPath>
  </defs>
  <g id="Grupo_1119990" data-name="Grupo 1119990" transform="translate(-5040.496 1699.774)">
    <g id="Grupo_1105104" data-name="Grupo 1105104" transform="translate(4652.828 -7712.774)">
      <rect id="Rectángulo_401103" data-name="Rectángulo 401103" width="121" height="121" transform="translate(387.668 6013)" fill="none"/>
      <g id="Grupo_1099348" data-name="Grupo 1099348" transform="translate(387.668 6013)">
        <g id="Grupo_1099282" data-name="Grupo 1099282">
          <g id="Grupo_1099281" data-name="Grupo 1099281" clip-path="url(#clip-path-2)">
            <path id="Trazado_873375" data-name="Trazado 873375" d="M74.8,9.1c-4.139,0-6.28-2.03-8.17-3.821-1.855-1.756-3.452-3.274-6.792-3.274s-4.937,1.517-6.792,3.274C51.161,7.072,49.023,9.1,44.881,9.1s-6.28-2.03-8.169-3.821C34.857,3.525,33.26,2.007,29.92,2.007s-4.937,1.517-6.789,3.274C21.241,7.072,19.1,9.1,14.962,9.1S8.679,7.072,6.789,5.281C4.937,3.525,3.34,2.007,0,2.007V0C4.139,0,6.28,2.033,8.17,3.821c1.855,1.759,3.452,3.274,6.792,3.274S19.9,5.58,21.75,3.824C23.637,2.033,25.781,0,29.92,0s6.283,2.033,8.17,3.821c1.855,1.759,3.452,3.274,6.792,3.274s4.937-1.514,6.792-3.274C53.56,2.033,55.7,0,59.843,0s6.283,2.033,8.17,3.821C69.867,5.58,71.464,7.094,74.8,7.094S79.742,5.58,81.6,3.821C83.483,2.033,85.624,0,89.766,0V2.007c-3.34,0-4.937,1.517-6.792,3.274C81.084,7.072,78.943,9.1,74.8,9.1" transform="translate(2.453 32.43)" fill="#efb499"/>
            <path id="Trazado_873376" data-name="Trazado 873376" d="M74.8,9.1c-4.139,0-6.283-2.03-8.17-3.824-1.855-1.756-3.452-3.27-6.792-3.27s-4.937,1.514-6.792,3.27C51.164,7.072,49.023,9.1,44.881,9.1s-6.283-2.03-8.17-3.824c-1.855-1.756-3.452-3.27-6.792-3.27s-4.937,1.517-6.789,3.27C21.241,7.072,19.1,9.1,14.962,9.1S8.679,7.072,6.789,5.278C4.937,3.522,3.34,2.007,0,2.007V0C4.139,0,6.283,2.03,8.17,3.821c1.855,1.759,3.452,3.274,6.792,3.274S19.9,5.58,21.75,3.821C23.637,2.03,25.781,0,29.92,0S36.2,2.03,38.093,3.821c1.852,1.759,3.449,3.274,6.789,3.274s4.937-1.514,6.792-3.274C53.56,2.03,55.7,0,59.843,0s6.283,2.03,8.17,3.821C69.867,5.58,71.464,7.094,74.8,7.094S79.742,5.58,81.6,3.821C83.486,2.03,85.627,0,89.769,0V2.007c-3.34,0-4.94,1.517-6.8,3.27C81.084,7.072,78.943,9.1,74.8,9.1" transform="translate(1.635 21.62)" fill="#efb499"/>
            <path id="Trazado_873377" data-name="Trazado 873377" d="M74.8,9.1c-4.139,0-6.283-2.03-8.169-3.824-1.855-1.756-3.452-3.27-6.792-3.27s-4.937,1.514-6.792,3.27C51.164,7.072,49.02,9.1,44.881,9.1s-6.283-2.03-8.17-3.824c-1.855-1.756-3.452-3.27-6.792-3.27s-4.937,1.517-6.789,3.27C21.241,7.072,19.1,9.1,14.962,9.1S8.678,7.072,6.789,5.278C4.937,3.522,3.34,2.007,0,2.007V0C4.139,0,6.283,2.03,8.169,3.821c1.851,1.759,3.452,3.274,6.792,3.274S19.9,5.58,21.75,3.821C23.637,2.03,25.781,0,29.92,0S36.2,2.03,38.093,3.821c1.852,1.759,3.449,3.274,6.789,3.274s4.937-1.514,6.792-3.274C53.56,2.03,55.7,0,59.843,0s6.283,2.03,8.17,3.821C69.867,5.58,71.464,7.094,74.8,7.094S79.742,5.58,81.6,3.821C83.486,2.03,85.624,0,89.769,0V2.007c-3.34,0-4.941,1.517-6.8,3.27C81.084,7.072,78.943,9.1,74.8,9.1" transform="translate(0.818 10.81)" fill="#efb499"/>
            <path id="Trazado_873378" data-name="Trazado 873378" d="M74.8,9.1c-4.139,0-6.28-2.03-8.17-3.821-1.855-1.756-3.452-3.27-6.792-3.27s-4.937,1.514-6.789,3.27C51.164,7.069,49.023,9.1,44.881,9.1s-6.28-2.03-8.169-3.821c-1.855-1.756-3.452-3.27-6.792-3.27s-4.937,1.514-6.789,3.267C21.245,7.069,19.1,9.1,14.962,9.1S8.678,7.069,6.789,5.278C4.937,3.522,3.34,2.007,0,2.007V0C4.139,0,6.283,2.03,8.17,3.821c1.855,1.756,3.452,3.27,6.792,3.27S19.9,5.577,21.75,3.821C23.64,2.03,25.781,0,29.92,0s6.28,2.03,8.173,3.821c1.852,1.756,3.449,3.27,6.789,3.27s4.937-1.514,6.792-3.27C53.563,2.03,55.7,0,59.843,0s6.28,2.03,8.17,3.821c1.855,1.756,3.452,3.27,6.792,3.27s4.937-1.514,6.792-3.27C83.486,2.03,85.627,0,89.769,0V2.007c-3.344,0-4.941,1.514-6.8,3.27C81.084,7.069,78.943,9.1,74.8,9.1" transform="translate(0 0.003)" fill="#efb499"/>
          </g>
        </g>
      </g>
      <circle id="Elipse_11504" data-name="Elipse 11504" cx="50.5" cy="50.5" r="50.5" transform="translate(402.668 6031)" fill="#ffce73"/>
      <circle id="Elipse_11503" data-name="Elipse 11503" cx="52.5" cy="52.5" r="52.5" transform="translate(395.668 6021)" fill="#f3f9ff"/>
    </g>
    <g id="Grupo_1105105" data-name="Grupo 1105105" transform="translate(5070.438 -1672.971)">
      <rect id="Rectángulo_401104" data-name="Rectángulo 401104" width="68" height="69" transform="translate(-0.438 -0.804)" fill="none"/>
      <g id="Grupo_1119747" data-name="Grupo 1119747" transform="translate(-363.535 203.625)">
        <path id="Trazado_906644" data-name="Trazado 906644" d="M455.127-203.431q10.421,0,20.841,0c3.462,0,5.218,1.759,5.219,5.22q0,9.57,0,19.14c0,3.3-1.8,5.1-5.105,5.1q-18.8,0-37.606-.013a3.344,3.344,0,0,0-2.092.64c-1.161.838-2.382,1.592-3.568,2.4a2.306,2.306,0,0,1-2.554.249,2.358,2.358,0,0,1-1.21-2.265c.01-8.608-.007-17.215.014-25.823a4.5,4.5,0,0,1,4.767-4.64C440.93-203.442,448.028-203.431,455.127-203.431Z" transform="translate(-54.091)" fill="#333"/>
        <path id="Trazado_906645" data-name="Trazado 906645" d="M385.2-53.505q10.419,0,20.839,0c3.4,0,5.192,1.769,5.193,5.131,0,8.3-.008,16.609.011,24.913a2.636,2.636,0,0,1-1.258,2.694,2.38,2.38,0,0,1-2.824-.487c-2.669-2.335-5.716-2.926-9.25-2.863-11.208.2-22.423.076-33.635.073-3.388,0-5.172-1.775-5.173-5.145q0-9.625,0-19.25c0-3.239,1.81-5.061,5.032-5.064Q374.665-53.513,385.2-53.505Z" transform="translate(0 -115.931)" fill="#333"/>
        <path id="Trazado_906646" data-name="Trazado 906646" d="M439.07-164.958v-1.293q0-12.122,0-24.244c0-2.182.745-2.932,2.919-2.932q20.9,0,41.809,0c2.088,0,2.868.784,2.869,2.873q0,9.63,0,19.259c0,2-.8,2.794-2.827,2.794q-19.092,0-38.183-.013a3.769,3.769,0,0,0-2.314.7C442-166.861,440.615-165.983,439.07-164.958Z" transform="translate(-61.839 -7.737)" fill="#fefefe"/>
        <path id="Trazado_906647" data-name="Trazado 906647" d="M392.974-43.529q10.426,0,20.852,0c2.075,0,2.869.8,2.87,2.882q0,12.181,0,24.362c0,.324.173.769-.122.949-.316.193-.626-.172-.86-.38-2.719-2.41-5.849-3.022-9.469-2.959-11.366.2-22.739.074-34.109.073-2.3,0-3.03-.738-3.031-3.052q0-9.461,0-18.923c0-2.175.765-2.952,2.91-2.953Q382.492-43.532,392.974-43.529Z" transform="translate(-7.734 -123.646)" fill="#ffb937"/>
        <path id="Trazado_906648" data-name="Trazado 906648" d="M561.95-173.168a10.038,10.038,0,0,1-10.379,10.106,10.053,10.053,0,0,1-9.993-10.491,10.2,10.2,0,0,1,10.433-9.86A10.2,10.2,0,0,1,561.95-173.168Z" transform="translate(-141.1 -15.479)" fill="#333"/>
        <path id="Trazado_906649" data-name="Trazado 906649" d="M457.188-171.2c-2.11,0-4.221-.013-6.331.006-.855.008-1.582-.2-1.551-1.186.029-.9.74-1.1,1.543-1.093q6.331.018,12.662,0c.855,0,1.583.218,1.552,1.2-.029.905-.74,1.091-1.544,1.083C461.409-171.21,459.3-171.2,457.188-171.2Z" transform="translate(-69.753 -23.17)" fill="#7d3a1b"/>
        <path id="Trazado_906650" data-name="Trazado 906650" d="M457.149-146.208c-2.11,0-4.221-.013-6.331.007-.811.007-1.5-.2-1.52-1.107s.641-1.172,1.465-1.171q6.388.013,12.775,0c.809,0,1.507.212,1.518,1.117.012.987-.73,1.17-1.576,1.162C461.369-146.222,459.259-146.208,457.149-146.208Z" transform="translate(-69.747 -42.492)" fill="#7d3a1b"/>
        <path id="Trazado_906651" data-name="Trazado 906651" d="M457.185-121.224c-2.11,0-4.221-.013-6.331.006-.856.008-1.582-.206-1.548-1.189.031-.9.743-1.093,1.546-1.091q6.331.018,12.662,0c.856,0,1.582.222,1.549,1.2-.031.905-.743,1.088-1.547,1.08C461.406-121.237,459.3-121.224,457.185-121.224Z" transform="translate(-69.753 -61.811)" fill="#7d3a1b"/>
        <path id="Trazado_906652" data-name="Trazado 906652" d="M626.144-183.492a2.052,2.052,0,0,1-2.129-2.022,2.139,2.139,0,0,1,2.107-2.087,2.148,2.148,0,0,1,2.076,2.009A2.042,2.042,0,0,1,626.144-183.492Z" transform="translate(-204.847 -12.243)" fill="#343434"/>
        <path id="Trazado_906653" data-name="Trazado 906653" d="M479.069-23.475a10.231,10.231,0,0,1,10.27-10.046,10.23,10.23,0,0,1,10.122,10.081,10.059,10.059,0,0,1-10.214,10.28A10.062,10.062,0,0,1,479.069-23.475Z" transform="translate(-92.767 -131.384)" fill="#333"/>
        <path id="Trazado_906654" data-name="Trazado 906654" d="M394.752-21.267c-2.109,0-4.219-.009-6.328,0-.792.005-1.5-.146-1.525-1.089-.032-1.025.711-1.187,1.545-1.185q6.327.009,12.655,0c.781,0,1.5.135,1.524,1.093.024,1.021-.7,1.187-1.544,1.182C398.971-21.276,396.862-21.267,394.752-21.267Z" transform="translate(-21.497 -139.105)" fill="#fefdfd"/>
        <path id="Trazado_906655" data-name="Trazado 906655" d="M394.742,3.719c-2.072,0-4.143-.009-6.215,0-.814.005-1.595-.078-1.622-1.1s.729-1.172,1.558-1.171q6.328.009,12.655,0c.785,0,1.5.15,1.51,1.107.013,1.023-.723,1.173-1.559,1.167C398.961,3.71,396.852,3.719,394.742,3.719Z" transform="translate(-21.502 -158.425)" fill="#fefdfd"/>
        <path id="Trazado_906656" data-name="Trazado 906656" d="M394.777,28.706c-2.109,0-4.219-.01-6.328,0-.842.006-1.568-.161-1.544-1.181.022-.956.742-1.094,1.524-1.093q6.327.007,12.655,0c.834,0,1.577.159,1.545,1.185-.029.945-.733,1.095-1.525,1.09C399,28.7,396.886,28.706,394.777,28.706Z" transform="translate(-21.502 -177.746)" fill="#fefdfd"/>
        <path id="Trazado_906657" data-name="Trazado 906657" d="M567.479-165.35a7.872,7.872,0,0,1-7.765,7.938,7.871,7.871,0,0,1-8.027-7.788,7.746,7.746,0,0,1,7.878-8.015A7.741,7.741,0,0,1,567.479-165.35Z" transform="translate(-148.919 -23.367)" fill="#efb499"/>
        <path id="Trazado_906658" data-name="Trazado 906658" d="M496.936-7.446a7.952,7.952,0,0,1-7.868-7.958A7.769,7.769,0,0,1,497-23.244a7.777,7.777,0,0,1,7.924,7.96A7.95,7.95,0,0,1,496.936-7.446Z" transform="translate(-100.499 -139.331)" fill="#fefefe"/>
        <path id="Trazado_906659" data-name="Trazado 906659" d="M576.662-161.308a3.672,3.672,0,0,1-1.9,2.932,1.863,1.863,0,0,0-1.081,1.47c-.056.625-.447,1.1-1.126.969a1.1,1.1,0,0,1-.878-1.463,3.826,3.826,0,0,1,1.746-2.53c.541-.337,1.091-.685,1.2-1.409a1.588,1.588,0,0,0-1.35-1.889,2.027,2.027,0,0,0-2.518,1.154,1.061,1.061,0,0,0-.04.222c-.053.822-.117,1.757-1.264,1.526-1.1-.223-.828-1.222-.71-1.963a3.723,3.723,0,0,1,4.039-3.007C575.316-165.034,576.686-163.745,576.662-161.308Z" transform="translate(-162.008 -29.475)" fill="#fefefd"/>
        <path id="Trazado_906660" data-name="Trazado 906660" d="M584.154-119.693a1.043,1.043,0,0,1-.982,1.054.956.956,0,0,1-1.013-1,.919.919,0,0,1,.9-.981C583.7-120.674,584-120.263,584.154-119.693Z" transform="translate(-172.481 -64.033)" fill="#fefaf3"/>
        <path id="Trazado_906661" data-name="Trazado 906661" d="M513.112-2.344a1.312,1.312,0,0,1-.408.928Q510.55.745,508.388,2.9a1.18,1.18,0,0,1-1.874-.028c-.665-.666-1.339-1.325-1.995-2a1.075,1.075,0,0,1-.069-1.687c.575-.557,1.137-.379,1.692.114,1.4,1.25,1.413,1.24,2.737-.081.773-.771,1.545-1.545,2.328-2.307a1.021,1.021,0,0,1,1.246-.211A1.149,1.149,0,0,1,513.112-2.344Z" transform="translate(-112.102 -154.655)" fill="#ffce73"/>
      </g>
    </g>
  </g>
</svg>
