<svg xmlns="http://www.w3.org/2000/svg" xmlns:xlink="http://www.w3.org/1999/xlink" width="121" height="121" viewBox="0 0 121 121">
  <defs>
    <clipPath id="clip-path">
      <rect id="Rectángulo_400938" data-name="Rectángulo 400938" width="121" height="121" transform="translate(0 0)" fill="none"/>
    </clipPath>
    <clipPath id="clip-path-2">
      <rect id="Rectángulo_401073" data-name="Rectángulo 401073" width="92.219" height="41.532" fill="#efb499"/>
    </clipPath>
  </defs>
  <g id="Grupo_1119986" data-name="Grupo 1119986" transform="translate(-1094.273 -9993.002)">
    <g id="Grupo_1118301" data-name="Grupo 1118301" transform="translate(706.605 3980.001)">
      <rect id="Rectángulo_401103" data-name="Rectángulo 401103" width="121" height="121" transform="translate(387.668 6013)" fill="none"/>
      <g id="Grupo_1099348" data-name="Grupo 1099348" transform="translate(387.668 6013)">
        <g id="Grupo_1099282" data-name="Grupo 1099282">
          <g id="Grupo_1099281" data-name="Grupo 1099281" clip-path="url(#clip-path-2)">
            <path id="Trazado_873375" data-name="Trazado 873375" d="M74.8,9.1c-4.139,0-6.28-2.03-8.17-3.821-1.855-1.756-3.452-3.274-6.792-3.274s-4.937,1.517-6.792,3.274C51.161,7.072,49.023,9.1,44.881,9.1s-6.28-2.03-8.169-3.821C34.857,3.525,33.26,2.007,29.92,2.007s-4.937,1.517-6.789,3.274C21.241,7.072,19.1,9.1,14.962,9.1S8.679,7.072,6.789,5.281C4.937,3.525,3.34,2.007,0,2.007V0C4.139,0,6.28,2.033,8.17,3.821c1.855,1.759,3.452,3.274,6.792,3.274S19.9,5.58,21.75,3.824C23.637,2.033,25.781,0,29.92,0s6.283,2.033,8.17,3.821c1.855,1.759,3.452,3.274,6.792,3.274s4.937-1.514,6.792-3.274C53.56,2.033,55.7,0,59.843,0s6.283,2.033,8.17,3.821C69.867,5.58,71.464,7.094,74.8,7.094S79.742,5.58,81.6,3.821C83.483,2.033,85.624,0,89.766,0V2.007c-3.34,0-4.937,1.517-6.792,3.274C81.084,7.072,78.943,9.1,74.8,9.1" transform="translate(2.453 32.43)" fill="#efb499"/>
            <path id="Trazado_873376" data-name="Trazado 873376" d="M74.8,9.1c-4.139,0-6.283-2.03-8.17-3.824-1.855-1.756-3.452-3.27-6.792-3.27s-4.937,1.514-6.792,3.27C51.164,7.072,49.023,9.1,44.881,9.1s-6.283-2.03-8.17-3.824c-1.855-1.756-3.452-3.27-6.792-3.27s-4.937,1.517-6.789,3.27C21.241,7.072,19.1,9.1,14.962,9.1S8.679,7.072,6.789,5.278C4.937,3.522,3.34,2.007,0,2.007V0C4.139,0,6.283,2.03,8.17,3.821c1.855,1.759,3.452,3.274,6.792,3.274S19.9,5.58,21.75,3.821C23.637,2.03,25.781,0,29.92,0S36.2,2.03,38.093,3.821c1.852,1.759,3.449,3.274,6.789,3.274s4.937-1.514,6.792-3.274C53.56,2.03,55.7,0,59.843,0s6.283,2.03,8.17,3.821C69.867,5.58,71.464,7.094,74.8,7.094S79.742,5.58,81.6,3.821C83.486,2.03,85.627,0,89.769,0V2.007c-3.34,0-4.94,1.517-6.8,3.27C81.084,7.072,78.943,9.1,74.8,9.1" transform="translate(1.635 21.62)" fill="#efb499"/>
            <path id="Trazado_873377" data-name="Trazado 873377" d="M74.8,9.1c-4.139,0-6.283-2.03-8.169-3.824-1.855-1.756-3.452-3.27-6.792-3.27s-4.937,1.514-6.792,3.27C51.164,7.072,49.02,9.1,44.881,9.1s-6.283-2.03-8.17-3.824c-1.855-1.756-3.452-3.27-6.792-3.27s-4.937,1.517-6.789,3.27C21.241,7.072,19.1,9.1,14.962,9.1S8.678,7.072,6.789,5.278C4.937,3.522,3.34,2.007,0,2.007V0C4.139,0,6.283,2.03,8.169,3.821c1.851,1.759,3.452,3.274,6.792,3.274S19.9,5.58,21.75,3.821C23.637,2.03,25.781,0,29.92,0S36.2,2.03,38.093,3.821c1.852,1.759,3.449,3.274,6.789,3.274s4.937-1.514,6.792-3.274C53.56,2.03,55.7,0,59.843,0s6.283,2.03,8.17,3.821C69.867,5.58,71.464,7.094,74.8,7.094S79.742,5.58,81.6,3.821C83.486,2.03,85.624,0,89.769,0V2.007c-3.34,0-4.941,1.517-6.8,3.27C81.084,7.072,78.943,9.1,74.8,9.1" transform="translate(0.818 10.81)" fill="#efb499"/>
            <path id="Trazado_873378" data-name="Trazado 873378" d="M74.8,9.1c-4.139,0-6.28-2.03-8.17-3.821-1.855-1.756-3.452-3.27-6.792-3.27s-4.937,1.514-6.789,3.27C51.164,7.069,49.023,9.1,44.881,9.1s-6.28-2.03-8.169-3.821c-1.855-1.756-3.452-3.27-6.792-3.27s-4.937,1.514-6.789,3.267C21.245,7.069,19.1,9.1,14.962,9.1S8.678,7.069,6.789,5.278C4.937,3.522,3.34,2.007,0,2.007V0C4.139,0,6.283,2.03,8.17,3.821c1.855,1.756,3.452,3.27,6.792,3.27S19.9,5.577,21.75,3.821C23.64,2.03,25.781,0,29.92,0s6.28,2.03,8.173,3.821c1.852,1.756,3.449,3.27,6.789,3.27s4.937-1.514,6.792-3.27C53.563,2.03,55.7,0,59.843,0s6.28,2.03,8.17,3.821c1.855,1.756,3.452,3.27,6.792,3.27s4.937-1.514,6.792-3.27C83.486,2.03,85.627,0,89.769,0V2.007c-3.344,0-4.941,1.514-6.8,3.27C81.084,7.069,78.943,9.1,74.8,9.1" transform="translate(0 0.003)" fill="#efb499"/>
          </g>
        </g>
      </g>
      <circle id="Elipse_11504" data-name="Elipse 11504" cx="50.5" cy="50.5" r="50.5" transform="translate(402.668 6031)" fill="#ffce73"/>
      <circle id="Elipse_11503" data-name="Elipse 11503" cx="52.5" cy="52.5" r="52.5" transform="translate(395.668 6021)" fill="#f3f9ff"/>
    </g>
    <g id="Grupo_1118304" data-name="Grupo 1118304" transform="translate(1120.215 10018.806)">
      <rect id="Rectángulo_401104" data-name="Rectángulo 401104" width="62" height="63" transform="translate(5.562 5.196)" fill="none"/>
      <g id="Grupo_1119746" data-name="Grupo 1119746" transform="translate(-120.591 431.747)">
        <path id="Trazado_906607" data-name="Trazado 906607" d="M190.754-408.92a9.717,9.717,0,0,1-2.312,3.084c-3.583,3.558-7.137,7.144-10.723,10.7a2.062,2.062,0,0,0-.682,1.615c.026,7.651.007,15.3.03,22.954a2.381,2.381,0,0,1-.77,1.876c-2.392,2.335-4.747,4.709-7.095,7.09a2,2,0,0,1-1.549.654q-16.912-.023-33.825-.013c-1.661,0-2.364-.711-2.364-2.387q0-27.369,0-54.738c0-1.657.712-2.356,2.394-2.357q20.4,0,40.794,0c1.723,0,2.4.684,2.4,2.439q.009,4.5,0,8.992c.374.107.471-.2.623-.344,1.324-1.3,2.738-2.534,3.923-3.955,2.717-3.255,7.538-2.775,9.155,1.418Z"/>
        <path id="Trazado_906608" data-name="Trazado 906608" d="M177.9-362.307c-.033-.335-.061-.67-.1-1a1.912,1.912,0,0,0-1.974-1.816q-2-.034-3.994,0a1.891,1.891,0,0,0-1.944,1.934q-.054,2,0,3.994a1.881,1.881,0,0,0,1.945,1.936c1.082.039,2.168.035,3.25.006.524-.014.76.074.769.694.031,2.285.058,2.284-2.225,2.284-10.124,0-20.248-.011-30.371.02-.855,0-1.136-.147-1.135-1.084q.049-26.658,0-53.317c0-.9.212-1.112,1.109-1.11q18.808.049,37.616.024c.308,0,.616.028.924.044a1.626,1.626,0,0,1,.318,1.22q.013,5.506,0,11.011a2.336,2.336,0,0,1-.322,1.327l-3.922,3.7c-.019-.193-.029-.5-.083-.8a1.867,1.867,0,0,0-1.853-1.623c-1.36-.029-2.722-.028-4.083,0a1.868,1.868,0,0,0-1.937,1.838c-.05,1.39-.048,2.785,0,4.176a1.849,1.849,0,0,0,1.838,1.843c.8.047,1.608.033,2.412.016.462-.01.569.116.464.6-.307,1.41-.281,1.415-1.731,1.415-.309,0-.619-.007-.928,0a1.957,1.957,0,0,0-2.064,2.024c-.029,1.268-.024,2.537,0,3.805a1.946,1.946,0,0,0,2,2.1c1.3.059,2.6.059,3.9,0a2.016,2.016,0,0,0,2.038-2.175c.035-.733-.327-1.674.158-2.142.462-.445,1.377-.429,2.1-.595.48-.11.969-.183,1.454-.273.442-.013.455.342.518.63a4.3,4.3,0,0,1,.049.925q0,8.444,0,16.888c0,.155,0,.309-.008.464-.056,1.007-.16,1.13-1.145,1.106A17.867,17.867,0,0,1,177.9-362.307Z" transform="translate(-8.681 -8.69)" fill="#ffb937"/>
        <path id="Trazado_906609" data-name="Trazado 906609" d="M334.5-247.947c1.022,0,2.045-.032,3.066,0,.584.019.822-.145.82-.777-.019-6.133-.011-12.267-.012-18.4,0-.276.037-.567-.243-.755a4.108,4.108,0,0,0,2.094-1.4,1.316,1.316,0,0,1,.138.895c.007,6.529-.012,13.057.026,19.585,0,.837-.228,1.055-1.036,1.016-1.358-.066-2.722,0-4.083-.019C335.018-247.808,334.715-247.663,334.5-247.947Z" transform="translate(-165.282 -123.05)" fill="#fcbf08"/>
        <path id="Trazado_906610" data-name="Trazado 906610" d="M346.36-356.83c-.123.135-.241.276-.37.405q-5.116,5.118-10.225,10.244c-.394.4-.656.487-1.011.006a3.07,3.07,0,0,0-.586-.592c-.382-.3-.267-.5.029-.794q5.162-5.135,10.291-10.3c.437-.443.691-.37,1.02.043C345.775-357.489,346.179-357.272,346.36-356.83Z" transform="translate(-164.811 -50.696)" fill="#7a4f00"/>
        <path id="Trazado_906611" data-name="Trazado 906611" d="M360.859-343.818a13.811,13.811,0,0,1,1.168,1.337c.248.365-.218.52-.406.709-3.319,3.339-6.67,6.647-9.962,10.011-.637.65-.934.341-1.373-.128-.388-.414-.81-.662-.154-1.3,3.409-3.335,6.761-6.729,10.134-10.1C360.417-343.443,360.586-343.576,360.859-343.818Z" transform="translate(-177.725 -62.377)" fill="#7d3a1b"/>
        <path id="Trazado_906612" data-name="Trazado 906612" d="M355.334-396.117q0-6.779,0-13.558c1.994-.157,1.994-.157,1.994,1.8,0,2.807-.044,5.615.023,8.42a2.618,2.618,0,0,1-1,2.4A13.673,13.673,0,0,0,355.334-396.117Z" transform="translate(-182.237 -8.717)" fill="#fcbf08"/>
        <path id="Trazado_906613" data-name="Trazado 906613" d="M306.115-157.4c0,2,0,2-2.028,2-1.922,0-1.922,0-1.922-1.926,0-2.083,0-2.083,2.036-2.083C306.115-159.417,306.115-159.417,306.115-157.4Z" transform="translate(-138.957 -212.484)" fill="#ffe9df"/>
        <path id="Trazado_906614" data-name="Trazado 906614" d="M302.165-317.394c0-1.945,0-1.945,1.911-1.945,2.055,0,2.055,0,2.039,2.086-.01,1.372-.546,1.923-1.874,1.923C302.165-315.329,302.165-315.329,302.165-317.394Z" transform="translate(-138.957 -82.303)" fill="#ffe9df"/>
        <path id="Trazado_906615" data-name="Trazado 906615" d="M402.991-374.9c.295.253.441.363.57.491,1.134,1.131,2.245,2.285,3.406,3.388.427.406.421.679-.017,1.023a3.322,3.322,0,0,0-.522.522c-.3.374-.537.362-.882,0-1.109-1.155-2.237-2.295-3.4-3.395-.437-.414-.375-.656.026-1.021A8.135,8.135,0,0,0,402.991-374.9Z" transform="translate(-220.099 -37.071)" fill="#7e8d93"/>
        <path id="Trazado_906616" data-name="Trazado 906616" d="M304.173-262.235c-2.007,0-2.007,0-2.007-2.036v-.65c0-1.3.278-1.5,1.572-1.274.387.068.409.328.48.579a1.551,1.551,0,0,0,1.138,1.239c1.231.205.728,1.108.728,1.722,0,.8-.7.3-1.079.406A3.182,3.182,0,0,1,304.173-262.235Z" transform="translate(-138.958 -125.499)" fill="#ffe9df"/>
        <path id="Trazado_906617" data-name="Trazado 906617" d="M338.34-143.283l-4.268,4.227c0-1.226,0-2.536,0-3.847,0-.275.149-.381.409-.381Q336.409-143.281,338.34-143.283Z" transform="translate(-164.93 -225.616)" fill="#fbe839"/>
        <path id="Trazado_906618" data-name="Trazado 906618" d="M422.125-379.958c0,.077-.012.231-.017.385-.009.253-.035.558-.254.662-.272.129-.416-.187-.582-.351-.987-.974-1.972-1.95-2.945-2.937-.156-.158-.475-.285-.362-.56.1-.25.421-.216.658-.259A2.986,2.986,0,0,1,422.125-379.958Z" transform="translate(-233.201 -30.428)" fill="#efb499"/>
        <path id="Trazado_906619" data-name="Trazado 906619" d="M324.747-287.022l3.137,2.969c-1.219.29-2.377.572-3.539.836-.248.057-.513.083-.409-.346C324.223-284.743,324.492-285.928,324.747-287.022Z" transform="translate(-156.66 -108.61)" fill="#fbddaf"/>
        <path id="Trazado_906620" data-name="Trazado 906620" d="M238.132-388.8c0-1.206-.011-2.413,0-3.619.012-1.036.245-1.273,1.247-1.3.556-.014,1.114-.018,1.67,0a2.9,2.9,0,0,1,2.548,4.458.843.843,0,0,0,.034.98,2.919,2.919,0,0,1-2.531,4.436c-3.147.06-3,.267-2.973-2.825C238.137-387.379,238.132-388.09,238.132-388.8Z" transform="translate(-86.825 -21.747)"/>
        <path id="Trazado_906621" data-name="Trazado 906621" d="M240.451-272.524c0,.588.008,1.176,0,1.764a1.966,1.966,0,0,1-1.949,2.151c-1.327.072-2.663.066-3.991.005a1.993,1.993,0,0,1-2.017-2.109q-.054-1.856,0-3.714a2.012,2.012,0,0,1,2.2-2.1c1.238-.012,2.476-.02,3.714,0a1.963,1.963,0,0,1,2.041,2.05C240.464-273.825,240.451-273.174,240.451-272.524Z" transform="translate(-82.22 -117.144)" fill="#010000"/>
        <path id="Trazado_906622" data-name="Trazado 906622" d="M236.494-215.37c-.619,0-1.238.012-1.857,0a2.01,2.01,0,0,1-2.156-2.057c-.045-1.267-.044-2.539,0-3.806a2.011,2.011,0,0,1,2.15-2.066c1.237-.026,2.476-.03,3.714,0a1.977,1.977,0,0,1,2.087,2.1q.026,1.857,0,3.714a1.985,1.985,0,0,1-2.082,2.108C237.732-215.355,237.113-215.371,236.494-215.37Z" transform="translate(-82.205 -160.463)" fill="#010000"/>
        <path id="Trazado_906623" data-name="Trazado 906623" d="M295.279-215.389c-.65,0-1.3.019-1.949,0a1.948,1.948,0,0,1-2.02-1.974q-.053-1.994,0-3.99a1.913,1.913,0,0,1,1.944-1.952c1.329-.046,2.661-.046,3.99,0a1.931,1.931,0,0,1,1.982,2.019c.038,1.3.04,2.6,0,3.9a1.96,1.96,0,0,1-2.089,2C296.517-215.374,295.9-215.388,295.279-215.389Z" transform="translate(-130.099 -160.445)" fill="#010000"/>
        <path id="Trazado_906624" data-name="Trazado 906624" d="M179.355-387.843c0-.959-.025-1.919,0-2.877a2.932,2.932,0,0,1,2.975-2.918,2.894,2.894,0,0,1,2.964,2.917c.038,1.917.007,3.835.012,5.753,0,.684-.269,1.188-.993,1.191s-1-.513-1.014-1.184a3.821,3.821,0,0,1,0-.741c.158-.893-.261-1.063-1.068-1.047-.671.014-.972.146-.874.867a4.119,4.119,0,0,1-.021,1.2.954.954,0,0,1-1,.91.948.948,0,0,1-.986-1.011C179.336-385.8,179.356-386.822,179.355-387.843Z" transform="translate(-38.978 -21.823)"/>
        <path id="Trazado_906625" data-name="Trazado 906625" d="M174.132-272.619c0-.68-.028-1.362.007-2.041a1.9,1.9,0,0,1,1.9-1.885q2.04-.052,4.082,0a1.9,1.9,0,0,1,1.906,1.977c.035,1.267.028,2.536.007,3.8a1.958,1.958,0,0,1-2.049,2.139c-1.266.05-2.537.051-3.8,0a1.968,1.968,0,0,1-2.053-2.139c-.014-.618,0-1.237,0-1.856Z" transform="translate(-34.726 -117.118)"/>
        <path id="Trazado_906626" data-name="Trazado 906626" d="M236.492-329.7c.681,0,1.362-.021,2.041,0a1.892,1.892,0,0,1,1.9,1.883c.037,1.36.035,2.723,0,4.083a1.859,1.859,0,0,1-1.8,1.881c-1.42.055-2.846.054-4.267,0a1.911,1.911,0,0,1-1.879-2.016c-.041-1.267-.044-2.538,0-3.8a1.979,1.979,0,0,1,2.149-2.038c.618-.01,1.237,0,1.856,0Z" transform="translate(-82.211 -73.86)"/>
        <path id="Trazado_906627" data-name="Trazado 906627" d="M236.476-169.781c.68,0,1.362-.02,2.041,0a1.891,1.891,0,0,1,1.908,1.872c.039,1.36.036,2.723,0,4.083a1.9,1.9,0,0,1-1.972,1.911c-1.3.036-2.6.033-3.9,0a1.951,1.951,0,0,1-2.075-2.021c-.046-1.267-.044-2.537,0-3.8a1.977,1.977,0,0,1,2.138-2.05c.619-.011,1.237,0,1.856,0Z" transform="translate(-82.208 -204.041)"/>
        <path id="Trazado_906628" data-name="Trazado 906628" d="M182-219.382c0,.68.026,1.362-.007,2.041a1.909,1.909,0,0,1-1.946,1.94q-1.993.055-3.989,0a1.91,1.91,0,0,1-1.953-1.934c-.036-1.329-.032-2.66,0-3.989a1.9,1.9,0,0,1,1.9-1.985c1.359-.053,2.722-.052,4.081,0a1.91,1.91,0,0,1,1.911,1.979C182.021-220.682,182-220.032,182-219.382Z" transform="translate(-34.689 -160.442)"/>
        <path id="Trazado_906629" data-name="Trazado 906629" d="M178.085-329.7c.649,0,1.3-.016,1.948,0a1.836,1.836,0,0,1,1.941,1.819c.052,1.42.051,2.845,0,4.265a1.766,1.766,0,0,1-1.792,1.768c-1.42.051-2.845.052-4.264,0A1.815,1.815,0,0,1,174.1-323.7c-.038-1.39-.041-2.783,0-4.173a1.84,1.84,0,0,1,1.845-1.82c.71-.03,1.422-.006,2.133-.006Z" transform="translate(-34.687 -73.862)"/>
        <path id="Trazado_906630" data-name="Trazado 906630" d="M182-165.846c0,.649.024,1.3,0,1.947a1.847,1.847,0,0,1-1.912,1.957q-2.038.065-4.08,0a1.854,1.854,0,0,1-1.9-1.965c-.029-1.329-.033-2.659,0-3.988a1.861,1.861,0,0,1,1.953-1.908q1.993-.036,3.988,0a1.868,1.868,0,0,1,1.947,1.916C182.022-167.208,182-166.526,182-165.846Z" transform="translate(-34.688 -204.014)"/>
        <path id="Trazado_906631" data-name="Trazado 906631" d="M296.521-388.452a23.3,23.3,0,0,1,.117-2.847,2.89,2.89,0,0,1,3.015-2.338,2.918,2.918,0,0,1,2.81,2.488c.112.849-.238,1.413-.909,1.423-.64.01-.926-.366-1.027-.969s-.443-1.056-1.131-.959c-.671.095-.876.582-.868,1.218.016,1.176.006,2.352,0,3.528,0,.6.221,1.036.855,1.127a.915.915,0,0,0,1.112-.854c.13-.787.527-1.221,1.326-.993s.726.921.6,1.541a2.99,2.99,0,0,1-2.96,2.33,2.862,2.862,0,0,1-2.831-2.451A21.479,21.479,0,0,1,296.521-388.452Z" transform="translate(-134.363 -21.821)" fill="#010100"/>
        <path id="Trazado_906632" data-name="Trazado 906632" d="M248.636-382.179c-.023-.652-.14-1.173.675-1.114.683.05,1.266.2,1.282.989s-.527.968-1.23,1.032C248.383-381.181,248.661-381.845,248.636-382.179Z" transform="translate(-95.368 -30.24)" fill="#f3d400"/>
        <path id="Trazado_906633" data-name="Trazado 906633" d="M248.55-360.639c.025-.611-.19-1.21.718-1.136.694.056,1.263.187,1.253,1-.009.741-.52.918-1.193.971C248.517-359.743,248.49-360.186,248.55-360.639Z" transform="translate(-95.297 -47.754)" fill="#f5d600"/>
        <path id="Trazado_906634" data-name="Trazado 906634" d="M243.449-263.85c0-1.944,0-1.944,1.907-1.944,2.029,0,2.029,0,2.029,2.009,0,1.942,0,1.942-1.91,1.942C243.449-261.844,243.449-261.844,243.449-263.85Z" transform="translate(-91.161 -125.89)" fill="#ffe9df"/>
        <path id="Trazado_906635" data-name="Trazado 906635" d="M247.385-210.6c0,1.959,0,1.959-1.988,1.959-1.948,0-1.948,0-1.948-1.9,0-2.045,0-2.045,2.078-2.045C247.385-212.594,247.385-212.594,247.385-210.6Z" transform="translate(-91.161 -169.196)" fill="#ffe9df"/>
        <path id="Trazado_906636" data-name="Trazado 906636" d="M306.118-210.546c0,1.9,0,1.9-1.931,1.9-2.018,0-2.018,0-2.018-2.007,0-1.942,0-1.942,1.984-1.942C306.118-212.593,306.118-212.593,306.118-210.546Z" transform="translate(-138.96 -169.197)" fill="#ffe9df"/>
        <path id="Trazado_906637" data-name="Trazado 906637" d="M192.047-381.283c.023,1.089-.573,1.5-1.63,1.139a.489.489,0,0,1-.224-.127,5.255,5.255,0,0,1,.209-2.5.91.91,0,0,1,.925-.272.858.858,0,0,1,.713.747A9.384,9.384,0,0,1,192.047-381.283Z" transform="translate(-47.745 -30.419)" fill="#fcdc00"/>
        <path id="Trazado_906638" data-name="Trazado 906638" d="M186.665-265.8c1.986,0,1.986,0,1.986,1.969s0,1.982-1.967,1.982c-2.031,0-2.031,0-2.031-2.009C184.654-265.8,184.654-265.8,186.665-265.8Z" transform="translate(-43.3 -125.888)" fill="#ffe9df"/>
        <path id="Trazado_906639" data-name="Trazado 906639" d="M243.446-317.414c0-1.925,0-1.925,1.926-1.925,2.011,0,2.011,0,2.011,2.033,0,1.977,0,1.977-1.98,1.977C243.446-315.33,243.446-315.33,243.446-317.414Z" transform="translate(-91.158 -82.303)" fill="#ffe9df"/>
        <path id="Trazado_906640" data-name="Trazado 906640" d="M245.439-159.416c1.944,0,1.944,0,1.944,1.914,0,2.1,0,2.1-2.139,2.1-1.8,0-1.8,0-1.8-1.78v-.278C243.446-159.416,243.446-159.416,245.439-159.416Z" transform="translate(-91.158 -212.484)" fill="#ffe9df"/>
        <path id="Trazado_906641" data-name="Trazado 906641" d="M186.657-212.6c1.994,0,1.994,0,1.994,1.953,0,2,0,2-1.958,2-2.039,0-2.039,0-2.039-2.008C184.654-212.6,184.654-212.6,186.657-212.6Z" transform="translate(-43.3 -169.195)" fill="#ffe9df"/>
        <path id="Trazado_906642" data-name="Trazado 906642" d="M186.651-315.332c-2,0-2,0-2-1.961,0-2.049,0-2.049,2.086-2.049,1.912,0,1.912,0,1.912,1.951v.093C188.65-315.332,188.65-315.332,186.651-315.332Z" transform="translate(-43.298 -82.301)" fill="#ffe9df"/>
        <path id="Trazado_906643" data-name="Trazado 906643" d="M186.619-159.419c2.031,0,2.031,0,2.031,2.018,0,1.992,0,1.992-1.973,1.992-2.026,0-2.026,0-2.026-2.028C184.651-159.419,184.651-159.419,186.619-159.419Z" transform="translate(-43.298 -212.482)" fill="#ffe9df"/>
      </g>
    </g>
  </g>
</svg>
