<svg xmlns="http://www.w3.org/2000/svg" xmlns:xlink="http://www.w3.org/1999/xlink" width="121" height="121" viewBox="0 0 121 121">
  <defs>
    <clipPath id="clip-path">
      <rect id="Rectángulo_400938" data-name="Rectángulo 400938" width="121" height="121" transform="translate(0 0)" fill="none"/>
    </clipPath>
    <clipPath id="clip-path-2">
      <rect id="Rectángulo_401073" data-name="Rectángulo 401073" width="92.219" height="41.532" fill="#efb499"/>
    </clipPath>
  </defs>
  <g id="Grupo_1119991" data-name="Grupo 1119991" transform="translate(-5394.496 1699.774)">
    <g id="Grupo_1118310" data-name="Grupo 1118310" transform="translate(5006.828 -7712.774)">
      <rect id="Rectángulo_401103" data-name="Rectángulo 401103" width="121" height="121" transform="translate(387.668 6013)" fill="none"/>
      <g id="Grupo_1099348" data-name="Grupo 1099348" transform="translate(387.668 6013)">
        <g id="Grupo_1099282" data-name="Grupo 1099282">
          <g id="Grupo_1099281" data-name="Grupo 1099281" clip-path="url(#clip-path-2)">
            <path id="Trazado_873375" data-name="Trazado 873375" d="M74.8,9.1c-4.139,0-6.28-2.03-8.17-3.821-1.855-1.756-3.452-3.274-6.792-3.274s-4.937,1.517-6.792,3.274C51.161,7.072,49.023,9.1,44.881,9.1s-6.28-2.03-8.169-3.821C34.857,3.525,33.26,2.007,29.92,2.007s-4.937,1.517-6.789,3.274C21.241,7.072,19.1,9.1,14.962,9.1S8.679,7.072,6.789,5.281C4.937,3.525,3.34,2.007,0,2.007V0C4.139,0,6.28,2.033,8.17,3.821c1.855,1.759,3.452,3.274,6.792,3.274S19.9,5.58,21.75,3.824C23.637,2.033,25.781,0,29.92,0s6.283,2.033,8.17,3.821c1.855,1.759,3.452,3.274,6.792,3.274s4.937-1.514,6.792-3.274C53.56,2.033,55.7,0,59.843,0s6.283,2.033,8.17,3.821C69.867,5.58,71.464,7.094,74.8,7.094S79.742,5.58,81.6,3.821C83.483,2.033,85.624,0,89.766,0V2.007c-3.34,0-4.937,1.517-6.792,3.274C81.084,7.072,78.943,9.1,74.8,9.1" transform="translate(2.453 32.43)" fill="#efb499"/>
            <path id="Trazado_873376" data-name="Trazado 873376" d="M74.8,9.1c-4.139,0-6.283-2.03-8.17-3.824-1.855-1.756-3.452-3.27-6.792-3.27s-4.937,1.514-6.792,3.27C51.164,7.072,49.023,9.1,44.881,9.1s-6.283-2.03-8.17-3.824c-1.855-1.756-3.452-3.27-6.792-3.27s-4.937,1.517-6.789,3.27C21.241,7.072,19.1,9.1,14.962,9.1S8.679,7.072,6.789,5.278C4.937,3.522,3.34,2.007,0,2.007V0C4.139,0,6.283,2.03,8.17,3.821c1.855,1.759,3.452,3.274,6.792,3.274S19.9,5.58,21.75,3.821C23.637,2.03,25.781,0,29.92,0S36.2,2.03,38.093,3.821c1.852,1.759,3.449,3.274,6.789,3.274s4.937-1.514,6.792-3.274C53.56,2.03,55.7,0,59.843,0s6.283,2.03,8.17,3.821C69.867,5.58,71.464,7.094,74.8,7.094S79.742,5.58,81.6,3.821C83.486,2.03,85.627,0,89.769,0V2.007c-3.34,0-4.94,1.517-6.8,3.27C81.084,7.072,78.943,9.1,74.8,9.1" transform="translate(1.635 21.62)" fill="#efb499"/>
            <path id="Trazado_873377" data-name="Trazado 873377" d="M74.8,9.1c-4.139,0-6.283-2.03-8.169-3.824-1.855-1.756-3.452-3.27-6.792-3.27s-4.937,1.514-6.792,3.27C51.164,7.072,49.02,9.1,44.881,9.1s-6.283-2.03-8.17-3.824c-1.855-1.756-3.452-3.27-6.792-3.27s-4.937,1.517-6.789,3.27C21.241,7.072,19.1,9.1,14.962,9.1S8.678,7.072,6.789,5.278C4.937,3.522,3.34,2.007,0,2.007V0C4.139,0,6.283,2.03,8.169,3.821c1.851,1.759,3.452,3.274,6.792,3.274S19.9,5.58,21.75,3.821C23.637,2.03,25.781,0,29.92,0S36.2,2.03,38.093,3.821c1.852,1.759,3.449,3.274,6.789,3.274s4.937-1.514,6.792-3.274C53.56,2.03,55.7,0,59.843,0s6.283,2.03,8.17,3.821C69.867,5.58,71.464,7.094,74.8,7.094S79.742,5.58,81.6,3.821C83.486,2.03,85.624,0,89.769,0V2.007c-3.34,0-4.941,1.517-6.8,3.27C81.084,7.072,78.943,9.1,74.8,9.1" transform="translate(0.818 10.81)" fill="#efb499"/>
            <path id="Trazado_873378" data-name="Trazado 873378" d="M74.8,9.1c-4.139,0-6.28-2.03-8.17-3.821-1.855-1.756-3.452-3.27-6.792-3.27s-4.937,1.514-6.789,3.27C51.164,7.069,49.023,9.1,44.881,9.1s-6.28-2.03-8.169-3.821c-1.855-1.756-3.452-3.27-6.792-3.27s-4.937,1.514-6.789,3.267C21.245,7.069,19.1,9.1,14.962,9.1S8.678,7.069,6.789,5.278C4.937,3.522,3.34,2.007,0,2.007V0C4.139,0,6.283,2.03,8.17,3.821c1.855,1.756,3.452,3.27,6.792,3.27S19.9,5.577,21.75,3.821C23.64,2.03,25.781,0,29.92,0s6.28,2.03,8.173,3.821c1.852,1.756,3.449,3.27,6.789,3.27s4.937-1.514,6.792-3.27C53.563,2.03,55.7,0,59.843,0s6.28,2.03,8.17,3.821c1.855,1.756,3.452,3.27,6.792,3.27s4.937-1.514,6.792-3.27C83.486,2.03,85.627,0,89.769,0V2.007c-3.344,0-4.941,1.514-6.8,3.27C81.084,7.069,78.943,9.1,74.8,9.1" transform="translate(0 0.003)" fill="#efb499"/>
          </g>
        </g>
      </g>
      <circle id="Elipse_11504" data-name="Elipse 11504" cx="50.5" cy="50.5" r="50.5" transform="translate(402.668 6031)" fill="#ffce73"/>
      <circle id="Elipse_11503" data-name="Elipse 11503" cx="52.5" cy="52.5" r="52.5" transform="translate(395.668 6021)" fill="#f3f9ff"/>
    </g>
    <g id="Grupo_1118311" data-name="Grupo 1118311" transform="translate(5420.438 -1673.971)">
      <rect id="Rectángulo_401104" data-name="Rectángulo 401104" width="68" height="69" transform="translate(-0.438 -0.804)" fill="none"/>
      <g id="Grupo_1119748" data-name="Grupo 1119748" transform="translate(-341.543 199.837)">
        <path id="Trazado_906662" data-name="Trazado 906662" d="M344.106-164.968q0-12.837,0-25.673c0-3.107,1.51-4.619,4.615-4.623,2.74,0,5.481-.013,8.221.009.62,0,1.06-.011,1.11-.829.045-.737.645-.92,1.317-.914,1.5.012,3-.017,4.5.016a.965.965,0,0,0,.968-.552c2.631-4.267,7.979-4.285,10.526-.02a1.026,1.026,0,0,0,1.062.567c1.464-.017,2.928,0,4.392-.009.66,0,1.334.162,1.337.882,0,.975.565.855,1.173.854,2.815-.007,5.631-.013,8.446,0a4.011,4.011,0,0,1,4.346,4.341c.007,1.088-.331,2.363.125,3.211.469.871,1.926.693,2.928,1.053a17.3,17.3,0,0,1,11.272,17.839,5.749,5.749,0,0,0,1.333,4.055c.478.67,1.044,1.277,1.53,1.942a2.435,2.435,0,0,1-.606,3.794,1.332,1.332,0,0,0-.692,1.836,1.6,1.6,0,0,1-.457,1.842c-.424.408-.386.675-.1,1.128a1.635,1.635,0,0,1-.092,2.1,3.686,3.686,0,0,0-.934,2.668,2.381,2.381,0,0,1-2.416,2.553,9.267,9.267,0,0,1-3.239-.2c-3.362-.739-5.09.275-5.9,3.585a1.361,1.361,0,0,1-1.675,1.223c-.917-.121-1.158.249-1.085,1.109a21.647,21.647,0,0,1,.008,2.588,3.918,3.918,0,0,1-3.552,3.843,11.483,11.483,0,0,1-1.348.056q-21.115,0-42.23,0c-3.478,0-4.88-1.418-4.88-4.931Q344.105-152.3,344.106-164.968Z"/>
        <path id="Trazado_906663" data-name="Trazado 906663" d="M371.732-101.046c-.02-.373-.057-.746-.057-1.119,0-15.153.014-30.306-.034-45.459,0-1.195.35-1.43,1.439-1.376,1.8.09,3.6.041,5.4.015.532-.008.824.084.866.7.053.784.6,1.042,1.338,1.041q10.747-.008,21.494,0a1.494,1.494,0,0,0,1.339-.664c.007-.851.445-1.076,1.26-1.03,1.3.072,2.6.018,3.906.02,1.5,0,1.808.522,1.132,1.913a18.43,18.43,0,0,0-8.035,5.152c-.3.348-.675.267-1.036.268-2.59.007-5.179,0-7.769,0a5.23,5.23,0,0,0-.787.014c-.663.1-1.122.422-1.093,1.175s.48,1.056,1.18,1.057q3.1.008,6.192.006h1.31c-.5,1.117-.99,2.117-1.406,3.145-.207.513-.594.37-.937.373-1.651.014-3.3.01-4.954,0-.751,0-1.374.166-1.384,1.08-.009.892.606,1.15,1.345,1.164,1.5.027,3,.025,4.5,0,.54-.008.721.127.616.707a15.647,15.647,0,0,0-.1,4.041c.048.6-.1.785-.711.768-1.387-.04-2.777-.017-4.165-.011-.774,0-1.464.168-1.48,1.132-.017.99.671,1.125,1.456,1.121,1.539-.007,3.078.018,4.616-.013a.876.876,0,0,1,1.041.729c.264.919.663,1.8,1.049,2.81-2.268,0-4.431,0-6.594,0-.8,0-1.589.028-1.566,1.11.023,1.032.8,1.14,1.595,1.143,2.139.006,4.278,0,6.418,0A3.035,3.035,0,0,1,402.4-117.3c.563,2.755.554,2.766-2.228,2.766h-6.981c-.225,0-.451-.008-.675,0-.785.034-1.446.247-1.419,1.205.026.914.668,1.05,1.414,1.048,2.965-.007,5.93.018,8.895-.017.769-.009,1.03.067.809.969-.63,2.572-.578,2.585-3.253,2.585-2.139,0-4.278.008-6.418,0-.793,0-1.471.128-1.444,1.119.027.957.723,1.131,1.492,1.134,2.657.009,5.314,0,8.022,0a8.4,8.4,0,0,1-.9,2.363c-.516,1.218-.115,1.9,1.206,1.911,2.963.035,5.927.041,8.89.058.343,1.009.255,1.213-.654,1.213q-18.555.008-37.11,0A.835.835,0,0,1,371.732-101.046Z" transform="translate(-21.33 -40.078)" fill="#ffe7ba"/>
        <path id="Trazado_906664" data-name="Trazado 906664" d="M498.647-92.267a36.713,36.713,0,0,0,2.085-6.834,18.253,18.253,0,0,0,.145-6.377,7.442,7.442,0,0,0-1.685-3.254,14.952,14.952,0,0,1,3.763-22.147,14.206,14.206,0,0,1,15.755,0c5.186,3.226,7.521,8.1,7.044,14.221a8.706,8.706,0,0,0,2.117,5.99c.178.242.369.473.561.7.881,1.065.892,1.078-.275,1.894a2.544,2.544,0,0,0-.936,2.806c.144.787-.162,1.137-.86,1.238a1.148,1.148,0,0,0-1.128.916,1.179,1.179,0,0,0,.781,1.348c.745.364.991.739.375,1.5a3.8,3.8,0,0,0-.6,2.475c.005.846-.423,1.037-1.115.965-1.228-.128-2.451-.351-3.681-.409-3.326-.158-5.2,1.1-6.4,4.174-.137.349-.123.8-.744.8C508.818-92.277,503.794-92.267,498.647-92.267Z" transform="translate(-117.559 -52.275)" fill="#e1cab0"/>
        <path id="Trazado_906665" data-name="Trazado 906665" d="M355.6-110.447c-1.013-.079-1.409-.738-1.518-1.644a7.573,7.573,0,0,1-.011-.9q0-25.384,0-50.769c0-2.205.432-2.643,2.607-2.644,2.7,0,5.4.015,8.106-.011.641-.006.949.127.953.86,0,.752-.337.85-.962.843-2.4-.025-4.8-.015-7.205-.008-1.439,0-1.748.3-1.749,1.686q-.005,24.652,0,49.305c0,1.383.307,1.668,1.763,1.668q18.463,0,36.927,0c.487,0,.975.018,1.462.027a.936.936,0,0,1,.419,1.254c-.158.479-.574.4-.942.4q-19.705,0-39.411,0A1.132,1.132,0,0,1,355.6-110.447Z" transform="translate(-7.712 -26.593)" fill="#827582"/>
        <path id="Trazado_906666" data-name="Trazado 906666" d="M425.485-181.706c-2.961,0-5.922-.024-8.882.017-.78.011-1.06-.212-1.016-1.006a28.215,28.215,0,0,0,0-3.259c-.046-.77.253-.948.96-.92,1.235.049,2.474-.013,3.71.023a1.516,1.516,0,0,0,1.686-1.129,3.6,3.6,0,0,1,3.55-2.589,3.6,3.6,0,0,1,3.517,2.622,1.482,1.482,0,0,0,1.6,1.1c1.311-.038,2.624.013,3.935-.02.569-.015.805.134.781.748-.046,1.16-.062,2.325-.007,3.484.036.749-.228.949-.954.94-2.96-.037-5.921-.015-8.882-.015Z" transform="translate(-55.368 -7.883)" fill="#e2a66e"/>
        <path id="Trazado_906667" data-name="Trazado 906667" d="M360.881,63.825c.487-.016.974-.045,1.46-.045q18.905,0,37.811,0c1.5,0,1.581-.116,1.1-1.536.825-.01,1.65-.024,2.476-.029a1.211,1.211,0,0,0,1.366-1.4c-.006-.413.029-.828-.006-1.238-.058-.675.1-1.019.9-1.02s.925.373.892,1.034c-.037.749,0,1.5-.012,2.252a1.83,1.83,0,0,1-1.984,2.075c-1.422.088-2.851.059-4.278.059q-19.26.005-38.521,0A2,2,0,0,1,360.881,63.825Z" transform="translate(-12.995 -200.865)" fill="#665c66"/>
        <path id="Trazado_906668" data-name="Trazado 906668" d="M539.975-166.252c1.2-.012,2.4-.052,3.594-.029a1.685,1.685,0,0,1,1.784,1.751c.041.822-.033,1.651.024,2.471.053.759-.174,1.047-.984,1.06-.92.015-.809-.535-.805-1.1,0-.375-.013-.75,0-1.124.037-.957-.5-1.359-1.374-1.4-.747-.037-1.5-.034-2.245-.049A1.167,1.167,0,0,1,539.975-166.252Z" transform="translate(-151.486 -26.692)" fill="#675d67"/>
        <path id="Trazado_906669" data-name="Trazado 906669" d="M372.046,59.641q18.425,0,36.85.016c.851,0,1.409-.107,1.23-1.129.469.026,1.114-.379,1.339.287.257.761-.07,1.075-.963,1.072-10.088-.031-20.177-.012-30.265-.007-2.4,0-4.8.011-7.2-.012C372.709,59.864,372.283,60.106,372.046,59.641Z" transform="translate(-21.644 -200.765)" fill="#cbcbd0"/>
        <path id="Trazado_906670" data-name="Trazado 906670" d="M519.422-166.35q0,.79,0,1.581c-1.838.016-3.676.016-5.513.057-.6.013-.781-.217-.772-.793s.067-.928.778-.908C515.746-166.363,517.584-166.368,519.422-166.35Z" transform="translate(-130.933 -26.593)" fill="#827582"/>
        <path id="Trazado_906671" data-name="Trazado 906671" d="M519.27-147.059a6.131,6.131,0,0,1,.007-.784c.1-.794-.234-1.044-1.014-1.01-1.268.055-2.542.066-3.809,0-.759-.042-1.263.141-1.483.9-.148-.882.209-1.156,1.1-1.119,1.834.075,3.672.015,5.508.053.4.008,1.035-.318,1.071.548.03.726,0,1.35-.935,1.4C519.567-147.067,519.418-147.065,519.27-147.059Z" transform="translate(-130.784 -40.018)" fill="#c9c9ce"/>
        <path id="Trazado_906672" data-name="Trazado 906672" d="M401.815,3.977c0,.75.012,1.5,0,2.251a2.733,2.733,0,0,1-2.785,2.891c-1.537.046-3.078.043-4.615,0a2.729,2.729,0,0,1-2.824-2.857q-.051-2.307,0-4.615a2.686,2.686,0,0,1,2.73-2.822c1.574-.057,3.153-.052,4.727,0a2.705,2.705,0,0,1,2.765,2.9C401.826,2.476,401.815,3.226,401.815,3.977Z" transform="translate(-36.763 -154.562)"/>
        <path id="Trazado_906673" data-name="Trazado 906673" d="M401.822-115.973c0,.713.008,1.426,0,2.139a2.743,2.743,0,0,1-2.812,2.981c-1.536.057-3.079.06-4.615,0a2.725,2.725,0,0,1-2.8-2.885q-.047-2.25,0-4.5a2.724,2.724,0,0,1,2.873-2.913q2.25-.045,4.5,0a2.724,2.724,0,0,1,2.85,2.93C401.832-117.474,401.822-116.723,401.822-115.973Z" transform="translate(-36.77 -61.635)"/>
        <path id="Trazado_906674" data-name="Trazado 906674" d="M401.815-56.008c0,.75.012,1.5,0,2.251a2.726,2.726,0,0,1-2.777,2.9c-1.537.051-3.078.046-4.615,0a2.726,2.726,0,0,1-2.831-2.849q-.051-2.306,0-4.614a2.709,2.709,0,0,1,2.835-2.835c1.5-.037,3-.032,4.5,0a2.722,2.722,0,0,1,2.885,2.9C401.826-57.509,401.815-56.758,401.815-56.008Z" transform="translate(-36.762 -108.11)"/>
        <path id="Trazado_906675" data-name="Trazado 906675" d="M522.149-96.68c0-2.026-.008-4.052,0-6.078.007-1.321.344-1.658,1.668-1.66q6.191-.011,12.382,0c1.29,0,1.566.3,1.6,1.608.013.6-.169,1.332.112,1.755.3.455,1.1.124,1.678.225,2.72.471,4.332,2.826,3.3,4.989a4.265,4.265,0,0,1-4.253,2.382c-.757-.009-.885.2-.848.845.042.748.022,1.5.007,2.251-.026,1.216-.345,1.539-1.542,1.548q-2.138.017-4.277,0c-1.414-.01-1.845-.611-1.325-1.908a3,3,0,0,0-.087-2.7,1.169,1.169,0,0,0-2.2-.054,2.908,2.908,0,0,0-.15,2.7c.532,1.384.135,1.957-1.361,1.967-1.051.007-2.1.01-3.152,0-1.134-.012-1.536-.4-1.546-1.563C522.136-92.478,522.149-94.579,522.149-96.68Z" transform="translate(-137.915 -74.613)"/>
        <path id="Trazado_906676" data-name="Trazado 906676" d="M453.876-182.249a1.177,1.177,0,0,1,1.26-1.245,1.144,1.144,0,0,1,1.257,1.245,1.171,1.171,0,0,1-1.244,1.277A1.209,1.209,0,0,1,453.876-182.249Z" transform="translate(-85.032 -13.363)" fill="#060403"/>
        <path id="Trazado_906677" data-name="Trazado 906677" d="M407.378,11.766c0,2.945,0,2.945-2.953,2.945-2.761,0-2.761,0-2.761-2.814,0-3,0-3,2.911-3C407.378,8.9,407.378,8.9,407.378,11.766Z" transform="translate(-44.587 -162.397)" fill="#ffb937"/>
        <path id="Trazado_906678" data-name="Trazado 906678" d="M407.361-108.155c0,2.863,0,2.863-2.906,2.863-2.811,0-2.811,0-2.811-2.862,0-2.957,0-2.957,2.81-2.957C407.361-111.111,407.361-111.111,407.361-108.155Z" transform="translate(-44.571 -69.433)" fill="#7d3a1b"/>
        <path id="Trazado_906679" data-name="Trazado 906679" d="M407.363-48.263c0,2.976,0,2.976-3.018,2.976-2.7,0-2.7,0-2.7-2.745,0-3.075,0-3.075,3.034-3.075C407.363-51.107,407.363-51.107,407.363-48.263Z" transform="translate(-44.57 -115.914)" fill="#ffce73"/>
        <path id="Trazado_906680" data-name="Trazado 906680" d="M537.718-94.265c1.575,0,3.15.025,4.723-.012.645-.016.878.214.837.843-.036.56-.019,1.124,0,1.686.036,1.328.65,1.759,1.873,1.279a3.409,3.409,0,0,1,2.414-.074,1.341,1.341,0,0,1,1.075,1.169,1.354,1.354,0,0,1-1.039,1.316,3.278,3.278,0,0,1-2.513-.082c-1.177-.482-1.773-.082-1.807,1.208-.025.936-.049,1.877.008,2.81.046.751-.231.936-.958.942-.961.008-1.653.005-1.461-1.316a3.62,3.62,0,0,0-.706-2.325,3.474,3.474,0,0,0-3.72-1.715,4.225,4.225,0,0,0-2.969,3.712,5.034,5.034,0,0,0-.013,1.01c.057.53-.206.62-.659.619s-.684-.1-.682-.62q.024-4.892,0-9.783c0-.583.279-.677.764-.672C534.494-94.255,536.106-94.265,537.718-94.265Z" transform="translate(-145.641 -82.472)" fill="#efb499"/>
      </g>
    </g>
  </g>
</svg>
