<svg xmlns="http://www.w3.org/2000/svg" xmlns:xlink="http://www.w3.org/1999/xlink" width="121" height="121" viewBox="0 0 121 121">
  <defs>
    <clipPath id="clip-path">
      <rect id="Rectángulo_400938" data-name="Rectángulo 400938" width="121" height="121" transform="translate(0 0)" fill="none"/>
    </clipPath>
    <clipPath id="clip-path-2">
      <rect id="Rectángulo_401073" data-name="Rectángulo 401073" width="92.219" height="41.532" fill="#efb499"/>
    </clipPath>
  </defs>
  <g id="Grupo_1119988" data-name="Grupo 1119988" transform="translate(-390.777 -9993.002)">
    <g id="Grupo_1118300" data-name="Grupo 1118300" transform="translate(3.109 3980.001)">
      <rect id="Rectángulo_401103" data-name="Rectángulo 401103" width="121" height="121" transform="translate(387.668 6013)" fill="none"/>
      <g id="Grupo_1099348" data-name="Grupo 1099348" transform="translate(387.668 6013)">
        <g id="Grupo_1099282" data-name="Grupo 1099282">
          <g id="Grupo_1099281" data-name="Grupo 1099281" clip-path="url(#clip-path-2)">
            <path id="Trazado_873375" data-name="Trazado 873375" d="M74.8,9.1c-4.139,0-6.28-2.03-8.17-3.821-1.855-1.756-3.452-3.274-6.792-3.274s-4.937,1.517-6.792,3.274C51.161,7.072,49.023,9.1,44.881,9.1s-6.28-2.03-8.169-3.821C34.857,3.525,33.26,2.007,29.92,2.007s-4.937,1.517-6.789,3.274C21.241,7.072,19.1,9.1,14.962,9.1S8.679,7.072,6.789,5.281C4.937,3.525,3.34,2.007,0,2.007V0C4.139,0,6.28,2.033,8.17,3.821c1.855,1.759,3.452,3.274,6.792,3.274S19.9,5.58,21.75,3.824C23.637,2.033,25.781,0,29.92,0s6.283,2.033,8.17,3.821c1.855,1.759,3.452,3.274,6.792,3.274s4.937-1.514,6.792-3.274C53.56,2.033,55.7,0,59.843,0s6.283,2.033,8.17,3.821C69.867,5.58,71.464,7.094,74.8,7.094S79.742,5.58,81.6,3.821C83.483,2.033,85.624,0,89.766,0V2.007c-3.34,0-4.937,1.517-6.792,3.274C81.084,7.072,78.943,9.1,74.8,9.1" transform="translate(2.453 32.43)" fill="#efb499"/>
            <path id="Trazado_873376" data-name="Trazado 873376" d="M74.8,9.1c-4.139,0-6.283-2.03-8.17-3.824-1.855-1.756-3.452-3.27-6.792-3.27s-4.937,1.514-6.792,3.27C51.164,7.072,49.023,9.1,44.881,9.1s-6.283-2.03-8.17-3.824c-1.855-1.756-3.452-3.27-6.792-3.27s-4.937,1.517-6.789,3.27C21.241,7.072,19.1,9.1,14.962,9.1S8.679,7.072,6.789,5.278C4.937,3.522,3.34,2.007,0,2.007V0C4.139,0,6.283,2.03,8.17,3.821c1.855,1.759,3.452,3.274,6.792,3.274S19.9,5.58,21.75,3.821C23.637,2.03,25.781,0,29.92,0S36.2,2.03,38.093,3.821c1.852,1.759,3.449,3.274,6.789,3.274s4.937-1.514,6.792-3.274C53.56,2.03,55.7,0,59.843,0s6.283,2.03,8.17,3.821C69.867,5.58,71.464,7.094,74.8,7.094S79.742,5.58,81.6,3.821C83.486,2.03,85.627,0,89.769,0V2.007c-3.34,0-4.94,1.517-6.8,3.27C81.084,7.072,78.943,9.1,74.8,9.1" transform="translate(1.635 21.62)" fill="#efb499"/>
            <path id="Trazado_873377" data-name="Trazado 873377" d="M74.8,9.1c-4.139,0-6.283-2.03-8.169-3.824-1.855-1.756-3.452-3.27-6.792-3.27s-4.937,1.514-6.792,3.27C51.164,7.072,49.02,9.1,44.881,9.1s-6.283-2.03-8.17-3.824c-1.855-1.756-3.452-3.27-6.792-3.27s-4.937,1.517-6.789,3.27C21.241,7.072,19.1,9.1,14.962,9.1S8.678,7.072,6.789,5.278C4.937,3.522,3.34,2.007,0,2.007V0C4.139,0,6.283,2.03,8.169,3.821c1.851,1.759,3.452,3.274,6.792,3.274S19.9,5.58,21.75,3.821C23.637,2.03,25.781,0,29.92,0S36.2,2.03,38.093,3.821c1.852,1.759,3.449,3.274,6.789,3.274s4.937-1.514,6.792-3.274C53.56,2.03,55.7,0,59.843,0s6.283,2.03,8.17,3.821C69.867,5.58,71.464,7.094,74.8,7.094S79.742,5.58,81.6,3.821C83.486,2.03,85.624,0,89.769,0V2.007c-3.34,0-4.941,1.517-6.8,3.27C81.084,7.072,78.943,9.1,74.8,9.1" transform="translate(0.818 10.81)" fill="#efb499"/>
            <path id="Trazado_873378" data-name="Trazado 873378" d="M74.8,9.1c-4.139,0-6.28-2.03-8.17-3.821-1.855-1.756-3.452-3.27-6.792-3.27s-4.937,1.514-6.789,3.27C51.164,7.069,49.023,9.1,44.881,9.1s-6.28-2.03-8.169-3.821c-1.855-1.756-3.452-3.27-6.792-3.27s-4.937,1.514-6.789,3.267C21.245,7.069,19.1,9.1,14.962,9.1S8.678,7.069,6.789,5.278C4.937,3.522,3.34,2.007,0,2.007V0C4.139,0,6.283,2.03,8.17,3.821c1.855,1.756,3.452,3.27,6.792,3.27S19.9,5.577,21.75,3.821C23.64,2.03,25.781,0,29.92,0s6.28,2.03,8.173,3.821c1.852,1.756,3.449,3.27,6.789,3.27s4.937-1.514,6.792-3.27C53.563,2.03,55.7,0,59.843,0s6.28,2.03,8.17,3.821c1.855,1.756,3.452,3.27,6.792,3.27s4.937-1.514,6.792-3.27C83.486,2.03,85.627,0,89.769,0V2.007c-3.344,0-4.941,1.514-6.8,3.27C81.084,7.069,78.943,9.1,74.8,9.1" transform="translate(0 0.003)" fill="#efb499"/>
          </g>
        </g>
      </g>
      <circle id="Elipse_11504" data-name="Elipse 11504" cx="50.5" cy="50.5" r="50.5" transform="translate(402.668 6031)" fill="#ffce73"/>
      <circle id="Elipse_11503" data-name="Elipse 11503" cx="52.5" cy="52.5" r="52.5" transform="translate(395.668 6021)" fill="#f3f9ff"/>
    </g>
    <g id="Grupo_1118303" data-name="Grupo 1118303" transform="translate(417.719 10018.806)">
      <rect id="Rectángulo_401104" data-name="Rectángulo 401104" width="68" height="69" transform="translate(0.059 -0.804)" fill="none"/>
      <g id="Grupo_1119744" data-name="Grupo 1119744" transform="translate(-228.42 405.393)">
        <path id="Trazado_906537" data-name="Trazado 906537" d="M236.633-377.357c-.577-.291-.619-.8-.618-1.371.013-5.382-.012-10.763.029-16.145.006-.818-.226-1.073-1-.962a6.178,6.178,0,0,1-1.145,0,1.4,1.4,0,0,1-1.474-1.421c-.042-1.017-.042-2.039,0-3.056a1.435,1.435,0,0,1,1.466-1.449c.253-.02.509-.007.764-.007H291.3c1.86,0,2.255.388,2.256,2.211,0,.733.022,1.466-.007,2.2a1.457,1.457,0,0,1-1.568,1.535c-.657.038-1.548-.306-1.906.152-.33.421-.131,1.273-.131,1.935q-.006,15.19-.017,30.379a1.093,1.093,0,0,0,.8,1.229,4.215,4.215,0,0,1,2.809,4.051c.055,2.546.034,5.095.008,7.642a4.966,4.966,0,0,1-3.544,4.8c-.574.177-.663.419-.649.92.028.986,0,1.974.011,2.961.007.522-.1.984-.675,1.1-.611.128-.957-.208-1.1-.784a2.08,2.08,0,0,1-.237-1.2c0-3.184-.005-6.368,0-9.552,0-1.218.365-1.771,1.122-1.773.74,0,1.13.588,1.145,1.777s0,2.356.008,3.534c0,.244-.1.578.156.7.3.139.533-.147.73-.338a3.373,3.373,0,0,0,1.015-2.406c.056-2.323.068-4.649,0-6.972a2.62,2.62,0,0,0-2.208-2.726c-.338-.093-.687-.148-1.017-.262-1.29-.443-2.443-.549-3.248.893a2.4,2.4,0,0,1-1.391.969,1.572,1.572,0,0,0-1.127,1.827c.054,1.877.025,3.757.013,5.635-.008,1.229-.464,1.912-1.25,1.919-.8.007-1.2-.611-1.209-1.924-.011-1.942-.024-3.885.008-5.826a1.392,1.392,0,0,0-.94-1.555,4.5,4.5,0,0,1-2.289-1.946,1.228,1.228,0,0,0-1.358-.626,10.277,10.277,0,0,0-5.09,1.994c-2,1.469-4.028,2.9-6.043,4.357-1.155.832-1.665.832-2.833-.021-.951-.695-1.906-1.387-2.82-2.129-.562-.456-.97-.566-1.5.086-.492.6-.483.987.109,1.5,1.565,1.352,3.1,2.739,4.674,4.081a1.8,1.8,0,0,0,2.272.214c2.708-1.484,5.4-3,8.1-4.489,1.413-.778,2.147-.41,2.341,1.185.1,4,.032,8,.037,12a1.639,1.639,0,0,1-.287.99c-.139.6-.462,1.011-1.13.866-.628-.136-.672-.657-.67-1.2q.013-5.726,0-11.462c-.422-.084-.675.209-.964.366-2.481,1.352-4.95,2.725-7.432,4.076-.205.111-.421.163-.4.442.078.9-.341,1.866.876,2.516a2.684,2.684,0,0,1,1,3.372,3.005,3.005,0,0,1-2.9,1.928,3,3,0,0,1-2.747-2.138,3.016,3.016,0,0,1,1.22-3.346,2.013,2.013,0,0,0-.021-3.2c-1.8-1.47-3.534-3.014-5.257-4.57a2.536,2.536,0,0,0-1.861-.711c-5.985.031-11.969.018-17.954.017-1.785,0-2.229-.452-2.233-2.266,0-.478-.018-.956.006-1.432.055-1.113.4-1.541,1.539-1.645.679-.062.451-.5.452-.813q.02-6.446,0-12.892c0-.568.03-1.079.606-1.372.752-.2,1.124-.01,1.341.7a4.8,4.8,0,0,1,.115,1.419c0,3.716,0,7.432,0,11.147,0,1.414.048,1.5,1.409,1.517,3.271.038,6.542.012,9.813.014a1.135,1.135,0,0,0,.794-.25,1.455,1.455,0,0,0,.056-1.842c-1.509-2.8-2.992-5.614-4.514-8.408a4.745,4.745,0,0,1-.627-1.489,1.045,1.045,0,0,1,.563-1.2,1.08,1.08,0,0,1,1.314.231,2.631,2.631,0,0,1,.483.706c1.452,2.758,2.942,5.5,4.4,8.251a1.467,1.467,0,0,0,1.618,1,2.664,2.664,0,0,1,2.188.79,8,8,0,0,0,6.963,2.237,40.631,40.631,0,0,1,4.2-.025,2.115,2.115,0,0,0,1.451-.369,14.179,14.179,0,0,1,8.688-3.248c.679-.04.927-.4.931-1.057.006-1.091-.122-1.253-1.257-1.265a4.383,4.383,0,0,1-2.229-.387,3.271,3.271,0,0,1-1.87-2.99c.006-2.323,0-4.646,0-6.968,0-.7.087-1.354.891-1.611,1.085,0,1.361.228,1.383,1.314.044,2.224,0,4.448.021,6.672a1.436,1.436,0,0,0,1.316,1.643,11.466,11.466,0,0,1-.765-5.017,5.329,5.329,0,0,1,1.221-3.333c2.34-2.232,4.726-2.107,6.808.373a3.733,3.733,0,0,0,2.339,1.345c1.249.205,1.609.65,1.667,1.911a12.566,12.566,0,0,1-.67,4.505c.828.014,1.179-.324,1.242-1.263.068-1.015.02-2.035.023-3.053s.014-2.036,0-3.053a4.052,4.052,0,0,0-5.386-3.929,3.812,3.812,0,0,1-2.952-.179,3.859,3.859,0,0,0-2.9.5c-1,.423-1.4.265-1.862-.71-.057-.806.475-1.206,1.084-1.53a6,6,0,0,1,4.173-.564,5.809,5.809,0,0,0,2.451.008,6.543,6.543,0,0,1,5.27,1.191,1.988,1.988,0,0,0,.084-.962q.007-5.73,0-11.461c0-1.841,0-1.842-1.8-1.842h-30.85c-.445,0-.892.014-1.336-.029a1.185,1.185,0,0,1-1.229-1.1,1.318,1.318,0,0,1,1.283-1.187,8.971,8.971,0,0,1,1.428-.048h33.951c.318,0,.636.005.954,0,1.248-.029,1.461-.385.968-1.618a1.46,1.46,0,0,0-1.085-.263q-25.171,0-50.341.013c-1.431,0-2.864.03-4.3.041-.678.005-1.076.209-1.072.987,0,.8.508.83,1.084.838,4.68.062,9.36.038,14.039.077a1.177,1.177,0,0,1,1.145,1.192,1.145,1.145,0,0,1-.726.98c-1.584.161-3.173.053-4.76.071-1.906.022-3.814-.024-5.72.016-1.4.03-1.445.1-1.446,1.48q-.01,7.293,0,14.586a4.515,4.515,0,0,1-.122,1.419A.93.93,0,0,1,236.633-377.357Z"/>
        <path id="Trazado_906538" data-name="Trazado 906538" d="M375.92-185.008c-.235-1.186-.674-1.416-1.7-.848-2.836,1.568-5.674,3.135-8.492,4.735a1.837,1.837,0,0,1-2.415-.272q-2.512-2.276-5.109-4.457c-.531-.444-.5-.707-.071-1.2,1.156-1.32,1.131-1.339,2.49-.306.988.751,1.993,1.48,2.963,2.253a1.178,1.178,0,0,0,1.629,0c2.211-1.61,4.467-3.16,6.66-4.794a10.71,10.71,0,0,1,5.573-2,.786.786,0,0,1,.883.5,4.783,4.783,0,0,0,2.863,2.374c.531.161.655.42.648.942-.03,2.293-.009,4.586-.015,6.879,0,.651.082,1.289.888,1.315.883.029.968-.647.967-1.332,0-2.261.013-4.522-.011-6.783-.006-.534.072-.859.677-1.021a4.6,4.6,0,0,0,2.778-2.189c.191-.319.313-.566.791-.433,1.008.281,2.042.467,3.059.72a2.7,2.7,0,0,1,2.251,2.8q.045,3.63,0,7.261a3.11,3.11,0,0,1-2.42,3.2c0-1.7-.014-3.373.007-5.048.008-.674-.114-1.31-.895-1.3s-.864.658-.863,1.326c.007,3.661-.011,7.323-.021,10.983a51.223,51.223,0,0,0-5.309-.106c-.367-.353-.289-.818-.3-1.253-.027-1.014.035-2.03-.037-3.043-.027-.378-.09-.826-.58-.852-.567-.03-.633.456-.662.864-.073,1.013-.009,2.029-.037,3.043-.012.433.071.9-.317,1.243l-4-.035a1.858,1.858,0,0,1-.3-1.36c-.008-2.574-.052-5.149.014-7.721C377.549-182.531,377.458-184.031,375.92-185.008Z" transform="translate(-101.437 -169.746)" fill="#ffb937"/>
        <path id="Trazado_906539" data-name="Trazado 906539" d="M268.426-335.559c.071.317-.109.372-.369.372-3.968,0-7.937-.014-11.9,0-.661,0-.491-.432-.492-.772-.007-4.317-.016-8.635.005-12.952,0-.831-.205-1.373-1.149-1.342q.006-1.186.012-2.371c.941.009,1.14-.54,1.137-1.369-.02-5.407,0-10.814-.027-16.221,0-.7.143-.907.876-.9,3.435.042,6.87.019,10.305.011.411,0,.821-.056,1.232-.087-.022.675-.574.555-.954.575-1.176.061-2.354.021-3.532.024-1.559,0-3.119-.01-4.678,0-1.1.01-1.178.081-1.182,1.213-.012,3.087,0,6.174,0,9.261q0,11.171,0,22.341c0,.286,0,.573,0,.859.025,1.121.088,1.2,1.2,1.205,2.8.012,5.6,0,8.4,0A2.209,2.209,0,0,1,268.426-335.559Z" transform="translate(-17.896 -24.735)" fill="#e7ecf1"/>
        <path id="Trazado_906540" data-name="Trazado 906540" d="M452.532-155.878a2.25,2.25,0,0,1,1.867,2.592q.012,5.294.007,10.588l-1.875.054Q452.531-149.261,452.532-155.878Z" transform="translate(-178.049 -198.875)" fill="#fedd2e"/>
        <path id="Trazado_906541" data-name="Trazado 906541" d="M483.239-110.453q.017-2.19.034-4.381c0-.617.117-1.185.88-1.218.833-.036.967.559.975,1.217q.026,2.19.045,4.379c-.19.436-.408.86-.967.858S483.415-110,483.239-110.453Z" transform="translate(-202.885 -231.086)" fill="#040302"/>
        <path id="Trazado_906542" data-name="Trazado 906542" d="M280.436-339.881a1.687,1.687,0,0,1-1.013.187c-3.021,0-6.042-.019-9.063.012-.714.007-1-.147-.994-.943q.039-16.837,0-33.675c0-.788.266-.957.989-.948,2.893.034,5.787.021,8.681.005.349,0,.781.189,1.026-.266l.413-.742a2.514,2.514,0,0,1,2.3,0c.191.809.786.849,1.476.848,10.947-.012,21.893,0,32.84-.028.814,0,1.056.154,1.047,1.02-.05,4.706-.024,9.413-.024,14.139-.4.02-.56-.306-.8-.47a6.065,6.065,0,0,0-5.448-.823,2,2,0,0,1-1.285,0,6.049,6.049,0,0,0-4.967.525c-.5.28-.883.652-.621,1.31a2.446,2.446,0,0,1-1.749,2.243,1,1,0,0,0-.624,1.066c0,2.515-.045,5.031,0,7.546a3.129,3.129,0,0,0,2.82,2.889c.347.037.7,0,1.049.036.484.057,1.241-.271,1.395.219a5.974,5.974,0,0,1,.039,2.263c-.029.309-.461.271-.73.31q-1.415.2-2.835.372a9.943,9.943,0,0,0-5.18,2.241,4.594,4.594,0,0,1-3.311,1.061c-2.257-.093-4.521-.041-6.782-.015a2.025,2.025,0,0,1-1.391-.473c-.814-.661-1.653-1.294-2.5-1.908a2.6,2.6,0,0,0-2.5-.542c-.524.189-.662-.147-.849-.5q-2.363-4.407-4.738-8.808c-.12-.224-.233-.452-.36-.672a.869.869,0,0,0-1.222-.4c-.519.252-.554.736-.354,1.233a5.259,5.259,0,0,0,.278.5c1.559,2.911,3.086,5.84,4.694,8.723A2.414,2.414,0,0,1,280.436-339.881Z" transform="translate(-29.906 -20.414)" fill="#f4f7f8"/>
        <path id="Trazado_906543" data-name="Trazado 906543" d="M281.546-389.015l-2.3,0a1.132,1.132,0,0,0-.776-.919c-1.968-.168-3.939-.041-5.909-.072-1.273-.02-2.547-.035-3.82.007-.872.029-.9-.545-.9-1.133,0-.569-.025-1.218.858-1.168.159.009.318,0,.477,0q25.116,0,50.231,0a2.051,2.051,0,0,1,.941.077,5.7,5.7,0,0,1,.116,1.873c.031.338-.164.441-.468.432-.254-.008-.509,0-.763,0q-18.082,0-36.163-.008C282.353-389.921,281.726-389.877,281.546-389.015Z" transform="translate(-28.677 -7.65)" fill="#7d3a1b"/>
        <path id="Trazado_906544" data-name="Trazado 906544" d="M468.106-264.957c0-.489-.039-1.033.008-1.57a2.354,2.354,0,0,1,1.794-1.989,1.856,1.856,0,0,1,2.229.82,5.64,5.64,0,0,0,3.119,2.219c.275.078.494.1.545.5a6.013,6.013,0,0,1-2.811,5.859,1.829,1.829,0,0,1-2.131-.019A5.833,5.833,0,0,1,468.106-264.957Z" transform="translate(-190.621 -107.689)" fill="#fed7a0"/>
        <path id="Trazado_906545" data-name="Trazado 906545" d="M465.711-290.521a5.185,5.185,0,0,0,3.563-.05c2.386-.628,4.9,1.451,5,4.1.085,2.162.045,4.331.012,6.5-.018,1.176-.7,1.7-2.076,1.6a10.772,10.772,0,0,0,.916-5.189c-.015-.9-.374-1.371-1.292-1.4a3.4,3.4,0,0,1-2.545-1.325c-2.07-2.463-3.967-2.643-6.456-.594-.446-.039-.371-.377-.318-.635a4.8,4.8,0,0,1,1.5-2.707A1.635,1.635,0,0,1,465.711-290.521Z" transform="translate(-186.093 -89.845)" fill="#a5754a"/>
        <path id="Trazado_906546" data-name="Trazado 906546" d="M299.074-392.57q-8.31.011-16.619.02-17.193,0-34.386,0c-1.117,0-1.561.676-1.176,1.761.171.48.57.325.887.327,2.8.012,5.6,0,8.405.012.338,0,.706-.113,1,.163-5,.007-9.991.008-14.986.03-.5,0-.637-.168-.652-.659-.057-1.793-.076-1.792,1.726-1.793q27.35,0,54.7,0C298.342-392.709,298.741-392.858,299.074-392.57Z" transform="translate(-7.396 -7.296)" fill="#7d3a1b"/>
        <path id="Trazado_906547" data-name="Trazado 906547" d="M452.813-290.619a3.343,3.343,0,0,0-2.875,3.634c-1.7,2.334-1.27,4.867-.68,7.409a9.218,9.218,0,0,0,.389,1.072c-1.3.2-1.987-.345-2-1.613-.015-2.26-.035-4.521.032-6.779.026-.9-.221-1.341-1.154-1.265.959-.455,1.279-1.409,1.749-2.244.429.638.918.582,1.546.247A3.4,3.4,0,0,1,452.813-290.619Z" transform="translate(-173.195 -89.746)" fill="#916440"/>
        <path id="Trazado_906548" data-name="Trazado 906548" d="M280.1-173.3l1.534,1.371c-.071.412-.4.234-.609.234-4.037.012-8.074,0-12.11.02-.671,0-.929-.273-.92-.9.008-.579.251-.843.877-.84,3.623.021,7.247.009,10.871.01A.6.6,0,0,1,280.1-173.3Z" transform="translate(-28.798 -184.694)" fill="#7d3a1b"/>
        <path id="Trazado_906549" data-name="Trazado 906549" d="M265.681-173.812c-3.63,0-7.26,0-10.891-.016-.571,0-.967.021-.959.788.008.711.363.744.9.743,3.917-.012,7.834-.006,11.751-.008a1.007,1.007,0,0,0,.731-.135c-.006.518-.413.251-.6.253-2.611.024-5.223.017-7.835.016-2.58,0-5.16-.037-7.739.009-.771.014-.867-.291-.877-.95-.011-.689.14-.922.887-.916,4.586.036,9.172.011,13.759.019C265.1-174.01,265.458-174.164,265.681-173.812Z" transform="translate(-14.376 -184.183)" fill="#7d3a1b"/>
        <path id="Trazado_906550" data-name="Trazado 906550" d="M508.932-218.037v3.833c-1-.223-1.95-.455-2.911-.645-.5-.1-.653-.345-.667-.849-.059-2.042-.077-2.053,1.912-2.07A8.4,8.4,0,0,0,508.932-218.037Z" transform="translate(-220.758 -148.601)" fill="#f2f5f6"/>
        <path id="Trazado_906551" data-name="Trazado 906551" d="M477.87-200.848c.211.352.305.809.677,1.021.827.473.422.854-.046,1.254-1.575,1.343-3.607,1.007-4.978-.867a2.746,2.746,0,0,0,1.314-1.409C475.848-200.77,476.859-200.864,477.87-200.848Z" transform="translate(-195.027 -162.502)" fill="#fdd6a0"/>
        <path id="Trazado_906552" data-name="Trazado 906552" d="M337.956-189.188c.57.042,1.024.63,1.574,1.029,1.182.858,1.126.846.282,1.987-.524.708-.918.741-1.5.1-.419-.468-.955-.83-1.4-1.281a.969.969,0,0,1-.148-1.225A1.158,1.158,0,0,1,337.956-189.188Z" transform="translate(-84.301 -171.934)" fill="#fcd59f"/>
        <path id="Trazado_906553" data-name="Trazado 906553" d="M483.426-207.5a3.285,3.285,0,0,1-3.033,0v-1.573a3.983,3.983,0,0,0,2.62.063c.354-.144.438.058.428.37C483.428-208.258,483.43-207.877,483.426-207.5Z" transform="translate(-200.583 -155.853)" fill="#f6c48a"/>
        <path id="Trazado_906554" data-name="Trazado 906554" d="M388.647-102.608a1.157,1.157,0,0,1-1.2,1.185,1.127,1.127,0,0,1-1.122-1.258,1.114,1.114,0,0,1,1.148-1.135A1.146,1.146,0,0,1,388.647-102.608Z" transform="translate(-124.504 -240.98)" fill="#f1f1f1"/>
        <path id="Trazado_906555" data-name="Trazado 906555" d="M381.425-173.69h4.205c0,.276-.226.32-.362.421C383.351-171.845,383.35-171.847,381.425-173.69Z" transform="translate(-120.539 -184.469)" fill="#2aa9f0"/>
        <path id="Trazado_906556" data-name="Trazado 906556" d="M302.7-359.782h19.68c1.389,0,1.524.138,1.526,1.531,0,.924-.016,1.847,0,2.77a1.027,1.027,0,0,1-1.142,1.2c-.191,0-.382,0-.573,0H283.22c-1.542,0-1.716-.17-1.716-1.668,0-.8,0-1.592,0-2.388,0-1.275.164-1.442,1.422-1.442q8.789,0,17.578,0Z" transform="translate(-39.722 -33.958)"/>
        <path id="Trazado_906557" data-name="Trazado 906557" d="M293-317c-3.246,0-6.491-.006-9.737,0-.693,0-1.38-.081-1.356-.936.022-.758.654-.893,1.326-.892q9.737.014,19.473.008c.9,0,1.438.493,1.244,1.13-.2.655-.741.689-1.31.687Q297.819-317,293-317Z" transform="translate(-40.048 -67.09)" fill="#020202"/>
        <path id="Trazado_906558" data-name="Trazado 906558" d="M292.933-295.068c-3.244,0-6.489-.008-9.733.007-.665,0-1.3-.078-1.3-.876.007-.772.625-.9,1.3-.9q9.733.016,19.465,0c.661,0,1.287.089,1.289.9,0,.824-.639.878-1.292.876C299.421-295.074,296.177-295.068,292.933-295.068Z" transform="translate(-40.045 -84.867)"/>
        <path id="Trazado_906559" data-name="Trazado 906559" d="M372.235-231.305c0,.6-.006,1.207,0,1.81a1.022,1.022,0,0,1-1.171,1.161q-1.809,0-3.619,0c-.763,0-1.176-.326-1.158-1.15q.041-1.856,0-3.714c-.016-.752.293-1.139,1.052-1.139q1.9,0,3.809,0a.968.968,0,0,1,1.087,1.128C372.226-232.575,372.234-231.94,372.235-231.305Z" transform="translate(-108.296 -135.417)"/>
        <path id="Trazado_906560" data-name="Trazado 906560" d="M369.265-268.9c-.669,0-1.337,0-2.006,0a.835.835,0,0,1-.933-.949q0-2.006,0-4.012a.833.833,0,0,1,.922-.96c1.337-.007,2.675,0,4.012,0a.888.888,0,0,1,1,1q.01,1.958,0,3.917c0,.715-.383,1.031-1.087,1.015C370.539-268.909,369.9-268.9,369.265-268.9Z" transform="translate(-108.326 -102.672)"/>
        <path id="Trazado_906561" data-name="Trazado 906561" d="M288.725-273.123c-1.879,0-3.758-.016-5.636.009-.663.009-1.212-.163-1.2-.884s.574-.872,1.228-.869q5.636.023,11.273,0c.635,0,1.187.1,1.178.889s-.582.859-1.2.855C292.483-273.129,290.6-273.123,288.725-273.123Z" transform="translate(-40.033 -102.638)"/>
        <path id="Trazado_906562" data-name="Trazado 906562" d="M326.978-251.182c-.605,0-1.21,0-1.815,0s-.991-.285-.976-.907c.014-.57.369-.838.947-.833,1.242.01,2.484,0,3.725,0,.569,0,.914.258.922.849a.8.8,0,0,1-.893.883C328.252-251.175,327.615-251.183,326.978-251.182Z" transform="translate(-74.245 -120.389)" fill="#010101"/>
        <path id="Trazado_906563" data-name="Trazado 906563" d="M310.167-348.874c-6.177,0-12.354-.018-18.53.022-.827.005-.9-.307-.917-.989-.014-.734.176-.964.95-.962q18.483.039,36.965,0c.861,0,.94.32.971,1.044.036.836-.332.9-1,.9C322.457-348.882,316.312-348.874,310.167-348.874Z" transform="translate(-47.176 -41.219)" fill="#ffb937"/>
        <path id="Trazado_906564" data-name="Trazado 906564" d="M376.3-222.755c-1.195.381-1.048-.414-1.149-1.222-.158-1.259.611-1.01,1.354-1.1,1.071-.137,1.095.381,1.156,1.228C377.747-222.71,377.225-222.567,376.3-222.755Z" transform="translate(-115.449 -142.886)" fill="#09614d"/>
        <path id="Trazado_906565" data-name="Trazado 906565" d="M376.613-263.41c-1.375,0-1.288-.008-1.4-1.294-.1-1.1.372-1.238,1.286-1.18,1.362.086,1.093-.173,1.209,1.359C377.786-263.469,377.364-263.233,376.613-263.41Z" transform="translate(-115.503 -109.894)" fill="#09614d"/>
      </g>
    </g>
  </g>
</svg>
