<svg xmlns="http://www.w3.org/2000/svg" xmlns:xlink="http://www.w3.org/1999/xlink" width="121" height="121" viewBox="0 0 121 121">
  <defs>
    <clipPath id="clip-path">
      <rect id="Rectángulo_400938" data-name="Rectángulo 400938" width="121" height="121" transform="translate(0 0)" fill="none"/>
    </clipPath>
    <clipPath id="clip-path-2">
      <rect id="Rectángulo_401073" data-name="Rectángulo 401073" width="92.219" height="41.532" fill="#efb499"/>
    </clipPath>
  </defs>
  <g id="Grupo_1119987" data-name="Grupo 1119987" transform="translate(-743.273 -9993.002)">
    <g id="Grupo_1118302" data-name="Grupo 1118302" transform="translate(355.605 3980.001)">
      <rect id="Rectángulo_401103" data-name="Rectángulo 401103" width="121" height="121" transform="translate(387.668 6013)" fill="none"/>
      <g id="Grupo_1099348" data-name="Grupo 1099348" transform="translate(387.668 6013)">
        <g id="Grupo_1099282" data-name="Grupo 1099282">
          <g id="Grupo_1099281" data-name="Grupo 1099281" clip-path="url(#clip-path-2)">
            <path id="Trazado_873375" data-name="Trazado 873375" d="M74.8,9.1c-4.139,0-6.28-2.03-8.17-3.821-1.855-1.756-3.452-3.274-6.792-3.274s-4.937,1.517-6.792,3.274C51.161,7.072,49.023,9.1,44.881,9.1s-6.28-2.03-8.169-3.821C34.857,3.525,33.26,2.007,29.92,2.007s-4.937,1.517-6.789,3.274C21.241,7.072,19.1,9.1,14.962,9.1S8.679,7.072,6.789,5.281C4.937,3.525,3.34,2.007,0,2.007V0C4.139,0,6.28,2.033,8.17,3.821c1.855,1.759,3.452,3.274,6.792,3.274S19.9,5.58,21.75,3.824C23.637,2.033,25.781,0,29.92,0s6.283,2.033,8.17,3.821c1.855,1.759,3.452,3.274,6.792,3.274s4.937-1.514,6.792-3.274C53.56,2.033,55.7,0,59.843,0s6.283,2.033,8.17,3.821C69.867,5.58,71.464,7.094,74.8,7.094S79.742,5.58,81.6,3.821C83.483,2.033,85.624,0,89.766,0V2.007c-3.34,0-4.937,1.517-6.792,3.274C81.084,7.072,78.943,9.1,74.8,9.1" transform="translate(2.453 32.43)" fill="#efb499"/>
            <path id="Trazado_873376" data-name="Trazado 873376" d="M74.8,9.1c-4.139,0-6.283-2.03-8.17-3.824-1.855-1.756-3.452-3.27-6.792-3.27s-4.937,1.514-6.792,3.27C51.164,7.072,49.023,9.1,44.881,9.1s-6.283-2.03-8.17-3.824c-1.855-1.756-3.452-3.27-6.792-3.27s-4.937,1.517-6.789,3.27C21.241,7.072,19.1,9.1,14.962,9.1S8.679,7.072,6.789,5.278C4.937,3.522,3.34,2.007,0,2.007V0C4.139,0,6.283,2.03,8.17,3.821c1.855,1.759,3.452,3.274,6.792,3.274S19.9,5.58,21.75,3.821C23.637,2.03,25.781,0,29.92,0S36.2,2.03,38.093,3.821c1.852,1.759,3.449,3.274,6.789,3.274s4.937-1.514,6.792-3.274C53.56,2.03,55.7,0,59.843,0s6.283,2.03,8.17,3.821C69.867,5.58,71.464,7.094,74.8,7.094S79.742,5.58,81.6,3.821C83.486,2.03,85.627,0,89.769,0V2.007c-3.34,0-4.94,1.517-6.8,3.27C81.084,7.072,78.943,9.1,74.8,9.1" transform="translate(1.635 21.62)" fill="#efb499"/>
            <path id="Trazado_873377" data-name="Trazado 873377" d="M74.8,9.1c-4.139,0-6.283-2.03-8.169-3.824-1.855-1.756-3.452-3.27-6.792-3.27s-4.937,1.514-6.792,3.27C51.164,7.072,49.02,9.1,44.881,9.1s-6.283-2.03-8.17-3.824c-1.855-1.756-3.452-3.27-6.792-3.27s-4.937,1.517-6.789,3.27C21.241,7.072,19.1,9.1,14.962,9.1S8.678,7.072,6.789,5.278C4.937,3.522,3.34,2.007,0,2.007V0C4.139,0,6.283,2.03,8.169,3.821c1.851,1.759,3.452,3.274,6.792,3.274S19.9,5.58,21.75,3.821C23.637,2.03,25.781,0,29.92,0S36.2,2.03,38.093,3.821c1.852,1.759,3.449,3.274,6.789,3.274s4.937-1.514,6.792-3.274C53.56,2.03,55.7,0,59.843,0s6.283,2.03,8.17,3.821C69.867,5.58,71.464,7.094,74.8,7.094S79.742,5.58,81.6,3.821C83.486,2.03,85.624,0,89.769,0V2.007c-3.34,0-4.941,1.517-6.8,3.27C81.084,7.072,78.943,9.1,74.8,9.1" transform="translate(0.818 10.81)" fill="#efb499"/>
            <path id="Trazado_873378" data-name="Trazado 873378" d="M74.8,9.1c-4.139,0-6.28-2.03-8.17-3.821-1.855-1.756-3.452-3.27-6.792-3.27s-4.937,1.514-6.789,3.27C51.164,7.069,49.023,9.1,44.881,9.1s-6.28-2.03-8.169-3.821c-1.855-1.756-3.452-3.27-6.792-3.27s-4.937,1.514-6.789,3.267C21.245,7.069,19.1,9.1,14.962,9.1S8.678,7.069,6.789,5.278C4.937,3.522,3.34,2.007,0,2.007V0C4.139,0,6.283,2.03,8.17,3.821c1.855,1.756,3.452,3.27,6.792,3.27S19.9,5.577,21.75,3.821C23.64,2.03,25.781,0,29.92,0s6.28,2.03,8.173,3.821c1.852,1.756,3.449,3.27,6.789,3.27s4.937-1.514,6.792-3.27C53.563,2.03,55.7,0,59.843,0s6.28,2.03,8.17,3.821c1.855,1.756,3.452,3.27,6.792,3.27s4.937-1.514,6.792-3.27C83.486,2.03,85.627,0,89.769,0V2.007c-3.344,0-4.941,1.514-6.8,3.27C81.084,7.069,78.943,9.1,74.8,9.1" transform="translate(0 0.003)" fill="#efb499"/>
          </g>
        </g>
      </g>
      <circle id="Elipse_11504" data-name="Elipse 11504" cx="50.5" cy="50.5" r="50.5" transform="translate(402.668 6031)" fill="#ffce73"/>
      <circle id="Elipse_11503" data-name="Elipse 11503" cx="52.5" cy="52.5" r="52.5" transform="translate(395.668 6021)" fill="#f3f9ff"/>
    </g>
    <g id="Grupo_1118305" data-name="Grupo 1118305" transform="translate(769.215 10018.806)">
      <rect id="Rectángulo_401104" data-name="Rectángulo 401104" width="68" height="69" transform="translate(-0.438 -0.804)" fill="none"/>
      <g id="Grupo_1119745" data-name="Grupo 1119745" transform="translate(-332.443 129.113)">
        <path id="Trazado_906566" data-name="Trazado 906566" d="M379.055-109.648c-6.42,0-12.84.009-19.26-.013a1.787,1.787,0,0,0-1.512.648,9.281,9.281,0,0,1-10.744,2.292,9.4,9.4,0,0,1-5.5-9.443,9.319,9.319,0,0,1,7.208-8.207,9.073,9.073,0,0,1,9.058,2.892,1.725,1.725,0,0,0,1.43.619q19.307-.021,38.614-.01c1.5,0,1.657.16,1.658,1.654q0,4.02,0,8.04c0,1.3-.225,1.528-1.5,1.528Q388.778-109.646,379.055-109.648Z" transform="translate(-0.001)"/>
        <path id="Trazado_906567" data-name="Trazado 906567" d="M376.272-4.709c-5.516,0-11.032.009-16.548-.012a1.7,1.7,0,0,0-1.423.635,9.291,9.291,0,0,1-10.74,2.312,9.4,9.4,0,0,1-5.518-9.434,9.311,9.311,0,0,1,7.193-8.219,9.072,9.072,0,0,1,9.065,2.871,1.735,1.735,0,0,0,1.422.636q16.5-.026,33-.012c1.5,0,1.675.168,1.675,1.636q0,4.067,0,8.133c0,1.215-.244,1.452-1.485,1.453Q384.592-4.707,376.272-4.709Z" transform="translate(-0.007 -85.298)"/>
        <path id="Trazado_906568" data-name="Trazado 906568" d="M373.437,100.244c-4.55,0-9.1.013-13.649-.014a1.785,1.785,0,0,0-1.51.653,9.283,9.283,0,0,1-10.744,2.285,9.348,9.348,0,0,1,1.713-17.649,9.074,9.074,0,0,1,9.057,2.894,1.724,1.724,0,0,0,1.431.618q13.7-.023,27.392-.01c1.495,0,1.653.159,1.654,1.658q0,4.067,0,8.133c0,1.171-.255,1.43-1.413,1.431Q380.4,100.248,373.437,100.244Z" transform="translate(0 -170.61)"/>
        <path id="Trazado_906569" data-name="Trazado 906569" d="M354.679-101.538a7.04,7.04,0,0,1-2.384-7.374,7.041,7.041,0,0,1,5.5-5.5,7.039,7.039,0,0,1,7.374,2.384,19.817,19.817,0,0,1-.051,8.222,3.357,3.357,0,0,1-3.2,2.49,59.444,59.444,0,0,1-6.35.044A1.8,1.8,0,0,1,354.679-101.538Z" transform="translate(-8.181 -8.106)" fill="#e2806d"/>
        <path id="Trazado_906570" data-name="Trazado 906570" d="M470.172-89.17q2.529-2.545,5.053-5.095a1.154,1.154,0,0,1,.9-.372c1.957.015,3.913.007,5.946.007l-5.5,5.647a4.552,4.552,0,0,1-2.085.286c-1.079-.007-2.159.026-3.236-.018C470.857-88.731,470.349-88.595,470.172-89.17Z" transform="translate(-104.191 -24.37)" fill="#7a4f00"/>
        <path id="Trazado_906571" data-name="Trazado 906571" d="M520.149-89.17q2.529-2.545,5.053-5.095a1.154,1.154,0,0,1,.9-.372c1.956.015,3.913.007,5.946.007l-5.5,5.647a4.552,4.552,0,0,1-2.085.286c-1.079-.007-2.159.026-3.236-.018C520.834-88.731,520.326-88.595,520.149-89.17Z" transform="translate(-144.815 -24.37)" fill="#7a4f00"/>
        <path id="Trazado_906572" data-name="Trazado 906572" d="M570.126-89.168c1.688-1.7,3.381-3.394,5.06-5.1a1.143,1.143,0,0,1,.907-.364c1.555.025,3.111.027,4.666.037.43.432.192.887.045,1.339q-2.056,2.223-4.28,4.278a4.55,4.55,0,0,1-2.085.286c-1.079-.007-2.159.026-3.236-.018C570.811-88.728,570.3-88.592,570.126-89.168Z" transform="translate(-185.439 -24.373)" fill="#7a4f00"/>
        <path id="Trazado_906573" data-name="Trazado 906573" d="M438.729-89.563a10.158,10.158,0,0,0-.739-4.774h8.491l-5.422,5.6a3.279,3.279,0,0,1-1.535.269C438.821-88.533,438.5-88.836,438.729-89.563Z" transform="translate(-78.032 -24.614)" fill="#7a4f00"/>
        <path id="Trazado_906574" data-name="Trazado 906574" d="M366.071-90.147c2.175,0,4.35,0,6.525,0a3.7,3.7,0,0,0,3.956-3.956c.007-2.175,0-4.35,0-6.525a7.375,7.375,0,0,1-.366,10.185A7.375,7.375,0,0,1,366.071-90.147Z" transform="translate(-19.573 -19.497)" fill="#e2806d"/>
        <path id="Trazado_906575" data-name="Trazado 906575" d="M616.957-85.234c0,1.635-.009,3.377.006,5.12,0,.414-.085.623-.561.617-1.767-.022-3.535-.009-5.205-.009Z" transform="translate(-218.823 -32.014)" fill="#7a4f00"/>
        <path id="Trazado_906576" data-name="Trazado 906576" d="M561.057-65.425a5.427,5.427,0,0,0,2.2.142c1.4.046,2.8.034,4.2.045-.495.514-.992,1.027-1.483,1.545a.847.847,0,0,1-.654.292c-2.011-.006-4.023,0-6.349,0Z" transform="translate(-176.37 -48.115)" fill="#7d3a1b"/>
        <path id="Trazado_906577" data-name="Trazado 906577" d="M511.08-65.425a5.427,5.427,0,0,0,2.2.142c1.4.046,2.8.034,4.2.045-.495.514-.992,1.027-1.483,1.545a.846.846,0,0,1-.654.292c-2.011-.006-4.023,0-6.349,0Z" transform="translate(-135.746 -48.115)" fill="#7d3a1b"/>
        <path id="Trazado_906578" data-name="Trazado 906578" d="M461.1-65.425a5.428,5.428,0,0,0,2.2.142c1.4.046,2.8.034,4.2.045-.495.514-.992,1.027-1.483,1.545a.848.848,0,0,1-.654.292c-2.011-.006-4.023,0-6.349,0Z" transform="translate(-95.123 -48.115)" fill="#7d3a1b"/>
        <path id="Trazado_906579" data-name="Trazado 906579" d="M439.1-68.829c-.041.629.247.857.872.8a12.719,12.719,0,0,1,1.457.025c-.363.383-.72.772-1.091,1.147-.752.758-.755.755-1.89.61Z" transform="translate(-78.408 -45.348)" fill="#7d3a1b"/>
        <path id="Trazado_906580" data-name="Trazado 906580" d="M626.987-93.1l-.045-1.339h1.27A4.334,4.334,0,0,1,626.987-93.1Z" transform="translate(-231.622 -24.534)" fill="#2661b8"/>
        <path id="Trazado_906581" data-name="Trazado 906581" d="M354.69,3.409A7.01,7.01,0,0,1,352.3-3.963a7.027,7.027,0,0,1,5.5-5.5,7.011,7.011,0,0,1,7.373,2.393,1.2,1.2,0,0,1,.214.61,36.678,36.678,0,0,1-.087,7.062,3.7,3.7,0,0,1-3.178,3c-.4.058-.813.129-1.1-.273.055-.434.446-.572.724-.8a2.88,2.88,0,0,0,.806-3.912,1.576,1.576,0,0,1,0-1.653,2.958,2.958,0,0,0-2.557-4.491,14.873,14.873,0,0,0-1.776-.008c-.908.043-1.185.28-1.169,1.2.053,3.174-.208,6.354.15,9.524a.452.452,0,0,1-.043.182A2.425,2.425,0,0,1,354.69,3.409Z" transform="translate(-8.184 -93.412)" fill="#ffce73"/>
        <path id="Trazado_906582" data-name="Trazado 906582" d="M490.163,15.776q2.529-2.546,5.053-5.095a1.153,1.153,0,0,1,.9-.372c1.957.015,3.913.007,5.928.007l-5.484,5.648a4.57,4.57,0,0,1-2.085.286c-1.079-.008-2.159.026-3.236-.018C490.848,16.215,490.34,16.351,490.163,15.776Z" transform="translate(-120.441 -109.675)" fill="#7a4f00"/>
        <path id="Trazado_906583" data-name="Trazado 906583" d="M441.827,15.428q2.335-2.353,4.671-4.7a.96.96,0,0,1,.7-.394c2.04.01,4.081.005,6.128.005l-5.47,5.646a8.092,8.092,0,0,1-3.227.28,13.106,13.106,0,0,1-2.146-.036C442.061,16.168,441.569,16.087,441.827,15.428Z" transform="translate(-81.093 -109.692)" fill="#7a4f00"/>
        <path id="Trazado_906584" data-name="Trazado 906584" d="M550.818,11.687q-2.056,2.223-4.279,4.279a4.57,4.57,0,0,1-2.085.286c-1.079-.008-2.159.026-3.236-.018-.392-.016-.9.12-1.078-.456,1.688-1.7,3.381-3.395,5.06-5.1a1.144,1.144,0,0,1,.907-.364c1.555.025,3.111.027,4.666.037C551.2,10.781,550.966,11.236,550.818,11.687Z" transform="translate(-161.065 -109.678)" fill="#7a4f00"/>
        <path id="Trazado_906585" data-name="Trazado 906585" d="M372.469,14.7c1.73.544,4.139-1.121,4.127-3.623-.01-2.238,0-4.475,0-6.713A7.424,7.424,0,0,1,366.12,14.836a8.5,8.5,0,0,0,2.437-.153A9.984,9.984,0,0,1,372.469,14.7Z" transform="translate(-19.613 -104.839)" fill="#f2a745"/>
        <path id="Trazado_906586" data-name="Trazado 906586" d="M579.7,24.342a7.224,7.224,0,0,0,.823-.622c1.671-1.671,3.329-3.356,5.22-4.979,0,1.03.009,2.06,0,3.09-.01.9.3,2.09-.152,2.616-.524.607-1.751.165-2.671.2-1.014.036-2.031.008-3.047.008Z" transform="translate(-193.221 -116.529)" fill="#7a4f00"/>
        <path id="Trazado_906587" data-name="Trazado 906587" d="M481.095,39.521a5.428,5.428,0,0,0,2.2.141c1.4.046,2.8.034,4.2.046-.5.514-.993,1.026-1.484,1.544a.848.848,0,0,1-.654.292c-2.011-.006-4.023,0-6.349,0Z" transform="translate(-111.373 -133.42)" fill="#7d3a1b"/>
        <path id="Trazado_906588" data-name="Trazado 906588" d="M531.073,39.521a5.428,5.428,0,0,0,2.2.141c1.4.046,2.8.034,4.2.046-.495.514-.993,1.026-1.484,1.544a.848.848,0,0,1-.654.292c-2.011-.006-4.023,0-6.349,0Z" transform="translate(-151.997 -133.42)" fill="#7d3a1b"/>
        <path id="Trazado_906589" data-name="Trazado 906589" d="M439.262,37.573c-.041.6.386.513.751.516l5.283.036c-.015.027-.029.055-.047.08a3.685,3.685,0,0,1-3.942,1.76,3.481,3.481,0,0,0-.65-.005C438.218,39.96,438.218,39.96,439.262,37.573Z" transform="translate(-78.528 -131.837)" fill="#7d3a1b"/>
        <path id="Trazado_906590" data-name="Trazado 906590" d="M438.232,10.516h2.843l-2.236,2.112Z" transform="translate(-78.229 -109.844)" fill="#7a4f00"/>
        <path id="Trazado_906591" data-name="Trazado 906591" d="M597,11.848q-.022-.669-.045-1.339h1.27A4.334,4.334,0,0,1,597,11.848Z" transform="translate(-207.247 -109.838)" fill="#2661b8"/>
        <path id="Trazado_906592" data-name="Trazado 906592" d="M354.679,108.354a7.436,7.436,0,1,1,10.486-10.485,20.6,20.6,0,0,1-.053,8.231,3.654,3.654,0,0,1-3.5,2.517,1.111,1.111,0,0,1-.95-.279c-.027-.486.411-.574.7-.764a3.375,3.375,0,0,0,1.425-1.789c.089-.275.278-.63-.127-.815a.824.824,0,0,0-.952.164,2.719,2.719,0,0,0-.357.545,2.036,2.036,0,0,1-2.151.991,1.969,1.969,0,0,1-1.712-1.74,20.2,20.2,0,0,1,0-4.378,1.972,1.972,0,0,1,1.711-1.742,2.036,2.036,0,0,1,2.152.987,2.033,2.033,0,0,0,.427.606.834.834,0,0,0,.964.075c.307-.191.136-.509.063-.765a3.447,3.447,0,0,0-6.556.178,10.181,10.181,0,0,0-.168,2.693c-.01.653-.017,1.307.006,1.961a3.554,3.554,0,0,0,1.685,3.052c.278.179.736.268.634.781A5.25,5.25,0,0,1,354.679,108.354Z" transform="translate(-8.18 -178.716)" fill="#ffe7ba"/>
        <path id="Trazado_906593" data-name="Trazado 906593" d="M460.177,120.721q2.529-2.545,5.053-5.095a1.154,1.154,0,0,1,.9-.372c1.957.015,3.913.007,5.96.007l-5.517,5.648a4.563,4.563,0,0,1-2.085.286c-1.11-.009-2.22.026-3.329-.02C460.794,121.16,460.327,121.255,460.177,120.721Z" transform="translate(-96.067 -194.979)" fill="#7a4f00"/>
        <path id="Trazado_906594" data-name="Trazado 906594" d="M510.154,120.723c1.688-1.7,3.381-3.394,5.06-5.1a1.145,1.145,0,0,1,.907-.364c1.555.025,3.111.027,4.666.037.43.432.192.887.045,1.339q-2.055,2.224-4.279,4.278a4.57,4.57,0,0,1-2.085.286c-1.079-.008-2.159.026-3.236-.018C510.839,121.163,510.331,121.3,510.154,120.723Z" transform="translate(-136.691 -194.982)" fill="#7a4f00"/>
        <path id="Trazado_906595" data-name="Trazado 906595" d="M366.074,119.746a18.909,18.909,0,0,0,3.74-.159,3.393,3.393,0,0,1,2.259,0,3.618,3.618,0,0,0,4.483-3.612q0-3.357,0-6.715a7.43,7.43,0,0,1-10.486,10.485Z" transform="translate(-19.576 -190.108)" fill="#efb499"/>
        <path id="Trazado_906596" data-name="Trazado 906596" d="M438.775,121.653a29.75,29.75,0,0,0,.167-3.1,14.137,14.137,0,0,0-.7-2.991h6.411Z" transform="translate(-78.237 -195.231)" fill="#7a4f00"/>
        <path id="Trazado_906597" data-name="Trazado 906597" d="M556.547,124.85c0,1.635,0,3.457,0,5.278,0,.337-.177.416-.469.415q-2.7-.006-5.391,0Z" transform="translate(-169.64 -202.78)" fill="#7a4f00"/>
        <path id="Trazado_906598" data-name="Trazado 906598" d="M451.108,144.466a5.425,5.425,0,0,0,2.2.142c1.4.046,2.8.034,4.2.046-.5.514-.993,1.026-1.484,1.544a.847.847,0,0,1-.654.292c-2.011-.006-4.023,0-6.349,0Z" transform="translate(-86.998 -218.725)" fill="#7d3a1b"/>
        <path id="Trazado_906599" data-name="Trazado 906599" d="M501.086,144.466a5.425,5.425,0,0,0,2.2.142c1.4.046,2.8.034,4.2.046-.5.514-.993,1.026-1.484,1.544a.847.847,0,0,1-.654.292c-2.011-.006-4.023,0-6.349,0Z" transform="translate(-127.623 -218.725)" fill="#7d3a1b"/>
        <path id="Trazado_906600" data-name="Trazado 906600" d="M567.015,116.794l-.045-1.339h1.27A4.334,4.334,0,0,1,567.015,116.794Z" transform="translate(-182.873 -195.143)" fill="#2661b8"/>
        <path id="Trazado_906601" data-name="Trazado 906601" d="M379.532-97.933c0,1.027-.029,2.054.009,3.08.028.765-.508.576-.886.545s-1.031.332-.994-.524c0-.093,0-.187,0-.28-.025-1.985-.025-1.985-2.068-1.985-1.672,0-1.672,0-1.673,1.634,0,1.259,0,1.236-1.3,1.183-.446-.018-.587-.156-.583-.6.019-2.053-.038-4.108.028-6.159a3.686,3.686,0,0,1,3.732-3.541,3.714,3.714,0,0,1,3.716,3.564c.048,1.024.008,2.053.008,3.08Z" transform="translate(-24.423 -16.291)"/>
        <path id="Trazado_906602" data-name="Trazado 906602" d="M381.374,11.427a11.514,11.514,0,0,1-3.911-.012,1.508,1.508,0,0,1-.387-1.2c.009-2.834,0-5.668.006-8.5,0-1.1.272-1.361,1.38-1.37.592-.005,1.184,0,1.776,0a3.192,3.192,0,0,1,2.986,1.734A3.118,3.118,0,0,1,383,5.51c-.187.274-.3.436-.08.8C384.249,8.44,383.682,10.259,381.374,11.427Z" transform="translate(-28.519 -101.571)"/>
        <path id="Trazado_906603" data-name="Trazado 906603" d="M376.948,116.35a4.629,4.629,0,0,1-2.259,0,3.842,3.842,0,0,1-2.616-3.984c.025-1.151-.024-2.3.016-3.455a3.718,3.718,0,0,1,7.333-.781c.068.288.363.8-.114.832-.529.031-1.258.477-1.641-.295-.6-1.2-1.317-1.692-2.256-1.469-.989.235-1.458.968-1.461,2.292,0,1.058-.017,2.117.005,3.175a1.863,1.863,0,0,0,3.648.625,1.5,1.5,0,0,1,1.705-.5c.5.24.166.647.09.959A3.682,3.682,0,0,1,376.948,116.35Z" transform="translate(-24.451 -186.87)"/>
        <path id="Trazado_906604" data-name="Trazado 906604" d="M383.417-90.837a1.371,1.371,0,0,1-.372,0c-.486-.143-1.219.377-1.454-.336a2.734,2.734,0,0,1,.959-3.173,1.855,1.855,0,0,1,2.23.357,2.091,2.091,0,0,1,.478.9,1.4,1.4,0,0,1,.031.184C385.572-90.922,385.5-90.837,383.417-90.837Z" transform="translate(-32.065 -24.422)" fill="#e2806d"/>
        <path id="Trazado_906605" data-name="Trazado 906605" d="M386.972,36.586c.074-.67-.36-1.538.924-1.423,1.212.109,1.9.536,1.882,1.444s-.689,1.309-1.92,1.4C386.411,38.125,387.187,37.064,386.972,36.586Z" transform="translate(-36.547 -129.87)" fill="#ecca60"/>
        <path id="Trazado_906606" data-name="Trazado 906606" d="M386.977,11.583c.143-.581-.417-1.514.911-1.4,1.223.105,1.9.515,1.91,1.417s-.677,1.33-1.894,1.432C386.494,13.152,387.16,12.137,386.977,11.583Z" transform="translate(-36.565 -109.565)" fill="#ecca60"/>
      </g>
    </g>
  </g>
</svg>
