<svg xmlns="http://www.w3.org/2000/svg" xmlns:xlink="http://www.w3.org/1999/xlink" width="139" height="139" viewBox="0 0 139 139">
  <defs>
    <clipPath id="clip-path">
      <rect id="Rectángulo_400938" data-name="Rectángulo 400938" width="139" height="139" transform="translate(-0.043 -0.043)" fill="none"/>
    </clipPath>
    <clipPath id="clip-path-2">
      <rect id="Rectángulo_401073" data-name="Rectángulo 401073" width="105.872" height="47.68" fill="#7d3a1b"/>
    </clipPath>
    <clipPath id="clip-path-3">
      <rect id="Rectángulo_406528" data-name="Rectángulo 406528" width="82" height="82" transform="translate(1070 5140)" fill="#7d3a1b" stroke="#707070" stroke-width="1"/>
    </clipPath>
  </defs>
  <g id="Grupo_1119972" data-name="Grupo 1119972" transform="translate(-1041 -5106.563)">
    <g id="Grupo_1117780" data-name="Grupo 1117780" transform="translate(776.043 -177.395)">
      <g id="Grupo_1099379" data-name="Grupo 1099379" transform="translate(265 5284)">
        <rect id="Rectángulo_401103" data-name="Rectángulo 401103" width="139" height="139" transform="translate(-0.043 -0.043)" fill="none"/>
        <g id="Grupo_1099348" data-name="Grupo 1099348" transform="translate(0)">
          <g id="Grupo_1099282" data-name="Grupo 1099282">
            <g id="Grupo_1099281" data-name="Grupo 1099281" clip-path="url(#clip-path-2)">
              <path id="Trazado_873375" data-name="Trazado 873375" d="M85.879,10.449c-4.752,0-7.21-2.33-9.379-4.386C74.371,4.047,72.538,2.3,68.7,2.3s-5.668,1.742-7.8,3.758c-2.17,2.056-4.624,4.386-9.379,4.386s-7.21-2.33-9.379-4.386C40.018,4.047,38.184,2.3,34.349,2.3s-5.668,1.742-7.794,3.758c-2.17,2.056-4.627,4.386-9.379,4.386S9.963,8.119,7.794,6.063C5.668,4.047,3.835,2.3,0,2.3V0C4.752,0,7.21,2.334,9.379,4.386c2.129,2.02,3.963,3.758,7.8,3.758s5.668-1.738,7.794-3.755C27.136,2.334,29.6,0,34.349,0s7.213,2.334,9.379,4.386c2.129,2.02,3.963,3.758,7.8,3.758s5.668-1.738,7.8-3.758C61.489,2.334,63.951,0,68.7,0s7.213,2.334,9.379,4.386c2.129,2.02,3.963,3.758,7.8,3.758s5.668-1.738,7.8-3.758C95.843,2.334,98.3,0,103.056,0V2.3c-3.835,0-5.668,1.742-7.8,3.758-2.169,2.056-4.627,4.386-9.379,4.386" transform="translate(2.816 37.231)" fill="#7d3a1b"/>
              <path id="Trazado_873376" data-name="Trazado 873376" d="M85.879,10.449c-4.752,0-7.213-2.33-9.379-4.39C74.371,4.043,72.538,2.3,68.7,2.3s-5.668,1.738-7.8,3.755c-2.166,2.06-4.624,4.39-9.379,4.39s-7.213-2.33-9.379-4.39C40.018,4.043,38.184,2.3,34.349,2.3s-5.668,1.742-7.794,3.755c-2.17,2.06-4.627,4.39-9.379,4.39s-7.213-2.33-9.383-4.39C5.668,4.043,3.835,2.3,0,2.3V0C4.752,0,7.213,2.33,9.379,4.386c2.129,2.02,3.963,3.758,7.8,3.758s5.668-1.738,7.794-3.758C27.136,2.33,29.6,0,34.349,0s7.213,2.33,9.383,4.386c2.126,2.02,3.959,3.758,7.794,3.758s5.668-1.738,7.8-3.758C61.489,2.33,63.951,0,68.7,0s7.213,2.33,9.379,4.386c2.129,2.02,3.963,3.758,7.8,3.758s5.668-1.738,7.8-3.758C95.846,2.33,98.3,0,103.059,0V2.3c-3.835,0-5.672,1.742-7.8,3.755-2.169,2.06-4.628,4.39-9.379,4.39" transform="translate(1.877 24.821)" fill="#7d3a1b"/>
              <path id="Trazado_873377" data-name="Trazado 873377" d="M85.879,10.449c-4.752,0-7.213-2.33-9.379-4.39C74.371,4.043,72.538,2.3,68.7,2.3s-5.668,1.738-7.8,3.755c-2.166,2.06-4.627,4.39-9.379,4.39s-7.213-2.33-9.379-4.39C40.018,4.043,38.184,2.3,34.349,2.3s-5.668,1.742-7.794,3.755c-2.169,2.06-4.627,4.39-9.379,4.39s-7.213-2.33-9.383-4.39C5.668,4.043,3.835,2.3,0,2.3V0C4.752,0,7.213,2.33,9.379,4.386c2.126,2.02,3.963,3.758,7.8,3.758s5.668-1.738,7.794-3.758C27.136,2.33,29.6,0,34.349,0s7.213,2.33,9.383,4.386c2.126,2.02,3.959,3.758,7.794,3.758s5.668-1.738,7.8-3.758C61.489,2.33,63.951,0,68.7,0s7.213,2.33,9.379,4.386c2.129,2.02,3.963,3.758,7.8,3.758s5.668-1.738,7.8-3.758C95.846,2.33,98.3,0,103.059,0V2.3c-3.835,0-5.672,1.742-7.8,3.755-2.169,2.06-4.627,4.39-9.379,4.39" transform="translate(0.939 12.41)" fill="#7d3a1b"/>
              <path id="Trazado_873378" data-name="Trazado 873378" d="M85.879,10.445c-4.752,0-7.21-2.33-9.379-4.386C74.371,4.043,72.538,2.3,68.7,2.3s-5.668,1.738-7.794,3.755c-2.169,2.056-4.627,4.386-9.383,4.386s-7.21-2.33-9.379-4.386C40.018,4.043,38.184,2.3,34.349,2.3s-5.668,1.738-7.794,3.751c-2.166,2.06-4.627,4.39-9.379,4.39S9.963,8.115,7.794,6.059C5.668,4.043,3.835,2.3,0,2.3V0C4.752,0,7.213,2.33,9.379,4.386c2.129,2.016,3.963,3.755,7.8,3.755S22.845,6.4,24.971,4.386C27.14,2.33,29.6,0,34.349,0s7.21,2.33,9.383,4.386c2.126,2.016,3.959,3.755,7.794,3.755s5.668-1.738,7.8-3.755C61.493,2.33,63.951,0,68.7,0s7.21,2.33,9.379,4.386c2.129,2.016,3.963,3.755,7.8,3.755s5.668-1.738,7.8-3.755C95.846,2.33,98.3,0,103.059,0V2.3c-3.839,0-5.672,1.738-7.8,3.755-2.169,2.056-4.627,4.386-9.379,4.386" transform="translate(0 0.004)" fill="#7d3a1b"/>
            </g>
          </g>
        </g>
        <path id="Trazado_873425" data-name="Trazado 873425" d="M57.977,0A57.977,57.977,0,1,1,0,57.977,57.977,57.977,0,0,1,57.977,0Z" transform="translate(17.221 20.665)" fill="#efb499"/>
        <circle id="Elipse_11503" data-name="Elipse 11503" cx="60.5" cy="60.5" r="60.5" transform="translate(8.957 8.957)" fill="#fff"/>
      </g>
    </g>
    <g id="Enmascarar_grupo_1098774" data-name="Enmascarar grupo 1098774" clip-path="url(#clip-path-3)">
      <g id="Grupo_1119628" data-name="Grupo 1119628" transform="translate(-1717.954 2243.119)">
        <path id="Trazado_906301" data-name="Trazado 906301" d="M2802.6,2918.457c-4.268,0-8.314,0-12.36,0-1.912,0-2.272-.376-2.277-2.331-.005-2.147-.026-4.294.007-6.441a8.665,8.665,0,0,1,8.709-8.773q22.032-.062,44.063,0a8.675,8.675,0,0,1,8.626,7.628c.055.384.2.884.027,1.146-.36.543-.9,1.319-1.38,1.333a1.967,1.967,0,0,1-1.43-1.242c-1.046-4.654-2.584-5.957-7.31-5.957h-35.894c2.956,3.6,2.109,7.705,2.122,11.63.054,16.444.02,32.888.026,49.333,0,3.044,1.54,5.318,4.073,6.09a5.814,5.814,0,0,0,7.613-5.4c.085-2.242.015-4.489.025-6.733.009-1.828.4-2.217,2.241-2.218q12.516-.007,25.033,0h2v-12.7q0-.366,0-.732c0-1.963.414-2.746,1.5-2.634,1.624.167,1.425,1.447,1.426,2.563q.007,5.929,0,11.858v1.647h1.638q6.88,0,13.76,0c1.742,0,2.156.417,2.165,2.148.011,2.244.036,4.49-.01,6.734a8.66,8.66,0,0,1-8.677,8.659q-23.495.068-46.99,0c-5.045-.014-8.715-3.882-8.721-9.055q-.027-22.324-.007-44.648Zm61.467,41.1h-43.859c-.256,3.971.781,8.052-2.224,11.6H2833.4c8.148,0,16.3.012,24.444-.006,3.489-.007,6.029-2.23,6.208-5.5C2864.158,2963.664,2864.07,2961.662,2864.07,2959.557Zm-61.467-44.1c0-1.715,0-3.359,0-5a10.984,10.984,0,0,0-.065-1.605,5.847,5.847,0,0,0-5.615-5.021,5.568,5.568,0,0,0-5.834,4.689,54.394,54.394,0,0,0-.059,6.941Z" transform="translate(0)" fill="#7d3a1b"/>
        <path id="Trazado_906302" data-name="Trazado 906302" d="M2964.951,2970.078l-3.064-3.089c-6.6,3.657-12.647,2.8-16.527-2.307a11.7,11.7,0,0,1,16.178-16.549c5.275,3.869,6.185,9.782,2.537,16.691l3.148,2.933c-.085.016.031.029.09-.022,2.094-1.833,2.122-1.835,4.118.156q3.625,3.615,7.24,7.242c1.227,1.236,1.215,1.8-.024,3.056-1.163,1.181-2.331,2.359-3.519,3.515-1.119,1.089-1.724,1.09-2.844-.021q-4-3.966-7.966-7.965c-1.163-1.171-1.142-1.7.019-2.949C2964.534,2970.557,2964.722,2970.336,2964.951,2970.078Zm-10.226-21.236a8.776,8.776,0,1,0,8.734,8.779A8.8,8.8,0,0,0,2954.725,2948.842Zm12.633,23.211,6.617,6.651,1.733-1.818-6.563-6.571Z" transform="translate(-109.63 -31.84)" fill="#7d3a1b"/>
        <path id="Trazado_906303" data-name="Trazado 906303" d="M2871.755,2961.393q0,8.855,0,17.711c0,2.607-.181,2.782-2.854,2.783-1.317,0-2.635-.025-3.952.006-1.334.032-1.982-.543-1.98-1.913q.017-18.589,0-37.179c0-1.371.648-1.937,1.982-1.909,1.609.034,3.22-.008,4.83.012,1.527.02,1.968.468,1.97,2.044Q2871.767,2952.171,2871.755,2961.393ZM2866,2943.9v35h2.751v-35Z" transform="translate(-53.052 -28.297)" fill="#7d3a1b"/>
        <path id="Trazado_906304" data-name="Trazado 906304" d="M2911.752,3004.2c0,3.659.009,7.319,0,10.978-.006,1.637-.442,2.058-2.093,2.072-1.61.014-3.22-.01-4.83.006-1.287.013-1.859-.61-1.858-1.882q.016-11.271,0-22.542c0-1.358.611-1.96,1.958-1.934,1.609.031,3.22-.008,4.83.011,1.538.018,1.989.466,2,2.02C2911.762,2996.684,2911.752,3000.44,2911.752,3004.2ZM2906,2993.9v20.357h2.75V2993.9Z" transform="translate(-81.338 -63.66)" fill="#7d3a1b"/>
        <path id="Trazado_906305" data-name="Trazado 906305" d="M2942.978,3046.769c0-1.317.017-2.634,0-3.951-.021-1.262.535-1.916,1.832-1.9q2.561.021,5.123,0c1.3-.011,1.844.642,1.835,1.9q-.029,3.951,0,7.9c.009,1.262-.537,1.916-1.834,1.906q-2.561-.019-5.123,0c-1.3.01-1.854-.643-1.833-1.905C2942.994,3049.4,2942.978,3048.086,2942.978,3046.769Zm5.743,2.87v-5.722h-2.732v5.722Z" transform="translate(-109.633 -99.034)" fill="#7d3a1b"/>
        <path id="Trazado_906306" data-name="Trazado 906306" d="M2927.349,2923.833c-.878,0-1.757.016-2.634,0-.969-.022-1.619-.488-1.6-1.5a1.375,1.375,0,0,1,1.543-1.4q2.78-.029,5.562,0c.972.008,1.619.485,1.6,1.5a1.386,1.386,0,0,1-1.543,1.408C2929.3,2923.851,2928.324,2923.832,2927.349,2923.833Z" transform="translate(-95.589 -14.165)" fill="#7d3a1b"/>
        <path id="Trazado_906307" data-name="Trazado 906307" d="M2966.407,2922.912c-.553.392-1.145,1.135-1.647,1.079a2.045,2.045,0,0,1-1.375-1.381c-.069-.383.769-1.276,1.257-1.32.547-.049,1.156.6,1.738.951C2966.388,2922.465,2966.4,2922.688,2966.407,2922.912Z" transform="translate(-124.065 -14.432)" fill="#7d3a1b"/>
      </g>
    </g>
  </g>
</svg>
