<svg xmlns="http://www.w3.org/2000/svg" xmlns:xlink="http://www.w3.org/1999/xlink" width="139" height="139" viewBox="0 0 139 139">
  <defs>
    <clipPath id="clip-path">
      <rect id="Rectángulo_400938" data-name="Rectángulo 400938" width="139" height="139" transform="translate(-0.043 -0.043)" fill="none"/>
    </clipPath>
    <clipPath id="clip-path-2">
      <rect id="Rectángulo_401073" data-name="Rectángulo 401073" width="105.872" height="47.68" fill="#7d3a1b"/>
    </clipPath>
  </defs>
  <g id="Grupo_1103896" data-name="Grupo 1103896" transform="translate(-1150 -4198.881)">
    <g id="Grupo_1099576" data-name="Grupo 1099576" transform="translate(885.043 -1085.076)">
      <g id="Grupo_1099379" data-name="Grupo 1099379" transform="translate(265 5284)">
        <rect id="Rectángulo_401103" data-name="Rectángulo 401103" width="139" height="139" transform="translate(-0.043 -0.043)" fill="none"/>
        <g id="Grupo_1099348" data-name="Grupo 1099348" transform="translate(0)">
          <g id="Grupo_1099282" data-name="Grupo 1099282">
            <g id="Grupo_1099281" data-name="Grupo 1099281" clip-path="url(#clip-path-2)">
              <path id="Trazado_873375" data-name="Trazado 873375" d="M85.879,10.449c-4.752,0-7.21-2.33-9.379-4.386C74.371,4.047,72.538,2.3,68.7,2.3s-5.668,1.742-7.8,3.758c-2.17,2.056-4.624,4.386-9.379,4.386s-7.21-2.33-9.379-4.386C40.018,4.047,38.184,2.3,34.349,2.3s-5.668,1.742-7.794,3.758c-2.17,2.056-4.627,4.386-9.379,4.386S9.963,8.119,7.794,6.063C5.668,4.047,3.835,2.3,0,2.3V0C4.752,0,7.21,2.334,9.379,4.386c2.129,2.02,3.963,3.758,7.8,3.758s5.668-1.738,7.794-3.755C27.136,2.334,29.6,0,34.349,0s7.213,2.334,9.379,4.386c2.129,2.02,3.963,3.758,7.8,3.758s5.668-1.738,7.8-3.758C61.489,2.334,63.951,0,68.7,0s7.213,2.334,9.379,4.386c2.129,2.02,3.963,3.758,7.8,3.758s5.668-1.738,7.8-3.758C95.843,2.334,98.3,0,103.056,0V2.3c-3.835,0-5.668,1.742-7.8,3.758-2.169,2.056-4.627,4.386-9.379,4.386" transform="translate(2.816 37.231)" fill="#7d3a1b"/>
              <path id="Trazado_873376" data-name="Trazado 873376" d="M85.879,10.449c-4.752,0-7.213-2.33-9.379-4.39C74.371,4.043,72.538,2.3,68.7,2.3s-5.668,1.738-7.8,3.755c-2.166,2.06-4.624,4.39-9.379,4.39s-7.213-2.33-9.379-4.39C40.018,4.043,38.184,2.3,34.349,2.3s-5.668,1.742-7.794,3.755c-2.17,2.06-4.627,4.39-9.379,4.39s-7.213-2.33-9.383-4.39C5.668,4.043,3.835,2.3,0,2.3V0C4.752,0,7.213,2.33,9.379,4.386c2.129,2.02,3.963,3.758,7.8,3.758s5.668-1.738,7.794-3.758C27.136,2.33,29.6,0,34.349,0s7.213,2.33,9.383,4.386c2.126,2.02,3.959,3.758,7.794,3.758s5.668-1.738,7.8-3.758C61.489,2.33,63.951,0,68.7,0s7.213,2.33,9.379,4.386c2.129,2.02,3.963,3.758,7.8,3.758s5.668-1.738,7.8-3.758C95.846,2.33,98.3,0,103.059,0V2.3c-3.835,0-5.672,1.742-7.8,3.755-2.169,2.06-4.628,4.39-9.379,4.39" transform="translate(1.877 24.821)" fill="#7d3a1b"/>
              <path id="Trazado_873377" data-name="Trazado 873377" d="M85.879,10.449c-4.752,0-7.213-2.33-9.379-4.39C74.371,4.043,72.538,2.3,68.7,2.3s-5.668,1.738-7.8,3.755c-2.166,2.06-4.627,4.39-9.379,4.39s-7.213-2.33-9.379-4.39C40.018,4.043,38.184,2.3,34.349,2.3s-5.668,1.742-7.794,3.755c-2.169,2.06-4.627,4.39-9.379,4.39s-7.213-2.33-9.383-4.39C5.668,4.043,3.835,2.3,0,2.3V0C4.752,0,7.213,2.33,9.379,4.386c2.126,2.02,3.963,3.758,7.8,3.758s5.668-1.738,7.794-3.758C27.136,2.33,29.6,0,34.349,0s7.213,2.33,9.383,4.386c2.126,2.02,3.959,3.758,7.794,3.758s5.668-1.738,7.8-3.758C61.489,2.33,63.951,0,68.7,0s7.213,2.33,9.379,4.386c2.129,2.02,3.963,3.758,7.8,3.758s5.668-1.738,7.8-3.758C95.846,2.33,98.3,0,103.059,0V2.3c-3.835,0-5.672,1.742-7.8,3.755-2.169,2.06-4.627,4.39-9.379,4.39" transform="translate(0.939 12.41)" fill="#7d3a1b"/>
              <path id="Trazado_873378" data-name="Trazado 873378" d="M85.879,10.445c-4.752,0-7.21-2.33-9.379-4.386C74.371,4.043,72.538,2.3,68.7,2.3s-5.668,1.738-7.794,3.755c-2.169,2.056-4.627,4.386-9.383,4.386s-7.21-2.33-9.379-4.386C40.018,4.043,38.184,2.3,34.349,2.3s-5.668,1.738-7.794,3.751c-2.166,2.06-4.627,4.39-9.379,4.39S9.963,8.115,7.794,6.059C5.668,4.043,3.835,2.3,0,2.3V0C4.752,0,7.213,2.33,9.379,4.386c2.129,2.016,3.963,3.755,7.8,3.755S22.845,6.4,24.971,4.386C27.14,2.33,29.6,0,34.349,0s7.21,2.33,9.383,4.386c2.126,2.016,3.959,3.755,7.794,3.755s5.668-1.738,7.8-3.755C61.493,2.33,63.951,0,68.7,0s7.21,2.33,9.379,4.386c2.129,2.016,3.963,3.755,7.8,3.755s5.668-1.738,7.8-3.755C95.846,2.33,98.3,0,103.059,0V2.3c-3.839,0-5.672,1.738-7.8,3.755-2.169,2.056-4.627,4.386-9.379,4.386" transform="translate(0 0.004)" fill="#7d3a1b"/>
            </g>
          </g>
        </g>
        <path id="Trazado_873425" data-name="Trazado 873425" d="M57.977,0A57.977,57.977,0,1,1,0,57.977,57.977,57.977,0,0,1,57.977,0Z" transform="translate(17.221 20.665)" fill="#ffb937"/>
        <circle id="Elipse_11503" data-name="Elipse 11503" cx="60.5" cy="60.5" r="60.5" transform="translate(8.957 8.957)" fill="#fff"/>
      </g>
    </g>
    <g id="Grupo_1099582" data-name="Grupo 1099582" transform="translate(833 -2195.119)">
      <g id="Grupo_1099389" data-name="Grupo 1099389" transform="translate(347.893 6422.863)">
        <rect id="Rectángulo_401104" data-name="Rectángulo 401104" width="78" height="79" transform="translate(0.107 0.256)" fill="none"/>
      </g>
      <g id="Grupo_1119756" data-name="Grupo 1119756" transform="translate(21.971 6643.802)">
        <path id="Trazado_906723" data-name="Trazado 906723" d="M422.14-211.973h-7.306c.962,2.892,1.9,5.716,2.842,8.539a5.524,5.524,0,0,1-1.665,6.206,5.9,5.9,0,0,1-6.72.938,5.692,5.692,0,0,1-3.418-5.612,23.39,23.39,0,0,1,1.224-4.169c.623-1.936,1.276-3.862,1.956-5.913-.438-.021-.782-.03-1.126-.057a2.078,2.078,0,0,1-2.1-2.178A2,2,0,0,1,408-216.175c4.046-.019,8.093-.007,12.139-.007q10.061,0,20.122,0c1.337,0,2.193.6,2.377,1.626a2.086,2.086,0,0,1-1.957,2.505c-.357.038-.721.006-1.249.006.666,2.032,1.292,3.947,1.923,5.861a27.871,27.871,0,0,0,.954,2.785c1.223,2.7-.668,6.515-4.011,7.467a6.071,6.071,0,0,1-7.655-4.311,6.293,6.293,0,0,1,.14-2.965c.864-2.922,1.885-5.8,2.872-8.772h-7.325v20.513h4.895c.365,0,.73-.015,1.093,0a2.163,2.163,0,0,1,2.2,2.118,2.142,2.142,0,0,1-2.176,2.026c-1.165.041-2.333.011-3.5.011q-6.234,0-12.467,0a1.968,1.968,0,0,1-2.076-1.11,2.491,2.491,0,0,1,.08-2.005,3.029,3.029,0,0,1,2-1c1.883-.134,3.782-.046,5.756-.046Zm-10.193,4.346c-.71,2.126-1.385,3.894-1.852,5.716a1.856,1.856,0,0,0,.657,1.629,2.817,2.817,0,0,0,2.1.2c.473-.166,1.108-1.062,1.007-1.471C413.378-203.509,412.672-205.407,411.947-207.627Zm24.728.383-.226-.044c-.586,1.747-1.157,3.5-1.764,5.237a1.529,1.529,0,0,0,.7,1.881,1.868,1.868,0,0,0,2.337-.018,1.54,1.54,0,0,0,.68-1.891C437.817-203.8,437.251-205.522,436.675-207.244Z" transform="translate(-59.22 0)" fill="#6a4d23"/>
        <path id="Trazado_906724" data-name="Trazado 906724" d="M518.031-46.886q0-7.927,0-15.853c0-1.989.7-2.684,2.687-2.685,5.248,0,10.5-.013,15.744,0a10.174,10.174,0,0,1,10.444,10.416q.024,12.027,0,24.053c0,1.854-.716,2.552-2.6,2.552q-11.808,0-23.615,0c-1.9,0-2.654-.749-2.656-2.633Q518.026-38.959,518.031-46.886Zm4.236-14.422v28.676H542.7V-53.118c-1.906,0-3.755.009-5.6,0-1.712-.011-2.457-.761-2.463-2.463-.007-1.886,0-3.771,0-5.723Zm16.538.4v3.54h3.588A6.022,6.022,0,0,0,538.805-60.909Z" transform="translate(-146.882 -117.78)" fill="#6a4d23"/>
        <path id="Trazado_906725" data-name="Trazado 906725" d="M330.024-47.015q0-7.927,0-15.853c0-1.882.678-2.555,2.573-2.556,5.284,0,10.568-.014,15.853,0A10.215,10.215,0,0,1,358.9-54.986c.023,7.981.008,15.962,0,23.943,0,1.89-.756,2.642-2.647,2.642q-11.808,0-23.615,0c-1.931,0-2.613-.7-2.614-2.652Q330.021-39.034,330.024-47.015Zm4.223-14.362v28.745h20.44V-53.119c-1.866,0-3.677,0-5.488,0-1.864-.006-2.593-.722-2.6-2.551-.007-1.493-.073-2.992.022-4.479.068-1.059-.34-1.273-1.3-1.247-2.257.062-4.517.02-6.775.02Zm16.461,4.012h3.652a6.009,6.009,0,0,0-3.652-3.566Z" transform="translate(0 -117.779)" fill="#6a4d23"/>
        <path id="Trazado_906726" data-name="Trazado 906726" d="M559.4,15.514c-.722-.68-1.478-1.363-2.2-2.079-1.247-1.237-1.366-2.349-.388-3.312.913-.9,2.136-.732,3.332.45q1.009,1,2.025,1.987a1.99,1.99,0,0,0,.38.172c.717-.771,1.459-1.62,2.257-2.413a2.067,2.067,0,1,1,2.878,2.921c-.787.8-1.62,1.546-2.582,2.458.953.891,1.8,1.634,2.588,2.432a2.091,2.091,0,0,1,.2,3.1c-.883.883-2.044.819-3.086-.189-.758-.733-1.5-1.484-2.25-2.223a3.4,3.4,0,0,0-.44-.246c-.7.776-1.418,1.642-2.208,2.439-1.036,1.045-2.185,1.109-3.084.247-.934-.9-.862-2.056.209-3.166.732-.759,1.477-1.5,2.215-2.258A2.538,2.538,0,0,0,559.4,15.514Z" transform="translate(-176.671 -176.355)" fill="#6a4d23"/>
        <path id="Trazado_906727" data-name="Trazado 906727" d="M372.3,24.129c1.554-1.583,3.027-3.091,4.509-4.589a2.008,2.008,0,0,1,2.579-.447,1.822,1.822,0,0,1,.968,2.119,2.871,2.871,0,0,1-.727,1.29q-2.854,2.93-5.778,5.791a2.046,2.046,0,0,1-3.245,0q-.869-.827-1.7-1.7a2.05,2.05,0,0,1-.156-3.09,2.13,2.13,0,0,1,3.024.151C371.908,23.774,372.039,23.894,372.3,24.129Z" transform="translate(-29.763 -183.59)" fill="#6a4d23"/>
      </g>
    </g>
  </g>
</svg>
