<svg xmlns="http://www.w3.org/2000/svg" xmlns:xlink="http://www.w3.org/1999/xlink" width="121" height="121" viewBox="0 0 121 121">
  <defs>
    <clipPath id="clip-path">
      <rect id="Rectángulo_400938" data-name="Rectángulo 400938" width="121" height="121" transform="translate(0 0)" fill="none"/>
    </clipPath>
    <clipPath id="clip-path-2">
      <rect id="Rectángulo_401073" data-name="Rectángulo 401073" width="92.219" height="41.532" fill="#efb499"/>
    </clipPath>
  </defs>
  <g id="Grupo_1119993" data-name="Grupo 1119993" transform="translate(-6092.496 1699.774)">
    <g id="Grupo_1118313" data-name="Grupo 1118313" transform="translate(5704.828 -7712.774)">
      <rect id="Rectángulo_401103" data-name="Rectángulo 401103" width="121" height="121" transform="translate(387.668 6013)" fill="none"/>
      <g id="Grupo_1099348" data-name="Grupo 1099348" transform="translate(387.668 6013)">
        <g id="Grupo_1099282" data-name="Grupo 1099282">
          <g id="Grupo_1099281" data-name="Grupo 1099281" clip-path="url(#clip-path-2)">
            <path id="Trazado_873375" data-name="Trazado 873375" d="M74.8,9.1c-4.139,0-6.28-2.03-8.17-3.821-1.855-1.756-3.452-3.274-6.792-3.274s-4.937,1.517-6.792,3.274C51.161,7.072,49.023,9.1,44.881,9.1s-6.28-2.03-8.169-3.821C34.857,3.525,33.26,2.007,29.92,2.007s-4.937,1.517-6.789,3.274C21.241,7.072,19.1,9.1,14.962,9.1S8.679,7.072,6.789,5.281C4.937,3.525,3.34,2.007,0,2.007V0C4.139,0,6.28,2.033,8.17,3.821c1.855,1.759,3.452,3.274,6.792,3.274S19.9,5.58,21.75,3.824C23.637,2.033,25.781,0,29.92,0s6.283,2.033,8.17,3.821c1.855,1.759,3.452,3.274,6.792,3.274s4.937-1.514,6.792-3.274C53.56,2.033,55.7,0,59.843,0s6.283,2.033,8.17,3.821C69.867,5.58,71.464,7.094,74.8,7.094S79.742,5.58,81.6,3.821C83.483,2.033,85.624,0,89.766,0V2.007c-3.34,0-4.937,1.517-6.792,3.274C81.084,7.072,78.943,9.1,74.8,9.1" transform="translate(2.453 32.43)" fill="#efb499"/>
            <path id="Trazado_873376" data-name="Trazado 873376" d="M74.8,9.1c-4.139,0-6.283-2.03-8.17-3.824-1.855-1.756-3.452-3.27-6.792-3.27s-4.937,1.514-6.792,3.27C51.164,7.072,49.023,9.1,44.881,9.1s-6.283-2.03-8.17-3.824c-1.855-1.756-3.452-3.27-6.792-3.27s-4.937,1.517-6.789,3.27C21.241,7.072,19.1,9.1,14.962,9.1S8.679,7.072,6.789,5.278C4.937,3.522,3.34,2.007,0,2.007V0C4.139,0,6.283,2.03,8.17,3.821c1.855,1.759,3.452,3.274,6.792,3.274S19.9,5.58,21.75,3.821C23.637,2.03,25.781,0,29.92,0S36.2,2.03,38.093,3.821c1.852,1.759,3.449,3.274,6.789,3.274s4.937-1.514,6.792-3.274C53.56,2.03,55.7,0,59.843,0s6.283,2.03,8.17,3.821C69.867,5.58,71.464,7.094,74.8,7.094S79.742,5.58,81.6,3.821C83.486,2.03,85.627,0,89.769,0V2.007c-3.34,0-4.94,1.517-6.8,3.27C81.084,7.072,78.943,9.1,74.8,9.1" transform="translate(1.635 21.62)" fill="#efb499"/>
            <path id="Trazado_873377" data-name="Trazado 873377" d="M74.8,9.1c-4.139,0-6.283-2.03-8.169-3.824-1.855-1.756-3.452-3.27-6.792-3.27s-4.937,1.514-6.792,3.27C51.164,7.072,49.02,9.1,44.881,9.1s-6.283-2.03-8.17-3.824c-1.855-1.756-3.452-3.27-6.792-3.27s-4.937,1.517-6.789,3.27C21.241,7.072,19.1,9.1,14.962,9.1S8.678,7.072,6.789,5.278C4.937,3.522,3.34,2.007,0,2.007V0C4.139,0,6.283,2.03,8.169,3.821c1.851,1.759,3.452,3.274,6.792,3.274S19.9,5.58,21.75,3.821C23.637,2.03,25.781,0,29.92,0S36.2,2.03,38.093,3.821c1.852,1.759,3.449,3.274,6.789,3.274s4.937-1.514,6.792-3.274C53.56,2.03,55.7,0,59.843,0s6.283,2.03,8.17,3.821C69.867,5.58,71.464,7.094,74.8,7.094S79.742,5.58,81.6,3.821C83.486,2.03,85.624,0,89.769,0V2.007c-3.34,0-4.941,1.517-6.8,3.27C81.084,7.072,78.943,9.1,74.8,9.1" transform="translate(0.818 10.81)" fill="#efb499"/>
            <path id="Trazado_873378" data-name="Trazado 873378" d="M74.8,9.1c-4.139,0-6.28-2.03-8.17-3.821-1.855-1.756-3.452-3.27-6.792-3.27s-4.937,1.514-6.789,3.27C51.164,7.069,49.023,9.1,44.881,9.1s-6.28-2.03-8.169-3.821c-1.855-1.756-3.452-3.27-6.792-3.27s-4.937,1.514-6.789,3.267C21.245,7.069,19.1,9.1,14.962,9.1S8.678,7.069,6.789,5.278C4.937,3.522,3.34,2.007,0,2.007V0C4.139,0,6.283,2.03,8.17,3.821c1.855,1.756,3.452,3.27,6.792,3.27S19.9,5.577,21.75,3.821C23.64,2.03,25.781,0,29.92,0s6.28,2.03,8.173,3.821c1.852,1.756,3.449,3.27,6.789,3.27s4.937-1.514,6.792-3.27C53.563,2.03,55.7,0,59.843,0s6.28,2.03,8.17,3.821c1.855,1.756,3.452,3.27,6.792,3.27s4.937-1.514,6.792-3.27C83.486,2.03,85.627,0,89.769,0V2.007c-3.344,0-4.941,1.514-6.8,3.27C81.084,7.069,78.943,9.1,74.8,9.1" transform="translate(0 0.003)" fill="#efb499"/>
          </g>
        </g>
      </g>
      <circle id="Elipse_11504" data-name="Elipse 11504" cx="50.5" cy="50.5" r="50.5" transform="translate(402.668 6031)" fill="#ffce73"/>
      <circle id="Elipse_11503" data-name="Elipse 11503" cx="52.5" cy="52.5" r="52.5" transform="translate(395.668 6021)" fill="#f3f9ff"/>
    </g>
    <g id="Grupo_1118314" data-name="Grupo 1118314" transform="translate(6118.438 -1673.971)">
      <rect id="Rectángulo_401104" data-name="Rectángulo 401104" width="68" height="69" transform="translate(-0.438 -0.804)" fill="none"/>
      <g id="Grupo_1119750" data-name="Grupo 1119750" transform="translate(-239.741 461.211)">
        <path id="Trazado_906690" data-name="Trazado 906690" d="M279.915-280.36c-.593-.124-.743-.53-.742-1.082.008-5.375-.009-10.751.018-16.126a2.383,2.383,0,0,1,2.345-2.528,34.482,34.482,0,0,1,4.278-.028c1.672.094,2.517,1.067,2.534,2.828.028,2.856.008,5.713.009,8.57,0,2.969.021,5.939-.015,8.908-.009.738.208.989.959.955,1.275-.058,2.557-.064,3.832,0,.821.042.995-.271.99-1.032-.032-4.473-.017-8.946-.014-13.419,0-.555-.108-1.152.489-1.517.642-.3.894.14,1.14.6.2,2.25.061,4.5.086,6.758.026,2.33,0,4.661.01,6.991.007,1.1.228,1.324,1.316,1.333s2.177.015,3.267-.06a.937.937,0,0,0,1.012-1.064c0-.376.015-.751.015-1.127q0-14.829,0-29.658c0-.15,0-.3,0-.451-.021-1.883-.155-2.028-2.019-2.191a13.176,13.176,0,0,1-1.578.025c-1.668.022-1.943.288-1.97,2-.022,1.429,0,2.859-.007,4.288a5.334,5.334,0,0,1-.063,1.125c-.174.794-.561,1.241-1.435.815a1.732,1.732,0,0,1-.264-1.181c0-2.031-.013-4.062.005-6.092a2.59,2.59,0,0,1,2.859-2.864c.94-.021,1.88,0,2.82,0,2.622,0,3.46.824,3.461,3.407q0,15.908,0,31.816c0,1.7-.166,1.473,1.52,1.49.564.005,1.128,0,1.692.007.474,0,.82.2.836.711s-.315.726-.8.735c-.263.005-.526,0-.789,0q-29.386,0-58.772-.013c-.6,0-1.575.356-1.589-.7s.953-.728,1.564-.736c2.462-.033,2.462-.017,2.462-2.478,0-3.121-.011-6.243,0-9.364.009-2,.972-2.935,2.992-2.955,1.128-.011,2.257-.024,3.384,0a2.526,2.526,0,0,1,2.747,2.735c.023,3.121,0,6.243.011,9.364,0,.555-.019,1.074-.719,1.2-.913.157-.96-.53-1-1.109-.094-1.269-.031-2.545-.037-3.818-.007-1.423.008-2.846,0-4.268-.017-1.949-.211-2.142-2.191-2.252-.658.046-1.318-.011-1.978.012a1.28,1.28,0,0,0-1.275.684,2.453,2.453,0,0,0-.183,1.213q0,4.673,0,9.346c0,1.264.147,1.389,1.434,1.412s2.55-.049,3.826-.051a2.533,2.533,0,0,1,1.418.262c1.911.018,3.823.012,5.734.067.75.022.741-.4.739-.931q-.012-4.84,0-9.679c0-.486.06-.971.091-1.456.939-.648,1.185-.57,1.629.515.055,3.266.007,6.533.026,9.8.008,1.334.144,1.469,1.5,1.471,1.013,0,2.025,0,3.039-.053a.969.969,0,0,0,1.067-1.126c0-.337.011-.676.011-1.014q0-11.264,0-22.529c0-.15,0-.3,0-.45-.018-1.924-.1-2.013-1.99-2.16a21.2,21.2,0,0,1-2.228.017c-.954-.015-1.338.459-1.357,1.36a20.31,20.31,0,0,1-.056,2.34c-.152,1.106-.683,1.313-1.663.679-.02-1.275-.1-2.553-.046-3.826a2.457,2.457,0,0,1,2.633-2.485c1.164-.024,2.328-.011,3.492-.005,2.077.011,3.019.944,3.02,3.03q.009,12.451.006,24.9c0,1.84-.216,1.576,1.639,1.586,1.577.009,3.154-.015,4.731-.024a2.929,2.929,0,0,1,1.426-.241c1.313-.018,2.627.044,3.94-.043s1.338-.092,1.355-1.472c.008-.676,0-1.351,0-2.027q0-6.589,0-13.177c0-2.259-.239-2.51-2.533-2.487-.843.008-1.735-.248-2.518.3-.649.494-.5,1.217-.506,1.869-.018,4.571-.007,9.142-.01,13.713a5.234,5.234,0,0,1-.084,1.343C280.768-280.639,280.6-280.162,279.915-280.36Z" transform="translate(0 -115.638)" fill="#2b3c65"/>
        <path id="Trazado_906691" data-name="Trazado 906691" d="M317.449-366.937a2.887,2.887,0,0,1,2.864,1.807,2.884,2.884,0,0,1-.482,3.26,2.807,2.807,0,0,1-3.249.92,1.192,1.192,0,0,0-1.455.3q-4.543,4.3-9.148,8.543a1.218,1.218,0,0,0-.468,1.518,2.894,2.894,0,0,1-1.062,3.293,3.135,3.135,0,0,1-3.5.157,2.959,2.959,0,0,1-1.38-3.288.989.989,0,0,0-.459-1.213c-3.034-2.279-6.049-4.584-9.078-6.87-.246-.186-.465-.514-.882-.285a3.259,3.259,0,0,1-2.3.248c-.461-.1-.683.156-.939.447q-5.017,5.724-10.051,11.432a1.022,1.022,0,0,0-.225,1.266,3.041,3.041,0,0,1-1.121,3.685,3.1,3.1,0,0,1-3.767-.213,3.071,3.071,0,0,1-.784-3.686,2.988,2.988,0,0,1,3.574-1.622,1.057,1.057,0,0,0,1.227-.431q4.926-5.653,9.9-11.269a1,1,0,0,0,.2-1.345,2.95,2.95,0,0,1,.773-3.573,3.111,3.111,0,0,1,3.668-.305,3,3,0,0,1,1.339,3.4.9.9,0,0,0,.379,1.127q4.6,3.447,9.159,6.947a.912.912,0,0,0,1.118.116,2.524,2.524,0,0,1,2.383-.075c.434.217.689.017.979-.256,3.205-3.011,6.4-6.031,9.643-9,.5-.459.276-.844.18-1.289A3.019,3.019,0,0,1,317.449-366.937Z" transform="translate(-18.811 -75.895)" fill="#2b3c65"/>
        <path id="Trazado_906692" data-name="Trazado 906692" d="M462.353-300.12c.942.229,1.2-.252,1.189-1.092-.019-1.949-.014-3.9,0-5.848.008-1.358.3-1.651,1.647-1.654.711,0,1.422.024,2.133.038.671.344.6.992.611,1.58.03,1.728.011,3.457.011,5.185q0,12.794,0,25.588c0,.413.008.827-.007,1.24-.049,1.354-.171,1.493-1.492,1.469-.895-.016-2.049.384-2.616-.156-.625-.595-.209-1.777-.215-2.7-.026-3.795-.007-7.59-.017-11.385a2.128,2.128,0,0,0-.12-1.211,1.52,1.52,0,0,0-.9-.434c.288-1.706.566-3.411-.19-5.077a3.01,3.01,0,0,0,.2-3.957A1.214,1.214,0,0,0,462.353-300.12Z" transform="translate(-167.982 -120.967)" fill="#f3f3f3"/>
        <path id="Trazado_906693" data-name="Trazado 906693" d="M358.072-449.443c0-1.692-.02-3.385.005-5.077a1.789,1.789,0,0,1,1.927-2c1.352-.053,2.708-.037,4.06,0a1.924,1.924,0,0,1,1.739,1.062c.479.9,1.044,1.006,1.791.262a8.218,8.218,0,0,0,2.708-5.876c0-.451-.008-.9,0-1.354a2.419,2.419,0,0,1,1.9-2.466,2.687,2.687,0,0,1,3.122,1.422c1.056,2,1.6,4.05.654,6.251-.353.822.037.915.735.9,1.39-.035,2.783-.03,4.173,0a2.909,2.909,0,0,1,2.983,3.686q-.737,3.523-1.583,7.023a2.959,2.959,0,0,1-3.015,2.389c-3.421.032-6.844.015-10.265,0a4.987,4.987,0,0,1-2.052-.545c-.534-.246-.915-.343-1.193.406a1.7,1.7,0,0,1-1.733,1.028c-1.354,0-2.708.027-4.061-.008a1.744,1.744,0,0,1-1.889-1.9C358.051-445.983,358.073-447.713,358.072-449.443Z" transform="translate(-87.25)" fill="#2b3c65"/>
        <path id="Trazado_906694" data-name="Trazado 906694" d="M330.847-260.724c-.287-.751-.778-.742-1.368-.369a5.905,5.905,0,0,0,.005-5.568c1.36-.5,1.488-2.594.226-3.688.814-.752.208-1.314-.254-1.894,1.1.443,1.352.3,1.377-.833.019-.859,0-1.72.006-2.58.005-.89.389-1.42,1.347-1.394.82.023,1.641.041,2.461.062a1.507,1.507,0,0,1,.6,1.487q.029,12.513,0,25.027c0,1.269-.169,1.406-1.463,1.368-.922-.027-2.1.411-2.7-.217-.541-.571-.14-1.722-.159-2.616C330.866-254.868,331.023-257.8,330.847-260.724Z" transform="translate(-65.104 -145.478)" fill="#f3f3f3"/>
        <path id="Trazado_906695" data-name="Trazado 906695" d="M398.355-222.08c.825-.175.724-.821.723-1.418q0-7.578,0-15.157c0-.6-.059-1.223.63-1.54a14.024,14.024,0,0,1,2.8-.091c.548-.018.8.337.9.829a6.4,6.4,0,0,1,.084,1.348q0,7.725,0,15.451a5.739,5.739,0,0,1-.089,1.347c-.083.347-.232.662-.658.645a26.23,26.23,0,0,1-4.36-.13Q398.373-221.438,398.355-222.08Z" transform="translate(-118.44 -173.918)" fill="#efb499"/>
        <path id="Trazado_906696" data-name="Trazado 906696" d="M398.089-221.373c1.313.006,2.626-.005,3.938.026.585.014.789-.216.788-.793q-.019-8.835,0-17.671c0-.749-.355-.985-1.045-.961-.787.027-1.575,0-2.363,0a12.212,12.212,0,0,1,4.766-.1c.866.084.872.986.871,1.724q-.006,7.654,0,15.308c0,2.67,0,2.681-2.7,2.693-1.46.006-2.921-.036-4.38-.057C398.007-221.259,398.048-221.316,398.089-221.373Z" transform="translate(-118.137 -173.341)" fill="#efb499"/>
        <path id="Trazado_906697" data-name="Trazado 906697" d="M273.113-211.76a1.745,1.745,0,0,1,.223-.032c2.288-.045,2.44.1,2.441,2.359q0,4.052,0,8.1c0,.578-.028,1.159.723,1.319q0,.715.008,1.429c-2.1.03-4.206.055-6.309.092-.458.008-.693-.141-.691-.643.014-3.873.013-7.745.026-11.617a1.184,1.184,0,0,1,.169-.4c.51.475.389,1.109.392,1.693.018,2.965,0,5.931.019,8.9,0,.492-.189,1.177.463,1.37a3.21,3.21,0,0,0,2.31-.073c.376-.18.3-.664.292-1.028-.056-3.713.17-7.43-.127-11.14A.9.9,0,0,1,273.113-211.76Z" transform="translate(-18.696 -195.992)" fill="#efb499"/>
        <path id="Trazado_906698" data-name="Trazado 906698" d="M461.418-263.648a.9.9,0,0,1,.955,1.081c-.023.626-.012,1.254,0,1.882.011.795-.307,1.2-1.151.995C460.834-261.033,460.532-262.37,461.418-263.648Z" transform="translate(-166.811 -155.854)" fill="#2f3f67"/>
        <path id="Trazado_906699" data-name="Trazado 906699" d="M329.3-247.566c.776-.2,1.122.147,1.127.907,0,.667.022,1.335,0,2-.039,1-.335,1.164-1.349.781C329.021-245.116,328.672-246.371,329.3-247.566Z" transform="translate(-64.697 -168.261)" fill="#2f4068"/>
        <path id="Trazado_906700" data-name="Trazado 906700" d="M467.32-289.059c.406.362.24.845.241,1.276.012,4.324.026,8.649-.009,12.973-.007.813.181,1.112,1.056,1.108,2.789-.011,2.789.026,2.789-2.748q0-15.341,0-30.683a2.589,2.589,0,0,0-.23-1.535c.413-.013.825-.038,1.238-.035a1.111,1.111,0,0,1,1.208,1.192c.014.225.006.451.006.677,0,10.681-.012,21.362.021,32.043,0,.957-.186,1.349-1.228,1.28a35.879,35.879,0,0,0-4.058.021c-.79.038-1.026-.22-1.02-1.014.034-4.626.017-9.252.015-13.878C467.345-288.608,467.329-288.834,467.32-289.059Z" transform="translate(-171.827 -120.974)" fill="#cfcfcf"/>
        <path id="Trazado_906701" data-name="Trazado 906701" d="M335.434-260.648c.315.357.181.791.183,1.19.011,3.085.035,6.17-.013,9.254-.013.855.257,1.081,1.091,1.078,2.765-.011,2.765.021,2.765-2.772q0-11.737,0-23.474a2.909,2.909,0,0,0-.225-1.541c.449-.014.9-.048,1.347-.039a1.061,1.061,0,0,1,1.088,1.066,4.21,4.21,0,0,1,.014.563c0,8.421-.014,16.841.022,25.262,0,.922-.29,1.154-1.155,1.121-1.426-.055-2.856-.015-4.283.021-.586.015-.893-.1-.885-.794C335.422-253.357,335.421-257,335.434-260.648Z" transform="translate(-69.691 -145.554)" fill="#cfcfcf"/>
        <path id="Trazado_906702" data-name="Trazado 906702" d="M273.783-211.75a1.885,1.885,0,0,1,.463,1.335c-.019,3.564-.027,7.128,0,10.691.007.757-.188,1.043-1,1.049-2.847.02-2.843.051-2.848-2.788q-.008-4.839-.029-9.677c.294-.711.918-.648,1.514-.641C272.519-211.775,273.151-211.761,273.783-211.75Z" transform="translate(-19.366 -196.001)" fill="#efb499"/>
        <path id="Trazado_906703" data-name="Trazado 906703" d="M278.032-270.509a1.511,1.511,0,0,1-1.582-1.529,1.563,1.563,0,0,1,1.623-1.622,1.56,1.56,0,0,1,1.533,1.6A1.528,1.528,0,0,1,278.032-270.509Z" transform="translate(-24.07 -148.103)" fill="#ffe9df"/>
        <path id="Trazado_906704" data-name="Trazado 906704" d="M477.557-358.865a1.481,1.481,0,0,1-1.586,1.512,1.5,1.5,0,0,1-1.571-1.541,1.623,1.623,0,0,1,1.655-1.618A1.618,1.618,0,0,1,477.557-358.865Z" transform="translate(-177.308 -80.868)" fill="#ffe9df"/>
        <path id="Trazado_906705" data-name="Trazado 906705" d="M345.572-348.229a1.644,1.644,0,0,1-1.625,1.538,1.628,1.628,0,0,1-1.553-1.61,1.53,1.53,0,0,1,1.682-1.551A1.525,1.525,0,0,1,345.572-348.229Z" transform="translate(-75.119 -89.119)" fill="#ffe9df"/>
        <path id="Trazado_906706" data-name="Trazado 906706" d="M410-297.914a1.546,1.546,0,0,1,1.538,1.6,1.655,1.655,0,0,1-1.584,1.591,1.659,1.659,0,0,1-1.595-1.693A1.558,1.558,0,0,1,410-297.914Z" transform="translate(-126.182 -129.327)" fill="#ffe9df"/>
        <path id="Trazado_906707" data-name="Trazado 906707" d="M401.174-439.567c-1.43,0-2.863-.065-4.288.02-1.23.073-2.239-.581-3.369-.816-.4-.083-.337-.445-.338-.738,0-2.07.011-4.139-.011-6.208-.005-.51.121-.742.681-.75a3.168,3.168,0,0,0,2.319-1.227,9.4,9.4,0,0,0,2.765-7.036c-.015-.262-.006-.527,0-.79a1.052,1.052,0,0,1,.861-1.154,1.18,1.18,0,0,1,1.374.69,6.071,6.071,0,0,1,.5,5.379c-.846,2.442-.726,2.5,1.842,2.5,1.43,0,2.861-.031,4.289.018,1.566.054,2.029.722,1.684,2.262q-.664,2.967-1.307,5.939c-.352,1.62-.689,1.9-2.38,1.909C404.259-439.561,402.716-439.567,401.174-439.567Z" transform="translate(-114.425 -5.17)" fill="#f3f3f3"/>
        <path id="Trazado_906708" data-name="Trazado 906708" d="M369.487-415.2c0,1.576-.018,3.152.009,4.728.01.577-.182.811-.774.8-1.125-.029-2.251-.025-3.376,0-.561.012-.81-.169-.806-.77q.028-4.784,0-9.569c0-.575.19-.812.78-.8,1.125.028,2.252.037,3.376,0,.682-.024.81.3.8.888C369.47-418.357,369.488-416.781,369.487-415.2Z" transform="translate(-92.263 -34.182)" fill="#ffb937"/>
      </g>
    </g>
  </g>
</svg>
