<svg xmlns="http://www.w3.org/2000/svg" xmlns:xlink="http://www.w3.org/1999/xlink" width="129" height="128" viewBox="0 0 129 128">
  <defs>
    <clipPath id="clip-path">
      <rect id="Rectángulo_400938" data-name="Rectángulo 400938" width="120" height="120" fill="none"/>
    </clipPath>
    <clipPath id="clip-path-2">
      <rect id="Rectángulo_400938-2" data-name="Rectángulo 400938" width="113" height="113" transform="translate(0.211 0.211)" fill="none"/>
    </clipPath>
    <clipPath id="clip-path-3">
      <rect id="Rectángulo_401073" data-name="Rectángulo 401073" width="86.443" height="38.93" fill="#7d3a1b"/>
    </clipPath>
  </defs>
  <g id="Grupo_1119996" data-name="Grupo 1119996" transform="translate(-375.777 -11531)">
    <g id="Grupo_108927" data-name="Grupo 108927" transform="translate(-14.223 7064)">
      <path id="Rectángulo_36179" data-name="Rectángulo 36179" d="M0,0H129V128H0Z" transform="translate(390 4467)" fill="#feebcf"/>
    </g>
    <g id="Grupo_1118319" data-name="Grupo 1118319" transform="translate(118.566 6255)">
      <g id="Grupo_1099379" data-name="Grupo 1099379" transform="translate(265 5284)">
        <rect id="Rectángulo_401103" data-name="Rectángulo 401103" width="113" height="113" transform="translate(0.211 0.211)" fill="none"/>
        <g id="Grupo_1099348" data-name="Grupo 1099348">
          <g id="Grupo_1099282" data-name="Grupo 1099282">
            <g id="Grupo_1099281" data-name="Grupo 1099281" clip-path="url(#clip-path-3)">
              <path id="Trazado_873375" data-name="Trazado 873375" d="M70.12,8.532c-3.88,0-5.887-1.9-7.658-3.581C60.723,3.3,59.226,1.882,56.1,1.882S51.467,3.3,49.728,4.95c-1.771,1.679-3.775,3.581-7.658,3.581s-5.886-1.9-7.658-3.581C32.674,3.3,31.177,1.882,28.046,1.882S23.418,3.3,21.682,4.95C19.911,6.629,17.9,8.532,14.024,8.532S8.135,6.629,6.364,4.95C4.628,3.3,3.131,1.882,0,1.882V0C3.88,0,5.887,1.906,7.658,3.581,9.4,5.23,10.893,6.65,14.024,6.65s4.628-1.419,6.364-3.066C22.157,1.906,24.166,0,28.046,0s5.89,1.906,7.658,3.581C37.442,5.23,38.939,6.65,42.07,6.65S46.7,5.23,48.437,3.581C50.205,1.906,52.215,0,56.1,0s5.89,1.906,7.658,3.581C65.491,5.23,66.988,6.65,70.12,6.65s4.628-1.419,6.367-3.069C78.255,1.906,80.261,0,84.144,0V1.882c-3.131,0-4.628,1.422-6.367,3.069C76.006,6.629,74,8.532,70.12,8.532" transform="translate(2.299 30.399)" fill="#7d3a1b"/>
              <path id="Trazado_873376" data-name="Trazado 873376" d="M70.12,8.532c-3.88,0-5.889-1.9-7.658-3.584C60.723,3.3,59.226,1.882,56.1,1.882S51.467,3.3,49.728,4.947c-1.768,1.682-3.775,3.584-7.658,3.584s-5.889-1.9-7.658-3.584C32.674,3.3,31.177,1.882,28.046,1.882S23.418,3.3,21.682,4.947C19.911,6.629,17.9,8.532,14.025,8.532s-5.889-1.9-7.661-3.584C4.628,3.3,3.131,1.882,0,1.882V0C3.88,0,5.889,1.9,7.658,3.581,9.4,5.23,10.893,6.65,14.025,6.65s4.628-1.419,6.364-3.069C22.157,1.9,24.166,0,28.046,0s5.889,1.9,7.661,3.581C37.442,5.23,38.939,6.65,42.071,6.65S46.7,5.23,48.437,3.581C50.206,1.9,52.215,0,56.1,0s5.89,1.9,7.658,3.581C65.491,5.23,66.988,6.65,70.12,6.65s4.628-1.419,6.367-3.069C78.257,1.9,80.264,0,84.147,0V1.882c-3.131,0-4.631,1.422-6.37,3.066C76.006,6.629,74,8.532,70.12,8.532" transform="translate(1.533 20.266)" fill="#7d3a1b"/>
              <path id="Trazado_873377" data-name="Trazado 873377" d="M70.119,8.532c-3.88,0-5.889-1.9-7.658-3.584C60.723,3.3,59.226,1.882,56.1,1.882S51.467,3.3,49.728,4.947C47.96,6.629,45.95,8.532,42.071,8.532s-5.89-1.9-7.658-3.584C32.674,3.3,31.177,1.882,28.046,1.882S23.418,3.3,21.682,4.947C19.911,6.629,17.9,8.532,14.025,8.532s-5.89-1.9-7.661-3.584C4.628,3.3,3.131,1.882,0,1.882V0C3.88,0,5.889,1.9,7.658,3.581,9.393,5.23,10.893,6.65,14.025,6.65s4.628-1.419,6.364-3.069C22.156,1.9,24.166,0,28.046,0s5.89,1.9,7.661,3.581C37.442,5.23,38.939,6.65,42.071,6.65S46.7,5.23,48.437,3.581C50.205,1.9,52.215,0,56.1,0s5.889,1.9,7.658,3.581C65.491,5.23,66.988,6.65,70.119,6.65s4.628-1.419,6.367-3.069C78.257,1.9,80.261,0,84.147,0V1.882c-3.131,0-4.631,1.422-6.37,3.066C76.006,6.629,74,8.532,70.119,8.532" transform="translate(0.766 10.133)" fill="#7d3a1b"/>
              <path id="Trazado_873378" data-name="Trazado 873378" d="M70.12,8.529c-3.88,0-5.887-1.9-7.658-3.581C60.723,3.3,59.226,1.882,56.095,1.882S51.467,3.3,49.731,4.947C47.96,6.626,45.953,8.529,42.07,8.529s-5.887-1.9-7.658-3.581C32.674,3.3,31.177,1.882,28.046,1.882S23.418,3.3,21.682,4.944C19.914,6.626,17.9,8.529,14.024,8.529s-5.89-1.9-7.661-3.581C4.628,3.3,3.131,1.882,0,1.882V0C3.88,0,5.89,1.9,7.658,3.581,9.4,5.228,10.893,6.647,14.024,6.647s4.628-1.419,6.364-3.066C22.159,1.9,24.166,0,28.046,0s5.887,1.9,7.661,3.581c1.736,1.646,3.233,3.066,6.364,3.066S46.7,5.228,48.437,3.581C50.208,1.9,52.215,0,56.095,0s5.887,1.9,7.658,3.581c1.739,1.646,3.236,3.066,6.367,3.066s4.628-1.419,6.367-3.066C78.257,1.9,80.264,0,84.147,0V1.882c-3.134,0-4.631,1.419-6.37,3.066C76.006,6.626,74,8.529,70.12,8.529" transform="translate(0 0.003)" fill="#7d3a1b"/>
            </g>
          </g>
        </g>
        <path id="Trazado_873425" data-name="Trazado 873425" d="M47.337,0A47.337,47.337,0,1,1,0,47.337,47.337,47.337,0,0,1,47.337,0Z" transform="translate(14.061 16.873)" fill="#7d3a1b"/>
        <circle id="Elipse_11503" data-name="Elipse 11503" cx="49.5" cy="49.5" r="49.5" transform="translate(7.211 7.211)" fill="#fff"/>
      </g>
      <g id="Grupo_1119797" data-name="Grupo 1119797" transform="translate(145.589 5274.298)">
        <rect id="Rectángulo_406685" data-name="Rectángulo 406685" width="50.334" height="67.325" transform="translate(148.661 31.514)" fill="#e6e6e6"/>
        <rect id="Rectángulo_406686" data-name="Rectángulo 406686" width="50.334" height="67.325" transform="translate(146.397 33.778)" fill="#f0f0f0"/>
        <rect id="Rectángulo_406687" data-name="Rectángulo 406687" width="41.732" height="7.409" transform="translate(150.698 36.461)" fill="#ffb937"/>
        <g id="Grupo_1119794" data-name="Grupo 1119794" transform="translate(150.698 46.553)">
          <rect id="Rectángulo_406688" data-name="Rectángulo 406688" width="41.732" height="1.789" fill="#b4b4b4"/>
          <rect id="Rectángulo_406689" data-name="Rectángulo 406689" width="41.732" height="1.789" transform="translate(0 3.513)" fill="#b4b4b4"/>
          <rect id="Rectángulo_406690" data-name="Rectángulo 406690" width="26.679" height="1.789" transform="translate(0 7.026)" fill="#b4b4b4"/>
        </g>
        <path id="Trazado_906850" data-name="Trazado 906850" d="M191.406,54.831V89.324H150.7V54.831Zm.511-.511H150.185V89.835h41.732V54.32Z" transform="translate(0.514 3.092)" fill="#aeaeae"/>
        <rect id="Rectángulo_406691" data-name="Rectángulo 406691" width="0.511" height="35.515" transform="translate(155.553 57.412)" fill="#aeaeae"/>
        <rect id="Rectángulo_406692" data-name="Rectángulo 406692" width="0.511" height="35.174" transform="translate(170.968 57.753)" fill="#aeaeae"/>
        <rect id="Rectángulo_406693" data-name="Rectángulo 406693" width="0.511" height="35.174" transform="translate(177.121 57.753)" fill="#aeaeae"/>
        <rect id="Rectángulo_406694" data-name="Rectángulo 406694" width="0.511" height="35.174" transform="translate(186.383 57.753)" fill="#aeaeae"/>
        <rect id="Rectángulo_406695" data-name="Rectángulo 406695" width="41.732" height="0.511" transform="translate(150.698 61.074)" fill="#aeaeae"/>
        <rect id="Rectángulo_406696" data-name="Rectángulo 406696" width="31.172" height="1.789" transform="translate(150.698 94.757)" fill="#b4b4b4"/>
        <path id="Trazado_906851" data-name="Trazado 906851" d="M183.611,72.745a9.1,9.1,0,1,1-1.217-4.556A9.084,9.084,0,0,1,183.611,72.745Z" transform="translate(2.575 4.355)" fill="#f5f5f5"/>
        <g id="Grupo_1119795" data-name="Grupo 1119795" transform="translate(169.493 68.664)">
          <path id="Trazado_906852" data-name="Trazado 906852" d="M171.667,66.6c0-2.005.522-2.374,1.1-2.374s1.113.36,1.113,2.374c0,1.926-.526,2.406-1.109,2.406S171.667,68.529,171.667,66.6Zm1.606,0c0-1.324-.126-1.85-.5-1.85s-.5.529-.5,1.85c0,1.349.129,1.878.5,1.878S173.273,67.959,173.273,66.6Z" transform="translate(-166.068 -64.229)" fill="#464646"/>
          <path id="Trazado_906853" data-name="Trazado 906853" d="M174.509,68.726V65.142c0-.065-.02-.1-.042-.1l-.26.065c-.045,0-.072-.03-.072-.142v-.312c0-.1.033-.135.078-.145l.856-.22a.085.085,0,0,1,.028,0c.047,0,.072.035.072.152v4.288c0,.14-.035.218-.084.218h-.5C174.54,68.944,174.509,68.866,174.509,68.726Z" transform="translate(-165.733 -64.221)" fill="#464646"/>
          <path id="Trazado_906854" data-name="Trazado 906854" d="M167.108,73.946V70.362c0-.065-.019-.1-.042-.1l-.26.065c-.045,0-.07-.03-.07-.143v-.311c0-.1.032-.136.077-.145l.856-.221a.134.134,0,0,1,.03,0c.045,0,.072.035.072.152v4.288c0,.14-.036.217-.085.217h-.5C167.14,74.163,167.108,74.086,167.108,73.946Z" transform="translate(-166.736 -63.514)" fill="#464646"/>
          <path id="Trazado_906855" data-name="Trazado 906855" d="M168.353,71.823c0-2.005.521-2.374,1.1-2.374s1.113.36,1.113,2.374c0,1.926-.526,2.406-1.109,2.406S168.353,73.749,168.353,71.823Zm1.606,0c0-1.324-.127-1.85-.5-1.85s-.5.529-.5,1.85c0,1.348.129,1.877.5,1.877S169.959,73.178,169.959,71.823Z" transform="translate(-166.517 -63.521)" fill="#464646"/>
          <path id="Trazado_906856" data-name="Trazado 906856" d="M171.193,73.946V70.362c0-.065-.019-.1-.042-.1l-.259.065c-.045,0-.072-.03-.072-.143v-.311c0-.1.033-.136.077-.145l.857-.221a.119.119,0,0,1,.028,0c.045,0,.072.035.072.152v4.288c0,.14-.035.217-.084.217h-.5C171.226,74.163,171.193,74.086,171.193,73.946Z" transform="translate(-166.182 -63.514)" fill="#464646"/>
          <path id="Trazado_906857" data-name="Trazado 906857" d="M172.733,73.946V70.362c0-.065-.019-.1-.042-.1l-.26.065c-.045,0-.07-.03-.07-.143v-.311c0-.1.032-.136.077-.145l.856-.221a.134.134,0,0,1,.03,0c.045,0,.072.035.072.152v4.288c0,.14-.036.217-.085.217h-.5C172.765,74.163,172.733,74.086,172.733,73.946Z" transform="translate(-165.973 -63.514)" fill="#464646"/>
          <path id="Trazado_906858" data-name="Trazado 906858" d="M173.978,71.823c0-2.005.521-2.374,1.1-2.374s1.113.36,1.113,2.374c0,1.926-.526,2.406-1.109,2.406S173.978,73.749,173.978,71.823Zm1.606,0c0-1.324-.127-1.85-.5-1.85s-.5.529-.5,1.85c0,1.348.129,1.877.5,1.877S175.584,73.178,175.584,71.823Z" transform="translate(-165.754 -63.521)" fill="#464646"/>
          <path id="Trazado_906859" data-name="Trazado 906859" d="M176.523,71.823c0-2.005.522-2.374,1.1-2.374s1.113.36,1.113,2.374c0,1.926-.526,2.406-1.109,2.406S176.523,73.749,176.523,71.823Zm1.606,0c0-1.324-.126-1.85-.5-1.85s-.5.529-.5,1.85c0,1.348.129,1.877.5,1.877S178.129,73.178,178.129,71.823Z" transform="translate(-165.409 -63.521)" fill="#464646"/>
          <path id="Trazado_906860" data-name="Trazado 906860" d="M179.365,73.946V70.362c0-.065-.02-.1-.042-.1l-.26.065c-.045,0-.072-.03-.072-.143v-.311c0-.1.032-.136.078-.145l.856-.221a.124.124,0,0,1,.028,0c.047,0,.072.035.072.152v4.288c0,.14-.035.217-.084.217h-.5C179.4,74.163,179.365,74.086,179.365,73.946Z" transform="translate(-165.075 -63.514)" fill="#464646"/>
          <path id="Trazado_906861" data-name="Trazado 906861" d="M172.465,79.167V75.582c0-.065-.019-.1-.042-.1l-.26.065c-.045,0-.07-.03-.07-.143V75.1c0-.1.032-.136.077-.146l.856-.22a.091.091,0,0,1,.03,0c.045,0,.072.035.072.152v4.289c0,.139-.036.217-.085.217h-.5C172.5,79.384,172.465,79.306,172.465,79.167Z" transform="translate(-166.01 -62.806)" fill="#464646"/>
          <path id="Trazado_906862" data-name="Trazado 906862" d="M174.006,79.167V75.582c0-.065-.02-.1-.042-.1l-.26.065c-.045,0-.072-.03-.072-.143V75.1c0-.1.033-.136.078-.146l.856-.22a.085.085,0,0,1,.028,0c.047,0,.073.035.073.152v4.289c0,.139-.036.217-.085.217h-.5C174.037,79.384,174.006,79.306,174.006,79.167Z" transform="translate(-165.801 -62.806)" fill="#464646"/>
        </g>
        <g id="Grupo_1119796" data-name="Grupo 1119796" transform="translate(165.821 65.868)">
          <rect id="Rectángulo_406697" data-name="Rectángulo 406697" width="1.959" height="20.035" transform="translate(17.417 18.776) rotate(-45.001)" fill="#323232"/>
          <path id="Trazado_906863" data-name="Trazado 906863" d="M174.759,84.255a11.259,11.259,0,0,1-5.63-21.009,11.458,11.458,0,0,1,11.261,0,11.258,11.258,0,0,1-5.631,21.009Zm0-20.231a8.973,8.973,0,0,0-4.484,16.747,9.134,9.134,0,0,0,8.973,0,8.974,8.974,0,0,0-4.489-16.747Z" transform="translate(-163.502 -61.767)" fill="#323232"/>
          <path id="Trazado_906864" data-name="Trazado 906864" d="M194.361,93.067a1.306,1.306,0,0,1-1.845,0L181.651,82.2a.653.653,0,0,1,0-.923l1.385-1.384a.651.651,0,0,1,.922,0L194.823,90.76a1.3,1.3,0,0,1,0,1.845Z" transform="translate(-161.067 -59.335)" fill="#7a4f00"/>
          <path id="Trazado_906865" data-name="Trazado 906865" d="M183.611,72.745a9.1,9.1,0,1,1-1.217-4.556A9.084,9.084,0,0,1,183.611,72.745Z" transform="translate(-163.246 -61.513)" fill="#e6ffff" opacity="0.5"/>
          <path id="Trazado_906866" data-name="Trazado 906866" d="M183.848,79.895a.651.651,0,0,0-.921,0l-.646.644L194.53,92.789l.184-.184a1.3,1.3,0,0,0,0-1.845Z" transform="translate(-160.956 -59.335)" fill="#7d3a1b"/>
        </g>
      </g>
    </g>
  </g>
</svg>
