<svg xmlns="http://www.w3.org/2000/svg" xmlns:xlink="http://www.w3.org/1999/xlink" width="139" height="139" viewBox="0 0 139 139">
  <defs>
    <clipPath id="clip-path">
      <rect id="Rectángulo_400938" data-name="Rectángulo 400938" width="139" height="139" transform="translate(-0.043 -0.043)" fill="none"/>
    </clipPath>
    <clipPath id="clip-path-2">
      <rect id="Rectángulo_401073" data-name="Rectángulo 401073" width="105.872" height="47.68" fill="#7d3a1b"/>
    </clipPath>
  </defs>
  <g id="Grupo_1103894" data-name="Grupo 1103894" transform="translate(-318 -4198.881)">
    <g id="Grupo_1099572" data-name="Grupo 1099572" transform="translate(53.043 -1085.076)">
      <g id="Grupo_1099379" data-name="Grupo 1099379" transform="translate(265 5284)">
        <rect id="Rectángulo_401103" data-name="Rectángulo 401103" width="139" height="139" transform="translate(-0.043 -0.043)" fill="none"/>
        <g id="Grupo_1099348" data-name="Grupo 1099348" transform="translate(0)">
          <g id="Grupo_1099282" data-name="Grupo 1099282">
            <g id="Grupo_1099281" data-name="Grupo 1099281" clip-path="url(#clip-path-2)">
              <path id="Trazado_873375" data-name="Trazado 873375" d="M85.879,10.449c-4.752,0-7.21-2.33-9.379-4.386C74.371,4.047,72.538,2.3,68.7,2.3s-5.668,1.742-7.8,3.758c-2.17,2.056-4.624,4.386-9.379,4.386s-7.21-2.33-9.379-4.386C40.018,4.047,38.184,2.3,34.349,2.3s-5.668,1.742-7.794,3.758c-2.17,2.056-4.627,4.386-9.379,4.386S9.963,8.119,7.794,6.063C5.668,4.047,3.835,2.3,0,2.3V0C4.752,0,7.21,2.334,9.379,4.386c2.129,2.02,3.963,3.758,7.8,3.758s5.668-1.738,7.794-3.755C27.136,2.334,29.6,0,34.349,0s7.213,2.334,9.379,4.386c2.129,2.02,3.963,3.758,7.8,3.758s5.668-1.738,7.8-3.758C61.489,2.334,63.951,0,68.7,0s7.213,2.334,9.379,4.386c2.129,2.02,3.963,3.758,7.8,3.758s5.668-1.738,7.8-3.758C95.843,2.334,98.3,0,103.056,0V2.3c-3.835,0-5.668,1.742-7.8,3.758-2.169,2.056-4.627,4.386-9.379,4.386" transform="translate(2.816 37.231)" fill="#7d3a1b"/>
              <path id="Trazado_873376" data-name="Trazado 873376" d="M85.879,10.449c-4.752,0-7.213-2.33-9.379-4.39C74.371,4.043,72.538,2.3,68.7,2.3s-5.668,1.738-7.8,3.755c-2.166,2.06-4.624,4.39-9.379,4.39s-7.213-2.33-9.379-4.39C40.018,4.043,38.184,2.3,34.349,2.3s-5.668,1.742-7.794,3.755c-2.17,2.06-4.627,4.39-9.379,4.39s-7.213-2.33-9.383-4.39C5.668,4.043,3.835,2.3,0,2.3V0C4.752,0,7.213,2.33,9.379,4.386c2.129,2.02,3.963,3.758,7.8,3.758s5.668-1.738,7.794-3.758C27.136,2.33,29.6,0,34.349,0s7.213,2.33,9.383,4.386c2.126,2.02,3.959,3.758,7.794,3.758s5.668-1.738,7.8-3.758C61.489,2.33,63.951,0,68.7,0s7.213,2.33,9.379,4.386c2.129,2.02,3.963,3.758,7.8,3.758s5.668-1.738,7.8-3.758C95.846,2.33,98.3,0,103.059,0V2.3c-3.835,0-5.672,1.742-7.8,3.755-2.169,2.06-4.628,4.39-9.379,4.39" transform="translate(1.877 24.821)" fill="#7d3a1b"/>
              <path id="Trazado_873377" data-name="Trazado 873377" d="M85.879,10.449c-4.752,0-7.213-2.33-9.379-4.39C74.371,4.043,72.538,2.3,68.7,2.3s-5.668,1.738-7.8,3.755c-2.166,2.06-4.627,4.39-9.379,4.39s-7.213-2.33-9.379-4.39C40.018,4.043,38.184,2.3,34.349,2.3s-5.668,1.742-7.794,3.755c-2.169,2.06-4.627,4.39-9.379,4.39s-7.213-2.33-9.383-4.39C5.668,4.043,3.835,2.3,0,2.3V0C4.752,0,7.213,2.33,9.379,4.386c2.126,2.02,3.963,3.758,7.8,3.758s5.668-1.738,7.794-3.758C27.136,2.33,29.6,0,34.349,0s7.213,2.33,9.383,4.386c2.126,2.02,3.959,3.758,7.794,3.758s5.668-1.738,7.8-3.758C61.489,2.33,63.951,0,68.7,0s7.213,2.33,9.379,4.386c2.129,2.02,3.963,3.758,7.8,3.758s5.668-1.738,7.8-3.758C95.846,2.33,98.3,0,103.059,0V2.3c-3.835,0-5.672,1.742-7.8,3.755-2.169,2.06-4.627,4.39-9.379,4.39" transform="translate(0.939 12.41)" fill="#7d3a1b"/>
              <path id="Trazado_873378" data-name="Trazado 873378" d="M85.879,10.445c-4.752,0-7.21-2.33-9.379-4.386C74.371,4.043,72.538,2.3,68.7,2.3s-5.668,1.738-7.794,3.755c-2.169,2.056-4.627,4.386-9.383,4.386s-7.21-2.33-9.379-4.386C40.018,4.043,38.184,2.3,34.349,2.3s-5.668,1.738-7.794,3.751c-2.166,2.06-4.627,4.39-9.379,4.39S9.963,8.115,7.794,6.059C5.668,4.043,3.835,2.3,0,2.3V0C4.752,0,7.213,2.33,9.379,4.386c2.129,2.016,3.963,3.755,7.8,3.755S22.845,6.4,24.971,4.386C27.14,2.33,29.6,0,34.349,0s7.21,2.33,9.383,4.386c2.126,2.016,3.959,3.755,7.794,3.755s5.668-1.738,7.8-3.755C61.493,2.33,63.951,0,68.7,0s7.21,2.33,9.379,4.386c2.129,2.016,3.963,3.755,7.8,3.755s5.668-1.738,7.8-3.755C95.846,2.33,98.3,0,103.059,0V2.3c-3.839,0-5.672,1.738-7.8,3.755-2.169,2.056-4.627,4.386-9.379,4.386" transform="translate(0 0.004)" fill="#7d3a1b"/>
            </g>
          </g>
        </g>
        <path id="Trazado_873425" data-name="Trazado 873425" d="M57.977,0A57.977,57.977,0,1,1,0,57.977,57.977,57.977,0,0,1,57.977,0Z" transform="translate(17.221 20.665)" fill="#ffe2b7"/>
        <circle id="Elipse_11503" data-name="Elipse 11503" cx="60.5" cy="60.5" r="60.5" transform="translate(8.957 8.957)" fill="#fff"/>
      </g>
    </g>
    <g id="Grupo_1119753" data-name="Grupo 1119753" transform="translate(16.947 4440.65)">
      <path id="Trazado_906709" data-name="Trazado 906709" d="M387.245-173.078q0,16.267,0,32.533c0,1.737-.1,1.833-1.864,1.833H336.424c-1.792,0-1.893-.1-1.893-1.924q0-32.533,0-65.066c0-1.787.1-1.885,1.928-1.885H385.3c1.9,0,1.943.044,1.943,1.975Q387.246-189.345,387.245-173.078Zm-1.979,32.365v-64.849H336.6v64.849Z" fill="#6a4d23"/>
      <path id="Trazado_906710" data-name="Trazado 906710" d="M583.88-180.99q0-12.211,0-24.423c0-2.052.074-2.124,2.173-2.124q6.076,0,12.152,0c1.357,0,1.589.226,1.59,1.549q0,24.985-.013,49.971a4.16,4.16,0,0,1-.346,1.621q-3.2,7.3-6.487,14.575c-.2.446-.721,1.034-1.1,1.036s-.9-.585-1.1-1.03q-3.3-7.263-6.488-14.574a5.049,5.049,0,0,1-.373-1.956Q583.86-168.666,583.88-180.99Zm6.906,24.547v-36.4H585.9v36.4Zm6.956.007v-36.393h-4.825v36.393Zm-11.876-38.519h11.871v-10.531H585.867Zm5.99,52.925,5.472-12.342H586.376Z" transform="translate(-193.222 -0.039)" fill="#6a4d23"/>
      <path id="Trazado_906711" data-name="Trazado 906711" d="M387.437-174.961c6.225.28,11.15,3.1,15.339,7.422a31.289,31.289,0,0,1,2.866,3.457,1.62,1.62,0,0,1,.1,1.487c-3.466,4.783-7.711,8.613-13.561,10.183-6.928,1.86-12.965-.166-18.224-4.724a62.254,62.254,0,0,1-4.879-5.261,1.139,1.139,0,0,1-.108-1.617c3.472-4.684,7.654-8.445,13.406-10.052A50.29,50.29,0,0,1,387.437-174.961Zm16.578,11.526c-1.7-1.692-3.236-3.453-5.007-4.928-4.023-3.349-8.631-5.1-13.946-4.315-5.927.877-10.233,4.351-13.813,8.9a1.139,1.139,0,0,0,.065,1.1,61.729,61.729,0,0,0,6.207,5.811,15.88,15.88,0,0,0,12.012,3.04C395.707-154.728,400.132-158.4,404.015-163.435Z" transform="translate(-26.463 -25.282)" fill="#6a4d23"/>
      <path id="Trazado_906712" data-name="Trazado 906712" d="M382.815-44.3q-9.114,0-18.228,0c-.337,0-.754.093-.991-.068a1.592,1.592,0,0,1-.709-.984c-.02-.258.424-.64.745-.809a2.286,2.286,0,0,1,1-.072q18.228,0,36.457,0c.3,0,.668-.088.883.052.354.231.855.627.84.93-.017.329-.514.7-.879.92-.219.135-.585.034-.885.034Z" transform="translate(-21.974 -125.012)" fill="#6a4d23"/>
      <path id="Trazado_906713" data-name="Trazado 906713" d="M382.8,56.359q9.172,0,18.345,0c.336,0,.743-.085.991.071a1.354,1.354,0,0,1,.642.9,1.231,1.231,0,0,1-.665.859,3.036,3.036,0,0,1-1.218.09q-18.063,0-36.127-.007c-.771,0-1.918.3-1.942-.91-.026-1.3,1.153-1,1.966-1Q373.8,56.346,382.8,56.359Z" transform="translate(-21.931 -204.517)" fill="#6a4d23"/>
      <path id="Trazado_906714" data-name="Trazado 906714" d="M382.808-10.139q-9.113,0-18.227,0a2.256,2.256,0,0,1-1-.053c-.314-.173-.7-.547-.71-.848a1.283,1.283,0,0,1,.637-.9,2.418,2.418,0,0,1,1.1-.087q18.227,0,36.453,0c.337,0,.742-.092.994.06.33.2.748.6.744.911s-.439.691-.775.88c-.259.145-.659.044-1,.044Z" transform="translate(-21.964 -151.514)" fill="#6a4d23"/>
      <path id="Trazado_906715" data-name="Trazado 906715" d="M382.853,22.212h18.115c.337,0,.738-.106,1,.038.364.2.865.6.859.905s-.507.68-.86.925c-.181.125-.51.04-.773.04q-18.284,0-36.568,0c-.3,0-.675.093-.882-.05a1.847,1.847,0,0,1-.831-.981c-.037-.239.48-.652.829-.834a2.37,2.37,0,0,1,1-.043Z" transform="translate(-21.991 -178.044)" fill="#6a4d23"/>
      <path id="Trazado_906716" data-name="Trazado 906716" d="M425.581-141.555a7.564,7.564,0,0,1-7.546-7.368,7.613,7.613,0,0,1,7.53-7.758,7.666,7.666,0,0,1,7.627,7.567A7.611,7.611,0,0,1,425.581-141.555Zm-2.7-2.692a5.5,5.5,0,0,0,6.594-.786,5.557,5.557,0,0,0,1.131-6.606,5.6,5.6,0,0,0-6.122-2.973c-1.968.341-3.809,2.021-4.015,3.665,2.177-.431,3.795.274,4.487,1.957C425.695-147.2,425.052-145.683,422.885-144.248Zm.431-3.473a1.581,1.581,0,0,0-1.548-1.481,1.61,1.61,0,0,0-1.573,1.583,1.662,1.662,0,0,0,1.558,1.5A1.627,1.627,0,0,0,423.315-147.721Z" transform="translate(-64.709 -39.447)" fill="#6a4d23"/>
    </g>
  </g>
</svg>
