<svg xmlns="http://www.w3.org/2000/svg" xmlns:xlink="http://www.w3.org/1999/xlink" width="129" height="128" viewBox="0 0 129 128">
  <defs>
    <clipPath id="clip-path">
      <rect id="Rectángulo_400938" data-name="Rectángulo 400938" width="120" height="120" fill="none"/>
    </clipPath>
    <clipPath id="clip-path-2">
      <rect id="Rectángulo_400938-2" data-name="Rectángulo 400938" width="113" height="113" transform="translate(0.211 0.211)" fill="none"/>
    </clipPath>
    <clipPath id="clip-path-3">
      <rect id="Rectángulo_401073" data-name="Rectángulo 401073" width="86.443" height="38.93" fill="#7d3a1b"/>
    </clipPath>
  </defs>
  <g id="Grupo_1119994" data-name="Grupo 1119994" transform="translate(-375.777 -11149)">
    <g id="Grupo_108927" data-name="Grupo 108927" transform="translate(-14.223 6682)">
      <path id="Rectángulo_36179" data-name="Rectángulo 36179" d="M0,0H129V128H0Z" transform="translate(390 4467)" fill="#feebcf"/>
    </g>
    <g id="Grupo_1099431" data-name="Grupo 1099431" transform="translate(118.566 5873)">
      <g id="Grupo_1099379" data-name="Grupo 1099379" transform="translate(265 5284)">
        <rect id="Rectángulo_401103" data-name="Rectángulo 401103" width="113" height="113" transform="translate(0.211 0.211)" fill="none"/>
        <g id="Grupo_1099348" data-name="Grupo 1099348">
          <g id="Grupo_1099282" data-name="Grupo 1099282">
            <g id="Grupo_1099281" data-name="Grupo 1099281" clip-path="url(#clip-path-3)">
              <path id="Trazado_873375" data-name="Trazado 873375" d="M70.12,8.532c-3.88,0-5.887-1.9-7.658-3.581C60.723,3.3,59.226,1.882,56.1,1.882S51.467,3.3,49.728,4.95c-1.771,1.679-3.775,3.581-7.658,3.581s-5.886-1.9-7.658-3.581C32.674,3.3,31.177,1.882,28.046,1.882S23.418,3.3,21.682,4.95C19.911,6.629,17.9,8.532,14.024,8.532S8.135,6.629,6.364,4.95C4.628,3.3,3.131,1.882,0,1.882V0C3.88,0,5.887,1.906,7.658,3.581,9.4,5.23,10.893,6.65,14.024,6.65s4.628-1.419,6.364-3.066C22.157,1.906,24.166,0,28.046,0s5.89,1.906,7.658,3.581C37.442,5.23,38.939,6.65,42.07,6.65S46.7,5.23,48.437,3.581C50.205,1.906,52.215,0,56.1,0s5.89,1.906,7.658,3.581C65.491,5.23,66.988,6.65,70.12,6.65s4.628-1.419,6.367-3.069C78.255,1.906,80.261,0,84.144,0V1.882c-3.131,0-4.628,1.422-6.367,3.069C76.006,6.629,74,8.532,70.12,8.532" transform="translate(2.299 30.399)" fill="#7d3a1b"/>
              <path id="Trazado_873376" data-name="Trazado 873376" d="M70.12,8.532c-3.88,0-5.889-1.9-7.658-3.584C60.723,3.3,59.226,1.882,56.1,1.882S51.467,3.3,49.728,4.947c-1.768,1.682-3.775,3.584-7.658,3.584s-5.889-1.9-7.658-3.584C32.674,3.3,31.177,1.882,28.046,1.882S23.418,3.3,21.682,4.947C19.911,6.629,17.9,8.532,14.025,8.532s-5.889-1.9-7.661-3.584C4.628,3.3,3.131,1.882,0,1.882V0C3.88,0,5.889,1.9,7.658,3.581,9.4,5.23,10.893,6.65,14.025,6.65s4.628-1.419,6.364-3.069C22.157,1.9,24.166,0,28.046,0s5.889,1.9,7.661,3.581C37.442,5.23,38.939,6.65,42.071,6.65S46.7,5.23,48.437,3.581C50.206,1.9,52.215,0,56.1,0s5.89,1.9,7.658,3.581C65.491,5.23,66.988,6.65,70.12,6.65s4.628-1.419,6.367-3.069C78.257,1.9,80.264,0,84.147,0V1.882c-3.131,0-4.631,1.422-6.37,3.066C76.006,6.629,74,8.532,70.12,8.532" transform="translate(1.533 20.266)" fill="#7d3a1b"/>
              <path id="Trazado_873377" data-name="Trazado 873377" d="M70.119,8.532c-3.88,0-5.889-1.9-7.658-3.584C60.723,3.3,59.226,1.882,56.1,1.882S51.467,3.3,49.728,4.947C47.96,6.629,45.95,8.532,42.071,8.532s-5.89-1.9-7.658-3.584C32.674,3.3,31.177,1.882,28.046,1.882S23.418,3.3,21.682,4.947C19.911,6.629,17.9,8.532,14.025,8.532s-5.89-1.9-7.661-3.584C4.628,3.3,3.131,1.882,0,1.882V0C3.88,0,5.889,1.9,7.658,3.581,9.393,5.23,10.893,6.65,14.025,6.65s4.628-1.419,6.364-3.069C22.156,1.9,24.166,0,28.046,0s5.89,1.9,7.661,3.581C37.442,5.23,38.939,6.65,42.071,6.65S46.7,5.23,48.437,3.581C50.205,1.9,52.215,0,56.1,0s5.889,1.9,7.658,3.581C65.491,5.23,66.988,6.65,70.119,6.65s4.628-1.419,6.367-3.069C78.257,1.9,80.261,0,84.147,0V1.882c-3.131,0-4.631,1.422-6.37,3.066C76.006,6.629,74,8.532,70.119,8.532" transform="translate(0.766 10.133)" fill="#7d3a1b"/>
              <path id="Trazado_873378" data-name="Trazado 873378" d="M70.12,8.529c-3.88,0-5.887-1.9-7.658-3.581C60.723,3.3,59.226,1.882,56.095,1.882S51.467,3.3,49.731,4.947C47.96,6.626,45.953,8.529,42.07,8.529s-5.887-1.9-7.658-3.581C32.674,3.3,31.177,1.882,28.046,1.882S23.418,3.3,21.682,4.944C19.914,6.626,17.9,8.529,14.024,8.529s-5.89-1.9-7.661-3.581C4.628,3.3,3.131,1.882,0,1.882V0C3.88,0,5.89,1.9,7.658,3.581,9.4,5.228,10.893,6.647,14.024,6.647s4.628-1.419,6.364-3.066C22.159,1.9,24.166,0,28.046,0s5.887,1.9,7.661,3.581c1.736,1.646,3.233,3.066,6.364,3.066S46.7,5.228,48.437,3.581C50.208,1.9,52.215,0,56.095,0s5.887,1.9,7.658,3.581c1.739,1.646,3.236,3.066,6.367,3.066s4.628-1.419,6.367-3.066C78.257,1.9,80.264,0,84.147,0V1.882c-3.134,0-4.631,1.419-6.37,3.066C76.006,6.626,74,8.529,70.12,8.529" transform="translate(0 0.003)" fill="#7d3a1b"/>
            </g>
          </g>
        </g>
        <path id="Trazado_873425" data-name="Trazado 873425" d="M47.337,0A47.337,47.337,0,1,1,0,47.337,47.337,47.337,0,0,1,47.337,0Z" transform="translate(14.061 16.873)" fill="#7d3a1b"/>
        <circle id="Elipse_11503" data-name="Elipse 11503" cx="49.5" cy="49.5" r="49.5" transform="translate(7.211 7.211)" fill="#fff"/>
      </g>
      <g id="Grupo_1118279" data-name="Grupo 1118279" transform="translate(279.185 5209.773)">
        <g id="Grupo_1119782" data-name="Grupo 1119782" transform="translate(-19.926 66.909)">
          <g id="Grupo_1119767" data-name="Grupo 1119767">
            <g id="Grupo_1119764" data-name="Grupo 1119764">
              <path id="Trazado_906808" data-name="Trazado 906808" d="M70.386,34.5c0-2.645.664-3.195,1.446-3.195s1.455.536,1.455,3.195c0,2.588-.668,3.252-1.455,3.252S70.386,37.087,70.386,34.5Zm2.224,0c0-1.907-.215-2.628-.778-2.628s-.773.725-.773,2.628c0,1.96.228,2.69.777,2.69S72.61,36.472,72.61,34.5Z" fill="#b4b4b4"/>
              <path id="Trazado_906809" data-name="Trazado 906809" d="M74.6,37.4V32.341c0-.088-.026-.127-.061-.118,0,0-.378.1-.383.1-.061.009-.1-.026-.1-.167v-.338c0-.114.044-.149.1-.163l1-.263a.257.257,0,0,1,.057-.009c.057,0,.088.039.088.185V37.4c0,.189-.044.295-.106.295h-.5C74.636,37.69,74.6,37.584,74.6,37.4Z" fill="#b4b4b4"/>
              <path id="Trazado_906810" data-name="Trazado 906810" d="M76.789,37.4V32.341c0-.088-.026-.127-.062-.118,0,0-.377.1-.382.1-.061.009-.1-.026-.1-.167v-.338c0-.114.044-.149.1-.163l1-.263a.249.249,0,0,1,.057-.009c.057,0,.088.039.088.185V37.4c0,.189-.044.295-.106.295h-.5C76.829,37.69,76.789,37.584,76.789,37.4Z" fill="#b4b4b4"/>
              <path id="Trazado_906811" data-name="Trazado 906811" d="M78.551,34.5c0-2.645.664-3.195,1.446-3.195s1.455.536,1.455,3.195c0,2.588-.668,3.252-1.455,3.252S78.551,37.087,78.551,34.5Zm2.224,0c0-1.907-.215-2.628-.778-2.628s-.773.725-.773,2.628c0,1.96.228,2.69.778,2.69S80.775,36.472,80.775,34.5Z" fill="#b4b4b4"/>
              <path id="Trazado_906812" data-name="Trazado 906812" d="M82.761,37.4V32.341c0-.088-.026-.127-.061-.118,0,0-.378.1-.383.1-.061.009-.1-.026-.1-.167v-.338c0-.114.044-.149.1-.163l1-.263a.257.257,0,0,1,.057-.009c.057,0,.088.039.088.185V37.4c0,.189-.044.295-.106.295h-.5C82.8,37.69,82.761,37.584,82.761,37.4Z" fill="#b4b4b4"/>
              <path id="Trazado_906813" data-name="Trazado 906813" d="M84.523,34.5c0-2.645.664-3.195,1.446-3.195s1.455.536,1.455,3.195c0,2.588-.668,3.252-1.455,3.252S84.523,37.087,84.523,34.5Zm2.224,0c0-1.907-.215-2.628-.778-2.628S85.2,32.6,85.2,34.5c0,1.96.228,2.69.778,2.69S86.747,36.472,86.747,34.5Z" fill="#b4b4b4"/>
              <path id="Trazado_906814" data-name="Trazado 906814" d="M88.733,37.4V32.341c0-.088-.026-.127-.061-.118,0,0-.378.1-.382.1-.062.009-.1-.026-.1-.167v-.338c0-.114.044-.149.1-.163l1-.263a.257.257,0,0,1,.057-.009c.057,0,.088.039.088.185V37.4c0,.189-.044.295-.106.295h-.5C88.773,37.69,88.733,37.584,88.733,37.4Z" fill="#b4b4b4"/>
              <path id="Trazado_906815" data-name="Trazado 906815" d="M90.5,34.5c0-2.645.663-3.195,1.445-3.195S93.4,31.84,93.4,34.5c0,2.588-.668,3.252-1.455,3.252S90.5,37.087,90.5,34.5Zm2.223,0c0-1.907-.215-2.628-.778-2.628s-.773.725-.773,2.628c0,1.96.228,2.69.778,2.69S92.719,36.472,92.719,34.5Z" fill="#b4b4b4"/>
              <path id="Trazado_906816" data-name="Trazado 906816" d="M94.275,34.5c0-2.645.664-3.195,1.446-3.195s1.454.536,1.454,3.195c0,2.588-.668,3.252-1.454,3.252S94.275,37.087,94.275,34.5Zm2.223,0c0-1.907-.215-2.628-.777-2.628s-.774.725-.774,2.628c0,1.96.229,2.69.778,2.69S96.5,36.472,96.5,34.5Z" fill="#b4b4b4"/>
            </g>
            <g id="Grupo_1119765" data-name="Grupo 1119765">
              <path id="Trazado_906817" data-name="Trazado 906817" d="M70.817,45.795V40.742c0-.088-.026-.128-.062-.119,0,0-.378.1-.382.1-.062.009-.1-.027-.1-.167v-.339c0-.114.044-.149.1-.162l1-.264a.349.349,0,0,1,.057-.009c.058,0,.088.04.088.185v5.831c0,.189-.044.3-.105.3h-.5C70.856,46.09,70.817,45.984,70.817,45.795Z" fill="#b4b4b4"/>
              <path id="Trazado_906818" data-name="Trazado 906818" d="M72.579,42.9c0-2.645.664-3.194,1.446-3.194s1.455.536,1.455,3.194c0,2.589-.669,3.252-1.455,3.252S72.579,45.488,72.579,42.9Zm2.224,0c0-1.907-.216-2.628-.778-2.628s-.773.726-.773,2.628c0,1.96.228,2.69.777,2.69S74.8,44.873,74.8,42.9Z" fill="#b4b4b4"/>
              <path id="Trazado_906819" data-name="Trazado 906819" d="M76.358,42.9c0-2.645.664-3.194,1.446-3.194s1.455.536,1.455,3.194c0,2.589-.668,3.252-1.455,3.252S76.358,45.488,76.358,42.9Zm2.224,0c0-1.907-.215-2.628-.778-2.628s-.773.726-.773,2.628c0,1.96.228,2.69.778,2.69S78.582,44.873,78.582,42.9Z" fill="#b4b4b4"/>
              <path id="Trazado_906820" data-name="Trazado 906820" d="M80.568,45.795V40.742c0-.088-.026-.128-.061-.119,0,0-.378.1-.383.1-.061.009-.1-.027-.1-.167v-.339c0-.114.044-.149.1-.162l1-.264a.333.333,0,0,1,.057-.009c.057,0,.088.04.088.185v5.831c0,.189-.044.3-.106.3h-.5C80.608,46.09,80.568,45.984,80.568,45.795Z" fill="#b4b4b4"/>
              <path id="Trazado_906821" data-name="Trazado 906821" d="M82.331,42.9c0-2.645.663-3.194,1.445-3.194s1.455.536,1.455,3.194c0,2.589-.668,3.252-1.455,3.252S82.331,45.488,82.331,42.9Zm2.223,0c0-1.907-.215-2.628-.778-2.628S83,41,83,42.9c0,1.96.228,2.69.778,2.69S84.554,44.873,84.554,42.9Z" fill="#b4b4b4"/>
              <path id="Trazado_906822" data-name="Trazado 906822" d="M86.541,45.795V40.742c0-.088-.027-.128-.062-.119,0,0-.378.1-.382.1-.062.009-.1-.027-.1-.167v-.339c0-.114.044-.149.1-.162l1-.264a.349.349,0,0,1,.057-.009c.057,0,.088.04.088.185v5.831c0,.189-.044.3-.105.3h-.5C86.58,46.09,86.541,45.984,86.541,45.795Z" fill="#b4b4b4"/>
              <path id="Trazado_906823" data-name="Trazado 906823" d="M88.3,42.9c0-2.645.663-3.194,1.445-3.194S91.2,40.241,91.2,42.9c0,2.589-.668,3.252-1.455,3.252S88.3,45.488,88.3,42.9Zm2.223,0c0-1.907-.215-2.628-.778-2.628s-.773.726-.773,2.628c0,1.96.229,2.69.778,2.69S90.526,44.873,90.526,42.9Z" fill="#b4b4b4"/>
              <path id="Trazado_906824" data-name="Trazado 906824" d="M92.513,45.795V40.742c0-.088-.027-.128-.062-.119,0,0-.378.1-.382.1-.062.009-.1-.027-.1-.167v-.339c0-.114.044-.149.1-.162l1-.264a.349.349,0,0,1,.057-.009c.058,0,.088.04.088.185v5.831c0,.189-.044.3-.105.3h-.5C92.552,46.09,92.513,45.984,92.513,45.795Z" fill="#b4b4b4"/>
              <path id="Trazado_906825" data-name="Trazado 906825" d="M94.275,42.9c0-2.645.664-3.194,1.446-3.194s1.454.536,1.454,3.194c0,2.589-.668,3.252-1.454,3.252S94.275,45.488,94.275,42.9Zm2.223,0c0-1.907-.215-2.628-.777-2.628s-.774.726-.774,2.628c0,1.96.229,2.69.778,2.69S96.5,44.873,96.5,42.9Z" fill="#b4b4b4"/>
            </g>
            <g id="Grupo_1119766" data-name="Grupo 1119766">
              <path id="Trazado_906826" data-name="Trazado 906826" d="M70.386,51.214c0-2.646.664-3.195,1.446-3.195s1.455.536,1.455,3.195c0,2.588-.668,3.252-1.455,3.252S70.386,53.8,70.386,51.214Zm2.224,0c0-1.907-.215-2.628-.778-2.628s-.773.725-.773,2.628c0,1.96.228,2.689.777,2.689S72.61,53.187,72.61,51.214Z" fill="#b4b4b4"/>
              <path id="Trazado_906827" data-name="Trazado 906827" d="M74.6,54.11V49.056c0-.088-.026-.127-.061-.118,0,0-.378.1-.383.1-.061.009-.1-.026-.1-.167v-.338c0-.114.044-.15.1-.163l1-.264a.324.324,0,0,1,.057-.008c.057,0,.088.039.088.184V54.11c0,.189-.044.294-.106.294h-.5C74.636,54.4,74.6,54.3,74.6,54.11Z" fill="#b4b4b4"/>
              <path id="Trazado_906828" data-name="Trazado 906828" d="M76.789,54.11V49.056c0-.088-.026-.127-.062-.118,0,0-.377.1-.382.1-.061.009-.1-.026-.1-.167v-.338c0-.114.044-.15.1-.163l1-.264a.312.312,0,0,1,.057-.008c.057,0,.088.039.088.184V54.11c0,.189-.044.294-.106.294h-.5C76.829,54.4,76.789,54.3,76.789,54.11Z" fill="#b4b4b4"/>
              <path id="Trazado_906829" data-name="Trazado 906829" d="M78.551,51.214c0-2.646.664-3.195,1.446-3.195s1.455.536,1.455,3.195c0,2.588-.668,3.252-1.455,3.252S78.551,53.8,78.551,51.214Zm2.224,0c0-1.907-.215-2.628-.778-2.628s-.773.725-.773,2.628c0,1.96.228,2.689.778,2.689S80.775,53.187,80.775,51.214Z" fill="#b4b4b4"/>
              <path id="Trazado_906830" data-name="Trazado 906830" d="M82.761,54.11V49.056c0-.088-.026-.127-.061-.118,0,0-.378.1-.383.1-.061.009-.1-.026-.1-.167v-.338c0-.114.044-.15.1-.163l1-.264a.324.324,0,0,1,.057-.008c.057,0,.088.039.088.184V54.11c0,.189-.044.294-.106.294h-.5C82.8,54.4,82.761,54.3,82.761,54.11Z" fill="#b4b4b4"/>
              <path id="Trazado_906831" data-name="Trazado 906831" d="M84.523,51.214c0-2.646.664-3.195,1.446-3.195s1.455.536,1.455,3.195c0,2.588-.668,3.252-1.455,3.252S84.523,53.8,84.523,51.214Zm2.224,0c0-1.907-.215-2.628-.778-2.628s-.773.725-.773,2.628c0,1.96.228,2.689.778,2.689S86.747,53.187,86.747,51.214Z" fill="#b4b4b4"/>
              <path id="Trazado_906832" data-name="Trazado 906832" d="M88.733,54.11V49.056c0-.088-.026-.127-.061-.118,0,0-.378.1-.382.1-.062.009-.1-.026-.1-.167v-.338c0-.114.044-.15.1-.163l1-.264a.324.324,0,0,1,.057-.008c.057,0,.088.039.088.184V54.11c0,.189-.044.294-.106.294h-.5C88.773,54.4,88.733,54.3,88.733,54.11Z" fill="#b4b4b4"/>
              <path id="Trazado_906833" data-name="Trazado 906833" d="M90.5,51.214c0-2.646.663-3.195,1.445-3.195s1.455.536,1.455,3.195c0,2.588-.668,3.252-1.455,3.252S90.5,53.8,90.5,51.214Zm2.223,0c0-1.907-.215-2.628-.778-2.628s-.773.725-.773,2.628c0,1.96.228,2.689.778,2.689S92.719,53.187,92.719,51.214Z" fill="#b4b4b4"/>
              <path id="Trazado_906834" data-name="Trazado 906834" d="M94.275,51.214c0-2.646.664-3.195,1.446-3.195s1.454.536,1.454,3.195c0,2.588-.668,3.252-1.454,3.252S94.275,53.8,94.275,51.214Zm2.223,0c0-1.907-.215-2.628-.777-2.628s-.774.725-.774,2.628c0,1.96.229,2.689.778,2.689S96.5,53.187,96.5,51.214Z" fill="#b4b4b4"/>
            </g>
          </g>
          <g id="Grupo_1119768" data-name="Grupo 1119768">
            <rect id="Rectángulo_406573" data-name="Rectángulo 406573" width="8.429" height="4.633" transform="translate(53.865 82.464)" fill="#09614d"/>
          </g>
          <g id="Grupo_1119769" data-name="Grupo 1119769">
            <rect id="Rectángulo_406574" data-name="Rectángulo 406574" width="59.4" height="39.735" rx="1.626" transform="translate(28.379 43.426)" fill="#7a4f00"/>
          </g>
          <g id="Grupo_1119770" data-name="Grupo 1119770">
            <rect id="Rectángulo_406575" data-name="Rectángulo 406575" width="55.228" height="34.753" transform="translate(30.466 45.51)" fill="#fff"/>
          </g>
          <g id="Grupo_1119771" data-name="Grupo 1119771">
            <path id="Trazado_906835" data-name="Trazado 906835" d="M65.77,89.3H50.388v-.575A1.626,1.626,0,0,1,52.014,87.1h12.13a1.626,1.626,0,0,1,1.626,1.626Z" fill="#464646"/>
          </g>
          <g id="Grupo_1119772" data-name="Grupo 1119772">
            <rect id="Rectángulo_406576" data-name="Rectángulo 406576" width="59.4" height="3.707" transform="translate(28.379 89.298)" fill="#783c00"/>
          </g>
          <g id="Grupo_1119773" data-name="Grupo 1119773">
            <rect id="Rectángulo_406577" data-name="Rectángulo 406577" width="55.228" height="2.089" transform="translate(30.466 45.51)" fill="#09614d"/>
          </g>
          <g id="Grupo_1119774" data-name="Grupo 1119774">
            <rect id="Rectángulo_406578" data-name="Rectángulo 406578" width="55.228" height="1.257" transform="translate(30.466 79.006)" fill="#09614d"/>
          </g>
          <rect id="Rectángulo_406579" data-name="Rectángulo 406579" width="55.225" height="2.391" transform="translate(30.466 47.599)" fill="#ffce73"/>
          <g id="Grupo_1119775" data-name="Grupo 1119775">
            <path id="Trazado_906836" data-name="Trazado 906836" d="M85.244,50.44V78.556H30.916V50.44Zm.45-.45H30.466V79.006H85.694V49.99Z" fill="#b4b4b4"/>
            <rect id="Rectángulo_406580" data-name="Rectángulo 406580" width="0.45" height="29.016" transform="translate(34.801 49.99)" fill="#b4b4b4"/>
            <rect id="Rectángulo_406581" data-name="Rectángulo 406581" width="0.45" height="29.016" transform="translate(47.901 49.99)" fill="#b4b4b4"/>
            <rect id="Rectángulo_406582" data-name="Rectángulo 406582" width="0.45" height="29.016" transform="translate(58.757 49.99)" fill="#b4b4b4"/>
            <rect id="Rectángulo_406583" data-name="Rectángulo 406583" width="0.45" height="29.016" transform="translate(63.113 49.99)" fill="#b4b4b4"/>
            <rect id="Rectángulo_406584" data-name="Rectángulo 406584" width="0.45" height="29.016" transform="translate(69.614 49.99)" fill="#b4b4b4"/>
            <rect id="Rectángulo_406585" data-name="Rectángulo 406585" width="0.45" height="29.016" transform="translate(80.301 49.99)" fill="#b4b4b4"/>
            <rect id="Rectángulo_406586" data-name="Rectángulo 406586" width="54.506" height="0.45" transform="translate(30.914 52.727)" fill="#b4b4b4"/>
          </g>
          <g id="Grupo_1119778" data-name="Grupo 1119778">
            <rect id="Rectángulo_406587" data-name="Rectángulo 406587" width="11.053" height="1.575" transform="translate(35.976 54.073)" fill="#efb499"/>
            <rect id="Rectángulo_406588" data-name="Rectángulo 406588" width="11.053" height="1.575" transform="translate(35.976 56.333)" fill="#efb499"/>
            <rect id="Rectángulo_406589" data-name="Rectángulo 406589" width="11.053" height="1.575" transform="translate(35.976 60.854)" fill="#efb499"/>
            <rect id="Rectángulo_406590" data-name="Rectángulo 406590" width="11.053" height="1.575" transform="translate(35.976 63.115)" fill="#efb499"/>
            <rect id="Rectángulo_406591" data-name="Rectángulo 406591" width="11.053" height="1.575" transform="translate(35.976 65.376)" fill="#efb499"/>
            <rect id="Rectángulo_406592" data-name="Rectángulo 406592" width="11.053" height="1.575" transform="translate(35.976 69.896)" fill="#efb499"/>
            <rect id="Rectángulo_406593" data-name="Rectángulo 406593" width="11.053" height="1.575" transform="translate(35.976 72.157)" fill="#efb499"/>
            <g id="Grupo_1119776" data-name="Grupo 1119776">
              <rect id="Rectángulo_406594" data-name="Rectángulo 406594" width="1.462" height="1.575" transform="translate(32.039 54.073)" fill="#efb499"/>
              <rect id="Rectángulo_406595" data-name="Rectángulo 406595" width="1.462" height="1.575" transform="translate(32.039 60.854)" fill="#efb499"/>
              <rect id="Rectángulo_406596" data-name="Rectángulo 406596" width="1.462" height="1.575" transform="translate(32.039 69.896)" fill="#efb499"/>
            </g>
            <rect id="Rectángulo_406597" data-name="Rectángulo 406597" width="8.438" height="1.575" transform="translate(49.294 54.073)" fill="#efb499"/>
            <rect id="Rectángulo_406598" data-name="Rectángulo 406598" width="8.438" height="1.575" transform="translate(49.294 60.854)" fill="#efb499"/>
            <rect id="Rectángulo_406599" data-name="Rectángulo 406599" width="8.438" height="1.575" transform="translate(49.294 69.896)" fill="#efb499"/>
            <rect id="Rectángulo_406600" data-name="Rectángulo 406600" width="8.438" height="1.575" transform="translate(49.294 63.115)" fill="#efb499"/>
            <g id="Grupo_1119777" data-name="Grupo 1119777">
              <rect id="Rectángulo_406601" data-name="Rectángulo 406601" width="1.462" height="1.575" transform="translate(60.389 54.073)" fill="#efb499"/>
              <rect id="Rectángulo_406602" data-name="Rectángulo 406602" width="1.462" height="1.575" transform="translate(60.389 60.854)" fill="#efb499"/>
              <rect id="Rectángulo_406603" data-name="Rectángulo 406603" width="1.462" height="1.575" transform="translate(60.389 69.896)" fill="#efb499"/>
            </g>
            <rect id="Rectángulo_406604" data-name="Rectángulo 406604" width="4.575" height="1.575" transform="translate(64.312 54.073)" fill="#efb499"/>
            <rect id="Rectángulo_406605" data-name="Rectángulo 406605" width="4.575" height="1.575" transform="translate(64.312 60.854)" fill="#efb499"/>
            <rect id="Rectángulo_406606" data-name="Rectángulo 406606" width="4.575" height="1.575" transform="translate(64.312 69.896)" fill="#efb499"/>
            <rect id="Rectángulo_406607" data-name="Rectángulo 406607" width="4.575" height="1.575" transform="translate(64.312 72.157)" fill="#efb499"/>
            <rect id="Rectángulo_406608" data-name="Rectángulo 406608" width="8.479" height="1.575" transform="translate(70.851 54.073)" fill="#efb499"/>
            <rect id="Rectángulo_406609" data-name="Rectángulo 406609" width="8.479" height="1.575" transform="translate(70.851 56.333)" fill="#efb499"/>
            <rect id="Rectángulo_406610" data-name="Rectángulo 406610" width="8.479" height="1.575" transform="translate(70.851 60.854)" fill="#efb499"/>
            <rect id="Rectángulo_406611" data-name="Rectángulo 406611" width="8.479" height="1.575" transform="translate(70.851 69.896)" fill="#efb499"/>
            <rect id="Rectángulo_406612" data-name="Rectángulo 406612" width="8.479" height="1.575" transform="translate(70.851 72.157)" fill="#efb499"/>
            <rect id="Rectángulo_406613" data-name="Rectángulo 406613" width="2.841" height="1.575" transform="translate(81.595 54.073)" fill="#efb499"/>
            <rect id="Rectángulo_406614" data-name="Rectángulo 406614" width="2.841" height="1.575" transform="translate(81.595 60.854)" fill="#efb499"/>
            <rect id="Rectángulo_406615" data-name="Rectángulo 406615" width="2.841" height="1.575" transform="translate(81.595 63.115)" fill="#efb499"/>
            <rect id="Rectángulo_406616" data-name="Rectángulo 406616" width="2.841" height="1.575" transform="translate(81.595 69.896)" fill="#efb499"/>
          </g>
          <g id="Grupo_1119779" data-name="Grupo 1119779">
            <path id="Trazado_906837" data-name="Trazado 906837" d="M55.2,74.581l-2.663.713.192-4.61Z" fill="#007896"/>
            <rect id="Rectángulo_406617" data-name="Rectángulo 406617" width="0.877" height="2.363" transform="translate(53.135 73.91) rotate(-15.046)" fill="#007896"/>
          </g>
          <g id="Grupo_1119780" data-name="Grupo 1119780" opacity="0.1" style="mix-blend-mode: screen;isolation: isolate">
            <path id="Trazado_906838" data-name="Trazado 906838" d="M50.756,45.507,30.466,65.789V54.549l9.044-9.042Z" fill="#fff"/>
          </g>
          <g id="Grupo_1119781" data-name="Grupo 1119781" opacity="0.1" style="mix-blend-mode: screen;isolation: isolate">
            <path id="Trazado_906839" data-name="Trazado 906839" d="M85.691,57.908V72.463l-7.8,7.8H63.338Z" fill="#fff"/>
          </g>
        </g>
      </g>
    </g>
  </g>
</svg>
