<svg xmlns="http://www.w3.org/2000/svg" xmlns:xlink="http://www.w3.org/1999/xlink" width="129" height="128" viewBox="0 0 129 128">
  <defs>
    <clipPath id="clip-path">
      <rect id="Rectángulo_400938" data-name="Rectángulo 400938" width="120" height="120" fill="none"/>
    </clipPath>
    <clipPath id="clip-path-2">
      <rect id="Rectángulo_400938-2" data-name="Rectángulo 400938" width="113" height="113" transform="translate(0.211 0.211)" fill="none"/>
    </clipPath>
    <clipPath id="clip-path-3">
      <rect id="Rectángulo_401073" data-name="Rectángulo 401073" width="86.443" height="38.93" fill="#7d3a1b"/>
    </clipPath>
  </defs>
  <g id="Grupo_1119998" data-name="Grupo 1119998" transform="translate(-375.777 -11954.226)">
    <g id="Grupo_108927" data-name="Grupo 108927" transform="translate(-14.223 7487.226)">
      <path id="Rectángulo_36179" data-name="Rectángulo 36179" d="M0,0H129V128H0Z" transform="translate(390 4467)" fill="#feebcf"/>
    </g>
    <g id="Grupo_1118325" data-name="Grupo 1118325" transform="translate(118.566 6678.015)">
      <g id="Grupo_1099379" data-name="Grupo 1099379" transform="translate(265 5284)">
        <rect id="Rectángulo_401103" data-name="Rectángulo 401103" width="113" height="113" transform="translate(0.211 0.211)" fill="none"/>
        <g id="Grupo_1099348" data-name="Grupo 1099348">
          <g id="Grupo_1099282" data-name="Grupo 1099282">
            <g id="Grupo_1099281" data-name="Grupo 1099281" clip-path="url(#clip-path-3)">
              <path id="Trazado_873375" data-name="Trazado 873375" d="M70.12,8.532c-3.88,0-5.887-1.9-7.658-3.581C60.723,3.3,59.226,1.882,56.1,1.882S51.467,3.3,49.728,4.95c-1.771,1.679-3.775,3.581-7.658,3.581s-5.886-1.9-7.658-3.581C32.674,3.3,31.177,1.882,28.046,1.882S23.418,3.3,21.682,4.95C19.911,6.629,17.9,8.532,14.024,8.532S8.135,6.629,6.364,4.95C4.628,3.3,3.131,1.882,0,1.882V0C3.88,0,5.887,1.906,7.658,3.581,9.4,5.23,10.893,6.65,14.024,6.65s4.628-1.419,6.364-3.066C22.157,1.906,24.166,0,28.046,0s5.89,1.906,7.658,3.581C37.442,5.23,38.939,6.65,42.07,6.65S46.7,5.23,48.437,3.581C50.205,1.906,52.215,0,56.1,0s5.89,1.906,7.658,3.581C65.491,5.23,66.988,6.65,70.12,6.65s4.628-1.419,6.367-3.069C78.255,1.906,80.261,0,84.144,0V1.882c-3.131,0-4.628,1.422-6.367,3.069C76.006,6.629,74,8.532,70.12,8.532" transform="translate(2.299 30.399)" fill="#7d3a1b"/>
              <path id="Trazado_873376" data-name="Trazado 873376" d="M70.12,8.532c-3.88,0-5.889-1.9-7.658-3.584C60.723,3.3,59.226,1.882,56.1,1.882S51.467,3.3,49.728,4.947c-1.768,1.682-3.775,3.584-7.658,3.584s-5.889-1.9-7.658-3.584C32.674,3.3,31.177,1.882,28.046,1.882S23.418,3.3,21.682,4.947C19.911,6.629,17.9,8.532,14.025,8.532s-5.889-1.9-7.661-3.584C4.628,3.3,3.131,1.882,0,1.882V0C3.88,0,5.889,1.9,7.658,3.581,9.4,5.23,10.893,6.65,14.025,6.65s4.628-1.419,6.364-3.069C22.157,1.9,24.166,0,28.046,0s5.889,1.9,7.661,3.581C37.442,5.23,38.939,6.65,42.071,6.65S46.7,5.23,48.437,3.581C50.206,1.9,52.215,0,56.1,0s5.89,1.9,7.658,3.581C65.491,5.23,66.988,6.65,70.12,6.65s4.628-1.419,6.367-3.069C78.257,1.9,80.264,0,84.147,0V1.882c-3.131,0-4.631,1.422-6.37,3.066C76.006,6.629,74,8.532,70.12,8.532" transform="translate(1.533 20.266)" fill="#7d3a1b"/>
              <path id="Trazado_873377" data-name="Trazado 873377" d="M70.119,8.532c-3.88,0-5.889-1.9-7.658-3.584C60.723,3.3,59.226,1.882,56.1,1.882S51.467,3.3,49.728,4.947C47.96,6.629,45.95,8.532,42.071,8.532s-5.89-1.9-7.658-3.584C32.674,3.3,31.177,1.882,28.046,1.882S23.418,3.3,21.682,4.947C19.911,6.629,17.9,8.532,14.025,8.532s-5.89-1.9-7.661-3.584C4.628,3.3,3.131,1.882,0,1.882V0C3.88,0,5.889,1.9,7.658,3.581,9.393,5.23,10.893,6.65,14.025,6.65s4.628-1.419,6.364-3.069C22.156,1.9,24.166,0,28.046,0s5.89,1.9,7.661,3.581C37.442,5.23,38.939,6.65,42.071,6.65S46.7,5.23,48.437,3.581C50.205,1.9,52.215,0,56.1,0s5.889,1.9,7.658,3.581C65.491,5.23,66.988,6.65,70.119,6.65s4.628-1.419,6.367-3.069C78.257,1.9,80.261,0,84.147,0V1.882c-3.131,0-4.631,1.422-6.37,3.066C76.006,6.629,74,8.532,70.119,8.532" transform="translate(0.766 10.133)" fill="#7d3a1b"/>
              <path id="Trazado_873378" data-name="Trazado 873378" d="M70.12,8.529c-3.88,0-5.887-1.9-7.658-3.581C60.723,3.3,59.226,1.882,56.095,1.882S51.467,3.3,49.731,4.947C47.96,6.626,45.953,8.529,42.07,8.529s-5.887-1.9-7.658-3.581C32.674,3.3,31.177,1.882,28.046,1.882S23.418,3.3,21.682,4.944C19.914,6.626,17.9,8.529,14.024,8.529s-5.89-1.9-7.661-3.581C4.628,3.3,3.131,1.882,0,1.882V0C3.88,0,5.89,1.9,7.658,3.581,9.4,5.228,10.893,6.647,14.024,6.647s4.628-1.419,6.364-3.066C22.159,1.9,24.166,0,28.046,0s5.887,1.9,7.661,3.581c1.736,1.646,3.233,3.066,6.364,3.066S46.7,5.228,48.437,3.581C50.208,1.9,52.215,0,56.095,0s5.887,1.9,7.658,3.581c1.739,1.646,3.236,3.066,6.367,3.066s4.628-1.419,6.367-3.066C78.257,1.9,80.264,0,84.147,0V1.882c-3.134,0-4.631,1.419-6.37,3.066C76.006,6.626,74,8.529,70.12,8.529" transform="translate(0 0.003)" fill="#7d3a1b"/>
            </g>
          </g>
        </g>
        <path id="Trazado_873425" data-name="Trazado 873425" d="M47.337,0A47.337,47.337,0,1,1,0,47.337,47.337,47.337,0,0,1,47.337,0Z" transform="translate(14.061 16.873)" fill="#7d3a1b"/>
        <circle id="Elipse_11503" data-name="Elipse 11503" cx="49.5" cy="49.5" r="49.5" transform="translate(7.211 7.211)" fill="#fff"/>
      </g>
      <g id="Grupo_1119834" data-name="Grupo 1119834" transform="translate(259.27 5055.251)">
        <rect id="Rectángulo_406720" data-name="Rectángulo 406720" width="1.07" height="29.124" transform="matrix(0.968, -0.252, 0.252, 0.968, 58.083, 255.01)" fill="#b4b4b4"/>
        <rect id="Rectángulo_406721" data-name="Rectángulo 406721" width="1.071" height="32.176" transform="translate(35.133 273.782) rotate(-72.294)" fill="#b4b4b4"/>
        <rect id="Rectángulo_406722" data-name="Rectángulo 406722" width="32.119" height="1.071" transform="translate(65.548 282.692) rotate(-47.527)" fill="#b4b4b4"/>
        <rect id="Rectángulo_406723" data-name="Rectángulo 406723" width="1.07" height="26.775" transform="translate(65.849 283.584) rotate(-79.377)" fill="#b4b4b4"/>
        <rect id="Rectángulo_406724" data-name="Rectángulo 406724" width="1.071" height="29.283" transform="translate(65.438 283.22) rotate(-17.596)" fill="#b4b4b4"/>
        <rect id="Rectángulo_406725" data-name="Rectángulo 406725" width="34.33" height="1.071" transform="matrix(0.691, -0.722, 0.722, 0.691, 41.83, 307.495)" fill="#b4b4b4"/>
        <path id="Trazado_906884" data-name="Trazado 906884" d="M78,281.461A13.489,13.489,0,1,1,64.51,267.973,13.489,13.489,0,0,1,78,281.461Z" transform="translate(1.437 1.596)" fill="#ffe7ba"/>
        <path id="Trazado_906885" data-name="Trazado 906885" d="M66.9,254.875a9.515,9.515,0,1,1-9.515-9.515A9.515,9.515,0,0,1,66.9,254.875Z" transform="translate(1.215)" fill="#ffb937"/>
        <path id="Trazado_906886" data-name="Trazado 906886" d="M51.6,304.375a9.515,9.515,0,1,1-9.514-9.515A9.515,9.515,0,0,1,51.6,304.375Z" transform="translate(0.135 3.494)" fill="#ffb937"/>
        <path id="Trazado_906887" data-name="Trazado 906887" d="M95.841,285.656a7.167,7.167,0,1,1-7.167-7.168A7.168,7.168,0,0,1,95.841,285.656Z" transform="translate(3.589 2.338)" fill="#dcdcdc"/>
        <path id="Trazado_906888" data-name="Trazado 906888" d="M39.931,271.738A4.637,4.637,0,1,1,35.3,267.1,4.636,4.636,0,0,1,39.931,271.738Z" transform="translate(0 1.535)" fill="#09614d"/>
        <path id="Trazado_906889" data-name="Trazado 906889" d="M76.832,306.951a4.637,4.637,0,1,1-4.637-4.638A4.636,4.636,0,0,1,76.832,306.951Z" transform="translate(2.605 4.02)" fill="#7d3a1b"/>
        <path id="Trazado_906890" data-name="Trazado 906890" d="M88.813,258.742a4.637,4.637,0,1,1-4.637-4.637A4.636,4.636,0,0,1,88.813,258.742Z" transform="translate(3.45 0.617)" fill="#007896"/>
        <g id="Grupo_1119828" data-name="Grupo 1119828" transform="translate(56.46 271.774)">
          <path id="Trazado_906891" data-name="Trazado 906891" d="M61.56,274.243v-3.5c0-.061-.017-.089-.042-.082l-.264.067c-.043,0-.067-.019-.067-.117v-.233c0-.079.03-.1.071-.113l.693-.181a.145.145,0,0,1,.04-.006c.04,0,.06.027.06.127v4.035c0,.132-.029.2-.073.2H61.63C61.586,274.447,61.56,274.375,61.56,274.243Z" transform="translate(-54.305 -270.029)" fill="#fff"/>
          <path id="Trazado_906892" data-name="Trazado 906892" d="M62.675,272.243c0-1.83.459-2.211,1-2.211s1.006.371,1.006,2.211c0,1.791-.461,2.25-1.006,2.25S62.675,274.034,62.675,272.243Zm1.537,0c0-1.32-.148-1.819-.537-1.819s-.536.5-.536,1.819c0,1.356.16,1.862.54,1.862S64.212,273.609,64.212,272.243Z" transform="translate(-54.2 -270.032)" fill="#fff"/>
          <path id="Trazado_906893" data-name="Trazado 906893" d="M65.42,274.243v-3.5c0-.061-.018-.089-.043-.082l-.264.067c-.043,0-.066-.019-.066-.117v-.233c0-.079.03-.1.07-.113l.694-.181a.144.144,0,0,1,.039-.006c.041,0,.063.027.063.127v4.035c0,.132-.032.2-.074.2H65.49C65.447,274.447,65.42,274.375,65.42,274.243Z" transform="translate(-54.033 -270.029)" fill="#fff"/>
          <path id="Trazado_906894" data-name="Trazado 906894" d="M55.467,277.612c0-1.83.458-2.21,1-2.21s1.007.37,1.007,2.21c0,1.792-.462,2.25-1.007,2.25S55.467,279.4,55.467,277.612Zm1.538,0c0-1.32-.149-1.818-.539-1.818s-.534.5-.534,1.818c0,1.356.157,1.862.537,1.862S57.005,278.978,57.005,277.612Z" transform="translate(-54.709 -269.653)" fill="#fff"/>
          <path id="Trazado_906895" data-name="Trazado 906895" d="M58.214,279.612v-3.5c0-.06-.018-.089-.043-.082l-.266.067c-.042.006-.065-.019-.065-.117v-.233c0-.079.029-.1.069-.113l.694-.181a.189.189,0,0,1,.041-.006c.039,0,.059.028.059.128v4.034c0,.132-.03.2-.073.2h-.346C58.24,279.816,58.214,279.744,58.214,279.612Z" transform="translate(-54.542 -269.65)" fill="#fff"/>
          <path id="Trazado_906896" data-name="Trazado 906896" d="M59.63,279.612v-3.5c0-.06-.017-.089-.043-.082l-.263.067c-.042.006-.066-.019-.066-.117v-.233c0-.079.03-.1.069-.113l.694-.181a.189.189,0,0,1,.041-.006c.04,0,.06.028.06.128v4.034c0,.132-.031.2-.074.2H59.7C59.657,279.816,59.63,279.744,59.63,279.612Z" transform="translate(-54.442 -269.65)" fill="#fff"/>
          <path id="Trazado_906897" data-name="Trazado 906897" d="M60.745,277.612c0-1.83.46-2.21,1-2.21s1.005.37,1.005,2.21c0,1.792-.461,2.25-1.005,2.25S60.745,279.4,60.745,277.612Zm1.538,0c0-1.32-.149-1.818-.537-1.818s-.535.5-.535,1.818c0,1.356.157,1.862.537,1.862S62.283,278.978,62.283,277.612Z" transform="translate(-54.336 -269.653)" fill="#fff"/>
          <path id="Trazado_906898" data-name="Trazado 906898" d="M63.491,279.612v-3.5c0-.06-.018-.089-.042-.082l-.266.067c-.043.006-.067-.019-.067-.117v-.233c0-.079.031-.1.071-.113l.693-.181a.215.215,0,0,1,.04-.006c.04,0,.062.028.062.128v4.034c0,.132-.031.2-.074.2H63.56C63.519,279.816,63.491,279.744,63.491,279.612Z" transform="translate(-54.169 -269.65)" fill="#fff"/>
          <path id="Trazado_906899" data-name="Trazado 906899" d="M64.605,277.612c0-1.83.458-2.21,1-2.21s1.007.37,1.007,2.21c0,1.792-.463,2.25-1.007,2.25S64.605,279.4,64.605,277.612Zm1.538,0c0-1.32-.149-1.818-.538-1.818s-.534.5-.534,1.818c0,1.356.158,1.862.537,1.862S66.143,278.978,66.143,277.612Z" transform="translate(-54.064 -269.653)" fill="#fff"/>
          <path id="Trazado_906900" data-name="Trazado 906900" d="M67.35,279.612v-3.5c0-.06-.016-.089-.042-.082l-.264.067c-.043.006-.066-.019-.066-.117v-.233c0-.079.03-.1.069-.113l.694-.181a.2.2,0,0,1,.041-.006c.04,0,.059.028.059.128v4.034c0,.132-.029.2-.073.2H67.42C67.377,279.816,67.35,279.744,67.35,279.612Z" transform="translate(-53.897 -269.65)" fill="#fff"/>
          <path id="Trazado_906901" data-name="Trazado 906901" d="M68.466,277.612c0-1.83.458-2.21,1-2.21s1.006.37,1.006,2.21c0,1.792-.462,2.25-1.006,2.25S68.466,279.4,68.466,277.612Zm1.537,0c0-1.32-.148-1.818-.537-1.818s-.536.5-.536,1.818c0,1.356.16,1.862.537,1.862S70,278.978,70,277.612Z" transform="translate(-53.791 -269.653)" fill="#fff"/>
          <path id="Trazado_906902" data-name="Trazado 906902" d="M71.21,279.612v-3.5c0-.06-.017-.089-.042-.082l-.264.067c-.043.006-.067-.019-.067-.117v-.233c0-.079.031-.1.071-.113l.694-.181a.205.205,0,0,1,.039-.006c.04,0,.063.028.063.128v4.034c0,.132-.032.2-.074.2h-.347C71.239,279.816,71.21,279.744,71.21,279.612Z" transform="translate(-53.624 -269.65)" fill="#fff"/>
          <path id="Trazado_906903" data-name="Trazado 906903" d="M54.759,282.982c0-1.831.459-2.21,1-2.21s1.007.369,1.007,2.21c0,1.792-.462,2.25-1.007,2.25S54.759,284.774,54.759,282.982Zm1.537,0c0-1.32-.148-1.819-.537-1.819s-.535.5-.535,1.819c0,1.356.158,1.861.539,1.861S56.3,284.347,56.3,282.982Z" transform="translate(-54.759 -269.274)" fill="#fff"/>
          <path id="Trazado_906904" data-name="Trazado 906904" d="M57.2,282.982c0-1.831.459-2.21,1-2.21s1.006.369,1.006,2.21c0,1.792-.461,2.25-1.006,2.25S57.2,284.774,57.2,282.982Zm1.538,0c0-1.32-.149-1.819-.537-1.819s-.535.5-.535,1.819c0,1.356.157,1.861.539,1.861S58.739,284.347,58.739,282.982Z" transform="translate(-54.587 -269.274)" fill="#fff"/>
          <path id="Trazado_906905" data-name="Trazado 906905" d="M59.947,284.981v-3.5c0-.06-.018-.089-.042-.082l-.266.067c-.042.006-.066-.019-.066-.117v-.232c0-.08.031-.1.07-.115l.693-.181a.21.21,0,0,1,.041-.006c.039,0,.06.028.06.13v4.033c0,.132-.03.2-.074.2h-.346C59.973,285.186,59.947,285.113,59.947,284.981Z" transform="translate(-54.419 -269.271)" fill="#fff"/>
          <path id="Trazado_906906" data-name="Trazado 906906" d="M61.365,284.981v-3.5c0-.06-.019-.089-.043-.082l-.264.067c-.042.006-.066-.019-.066-.117v-.232c0-.08.031-.1.07-.115l.693-.181a.213.213,0,0,1,.04-.006c.04,0,.061.028.061.13v4.033c0,.132-.03.2-.073.2h-.347C61.391,285.186,61.365,285.113,61.365,284.981Z" transform="translate(-54.319 -269.271)" fill="#fff"/>
          <path id="Trazado_906907" data-name="Trazado 906907" d="M62.479,282.982c0-1.831.459-2.21,1-2.21s1.007.369,1.007,2.21c0,1.792-.462,2.25-1.007,2.25S62.479,284.774,62.479,282.982Zm1.537,0c0-1.32-.149-1.819-.537-1.819s-.535.5-.535,1.819c0,1.356.157,1.861.539,1.861S64.016,284.347,64.016,282.982Z" transform="translate(-54.214 -269.274)" fill="#fff"/>
          <path id="Trazado_906908" data-name="Trazado 906908" d="M65.224,284.981v-3.5c0-.06-.016-.089-.042-.082l-.266.067c-.043.006-.066-.019-.066-.117v-.232c0-.08.031-.1.07-.115l.694-.181a.2.2,0,0,1,.04-.006c.041,0,.061.028.061.13v4.033c0,.132-.031.2-.073.2h-.347C65.253,285.186,65.224,285.113,65.224,284.981Z" transform="translate(-54.047 -269.271)" fill="#fff"/>
          <path id="Trazado_906909" data-name="Trazado 906909" d="M66.642,284.981v-3.5c0-.06-.018-.089-.043-.082l-.264.067c-.043.006-.066-.019-.066-.117v-.232c0-.08.031-.1.07-.115l.693-.181a.213.213,0,0,1,.04-.006c.041,0,.062.028.062.13v4.033c0,.132-.031.2-.073.2h-.347C66.671,285.186,66.642,285.113,66.642,284.981Z" transform="translate(-53.947 -269.271)" fill="#fff"/>
          <path id="Trazado_906910" data-name="Trazado 906910" d="M67.757,282.982c0-1.831.458-2.21,1-2.21s1.008.369,1.008,2.21c0,1.792-.464,2.25-1.008,2.25S67.757,284.774,67.757,282.982Zm1.536,0c0-1.32-.148-1.819-.537-1.819s-.534.5-.534,1.819c0,1.356.157,1.861.537,1.861S69.293,284.347,69.293,282.982Z" transform="translate(-53.842 -269.274)" fill="#fff"/>
          <path id="Trazado_906911" data-name="Trazado 906911" d="M70.5,284.981v-3.5c0-.06-.017-.089-.041-.082l-.267.067c-.042.006-.066-.019-.066-.117v-.232c0-.08.03-.1.069-.115l.694-.181a.2.2,0,0,1,.042-.006c.039,0,.059.028.059.13v4.033c0,.132-.031.2-.074.2h-.346C70.529,285.186,70.5,285.113,70.5,284.981Z" transform="translate(-53.674 -269.271)" fill="#fff"/>
          <path id="Trazado_906912" data-name="Trazado 906912" d="M71.92,284.981v-3.5c0-.06-.019-.089-.043-.082l-.266.067c-.042.006-.065-.019-.065-.117v-.232c0-.08.03-.1.069-.115l.694-.181a.2.2,0,0,1,.04-.006c.041,0,.061.028.061.13v4.033c0,.132-.031.2-.074.2h-.346C71.946,285.186,71.92,285.113,71.92,284.981Z" transform="translate(-53.574 -269.271)" fill="#fff"/>
          <path id="Trazado_906913" data-name="Trazado 906913" d="M60.744,288.351c0-1.831.459-2.21,1-2.21s1.005.369,1.005,2.21c0,1.792-.462,2.251-1.005,2.251S60.744,290.143,60.744,288.351Zm1.538,0c0-1.319-.149-1.818-.537-1.818s-.535.5-.535,1.818c0,1.356.157,1.862.537,1.862S62.282,289.716,62.282,288.351Z" transform="translate(-54.337 -268.895)" fill="#fff"/>
          <path id="Trazado_906914" data-name="Trazado 906914" d="M63.49,290.35v-3.5c0-.059-.018-.088-.042-.082l-.266.067c-.042.008-.066-.018-.066-.115v-.234c0-.079.031-.1.07-.114l.693-.181a.159.159,0,0,1,.041-.006c.039,0,.06.027.06.128v4.033c0,.132-.03.206-.073.206h-.347C63.516,290.556,63.49,290.482,63.49,290.35Z" transform="translate(-54.169 -268.892)" fill="#fff"/>
          <path id="Trazado_906915" data-name="Trazado 906915" d="M64.605,288.351c0-1.831.458-2.21,1-2.21s1.008.369,1.008,2.21c0,1.792-.464,2.251-1.008,2.251S64.605,290.143,64.605,288.351Zm1.537,0c0-1.319-.149-1.818-.539-1.818s-.534.5-.534,1.818c0,1.356.157,1.862.537,1.862S66.142,289.716,66.142,288.351Z" transform="translate(-54.064 -268.895)" fill="#fff"/>
        </g>
        <g id="Grupo_1119829" data-name="Grupo 1119829" transform="translate(38.172 301.452)">
          <rect id="Rectángulo_406726" data-name="Rectángulo 406726" width="2.179" height="12.597" fill="#efb499"/>
          <rect id="Rectángulo_406727" data-name="Rectángulo 406727" width="2.18" height="11.261" transform="translate(2.96 1.336)" fill="#7d3a1b"/>
          <rect id="Rectángulo_406728" data-name="Rectángulo 406728" width="2.178" height="7.746" transform="translate(5.92 4.851)" fill="#ffe9df"/>
        </g>
        <g id="Grupo_1119830" data-name="Grupo 1119830" transform="translate(51.821 250.262)">
          <rect id="Rectángulo_406729" data-name="Rectángulo 406729" width="11.239" height="1.071" transform="translate(1.159)" fill="#fff"/>
          <rect id="Rectángulo_406730" data-name="Rectángulo 406730" width="13.558" height="1.071" transform="translate(0 2.719)" fill="#fff"/>
          <rect id="Rectángulo_406731" data-name="Rectángulo 406731" width="13.558" height="1.071" transform="translate(0 5.438)" fill="#fff"/>
          <rect id="Rectángulo_406732" data-name="Rectángulo 406732" width="11.239" height="1.071" transform="translate(1.159 8.156)" fill="#fff"/>
        </g>
        <g id="Grupo_1119831" data-name="Grupo 1119831" transform="translate(31.113 285.94)">
          <rect id="Rectángulo_406733" data-name="Rectángulo 406733" width="4.717" height="1.071" transform="translate(9.401)" fill="#b4b4b4"/>
          <rect id="Rectángulo_406734" data-name="Rectángulo 406734" width="5.186" height="1.071" transform="translate(3.145)" fill="#b4b4b4"/>
          <rect id="Rectángulo_406735" data-name="Rectángulo 406735" width="2.074" height="1.071" fill="#b4b4b4"/>
          <rect id="Rectángulo_406736" data-name="Rectángulo 406736" width="7.093" height="1.071" transform="translate(7.026 2.409)" fill="#b4b4b4"/>
          <rect id="Rectángulo_406737" data-name="Rectángulo 406737" width="5.955" height="1.071" transform="translate(0 2.409)" fill="#b4b4b4"/>
          <rect id="Rectángulo_406738" data-name="Rectángulo 406738" width="3.948" height="1.071" transform="translate(10.171 4.818)" fill="#b4b4b4"/>
          <rect id="Rectángulo_406739" data-name="Rectángulo 406739" width="6.324" height="1.071" transform="translate(2.776 4.818)" fill="#b4b4b4"/>
          <rect id="Rectángulo_406740" data-name="Rectángulo 406740" width="1.705" height="1.071" transform="translate(0 4.818)" fill="#b4b4b4"/>
        </g>
        <g id="Grupo_1119833" data-name="Grupo 1119833" transform="translate(87.435 284.124)">
          <path id="Trazado_906916" data-name="Trazado 906916" d="M88.191,289.13,86.453,285.6l-2.107,2.974-.654-.464,2.884-4.076,1.732,3.519,3-4.337.661.458Z" transform="translate(-83.691 -281.452)" fill="#b4b4b4"/>
          <g id="Grupo_1119832" data-name="Grupo 1119832" transform="translate(5.808)">
            <path id="Trazado_906917" data-name="Trazado 906917" d="M92.639,281.568a12.176,12.176,0,0,0-.384,3.909l-1.177-1.655-1.962-.519A12.1,12.1,0,0,0,92.639,281.568Z" transform="translate(-89.116 -281.568)" fill="#b4b4b4"/>
          </g>
        </g>
      </g>
    </g>
  </g>
</svg>
