<svg xmlns="http://www.w3.org/2000/svg" xmlns:xlink="http://www.w3.org/1999/xlink" width="121" height="121" viewBox="0 0 121 121">
  <defs>
    <clipPath id="clip-path">
      <rect id="Rectángulo_400938" data-name="Rectángulo 400938" width="121" height="121" transform="translate(0 0)" fill="none"/>
    </clipPath>
    <clipPath id="clip-path-2">
      <rect id="Rectángulo_401073" data-name="Rectángulo 401073" width="92.219" height="41.532" fill="#efb499"/>
    </clipPath>
  </defs>
  <g id="Grupo_1120000" data-name="Grupo 1120000" transform="translate(-387.949 -13561.002)">
    <g id="Grupo_1118335" data-name="Grupo 1118335" transform="translate(0.281 7548.001)">
      <rect id="Rectángulo_401103" data-name="Rectángulo 401103" width="121" height="121" transform="translate(387.668 6013)" fill="none"/>
      <g id="Grupo_1099348" data-name="Grupo 1099348" transform="translate(387.668 6013)">
        <g id="Grupo_1099282" data-name="Grupo 1099282">
          <g id="Grupo_1099281" data-name="Grupo 1099281" clip-path="url(#clip-path-2)">
            <path id="Trazado_873375" data-name="Trazado 873375" d="M74.8,9.1c-4.139,0-6.28-2.03-8.17-3.821-1.855-1.756-3.452-3.274-6.792-3.274s-4.937,1.517-6.792,3.274C51.161,7.072,49.023,9.1,44.881,9.1s-6.28-2.03-8.169-3.821C34.857,3.525,33.26,2.007,29.92,2.007s-4.937,1.517-6.789,3.274C21.241,7.072,19.1,9.1,14.962,9.1S8.679,7.072,6.789,5.281C4.937,3.525,3.34,2.007,0,2.007V0C4.139,0,6.28,2.033,8.17,3.821c1.855,1.759,3.452,3.274,6.792,3.274S19.9,5.58,21.75,3.824C23.637,2.033,25.781,0,29.92,0s6.283,2.033,8.17,3.821c1.855,1.759,3.452,3.274,6.792,3.274s4.937-1.514,6.792-3.274C53.56,2.033,55.7,0,59.843,0s6.283,2.033,8.17,3.821C69.867,5.58,71.464,7.094,74.8,7.094S79.742,5.58,81.6,3.821C83.483,2.033,85.624,0,89.766,0V2.007c-3.34,0-4.937,1.517-6.792,3.274C81.084,7.072,78.943,9.1,74.8,9.1" transform="translate(2.453 32.43)" fill="#efb499"/>
            <path id="Trazado_873376" data-name="Trazado 873376" d="M74.8,9.1c-4.139,0-6.283-2.03-8.17-3.824-1.855-1.756-3.452-3.27-6.792-3.27s-4.937,1.514-6.792,3.27C51.164,7.072,49.023,9.1,44.881,9.1s-6.283-2.03-8.17-3.824c-1.855-1.756-3.452-3.27-6.792-3.27s-4.937,1.517-6.789,3.27C21.241,7.072,19.1,9.1,14.962,9.1S8.679,7.072,6.789,5.278C4.937,3.522,3.34,2.007,0,2.007V0C4.139,0,6.283,2.03,8.17,3.821c1.855,1.759,3.452,3.274,6.792,3.274S19.9,5.58,21.75,3.821C23.637,2.03,25.781,0,29.92,0S36.2,2.03,38.093,3.821c1.852,1.759,3.449,3.274,6.789,3.274s4.937-1.514,6.792-3.274C53.56,2.03,55.7,0,59.843,0s6.283,2.03,8.17,3.821C69.867,5.58,71.464,7.094,74.8,7.094S79.742,5.58,81.6,3.821C83.486,2.03,85.627,0,89.769,0V2.007c-3.34,0-4.94,1.517-6.8,3.27C81.084,7.072,78.943,9.1,74.8,9.1" transform="translate(1.635 21.62)" fill="#efb499"/>
            <path id="Trazado_873377" data-name="Trazado 873377" d="M74.8,9.1c-4.139,0-6.283-2.03-8.169-3.824-1.855-1.756-3.452-3.27-6.792-3.27s-4.937,1.514-6.792,3.27C51.164,7.072,49.02,9.1,44.881,9.1s-6.283-2.03-8.17-3.824c-1.855-1.756-3.452-3.27-6.792-3.27s-4.937,1.517-6.789,3.27C21.241,7.072,19.1,9.1,14.962,9.1S8.678,7.072,6.789,5.278C4.937,3.522,3.34,2.007,0,2.007V0C4.139,0,6.283,2.03,8.169,3.821c1.851,1.759,3.452,3.274,6.792,3.274S19.9,5.58,21.75,3.821C23.637,2.03,25.781,0,29.92,0S36.2,2.03,38.093,3.821c1.852,1.759,3.449,3.274,6.789,3.274s4.937-1.514,6.792-3.274C53.56,2.03,55.7,0,59.843,0s6.283,2.03,8.17,3.821C69.867,5.58,71.464,7.094,74.8,7.094S79.742,5.58,81.6,3.821C83.486,2.03,85.624,0,89.769,0V2.007c-3.34,0-4.941,1.517-6.8,3.27C81.084,7.072,78.943,9.1,74.8,9.1" transform="translate(0.818 10.81)" fill="#efb499"/>
            <path id="Trazado_873378" data-name="Trazado 873378" d="M74.8,9.1c-4.139,0-6.28-2.03-8.17-3.821-1.855-1.756-3.452-3.27-6.792-3.27s-4.937,1.514-6.789,3.27C51.164,7.069,49.023,9.1,44.881,9.1s-6.28-2.03-8.169-3.821c-1.855-1.756-3.452-3.27-6.792-3.27s-4.937,1.514-6.789,3.267C21.245,7.069,19.1,9.1,14.962,9.1S8.678,7.069,6.789,5.278C4.937,3.522,3.34,2.007,0,2.007V0C4.139,0,6.283,2.03,8.17,3.821c1.855,1.756,3.452,3.27,6.792,3.27S19.9,5.577,21.75,3.821C23.64,2.03,25.781,0,29.92,0s6.28,2.03,8.173,3.821c1.852,1.756,3.449,3.27,6.789,3.27s4.937-1.514,6.792-3.27C53.563,2.03,55.7,0,59.843,0s6.28,2.03,8.17,3.821c1.855,1.756,3.452,3.27,6.792,3.27s4.937-1.514,6.792-3.27C83.486,2.03,85.627,0,89.769,0V2.007c-3.344,0-4.941,1.514-6.8,3.27C81.084,7.069,78.943,9.1,74.8,9.1" transform="translate(0 0.003)" fill="#efb499"/>
          </g>
        </g>
      </g>
      <circle id="Elipse_11504" data-name="Elipse 11504" cx="50.5" cy="50.5" r="50.5" transform="translate(402.668 6031)" fill="#ffce73"/>
      <circle id="Elipse_11503" data-name="Elipse 11503" cx="52.5" cy="52.5" r="52.5" transform="translate(395.668 6021)" fill="#f3f9ff"/>
    </g>
    <g id="Grupo_1118338" data-name="Grupo 1118338" transform="translate(414.891 13586.806)">
      <rect id="Rectángulo_401104" data-name="Rectángulo 401104" width="68" height="69" transform="translate(0.059 -0.804)" fill="none"/>
      <g id="Grupo_1118347" data-name="Grupo 1118347" transform="translate(488.687 12.345)">
        <path id="Trazado_905323" data-name="Trazado 905323" d="M-442.68,36.566c-.493,2.185-1.251,4.192-3.2,5.567-.557.392-.236,1.175-.2,1.769.025.459.524.278.817.328a1.308,1.308,0,0,1,1.235,1.418q.007,5.888,0,11.776a1.312,1.312,0,0,1-1.363,1.418c-.877.056-1.76.011-2.64.017A1.09,1.09,0,0,1-449.16,58a.78.78,0,0,1-.079-.772c.344-.688,1-.689,1.62-.68.877.012,1.255-.347,1.247-1.244-.022-2.533-.012-5.068,0-7.6,0-.738-.293-1.088-1.046-1.052-.659.031-1.32-.038-1.981,0-3.563.035-7.125,0-10.687.02-1.373.008-1.449.081-1.457,1.421q-.02,3.526,0,7.052c.008,1.265.11,1.361,1.4,1.376,2.24.027,4.481-.046,6.72.034,1.275.045,1.581.5,1.256,1.652a1.234,1.234,0,0,1-1.273.672c-2.979-.012-5.959,0-8.938-.01-1.2-.006-1.7-.488-1.708-1.659-.017-3.789-.009-7.577-.008-11.366a1.376,1.376,0,0,1,1.312-1.588c.347-.038.84.047.752-.524-.091-.595.418-1.37-.433-1.76-6.028-2.759-7.525-7.983-7.6-13.973a2.43,2.43,0,0,1,.228-1.287c.6-.916.1-1.42-.506-2.024q-2.3-2.3-4.513-4.689a9.857,9.857,0,0,1-2.868-5.464,3.575,3.575,0,0,1,.029-1.64c.358-1.033-.481-1.436-.992-2-.27-.3-.457.028-.628.182a1.437,1.437,0,0,1-2.287-.189c-2.559-2.691-5.146-5.355-7.705-8.046-.951-1-.905-1.642.1-2.626.5-.488,1.028-.949,1.513-1.45a1.157,1.157,0,0,1,1.745-.182.7.7,0,0,1,.328.323c.318.972-.362,1.505-.942,2.055-.49.464-.611.861-.06,1.371,1.941,1.8,3.667,3.8,5.486,5.717.563.593,1.007.621,1.529-.009a11.429,11.429,0,0,1,1.41-1.227c2.611-2.7,5.44-5.168,8.088-7.827.5-.5.8-.9.144-1.544-1.865-1.827-3.546-3.832-5.419-5.656-.635-.618-.968-.544-1.6.013-1.8,1.58-3.436,3.325-5.17,4.97-.887.843-1.287.859-2.036.215a1.243,1.243,0,0,1,.261-1.834c2.2-2.064,4.362-4.17,6.55-6.248.974-.926,1.626-.932,2.544.03,2.589,2.717,5.146,5.465,7.732,8.185a1.377,1.377,0,0,1,.091,2.128c-.245.268-.468.545-.066.809.479.314.6,1.279,1.39.977,4.985-1.906,9.2-.246,13.108,2.8.465.361.706.3,1.088-.061a13.758,13.758,0,0,1,3.651-2.63,5.909,5.909,0,0,1,3.848-.6c1.035.247,1.45-.477,2.019-1,.307-.283-.017-.452-.17-.626a1.424,1.424,0,0,1,.1-2.224c2.766-2.644,5.522-5.3,8.3-7.928a1.4,1.4,0,0,1,2.3.091q5.819,6.044,11.6,12.12a1.4,1.4,0,0,1-.058,2.3q-4.133,3.983-8.3,7.927a1.452,1.452,0,0,1-2,.144c-.256-.172-.465-.745-.863-.233-.371.478-1.314.649-1.014,1.5,2.167,6.177-.527,10.822-4.686,15.014a4.268,4.268,0,0,1-1.357.928,2.914,2.914,0,0,1-4.14-1.242,3.483,3.483,0,0,1,.852-3.828,10.633,10.633,0,0,0,1.554-1.849,1.992,1.992,0,0,0,.371-1.508c-1.287,1.021-2.556,1.771-2.776,3.619a94.439,94.439,0,0,0-.343,9.885A18.43,18.43,0,0,1-442.68,36.566Z"/>
        <path id="Trazado_905324" data-name="Trazado 905324" d="M-353.626,262.888c.118-1.075-.409-1.413-1.429-1.4-2.5.041-5-.012-7.505.029-.729.012-.941-.213-.932-.935.034-2.943.015-5.887,0-8.831,0-.479-.015-.826.675-.819,4.009.046,8.018.043,12.027.056.543.292.573.819.579,1.333.028,2.744.015,5.488.01,8.232a4.541,4.541,0,0,1-.366,1.479l-.054.65C-351.619,262.771-352.647,262.467-353.626,262.888Z" transform="translate(-98.543 -204.69)" fill="#ac7104"/>
        <path id="Trazado_905325" data-name="Trazado 905325" d="M-471.511,7.95l-.173-.225,1.755-1.6c.7.434,1.221.153,1.749-.361,1.87-1.821,3.778-3.6,5.638-5.435.479-.471.752-.581,1.276-.012,1.992,2.164,4.045,4.272,6.078,6.4.3.318.686.55.159,1.046-2.946,2.767-5.868,5.56-8.8,8.345-.539.11-.787-.322-1.089-.614-2.062-1.991-3.861-4.237-5.974-6.179A2.627,2.627,0,0,1-471.511,7.95Z" transform="translate(-14.26 -9.156)" fill="#efb499"/>
        <path id="Trazado_905326" data-name="Trazado 905326" d="M-370.228,122.42l-.653.628a2.6,2.6,0,0,0-.561,1.741c-.057.683-.318,1.034-1.1,1.024-3.048-.04-6.1-.03-9.145,0-.611.005-.852-.162-.828-.8a5.839,5.839,0,0,0-.082-1.965,1.325,1.325,0,0,0-.893-.893c-4.212-1.212-5.995-4.442-6.854-8.38a10.168,10.168,0,0,1-.181-4.7,1.585,1.585,0,0,1,.219-.378c.786.193.656.863.707,1.411a7.079,7.079,0,0,0,1.74,4.3,5.3,5.3,0,0,0,3.1,1.92c1.379.242,1.848-.1,1.85-1.512q.012-9.021.007-18.041c0-.689-.093-1.459.907-1.589.985.255.831,1.092.838,1.775.037,3.482.014,6.965.017,10.447,0,.44.007.879.029,1.319a1.359,1.359,0,0,0,.466,1.068c.116.714.4,1.341,1.241,1.233.82-.105.951-.776.947-1.5q-.04-7.324-.055-14.648c0-.73-.079-1.533.978-1.647.836.45.8,1.259.8,2.028.017,4.192,0,8.384.016,12.576,0,.679-.138,1.419.482,1.957.174.713.525,1.262,1.36,1.087.79-.165.813-.836.813-1.48q0-5.941,0-11.882c0-.688.018-1.352.946-1.413.84.5.788,1.358.794,2.155.027,3.231,0,6.463.019,9.695,0,.644-.109,1.344.495,1.837.258.613.588,1.136,1.384.918.738-.2.75-.82.752-1.419.006-1.911,0-3.822,0-5.733,0-.67.1-1.272.954-1.327a1.4,1.4,0,0,1,.781,1.461c-.047,4.843.306,9.694-.22,14.526A5.476,5.476,0,0,1-370.228,122.42Z" transform="translate(-77.321 -81.831)" fill="#f6e2c1"/>
        <path id="Trazado_905327" data-name="Trazado 905327" d="M-416.5,73.184a4.884,4.884,0,0,0-1.778-1.948,4.894,4.894,0,0,1-2.1-1.665c-1.37-1.626-2.935-3.061-4.385-4.607a10.48,10.48,0,0,1-2.42-3.882,2.978,2.978,0,0,1-.255-1.814c.148-1.22.211-2.408-.927-3.277a.455.455,0,0,1-.048-.688c2.347-2.268,4.7-4.526,7.033-6.811.409-.4.672-.332.957.076,1.061,1.516,2.24,2.016,4.047.982a6.3,6.3,0,0,1,4.631-.258,13.8,13.8,0,0,1,7.858,5.092c-.159.681-.337.763-.932.26a9.162,9.162,0,0,0-2.305-1.463,11.472,11.472,0,0,0-2.336-.524,5.149,5.149,0,0,0-3.544.922c-.952.7-1.02,1.211-.24,2.081.635.709,1.3,1.393,2.045,2.191a3.653,3.653,0,0,0-2.647,1.44,4.654,4.654,0,0,0-.612,2.854c0,2.206-.03,4.412-.047,6.618-.44.152-.678-.184-.907-.43a3.072,3.072,0,0,0-2.43-1.321c-.563-.162-1.123-.213-1.453.386s-.007,1.044.4,1.467c1.3,1.347,2.587,2.716,3.9,4.052a1.353,1.353,0,0,1,.322,1.844C-415.831,74.876-416.088,73.94-416.5,73.184Z" transform="translate(-47.862 -46.775)" fill="#f6e2c1"/>
        <path id="Trazado_905328" data-name="Trazado 905328" d="M-301.386,68.923a5.116,5.116,0,0,0-.984-3.838c-.628-.795-1.179-.85-1.938-.158-.84.766-1.679,1.536-2.472,2.35-.415.426-.649.406-1.025-.051a2.965,2.965,0,0,0-2.84-1.1c-.608.09-.76-.1-.743-.67a18.051,18.051,0,0,0-.051-2.527,3.152,3.152,0,0,0-3.687-2.883c-.357.045-.667.144-.743-.336-.038-.237-.128-.451.183-.655,2.254-1.486,2.433-2.039,1.526-4.45a.5.5,0,0,1,.044-.695c1.544-1.7,3.287-3.074,5.7-3.256a1.111,1.111,0,0,1,.425.082,3.684,3.684,0,0,0,3.2-.882.536.536,0,0,1,.776-.093c2.27,2.355,4.531,4.719,6.818,7.058.4.413.319.7-.083.968-1.566,1.064-1.882,2.253-.971,4.062a7.4,7.4,0,0,1-.056,5.814,14.9,14.9,0,0,1-4.128,6.168,7.736,7.736,0,0,1-1.083.705c-.4-.437-.423-.538.1-1.126a8,8,0,0,0,1.449-2.173A7.489,7.489,0,0,0-301.386,68.923Z" transform="translate(-135.61 -47.874)" fill="#d2a677"/>
        <path id="Trazado_905329" data-name="Trazado 905329" d="M-247.577,9.047q4.243,4.391,8.494,8.773c.4.41.272.624-.081.957q-3.326,3.134-6.613,6.31c-.364.352-.6.4-.972,0q-4.148-4.408-8.33-8.784c-.11-.342.115-.559.31-.771,2.039-2.222,4.368-4.145,6.5-6.269A.607.607,0,0,1-247.577,9.047Z" transform="translate(-182.975 -16.223)" fill="#ffce73"/>
        <path id="Trazado_905330" data-name="Trazado 905330" d="M-476.783,36.209a4.732,4.732,0,0,0,1.185,1.527c2.291,2.087,4.133,4.614,6.5,6.629-.623.62-1.268,1.219-1.86,1.867-.363.4-.563.242-.857-.069-2.1-2.214-4.2-4.428-6.332-6.608-.462-.472-.359-.722.058-1.131C-477.467,37.814-476.492,37.372-476.783,36.209Z" transform="translate(-8.988 -37.415)" fill="#efb499"/>
        <path id="Trazado_905331" data-name="Trazado 905331" d="M-305.77,261.583q0-4.828-.009-9.657a2.458,2.458,0,0,0-.213-1.388c1.055-.061,2.389-.447,3.082.122.667.548.188,1.925.2,2.935.034,2.2-.014,4.392.026,6.587.012.673-.189.884-.861.874C-304.31,261.045-305.178,260.786-305.77,261.583Z" transform="translate(-143.336 -204.236)" fill="#ac7104"/>
        <path id="Trazado_905332" data-name="Trazado 905332" d="M-254.478,1.854c-2.53,2.389-5.185,4.648-7.5,7.256-.034-.014-.077-.019-.1-.044-.673-.722-1.821-1.407-1.884-2.181-.065-.794,1.217-1.4,1.913-2.076,1.6-1.563,3.247-3.079,4.844-4.646.441-.432.739-.6,1.19-.016C-255.551.753-254.995,1.288-254.478,1.854Z" transform="translate(-176.074 -9.03)" fill="#ffce73"/>
        <path id="Trazado_905333" data-name="Trazado 905333" d="M-297.939,153.938a10.256,10.256,0,0,0,1.949-6.608c.063-3.86.006-7.722.028-11.583a3.658,3.658,0,0,0-.464-2c.961-.259,1.267.367,1.351,1.1a19.307,19.307,0,0,1,.017,2.2q-.006,5.571-.015,11.143a7.819,7.819,0,0,1-.906,3.925A3.469,3.469,0,0,1-297.939,153.938Z" transform="translate(-149.61 -113.349)" fill="#e6cda5"/>
        <path id="Trazado_905334" data-name="Trazado 905334" d="M-424.855,97.846a9.154,9.154,0,0,0,2.609,5.342c2.093,2.256,4.281,4.424,6.429,6.63a3.18,3.18,0,0,1-2.965-1.424c-1.41-1.592-2.949-3.07-4.394-4.632a7.433,7.433,0,0,1-2.145-4.011,2.67,2.67,0,0,1,.223-1.913Q-424.97,97.657-424.855,97.846Z" transform="translate(-50.322 -85.356)" fill="#e6cda5"/>
        <path id="Trazado_905335" data-name="Trazado 905335" d="M-329.7,109.683c-.8.111-.873-.362-.87-1,.017-4.556,0-9.113.018-13.669A3.27,3.27,0,0,0-331,93.121c.967-.158,1.377.329,1.374,1.232Q-329.656,102.018-329.7,109.683Z" transform="translate(-123.854 -81.728)" fill="#e7cea5"/>
        <path id="Trazado_905336" data-name="Trazado 905336" d="M-349.842,116.472c-.8.112-.879-.349-.876-.994.019-4.038.008-8.077.011-12.116,0-.556.028-1.114-.486-1.5.927-.213,1.394.2,1.393,1.106C-349.8,107.47-349.826,111.971-349.842,116.472Z" transform="translate(-108.124 -88.517)" fill="#e7cea5"/>
        <path id="Trazado_905337" data-name="Trazado 905337" d="M-309.7,119.842c-.794.113-.884-.341-.88-.99.021-3.524,0-7.048.018-10.572a4.552,4.552,0,0,0-.447-2.125c1.065-.148,1.359.485,1.357,1.373Q-309.67,113.685-309.7,119.842Z" transform="translate(-139.426 -91.887)" fill="#e7cea5"/>
        <path id="Trazado_905338" data-name="Trazado 905338" d="M-303.813,53.4a7.986,7.986,0,0,0-6.179,3.75c-.875-.737-.676-1.305.165-1.973,1.333-1.059,2.647-2.106,4.427-2.239a2.214,2.214,0,0,1,1.591.237c.078.051.1.1.076.152S-303.786,53.4-303.813,53.4Z" transform="translate(-139.777 -50.419)" fill="#b18967"/>
        <path id="Trazado_905339" data-name="Trazado 905339" d="M-342.177,68.144a5.526,5.526,0,0,1,4.769,1.7c.188.191.518.914.8.024.385.436.7,1,.216,1.43-.552.482-1.135.013-1.523-.413A8.684,8.684,0,0,0-342.177,68.144Z" transform="translate(-115.148 -62.261)" fill="#e3cba3"/>
        <path id="Trazado_905340" data-name="Trazado 905340" d="M-261.887,136.918a5.29,5.29,0,0,1-1.687,4.551c-.277.278-.75.523-.44,1.064a.683.683,0,0,1-1.055-.045.824.824,0,0,1,.109-1.017,4.885,4.885,0,0,1,.707-.824A8.306,8.306,0,0,0-261.887,136.918Z" transform="translate(-175.109 -115.868)" fill="#b18966"/>
        <path id="Trazado_905341" data-name="Trazado 905341" d="M-354.176,228.14c.4.567.161,1.209.187,1.814.022.524.126.814.736.81,3.045-.019,6.09-.027,9.134,0,.811.008.784-.482.742-1.01-.059-.757.034-1.4.92-1.61-.028.878.277,2.047-.17,2.558-.53.6-1.734.2-2.643.212-2.683.024-5.366-.014-8.048.024-.724.01-.994-.2-.915-.933C-354.166,229.391-354.191,228.763-354.176,228.14Z" transform="translate(-105.745 -186.931)" fill="#e0c8a1"/>
        <path id="Trazado_905342" data-name="Trazado 905342" d="M-386.364,167.233c-1.526-.973-1.865-2.535-2.032-4.165-.056-.545.039-1.112-.414-1.543.453-.758.868-.53,1.172.094a2.379,2.379,0,0,1,.207,1.066A8.7,8.7,0,0,0-386.364,167.233Z" transform="translate(-78.819 -134.665)" fill="#e3cba3"/>
        <path id="Trazado_905343" data-name="Trazado 905343" d="M-380.107,132.377c1.028-.628,1.6.076,2.22.73.345.366.743.683,1.117,1.021.021.471.043.942.074,1.64Z" transform="translate(-85.6 -112.14)" fill="#e2caa2"/>
        <path id="Trazado_905344" data-name="Trazado 905344" d="M-349.688,77.868a3.32,3.32,0,0,1,3.206.775c.245.184.169.312-.039.5-.923.844-1.2.84-2.1-.113C-348.943,78.687-349.259,78.336-349.688,77.868Z" transform="translate(-109.297 -69.752)" fill="#e9e9e9"/>
        <path id="Trazado_905345" data-name="Trazado 905345" d="M-429.47,84.218l-.243-.008c.333-1.038-.335-1.653-1-2.213-.822-.691-.828-1.237.144-1.741a.943.943,0,0,0,.072.315C-429.408,82.232-429.375,82.344-429.47,84.218Z" transform="translate(-45.707 -71.727)" fill="#e2caa2"/>
        <path id="Trazado_905346" data-name="Trazado 905346" d="M-280.027,48.766l0-.226c1.024.329,1.65-.306,2.215-.973.666-.787,1.225-.893,1.752.1-.106.021-.265,0-.309.067C-277.308,49.088-278.666,48.93-280.027,48.766Z" transform="translate(-163.563 -45.782)" fill="#ae8765"/>
        <path id="Trazado_905347" data-name="Trazado 905347" d="M-374.015,161.171a4.663,4.663,0,0,0,1.83,1.576c-.244.558-.716.539-1.2.459-.526-.087-.38-.526-.432-.863C-373.875,161.951-373.948,161.561-374.015,161.171Z" transform="translate(-90.345 -134.762)" fill="#e3cba3"/>
        <path id="Trazado_905348" data-name="Trazado 905348" d="M-371.122,179.685l1.352-.209c.035.573.25,1.535-.1,1.579C-370.574,181.141-370.927,180.386-371.122,179.685Z" transform="translate(-92.599 -149.022)" fill="#ececec"/>
        <path id="Trazado_905349" data-name="Trazado 905349" d="M-353.719,265.469a9.435,9.435,0,0,1-.015,1.426.955.955,0,0,1-1.1.842.908.908,0,0,1-.958-.876,28.028,28.028,0,0,1,0-2.967.928.928,0,0,1,1.049-.9.97.97,0,0,1,1.029.936,12.387,12.387,0,0,1,.014,1.538Z" transform="translate(-104.508 -214.084)" fill="#050506"/>
        <path id="Trazado_905350" data-name="Trazado 905350" d="M-424.144,19.182a1.006,1.006,0,0,1-1.6.87,20,20,0,0,1-2.2-2.3.865.865,0,0,1,.12-1.2c.321-.327.744-.574,1.174-.236a13.013,13.013,0,0,1,2.417,2.534A.8.8,0,0,1-424.144,19.182Z" transform="translate(-48.182 -21.791)" fill="#030403"/>
        <path id="Trazado_905351" data-name="Trazado 905351" d="M-215.5,54.081c-.8-.008-1.373-.9-.892-1.495a18.676,18.676,0,0,1,2.436-2.358.829.829,0,0,1,1.107.167c.3.293.564.712.3,1.078a10.615,10.615,0,0,1-2.674,2.56A.636.636,0,0,1-215.5,54.081Z" transform="translate(-212.997 -48.22)" fill="#030302"/>
      </g>
    </g>
  </g>
</svg>
