<svg xmlns="http://www.w3.org/2000/svg" xmlns:xlink="http://www.w3.org/1999/xlink" width="121" height="121" viewBox="0 0 121 121">
  <defs>
    <clipPath id="clip-path">
      <rect id="Rectángulo_400938" data-name="Rectángulo 400938" width="121" height="121" transform="translate(0 0)" fill="none"/>
    </clipPath>
    <clipPath id="clip-path-2">
      <rect id="Rectángulo_401073" data-name="Rectángulo 401073" width="92.219" height="41.532" fill="#efb499"/>
    </clipPath>
  </defs>
  <g id="Grupo_1120001" data-name="Grupo 1120001" transform="translate(-740.445 -13561.002)">
    <g id="Grupo_1118337" data-name="Grupo 1118337" transform="translate(352.777 7548.001)">
      <rect id="Rectángulo_401103" data-name="Rectángulo 401103" width="121" height="121" transform="translate(387.668 6013)" fill="none"/>
      <g id="Grupo_1099348" data-name="Grupo 1099348" transform="translate(387.668 6013)">
        <g id="Grupo_1099282" data-name="Grupo 1099282">
          <g id="Grupo_1099281" data-name="Grupo 1099281" clip-path="url(#clip-path-2)">
            <path id="Trazado_873375" data-name="Trazado 873375" d="M74.8,9.1c-4.139,0-6.28-2.03-8.17-3.821-1.855-1.756-3.452-3.274-6.792-3.274s-4.937,1.517-6.792,3.274C51.161,7.072,49.023,9.1,44.881,9.1s-6.28-2.03-8.169-3.821C34.857,3.525,33.26,2.007,29.92,2.007s-4.937,1.517-6.789,3.274C21.241,7.072,19.1,9.1,14.962,9.1S8.679,7.072,6.789,5.281C4.937,3.525,3.34,2.007,0,2.007V0C4.139,0,6.28,2.033,8.17,3.821c1.855,1.759,3.452,3.274,6.792,3.274S19.9,5.58,21.75,3.824C23.637,2.033,25.781,0,29.92,0s6.283,2.033,8.17,3.821c1.855,1.759,3.452,3.274,6.792,3.274s4.937-1.514,6.792-3.274C53.56,2.033,55.7,0,59.843,0s6.283,2.033,8.17,3.821C69.867,5.58,71.464,7.094,74.8,7.094S79.742,5.58,81.6,3.821C83.483,2.033,85.624,0,89.766,0V2.007c-3.34,0-4.937,1.517-6.792,3.274C81.084,7.072,78.943,9.1,74.8,9.1" transform="translate(2.453 32.43)" fill="#efb499"/>
            <path id="Trazado_873376" data-name="Trazado 873376" d="M74.8,9.1c-4.139,0-6.283-2.03-8.17-3.824-1.855-1.756-3.452-3.27-6.792-3.27s-4.937,1.514-6.792,3.27C51.164,7.072,49.023,9.1,44.881,9.1s-6.283-2.03-8.17-3.824c-1.855-1.756-3.452-3.27-6.792-3.27s-4.937,1.517-6.789,3.27C21.241,7.072,19.1,9.1,14.962,9.1S8.679,7.072,6.789,5.278C4.937,3.522,3.34,2.007,0,2.007V0C4.139,0,6.283,2.03,8.17,3.821c1.855,1.759,3.452,3.274,6.792,3.274S19.9,5.58,21.75,3.821C23.637,2.03,25.781,0,29.92,0S36.2,2.03,38.093,3.821c1.852,1.759,3.449,3.274,6.789,3.274s4.937-1.514,6.792-3.274C53.56,2.03,55.7,0,59.843,0s6.283,2.03,8.17,3.821C69.867,5.58,71.464,7.094,74.8,7.094S79.742,5.58,81.6,3.821C83.486,2.03,85.627,0,89.769,0V2.007c-3.34,0-4.94,1.517-6.8,3.27C81.084,7.072,78.943,9.1,74.8,9.1" transform="translate(1.635 21.62)" fill="#efb499"/>
            <path id="Trazado_873377" data-name="Trazado 873377" d="M74.8,9.1c-4.139,0-6.283-2.03-8.169-3.824-1.855-1.756-3.452-3.27-6.792-3.27s-4.937,1.514-6.792,3.27C51.164,7.072,49.02,9.1,44.881,9.1s-6.283-2.03-8.17-3.824c-1.855-1.756-3.452-3.27-6.792-3.27s-4.937,1.517-6.789,3.27C21.241,7.072,19.1,9.1,14.962,9.1S8.678,7.072,6.789,5.278C4.937,3.522,3.34,2.007,0,2.007V0C4.139,0,6.283,2.03,8.169,3.821c1.851,1.759,3.452,3.274,6.792,3.274S19.9,5.58,21.75,3.821C23.637,2.03,25.781,0,29.92,0S36.2,2.03,38.093,3.821c1.852,1.759,3.449,3.274,6.789,3.274s4.937-1.514,6.792-3.274C53.56,2.03,55.7,0,59.843,0s6.283,2.03,8.17,3.821C69.867,5.58,71.464,7.094,74.8,7.094S79.742,5.58,81.6,3.821C83.486,2.03,85.624,0,89.769,0V2.007c-3.34,0-4.941,1.517-6.8,3.27C81.084,7.072,78.943,9.1,74.8,9.1" transform="translate(0.818 10.81)" fill="#efb499"/>
            <path id="Trazado_873378" data-name="Trazado 873378" d="M74.8,9.1c-4.139,0-6.28-2.03-8.17-3.821-1.855-1.756-3.452-3.27-6.792-3.27s-4.937,1.514-6.789,3.27C51.164,7.069,49.023,9.1,44.881,9.1s-6.28-2.03-8.169-3.821c-1.855-1.756-3.452-3.27-6.792-3.27s-4.937,1.514-6.789,3.267C21.245,7.069,19.1,9.1,14.962,9.1S8.678,7.069,6.789,5.278C4.937,3.522,3.34,2.007,0,2.007V0C4.139,0,6.283,2.03,8.17,3.821c1.855,1.756,3.452,3.27,6.792,3.27S19.9,5.577,21.75,3.821C23.64,2.03,25.781,0,29.92,0s6.28,2.03,8.173,3.821c1.852,1.756,3.449,3.27,6.789,3.27s4.937-1.514,6.792-3.27C53.563,2.03,55.7,0,59.843,0s6.28,2.03,8.17,3.821c1.855,1.756,3.452,3.27,6.792,3.27s4.937-1.514,6.792-3.27C83.486,2.03,85.627,0,89.769,0V2.007c-3.344,0-4.941,1.514-6.8,3.27C81.084,7.069,78.943,9.1,74.8,9.1" transform="translate(0 0.003)" fill="#efb499"/>
          </g>
        </g>
      </g>
      <circle id="Elipse_11504" data-name="Elipse 11504" cx="50.5" cy="50.5" r="50.5" transform="translate(402.668 6031)" fill="#ffce73"/>
      <circle id="Elipse_11503" data-name="Elipse 11503" cx="52.5" cy="52.5" r="52.5" transform="translate(395.668 6021)" fill="#f3f9ff"/>
    </g>
    <g id="Grupo_1118340" data-name="Grupo 1118340" transform="translate(766.387 13586.806)">
      <rect id="Rectángulo_401104" data-name="Rectángulo 401104" width="68" height="69" transform="translate(-0.438 -0.804)" fill="none"/>
      <g id="Grupo_1118348" data-name="Grupo 1118348" transform="translate(486.779 11.677)">
        <path id="Trazado_905352" data-name="Trazado 905352" d="M-478.59,27.381c0-7.964-.011-15.927.017-23.89,0-.806-.1-1.159-1.044-1.139-2.078.043-3.185-1.152-3.195-3.258,0-1.013-.008-2.026,0-3.039a6.108,6.108,0,0,1,6.276-6.289c8.068-.027,16.136-.009,24.2-.01,6.182,0,12.364-.012,18.546.005a6.161,6.161,0,0,1,6.153,4.567,8.034,8.034,0,0,1,.185,2.286q.01,13.2-.009,26.405c0,.684.076,1.147.815,1.434A3.031,3.031,0,0,1-425,26.136c.21.486.458.535.966.415a4.093,4.093,0,0,1,5.337,4.185c-.025,3.769.326,7.56-.2,11.3-.819,5.836-3.464,10.6-8.881,13.369a12.464,12.464,0,0,1-12.4-.4,3.451,3.451,0,0,0-1.774-.466c-10.827.013-21.655-.056-32.481.049-3.244.031-4.239-1.438-4.2-4.26C-478.52,42.68-478.59,35.03-478.59,27.381Z"/>
        <path id="Trazado_905353" data-name="Trazado 905353" d="M-427.734,11.213a1.485,1.485,0,0,0,1.668,1.1c3.807-.017,7.613.006,11.42-.013a2.984,2.984,0,0,0,3.235-3.274c.014-1.013-.011-2.026.006-3.038a3.541,3.541,0,0,1,3.587-3.678,3.567,3.567,0,0,1,3.562,3.625q.029,13.725,0,27.45c0,.248.146.578-.254.7-.448.138-.415-.281-.532-.48a4.1,4.1,0,0,0-4.66-2.158c-.787.191-.71-.169-.709-.657.005-2.13.034-4.261-.008-6.391-.045-2.279-1.119-3.811-2.939-4.331-2.961-.847-5.51,1.133-5.519,4.339-.019,6.426,0,12.852,0,19.278v1.233c-1.045-1.119-1.91-2.056-2.787-2.982-1.9-2.009-4.1-2.366-6.07-.994a5.27,5.27,0,0,0-1.748,6.5,16.277,16.277,0,0,0,2.115,2.977c2.927,3.775,5.872,7.535,8.825,11.319-.215.325-.559.148-.833.148-9.883.011-19.766,0-29.649.027-.892,0-1.2-.21-1.2-1.161q.042-23.731,0-47.462c0-.884.3-1.013,1.072-1.005,3.492.036,6.984.005,10.477.023.851,0,1.523-.181,1.766-1.1a3.077,3.077,0,0,1,3.33-.117c1.1,1.194,1.406,1.2,2.51,0A3.082,3.082,0,0,1-427.734,11.213Z" transform="translate(-25.753 -9.927)" fill="#fefefe"/>
        <path id="Trazado_905354" data-name="Trazado 905354" d="M-329.95,111.4c0-3.632-.01-7.265.005-10.9.006-1.333.677-1.983,1.819-1.846.895.108,1.367.735,1.37,1.9.009,3.667,0,7.335,0,11,0,2.375,0,4.75,0,7.125,0,1.172.454,1.761,1.316,1.751.845-.01,1.286-.6,1.292-1.787.011-2.235-.016-4.471.014-6.706.018-1.341.687-1.953,1.861-1.8,1.061.142,1.338.9,1.346,1.808.018,2.1.007,4.191.008,6.287,0,.28-.008.559,0,.838a1.222,1.222,0,0,0,1.288,1.341,1.205,1.205,0,0,0,1.3-1.329c.028-1.571,0-3.143.021-4.715a1.562,1.562,0,0,1,1.082-1.711,1.56,1.56,0,0,1,2.12,1.591c.056,1.535.024,3.073.019,4.61a1.5,1.5,0,0,0,.437,1.237,1.231,1.231,0,0,0,1.365.231,1.193,1.193,0,0,0,.784-1.137c.019-.838-.022-1.679.035-2.514a1.56,1.56,0,0,1,1.552-1.64,1.494,1.494,0,0,1,1.638,1.538c-.027,4.49.533,9.022-.643,13.446-1.087,4.091-3.3,7.375-7.24,9.231-4.38,2.063-9.408.9-13.053-3.165-3.1-3.455-5.754-7.28-8.645-10.91-.565-.709-1.138-1.415-1.662-2.154a2.721,2.721,0,0,1-.1-3.139,1.808,1.808,0,0,1,3-.334c1.226,1.242,2.4,2.54,3.595,3.808a5.531,5.531,0,0,0,1.444,1.2,1.6,1.6,0,0,0,2.463-1.03,5.947,5.947,0,0,0,.191-1.866q0-5.134,0-10.269Z" transform="translate(-112.023 -86.052)" fill="#e3cbb1"/>
        <path id="Trazado_905355" data-name="Trazado 905355" d="M-443.947,11.187c-1.123-.228-2.255-.583-3.313.212-.431-.469-.369-1.414-1.329-1.373-.88.038-.808.922-1.224,1.371-1.059-.787-2.19-.443-3.314-.211-.169-1.219-.463-1.5-1.679-1.5-4.888-.007-9.776-.024-14.663.016-.927.008-1.362-.19-1.26-1.21.086-.864-.014-1.746.028-2.616a3.536,3.536,0,0,1,3.6-3.579q18.7-.036,37.391-.01a3.628,3.628,0,0,1,.506.089c-1.335,1.949-1.076,4.11-1.037,6.218.017.889-.274,1.118-1.131,1.108-3.63-.042-7.262-.023-10.893-.015C-443.472,9.688-443.766,9.967-443.947,11.187Z" transform="translate(-9.54 -9.902)" fill="#fecab2"/>
        <path id="Trazado_905356" data-name="Trazado 905356" d="M-425.884,77.363c0-.838-.015-1.675,0-2.512a2.38,2.38,0,0,1,2.31-2.48c1.812-.061,3.63-.057,5.442,0a2.369,2.369,0,0,1,2.339,2.35q.075,2.667,0,5.338a2.421,2.421,0,0,1-2.417,2.393q-2.616.058-5.234,0a2.433,2.433,0,0,1-2.441-2.472C-425.9,79.109-425.884,78.236-425.884,77.363Z" transform="translate(-44.988 -65.259)"/>
        <path id="Trazado_905357" data-name="Trazado 905357" d="M-414.426,143.9c3.214,0,6.427-.011,9.64.007.932.005,1.615.61,1.535,1.356a1.382,1.382,0,0,1-1.494,1.3c-.174.006-.349,0-.524,0h-18.757c-1.26-.013-1.841-.449-1.822-1.367.018-.869.591-1.3,1.781-1.3Q-419.246,143.892-414.426,143.9Z" transform="translate(-45.022 -121.82)" fill="#010101"/>
        <path id="Trazado_905358" data-name="Trazado 905358" d="M-417.6,254.174c-2.2,0-4.4.006-6.6,0-1.118,0-1.657-.436-1.618-1.3.044-1,.689-1.262,1.57-1.261,4.435.008,8.87,0,13.305.007,1.084,0,1.659.479,1.64,1.312-.018.817-.585,1.244-1.7,1.247C-413.2,254.178-415.4,254.174-417.6,254.174Z" transform="translate(-45.042 -206.944)" fill="#010101"/>
        <path id="Trazado_905359" data-name="Trazado 905359" d="M-419.173,182.428c-1.676,0-3.353.011-5.029,0-1.1-.01-1.649-.468-1.648-1.318,0-.869.528-1.31,1.647-1.314q5.028-.016,10.057,0c1.053,0,1.671.51,1.671,1.315s-.622,1.309-1.67,1.317C-415.821,182.438-417.5,182.428-419.173,182.428Z" transform="translate(-45.02 -150.183)" fill="#020202"/>
        <path id="Trazado_905360" data-name="Trazado 905360" d="M-357.286,74.984c-1.637,0-3.274-.013-4.911.005-.894.01-1.5-.331-1.59-1.265-.075-.8.575-1.332,1.622-1.335q4.911-.017,9.822,0c1.055,0,1.673.514,1.663,1.315s-.633,1.274-1.7,1.28C-354.012,74.99-355.649,74.984-357.286,74.984Z" transform="translate(-94.064 -65.301)"/>
        <path id="Trazado_905361" data-name="Trazado 905361" d="M-419.757,215.626c1.464,0,2.928.02,4.391-.007a1.382,1.382,0,0,1,1.613,1.261c.1.761-.537,1.368-1.493,1.377q-4.548.04-9.1,0c-1.008-.009-1.539-.533-1.485-1.365.064-.972.7-1.273,1.574-1.268C-422.754,215.632-421.256,215.626-419.757,215.626Z" transform="translate(-45.035 -178.502)" fill="#020202"/>
        <path id="Trazado_905362" data-name="Trazado 905362" d="M-358.276,110.78c-1.325,0-2.65,0-3.976,0-.867,0-1.44-.414-1.473-1.275-.034-.894.581-1.319,1.417-1.327,2.65-.024,5.3-.032,7.951,0,.983.011,1.551.58,1.468,1.38-.092.892-.664,1.234-1.517,1.227C-355.695,110.772-356.985,110.78-358.276,110.78Z" transform="translate(-94.117 -93.576)" fill="#020202"/>
        <path id="Trazado_905363" data-name="Trazado 905363" d="M-370.954,39.276c-.037-.7.076-1.342.823-1.629A1.275,1.275,0,0,1-368.7,38c.376.368.252.841.3,1.279C-369.294,40.494-370.033,40.494-370.954,39.276Z" transform="translate(-88.399 -37.779)" fill="#040404"/>
        <path id="Trazado_905364" data-name="Trazado 905364" d="M-408.708,87.191c0,2.507,0,2.507-2.465,2.507-2.5,0-2.5,0-2.5-2.469,0-2.438,0-2.438,2.41-2.438h.1C-408.708,84.792-408.708,84.792-408.708,87.191Z" transform="translate(-54.643 -75.111)" fill="#7a4f00"/>
      </g>
    </g>
  </g>
</svg>
