<svg xmlns="http://www.w3.org/2000/svg" xmlns:xlink="http://www.w3.org/1999/xlink" width="121" height="121" viewBox="0 0 121 121">
  <defs>
    <clipPath id="clip-path">
      <rect id="Rectángulo_400938" data-name="Rectángulo 400938" width="121" height="121" transform="translate(0 0)" fill="none"/>
    </clipPath>
    <clipPath id="clip-path-2">
      <rect id="Rectángulo_401073" data-name="Rectángulo 401073" width="92.219" height="41.532" fill="#efb499"/>
    </clipPath>
  </defs>
  <g id="Grupo_1120004" data-name="Grupo 1120004" transform="translate(-5065.668 -1861.001)">
    <g id="Grupo_1118345" data-name="Grupo 1118345" transform="translate(4678 -4151.999)">
      <rect id="Rectángulo_401103" data-name="Rectángulo 401103" width="121" height="121" transform="translate(387.668 6013)" fill="none"/>
      <g id="Grupo_1099348" data-name="Grupo 1099348" transform="translate(387.668 6013)">
        <g id="Grupo_1099282" data-name="Grupo 1099282">
          <g id="Grupo_1099281" data-name="Grupo 1099281" clip-path="url(#clip-path-2)">
            <path id="Trazado_873375" data-name="Trazado 873375" d="M74.8,9.1c-4.139,0-6.28-2.03-8.17-3.821-1.855-1.756-3.452-3.274-6.792-3.274s-4.937,1.517-6.792,3.274C51.161,7.072,49.023,9.1,44.881,9.1s-6.28-2.03-8.169-3.821C34.857,3.525,33.26,2.007,29.92,2.007s-4.937,1.517-6.789,3.274C21.241,7.072,19.1,9.1,14.962,9.1S8.679,7.072,6.789,5.281C4.937,3.525,3.34,2.007,0,2.007V0C4.139,0,6.28,2.033,8.17,3.821c1.855,1.759,3.452,3.274,6.792,3.274S19.9,5.58,21.75,3.824C23.637,2.033,25.781,0,29.92,0s6.283,2.033,8.17,3.821c1.855,1.759,3.452,3.274,6.792,3.274s4.937-1.514,6.792-3.274C53.56,2.033,55.7,0,59.843,0s6.283,2.033,8.17,3.821C69.867,5.58,71.464,7.094,74.8,7.094S79.742,5.58,81.6,3.821C83.483,2.033,85.624,0,89.766,0V2.007c-3.34,0-4.937,1.517-6.792,3.274C81.084,7.072,78.943,9.1,74.8,9.1" transform="translate(2.453 32.43)" fill="#efb499"/>
            <path id="Trazado_873376" data-name="Trazado 873376" d="M74.8,9.1c-4.139,0-6.283-2.03-8.17-3.824-1.855-1.756-3.452-3.27-6.792-3.27s-4.937,1.514-6.792,3.27C51.164,7.072,49.023,9.1,44.881,9.1s-6.283-2.03-8.17-3.824c-1.855-1.756-3.452-3.27-6.792-3.27s-4.937,1.517-6.789,3.27C21.241,7.072,19.1,9.1,14.962,9.1S8.679,7.072,6.789,5.278C4.937,3.522,3.34,2.007,0,2.007V0C4.139,0,6.283,2.03,8.17,3.821c1.855,1.759,3.452,3.274,6.792,3.274S19.9,5.58,21.75,3.821C23.637,2.03,25.781,0,29.92,0S36.2,2.03,38.093,3.821c1.852,1.759,3.449,3.274,6.789,3.274s4.937-1.514,6.792-3.274C53.56,2.03,55.7,0,59.843,0s6.283,2.03,8.17,3.821C69.867,5.58,71.464,7.094,74.8,7.094S79.742,5.58,81.6,3.821C83.486,2.03,85.627,0,89.769,0V2.007c-3.34,0-4.94,1.517-6.8,3.27C81.084,7.072,78.943,9.1,74.8,9.1" transform="translate(1.635 21.62)" fill="#efb499"/>
            <path id="Trazado_873377" data-name="Trazado 873377" d="M74.8,9.1c-4.139,0-6.283-2.03-8.169-3.824-1.855-1.756-3.452-3.27-6.792-3.27s-4.937,1.514-6.792,3.27C51.164,7.072,49.02,9.1,44.881,9.1s-6.283-2.03-8.17-3.824c-1.855-1.756-3.452-3.27-6.792-3.27s-4.937,1.517-6.789,3.27C21.241,7.072,19.1,9.1,14.962,9.1S8.678,7.072,6.789,5.278C4.937,3.522,3.34,2.007,0,2.007V0C4.139,0,6.283,2.03,8.169,3.821c1.851,1.759,3.452,3.274,6.792,3.274S19.9,5.58,21.75,3.821C23.637,2.03,25.781,0,29.92,0S36.2,2.03,38.093,3.821c1.852,1.759,3.449,3.274,6.789,3.274s4.937-1.514,6.792-3.274C53.56,2.03,55.7,0,59.843,0s6.283,2.03,8.17,3.821C69.867,5.58,71.464,7.094,74.8,7.094S79.742,5.58,81.6,3.821C83.486,2.03,85.624,0,89.769,0V2.007c-3.34,0-4.941,1.517-6.8,3.27C81.084,7.072,78.943,9.1,74.8,9.1" transform="translate(0.818 10.81)" fill="#efb499"/>
            <path id="Trazado_873378" data-name="Trazado 873378" d="M74.8,9.1c-4.139,0-6.28-2.03-8.17-3.821-1.855-1.756-3.452-3.27-6.792-3.27s-4.937,1.514-6.789,3.27C51.164,7.069,49.023,9.1,44.881,9.1s-6.28-2.03-8.169-3.821c-1.855-1.756-3.452-3.27-6.792-3.27s-4.937,1.514-6.789,3.267C21.245,7.069,19.1,9.1,14.962,9.1S8.678,7.069,6.789,5.278C4.937,3.522,3.34,2.007,0,2.007V0C4.139,0,6.283,2.03,8.17,3.821c1.855,1.756,3.452,3.27,6.792,3.27S19.9,5.577,21.75,3.821C23.64,2.03,25.781,0,29.92,0s6.28,2.03,8.173,3.821c1.852,1.756,3.449,3.27,6.789,3.27s4.937-1.514,6.792-3.27C53.563,2.03,55.7,0,59.843,0s6.28,2.03,8.17,3.821c1.855,1.756,3.452,3.27,6.792,3.27s4.937-1.514,6.792-3.27C83.486,2.03,85.627,0,89.769,0V2.007c-3.344,0-4.941,1.514-6.8,3.27C81.084,7.069,78.943,9.1,74.8,9.1" transform="translate(0 0.003)" fill="#efb499"/>
          </g>
        </g>
      </g>
      <circle id="Elipse_11504" data-name="Elipse 11504" cx="50.5" cy="50.5" r="50.5" transform="translate(402.668 6031)" fill="#ffce73"/>
      <circle id="Elipse_11503" data-name="Elipse 11503" cx="52.5" cy="52.5" r="52.5" transform="translate(395.668 6021)" fill="#f3f9ff"/>
    </g>
    <g id="Grupo_1118346" data-name="Grupo 1118346" transform="translate(5091.609 1886.806)">
      <rect id="Rectángulo_401104" data-name="Rectángulo 401104" width="62" height="63" transform="translate(5.562 5.196)" fill="none"/>
      <g id="Grupo_1118351" data-name="Grupo 1118351" transform="translate(485.03 19.664)">
        <path id="Trazado_905405" data-name="Trazado 905405" d="M-474.159,5.4a.559.559,0,0,1,.257-.574c.935-.6.968-1.164.12-1.891A1.847,1.847,0,0,0-472.751.945c-.04-1.856-.033-3.714,0-5.57.027-1.724.581-2.295,2.307-2.3q13.828-.027,27.657,0c1.336,0,1.548.253,1.588,1.628.068,2.343-.119,4.688.133,7.03a5.358,5.358,0,0,0,.718,2.3c.418,1.412.824,1.737,2.29,1.75,2.15.019,4.3-.005,6.45.01,1.534.011,1.693.176,1.7,1.67,0,.652.012,1.3-.008,1.954-.013.437-.063.86-.582,1.008a30.325,30.325,0,0,1-3.559-.546c-.616-.044-1.229-.131-1.85-.131q-9.481,0-18.963,0a5.448,5.448,0,0,0-1.168.069.565.565,0,0,0-.5.519.551.551,0,0,0,.421.582,3.518,3.518,0,0,0,1.35.153c3.193.005,6.386-.005,9.579.009.5,0,1.238-.172,1.415.356.184.547-.589.732-.929,1.09a6.317,6.317,0,0,1-5.442,1.742c-1.653-.119-3.322-.025-4.983-.023a4.044,4.044,0,0,0-.876.059c-.273.06-.5.178-.505.5s.214.448.493.508a4.744,4.744,0,0,0,.973.063c1.759.006,3.519-.029,5.278.016,1.15.03,1.366.41.77,1.381a18.32,18.32,0,0,0-2.108,4.712,1.452,1.452,0,0,1-1.574,1.166c-.945,0-1.891-.025-2.834.02-.405.019-.971-.039-.989.54-.019.6.555.539.957.56.878.046,1.76-.01,2.638.028,1.035.045,1.259.274,1.314,1.282.016.293,0,.586,0,.879,0,.818-.421,1.179-1.215,1.184a8.374,8.374,0,0,0-1.463.025c-.755.14-2.129-.476-2.117.57.011.969,1.4.4,2.168.531a7.806,7.806,0,0,0,1.464.017,1.438,1.438,0,0,1,1.606,1.24,15.968,15.968,0,0,0,2.1,4.813c.641,1.023.44,1.377-.794,1.4-1.791.041-3.584-.011-5.376.026-.505.01-1.3-.186-1.291.627.007.76.785.659,1.3.668,2.313.043,4.627.037,6.94.008a3.606,3.606,0,0,1,2.6.912c.558.5,1.217.872,1.81,1.331.178.138.392.313.334.553s-.33.291-.555.332a6.5,6.5,0,0,1-1.17.054c-3.258,0-6.516-.013-9.774.015-.531,0-1.416-.256-1.445.537-.033.876.876.562,1.383.564,6.679.025,13.359.015,20.038.018a13.717,13.717,0,0,0,3.471-.507,1.754,1.754,0,0,1,1.331-.048c.388.313.33.758.332,1.174.01,2.606.015,5.212,0,7.818-.007,1.177-.323,1.5-1.49,1.585-.39.03-.781.019-1.172.019h-37.232c-2.658,0-2.712-.057-2.712-2.748q0-20.717,0-41.434a4.933,4.933,0,0,0-.071-1.356C-472.875,4.977-473.565,5.335-474.159,5.4Z" transform="translate(-0.143 -5.893)" fill="#f7f5f5"/>
        <path id="Trazado_905406" data-name="Trazado 905406" d="M-430.55,35.015a23.49,23.49,0,0,1-7.625.839c-5.736-.033-11.472-.01-17.208-.01-.261,0-.522-.005-.782,0-.618.013-1.041-.254-1.028-.9s.439-.889,1.053-.888c1.988.006,3.976,0,5.964,0h6.692a19.374,19.374,0,0,1-3.356-2.4c-.3-.286-.668-.211-1.018-.212q-3.813-.008-7.626,0a5.381,5.381,0,0,1-.781-.019c-.531-.079-.949-.326-.93-.933.02-.641.43-.915,1.036-.916q3.129-.007,6.258,0h1.094a14.723,14.723,0,0,1-2.659-5.514c-.227-1.216-.813-1.467-1.908-1.347-.9.1-1.823.008-2.735.024-.609.01-1.055-.214-1.079-.854-.026-.7.427-.958,1.082-.954,1.108.007,2.217-.017,3.324.01.5.013.744-.055.738-.674-.02-2.021.011-2.02-2.015-2.021-.749,0-1.5,0-2.249-.01a.8.8,0,0,1-.884-.839.828.828,0,0,1,.9-.927c1.3-.015,2.607-.008,3.911-.006.334,0,.623.023.721-.44a15.559,15.559,0,0,1,2.745-5.954c-.193-.353-.487-.2-.714-.2-2.086-.014-4.172-.011-6.258-.007-.668,0-1.328-.086-1.3-.935s.68-.889,1.349-.886c2.672.013,5.345-.005,8.018.015A1.579,1.579,0,0,0-446.6,7.6a15.364,15.364,0,0,1,2.981-2.123c-.593-.028-.925-.058-1.257-.058q-5.329,0-10.658,0a5.16,5.16,0,0,1-.97-.064.814.814,0,0,1-.694-.827.876.876,0,0,1,.7-.935,3.256,3.256,0,0,1,.875-.038c6.355,0,12.711.019,19.066-.013a22.679,22.679,0,0,1,5.774.816c.484.175.556-.108.555-.49,0-1.1.032-2.206-.012-3.306-.035-.883-.378-1.181-1.3-1.191-2.2-.024-4.409.029-6.613-.026-.963-.024-1.982-.041-2.548-1.068a3.582,3.582,0,0,1-.887-2.6c.033-2.41-.02-4.821.028-7.231.015-.748-.215-.916-.936-.914q-14.218.036-28.436.018c-1.333,0-1.59.262-1.593,1.6,0,2.215,0,4.43,0,6.645,0,1.187-.2,1.35-1.4,1.243a1.574,1.574,0,0,1-.415-1.248c.013-2.346,0-4.693.01-7.039a2.751,2.751,0,0,1,2.964-3q15.154-.014,30.309-.013a1.8,1.8,0,0,1,1.373.589q5.341,5.371,10.714,10.711a1.87,1.87,0,0,1,.615,1.46c-.028,2.053.006,4.106-.022,6.159a1.142,1.142,0,0,0,.631,1.157,16.007,16.007,0,0,1,7.554,10.232c.148.588.359,1.213-.183,1.743-1.05.456-1.537.248-1.786-.914a13.847,13.847,0,0,0-3.272-6.463,13.525,13.525,0,0,0-9.576-4.643,13.6,13.6,0,0,0-10.831,4,13.887,13.887,0,0,0-3.141,15.151c.085.212.173.422.26.632a13.86,13.86,0,0,0,9.743,7.868,13.937,13.937,0,0,0,15.723-7.72,14.063,14.063,0,0,0,1.279-4.632c.115-1.077.55-1.438,1.422-1.313a1.179,1.179,0,0,1,.739,1.415,16.609,16.609,0,0,1-2.2,6.71c-.29.472-.328.773.132,1.138a10.724,10.724,0,0,1,1.11,1.1c.318.338.591.642,1.15.4.393-.171.734.108,1.026.4,1.883,1.895,3.806,3.751,5.652,5.682a4.29,4.29,0,0,1-.1,6.066,4.307,4.307,0,0,1-6.066,0c-1.894-1.838-3.742-3.724-5.608-5.591-.353-.353-.718-.719-.391-1.268.184-.309.019-.475-.175-.665-.418-.411-.811-.85-1.249-1.238-.256-.227-.422-.744-.934-.418-.445.284-.93.431-.918,1.188.055,3.487.028,6.974.023,10.462,0,2.128-1.051,3.19-3.165,3.191q-19.848.005-39.7,0a2.783,2.783,0,0,1-3.1-3.063q-.009-22.489,0-44.977c0-.26.02-.521.031-.781a1.022,1.022,0,0,1,1.728-.067A2.426,2.426,0,0,1-472.483.59q.008,21.7,0,43.393a2.622,2.622,0,0,0,.247,1.418,1.411,1.411,0,0,0,1.237.808c.391.014.781.023,1.172.023q18.422,0,36.844.015c2,0,2.823-.146,2.759-2.758-.062-2.54,0-5.082-.028-7.623C-430.249,35.583-429.967,35.12-430.55,35.015Z" transform="translate(0)"/>
        <path id="Trazado_905407" data-name="Trazado 905407" d="M-321.672,100.51c-.9.028-1.09.613-1.153,1.375a11.185,11.185,0,0,1-1.356,4.716,14.03,14.03,0,0,1-8.666,6.545,15.237,15.237,0,0,1-13.38-2.371,13.824,13.824,0,0,1-3.819-4.374,14.149,14.149,0,0,1,3.833-16.944,14.315,14.315,0,0,1,23.167,8.071c.237,1.063.464,1.211,1.552,1.012A1.72,1.72,0,0,0-321.672,100.51Z" transform="translate(-98.882 -80.753)" fill="#fecab2"/>
        <path id="Trazado_905408" data-name="Trazado 905408" d="M-423.289,91.333c.38.068.391.068.392.488q.006,3.126,0,6.253c0,1.14.006,2.28-.014,3.419-.018,1.027-.324,1.337-1.351,1.346-1.823.015-3.647,0-5.471,0h-33.705c-1.646,0-1.838-.179-1.839-1.856q-.007-21.836,0-43.671c0-.521-.022-1.041-.033-1.562.37.347.207.8.207,1.2q.014,21.558.008,43.116c0,1.415.022,1.442,1.4,1.442q19.6,0,39.2,0c1.378,0,1.4-.03,1.4-1.445,0-2.575,0-5.149-.005-7.724C-423.092,92-422.97,91.621-423.289,91.333Z" transform="translate(-7.261 -56.318)" fill="#e3d6e8"/>
        <path id="Trazado_905409" data-name="Trazado 905409" d="M-438.2,146.037c-.683,0-1.368.03-2.049-.008a2.022,2.022,0,0,1-2-2c-.043-1.365-.039-2.733,0-4.1a1.969,1.969,0,0,1,1.955-2.025c1.4-.054,2.8-.054,4.2,0a2.008,2.008,0,0,1,1.978,2.027c.058,1.331.057,2.669,0,4a2.111,2.111,0,0,1-2.226,2.1C-436.962,146.051-437.581,146.039-438.2,146.037Z" transform="translate(-25.789 -122.361)" fill="#010101"/>
        <path id="Trazado_905410" data-name="Trazado 905410" d="M-438.205,80.1c-.683,0-1.366.022-2.048-.007a1.981,1.981,0,0,1-2-1.979c-.042-1.364-.04-2.731,0-4.1a2,2,0,0,1,2.059-2.035c1.33-.057,2.667-.06,4,0a2.07,2.07,0,0,1,2.079,2.146c.042,1.266.04,2.536,0,3.8a2.072,2.072,0,0,1-2.238,2.166C-436.97,80.112-437.588,80.1-438.205,80.1Z" transform="translate(-25.787 -69.336)" fill="#010101"/>
        <path id="Trazado_905411" data-name="Trazado 905411" d="M-438.267,213.123c-.65,0-1.3.016-1.951,0a1.972,1.972,0,0,1-2.033-1.939c-.049-1.4-.045-2.8,0-4.194a1.933,1.933,0,0,1,1.915-1.959c1.395-.072,2.8-.071,4.193-.009a2.04,2.04,0,0,1,2.021,2.1c.048,1.3.049,2.6,0,3.9a2.055,2.055,0,0,1-2.194,2.107C-436.966,213.133-437.617,213.123-438.267,213.123Z" transform="translate(-25.782 -176.338)" fill="#010101"/>
        <path id="Trazado_905412" data-name="Trazado 905412" d="M-302.415,49.812a3.882,3.882,0,0,0,2.47.7c2.375-.03,4.751.026,7.124-.03.8-.019.984.247.954.991-.053,1.332-.013,2.667,0,4,0,.482-.054.832-.631.416.113-.057.314-.1.327-.173a14.63,14.63,0,0,0,.051-3.677c-.032-.428-.527-.276-.824-.278-2.406-.012-4.812-.005-7.217-.007C-301.679,51.756-302.143,51.353-302.415,49.812Z" transform="translate(-138.286 -51.538)" fill="#e5d8ea"/>
        <path id="Trazado_905413" data-name="Trazado 905413" d="M-206.671,228.688c.7-.722,1.414-1.431,2.094-2.172.3-.325.489-.284.777.009,1.6,1.622,3.236,3.2,4.813,4.847a2.325,2.325,0,0,1-.068,3.4,2.146,2.146,0,0,1-2.493-.591c-1.747-1.512-3.321-3.214-4.934-4.87A.567.567,0,0,1-206.671,228.688Z" transform="translate(-215.269 -193.484)" fill="#09614d"/>
        <path id="Trazado_905414" data-name="Trazado 905414" d="M-289.7,11.843c-2.126,0-4.458.006-6.791,0-.708,0-.945-.44-.944-1.092.007-2.274,0-4.549,0-6.684Z" transform="translate(-142.295 -14.741)" fill="#fecab2"/>
        <path id="Trazado_905415" data-name="Trazado 905415" d="M-344.464,189.712c.611.368.845,1.049,1.266,1.571a14.339,14.339,0,0,0,9.792,5.4,14.868,14.868,0,0,0,12.21-3.906c.96-.877,1.668-1.967,2.6-2.863a13.6,13.6,0,0,1-8.579,7.54,14.332,14.332,0,0,1-17.089-7.2A4.883,4.883,0,0,1-344.464,189.712Z" transform="translate(-104.464 -164.064)" fill="#efb499"/>
        <path id="Trazado_905416" data-name="Trazado 905416" d="M-210.3,238.552c1.656,1.871,3.466,3.592,5.27,5.314a3.027,3.027,0,0,0,2.346.764,2.379,2.379,0,0,1-3.472.11q-2.435-2.328-4.769-4.762C-211.767,239.106-210.539,239.019-210.3,238.552Z" transform="translate(-211.64 -203.348)" fill="#d1e1dd"/>
        <path id="Trazado_905417" data-name="Trazado 905417" d="M-219.383,214.182c.951-1.166.951-1.166,2-.112s1.053,1.054-.078,2.027A2.137,2.137,0,0,1-219.383,214.182Z" transform="translate(-205.071 -183.032)" fill="#e2d5e7"/>
        <path id="Trazado_905418" data-name="Trazado 905418" d="M-223.252,217.836a4.087,4.087,0,0,0,1.926,1.916c-1.026,1.215-1.026,1.215-2.1.141C-224.476,218.85-224.476,218.85-223.252,217.836Z" transform="translate(-201.202 -186.685)" fill="#d6c5db"/>
        <path id="Trazado_905419" data-name="Trazado 905419" d="M-337.6,114.738c-.709.052-1.044-.325-1.241-.973a11.912,11.912,0,0,1,9.159-15.01,11.922,11.922,0,0,1,14.2,13.19,11.978,11.978,0,0,1-13.3,10.359,11.96,11.96,0,0,1-7.836-4.3,1.152,1.152,0,0,1-.148-1.652c.635-.779,1.163-.276,1.614.19a14.311,14.311,0,0,0,2.8,2.4A9.852,9.852,0,0,0-318.24,114.1a9.717,9.717,0,0,0-2.851-11.239,9.945,9.945,0,0,0-11.008-1.047,9.94,9.94,0,0,0-4.9,10.451c.071.384.163.765.229,1.151C-336.768,114.031-336.736,114.664-337.6,114.738Z" transform="translate(-108.593 -90.726)"/>
        <path id="Trazado_905420" data-name="Trazado 905420" d="M-330.468,176.015a1.2,1.2,0,0,0,.629-1.3c.3-.034.372.214.486.4a10.271,10.271,0,0,0,8.42,5.131,10.365,10.365,0,0,0,8.91-3.816c.316-.373.469-.968,1.126-.941a9.526,9.526,0,0,1-8.1,6.251,9.727,9.727,0,0,1-9.074-3.637c-.448-.527-.874-.867-1.564-.482Z" transform="translate(-115.722 -152.003)" fill="#ebcd60"/>
        <path id="Trazado_905421" data-name="Trazado 905421" d="M-432.8,147.573c1.343-.433,2.719-.118,4.079-.164.316-.011.277.306.275.522-.006.806-.024,1.611-.038,2.417a.988.988,0,0,1-.889.494,25.559,25.559,0,0,1-2.618.009c-.614-.024-.961-.276-.894-.964A18.8,18.8,0,0,1-432.8,147.573Z" transform="translate(-33.336 -129.984)" fill="#6a4d23"/>
        <path id="Trazado_905422" data-name="Trazado 905422" d="M-433.365,148.527q.017,1.166.033,2.332c0,.3.02.635.428.617a14.683,14.683,0,0,0,3.855-.174c.1,1.431.094,1.462-1.323,1.421-.994-.029-2.288.45-2.9-.215s-.166-1.93-.193-2.932A1.79,1.79,0,0,1-433.365,148.527Z" transform="translate(-32.774 -130.938)" fill="#7d3a1b"/>
        <path id="Trazado_905423" data-name="Trazado 905423" d="M-432.78,81.668c1.341-.423,2.714-.114,4.071-.163.316-.011.282.3.28.518-.007.868-.026,1.737-.04,2.6-1.295.622-2.642.33-3.974.208a.487.487,0,0,1-.413-.567A16.9,16.9,0,0,1-432.78,81.668Z" transform="translate(-33.357 -76.979)" fill="#6a4d23"/>
        <path id="Trazado_905424" data-name="Trazado 905424" d="M-432.953,82.6c.01.257.028.514.03.772.015,2.191.014,2.191,2.251,2.191l2.029,0c.1,1.332.1,1.332-1.227,1.332-.843,0-1.686-.007-2.529,0-.376,0-.654-.1-.647-.529A21.249,21.249,0,0,1-432.953,82.6Z" transform="translate(-33.183 -77.909)" fill="#7d3a1b"/>
        <path id="Trazado_905425" data-name="Trazado 905425" d="M-432.778,214.68c1.324-.408,2.679-.106,4.019-.166.377-.017.33.334.328.583-.007.845-.027,1.689-.042,2.534-1.293.626-2.639.327-3.969.209a.485.485,0,0,1-.416-.564A15.911,15.911,0,0,1-432.778,214.68Z" transform="translate(-33.354 -183.972)" fill="#6a4d23"/>
        <path id="Trazado_905426" data-name="Trazado 905426" d="M-432.952,215.576c.009.193.024.385.026.578.024,2.374.024,2.375,2.446,2.374h1.833c.1,1.334.1,1.335-1.223,1.335-.843,0-1.685,0-2.528,0-.369,0-.659-.093-.651-.526A20.58,20.58,0,0,1-432.952,215.576Z" transform="translate(-33.18 -184.867)" fill="#7d3a1b"/>
        <path id="Trazado_905427" data-name="Trazado 905427" d="M-310.641,121.456a24.658,24.658,0,0,1-2.726,2.86,10.984,10.984,0,0,1-14.156-.858,8.347,8.347,0,0,1-2.061-2.776c-1.869-4.766,1.055-10.734,6.251-12.512a9.612,9.612,0,0,1,10.456,2.338,9.785,9.785,0,0,1,2.526,10.338A4.006,4.006,0,0,1-310.641,121.456Z" transform="translate(-115.977 -97.965)" fill="#ffb937"/>
        <path id="Trazado_905428" data-name="Trazado 905428" d="M-308.016,135.505a2.744,2.744,0,0,1,2.18.815c.394.423.649.354,1.006-.036.725-.79,1.478-1.555,2.242-2.308a2.811,2.811,0,0,1,4.092-.126,2.837,2.837,0,0,1-.036,4.1q-2.286,2.4-4.631,4.747a2.8,2.8,0,0,1-4.168.084c-.879-.821-1.75-1.653-2.572-2.529a2.68,2.68,0,0,1-.487-3.08A2.659,2.659,0,0,1-308.016,135.505Z" transform="translate(-131.647 -118.47)"/>
        <path id="Trazado_905429" data-name="Trazado 905429" d="M-300.643,145.552c.491-.819.917-.925,1.608-.4.1.079.194.174.289.262,1.54,1.429,1.539,1.428,3.046-.114.818-.837,1.623-1.687,2.468-2.5.585-.56,1.187-.655,1.669.161.088.46-.242.713-.508.983-1.164,1.179-2.329,2.358-3.515,3.514-1.123,1.095-2.1,1.142-3.243.092A6.863,6.863,0,0,1-300.643,145.552Z" transform="translate(-139.711 -125.987)" fill="#fecab2"/>
        <path id="Trazado_905430" data-name="Trazado 905430" d="M-301.273,148a14.424,14.424,0,0,1,1.918,1.79c1.081.99,1.93,1,2.946-.045,1.4-1.443,2.924-2.775,4.215-4.328.365.523.078.928-.269,1.286-1.512,1.562-3.037,3.111-4.556,4.666a1,1,0,0,1-1.546.1q-1.289-1.185-2.508-2.446C-301.326,148.766-301.608,148.422-301.273,148Z" transform="translate(-139.081 -128.439)" fill="#9bcf68"/>
      </g>
    </g>
  </g>
</svg>
