<svg xmlns="http://www.w3.org/2000/svg" width="107" height="107" viewBox="0 0 107 107">
  <g id="Grupo_1120005" data-name="Grupo 1120005" transform="translate(-279.777 -16314.226)">
    <g id="Grupo_156312" data-name="Grupo 156312" transform="translate(-8.891 11865.789)">
      <path id="Elipse_5845" data-name="Elipse 5845" d="M53.5,0A53.5,53.5,0,1,1,0,53.5,53.5,53.5,0,0,1,53.5,0Z" transform="translate(288.668 4448.437)" fill="#ffce73"/>
    </g>
    <g id="Grupo_1098917" data-name="Grupo 1098917" transform="translate(-136.75 10255.247)">
      <g id="Grupo_156261" data-name="Grupo 156261" transform="translate(442.102 6081.549)">
        <g id="Grupo_156260" data-name="Grupo 156260" transform="translate(0)">
          <g id="Grupo_1118360" data-name="Grupo 1118360" transform="translate(0 0)">
            <path id="Trazado_905451" data-name="Trazado 905451" d="M-453.181,58.814H-467.3c0-1.1.071-2.178-.021-3.236a9.045,9.045,0,0,0-.558-2.916c-1.58-3.491-2-7.241-2.636-10.945q-.37-2.136-.685-4.281a10.913,10.913,0,0,1,2.683-9.079,3.192,3.192,0,0,1,.553-.586c2.355-1.609,2.83-3.84,2.747-6.6-.194-6.46-.065-12.929-.061-19.395,0-3.531,2.046-5.572,5.58-5.574q14.649-.005,29.3,0c3.472,0,5.535,2.056,5.542,5.51.006,2.827,0,5.653,0,8.626,1.167,0,2.3.03,3.422-.024.247-.012.507-.3.715-.5,1.342-1.324,2.666-2.667,4.007-3.992a4.588,4.588,0,0,1,6.669-.192,4.573,4.573,0,0,1-.176,6.667c-.779.785-1.62,1.507-2.481,2.3,1.291,1.011,2.247,2.2,3.964,1.788v9.749c-2.374.7-4.656,1.428-6.965,2.054a9.989,9.989,0,0,1-7.956-1.184c-1-.59-1.2-.477-1.2.693q-.006,8.738,0,17.477c0,3.539-2.041,5.591-5.562,5.593-6.836,0-13.672.016-20.508-.019-.777,0-1.023.3-1.365.946C-453.487,53.943-453.065,56.355-453.181,58.814Zm22.256-52.438h-28.264V34.694a6.538,6.538,0,0,0,.535-1.477,3.393,3.393,0,0,1,3.669-2.637,3.456,3.456,0,0,1,3.033,3.367c.055.864.143,1.726.219,2.617h20.75V32.71c-.521.2-.953.359-1.383.526-1.064.414-2.113.871-3.193,1.236a2.464,2.464,0,0,1-2.678-.7,2.365,2.365,0,0,1-.642-2.6c1.021-2.562,1.588-5.39,3.993-7.189a1.462,1.462,0,0,0,.265-.376c-1.894-2.176-1.816-4.132.208-6.152,1-1,2.014-1.985,2.989-3.008a1.587,1.587,0,0,0,.478-.928C-430.907,11.163-430.925,8.81-430.925,6.376Zm2.021,5.543a5,5,0,0,1,1.012-.612c.952-.263,1.042-.92,1.027-1.771-.045-2.525-.015-5.052-.017-7.579,0-2.642-1.1-3.737-3.741-3.737q-14.451,0-28.9,0c-2.642,0-3.738,1.1-3.738,3.74q0,19.251,0,38.5a3.55,3.55,0,0,0,.025,1.1,1.789,1.789,0,0,0,.707,1.032c.205.091.8-.3.974-.61.452-.82.75-1.723,1.142-2.578a1.16,1.16,0,0,0-.262-1.484,2.8,2.8,0,0,1-.541-1.753q-.047-14.7-.021-29.407c0-1.755.708-2.479,2.433-2.479q13.744-.006,27.487,0c1.682,0,2.4.725,2.413,2.4S-428.9,10.052-428.9,11.92Zm-36.379,16.128c-3.078,2.592-4.534,5.581-3.872,9.42.228,1.324.428,2.653.651,3.978.646,3.838,1.024,7.746,3,11.346,3.332,0,6.761.008,10.19-.02a.885.885,0,0,0,.634-.456,17.062,17.062,0,0,0,1.458-8.551q-.406-4.674-.727-9.355c-.061-.89-.246-1.665-1.242-1.788-1.013-.125-1.329.6-1.6,1.455-.916,2.908-1.824,5.822-2.889,8.677a2.766,2.766,0,0,1-3.374,1.875,2.924,2.924,0,0,1-2.227-3.177q-.008-6.109,0-12.218Zm38.4,1.057c-2.022,1.6-2.022,1.6-2.022,3.887,0,1.01,0,2.019,0,3.029,0,1.961-.654,2.621-2.6,2.621q-9.441,0-18.881,0h-1.2c.111,1.475.213,2.84.33,4.4.34-1.844.966-2.376,2.625-2.379,2.457,0,4.914-.014,7.371,0a2.088,2.088,0,0,1,2.2,2.657,4.03,4.03,0,0,1-3.842,3.387c-1.008.04-2.023-.043-3.028.024-2.371.157-4.216-.564-5.154-3.087-.083,1.791-.157,3.392-.233,5.049.32.017.616.046.911.046q10.047,0,20.093,0a3.089,3.089,0,0,0,3.427-3.438c.008-3.5,0-7,0-10.5Zm16.169-4.608c0-1.925,0-3.707-.007-5.489,0-.18-.035-.441-.154-.528-1.051-.766-2.125-1.5-2.93-2.063l-4.072,4.073h2.038v1.983a11.106,11.106,0,0,0-1.569.011,7.2,7.2,0,0,1-6.69-2.319,5.756,5.756,0,0,0-3.683-1.706c-.909-.093-1.706.082-2.031,1.068-.308.937.177,1.533.942,1.99,2.136,1.275,4.258,2.574,6.405,3.83a7.358,7.358,0,0,0,5.62.992C-414.8,25.826-412.8,25.132-410.713,24.5ZM-420.951,20c3.243-3.2,6.5-6.355,9.655-9.613a2.734,2.734,0,0,0,.44-2.139,2.472,2.472,0,0,0-4.265-1.117c-2.645,2.585-5.233,5.227-7.862,7.828-.689.681-1.438,1.3-2.139,1.931Zm-9.567,2.887-3.678,3.656,3.239,3.24,4.487-4.455Zm-34.719,33.883h10.011V54.814h-10.011Zm41.88-44.325a4.839,4.839,0,0,0-4.12,1.042c-2.058,1.928-4.047,3.932-6,5.963-.828.86-.591,1.942.665,2.784a6.059,6.059,0,0,0,.849-1.981,3.683,3.683,0,0,1,3.782-3.836c.325,0,.762.044.954-.137C-425.948,15.067-424.719,13.8-423.357,12.441ZM-441.1,42.733h-7.937a1.886,1.886,0,0,0,1.891,1.957c1.378.05,2.76.049,4.138,0C-441.874,44.652-441.251,43.976-441.1,42.733Zm8.065-11.415-2.644-2.794c-.383.96-.792,1.911-1.131,2.888-.093.269-.087.77.074.884a1.242,1.242,0,0,0,.984.09C-434.8,32.063-433.882,31.656-433.038,31.318Z" transform="translate(471.339 3.8)" fill="#6a4d23"/>
            <path id="Trazado_905452" data-name="Trazado 905452" d="M-376.977,56.568V62.5h-24.156V56.568Zm-22.136,3.9h20.079v-1.9h-20.079Z" transform="translate(415.323 -44.367)" fill="#6a4d23"/>
            <path id="Trazado_905453" data-name="Trazado 905453" d="M-371.14,98.37v-1.9H-358.1v1.9Z" transform="translate(391.392 -76.205)" fill="#6a4d23"/>
            <path id="Trazado_905454" data-name="Trazado 905454" d="M-358.087,136.568v1.891h-13.041v-1.891Z" transform="translate(391.382 -108.197)" fill="#6a4d23"/>
            <path id="Trazado_905455" data-name="Trazado 905455" d="M-371.272,158.469v-1.884h11.02v1.884Z" transform="translate(391.497 -124.169)" fill="#6a4d23"/>
            <path id="Trazado_905456" data-name="Trazado 905456" d="M-371.272,178.469v-1.884h11.02v1.884Z" transform="translate(391.497 -140.126)" fill="#6a4d23"/>
            <path id="Trazado_905457" data-name="Trazado 905457" d="M-371,116.416h8.958v1.9H-371Z" transform="translate(391.278 -92.118)" fill="#6a4d23"/>
            <path id="Trazado_905458" data-name="Trazado 905458" d="M-315.99,116.4h1.879v1.929h-1.879Z" transform="translate(347.388 -92.103)" fill="#6a4d23"/>
            <path id="Trazado_905459" data-name="Trazado 905459" d="M-353.033,16.609v1.862h-7.989V16.609Z" transform="translate(383.319 -12.484)" fill="#6a4d23"/>
            <path id="Trazado_905460" data-name="Trazado 905460" d="M-290.315,18.686c-.253-.393-.747-.825-.692-1.169a1.416,1.416,0,0,1,.994-.909c.264-.037.855.57.871.909.018.378-.449.78-.7,1.171Z" transform="translate(327.458 -12.483)" fill="#6a4d23"/>
            <path id="Trazado_905461" data-name="Trazado 905461" d="M-268.9,17.706c-.383.268-.8.778-1.143.737a1.412,1.412,0,0,1-.943-.959c-.046-.264.537-.877.875-.9.378-.031.795.422,1.2.664Z" transform="translate(311.482 -12.458)" fill="#6a4d23"/>
          </g>
        </g>
      </g>
    </g>
  </g>
</svg>
