<svg xmlns="http://www.w3.org/2000/svg" width="107" height="107" viewBox="0 0 107 107">
  <g id="Grupo_1120007" data-name="Grupo 1120007" transform="translate(-279.777 -16635.227)">
    <g id="Grupo_156312" data-name="Grupo 156312" transform="translate(-8.891 12186.789)">
      <path id="Elipse_5845" data-name="Elipse 5845" d="M53.5,0A53.5,53.5,0,1,1,0,53.5,53.5,53.5,0,0,1,53.5,0Z" transform="translate(288.668 4448.437)" fill="#ffce73"/>
    </g>
    <g id="Grupo_1098919" data-name="Grupo 1098919" transform="translate(-106.75 10617.013)">
      <path id="Trazado_873216" data-name="Trazado 873216" d="M0,0H63.184V63.186H0Z" transform="translate(408.527 6040.213)" fill="none"/>
      <g id="Grupo_1118362" data-name="Grupo 1118362" transform="translate(887.592 6046.839)">
        <path id="Trazado_905472" data-name="Trazado 905472" d="M-418.234,48.227V46.893q0-18.174,0-36.348c0-1.617-.011-1.627-1.632-1.629-2.443,0-4.886,0-7.382,0v2.428c1.35,0,2.694-.006,4.038,0,2.006.011,2.589.576,2.59,2.572q.009,14.726,0,29.452c0,1.919-.614,2.552-2.512,2.553q-23.141.013-46.282,0c-1.831,0-2.457-.646-2.459-2.487q-.014-14.785,0-29.569c0-1.925.6-2.506,2.525-2.519,1.353-.009,2.705,0,4.106,0v-2.3a5.261,5.261,0,0,0-.778-.119c-2.337-.009-4.675.018-7.012-.018-.9-.014-1.257.308-1.242,1.228.039,2.532.014,5.064.013,7.6,0,.312.111.7-.035.918a8.073,8.073,0,0,1-1.1,1.111c-.342-.357-.974-.706-.982-1.071-.075-3.193-.088-6.389-.012-9.581a2.567,2.567,0,0,1,2.74-2.339c2.337-.029,4.675-.009,7.012-.01h1.444V5.444q0-7.129,0-14.258c0-1.861.57-2.429,2.445-2.429q16.479,0,32.958,0c1.931,0,2.48.559,2.481,2.512q0,7.012,0,14.025V6.7c.434.021.8.053,1.176.054,2.221,0,4.441,0,6.662,0,2.448,0,3.4.942,3.4,3.366q0,18.232,0,36.465v1.716c1.569,0,3.07,0,4.571,0,2.213,0,2.664.46,2.652,2.672-.019,3.454-2.084,5.528-5.528,5.543-1.753.007-3.506-.008-5.259.005-.832.006-1.675-.045-1.672-1.127,0-1.028.825-1.06,1.606-1.058,1.87,0,3.742.042,5.61-.014,2.125-.065,3.267-1.526,2.957-3.765h-70.163a2.805,2.805,0,0,0,2.075,3.652,8.089,8.089,0,0,0,1.741.123q25.42.009,50.84.006a3.189,3.189,0,0,1,1.269.054c.422.2,1.007.645,1.009.986,0,.372-.538.81-.931,1.1-.206.15-.6.043-.916.043q-25.887,0-51.775,0c-3.909,0-6.3-2.825-5.648-6.679a1.716,1.716,0,0,1,1.891-1.532c1.708,0,3.415,0,5.3,0V46.855q0-10.986,0-21.972c0-.312.007-.623,0-.935-.013-.754.368-1.227,1.1-1.222.754,0,1.072.532,1.062,1.262,0,.312,0,.623,0,.935q0,10.928,0,21.855v1.45Zm-11.27-4.573v-52.6h-33.468v52.6Zm-35.75-30.059h-4.326V43.613h4.326Zm38.009-.023V43.638h4.33V13.572Z" fill="#6a4d23"/>
        <path id="Trazado_905473" data-name="Trazado 905473" d="M-370.882,30.373c0-1.752-.017-3.5,0-5.255.019-1.542,1-2.216,2.4-1.594a7.541,7.541,0,0,0,7.555-.553,1.84,1.84,0,0,1,2.172.04,7.43,7.43,0,0,0,7.341.567c1.564-.677,2.54-.051,2.546,1.624.013,3.425.05,6.852-.014,10.277a10.641,10.641,0,0,1-9.929,10.24c-5.874.438-10.9-3.088-11.794-8.485a62.314,62.314,0,0,1-.4-6.855Zm2.194-4.147c0,2.768-.039,5.754.009,8.739a8.415,8.415,0,0,0,8.84,8.555,8.427,8.427,0,0,0,8.786-8.613c.029-2.687.009-5.374,0-8.062a3.67,3.67,0,0,0-.065-.607c-1.926,0-3.862.421-5.5-.1a9.664,9.664,0,0,0-6.46-.018C-364.724,26.669-366.709,26.226-368.688,26.226Z" transform="translate(-86.381 -25.961)" fill="#6a4d23"/>
        <path id="Trazado_905474" data-name="Trazado 905474" d="M-333.94,192.886c1.907,0,3.813,0,5.72,0,.794,0,1.558.131,1.542,1.148s-.781,1.119-1.573,1.119q-5.661,0-11.322,0c-.816,0-1.563-.18-1.553-1.151s.78-1.123,1.584-1.121C-337.675,192.889-335.808,192.886-333.94,192.886Z" transform="translate(-109.27 -156.411)" fill="#6a4d23"/>
        <path id="Trazado_905475" data-name="Trazado 905475" d="M-333.9,147.791c-1.981,0-3.961-.011-5.942.006-.772.006-1.334-.246-1.325-1.091.008-.777.542-1.044,1.262-1.043q6,.006,12,0c.727,0,1.219.307,1.2,1.094s-.539,1.037-1.257,1.034C-329.94,147.786-331.921,147.791-333.9,147.791Z" transform="translate(-109.238 -120.229)" fill="#6a4d23"/>
        <path id="Trazado_905476" data-name="Trazado 905476" d="M-333.969,171.563c-1.9,0-3.807-.008-5.711,0-.779,0-1.463-.169-1.479-1.083-.016-.932.676-1.092,1.452-1.091q5.769.011,11.538,0c.754,0,1.467.1,1.471,1.062,0,.941-.669,1.109-1.444,1.107C-330.084,171.559-332.026,171.563-333.969,171.563Z" transform="translate(-109.246 -138.411)" fill="#6a4d23"/>
        <path id="Trazado_905477" data-name="Trazado 905477" d="M-366.063,192.873c1.067,0,1.9.094,1.894,1.159-.009.972-.773,1.123-1.577,1.116s-1.661-.017-1.7-1.1C-367.489,192.942-366.623,192.913-366.063,192.873Z" transform="translate(-89.101 -156.402)" fill="#6a4d23"/>
        <path id="Trazado_905478" data-name="Trazado 905478" d="M-365.746,147.814a2.871,2.871,0,0,1-1.106-.208,1.2,1.2,0,0,1-.494-.929,1.633,1.633,0,0,1,.66-.949c.208-.155.593-.085.9-.091.788-.014,1.678-.066,1.7,1.042S-364.928,147.792-365.746,147.814Z" transform="translate(-89.177 -120.201)" fill="#6a4d23"/>
        <path id="Trazado_905479" data-name="Trazado 905479" d="M-365.822,169.4c.807-.012,1.676,0,1.648,1.1-.027,1.08-.895,1.07-1.7,1.069-.778,0-1.564-.049-1.586-1.063C-367.483,169.386-366.622,169.4-365.822,169.4Z" transform="translate(-89.094 -138.416)" fill="#6a4d23"/>
        <path id="Trazado_905480" data-name="Trazado 905480" d="M-355.31,55.687c.263-.923.46-1.635.667-2.343.436-1.492.948-2.966,1.294-4.478a1.571,1.571,0,0,1,2.112-1.374A1.887,1.887,0,0,1-350,48.42c.733,2.17,1.326,4.388,1.983,6.584.209.7.088,1.276-.632,1.522a1.008,1.008,0,0,1-1.413-.822c-.187-.909-.829-.76-1.433-.759-.674,0-1.379-.189-1.64.834a1.514,1.514,0,0,1-1.215.732C-354.69,56.511-355.026,55.95-355.31,55.687Z" transform="translate(-98.402 -44.95)" fill="#6a4d23"/>
        <path id="Trazado_905481" data-name="Trazado 905481" d="M-317.463,55.308c.084-.893-.118-2.013,1.077-2.062,1.373-.057,1.1,1.207,1.22,2.09.855.193,2.1-.173,2.083,1.158-.012,1.3-1.216,1-2.056,1.114-.2.859.179,2.09-1.158,2.1s-1.034-1.179-1.188-2.047c-.761-.278-2.1.238-2.038-1.249C-319.463,55.1-318.278,55.575-317.463,55.308Z" transform="translate(-125.823 -49.414)" fill="#6a4d23"/>
      </g>
    </g>
  </g>
</svg>
