<svg xmlns="http://www.w3.org/2000/svg" width="107" height="107" viewBox="0 0 107 107">
  <g id="Grupo_1120006" data-name="Grupo 1120006" transform="translate(-279.777 -16479.227)">
    <g id="Grupo_156312" data-name="Grupo 156312" transform="translate(-8.891 12030.789)">
      <path id="Elipse_5845" data-name="Elipse 5845" d="M53.5,0A53.5,53.5,0,1,1,0,53.5,53.5,53.5,0,0,1,53.5,0Z" transform="translate(288.668 4448.437)" fill="#ffce73"/>
    </g>
    <g id="Grupo_1098918" data-name="Grupo 1098918" transform="translate(-106.75 10461.013)">
      <path id="Trazado_873216" data-name="Trazado 873216" d="M0,0H63.184V63.186H0Z" transform="translate(408.527 6040.213)" fill="none"/>
      <g id="Grupo_1118361" data-name="Grupo 1118361" transform="translate(894.5 6048.575)">
        <path id="Trazado_905462" data-name="Trazado 905462" d="M-436.5,59.776h-43.4l2.712,2.258-1.886,1.471-5.868-5.918h1.245q23.214,0,46.427.025c.992,0,1.351-.278,1.6-1.236a32.431,32.431,0,0,1,1.639-4.754,3.905,3.905,0,0,1,4.628-2.56c1.861.412,3.009,2.026,3.011,4.254q.006,5.315,0,10.63v1.175c.434.109.8.2,1.17.294a9.673,9.673,0,0,1,7.448,9.4q.047,11.262,0,22.524a5.278,5.278,0,0,1-5.469,5.546c-6.562.035-13.125.013-19.687.012-.2,0-.408-.031-.671-.052v-6.4h19.236c.038-.365.091-.633.091-.9q.007-9.209,0-18.419a2.955,2.955,0,0,0-2.071-3.022c-.018.4-.048.766-.048,1.134q-.005,6.315,0,12.63a3.928,3.928,0,0,1-3.121,4.161,3.9,3.9,0,0,1-4.445-2.367,31.465,31.465,0,0,1-2.731-10.31,72.775,72.775,0,0,1,.135-18.569C-436.509,60.483-436.516,60.169-436.5,59.776Zm7.97,10.681q0-8.573,0-17.147c0-1.227-.514-1.983-1.448-2.141a1.761,1.761,0,0,0-2.089,1.35,47.571,47.571,0,0,0-1.92,6.194,63.363,63.363,0,0,0-.085,23.2,42.175,42.175,0,0,0,2.143,6.887,1.586,1.586,0,0,0,2.554.809,3.1,3.1,0,0,0,.812-2.011C-428.5,81.888-428.525,76.172-428.526,70.457Zm2.141-2.914c0,1.254-.021,2.51.022,3.763a.821.821,0,0,0,.479.551c2.688,1,3.822,2.961,3.8,5.77-.038,5.821-.011,11.643-.011,17.465v1.261h2.118c.025-.279.058-.483.058-.688,0-6.909.021-13.818-.022-20.726a8.638,8.638,0,0,0-.517-2.767A6.965,6.965,0,0,0-426.385,67.543Zm6.079,31.149h-21.116v2.064h6.5c3.86,0,7.721.009,11.581-.005A2.824,2.824,0,0,0-420.306,98.691Z" transform="translate(0 -46.502)" fill="#6a4d23"/>
        <path id="Trazado_905463" data-name="Trazado 905463" d="M-448.229,212.94c.933,1.64,1.782,3.08,1.179,4.809a3.835,3.835,0,0,1,2.2,5.346,2.105,2.105,0,0,1-2.176,1.329c-2.7-.014-5.4,0-8.1,0q-7.47,0-14.94,0c-1.942,0-2.668-.727-2.691-2.658-.008-.733,0-1.467,0-2.182-1.751-.834-3.52-1.744-5.35-2.509a5.908,5.908,0,0,0-2.067-.18c-1.078-.025-2.157-.007-3.3-.007V205.094a4.248,4.248,0,0,1,.639-.069c5.15.253,10.186-.79,15.264-1.348,2.4-.264,4.8-.616,7.2-.772,4.137-.267,8.047.841,11.9,2.205,1.517.538,3.059,1.008,4.568,1.565a3.477,3.477,0,0,1,2.285,4.44,3.67,3.67,0,0,1-4.513,2.429C-446.761,213.384-447.382,213.185-448.229,212.94Zm-22.01-1.342c.333.086.6.145.863.225,1.017.315,1.944.813,3.121.3,2.082-.91,4.24-1.65,6.377-2.431a4.674,4.674,0,0,1,6.5,3.9,8.1,8.1,0,0,0,1.227,3.364,1.676,1.676,0,0,0,2.389.785c.8-.461.958-1.274.412-2.288-1.079-2.006-2.154-4.014-3.274-6a8.614,8.614,0,0,0-4.744-3.954,10.756,10.756,0,0,0-5.19-.27c-4.549.615-9.108,1.155-13.667,1.692-.678.08-.871.352-.853,1a26.447,26.447,0,0,1-.029,4.519c-.314,2.143.586,3.164,2.483,3.971,2.958,1.259,5.982,2.088,9.09,1.214,3.254-.916,6.387-2.264,9.555-3.473a.992.992,0,0,0,.345-.88c-.366-1.46-1.947-2.121-3.588-1.52-2.466.9-4.918,1.842-7.383,2.75a1.808,1.808,0,0,1-1,.175c-1.1-.314-2.18-.717-3.32-1.1Zm23.3,10.617v-1.985h-23.536v1.985Zm-5.185-16.005c.762,1.263,1.433,2.4,2.131,3.514a1.141,1.141,0,0,0,.536.458c1.252.431,2.5.865,3.779,1.22a1.492,1.492,0,0,0,2.012-.98c.239-.778-.181-1.463-1.162-1.8-1.285-.444-2.582-.851-3.874-1.276C-449.815,206.976-450.928,206.605-452.124,206.209Zm-29.2,8.441h2v-7.438h-2Zm27.194,3.261-.96-1.74-3.831,1.554.062.186Z" transform="translate(-1.157 -168.021)" fill="#6a4d23"/>
        <path id="Trazado_905464" data-name="Trazado 905464" d="M-431.166-6.533c-.409-.327-.822-.649-1.226-.981-.379-.311-.75-.633-1.25-1.057l1.664-1.374,5.84,5.82h-57.306V-6.114h52.066Z" transform="translate(-1.182)" fill="#6a4d23"/>
        <path id="Trazado_905465" data-name="Trazado 905465" d="M-390.336,33.8c0,.7.019,1.4,0,2.1a3.238,3.238,0,0,1-3.186,3.238,3.229,3.229,0,0,1-3.279-3.044,42.161,42.161,0,0,1,0-4.724,3.277,3.277,0,0,1,3.29-3.054,3.3,3.3,0,0,1,3.172,3.278C-390.317,32.329-390.336,33.065-390.336,33.8Zm-4.293-.112a9.256,9.256,0,0,0,.047,2.2,1.58,1.58,0,0,0,1.048.99c.291.044.956-.566.983-.922a28.607,28.607,0,0,0,0-4.408c-.027-.355-.6-.857-1-.951-.64-.15-1.038.34-1.073.992C-394.657,32.285-394.628,32.987-394.629,33.689Z" transform="translate(-69.536 -30.208)" fill="#6a4d23"/>
        <path id="Trazado_905466" data-name="Trazado 905466" d="M-349.06,33.715c0,.77.024,1.541,0,2.31a3.215,3.215,0,0,1-2.993,3.1,3.032,3.032,0,0,1-3.331-2.552,31.593,31.593,0,0,1-.006-5.645,3.087,3.087,0,0,1,3.3-2.608,3.27,3.27,0,0,1,3.025,3.088C-349.033,32.173-349.06,32.945-349.06,33.715Zm-4.264,0c0,.7-.007,1.4,0,2.1.008.652.309,1.1.991,1.116a1.022,1.022,0,0,0,1.125-1.116,37.3,37.3,0,0,0-.043-4.2,1.586,1.586,0,0,0-1.04-1.025c-.631-.15-1.015.353-1.03,1.02C-353.334,32.31-353.322,33.011-353.323,33.712Z" transform="translate(-102.185 -30.2)" fill="#6a4d23"/>
        <path id="Trazado_905467" data-name="Trazado 905467" d="M-308.314,33.732c0,.665.009,1.331,0,2a3.268,3.268,0,0,1-3.136,3.4,3.243,3.243,0,0,1-3.351-3.087,36.883,36.883,0,0,1,0-4.619,3.3,3.3,0,0,1,3.346-3.115,3.319,3.319,0,0,1,3.14,3.425C-308.3,32.4-308.314,33.067-308.314,33.732Zm-4.3-.074h0a9.493,9.493,0,0,0,.046,2.2c.1.419.658.728,1.01,1.086.362-.357,1-.689,1.037-1.077a35.348,35.348,0,0,0,.044-4.2,1.03,1.03,0,0,0-1.131-1.115c-.685.021-.988.471-1.007,1.113C-312.629,32.326-312.613,32.992-312.613,33.658Z" transform="translate(-134.274 -30.202)" fill="#6a4d23"/>
        <path id="Trazado_905468" data-name="Trazado 905468" d="M-449.72,131.135a3.265,3.265,0,0,1,3.235,3.191,3.3,3.3,0,0,1-3.295,3.258,3.247,3.247,0,0,1-3.206-3.214A3.2,3.2,0,0,1-449.72,131.135Zm-.242,4.419.5-.008c.249-.411.743-.865.681-1.222-.069-.394-.647-.7-1-1.044-.348.365-.929.7-.975,1.1C-450.8,134.738-450.252,135.161-449.961,135.554Z" transform="translate(-25.23 -111.388)" fill="#6a4d23"/>
        <path id="Trazado_905469" data-name="Trazado 905469" d="M-367.607,131.135a3.262,3.262,0,0,1,3.223,3.2,3.294,3.294,0,0,1-3.295,3.252,3.23,3.23,0,0,1-3.193-3.218A3.184,3.184,0,0,1-367.607,131.135Zm-.254,4.42.5-.009c.254-.41.756-.863.695-1.219-.068-.4-.65-.7-1.008-1.047-.346.364-.921.7-.969,1.1C-368.687,134.735-368.145,135.16-367.861,135.555Z" transform="translate(-90.062 -111.388)" fill="#6a4d23"/>
        <path id="Trazado_905470" data-name="Trazado 905470" d="M-408.7,131.137a3.217,3.217,0,0,1,3.286,3.219,3.248,3.248,0,0,1-3.193,3.229,3.217,3.217,0,0,1-3.266-3.241A3.168,3.168,0,0,1-408.7,131.137Zm1.254,3.429-.016-.514c-.41-.257-.869-.768-1.218-.7-.4.076-.7.665-1.046,1.032.368.334.709.886,1.112.935C-408.259,135.359-407.837,134.838-407.445,134.566Z" transform="translate(-57.692 -111.39)" fill="#6a4d23"/>
        <path id="Trazado_905471" data-name="Trazado 905471" d="M-422.979,38.652H-425.1c0-2.137,0-4.223,0-6.309,0-2.063,0-2.063-2.007-2.366-.04-.054-.107-.106-.114-.165-.231-2.093.267-2.472,2.233-1.659a2.924,2.924,0,0,1,1.978,2.624C-422.916,33.36-422.979,35.949-422.979,38.652Z" transform="translate(-45.534 -29.766)" fill="#6a4d23"/>
      </g>
    </g>
  </g>
</svg>
