<svg xmlns="http://www.w3.org/2000/svg" xmlns:xlink="http://www.w3.org/1999/xlink" width="120" height="120" viewBox="0 0 120 120">
  <defs>
    <clipPath id="clip-path">
      <rect id="Rectángulo_400938" data-name="Rectángulo 400938" width="120" height="120" transform="translate(0 0)" fill="none"/>
    </clipPath>
    <clipPath id="clip-path-2">
      <rect id="Rectángulo_401073" data-name="Rectángulo 401073" width="92.219" height="41.532" fill="#7d3a1b"/>
    </clipPath>
  </defs>
  <g id="Grupo_1120043" data-name="Grupo 1120043" transform="translate(-180 -18802.031)">
    <g id="Grupo_1120030" data-name="Grupo 1120030" transform="translate(-207.668 12789.031)">
      <rect id="Rectángulo_401103" data-name="Rectángulo 401103" width="120" height="120" transform="translate(387.668 6013)" fill="none"/>
      <g id="Grupo_1099348" data-name="Grupo 1099348" transform="translate(387.668 6013)">
        <g id="Grupo_1099282" data-name="Grupo 1099282">
          <g id="Grupo_1099281" data-name="Grupo 1099281" clip-path="url(#clip-path-2)">
            <path id="Trazado_873375" data-name="Trazado 873375" d="M74.8,9.1c-4.139,0-6.28-2.03-8.17-3.821-1.855-1.756-3.452-3.274-6.792-3.274s-4.937,1.517-6.792,3.274C51.161,7.072,49.023,9.1,44.881,9.1s-6.28-2.03-8.169-3.821C34.857,3.525,33.26,2.007,29.92,2.007s-4.937,1.517-6.789,3.274C21.241,7.072,19.1,9.1,14.962,9.1S8.679,7.072,6.789,5.281C4.937,3.525,3.34,2.007,0,2.007V0C4.139,0,6.28,2.033,8.17,3.821c1.855,1.759,3.452,3.274,6.792,3.274S19.9,5.58,21.75,3.824C23.637,2.033,25.781,0,29.92,0s6.283,2.033,8.17,3.821c1.855,1.759,3.452,3.274,6.792,3.274s4.937-1.514,6.792-3.274C53.56,2.033,55.7,0,59.843,0s6.283,2.033,8.17,3.821C69.867,5.58,71.464,7.094,74.8,7.094S79.742,5.58,81.6,3.821C83.483,2.033,85.624,0,89.766,0V2.007c-3.34,0-4.937,1.517-6.792,3.274C81.084,7.072,78.943,9.1,74.8,9.1" transform="translate(2.453 32.43)" fill="#7d3a1b"/>
            <path id="Trazado_873376" data-name="Trazado 873376" d="M74.8,9.1c-4.139,0-6.283-2.03-8.17-3.824-1.855-1.756-3.452-3.27-6.792-3.27s-4.937,1.514-6.792,3.27C51.164,7.072,49.023,9.1,44.881,9.1s-6.283-2.03-8.17-3.824c-1.855-1.756-3.452-3.27-6.792-3.27s-4.937,1.517-6.789,3.27C21.241,7.072,19.1,9.1,14.962,9.1S8.679,7.072,6.789,5.278C4.937,3.522,3.34,2.007,0,2.007V0C4.139,0,6.283,2.03,8.17,3.821c1.855,1.759,3.452,3.274,6.792,3.274S19.9,5.58,21.75,3.821C23.637,2.03,25.781,0,29.92,0S36.2,2.03,38.093,3.821c1.852,1.759,3.449,3.274,6.789,3.274s4.937-1.514,6.792-3.274C53.56,2.03,55.7,0,59.843,0s6.283,2.03,8.17,3.821C69.867,5.58,71.464,7.094,74.8,7.094S79.742,5.58,81.6,3.821C83.486,2.03,85.627,0,89.769,0V2.007c-3.34,0-4.94,1.517-6.8,3.27C81.084,7.072,78.943,9.1,74.8,9.1" transform="translate(1.635 21.62)" fill="#7d3a1b"/>
            <path id="Trazado_873377" data-name="Trazado 873377" d="M74.8,9.1c-4.139,0-6.283-2.03-8.169-3.824-1.855-1.756-3.452-3.27-6.792-3.27s-4.937,1.514-6.792,3.27C51.164,7.072,49.02,9.1,44.881,9.1s-6.283-2.03-8.17-3.824c-1.855-1.756-3.452-3.27-6.792-3.27s-4.937,1.517-6.789,3.27C21.241,7.072,19.1,9.1,14.962,9.1S8.678,7.072,6.789,5.278C4.937,3.522,3.34,2.007,0,2.007V0C4.139,0,6.283,2.03,8.169,3.821c1.851,1.759,3.452,3.274,6.792,3.274S19.9,5.58,21.75,3.821C23.637,2.03,25.781,0,29.92,0S36.2,2.03,38.093,3.821c1.852,1.759,3.449,3.274,6.789,3.274s4.937-1.514,6.792-3.274C53.56,2.03,55.7,0,59.843,0s6.283,2.03,8.17,3.821C69.867,5.58,71.464,7.094,74.8,7.094S79.742,5.58,81.6,3.821C83.486,2.03,85.624,0,89.769,0V2.007c-3.34,0-4.941,1.517-6.8,3.27C81.084,7.072,78.943,9.1,74.8,9.1" transform="translate(0.818 10.81)" fill="#7d3a1b"/>
            <path id="Trazado_873378" data-name="Trazado 873378" d="M74.8,9.1c-4.139,0-6.28-2.03-8.17-3.821-1.855-1.756-3.452-3.27-6.792-3.27s-4.937,1.514-6.789,3.27C51.164,7.069,49.023,9.1,44.881,9.1s-6.28-2.03-8.169-3.821c-1.855-1.756-3.452-3.27-6.792-3.27s-4.937,1.514-6.789,3.267C21.245,7.069,19.1,9.1,14.962,9.1S8.678,7.069,6.789,5.278C4.937,3.522,3.34,2.007,0,2.007V0C4.139,0,6.283,2.03,8.17,3.821c1.855,1.756,3.452,3.27,6.792,3.27S19.9,5.577,21.75,3.821C23.64,2.03,25.781,0,29.92,0s6.28,2.03,8.173,3.821c1.852,1.756,3.449,3.27,6.789,3.27s4.937-1.514,6.792-3.27C53.563,2.03,55.7,0,59.843,0s6.28,2.03,8.17,3.821c1.855,1.756,3.452,3.27,6.792,3.27s4.937-1.514,6.792-3.27C83.486,2.03,85.627,0,89.769,0V2.007c-3.344,0-4.941,1.514-6.8,3.27C81.084,7.069,78.943,9.1,74.8,9.1" transform="translate(0 0.003)" fill="#7d3a1b"/>
          </g>
        </g>
      </g>
      <circle id="Elipse_11504" data-name="Elipse 11504" cx="50" cy="50" r="50" transform="translate(402.668 6031)" fill="#efb499"/>
      <circle id="Elipse_11503" data-name="Elipse 11503" cx="52" cy="52" r="52" transform="translate(395.668 6021)" fill="#f3f9ff"/>
    </g>
    <g id="Grupo_1120031" data-name="Grupo 1120031" transform="translate(205.941 18827.836)">
      <rect id="Rectángulo_401104" data-name="Rectángulo 401104" width="68" height="69" transform="translate(0.059 -0.804)" fill="none"/>
    </g>
    <g id="Grupo_1120009" data-name="Grupo 1120009" transform="translate(-102.363 -21.079)">
      <g id="Grupo_1118357" data-name="Grupo 1118357" transform="translate(311.15 18855.541)">
        <path id="Trazado_873216" data-name="Trazado 873216" d="M0,0H56.116V56.117H0Z" transform="translate(3.222 1.713)" fill="none"/>
        <g id="Grupo_1118365" data-name="Grupo 1118365" transform="translate(0 0)">
          <path id="Trazado_905498" data-name="Trazado 905498" d="M-463.7,83.642h2.741V82.577q0-5.229,0-10.459c0-1.376.36-1.736,1.726-1.738q3.959-.008,7.917,0h1.186c0-1.836,0-3.583,0-5.33,0-.456-.022-.914.015-1.368a1.246,1.246,0,0,1,1.321-1.285c3.551-.007,7.1,0,10.654.041,1.008.012,1.373.482,1.376,1.612.01,3.779,0,7.559,0,11.338v1.295h1.127q3.861,0,7.722,0c1.708,0,2.008.295,2.009,1.966q0,5.718,0,11.436v1.035l.214.076c.234-.286.486-.56.7-.859a22.861,22.861,0,0,0,4.04-18.141c-.18-.991.171-1.683.961-1.805.716-.111,1.291.428,1.451,1.38,1.466,8.739-.7,16.381-6.892,22.805-.554.574-.652,1.4-.336,3.062,1.7-.386,3.407-.764,5.106-1.16a7.117,7.117,0,0,1,4.218-.129,5.344,5.344,0,0,1,3.587,5.172,5.2,5.2,0,0,1-3.764,4.939c-5.475,1.416-10.953,2.833-16.47,4.071a12.979,12.979,0,0,1-7.65-.934c-5.867-2.317-11.706-4.715-17.637-6.856-1.577-.569-3.446-.332-5.07-.456-.159.24-.219.289-.223.342-.145,2.053-.254,2.155-2.355,2.155-2.574,0-5.148.005-7.722,0-1.229,0-1.66-.419-1.661-1.627q-.009-10.361,0-20.722c0-1.173.4-1.571,1.6-1.583,1.656-.017,3.312,0,5.1,0-.086-.755-.184-1.389-.227-2.026a25.53,25.53,0,0,1,2.1-12.385c.457-1.018,1.033-1.365,1.76-1.068s.913,1.037.459,2.074A23.551,23.551,0,0,0-466.4,79.562c.084.8.217,1.427,1.305,1.307.9-.1,1.371.478,1.394,1.38C-463.691,82.7-463.7,83.143-463.7,83.642Zm.043,16.288c1.032,0,1.975.053,2.909-.013a9.064,9.064,0,0,1,4.071.764c5.615,2.244,11.254,4.429,16.879,6.65a11.752,11.752,0,0,0,7.179.664c5.024-1.21,10.025-2.517,15.032-3.8a2.87,2.87,0,0,0,2.215-3.477A2.872,2.872,0,0,0-418.9,98.6c-3.742.841-7.484,1.685-11.214,2.576a15.506,15.506,0,0,1-9.224-.311c-3.96-1.475-7.9-3.009-11.842-4.525-1.006-.387-1.389-1.018-1.1-1.748s.955-.935,1.979-.544c2.521.963,5.033,1.949,7.557,2.9a3.176,3.176,0,0,0,4.286-1.758,3.072,3.072,0,0,0-1.951-4.079c-3.029-1.268-6.1-2.446-9.086-3.8a12.543,12.543,0,0,0-5.848-1.138c-2.407.1-4.82.023-7.231.023h-1.077ZM-439.291,88.9V64.943h-8.348v1.149q0,8.248,0,16.495c0,.939-.277,2.091.162,2.756s1.606.854,2.469,1.214C-443.126,87.342-441.237,88.1-439.291,88.9Zm10.924-9.681h-8.321a4.878,4.878,0,0,0-.064.53q-.006,5.327,0,10.653a1.372,1.372,0,0,0,.116.66,5.8,5.8,0,0,1,.021,5.945c-.7,1.377-.128,2.337,1.405,2.245,2.283-.136,4.552-.516,6.842-.794Zm-44.513,4.136v18.856h6.63V83.355Zm22.707-10.4h-8.339V83.606c2.791.407,5.62-.5,8.339.75Z" transform="translate(475.408 -51.224)" fill="#6a4d23"/>
          <path id="Trazado_905499" data-name="Trazado 905499" d="M-374.317,8.223a1.18,1.18,0,0,1-1.715.946,24.072,24.072,0,0,0-8.607-1.419,22.722,22.722,0,0,0-14.315,5.379c-1.128.931-1.788,1.065-2.349.411-.548-.638-.322-1.415.745-2.265q11.288-9,25.017-4.507C-374.878,6.986-374.341,7.283-374.317,8.223Z" transform="translate(416.023 -5.262)" fill="#6a4d23"/>
          <path id="Trazado_905500" data-name="Trazado 905500" d="M-256.581,37.145a7.855,7.855,0,0,1,.659-1.13q4.817-5.578,9.657-11.137c.537-.62,1.138-.894,1.867-.363.639.465.635,1.2-.016,1.953-3.212,3.718-6.42,7.441-9.682,11.116a2.021,2.021,0,0,1-1.492.519C-255.926,38.077-256.222,37.513-256.581,37.145Z" transform="translate(299.361 -20.525)" fill="#6a4d23"/>
          <path id="Trazado_905501" data-name="Trazado 905501" d="M-251.731,25.422a3.093,3.093,0,0,1-3.141,3.045,3.057,3.057,0,0,1-3.007-3.068,3.094,3.094,0,0,1,3.029-3.058A3.123,3.123,0,0,1-251.731,25.422Zm-3.085-.873c-.288.427-.6.685-.56.883a.942.942,0,0,0,.612.548c.108.032.475-.345.478-.539C-254.283,25.21-254.546,24.976-254.816,24.549Z" transform="translate(300.405 -19.002)" fill="#6a4d23"/>
          <path id="Trazado_905502" data-name="Trazado 905502" d="M-220.112,67.77a3.086,3.086,0,0,1,3.078,3.009,3.161,3.161,0,0,1-3.093,3.123,3.112,3.112,0,0,1-3.058-3.138A3.05,3.05,0,0,1-220.112,67.77Zm.015,2.182c-.283.4-.557.626-.57.864-.01.182.338.559.475.536.242-.04.59-.3.622-.5S-219.831,70.375-220.1,69.952Z" transform="translate(272.495 -55.55)" fill="#6a4d23"/>
          <path id="Trazado_905503" data-name="Trazado 905503" d="M-417,56.053a1.169,1.169,0,0,1,1.317,1.222,1.14,1.14,0,0,1-1.2,1.15,1.166,1.166,0,0,1-1.209-1.236A1.09,1.09,0,0,1-417,56.053Z" transform="translate(429.301 -46.124)" fill="#6a4d23"/>
        </g>
      </g>
    </g>
  </g>
</svg>
