<svg xmlns="http://www.w3.org/2000/svg" xmlns:xlink="http://www.w3.org/1999/xlink" width="120" height="120" viewBox="0 0 120 120">
  <defs>
    <clipPath id="clip-path">
      <rect id="Rectángulo_400938" data-name="Rectángulo 400938" width="120" height="120" transform="translate(0 0)" fill="none"/>
    </clipPath>
    <clipPath id="clip-path-2">
      <rect id="Rectángulo_401073" data-name="Rectángulo 401073" width="92.219" height="41.532" fill="#7d3a1b"/>
    </clipPath>
  </defs>
  <g id="Grupo_1120042" data-name="Grupo 1120042" transform="translate(-810 -18802.031)">
    <g id="Grupo_1120033" data-name="Grupo 1120033" transform="translate(422.332 12789.031)">
      <rect id="Rectángulo_401103" data-name="Rectángulo 401103" width="120" height="120" transform="translate(387.668 6013)" fill="none"/>
      <g id="Grupo_1099348" data-name="Grupo 1099348" transform="translate(387.668 6013)">
        <g id="Grupo_1099282" data-name="Grupo 1099282">
          <g id="Grupo_1099281" data-name="Grupo 1099281" clip-path="url(#clip-path-2)">
            <path id="Trazado_873375" data-name="Trazado 873375" d="M74.8,9.1c-4.139,0-6.28-2.03-8.17-3.821-1.855-1.756-3.452-3.274-6.792-3.274s-4.937,1.517-6.792,3.274C51.161,7.072,49.023,9.1,44.881,9.1s-6.28-2.03-8.169-3.821C34.857,3.525,33.26,2.007,29.92,2.007s-4.937,1.517-6.789,3.274C21.241,7.072,19.1,9.1,14.962,9.1S8.679,7.072,6.789,5.281C4.937,3.525,3.34,2.007,0,2.007V0C4.139,0,6.28,2.033,8.17,3.821c1.855,1.759,3.452,3.274,6.792,3.274S19.9,5.58,21.75,3.824C23.637,2.033,25.781,0,29.92,0s6.283,2.033,8.17,3.821c1.855,1.759,3.452,3.274,6.792,3.274s4.937-1.514,6.792-3.274C53.56,2.033,55.7,0,59.843,0s6.283,2.033,8.17,3.821C69.867,5.58,71.464,7.094,74.8,7.094S79.742,5.58,81.6,3.821C83.483,2.033,85.624,0,89.766,0V2.007c-3.34,0-4.937,1.517-6.792,3.274C81.084,7.072,78.943,9.1,74.8,9.1" transform="translate(2.453 32.43)" fill="#7d3a1b"/>
            <path id="Trazado_873376" data-name="Trazado 873376" d="M74.8,9.1c-4.139,0-6.283-2.03-8.17-3.824-1.855-1.756-3.452-3.27-6.792-3.27s-4.937,1.514-6.792,3.27C51.164,7.072,49.023,9.1,44.881,9.1s-6.283-2.03-8.17-3.824c-1.855-1.756-3.452-3.27-6.792-3.27s-4.937,1.517-6.789,3.27C21.241,7.072,19.1,9.1,14.962,9.1S8.679,7.072,6.789,5.278C4.937,3.522,3.34,2.007,0,2.007V0C4.139,0,6.283,2.03,8.17,3.821c1.855,1.759,3.452,3.274,6.792,3.274S19.9,5.58,21.75,3.821C23.637,2.03,25.781,0,29.92,0S36.2,2.03,38.093,3.821c1.852,1.759,3.449,3.274,6.789,3.274s4.937-1.514,6.792-3.274C53.56,2.03,55.7,0,59.843,0s6.283,2.03,8.17,3.821C69.867,5.58,71.464,7.094,74.8,7.094S79.742,5.58,81.6,3.821C83.486,2.03,85.627,0,89.769,0V2.007c-3.34,0-4.94,1.517-6.8,3.27C81.084,7.072,78.943,9.1,74.8,9.1" transform="translate(1.635 21.62)" fill="#7d3a1b"/>
            <path id="Trazado_873377" data-name="Trazado 873377" d="M74.8,9.1c-4.139,0-6.283-2.03-8.169-3.824-1.855-1.756-3.452-3.27-6.792-3.27s-4.937,1.514-6.792,3.27C51.164,7.072,49.02,9.1,44.881,9.1s-6.283-2.03-8.17-3.824c-1.855-1.756-3.452-3.27-6.792-3.27s-4.937,1.517-6.789,3.27C21.241,7.072,19.1,9.1,14.962,9.1S8.678,7.072,6.789,5.278C4.937,3.522,3.34,2.007,0,2.007V0C4.139,0,6.283,2.03,8.169,3.821c1.851,1.759,3.452,3.274,6.792,3.274S19.9,5.58,21.75,3.821C23.637,2.03,25.781,0,29.92,0S36.2,2.03,38.093,3.821c1.852,1.759,3.449,3.274,6.789,3.274s4.937-1.514,6.792-3.274C53.56,2.03,55.7,0,59.843,0s6.283,2.03,8.17,3.821C69.867,5.58,71.464,7.094,74.8,7.094S79.742,5.58,81.6,3.821C83.486,2.03,85.624,0,89.769,0V2.007c-3.34,0-4.941,1.517-6.8,3.27C81.084,7.072,78.943,9.1,74.8,9.1" transform="translate(0.818 10.81)" fill="#7d3a1b"/>
            <path id="Trazado_873378" data-name="Trazado 873378" d="M74.8,9.1c-4.139,0-6.28-2.03-8.17-3.821-1.855-1.756-3.452-3.27-6.792-3.27s-4.937,1.514-6.789,3.27C51.164,7.069,49.023,9.1,44.881,9.1s-6.28-2.03-8.169-3.821c-1.855-1.756-3.452-3.27-6.792-3.27s-4.937,1.514-6.789,3.267C21.245,7.069,19.1,9.1,14.962,9.1S8.678,7.069,6.789,5.278C4.937,3.522,3.34,2.007,0,2.007V0C4.139,0,6.283,2.03,8.17,3.821c1.855,1.756,3.452,3.27,6.792,3.27S19.9,5.577,21.75,3.821C23.64,2.03,25.781,0,29.92,0s6.28,2.03,8.173,3.821c1.852,1.756,3.449,3.27,6.789,3.27s4.937-1.514,6.792-3.27C53.563,2.03,55.7,0,59.843,0s6.28,2.03,8.17,3.821c1.855,1.756,3.452,3.27,6.792,3.27s4.937-1.514,6.792-3.27C83.486,2.03,85.627,0,89.769,0V2.007c-3.344,0-4.941,1.514-6.8,3.27C81.084,7.069,78.943,9.1,74.8,9.1" transform="translate(0 0.003)" fill="#7d3a1b"/>
          </g>
        </g>
      </g>
      <circle id="Elipse_11504" data-name="Elipse 11504" cx="50" cy="50" r="50" transform="translate(402.668 6031)" fill="#efb499"/>
      <circle id="Elipse_11503" data-name="Elipse 11503" cx="52" cy="52" r="52" transform="translate(395.668 6021)" fill="#f3f9ff"/>
    </g>
    <g id="Grupo_1120034" data-name="Grupo 1120034" transform="translate(835.941 18827.836)">
      <rect id="Rectángulo_401104" data-name="Rectángulo 401104" width="68" height="69" transform="translate(0.059 -0.804)" fill="none"/>
    </g>
    <g id="Grupo_1120011" data-name="Grupo 1120011" transform="translate(522.723 -347.217)">
      <g id="Grupo_1118359" data-name="Grupo 1118359" transform="translate(-103.068 13136.479)">
        <path id="Trazado_873216" data-name="Trazado 873216" d="M0,0H57.506V57.507H0Z" transform="translate(408.527 6040.213)" fill="none"/>
        <g id="Grupo_1118367" data-name="Grupo 1118367" transform="translate(417.681 6041.387)">
          <path id="Trazado_905507" data-name="Trazado 905507" d="M-452.441,54.445c0-1.376.025-2.675-.019-3.972a1.067,1.067,0,0,0-.421-.812,9.611,9.611,0,0,1-5.876-7.735h-2.132c0,.537.016,1.085,0,1.632a2.445,2.445,0,0,1-1.553,2.308,2.388,2.388,0,0,1-2.737-.493c-1.025-.963-1.973-2.008-3.013-2.953a2.215,2.215,0,0,0-1.268-.535c-1.262-.071-2.531-.009-3.8-.031a4.947,4.947,0,0,1-4.972-4.285c-.568-3.715-1.11-7.434-1.6-11.159a4.934,4.934,0,0,1,4.88-5.639q8.811-.065,17.622,0c2.349.014,3.887,1.364,4.91,4.211A18.3,18.3,0,0,1-441.8,20.769l.383-1.2a6.624,6.624,0,0,1-4.724-6.136c-2.063-.267-3.624-1.239-4.041-3.373a5.133,5.133,0,0,1,.247-2.551,2.837,2.837,0,0,0,.127-1.867,13.01,13.01,0,0,1,12.486-16.57c4.776-.092,8.814,1.3,11.754,5.165a12.624,12.624,0,0,1,2.1,11.677,1.527,1.527,0,0,0-.012,1.06,4.263,4.263,0,0,1-3.375,6.407.839.839,0,0,0-.221.107,6.534,6.534,0,0,1-4.679,6.03l.2.94a44.017,44.017,0,0,1,6.335,1.857c6.847,3.158,10.454,8.619,10.735,16.169a19.267,19.267,0,0,1-.42,5.112,8.508,8.508,0,0,1-5.049,5.86,1.2,1.2,0,0,0-.849,1.337c.065,1.19.018,2.385.018,3.657Zm-6.33-14.695a18.967,18.967,0,0,1,3.8-12.149,3.021,3.021,0,0,0-2.437-4.715c-5.832-.056-11.664-.042-17.5-.005A2.825,2.825,0,0,0-477.73,26.2q.749,5.474,1.575,10.937a2.854,2.854,0,0,0,3.039,2.609c1.475.021,2.954-.045,4.425.033a2.528,2.528,0,0,1,1.45.6c1.1.985,2.1,2.076,3.157,3.1a3.192,3.192,0,0,0,.784.415,2.924,2.924,0,0,0,.291-.83c.034-1.076.014-2.153.014-3.309Zm34.874,8.358c3.13.363,6.567-2.31,7.132-5.63a18.894,18.894,0,0,0-.333-7.839c-1.468-5.836-6.829-10.745-12.547-11.433l-1.482,8.14h1.952v8.488c2.053-.2,2.543-.027,3.965,1.366.693.678,1.224.691,1.78-.115a3.166,3.166,0,0,0,.514-1.551c.072-1.3.024-2.6.024-3.9V32.419h2.109c0,2.085-.08,4.119.02,6.144.125,2.515-.659,4.409-3.136,5.3Zm-22.2-43.259c-.247-3.295,1.186-5.4,4.274-6.39V-3.465h1.957c.086.776.121,1.51.256,2.225.407,2.154,1.444,2.993,3.632,3q2.374,0,4.749,0c2.7,0,3.449.55,4.241,3.131l1.4.242c1.657-3.468-.085-8.911-3.7-11.679a12.766,12.766,0,0,0-15.035.288c-3.652,3.038-4.719,8.321-3.3,11.4Zm4.835-4.2a3.11,3.11,0,0,0-2.733,3.223c-.022,3.126-.028,6.253,0,9.379a4.2,4.2,0,0,0,4.332,4.325q3.055.041,6.112,0a4.2,4.2,0,0,0,4.316-4.341c.028-2.634.015-5.269,0-7.9,0-1.108-.347-1.454-1.438-1.464-1.581-.015-3.166-.08-4.741.013C-438.044,4.04-440.107,3.233-441.259.654Zm9.924,51.709a9.248,9.248,0,0,0-.023-1.542,1.135,1.135,0,0,0-.518-.74,4.117,4.117,0,0,1-2.608-3.877,4.14,4.14,0,0,1,2.56-4.016c.237-.114.558-.394.561-.6.038-2.695.025-5.39.025-8.091h-10.5V52.364ZM-443.6,23.132a15.777,15.777,0,0,0-9.762,5.916c-2.993,3.8-3.716,8.212-3.2,12.854a6.376,6.376,0,0,0,5.015,5.873,47.748,47.748,0,0,0,7.486.564V43.97c-1.349,0-2.642.01-3.935,0a4.2,4.2,0,0,1-4.446-4.427c-.017-2.251.022-4.5-.013-6.753a3.158,3.158,0,0,1,1.939-3.313,3.239,3.239,0,0,1,3.818.977c.806.858,1.637,1.691,2.617,2.7l.145-1.811,1.826-.086Zm14.338,20.8a12.8,12.8,0,0,0-1.351.076,2.109,2.109,0,0,0-1.773,2.152,1.988,1.988,0,0,0,1.746,2.043c1.49.081,2.987.021,4.58.021,0-1.4,0-2.691,0-3.979a2.956,2.956,0,0,0-1.635-2.325,1.126,1.126,0,0,0-1.5.883A9.734,9.734,0,0,0-429.26,43.935Zm-10.15-24.2c-.054.7-.366,1.481-.1,1.9a46.931,46.931,0,0,0,2.891,3.747c.836-1.038,1.481-1.966,2.256-2.767a2.228,2.228,0,0,0,.36-2.879Zm-4.812,19.2.311-.12c-.1-.961.137-2.183-.366-2.831a35.715,35.715,0,0,0-4.295-4.341,1.486,1.486,0,0,0-1.385,0,.9.9,0,0,0-.04,1.468C-448.086,35.072-446.149,37-444.221,38.942Zm-.64,2.892-5.467-5.458c0,.951-.027,2.142.008,3.331a2.013,2.013,0,0,0,1.811,2.105C-447.2,41.9-445.88,41.834-444.861,41.834Zm.8,10.527V50.369h-6.184v1.993Zm14.887-.017h6.2V50.412h-6.2ZM-440.2,29.87c.753-.939,1.374-1.682,1.949-2.46a.681.681,0,0,0,.009-.636c-.973-1.265-1.98-2.5-2.977-3.749l-.209.093Zm8.372-6.767L-432,23.02c-1,1.245-2,2.483-2.973,3.746a.678.678,0,0,0,0,.635c.575.781,1.2,1.526,1.942,2.456.382-2.033.727-3.844,1.061-5.657C-431.9,23.839-431.876,23.469-431.831,23.1ZM-446.14,7.076c-1.4.256-2.135,1.067-2.071,2.179a1.956,1.956,0,0,0,2.071,1.878Zm19.057,4.138c1.4-.26,2.136-1.068,2.071-2.182a1.951,1.951,0,0,0-2.071-1.873Zm-11.481,20h3.9l-1.951-2.414Z" transform="translate(479.88 10.937)" fill="#6a4d23"/>
          <path id="Trazado_905508" data-name="Trazado 905508" d="M-460.885,10.254c0,.67.008,1.162,0,1.653a2.453,2.453,0,0,1-1.508,2.34,2.417,2.417,0,0,1-2.825-.508c-.993-.945-1.915-1.966-2.934-2.88a2.4,2.4,0,0,0-1.357-.573c-1.261-.079-2.53-.008-3.8-.034a4.935,4.935,0,0,1-4.913-4.224c-.579-3.747-1.129-7.5-1.614-11.259a4.93,4.93,0,0,1,4.918-5.6q8.754-.057,17.508,0a4.9,4.9,0,0,1,4.925,5.49c-.461,3.833-1.033,7.654-1.636,11.468a4.916,4.916,0,0,1-4.783,4.125C-459.523,10.273-460.148,10.254-460.885,10.254Zm-2.107-2.105c1.342,0,2.534.012,3.725,0a2.877,2.877,0,0,0,3.112-2.657q.811-5.418,1.562-10.844a2.848,2.848,0,0,0-2.889-3.369q-8.7-.045-17.409,0a2.83,2.83,0,0,0-2.837,3.315q.749,5.48,1.577,10.948a2.851,2.851,0,0,0,3.05,2.6c1.512.02,3.026-.035,4.536.03a2.158,2.158,0,0,1,1.268.533c1.136,1.049,2.2,2.18,3.308,3.255a2.322,2.322,0,0,0,.714.317,2.524,2.524,0,0,0,.269-.741C-462.975,10.455-462.992,9.37-462.992,8.149Z" transform="translate(479.877 10.877)" fill="#6a4d23"/>
          <path id="Trazado_905509" data-name="Trazado 905509" d="M-426.474,171.835h-2.084v-4.091h-4.236v4.094h-2.119c0-.381,0-.752,0-1.124,0-2.423-.025-4.846.01-7.268a4.183,4.183,0,0,1,4.213-4.217,4.181,4.181,0,0,1,4.207,4.223C-426.446,166.219-426.474,168.987-426.474,171.835Zm-2.1-6.322c-.1-1.46.433-2.985-1.11-3.9a1.9,1.9,0,0,0-2.184.11c-1.388,1-.824,2.436-.927,3.791Z" transform="translate(444.411 -123.312)" fill="#6a4d23"/>
          <path id="Trazado_905510" data-name="Trazado 905510" d="M-289.675,101.84v-2.1c1.239,0,2.46.069,3.666-.033.514-.043.978-.5,1.5-.669.674-.215,1.381-.326,2.13-.494-.108,1.99-1.259,3.218-2.974,3.287C-286.753,101.885-288.154,101.84-289.675,101.84Z" transform="translate(329.822 -75.434)" fill="#6a4d23"/>
          <path id="Trazado_905511" data-name="Trazado 905511" d="M-298.844,71.78c-.247-.422-.746-.9-.673-1.252a1.481,1.481,0,0,1,1.082-.9c.276-.026.864.636.865.99,0,.4-.506.792-.792,1.188Z" transform="translate(337.593 -52.621)" fill="#6a4d23"/>
          <path id="Trazado_905512" data-name="Trazado 905512" d="M-258.844,71.78c-.247-.422-.746-.9-.673-1.252a1.481,1.481,0,0,1,1.082-.9c.276-.026.864.636.865.99,0,.4-.506.792-.792,1.188Z" transform="translate(306.036 -52.621)" fill="#6a4d23"/>
          <path id="Trazado_905513" data-name="Trazado 905513" d="M-444.679,13.684V11.613h5.184V9.532h2.134v2.01h5.241v1.993c-.032.027-.094.117-.137.109-1.766-.341-2.622.527-3.152,2.128a16.709,16.709,0,0,1-1.581,2.8l3.294,2.752L-434.75,23.1l-3.643-2.842-3.618,2.842-1.069-1.781,3.2-2.665c-.823-1.656-1.554-3.163-2.333-4.645a.947.947,0,0,0-.683-.31C-443.448,13.654-444.01,13.684-444.679,13.684Zm6.295,3.2,1.659-3.129h-3.342Z" transform="translate(452.109 -5.212)" fill="#6a4d23"/>
        </g>
      </g>
    </g>
  </g>
</svg>
