<svg xmlns="http://www.w3.org/2000/svg" xmlns:xlink="http://www.w3.org/1999/xlink" width="120" height="120" viewBox="0 0 120 120">
  <defs>
    <clipPath id="clip-path">
      <rect id="Rectángulo_400938" data-name="Rectángulo 400938" width="120" height="120" transform="translate(0 0)" fill="none"/>
    </clipPath>
    <clipPath id="clip-path-2">
      <rect id="Rectángulo_401073" data-name="Rectángulo 401073" width="92.219" height="41.532" fill="#7d3a1b"/>
    </clipPath>
  </defs>
  <g id="Grupo_1120044" data-name="Grupo 1120044" transform="translate(-180 -19002.031)">
    <g id="Grupo_1120039" data-name="Grupo 1120039" transform="translate(-207.668 12989.031)">
      <rect id="Rectángulo_401103" data-name="Rectángulo 401103" width="120" height="120" transform="translate(387.668 6013)" fill="none"/>
      <g id="Grupo_1099348" data-name="Grupo 1099348" transform="translate(387.668 6013)">
        <g id="Grupo_1099282" data-name="Grupo 1099282">
          <g id="Grupo_1099281" data-name="Grupo 1099281" clip-path="url(#clip-path-2)">
            <path id="Trazado_873375" data-name="Trazado 873375" d="M74.8,9.1c-4.139,0-6.28-2.03-8.17-3.821-1.855-1.756-3.452-3.274-6.792-3.274s-4.937,1.517-6.792,3.274C51.161,7.072,49.023,9.1,44.881,9.1s-6.28-2.03-8.169-3.821C34.857,3.525,33.26,2.007,29.92,2.007s-4.937,1.517-6.789,3.274C21.241,7.072,19.1,9.1,14.962,9.1S8.679,7.072,6.789,5.281C4.937,3.525,3.34,2.007,0,2.007V0C4.139,0,6.28,2.033,8.17,3.821c1.855,1.759,3.452,3.274,6.792,3.274S19.9,5.58,21.75,3.824C23.637,2.033,25.781,0,29.92,0s6.283,2.033,8.17,3.821c1.855,1.759,3.452,3.274,6.792,3.274s4.937-1.514,6.792-3.274C53.56,2.033,55.7,0,59.843,0s6.283,2.033,8.17,3.821C69.867,5.58,71.464,7.094,74.8,7.094S79.742,5.58,81.6,3.821C83.483,2.033,85.624,0,89.766,0V2.007c-3.34,0-4.937,1.517-6.792,3.274C81.084,7.072,78.943,9.1,74.8,9.1" transform="translate(2.453 32.43)" fill="#7d3a1b"/>
            <path id="Trazado_873376" data-name="Trazado 873376" d="M74.8,9.1c-4.139,0-6.283-2.03-8.17-3.824-1.855-1.756-3.452-3.27-6.792-3.27s-4.937,1.514-6.792,3.27C51.164,7.072,49.023,9.1,44.881,9.1s-6.283-2.03-8.17-3.824c-1.855-1.756-3.452-3.27-6.792-3.27s-4.937,1.517-6.789,3.27C21.241,7.072,19.1,9.1,14.962,9.1S8.679,7.072,6.789,5.278C4.937,3.522,3.34,2.007,0,2.007V0C4.139,0,6.283,2.03,8.17,3.821c1.855,1.759,3.452,3.274,6.792,3.274S19.9,5.58,21.75,3.821C23.637,2.03,25.781,0,29.92,0S36.2,2.03,38.093,3.821c1.852,1.759,3.449,3.274,6.789,3.274s4.937-1.514,6.792-3.274C53.56,2.03,55.7,0,59.843,0s6.283,2.03,8.17,3.821C69.867,5.58,71.464,7.094,74.8,7.094S79.742,5.58,81.6,3.821C83.486,2.03,85.627,0,89.769,0V2.007c-3.34,0-4.94,1.517-6.8,3.27C81.084,7.072,78.943,9.1,74.8,9.1" transform="translate(1.635 21.62)" fill="#7d3a1b"/>
            <path id="Trazado_873377" data-name="Trazado 873377" d="M74.8,9.1c-4.139,0-6.283-2.03-8.169-3.824-1.855-1.756-3.452-3.27-6.792-3.27s-4.937,1.514-6.792,3.27C51.164,7.072,49.02,9.1,44.881,9.1s-6.283-2.03-8.17-3.824c-1.855-1.756-3.452-3.27-6.792-3.27s-4.937,1.517-6.789,3.27C21.241,7.072,19.1,9.1,14.962,9.1S8.678,7.072,6.789,5.278C4.937,3.522,3.34,2.007,0,2.007V0C4.139,0,6.283,2.03,8.169,3.821c1.851,1.759,3.452,3.274,6.792,3.274S19.9,5.58,21.75,3.821C23.637,2.03,25.781,0,29.92,0S36.2,2.03,38.093,3.821c1.852,1.759,3.449,3.274,6.789,3.274s4.937-1.514,6.792-3.274C53.56,2.03,55.7,0,59.843,0s6.283,2.03,8.17,3.821C69.867,5.58,71.464,7.094,74.8,7.094S79.742,5.58,81.6,3.821C83.486,2.03,85.624,0,89.769,0V2.007c-3.34,0-4.941,1.517-6.8,3.27C81.084,7.072,78.943,9.1,74.8,9.1" transform="translate(0.818 10.81)" fill="#7d3a1b"/>
            <path id="Trazado_873378" data-name="Trazado 873378" d="M74.8,9.1c-4.139,0-6.28-2.03-8.17-3.821-1.855-1.756-3.452-3.27-6.792-3.27s-4.937,1.514-6.789,3.27C51.164,7.069,49.023,9.1,44.881,9.1s-6.28-2.03-8.169-3.821c-1.855-1.756-3.452-3.27-6.792-3.27s-4.937,1.514-6.789,3.267C21.245,7.069,19.1,9.1,14.962,9.1S8.678,7.069,6.789,5.278C4.937,3.522,3.34,2.007,0,2.007V0C4.139,0,6.283,2.03,8.17,3.821c1.855,1.756,3.452,3.27,6.792,3.27S19.9,5.577,21.75,3.821C23.64,2.03,25.781,0,29.92,0s6.28,2.03,8.173,3.821c1.852,1.756,3.449,3.27,6.789,3.27s4.937-1.514,6.792-3.27C53.563,2.03,55.7,0,59.843,0s6.28,2.03,8.17,3.821c1.855,1.756,3.452,3.27,6.792,3.27s4.937-1.514,6.792-3.27C83.486,2.03,85.627,0,89.769,0V2.007c-3.344,0-4.941,1.514-6.8,3.27C81.084,7.069,78.943,9.1,74.8,9.1" transform="translate(0 0.003)" fill="#7d3a1b"/>
          </g>
        </g>
      </g>
      <circle id="Elipse_11504" data-name="Elipse 11504" cx="50" cy="50" r="50" transform="translate(402.668 6031)" fill="#efb499"/>
      <circle id="Elipse_11503" data-name="Elipse 11503" cx="52" cy="52" r="52" transform="translate(395.668 6021)" fill="#f3f9ff"/>
    </g>
    <g id="Grupo_1120040" data-name="Grupo 1120040" transform="translate(205.719 19027.805)">
      <rect id="Rectángulo_401104" data-name="Rectángulo 401104" width="68" height="69" transform="translate(0.059 -0.804)" fill="none"/>
    </g>
    <g id="Grupo_1120010" data-name="Grupo 1120010" transform="translate(-106.457 15.328)">
      <g id="Grupo_1118358" data-name="Grupo 1118358" transform="translate(314.235 19015.672)">
        <path id="Trazado_873216" data-name="Trazado 873216" d="M0,0H54.364V54.365H0Z" transform="translate(0.467 5.849)" fill="none"/>
        <g id="Grupo_1118366" data-name="Grupo 1118366" transform="translate(0 0)">
          <path id="Trazado_905504" data-name="Trazado 905504" d="M-439.469-6.406h-8.587c-1,0-2.01.008-3.015,0-1.113-.012-1.414-.313-1.416-1.445q-.01-6.03,0-12.059v-1.049h-1.238q-14.471,0-28.943,0c-3.056,0-4.3,1.267-4.3,4.351q0,24.722,0,49.444c0,3.058,1.27,4.331,4.33,4.331q19.4,0,38.791,0c3.1,0,4.378-1.291,4.381-4.409a19.412,19.412,0,0,1,.045-2.708c.053-.371.551-.678.847-1.014.325.31.914.606.931.932a26.156,26.156,0,0,1-.053,4.612,5.255,5.255,0,0,1-5.174,4.468q-20.35.027-40.7,0a5.385,5.385,0,0,1-5.3-5.246c-.046-1.3-.013-2.613-.013-3.919q0-23.466,0-46.931a5.426,5.426,0,0,1,4.165-5.659,6.212,6.212,0,0,1,1.587-.158q15.627-.015,31.254.016a2.043,2.043,0,0,1,1.353.607q6.219,6.906,12.355,13.886a2.237,2.237,0,0,1,.583,1.3c.043,3.182.014,6.364.006,9.546,0,.2.071.462-.028.591a11.134,11.134,0,0,1-.932.978c-.306-.327-.827-.625-.877-.987a20.577,20.577,0,0,1-.047-2.808C-439.47-1.908-439.469-4.079-439.469-6.406Zm-1.286-2L-450.446-19.3V-8.407Z" transform="translate(488.901 22.876)" fill="#6a4d23"/>
          <path id="Trazado_905505" data-name="Trazado 905505" d="M-286.82,100.746a8.863,8.863,0,0,1,1.927,1.022c1.543,1.435,3.02,2.942,4.486,4.456a2.468,2.468,0,0,1,.009,3.742q-8.136,8.191-16.318,16.337a2.08,2.08,0,0,1-.95.478c-2.694.655-5.394,1.284-8.093,1.918-1.363.321-1.857-.205-1.534-1.6.619-2.668,1.21-5.343,1.851-8.006a2.447,2.447,0,0,1,.621-1.095q8-8.041,16.049-16.035A10.67,10.67,0,0,1-286.82,100.746ZM-297.5,124.289a.862.862,0,0,0,.186-.125q7.71-7.7,15.421-15.405a.815.815,0,0,0,0-1.359c-1.292-1.265-2.559-2.555-3.838-3.833-.965-.964-1-.965-1.986.019q-7.314,7.321-14.624,14.646c-.226.226-.429.474-.588.652Zm-2.218,1.015-4.206-4.209-1.262,5.473Z" transform="translate(343.872 -75.899)" fill="#6a4d23"/>
          <path id="Trazado_905506" data-name="Trazado 905506" d="M-268.189,139.234c-.944.008-1.4-.692-1.073-1.319a3.086,3.086,0,0,1,.575-.688q5-5.013,10.006-10.017c.189-.189.383-.486.6-.508a1.688,1.688,0,0,1,1.16.19c.2.176.163.72.1,1.075-.042.225-.318.415-.506.6q-5,5.009-10.015,10.008A7.262,7.262,0,0,1-268.189,139.234Z" transform="translate(313.494 -96.623)" fill="#6a4d23"/>
        </g>
      </g>
      <path id="Trazado_907114" data-name="Trazado 907114" d="M-307.018,37.106c-3.432,0-6.865.006-10.3,0-1.7,0-2.329-.647-2.343-2.354-.008-.915-.012-1.831,0-2.746.023-1.517.643-2.158,2.161-2.166,3.318-.017,6.636-.006,9.953-.006,3.661,0,7.322-.006,10.983,0,1.718,0,2.349.639,2.358,2.331.005.915.011,1.831,0,2.746a1.937,1.937,0,0,1-2.176,2.188C-299.925,37.117-303.471,37.106-307.018,37.106Zm-10.876-1.862h21.853v-3.57h-21.853Z" transform="translate(642.282 18995.365)" fill="#6a4d23"/>
      <path id="Trazado_907115" data-name="Trazado 907115" d="M-307.018,37.106c-3.432,0-6.865.006-10.3,0-1.7,0-2.329-.647-2.343-2.354-.008-.915-.012-1.831,0-2.746.023-1.517.643-2.158,2.161-2.166,3.318-.017,6.636-.006,9.953-.006,3.661,0,7.322-.006,10.983,0,1.718,0,2.349.639,2.358,2.331.005.915.011,1.831,0,2.746a1.937,1.937,0,0,1-2.176,2.188C-299.925,37.117-303.471,37.106-307.018,37.106Zm-10.876-1.862h21.853v-3.57h-21.853Z" transform="translate(642.282 19005.689)" fill="#6a4d23"/>
      <path id="Trazado_907116" data-name="Trazado 907116" d="M-307.018,37.106c-3.432,0-6.865.006-10.3,0-1.7,0-2.329-.647-2.343-2.354-.008-.915-.012-1.831,0-2.746.023-1.517.643-2.158,2.161-2.166,3.318-.017,6.636-.006,9.953-.006,3.661,0,7.322-.006,10.983,0,1.718,0,2.349.639,2.358,2.331.005.915.011,1.831,0,2.746a1.937,1.937,0,0,1-2.176,2.188C-299.925,37.117-303.471,37.106-307.018,37.106Zm-10.876-1.862h21.853v-3.57h-21.853Z" transform="translate(642.282 19016.811)" fill="#6a4d23"/>
      <path id="Trazado_907117" data-name="Trazado 907117" d="M-307.018,37.106c-3.432,0-6.865.006-10.3,0-1.7,0-2.329-.647-2.343-2.354-.008-.915-.012-1.831,0-2.746.023-1.517.643-2.158,2.161-2.166,3.318-.017,6.636-.006,9.953-.006,3.661,0,7.322-.006,10.983,0,1.718,0,2.349.639,2.358,2.331.005.915.011,1.831,0,2.746a1.937,1.937,0,0,1-2.176,2.188C-299.925,37.117-303.471,37.106-307.018,37.106Zm-10.876-1.862h21.853v-3.57h-21.853Z" transform="translate(642.282 19027.934)" fill="#6a4d23"/>
    </g>
  </g>
</svg>
